<?xml version="1.0" encoding="utf-8" standalone="no"?>
<!DOCTYPE svg PUBLIC "-//W3C//DTD SVG 1.1//EN"
  "http://www.w3.org/Graphics/SVG/1.1/DTD/svg11.dtd">
<svg xmlns:xlink="http://www.w3.org/1999/xlink" width="238.965625pt" height="183.35625pt" viewBox="0 0 238.965625 183.35625" xmlns="http://www.w3.org/2000/svg" version="1.1">
 <metadata>
  <rdf:RDF xmlns:dc="http://purl.org/dc/elements/1.1/" xmlns:cc="http://creativecommons.org/ns#" xmlns:rdf="http://www.w3.org/1999/02/22-rdf-syntax-ns#">
   <cc:Work>
    <dc:type rdf:resource="http://purl.org/dc/dcmitype/StillImage"/>
    <dc:date>2023-04-20T10:10:22.257053</dc:date>
    <dc:format>image/svg+xml</dc:format>
    <dc:creator>
     <cc:Agent>
      <dc:title>Matplotlib v3.5.1, https://matplotlib.org/</dc:title>
     </cc:Agent>
    </dc:creator>
   </cc:Work>
  </rdf:RDF>
 </metadata>
 <defs>
  <style type="text/css">*{stroke-linejoin: round; stroke-linecap: butt}</style>
 </defs>
 <g id="figure_1">
  <g id="patch_1">
   <path d="M 0 183.35625 
L 238.965625 183.35625 
L 238.965625 0 
L 0 0 
z
" style="fill: #ffffff"/>
  </g>
  <g id="axes_1">
   <g id="patch_2">
    <path d="M 30.103125 145.8 
L 225.403125 145.8 
L 225.403125 7.2 
L 30.103125 7.2 
z
" style="fill: #ffffff"/>
   </g>
   <g id="matplotlib.axis_1">
    <g id="xtick_1">
     <g id="line2d_1">
      <path d="M 65.974554 145.8 
L 65.974554 7.2 
" clip-path="url(#pd705c6d25f)" style="fill: none; stroke: #b0b0b0; stroke-width: 0.8; stroke-linecap: square"/>
     </g>
     <g id="line2d_2">
      <defs>
       <path id="m2e5e1fe88b" d="M 0 0 
L 0 3.5 
" style="stroke: #000000; stroke-width: 0.8"/>
      </defs>
      <g>
       <use xlink:href="#m2e5e1fe88b" x="65.974554" y="145.8" style="stroke: #000000; stroke-width: 0.8"/>
      </g>
     </g>
     <g id="text_1">
      <!-- 10 -->
      <g transform="translate(59.612054 160.398438)scale(0.1 -0.1)">
       <defs>
        <path id="DejaVuSans-31" d="M 794 531 
L 1825 531 
L 1825 4091 
L 703 3866 
L 703 4441 
L 1819 4666 
L 2450 4666 
L 2450 531 
L 3481 531 
L 3481 0 
L 794 0 
L 794 531 
z
" transform="scale(0.015625)"/>
        <path id="DejaVuSans-30" d="M 2034 4250 
Q 1547 4250 1301 3770 
Q 1056 3291 1056 2328 
Q 1056 1369 1301 889 
Q 1547 409 2034 409 
Q 2525 409 2770 889 
Q 3016 1369 3016 2328 
Q 3016 3291 2770 3770 
Q 2525 4250 2034 4250 
z
M 2034 4750 
Q 2819 4750 3233 4129 
Q 3647 3509 3647 2328 
Q 3647 1150 3233 529 
Q 2819 -91 2034 -91 
Q 1250 -91 836 529 
Q 422 1150 422 2328 
Q 422 3509 836 4129 
Q 1250 4750 2034 4750 
z
" transform="scale(0.015625)"/>
       </defs>
       <use xlink:href="#DejaVuSans-31"/>
       <use xlink:href="#DejaVuSans-30" x="63.623047"/>
      </g>
     </g>
    </g>
    <g id="xtick_2">
     <g id="line2d_3">
      <path d="M 105.831696 145.8 
L 105.831696 7.2 
" clip-path="url(#pd705c6d25f)" style="fill: none; stroke: #b0b0b0; stroke-width: 0.8; stroke-linecap: square"/>
     </g>
     <g id="line2d_4">
      <g>
       <use xlink:href="#m2e5e1fe88b" x="105.831696" y="145.8" style="stroke: #000000; stroke-width: 0.8"/>
      </g>
     </g>
     <g id="text_2">
      <!-- 20 -->
      <g transform="translate(99.469196 160.398438)scale(0.1 -0.1)">
       <defs>
        <path id="DejaVuSans-32" d="M 1228 531 
L 3431 531 
L 3431 0 
L 469 0 
L 469 531 
Q 828 903 1448 1529 
Q 2069 2156 2228 2338 
Q 2531 2678 2651 2914 
Q 2772 3150 2772 3378 
Q 2772 3750 2511 3984 
Q 2250 4219 1831 4219 
Q 1534 4219 1204 4116 
Q 875 4013 500 3803 
L 500 4441 
Q 881 4594 1212 4672 
Q 1544 4750 1819 4750 
Q 2544 4750 2975 4387 
Q 3406 4025 3406 3419 
Q 3406 3131 3298 2873 
Q 3191 2616 2906 2266 
Q 2828 2175 2409 1742 
Q 1991 1309 1228 531 
z
" transform="scale(0.015625)"/>
       </defs>
       <use xlink:href="#DejaVuSans-32"/>
       <use xlink:href="#DejaVuSans-30" x="63.623047"/>
      </g>
     </g>
    </g>
    <g id="xtick_3">
     <g id="line2d_5">
      <path d="M 145.688839 145.8 
L 145.688839 7.2 
" clip-path="url(#pd705c6d25f)" style="fill: none; stroke: #b0b0b0; stroke-width: 0.8; stroke-linecap: square"/>
     </g>
     <g id="line2d_6">
      <g>
       <use xlink:href="#m2e5e1fe88b" x="145.688839" y="145.8" style="stroke: #000000; stroke-width: 0.8"/>
      </g>
     </g>
     <g id="text_3">
      <!-- 30 -->
      <g transform="translate(139.326339 160.398438)scale(0.1 -0.1)">
       <defs>
        <path id="DejaVuSans-33" d="M 2597 2516 
Q 3050 2419 3304 2112 
Q 3559 1806 3559 1356 
Q 3559 666 3084 287 
Q 2609 -91 1734 -91 
Q 1441 -91 1130 -33 
Q 819 25 488 141 
L 488 750 
Q 750 597 1062 519 
Q 1375 441 1716 441 
Q 2309 441 2620 675 
Q 2931 909 2931 1356 
Q 2931 1769 2642 2001 
Q 2353 2234 1838 2234 
L 1294 2234 
L 1294 2753 
L 1863 2753 
Q 2328 2753 2575 2939 
Q 2822 3125 2822 3475 
Q 2822 3834 2567 4026 
Q 2313 4219 1838 4219 
Q 1578 4219 1281 4162 
Q 984 4106 628 3988 
L 628 4550 
Q 988 4650 1302 4700 
Q 1616 4750 1894 4750 
Q 2613 4750 3031 4423 
Q 3450 4097 3450 3541 
Q 3450 3153 3228 2886 
Q 3006 2619 2597 2516 
z
" transform="scale(0.015625)"/>
       </defs>
       <use xlink:href="#DejaVuSans-33"/>
       <use xlink:href="#DejaVuSans-30" x="63.623047"/>
      </g>
     </g>
    </g>
    <g id="xtick_4">
     <g id="line2d_7">
      <path d="M 185.545982 145.8 
L 185.545982 7.2 
" clip-path="url(#pd705c6d25f)" style="fill: none; stroke: #b0b0b0; stroke-width: 0.8; stroke-linecap: square"/>
     </g>
     <g id="line2d_8">
      <g>
       <use xlink:href="#m2e5e1fe88b" x="185.545982" y="145.8" style="stroke: #000000; stroke-width: 0.8"/>
      </g>
     </g>
     <g id="text_4">
      <!-- 40 -->
      <g transform="translate(179.183482 160.398438)scale(0.1 -0.1)">
       <defs>
        <path id="DejaVuSans-34" d="M 2419 4116 
L 825 1625 
L 2419 1625 
L 2419 4116 
z
M 2253 4666 
L 3047 4666 
L 3047 1625 
L 3713 1625 
L 3713 1100 
L 3047 1100 
L 3047 0 
L 2419 0 
L 2419 1100 
L 313 1100 
L 313 1709 
L 2253 4666 
z
" transform="scale(0.015625)"/>
       </defs>
       <use xlink:href="#DejaVuSans-34"/>
       <use xlink:href="#DejaVuSans-30" x="63.623047"/>
      </g>
     </g>
    </g>
    <g id="xtick_5">
     <g id="line2d_9">
      <path d="M 225.403125 145.8 
L 225.403125 7.2 
" clip-path="url(#pd705c6d25f)" style="fill: none; stroke: #b0b0b0; stroke-width: 0.8; stroke-linecap: square"/>
     </g>
     <g id="line2d_10">
      <g>
       <use xlink:href="#m2e5e1fe88b" x="225.403125" y="145.8" style="stroke: #000000; stroke-width: 0.8"/>
      </g>
     </g>
     <g id="text_5">
      <!-- 50 -->
      <g transform="translate(219.040625 160.398438)scale(0.1 -0.1)">
       <defs>
        <path id="DejaVuSans-35" d="M 691 4666 
L 3169 4666 
L 3169 4134 
L 1269 4134 
L 1269 2991 
Q 1406 3038 1543 3061 
Q 1681 3084 1819 3084 
Q 2600 3084 3056 2656 
Q 3513 2228 3513 1497 
Q 3513 744 3044 326 
Q 2575 -91 1722 -91 
Q 1428 -91 1123 -41 
Q 819 9 494 109 
L 494 744 
Q 775 591 1075 516 
Q 1375 441 1709 441 
Q 2250 441 2565 725 
Q 2881 1009 2881 1497 
Q 2881 1984 2565 2268 
Q 2250 2553 1709 2553 
Q 1456 2553 1204 2497 
Q 953 2441 691 2322 
L 691 4666 
z
" transform="scale(0.015625)"/>
       </defs>
       <use xlink:href="#DejaVuSans-35"/>
       <use xlink:href="#DejaVuSans-30" x="63.623047"/>
      </g>
     </g>
    </g>
    <g id="text_6">
     <!-- epoch -->
     <g transform="translate(112.525 174.076563)scale(0.1 -0.1)">
      <defs>
       <path id="DejaVuSans-65" d="M 3597 1894 
L 3597 1613 
L 953 1613 
Q 991 1019 1311 708 
Q 1631 397 2203 397 
Q 2534 397 2845 478 
Q 3156 559 3463 722 
L 3463 178 
Q 3153 47 2828 -22 
Q 2503 -91 2169 -91 
Q 1331 -91 842 396 
Q 353 884 353 1716 
Q 353 2575 817 3079 
Q 1281 3584 2069 3584 
Q 2775 3584 3186 3129 
Q 3597 2675 3597 1894 
z
M 3022 2063 
Q 3016 2534 2758 2815 
Q 2500 3097 2075 3097 
Q 1594 3097 1305 2825 
Q 1016 2553 972 2059 
L 3022 2063 
z
" transform="scale(0.015625)"/>
       <path id="DejaVuSans-70" d="M 1159 525 
L 1159 -1331 
L 581 -1331 
L 581 3500 
L 1159 3500 
L 1159 2969 
Q 1341 3281 1617 3432 
Q 1894 3584 2278 3584 
Q 2916 3584 3314 3078 
Q 3713 2572 3713 1747 
Q 3713 922 3314 415 
Q 2916 -91 2278 -91 
Q 1894 -91 1617 61 
Q 1341 213 1159 525 
z
M 3116 1747 
Q 3116 2381 2855 2742 
Q 2594 3103 2138 3103 
Q 1681 3103 1420 2742 
Q 1159 2381 1159 1747 
Q 1159 1113 1420 752 
Q 1681 391 2138 391 
Q 2594 391 2855 752 
Q 3116 1113 3116 1747 
z
" transform="scale(0.015625)"/>
       <path id="DejaVuSans-6f" d="M 1959 3097 
Q 1497 3097 1228 2736 
Q 959 2375 959 1747 
Q 959 1119 1226 758 
Q 1494 397 1959 397 
Q 2419 397 2687 759 
Q 2956 1122 2956 1747 
Q 2956 2369 2687 2733 
Q 2419 3097 1959 3097 
z
M 1959 3584 
Q 2709 3584 3137 3096 
Q 3566 2609 3566 1747 
Q 3566 888 3137 398 
Q 2709 -91 1959 -91 
Q 1206 -91 779 398 
Q 353 888 353 1747 
Q 353 2609 779 3096 
Q 1206 3584 1959 3584 
z
" transform="scale(0.015625)"/>
       <path id="DejaVuSans-63" d="M 3122 3366 
L 3122 2828 
Q 2878 2963 2633 3030 
Q 2388 3097 2138 3097 
Q 1578 3097 1268 2742 
Q 959 2388 959 1747 
Q 959 1106 1268 751 
Q 1578 397 2138 397 
Q 2388 397 2633 464 
Q 2878 531 3122 666 
L 3122 134 
Q 2881 22 2623 -34 
Q 2366 -91 2075 -91 
Q 1284 -91 818 406 
Q 353 903 353 1747 
Q 353 2603 823 3093 
Q 1294 3584 2113 3584 
Q 2378 3584 2631 3529 
Q 2884 3475 3122 3366 
z
" transform="scale(0.015625)"/>
       <path id="DejaVuSans-68" d="M 3513 2113 
L 3513 0 
L 2938 0 
L 2938 2094 
Q 2938 2591 2744 2837 
Q 2550 3084 2163 3084 
Q 1697 3084 1428 2787 
Q 1159 2491 1159 1978 
L 1159 0 
L 581 0 
L 581 4863 
L 1159 4863 
L 1159 2956 
Q 1366 3272 1645 3428 
Q 1925 3584 2291 3584 
Q 2894 3584 3203 3211 
Q 3513 2838 3513 2113 
z
" transform="scale(0.015625)"/>
      </defs>
      <use xlink:href="#DejaVuSans-65"/>
      <use xlink:href="#DejaVuSans-70" x="61.523438"/>
      <use xlink:href="#DejaVuSans-6f" x="125"/>
      <use xlink:href="#DejaVuSans-63" x="186.181641"/>
      <use xlink:href="#DejaVuSans-68" x="241.162109"/>
     </g>
    </g>
   </g>
   <g id="matplotlib.axis_2">
    <g id="ytick_1">
     <g id="line2d_11">
      <path d="M 30.103125 144.130558 
L 225.403125 144.130558 
" clip-path="url(#pd705c6d25f)" style="fill: none; stroke: #b0b0b0; stroke-width: 0.8; stroke-linecap: square"/>
     </g>
     <g id="line2d_12">
      <defs>
       <path id="m8606c71754" d="M 0 0 
L -3.5 0 
" style="stroke: #000000; stroke-width: 0.8"/>
      </defs>
      <g>
       <use xlink:href="#m8606c71754" x="30.103125" y="144.130558" style="stroke: #000000; stroke-width: 0.8"/>
      </g>
     </g>
     <g id="text_7">
      <!-- 0.0 -->
      <g transform="translate(7.2 147.929777)scale(0.1 -0.1)">
       <defs>
        <path id="DejaVuSans-2e" d="M 684 794 
L 1344 794 
L 1344 0 
L 684 0 
L 684 794 
z
" transform="scale(0.015625)"/>
       </defs>
       <use xlink:href="#DejaVuSans-30"/>
       <use xlink:href="#DejaVuSans-2e" x="63.623047"/>
       <use xlink:href="#DejaVuSans-30" x="95.410156"/>
      </g>
     </g>
    </g>
    <g id="ytick_2">
     <g id="line2d_13">
      <path d="M 30.103125 115.762496 
L 225.403125 115.762496 
" clip-path="url(#pd705c6d25f)" style="fill: none; stroke: #b0b0b0; stroke-width: 0.8; stroke-linecap: square"/>
     </g>
     <g id="line2d_14">
      <g>
       <use xlink:href="#m8606c71754" x="30.103125" y="115.762496" style="stroke: #000000; stroke-width: 0.8"/>
      </g>
     </g>
     <g id="text_8">
      <!-- 0.5 -->
      <g transform="translate(7.2 119.561715)scale(0.1 -0.1)">
       <use xlink:href="#DejaVuSans-30"/>
       <use xlink:href="#DejaVuSans-2e" x="63.623047"/>
       <use xlink:href="#DejaVuSans-35" x="95.410156"/>
      </g>
     </g>
    </g>
    <g id="ytick_3">
     <g id="line2d_15">
      <path d="M 30.103125 87.394434 
L 225.403125 87.394434 
" clip-path="url(#pd705c6d25f)" style="fill: none; stroke: #b0b0b0; stroke-width: 0.8; stroke-linecap: square"/>
     </g>
     <g id="line2d_16">
      <g>
       <use xlink:href="#m8606c71754" x="30.103125" y="87.394434" style="stroke: #000000; stroke-width: 0.8"/>
      </g>
     </g>
     <g id="text_9">
      <!-- 1.0 -->
      <g transform="translate(7.2 91.193653)scale(0.1 -0.1)">
       <use xlink:href="#DejaVuSans-31"/>
       <use xlink:href="#DejaVuSans-2e" x="63.623047"/>
       <use xlink:href="#DejaVuSans-30" x="95.410156"/>
      </g>
     </g>
    </g>
    <g id="ytick_4">
     <g id="line2d_17">
      <path d="M 30.103125 59.026373 
L 225.403125 59.026373 
" clip-path="url(#pd705c6d25f)" style="fill: none; stroke: #b0b0b0; stroke-width: 0.8; stroke-linecap: square"/>
     </g>
     <g id="line2d_18">
      <g>
       <use xlink:href="#m8606c71754" x="30.103125" y="59.026373" style="stroke: #000000; stroke-width: 0.8"/>
      </g>
     </g>
     <g id="text_10">
      <!-- 1.5 -->
      <g transform="translate(7.2 62.825591)scale(0.1 -0.1)">
       <use xlink:href="#DejaVuSans-31"/>
       <use xlink:href="#DejaVuSans-2e" x="63.623047"/>
       <use xlink:href="#DejaVuSans-35" x="95.410156"/>
      </g>
     </g>
    </g>
    <g id="ytick_5">
     <g id="line2d_19">
      <path d="M 30.103125 30.658311 
L 225.403125 30.658311 
" clip-path="url(#pd705c6d25f)" style="fill: none; stroke: #b0b0b0; stroke-width: 0.8; stroke-linecap: square"/>
     </g>
     <g id="line2d_20">
      <g>
       <use xlink:href="#m8606c71754" x="30.103125" y="30.658311" style="stroke: #000000; stroke-width: 0.8"/>
      </g>
     </g>
     <g id="text_11">
      <!-- 2.0 -->
      <g transform="translate(7.2 34.45753)scale(0.1 -0.1)">
       <use xlink:href="#DejaVuSans-32"/>
       <use xlink:href="#DejaVuSans-2e" x="63.623047"/>
       <use xlink:href="#DejaVuSans-30" x="95.410156"/>
      </g>
     </g>
    </g>
   </g>
   <g id="line2d_21">
    <path d="M 26.914554 13.5 
L 27.711696 15.976677 
L 29.305982 38.304007 
L 30.103125 47.256626 
L 30.900268 96.186585 
L 31.697411 97.234707 
L 32.494554 97.910111 
L 34.088839 99.957095 
L 34.885982 103.069958 
L 35.683125 104.203032 
L 36.480268 104.778428 
L 37.277411 105.146215 
L 38.074554 105.376226 
L 38.871696 107.506983 
L 40.465982 107.945852 
L 41.263125 107.977083 
L 42.060268 108.226114 
L 42.857411 109.929961 
L 43.654554 109.953605 
L 44.451696 110.206092 
L 46.045982 110.288301 
L 46.843125 110.942833 
L 48.437411 111.540131 
L 49.234554 111.702282 
L 50.031696 112.086953 
L 50.828839 113.368828 
L 51.625982 113.395257 
L 54.017411 114.175622 
L 54.814554 114.28689 
L 55.611696 114.815786 
L 56.408839 114.910891 
L 57.205982 115.254945 
L 58.003125 114.949439 
L 58.800268 117.181011 
L 59.597411 116.709683 
L 60.394554 116.803315 
L 61.191696 116.75341 
L 61.988839 116.836881 
L 62.785982 116.394419 
L 63.583125 116.821305 
L 65.177411 117.202151 
L 65.974554 117.502011 
L 66.771696 117.371707 
L 67.568839 117.907675 
L 68.365982 117.900887 
L 69.960268 118.234789 
L 70.757411 119.48527 
L 71.554554 118.953935 
L 73.945982 119.043205 
L 74.743125 119.4984 
L 75.540268 119.769531 
L 76.337411 119.656688 
L 77.931696 119.672843 
L 78.728839 119.582894 
L 79.525982 120.125813 
L 80.323125 120.015603 
L 81.917411 120.145725 
L 82.714554 120.965213 
L 84.308839 120.860217 
L 85.105982 120.978871 
L 85.903125 120.87106 
L 86.700268 120.357966 
L 87.497411 121.166437 
L 88.294554 121.264742 
L 89.091696 121.172731 
L 89.888839 121.371195 
L 90.685982 121.417974 
L 91.483125 120.939452 
L 92.280268 121.363582 
L 94.671696 121.588162 
L 95.468839 122.08726 
L 96.265982 122.05495 
L 97.860268 122.204262 
L 98.657411 122.568066 
L 99.454554 122.304288 
L 101.048839 122.580147 
L 101.845982 122.50153 
L 103.440268 122.583909 
L 104.237411 122.898473 
L 106.628839 123.177682 
L 107.425982 123.017878 
L 109.020268 123.279974 
L 109.817411 122.942988 
L 110.614554 123.311971 
L 111.411696 123.336523 
L 112.208839 123.101063 
L 113.005982 123.480303 
L 114.600268 123.504689 
L 115.397411 123.948962 
L 116.194554 123.8153 
L 117.788839 123.844567 
L 118.585982 124.545747 
L 119.383125 124.059948 
L 120.180268 124.293428 
L 120.977411 124.090008 
L 121.774554 124.157403 
L 122.571696 124.747373 
L 123.368839 124.606474 
L 124.165982 124.652424 
L 125.760268 124.348399 
L 126.557411 124.27088 
L 127.354554 124.814303 
L 128.151696 124.649717 
L 129.745982 124.589089 
L 130.543125 125.248623 
L 131.340268 124.801441 
L 132.137411 125.117299 
L 132.934554 124.901329 
L 133.731696 124.886984 
L 134.528839 125.452889 
L 135.325982 125.496346 
L 136.920268 125.165762 
L 137.717411 125.157231 
L 138.514554 125.580511 
L 141.703125 125.414552 
L 143.297411 125.018354 
L 144.094554 125.422987 
L 144.891696 125.525173 
L 145.688839 125.512123 
L 146.485982 126.456754 
L 148.080268 125.720406 
L 149.674554 125.710886 
L 150.471696 125.261103 
L 152.065982 125.976634 
L 153.660268 125.991632 
L 154.457411 125.67512 
L 155.254554 126.258497 
L 156.051696 126.075671 
L 156.848839 126.187418 
L 157.645982 126.100515 
L 158.443125 126.575134 
L 159.240268 126.351844 
L 160.037411 126.43857 
L 160.834554 126.209714 
L 161.631696 126.296478 
L 162.428839 126.047423 
L 163.225982 126.233051 
L 164.820268 126.374053 
L 165.617411 126.482802 
L 166.414554 126.271356 
L 167.211696 126.234299 
L 168.008839 126.468495 
L 169.603125 126.583017 
L 170.400268 127.054442 
L 171.994554 126.695362 
L 173.588839 126.700412 
L 174.385982 126.57916 
L 175.183125 126.816244 
L 177.574554 126.991293 
L 178.371696 127.170458 
L 179.168839 126.908632 
L 179.965982 127.034162 
L 181.560268 127.058924 
L 183.154554 127.37715 
L 183.951696 127.028682 
L 185.545982 127.285661 
L 186.343125 127.694555 
L 187.140268 127.458065 
L 187.937411 127.548452 
L 188.734554 127.433137 
L 189.531696 127.44248 
L 190.328839 127.570287 
L 191.125982 127.23752 
L 192.720268 127.453707 
L 193.517411 127.423169 
L 194.314554 127.76687 
L 196.705982 127.559348 
L 197.503125 127.569929 
L 199.097411 127.916618 
L 199.894554 127.912074 
L 201.488839 127.766583 
L 202.285982 128.44964 
L 203.083125 128.505515 
L 203.880268 128.167876 
L 204.677411 127.992658 
L 207.068839 127.839846 
L 208.663125 128.041503 
L 209.460268 128.023135 
L 210.257411 128.378853 
L 211.054554 127.963515 
L 213.445982 128.175075 
L 214.243125 128.662441 
L 215.040268 128.358962 
L 215.837411 128.279894 
L 216.634554 128.340959 
L 217.431696 128.287197 
L 219.025982 128.898983 
L 219.823125 128.507115 
L 222.214554 128.441051 
L 223.011696 128.538029 
L 223.808839 128.402547 
L 225.403125 128.532253 
L 225.403125 128.532253 
" clip-path="url(#pd705c6d25f)" style="fill: none; stroke: #1f77b4; stroke-width: 1.5; stroke-linecap: square"/>
   </g>
   <g id="line2d_22">
    <path d="M 26.914554 139.5 
L 27.711696 135.928057 
L 29.305982 126.886209 
L 30.103125 123.358518 
L 30.900268 105.482846 
L 32.494554 105.064744 
L 34.088839 104.270594 
L 34.885982 102.969519 
L 36.480268 102.483829 
L 38.074554 102.270646 
L 38.871696 101.554888 
L 41.263125 101.317938 
L 42.060268 101.247505 
L 42.857411 100.687248 
L 43.654554 100.673102 
L 45.248839 100.4892 
L 46.045982 100.458873 
L 46.843125 100.074241 
L 47.640268 99.946925 
L 48.437411 99.957927 
L 50.031696 99.711847 
L 52.423125 99.06671 
L 57.205982 98.367254 
L 58.003125 98.496748 
L 58.800268 97.801401 
L 61.191696 97.822621 
L 61.988839 97.749723 
L 62.785982 97.905141 
L 63.583125 97.704735 
L 66.771696 97.485467 
L 67.568839 97.221403 
L 69.163125 97.200183 
L 69.960268 97.177633 
L 70.757411 96.641404 
L 71.554554 96.860672 
L 73.945982 96.835325 
L 74.743125 96.631973 
L 75.540268 96.554169 
L 77.931696 96.603653 
L 78.728839 96.551811 
L 79.525982 96.37734 
L 81.120268 96.351405 
L 82.714554 96.226446 
L 83.511696 96.063763 
L 90.685982 96.018967 
L 91.483125 96.167503 
L 92.280268 95.990674 
L 94.671696 95.938804 
L 95.468839 95.611081 
L 99.454554 95.637016 
L 101.048839 95.508521 
L 101.845982 95.514319 
L 102.643125 95.40596 
L 103.440268 95.467261 
L 105.034554 95.273928 
L 107.425982 95.363521 
L 108.223125 95.247207 
L 109.817411 95.351676 
L 110.614554 95.123034 
L 112.208839 95.338372 
L 113.005982 95.148969 
L 114.600268 95.066449 
L 115.397411 94.965067 
L 117.788839 94.977217 
L 118.585982 94.75523 
L 119.383125 94.894335 
L 120.180268 94.8071 
L 121.774554 94.819302 
L 122.571696 94.627913 
L 125.760268 94.841996 
L 126.557411 94.906124 
L 127.354554 94.56897 
L 129.745982 94.674625 
L 130.543125 94.519458 
L 131.340268 94.689214 
L 132.137411 94.569756 
L 133.731696 94.638692 
L 134.528839 94.491165 
L 136.123125 94.505312 
L 137.717411 94.563989 
L 138.514554 94.344987 
L 143.297411 94.510027 
L 144.094554 94.360705 
L 145.688839 94.374869 
L 146.485982 94.047914 
L 147.283125 94.092711 
L 148.080268 94.299404 
L 149.674554 94.319078 
L 150.471696 94.557181 
L 151.268839 94.498238 
L 152.065982 94.297832 
L 153.660268 94.221681 
L 154.457411 94.396857 
L 155.254554 94.142223 
L 156.051696 94.214526 
L 157.645982 94.160217 
L 158.443125 93.88759 
L 159.240268 94.019622 
L 160.037411 93.994473 
L 160.834554 94.110394 
L 165.617411 93.926653 
L 166.414554 94.109215 
L 169.603125 93.975825 
L 170.400268 93.802712 
L 173.588839 93.915306 
L 185.545982 93.722403 
L 186.343125 93.529216 
L 187.140268 93.675395 
L 189.531696 93.65432 
L 194.314554 93.614094 
L 195.111696 93.543363 
L 195.908839 93.632956 
L 203.880268 93.379894 
L 206.271696 93.486778 
L 207.865982 93.477347 
L 210.257411 93.420761 
L 211.054554 93.526859 
L 212.648839 93.379501 
L 216.634554 93.32881 
L 217.431696 93.381041 
L 219.025982 93.123689 
L 219.823125 93.266724 
L 221.417411 93.371585 
L 222.214554 93.166128 
L 225.403125 93.219343 
L 225.403125 93.219343 
" clip-path="url(#pd705c6d25f)" style="fill: none; stroke-dasharray: 5.55,2.4; stroke-dashoffset: 0; stroke: #bf00bf; stroke-width: 1.5"/>
   </g>
   <g id="line2d_23">
    <path d="M 30.103125 109.703078 
L 34.088839 105.419501 
L 38.074554 101.499035 
L 42.060268 102.094764 
L 46.045982 106.003883 
L 50.031696 101.016778 
L 54.017411 101.464993 
L 58.003125 98.361527 
L 61.988839 98.764354 
L 65.974554 98.792722 
L 69.960268 99.473555 
L 73.945982 100.148715 
L 77.931696 97.414034 
L 81.917411 100.642319 
L 85.903125 101.289111 
L 89.888839 97.703388 
L 93.874554 96.926103 
L 97.860268 97.192763 
L 101.845982 96.738874 
L 105.831696 96.614055 
L 109.817411 96.114777 
L 113.803125 96.381436 
L 117.788839 95.592804 
L 121.774554 96.216902 
L 125.760268 96.137471 
L 129.745982 95.462311 
L 133.731696 95.439617 
L 137.717411 96.398457 
L 141.703125 102.015333 
L 145.688839 95.16161 
L 149.674554 95.258061 
L 153.660268 95.416922 
L 157.645982 95.150263 
L 161.631696 95.519047 
L 165.617411 95.819749 
L 169.603125 95.314797 
L 173.588839 96.12045 
L 177.574554 95.553089 
L 181.560268 94.991401 
L 185.545982 95.019769 
L 189.531696 95.22402 
L 193.517411 95.666561 
L 197.503125 94.781478 
L 201.488839 95.014096 
L 205.474554 96.04102 
L 209.460268 94.594249 
L 213.445982 94.702047 
L 217.431696 94.503471 
L 221.417411 94.764457 
L 225.403125 97.311909 
" clip-path="url(#pd705c6d25f)" style="fill: none; stroke-dasharray: 9.6,2.4,1.5,2.4; stroke-dashoffset: 0; stroke: #008000; stroke-width: 1.5"/>
   </g>
   <g id="patch_3">
    <path d="M 30.103125 145.8 
L 30.103125 7.2 
" style="fill: none; stroke: #000000; stroke-width: 0.8; stroke-linejoin: miter; stroke-linecap: square"/>
   </g>
   <g id="patch_4">
    <path d="M 225.403125 145.8 
L 225.403125 7.2 
" style="fill: none; stroke: #000000; stroke-width: 0.8; stroke-linejoin: miter; stroke-linecap: square"/>
   </g>
   <g id="patch_5">
    <path d="M 30.103125 145.8 
L 225.403125 145.8 
" style="fill: none; stroke: #000000; stroke-width: 0.8; stroke-linejoin: miter; stroke-linecap: square"/>
   </g>
   <g id="patch_6">
    <path d="M 30.103125 7.2 
L 225.403125 7.2 
" style="fill: none; stroke: #000000; stroke-width: 0.8; stroke-linejoin: miter; stroke-linecap: square"/>
   </g>
   <g id="legend_1">
    <g id="patch_7">
     <path d="M 140.634375 59.234375 
L 218.403125 59.234375 
Q 220.403125 59.234375 220.403125 57.234375 
L 220.403125 14.2 
Q 220.403125 12.2 218.403125 12.2 
L 140.634375 12.2 
Q 138.634375 12.2 138.634375 14.2 
L 138.634375 57.234375 
Q 138.634375 59.234375 140.634375 59.234375 
z
" style="fill: #ffffff; opacity: 0.8; stroke: #cccccc; stroke-linejoin: miter"/>
    </g>
    <g id="line2d_24">
     <path d="M 142.634375 20.298438 
L 152.634375 20.298438 
L 162.634375 20.298438 
" style="fill: none; stroke: #1f77b4; stroke-width: 1.5; stroke-linecap: square"/>
    </g>
    <g id="text_12">
     <!-- train loss -->
     <g transform="translate(170.634375 23.798438)scale(0.1 -0.1)">
      <defs>
       <path id="DejaVuSans-74" d="M 1172 4494 
L 1172 3500 
L 2356 3500 
L 2356 3053 
L 1172 3053 
L 1172 1153 
Q 1172 725 1289 603 
Q 1406 481 1766 481 
L 2356 481 
L 2356 0 
L 1766 0 
Q 1100 0 847 248 
Q 594 497 594 1153 
L 594 3053 
L 172 3053 
L 172 3500 
L 594 3500 
L 594 4494 
L 1172 4494 
z
" transform="scale(0.015625)"/>
       <path id="DejaVuSans-72" d="M 2631 2963 
Q 2534 3019 2420 3045 
Q 2306 3072 2169 3072 
Q 1681 3072 1420 2755 
Q 1159 2438 1159 1844 
L 1159 0 
L 581 0 
L 581 3500 
L 1159 3500 
L 1159 2956 
Q 1341 3275 1631 3429 
Q 1922 3584 2338 3584 
Q 2397 3584 2469 3576 
Q 2541 3569 2628 3553 
L 2631 2963 
z
" transform="scale(0.015625)"/>
       <path id="DejaVuSans-61" d="M 2194 1759 
Q 1497 1759 1228 1600 
Q 959 1441 959 1056 
Q 959 750 1161 570 
Q 1363 391 1709 391 
Q 2188 391 2477 730 
Q 2766 1069 2766 1631 
L 2766 1759 
L 2194 1759 
z
M 3341 1997 
L 3341 0 
L 2766 0 
L 2766 531 
Q 2569 213 2275 61 
Q 1981 -91 1556 -91 
Q 1019 -91 701 211 
Q 384 513 384 1019 
Q 384 1609 779 1909 
Q 1175 2209 1959 2209 
L 2766 2209 
L 2766 2266 
Q 2766 2663 2505 2880 
Q 2244 3097 1772 3097 
Q 1472 3097 1187 3025 
Q 903 2953 641 2809 
L 641 3341 
Q 956 3463 1253 3523 
Q 1550 3584 1831 3584 
Q 2591 3584 2966 3190 
Q 3341 2797 3341 1997 
z
" transform="scale(0.015625)"/>
       <path id="DejaVuSans-69" d="M 603 3500 
L 1178 3500 
L 1178 0 
L 603 0 
L 603 3500 
z
M 603 4863 
L 1178 4863 
L 1178 4134 
L 603 4134 
L 603 4863 
z
" transform="scale(0.015625)"/>
       <path id="DejaVuSans-6e" d="M 3513 2113 
L 3513 0 
L 2938 0 
L 2938 2094 
Q 2938 2591 2744 2837 
Q 2550 3084 2163 3084 
Q 1697 3084 1428 2787 
Q 1159 2491 1159 1978 
L 1159 0 
L 581 0 
L 581 3500 
L 1159 3500 
L 1159 2956 
Q 1366 3272 1645 3428 
Q 1925 3584 2291 3584 
Q 2894 3584 3203 3211 
Q 3513 2838 3513 2113 
z
" transform="scale(0.015625)"/>
       <path id="DejaVuSans-20" transform="scale(0.015625)"/>
       <path id="DejaVuSans-6c" d="M 603 4863 
L 1178 4863 
L 1178 0 
L 603 0 
L 603 4863 
z
" transform="scale(0.015625)"/>
       <path id="DejaVuSans-73" d="M 2834 3397 
L 2834 2853 
Q 2591 2978 2328 3040 
Q 2066 3103 1784 3103 
Q 1356 3103 1142 2972 
Q 928 2841 928 2578 
Q 928 2378 1081 2264 
Q 1234 2150 1697 2047 
L 1894 2003 
Q 2506 1872 2764 1633 
Q 3022 1394 3022 966 
Q 3022 478 2636 193 
Q 2250 -91 1575 -91 
Q 1294 -91 989 -36 
Q 684 19 347 128 
L 347 722 
Q 666 556 975 473 
Q 1284 391 1588 391 
Q 1994 391 2212 530 
Q 2431 669 2431 922 
Q 2431 1156 2273 1281 
Q 2116 1406 1581 1522 
L 1381 1569 
Q 847 1681 609 1914 
Q 372 2147 372 2553 
Q 372 3047 722 3315 
Q 1072 3584 1716 3584 
Q 2034 3584 2315 3537 
Q 2597 3491 2834 3397 
z
" transform="scale(0.015625)"/>
      </defs>
      <use xlink:href="#DejaVuSans-74"/>
      <use xlink:href="#DejaVuSans-72" x="39.208984"/>
      <use xlink:href="#DejaVuSans-61" x="80.322266"/>
      <use xlink:href="#DejaVuSans-69" x="141.601562"/>
      <use xlink:href="#DejaVuSans-6e" x="169.384766"/>
      <use xlink:href="#DejaVuSans-20" x="232.763672"/>
      <use xlink:href="#DejaVuSans-6c" x="264.550781"/>
      <use xlink:href="#DejaVuSans-6f" x="292.333984"/>
      <use xlink:href="#DejaVuSans-73" x="353.515625"/>
      <use xlink:href="#DejaVuSans-73" x="405.615234"/>
     </g>
    </g>
    <g id="line2d_25">
     <path d="M 142.634375 34.976563 
L 152.634375 34.976563 
L 162.634375 34.976563 
" style="fill: none; stroke-dasharray: 5.55,2.4; stroke-dashoffset: 0; stroke: #bf00bf; stroke-width: 1.5"/>
    </g>
    <g id="text_13">
     <!-- train acc -->
     <g transform="translate(170.634375 38.476563)scale(0.1 -0.1)">
      <use xlink:href="#DejaVuSans-74"/>
      <use xlink:href="#DejaVuSans-72" x="39.208984"/>
      <use xlink:href="#DejaVuSans-61" x="80.322266"/>
      <use xlink:href="#DejaVuSans-69" x="141.601562"/>
      <use xlink:href="#DejaVuSans-6e" x="169.384766"/>
      <use xlink:href="#DejaVuSans-20" x="232.763672"/>
      <use xlink:href="#DejaVuSans-61" x="264.550781"/>
      <use xlink:href="#DejaVuSans-63" x="325.830078"/>
      <use xlink:href="#DejaVuSans-63" x="380.810547"/>
     </g>
    </g>
    <g id="line2d_26">
     <path d="M 142.634375 49.654688 
L 152.634375 49.654688 
L 162.634375 49.654688 
" style="fill: none; stroke-dasharray: 9.6,2.4,1.5,2.4; stroke-dashoffset: 0; stroke: #008000; stroke-width: 1.5"/>
    </g>
    <g id="text_14">
     <!-- test acc -->
     <g transform="translate(170.634375 53.154688)scale(0.1 -0.1)">
      <use xlink:href="#DejaVuSans-74"/>
      <use xlink:href="#DejaVuSans-65" x="39.208984"/>
      <use xlink:href="#DejaVuSans-73" x="100.732422"/>
      <use xlink:href="#DejaVuSans-74" x="152.832031"/>
      <use xlink:href="#DejaVuSans-20" x="192.041016"/>
      <use xlink:href="#DejaVuSans-61" x="223.828125"/>
      <use xlink:href="#DejaVuSans-63" x="285.107422"/>
      <use xlink:href="#DejaVuSans-63" x="340.087891"/>
     </g>
    </g>
   </g>
  </g>
 </g>
 <defs>
  <clipPath id="pd705c6d25f">
   <rect x="30.103125" y="7.2" width="195.3" height="138.6"/>
  </clipPath>
 </defs>
</svg>
