<?xml version="1.0" encoding="utf-8" standalone="no"?>
<!DOCTYPE svg PUBLIC "-//W3C//DTD SVG 1.1//EN"
  "http://www.w3.org/Graphics/SVG/1.1/DTD/svg11.dtd">
<svg xmlns:xlink="http://www.w3.org/1999/xlink" width="406.885938pt" height="213.11971pt" viewBox="0 0 406.885938 213.11971" xmlns="http://www.w3.org/2000/svg" version="1.1">
 <metadata>
  <rdf:RDF xmlns:dc="http://purl.org/dc/elements/1.1/" xmlns:cc="http://creativecommons.org/ns#" xmlns:rdf="http://www.w3.org/1999/02/22-rdf-syntax-ns#">
   <cc:Work>
    <dc:type rdf:resource="http://purl.org/dc/dcmitype/StillImage"/>
    <dc:date>2023-06-20T23:40:59.981869</dc:date>
    <dc:format>image/svg+xml</dc:format>
    <dc:creator>
     <cc:Agent>
      <dc:title>Matplotlib v3.5.1, https://matplotlib.org/</dc:title>
     </cc:Agent>
    </dc:creator>
   </cc:Work>
  </rdf:RDF>
 </metadata>
 <defs>
  <style type="text/css">*{stroke-linejoin: round; stroke-linecap: butt}</style>
 </defs>
 <g id="figure_1">
  <g id="patch_1">
   <path d="M 0 213.11971 
L 406.885938 213.11971 
L 406.885938 0 
L 0 0 
z
" style="fill: #ffffff"/>
  </g>
  <g id="axes_1">
   <g id="patch_2">
    <path d="M 52.160938 175.56346 
L 386.960938 175.56346 
L 386.960938 9.24346 
L 52.160938 9.24346 
z
" style="fill: #ffffff"/>
   </g>
   <g id="matplotlib.axis_1">
    <g id="xtick_1">
     <g id="line2d_1">
      <path d="M 118.852829 175.56346 
L 118.852829 9.24346 
" clip-path="url(#p0ee89aa895)" style="fill: none; stroke: #b0b0b0; stroke-width: 0.8; stroke-linecap: square"/>
     </g>
     <g id="line2d_2">
      <defs>
       <path id="m61e9784260" d="M 0 0 
L 0 3.5 
" style="stroke: #000000; stroke-width: 0.8"/>
      </defs>
      <g>
       <use xlink:href="#m61e9784260" x="118.852829" y="175.56346" style="stroke: #000000; stroke-width: 0.8"/>
      </g>
     </g>
     <g id="text_1">
      <!-- 200 -->
      <g transform="translate(109.309079 190.161898)scale(0.1 -0.1)">
       <defs>
        <path id="DejaVuSans-32" d="M 1228 531 
L 3431 531 
L 3431 0 
L 469 0 
L 469 531 
Q 828 903 1448 1529 
Q 2069 2156 2228 2338 
Q 2531 2678 2651 2914 
Q 2772 3150 2772 3378 
Q 2772 3750 2511 3984 
Q 2250 4219 1831 4219 
Q 1534 4219 1204 4116 
Q 875 4013 500 3803 
L 500 4441 
Q 881 4594 1212 4672 
Q 1544 4750 1819 4750 
Q 2544 4750 2975 4387 
Q 3406 4025 3406 3419 
Q 3406 3131 3298 2873 
Q 3191 2616 2906 2266 
Q 2828 2175 2409 1742 
Q 1991 1309 1228 531 
z
" transform="scale(0.015625)"/>
        <path id="DejaVuSans-30" d="M 2034 4250 
Q 1547 4250 1301 3770 
Q 1056 3291 1056 2328 
Q 1056 1369 1301 889 
Q 1547 409 2034 409 
Q 2525 409 2770 889 
Q 3016 1369 3016 2328 
Q 3016 3291 2770 3770 
Q 2525 4250 2034 4250 
z
M 2034 4750 
Q 2819 4750 3233 4129 
Q 3647 3509 3647 2328 
Q 3647 1150 3233 529 
Q 2819 -91 2034 -91 
Q 1250 -91 836 529 
Q 422 1150 422 2328 
Q 422 3509 836 4129 
Q 1250 4750 2034 4750 
z
" transform="scale(0.015625)"/>
       </defs>
       <use xlink:href="#DejaVuSans-32"/>
       <use xlink:href="#DejaVuSans-30" x="63.623047"/>
       <use xlink:href="#DejaVuSans-30" x="127.246094"/>
      </g>
     </g>
    </g>
    <g id="xtick_2">
     <g id="line2d_3">
      <path d="M 185.879856 175.56346 
L 185.879856 9.24346 
" clip-path="url(#p0ee89aa895)" style="fill: none; stroke: #b0b0b0; stroke-width: 0.8; stroke-linecap: square"/>
     </g>
     <g id="line2d_4">
      <g>
       <use xlink:href="#m61e9784260" x="185.879856" y="175.56346" style="stroke: #000000; stroke-width: 0.8"/>
      </g>
     </g>
     <g id="text_2">
      <!-- 400 -->
      <g transform="translate(176.336106 190.161898)scale(0.1 -0.1)">
       <defs>
        <path id="DejaVuSans-34" d="M 2419 4116 
L 825 1625 
L 2419 1625 
L 2419 4116 
z
M 2253 4666 
L 3047 4666 
L 3047 1625 
L 3713 1625 
L 3713 1100 
L 3047 1100 
L 3047 0 
L 2419 0 
L 2419 1100 
L 313 1100 
L 313 1709 
L 2253 4666 
z
" transform="scale(0.015625)"/>
       </defs>
       <use xlink:href="#DejaVuSans-34"/>
       <use xlink:href="#DejaVuSans-30" x="63.623047"/>
       <use xlink:href="#DejaVuSans-30" x="127.246094"/>
      </g>
     </g>
    </g>
    <g id="xtick_3">
     <g id="line2d_5">
      <path d="M 252.906883 175.56346 
L 252.906883 9.24346 
" clip-path="url(#p0ee89aa895)" style="fill: none; stroke: #b0b0b0; stroke-width: 0.8; stroke-linecap: square"/>
     </g>
     <g id="line2d_6">
      <g>
       <use xlink:href="#m61e9784260" x="252.906883" y="175.56346" style="stroke: #000000; stroke-width: 0.8"/>
      </g>
     </g>
     <g id="text_3">
      <!-- 600 -->
      <g transform="translate(243.363133 190.161898)scale(0.1 -0.1)">
       <defs>
        <path id="DejaVuSans-36" d="M 2113 2584 
Q 1688 2584 1439 2293 
Q 1191 2003 1191 1497 
Q 1191 994 1439 701 
Q 1688 409 2113 409 
Q 2538 409 2786 701 
Q 3034 994 3034 1497 
Q 3034 2003 2786 2293 
Q 2538 2584 2113 2584 
z
M 3366 4563 
L 3366 3988 
Q 3128 4100 2886 4159 
Q 2644 4219 2406 4219 
Q 1781 4219 1451 3797 
Q 1122 3375 1075 2522 
Q 1259 2794 1537 2939 
Q 1816 3084 2150 3084 
Q 2853 3084 3261 2657 
Q 3669 2231 3669 1497 
Q 3669 778 3244 343 
Q 2819 -91 2113 -91 
Q 1303 -91 875 529 
Q 447 1150 447 2328 
Q 447 3434 972 4092 
Q 1497 4750 2381 4750 
Q 2619 4750 2861 4703 
Q 3103 4656 3366 4563 
z
" transform="scale(0.015625)"/>
       </defs>
       <use xlink:href="#DejaVuSans-36"/>
       <use xlink:href="#DejaVuSans-30" x="63.623047"/>
       <use xlink:href="#DejaVuSans-30" x="127.246094"/>
      </g>
     </g>
    </g>
    <g id="xtick_4">
     <g id="line2d_7">
      <path d="M 319.93391 175.56346 
L 319.93391 9.24346 
" clip-path="url(#p0ee89aa895)" style="fill: none; stroke: #b0b0b0; stroke-width: 0.8; stroke-linecap: square"/>
     </g>
     <g id="line2d_8">
      <g>
       <use xlink:href="#m61e9784260" x="319.93391" y="175.56346" style="stroke: #000000; stroke-width: 0.8"/>
      </g>
     </g>
     <g id="text_4">
      <!-- 800 -->
      <g transform="translate(310.39016 190.161898)scale(0.1 -0.1)">
       <defs>
        <path id="DejaVuSans-38" d="M 2034 2216 
Q 1584 2216 1326 1975 
Q 1069 1734 1069 1313 
Q 1069 891 1326 650 
Q 1584 409 2034 409 
Q 2484 409 2743 651 
Q 3003 894 3003 1313 
Q 3003 1734 2745 1975 
Q 2488 2216 2034 2216 
z
M 1403 2484 
Q 997 2584 770 2862 
Q 544 3141 544 3541 
Q 544 4100 942 4425 
Q 1341 4750 2034 4750 
Q 2731 4750 3128 4425 
Q 3525 4100 3525 3541 
Q 3525 3141 3298 2862 
Q 3072 2584 2669 2484 
Q 3125 2378 3379 2068 
Q 3634 1759 3634 1313 
Q 3634 634 3220 271 
Q 2806 -91 2034 -91 
Q 1263 -91 848 271 
Q 434 634 434 1313 
Q 434 1759 690 2068 
Q 947 2378 1403 2484 
z
M 1172 3481 
Q 1172 3119 1398 2916 
Q 1625 2713 2034 2713 
Q 2441 2713 2670 2916 
Q 2900 3119 2900 3481 
Q 2900 3844 2670 4047 
Q 2441 4250 2034 4250 
Q 1625 4250 1398 4047 
Q 1172 3844 1172 3481 
z
" transform="scale(0.015625)"/>
       </defs>
       <use xlink:href="#DejaVuSans-38"/>
       <use xlink:href="#DejaVuSans-30" x="63.623047"/>
       <use xlink:href="#DejaVuSans-30" x="127.246094"/>
      </g>
     </g>
    </g>
    <g id="xtick_5">
     <g id="line2d_9">
      <path d="M 386.960938 175.56346 
L 386.960938 9.24346 
" clip-path="url(#p0ee89aa895)" style="fill: none; stroke: #b0b0b0; stroke-width: 0.8; stroke-linecap: square"/>
     </g>
     <g id="line2d_10">
      <g>
       <use xlink:href="#m61e9784260" x="386.960938" y="175.56346" style="stroke: #000000; stroke-width: 0.8"/>
      </g>
     </g>
     <g id="text_5">
      <!-- 1000 -->
      <g transform="translate(374.235937 190.161898)scale(0.1 -0.1)">
       <defs>
        <path id="DejaVuSans-31" d="M 794 531 
L 1825 531 
L 1825 4091 
L 703 3866 
L 703 4441 
L 1819 4666 
L 2450 4666 
L 2450 531 
L 3481 531 
L 3481 0 
L 794 0 
L 794 531 
z
" transform="scale(0.015625)"/>
       </defs>
       <use xlink:href="#DejaVuSans-31"/>
       <use xlink:href="#DejaVuSans-30" x="63.623047"/>
       <use xlink:href="#DejaVuSans-30" x="127.246094"/>
       <use xlink:href="#DejaVuSans-30" x="190.869141"/>
      </g>
     </g>
    </g>
    <g id="text_6">
     <!-- time -->
     <g transform="translate(208.264844 203.840023)scale(0.1 -0.1)">
      <defs>
       <path id="DejaVuSans-74" d="M 1172 4494 
L 1172 3500 
L 2356 3500 
L 2356 3053 
L 1172 3053 
L 1172 1153 
Q 1172 725 1289 603 
Q 1406 481 1766 481 
L 2356 481 
L 2356 0 
L 1766 0 
Q 1100 0 847 248 
Q 594 497 594 1153 
L 594 3053 
L 172 3053 
L 172 3500 
L 594 3500 
L 594 4494 
L 1172 4494 
z
" transform="scale(0.015625)"/>
       <path id="DejaVuSans-69" d="M 603 3500 
L 1178 3500 
L 1178 0 
L 603 0 
L 603 3500 
z
M 603 4863 
L 1178 4863 
L 1178 4134 
L 603 4134 
L 603 4863 
z
" transform="scale(0.015625)"/>
       <path id="DejaVuSans-6d" d="M 3328 2828 
Q 3544 3216 3844 3400 
Q 4144 3584 4550 3584 
Q 5097 3584 5394 3201 
Q 5691 2819 5691 2113 
L 5691 0 
L 5113 0 
L 5113 2094 
Q 5113 2597 4934 2840 
Q 4756 3084 4391 3084 
Q 3944 3084 3684 2787 
Q 3425 2491 3425 1978 
L 3425 0 
L 2847 0 
L 2847 2094 
Q 2847 2600 2669 2842 
Q 2491 3084 2119 3084 
Q 1678 3084 1418 2786 
Q 1159 2488 1159 1978 
L 1159 0 
L 581 0 
L 581 3500 
L 1159 3500 
L 1159 2956 
Q 1356 3278 1631 3431 
Q 1906 3584 2284 3584 
Q 2666 3584 2933 3390 
Q 3200 3197 3328 2828 
z
" transform="scale(0.015625)"/>
       <path id="DejaVuSans-65" d="M 3597 1894 
L 3597 1613 
L 953 1613 
Q 991 1019 1311 708 
Q 1631 397 2203 397 
Q 2534 397 2845 478 
Q 3156 559 3463 722 
L 3463 178 
Q 3153 47 2828 -22 
Q 2503 -91 2169 -91 
Q 1331 -91 842 396 
Q 353 884 353 1716 
Q 353 2575 817 3079 
Q 1281 3584 2069 3584 
Q 2775 3584 3186 3129 
Q 3597 2675 3597 1894 
z
M 3022 2063 
Q 3016 2534 2758 2815 
Q 2500 3097 2075 3097 
Q 1594 3097 1305 2825 
Q 1016 2553 972 2059 
L 3022 2063 
z
" transform="scale(0.015625)"/>
      </defs>
      <use xlink:href="#DejaVuSans-74"/>
      <use xlink:href="#DejaVuSans-69" x="39.208984"/>
      <use xlink:href="#DejaVuSans-6d" x="66.992188"/>
      <use xlink:href="#DejaVuSans-65" x="164.404297"/>
     </g>
    </g>
   </g>
   <g id="matplotlib.axis_2">
    <g id="ytick_1">
     <g id="line2d_11">
      <path d="M 52.160938 172.016593 
L 386.960938 172.016593 
" clip-path="url(#p0ee89aa895)" style="fill: none; stroke: #b0b0b0; stroke-width: 0.8; stroke-linecap: square"/>
     </g>
     <g id="line2d_12">
      <defs>
       <path id="m244937f5e9" d="M 0 0 
L -3.5 0 
" style="stroke: #000000; stroke-width: 0.8"/>
      </defs>
      <g>
       <use xlink:href="#m244937f5e9" x="52.160938" y="172.016593" style="stroke: #000000; stroke-width: 0.8"/>
      </g>
     </g>
     <g id="text_7">
      <!-- −1.5 -->
      <g transform="translate(20.878125 175.815812)scale(0.1 -0.1)">
       <defs>
        <path id="DejaVuSans-2212" d="M 678 2272 
L 4684 2272 
L 4684 1741 
L 678 1741 
L 678 2272 
z
" transform="scale(0.015625)"/>
        <path id="DejaVuSans-2e" d="M 684 794 
L 1344 794 
L 1344 0 
L 684 0 
L 684 794 
z
" transform="scale(0.015625)"/>
        <path id="DejaVuSans-35" d="M 691 4666 
L 3169 4666 
L 3169 4134 
L 1269 4134 
L 1269 2991 
Q 1406 3038 1543 3061 
Q 1681 3084 1819 3084 
Q 2600 3084 3056 2656 
Q 3513 2228 3513 1497 
Q 3513 744 3044 326 
Q 2575 -91 1722 -91 
Q 1428 -91 1123 -41 
Q 819 9 494 109 
L 494 744 
Q 775 591 1075 516 
Q 1375 441 1709 441 
Q 2250 441 2565 725 
Q 2881 1009 2881 1497 
Q 2881 1984 2565 2268 
Q 2250 2553 1709 2553 
Q 1456 2553 1204 2497 
Q 953 2441 691 2322 
L 691 4666 
z
" transform="scale(0.015625)"/>
       </defs>
       <use xlink:href="#DejaVuSans-2212"/>
       <use xlink:href="#DejaVuSans-31" x="83.789062"/>
       <use xlink:href="#DejaVuSans-2e" x="147.412109"/>
       <use xlink:href="#DejaVuSans-35" x="179.199219"/>
      </g>
     </g>
    </g>
    <g id="ytick_2">
     <g id="line2d_13">
      <path d="M 52.160938 145.180364 
L 386.960938 145.180364 
" clip-path="url(#p0ee89aa895)" style="fill: none; stroke: #b0b0b0; stroke-width: 0.8; stroke-linecap: square"/>
     </g>
     <g id="line2d_14">
      <g>
       <use xlink:href="#m244937f5e9" x="52.160938" y="145.180364" style="stroke: #000000; stroke-width: 0.8"/>
      </g>
     </g>
     <g id="text_8">
      <!-- −1.0 -->
      <g transform="translate(20.878125 148.979583)scale(0.1 -0.1)">
       <use xlink:href="#DejaVuSans-2212"/>
       <use xlink:href="#DejaVuSans-31" x="83.789062"/>
       <use xlink:href="#DejaVuSans-2e" x="147.412109"/>
       <use xlink:href="#DejaVuSans-30" x="179.199219"/>
      </g>
     </g>
    </g>
    <g id="ytick_3">
     <g id="line2d_15">
      <path d="M 52.160938 118.344135 
L 386.960938 118.344135 
" clip-path="url(#p0ee89aa895)" style="fill: none; stroke: #b0b0b0; stroke-width: 0.8; stroke-linecap: square"/>
     </g>
     <g id="line2d_16">
      <g>
       <use xlink:href="#m244937f5e9" x="52.160938" y="118.344135" style="stroke: #000000; stroke-width: 0.8"/>
      </g>
     </g>
     <g id="text_9">
      <!-- −0.5 -->
      <g transform="translate(20.878125 122.143354)scale(0.1 -0.1)">
       <use xlink:href="#DejaVuSans-2212"/>
       <use xlink:href="#DejaVuSans-30" x="83.789062"/>
       <use xlink:href="#DejaVuSans-2e" x="147.412109"/>
       <use xlink:href="#DejaVuSans-35" x="179.199219"/>
      </g>
     </g>
    </g>
    <g id="ytick_4">
     <g id="line2d_17">
      <path d="M 52.160938 91.507906 
L 386.960938 91.507906 
" clip-path="url(#p0ee89aa895)" style="fill: none; stroke: #b0b0b0; stroke-width: 0.8; stroke-linecap: square"/>
     </g>
     <g id="line2d_18">
      <g>
       <use xlink:href="#m244937f5e9" x="52.160938" y="91.507906" style="stroke: #000000; stroke-width: 0.8"/>
      </g>
     </g>
     <g id="text_10">
      <!-- 0.0 -->
      <g transform="translate(29.257812 95.307125)scale(0.1 -0.1)">
       <use xlink:href="#DejaVuSans-30"/>
       <use xlink:href="#DejaVuSans-2e" x="63.623047"/>
       <use xlink:href="#DejaVuSans-30" x="95.410156"/>
      </g>
     </g>
    </g>
    <g id="ytick_5">
     <g id="line2d_19">
      <path d="M 52.160938 64.671677 
L 386.960938 64.671677 
" clip-path="url(#p0ee89aa895)" style="fill: none; stroke: #b0b0b0; stroke-width: 0.8; stroke-linecap: square"/>
     </g>
     <g id="line2d_20">
      <g>
       <use xlink:href="#m244937f5e9" x="52.160938" y="64.671677" style="stroke: #000000; stroke-width: 0.8"/>
      </g>
     </g>
     <g id="text_11">
      <!-- 0.5 -->
      <g transform="translate(29.257812 68.470896)scale(0.1 -0.1)">
       <use xlink:href="#DejaVuSans-30"/>
       <use xlink:href="#DejaVuSans-2e" x="63.623047"/>
       <use xlink:href="#DejaVuSans-35" x="95.410156"/>
      </g>
     </g>
    </g>
    <g id="ytick_6">
     <g id="line2d_21">
      <path d="M 52.160938 37.835448 
L 386.960938 37.835448 
" clip-path="url(#p0ee89aa895)" style="fill: none; stroke: #b0b0b0; stroke-width: 0.8; stroke-linecap: square"/>
     </g>
     <g id="line2d_22">
      <g>
       <use xlink:href="#m244937f5e9" x="52.160938" y="37.835448" style="stroke: #000000; stroke-width: 0.8"/>
      </g>
     </g>
     <g id="text_12">
      <!-- 1.0 -->
      <g transform="translate(29.257812 41.634667)scale(0.1 -0.1)">
       <use xlink:href="#DejaVuSans-31"/>
       <use xlink:href="#DejaVuSans-2e" x="63.623047"/>
       <use xlink:href="#DejaVuSans-30" x="95.410156"/>
      </g>
     </g>
    </g>
    <g id="ytick_7">
     <g id="line2d_23">
      <path d="M 52.160938 10.999219 
L 386.960938 10.999219 
" clip-path="url(#p0ee89aa895)" style="fill: none; stroke: #b0b0b0; stroke-width: 0.8; stroke-linecap: square"/>
     </g>
     <g id="line2d_24">
      <g>
       <use xlink:href="#m244937f5e9" x="52.160938" y="10.999219" style="stroke: #000000; stroke-width: 0.8"/>
      </g>
     </g>
     <g id="text_13">
      <!-- 1.5 -->
      <g transform="translate(29.257812 14.798437)scale(0.1 -0.1)">
       <use xlink:href="#DejaVuSans-31"/>
       <use xlink:href="#DejaVuSans-2e" x="63.623047"/>
       <use xlink:href="#DejaVuSans-35" x="95.410156"/>
      </g>
     </g>
    </g>
    <g id="text_14">
     <!-- x -->
     <g transform="translate(14.798438 95.362835)rotate(-90)scale(0.1 -0.1)">
      <defs>
       <path id="DejaVuSans-78" d="M 3513 3500 
L 2247 1797 
L 3578 0 
L 2900 0 
L 1881 1375 
L 863 0 
L 184 0 
L 1544 1831 
L 300 3500 
L 978 3500 
L 1906 2253 
L 2834 3500 
L 3513 3500 
z
" transform="scale(0.015625)"/>
      </defs>
      <use xlink:href="#DejaVuSans-78"/>
     </g>
    </g>
   </g>
   <g id="line2d_25">
    <path d="M 52.160938 93.299354 
L 52.496073 102.952191 
L 52.831208 86.456144 
L 53.166343 82.965121 
L 53.501478 92.221155 
L 53.836613 91.307028 
L 54.171748 84.518908 
L 54.506883 104.348596 
L 54.842019 86.781193 
L 55.177154 63.382764 
L 55.512289 67.316255 
L 55.847424 73.503304 
L 56.182559 70.605744 
L 56.517694 74.109334 
L 56.852829 82.980583 
L 57.187965 82.576858 
L 57.5231 70.947646 
L 57.858235 77.450281 
L 58.528505 69.609553 
L 58.86364 90.262108 
L 59.198775 60.559867 
L 59.53391 71.655738 
L 59.869046 89.04146 
L 60.204181 81.539811 
L 60.539316 82.49317 
L 61.209586 69.90858 
L 61.544721 60.626054 
L 61.879856 66.921542 
L 62.214992 96.81413 
L 62.550127 75.355463 
L 62.885262 85.080086 
L 63.220397 57.914351 
L 63.890667 76.817268 
L 64.225802 83.438625 
L 64.560938 74.072711 
L 64.896073 92.523333 
L 65.231208 56.033763 
L 65.566343 55.964406 
L 65.901478 73.463763 
L 66.236613 68.280541 
L 66.571748 76.382751 
L 66.906883 72.969279 
L 67.242019 46.050712 
L 67.577154 56.390651 
L 67.912289 61.053172 
L 68.247424 60.409713 
L 68.582559 86.621349 
L 68.917694 52.41475 
L 69.252829 75.356821 
L 69.587965 73.196201 
L 69.9231 67.702695 
L 70.258235 53.023662 
L 70.59337 52.979799 
L 70.928505 55.29987 
L 71.26364 75.597324 
L 71.598775 72.551881 
L 71.93391 63.609886 
L 72.269046 92.247295 
L 72.604181 68.066959 
L 72.939316 60.362141 
L 73.274451 55.273967 
L 73.609586 55.573559 
L 73.944721 46.524161 
L 74.279856 45.806747 
L 74.614992 60.615452 
L 74.950127 68.34921 
L 75.285262 44.84521 
L 75.620397 60.081786 
L 75.955532 61.181707 
L 76.290667 57.825915 
L 76.625802 41.775551 
L 76.960938 71.035947 
L 77.296073 71.57019 
L 77.631208 53.659767 
L 77.966343 49.804437 
L 78.301478 60.913294 
L 78.636613 44.152785 
L 78.971748 53.91547 
L 79.306883 54.547727 
L 79.642019 77.184654 
L 80.312289 42.354193 
L 80.647424 64.869405 
L 80.982559 47.011193 
L 81.317694 55.440696 
L 81.652829 48.616409 
L 81.987965 64.733073 
L 82.3231 60.713409 
L 82.658235 55.157257 
L 82.99337 51.945665 
L 83.328505 46.621932 
L 83.66364 23.150108 
L 83.998775 66.731311 
L 84.33391 67.414692 
L 84.669046 21.571517 
L 85.004181 61.204577 
L 85.339316 43.32271 
L 85.674451 33.612676 
L 86.009586 60.50496 
L 86.344721 44.93295 
L 86.679856 36.986124 
L 87.014992 38.940123 
L 87.350127 42.597919 
L 87.685262 30.935006 
L 88.020397 47.947456 
L 88.355532 49.049251 
L 88.690667 36.993514 
L 89.025802 45.44371 
L 89.360938 43.289657 
L 89.696073 43.653916 
L 90.366343 30.399536 
L 90.701478 63.584479 
L 91.036613 40.389929 
L 91.371748 44.462214 
L 91.706883 20.032391 
L 92.042019 27.64405 
L 92.377154 50.522079 
L 92.712289 36.81785 
L 93.047424 65.036106 
L 93.382559 48.62608 
L 93.717694 44.759224 
L 94.052829 47.225934 
L 94.387965 55.904 
L 94.7231 43.342759 
L 95.058235 52.305717 
L 95.728505 34.622941 
L 96.06364 46.638321 
L 96.398775 43.735766 
L 96.73391 35.829576 
L 97.069046 39.239705 
L 97.404181 45.990924 
L 97.739316 43.244207 
L 98.074451 41.515104 
L 98.409586 56.068416 
L 98.744721 57.516866 
L 99.079856 45.946868 
L 99.414992 42.224293 
L 99.750127 55.614767 
L 100.085262 18.093585 
L 100.420397 35.889649 
L 100.755532 45.767829 
L 101.090667 44.170914 
L 101.425802 58.774869 
L 101.760938 42.357114 
L 102.096073 39.730877 
L 102.431208 28.620559 
L 103.101478 18.975604 
L 103.771748 29.302523 
L 104.106883 48.561663 
L 104.442019 32.444124 
L 104.777154 51.061663 
L 105.112289 60.429422 
L 105.447424 42.4733 
L 105.782559 44.90514 
L 106.117694 31.814715 
L 106.452829 35.231351 
L 106.787965 41.074833 
L 107.1231 30.780821 
L 107.458235 34.855575 
L 107.79337 50.537137 
L 108.128505 35.504346 
L 108.46364 34.538663 
L 108.798775 33.038727 
L 109.13391 53.362677 
L 109.469046 44.708835 
L 109.804181 16.80346 
L 110.139316 41.877751 
L 110.474451 32.866575 
L 110.809586 32.063524 
L 111.144721 25.431386 
L 111.479856 44.57068 
L 112.150127 16.921214 
L 112.485262 49.692804 
L 113.155532 38.420424 
L 113.490667 41.388457 
L 113.825802 28.78587 
L 114.160938 42.005853 
L 114.496073 62.281954 
L 114.831208 36.706629 
L 115.166343 43.553115 
L 115.501478 44.852434 
L 115.836613 49.256155 
L 116.171748 42.110074 
L 116.506883 46.544238 
L 116.842019 38.437553 
L 117.177154 53.046107 
L 117.512289 37.648165 
L 118.182559 24.507402 
L 118.517694 60.934571 
L 118.852829 41.53848 
L 119.187965 34.609313 
L 119.5231 33.568426 
L 119.858235 57.460369 
L 120.19337 41.004776 
L 120.528505 56.808467 
L 120.86364 47.861646 
L 121.198775 34.570508 
L 121.53391 45.005004 
L 121.869046 44.846343 
L 122.204181 24.334732 
L 122.539316 32.287808 
L 122.874451 47.291615 
L 123.209586 45.839483 
L 123.544721 53.054067 
L 123.879856 20.584445 
L 124.214992 45.850895 
L 124.885262 54.484502 
L 125.220397 37.35595 
L 125.555532 43.941697 
L 125.890667 61.095593 
L 126.225802 50.98727 
L 126.560938 44.28567 
L 126.896073 50.373738 
L 127.231208 48.747615 
L 127.566343 38.668977 
L 127.901478 60.637884 
L 128.236613 38.762581 
L 128.906883 67.34446 
L 129.242019 49.575607 
L 129.577154 54.881568 
L 129.912289 40.84893 
L 130.247424 50.575043 
L 130.582559 48.435902 
L 130.917694 60.061638 
L 131.252829 50.971172 
L 131.587965 54.598647 
L 131.9231 55.630107 
L 132.258235 51.021574 
L 132.59337 48.440349 
L 132.928505 61.137837 
L 133.26364 55.290587 
L 133.598775 66.187037 
L 133.93391 53.887392 
L 134.269046 61.112027 
L 134.604181 61.501799 
L 134.939316 55.380108 
L 135.274451 39.892391 
L 135.609586 63.135334 
L 135.944721 70.152184 
L 136.279856 41.14356 
L 136.614992 70.597457 
L 136.950127 63.149967 
L 137.285262 72.503036 
L 137.620397 78.258531 
L 137.955532 46.377701 
L 138.290667 61.269872 
L 138.625802 53.574738 
L 138.960938 64.154925 
L 139.296073 88.75006 
L 139.631208 90.905459 
L 139.966343 66.034693 
L 140.301478 82.842835 
L 140.636613 61.998409 
L 140.971748 64.200666 
L 141.306883 85.203084 
L 141.642019 58.680357 
L 141.977154 69.331429 
L 142.312289 62.101149 
L 142.647424 78.218898 
L 142.982559 57.111418 
L 143.317694 60.14318 
L 143.652829 60.300977 
L 144.3231 76.42312 
L 144.99337 82.893877 
L 145.66364 61.623916 
L 145.998775 76.979627 
L 146.33391 78.296543 
L 146.669046 65.075727 
L 147.004181 73.480958 
L 147.339316 63.566481 
L 147.674451 79.267621 
L 148.009586 72.464429 
L 148.344721 77.211513 
L 148.679856 76.704419 
L 149.014992 82.264729 
L 149.350127 64.800253 
L 149.685262 90.828469 
L 150.355532 83.548898 
L 150.690667 78.479944 
L 151.025802 85.302969 
L 151.360938 89.711254 
L 151.696073 90.730696 
L 152.031208 82.882572 
L 152.366343 82.685231 
L 152.701478 76.928329 
L 153.036613 79.776389 
L 153.371748 75.169397 
L 153.706883 81.294019 
L 154.042019 103.618316 
L 154.377154 83.260567 
L 154.712289 78.250441 
L 155.047424 92.20637 
L 155.382559 101.275972 
L 155.717694 87.379842 
L 156.052829 87.254518 
L 156.387965 102.641298 
L 156.7231 104.668965 
L 157.058235 99.166314 
L 157.39337 80.535541 
L 157.728505 119.45119 
L 158.06364 99.584723 
L 158.398775 86.618913 
L 158.73391 86.613988 
L 159.069046 94.82061 
L 159.404181 69.750817 
L 159.739316 107.130226 
L 160.074451 80.189713 
L 160.409586 109.003874 
L 160.744721 114.968379 
L 161.079856 113.812113 
L 161.414992 98.810905 
L 161.750127 96.2319 
L 162.085262 119.408143 
L 162.420397 98.265096 
L 162.755532 101.137356 
L 163.090667 89.552854 
L 163.425802 96.005819 
L 163.760938 99.457179 
L 164.096073 99.9065 
L 164.431208 111.006091 
L 164.766343 100.841976 
L 165.101478 99.223524 
L 165.436613 92.315817 
L 165.771748 88.016058 
L 166.106883 98.838364 
L 166.442019 117.550761 
L 166.777154 111.46194 
L 167.112289 94.554512 
L 167.447424 102.751009 
L 167.782559 113.727103 
L 168.117694 116.797264 
L 168.452829 107.79333 
L 168.787965 118.051338 
L 169.1231 103.678837 
L 169.458235 109.05906 
L 169.79337 128.055775 
L 170.128505 121.324062 
L 170.46364 120.063801 
L 170.798775 102.148302 
L 171.13391 104.70798 
L 171.469046 111.689781 
L 171.804181 111.024483 
L 172.139316 122.119826 
L 172.474451 117.757834 
L 172.809586 117.457363 
L 173.144721 125.530285 
L 173.479856 124.774305 
L 174.150127 105.705734 
L 174.485262 123.591421 
L 174.820397 155.560222 
L 175.490667 117.19179 
L 175.825802 107.0304 
L 176.160938 112.429492 
L 176.496073 127.024674 
L 176.831208 129.506775 
L 177.166343 137.838699 
L 177.501478 108.577843 
L 177.836613 128.6265 
L 178.171748 122.564565 
L 178.506883 134.223435 
L 178.842019 116.184105 
L 179.512289 129.742122 
L 180.182559 117.864525 
L 180.517694 129.828179 
L 180.852829 126.949399 
L 181.187965 108.816785 
L 181.5231 123.17406 
L 181.858235 120.091233 
L 182.19337 137.114192 
L 182.528505 142.018052 
L 182.86364 135.353709 
L 183.198775 124.605929 
L 183.53391 146.643377 
L 183.869046 128.507915 
L 184.204181 141.544939 
L 184.539316 128.479657 
L 184.874451 143.257519 
L 185.544721 117.861769 
L 185.879856 133.762252 
L 186.214992 116.459791 
L 186.550127 127.006714 
L 186.885262 127.648562 
L 187.555532 147.940719 
L 187.890667 125.104714 
L 188.225802 125.420711 
L 188.560938 128.678598 
L 188.896073 118.188261 
L 189.231208 127.680284 
L 189.566343 148.387266 
L 189.901478 147.38519 
L 190.236613 149.820091 
L 190.571748 146.966284 
L 190.906883 151.81986 
L 191.242019 139.66598 
L 191.577154 144.861552 
L 191.912289 134.062391 
L 192.247424 136.506352 
L 192.582559 126.540617 
L 192.917694 128.205175 
L 193.252829 126.205573 
L 193.587965 154.821166 
L 193.9231 127.314573 
L 194.258235 136.232615 
L 194.59337 141.537521 
L 194.928505 144.096257 
L 195.26364 133.315084 
L 195.598775 152.331515 
L 195.93391 145.644001 
L 196.604181 137.215297 
L 196.939316 141.903891 
L 197.274451 132.360419 
L 197.609586 151.768021 
L 197.944721 134.104024 
L 198.279856 129.071882 
L 198.614992 147.694764 
L 198.950127 142.509524 
L 199.285262 134.520397 
L 199.620397 156.020436 
L 199.955532 155.669101 
L 200.290667 137.099236 
L 200.625802 155.729117 
L 200.960938 133.145261 
L 201.296073 134.458241 
L 201.631208 160.311433 
L 201.966343 158.880354 
L 202.301478 138.53584 
L 202.636613 153.423774 
L 202.971748 161.902001 
L 203.642019 141.086066 
L 204.312289 151.368629 
L 204.647424 144.038852 
L 204.982559 142.34611 
L 205.317694 142.245139 
L 205.652829 150.709378 
L 205.987965 147.884779 
L 206.3231 151.074181 
L 206.658235 128.869486 
L 206.99337 147.841802 
L 207.328505 132.379579 
L 207.66364 126.907733 
L 207.998775 132.698244 
L 208.33391 156.809245 
L 208.669046 138.525494 
L 209.004181 142.024604 
L 209.339316 143.075767 
L 209.674451 154.731508 
L 210.009586 157.424226 
L 210.344721 134.495757 
L 210.679856 164.524383 
L 211.014992 148.842655 
L 211.350127 156.056305 
L 211.685262 128.707563 
L 212.020397 146.760778 
L 212.355532 149.001953 
L 212.690667 140.257684 
L 213.025802 126.493267 
L 213.360938 145.495318 
L 213.696073 141.766441 
L 214.031208 140.191609 
L 214.366343 134.362856 
L 214.701478 151.401964 
L 215.036613 137.584275 
L 215.371748 168.00346 
L 215.706883 136.697525 
L 216.042019 154.72843 
L 216.377154 144.95298 
L 216.712289 155.858573 
L 217.382559 145.550318 
L 217.717694 146.359416 
L 218.052829 140.772152 
L 218.7231 144.039661 
L 219.058235 153.174473 
L 219.728505 124.50865 
L 220.06364 157.846018 
L 220.73391 142.534043 
L 221.069046 152.945812 
L 221.404181 151.952387 
L 221.739316 162.418583 
L 222.074451 128.609455 
L 222.409586 138.715496 
L 222.744721 121.272978 
L 223.079856 137.407687 
L 223.414992 127.763903 
L 223.750127 162.458271 
L 224.085262 152.523988 
L 224.420397 118.768819 
L 224.755532 156.007838 
L 225.090667 147.713504 
L 225.425802 136.30702 
L 225.760938 154.918106 
L 226.096073 134.588145 
L 226.431208 142.28714 
L 226.766343 145.394808 
L 227.101478 127.003115 
L 227.436613 152.271385 
L 227.771748 165.537745 
L 228.106883 143.372838 
L 228.442019 133.959424 
L 229.112289 148.141586 
L 229.447424 135.390956 
L 229.782559 129.183532 
L 230.117694 159.392573 
L 230.452829 116.395462 
L 230.787965 139.292673 
L 231.1231 134.087632 
L 231.458235 122.062894 
L 231.79337 128.74123 
L 232.128505 139.954355 
L 232.46364 129.658906 
L 232.798775 110.831943 
L 233.13391 129.516868 
L 233.469046 136.932597 
L 234.139316 126.999359 
L 234.474451 129.221051 
L 234.809586 125.962813 
L 235.144721 139.63881 
L 235.479856 144.089782 
L 236.150127 123.231695 
L 236.485262 139.194534 
L 236.820397 125.270055 
L 237.155532 128.832252 
L 237.490667 125.084541 
L 237.825802 144.317956 
L 238.496073 112.14344 
L 238.831208 126.485228 
L 239.166343 133.880882 
L 239.501478 138.343028 
L 239.836613 116.207716 
L 240.171748 135.45332 
L 240.842019 107.411941 
L 241.177154 127.003761 
L 241.512289 126.185492 
L 241.847424 110.173128 
L 242.182559 100.708502 
L 242.517694 124.620955 
L 242.852829 116.307601 
L 243.187965 124.746825 
L 243.5231 151.570181 
L 243.858235 123.795577 
L 244.19337 130.558421 
L 244.528505 116.602464 
L 244.86364 108.295694 
L 245.198775 115.865571 
L 245.53391 113.795094 
L 246.204181 119.91254 
L 246.539316 117.055471 
L 246.874451 111.411539 
L 247.209586 126.247001 
L 247.544721 110.250238 
L 247.879856 135.287535 
L 248.214992 113.946849 
L 248.550127 116.723255 
L 248.885262 114.491488 
L 249.220397 93.124259 
L 249.555532 116.193243 
L 249.890667 114.600266 
L 250.225802 119.60875 
L 250.560938 90.419419 
L 250.896073 102.763996 
L 251.231208 98.650262 
L 251.566343 106.60387 
L 251.901478 103.551493 
L 252.236613 121.272079 
L 252.571748 98.807581 
L 252.906883 118.85756 
L 253.242019 112.749446 
L 253.577154 92.728951 
L 253.912289 95.540236 
L 254.247424 102.944543 
L 254.582559 105.670818 
L 254.917694 92.649966 
L 255.252829 96.787314 
L 255.587965 84.139287 
L 255.9231 104.707031 
L 256.258235 89.184819 
L 256.59337 83.847762 
L 256.928505 86.967891 
L 257.26364 86.515316 
L 257.598775 108.679834 
L 257.93391 96.010099 
L 258.604181 90.869313 
L 258.939316 110.067579 
L 259.274451 95.741092 
L 259.609586 98.5589 
L 259.944721 81.212224 
L 260.279856 87.78431 
L 260.614992 91.658259 
L 260.950127 103.956688 
L 261.285262 104.107794 
L 261.620397 80.856911 
L 261.955532 67.73766 
L 262.290667 91.810589 
L 262.625802 83.027147 
L 262.960938 99.350225 
L 263.296073 78.022504 
L 263.631208 89.498315 
L 263.966343 84.109591 
L 264.301478 74.449961 
L 264.636613 92.486957 
L 265.306883 99.857734 
L 265.977154 102.958462 
L 266.312289 71.341131 
L 266.647424 97.057579 
L 266.982559 90.044541 
L 267.317694 87.228142 
L 267.652829 85.424305 
L 267.987965 85.456019 
L 268.3231 89.281686 
L 268.658235 80.559724 
L 269.328505 109.714203 
L 269.66364 80.99274 
L 269.998775 91.116469 
L 270.33391 63.495997 
L 270.669046 67.1182 
L 271.004181 89.704913 
L 271.339316 74.495002 
L 271.674451 78.37453 
L 272.009586 54.867451 
L 272.344721 70.447624 
L 272.679856 79.927294 
L 273.014992 76.670268 
L 273.350127 78.754175 
L 273.685262 73.63615 
L 274.020397 71.172762 
L 274.355532 79.852814 
L 274.690667 75.273866 
L 275.025802 61.241419 
L 275.360937 71.005888 
L 275.696073 68.845085 
L 276.031208 49.221662 
L 276.366343 57.064797 
L 276.701478 77.507122 
L 277.036613 75.453357 
L 277.371748 52.256834 
L 277.706883 72.440537 
L 278.042019 67.001253 
L 278.377154 77.904479 
L 278.712289 69.982199 
L 279.047424 68.89459 
L 279.382559 63.321216 
L 279.717694 79.440964 
L 280.052829 58.804947 
L 280.387965 61.266077 
L 280.7231 68.225009 
L 281.058235 62.333556 
L 281.39337 60.933554 
L 281.728505 57.81586 
L 282.06364 45.644161 
L 282.398775 42.296049 
L 282.73391 75.991327 
L 283.069046 57.11043 
L 283.404181 70.85474 
L 283.739316 53.703784 
L 284.074451 68.018912 
L 284.409586 42.781946 
L 284.744721 51.103575 
L 285.079856 63.747807 
L 285.750127 40.85927 
L 286.085262 62.649963 
L 286.420397 74.335377 
L 286.755532 52.07364 
L 287.090667 63.515371 
L 287.425802 38.235953 
L 287.760938 49.002013 
L 288.096073 39.990371 
L 288.431208 56.617626 
L 289.101478 27.126463 
L 289.436613 46.161405 
L 289.771748 42.960422 
L 290.106883 71.067392 
L 290.442019 45.348612 
L 290.777154 45.803915 
L 291.112289 58.297002 
L 291.447424 53.778759 
L 291.782559 66.472098 
L 292.117694 50.737543 
L 292.452829 41.949741 
L 292.787965 52.222482 
L 293.1231 66.131047 
L 293.458235 48.820127 
L 293.79337 56.347969 
L 294.128505 34.103819 
L 294.46364 52.21458 
L 294.798775 40.004664 
L 295.13391 37.047381 
L 295.469046 33.032796 
L 295.804181 47.060059 
L 296.474451 61.831075 
L 296.809586 36.558938 
L 297.144721 37.196576 
L 297.479856 55.416325 
L 297.814992 39.890388 
L 298.150127 44.396034 
L 298.485262 51.112612 
L 298.820397 52.043808 
L 299.155532 38.560121 
L 299.490667 38.529339 
L 299.825802 39.4438 
L 300.160938 42.367534 
L 300.496073 36.508379 
L 300.831208 25.886731 
L 301.166343 21.518764 
L 301.501478 39.986068 
L 301.836613 47.68666 
L 302.171748 43.33639 
L 302.506883 44.368505 
L 302.842019 40.666996 
L 303.177154 40.800543 
L 303.512289 57.137302 
L 303.847424 39.295946 
L 304.182559 47.277805 
L 304.517694 23.115685 
L 304.852829 21.147031 
L 305.187965 35.544015 
L 305.5231 37.900521 
L 305.858235 58.445282 
L 306.528505 40.717904 
L 306.86364 41.637918 
L 307.198775 48.960984 
L 307.53391 46.81746 
L 307.869046 46.796474 
L 308.204181 27.186933 
L 308.539316 33.847665 
L 308.874451 49.256309 
L 309.209586 46.215234 
L 309.544721 40.736043 
L 309.879856 27.814385 
L 310.550127 36.976482 
L 310.885262 55.109257 
L 311.220397 30.601772 
L 311.555532 37.026951 
L 311.890667 47.68696 
L 312.225802 23.283895 
L 312.560938 17.87632 
L 312.896073 33.152673 
L 313.231208 25.782395 
L 313.566343 27.653398 
L 313.901478 39.266165 
L 314.236613 46.247746 
L 314.571748 45.977103 
L 314.906883 30.015589 
L 315.242019 27.782419 
L 315.577154 37.482686 
L 315.912289 37.605085 
L 316.247424 51.722446 
L 316.582559 40.881469 
L 317.252829 57.634824 
L 317.587965 30.604306 
L 317.9231 22.455059 
L 318.258235 37.315289 
L 318.59337 36.734641 
L 318.928505 47.419142 
L 319.26364 29.632475 
L 319.598775 39.278482 
L 319.93391 44.585262 
L 320.269046 24.832446 
L 320.604181 43.907652 
L 320.939316 26.963871 
L 321.274451 29.35058 
L 321.609586 57.474545 
L 321.944721 37.745252 
L 322.279856 39.014394 
L 322.614992 31.017857 
L 322.950127 28.492421 
L 323.285262 31.378175 
L 323.620397 42.215534 
L 323.955532 40.656157 
L 324.290667 51.475998 
L 324.625802 26.454992 
L 324.960938 36.149508 
L 325.296073 37.92733 
L 325.631208 19.904183 
L 325.966343 42.367476 
L 326.301478 42.438423 
L 326.636613 30.173869 
L 327.306883 47.967818 
L 327.977154 35.826703 
L 328.312289 58.162706 
L 328.647424 51.987442 
L 328.982559 59.894567 
L 329.317694 39.457844 
L 329.652829 45.875617 
L 329.987965 43.037898 
L 330.3231 58.142679 
L 330.658235 42.161564 
L 330.99337 31.649653 
L 331.328505 46.286235 
L 331.66364 40.676174 
L 331.998775 31.750476 
L 332.33391 31.252986 
L 332.669046 29.350401 
L 333.004181 57.176936 
L 333.339316 30.485164 
L 333.674451 60.029743 
L 334.009586 67.793515 
L 334.344721 51.37002 
L 334.679856 27.025557 
L 335.014992 40.617448 
L 335.350127 45.426969 
L 335.685262 44.465538 
L 336.020397 39.440006 
L 336.355532 47.311399 
L 336.690667 44.759397 
L 337.025802 59.679582 
L 337.360937 62.447205 
L 337.696073 34.69361 
L 338.031208 65.159344 
L 338.366343 46.013362 
L 339.036613 59.453816 
L 339.371748 49.590752 
L 339.706883 53.567588 
L 340.042019 38.309437 
L 340.377154 49.299282 
L 340.712289 41.843677 
L 341.047424 36.98622 
L 341.382559 37.676784 
L 341.717694 38.768841 
L 342.052829 45.255754 
L 342.387965 68.668514 
L 343.058235 57.948524 
L 343.39337 56.003199 
L 343.728505 44.192179 
L 344.06364 63.87019 
L 344.398775 40.845274 
L 344.73391 71.239856 
L 345.069046 54.085322 
L 345.404181 73.73229 
L 345.739316 53.874925 
L 346.074451 76.656723 
L 346.409586 51.398729 
L 346.744721 48.694814 
L 347.079856 34.088732 
L 347.414992 42.042083 
L 347.750127 69.644903 
L 348.085262 59.445447 
L 348.420397 63.023672 
L 348.755532 49.072071 
L 349.090667 54.901425 
L 349.760938 72.612494 
L 350.096073 72.304274 
L 350.431208 61.977308 
L 350.766343 56.937165 
L 351.101478 56.398745 
L 351.436613 73.066404 
L 351.771748 48.788145 
L 352.106883 85.635472 
L 352.442019 62.093487 
L 352.777154 71.117324 
L 353.112289 68.305645 
L 353.447424 64.266978 
L 353.782559 74.123564 
L 354.117694 77.61829 
L 354.452829 61.046988 
L 355.1231 94.834594 
L 355.458235 80.154813 
L 355.79337 90.793557 
L 356.128505 84.278919 
L 356.46364 87.261005 
L 356.798775 71.799287 
L 357.13391 50.842554 
L 357.469046 81.464865 
L 357.804181 92.85745 
L 358.139316 69.027066 
L 358.474451 65.071939 
L 359.144721 87.554617 
L 359.479856 56.397837 
L 359.814992 72.286833 
L 360.150127 104.44644 
L 360.485262 96.55109 
L 360.820397 85.857736 
L 361.155532 91.361128 
L 361.490667 87.402167 
L 361.825802 93.691536 
L 362.160938 102.593117 
L 362.496073 80.820465 
L 362.831208 76.829849 
L 363.166343 104.095737 
L 363.501478 95.711944 
L 363.836613 75.303354 
L 364.171748 72.627046 
L 364.506883 100.319952 
L 364.842019 81.871671 
L 365.177154 81.424525 
L 365.512289 102.149206 
L 365.847424 87.359226 
L 366.182559 64.989174 
L 366.517694 93.309312 
L 366.852829 93.202492 
L 367.187965 78.574612 
L 367.5231 95.325265 
L 367.858235 85.260163 
L 368.19337 93.623935 
L 368.528505 74.53235 
L 368.86364 94.629762 
L 369.198775 87.100617 
L 369.53391 92.426369 
L 369.869046 106.926669 
L 370.204181 92.208608 
L 370.539316 105.798474 
L 370.874451 114.211192 
L 371.209586 92.612956 
L 371.544721 104.350534 
L 371.879856 107.233859 
L 372.214992 99.196356 
L 372.550127 99.523582 
L 372.885262 86.681583 
L 373.220397 102.347639 
L 373.555532 75.307622 
L 373.890667 105.719369 
L 374.225802 96.818711 
L 374.560938 94.17815 
L 375.231208 113.251168 
L 375.566343 114.58341 
L 375.901478 85.165622 
L 376.236613 69.739514 
L 376.571748 97.41762 
L 376.906883 96.003844 
L 377.242019 112.70135 
L 377.577154 116.623308 
L 377.912289 114.635674 
L 378.247424 91.440528 
L 378.582559 101.308971 
L 378.917694 123.442879 
L 379.252829 122.526793 
L 379.9231 111.496093 
L 380.258235 102.926062 
L 380.59337 113.923414 
L 380.928505 99.051056 
L 381.26364 115.86453 
L 381.598775 105.769359 
L 381.93391 108.295696 
L 382.269046 119.076831 
L 382.604181 119.726779 
L 383.274451 132.017009 
L 383.609586 113.645848 
L 384.279856 107.372622 
L 384.614992 118.005402 
L 384.950127 123.273822 
L 385.285262 107.525897 
L 385.620397 122.874046 
L 385.955532 120.678951 
L 386.290667 127.361299 
L 386.625802 109.044501 
L 386.960938 114.360402 
L 386.960938 114.360402 
" clip-path="url(#p0ee89aa895)" style="fill: none; stroke: #1f77b4; stroke-width: 1.5; stroke-linecap: square"/>
   </g>
   <g id="line2d_26">
    <path d="M 53.501478 92.238164 
L 53.836613 92.202782 
L 54.171748 84.403886 
L 54.506883 83.739909 
L 54.842019 96.709627 
L 55.512289 80.352176 
L 55.847424 78.94842 
L 56.182559 68.846763 
L 56.517694 65.48502 
L 57.187965 72.721588 
L 57.5231 73.520346 
L 57.858235 73.092971 
L 58.19337 76.475396 
L 58.528505 71.006865 
L 58.86364 69.878731 
L 59.198775 77.116207 
L 59.53391 64.490795 
L 59.869046 74.96589 
L 60.204181 74.259988 
L 60.539316 71.167752 
L 60.874451 79.192564 
L 61.209586 77.028305 
L 61.544721 73.552587 
L 61.879856 68.131492 
L 62.214992 66.903408 
L 62.550127 73.62839 
L 62.885262 67.407926 
L 63.220397 83.061466 
L 63.555532 69.195791 
L 63.890667 72.891701 
L 64.225802 67.893451 
L 64.560938 70.217707 
L 64.896073 71.304723 
L 65.231208 81.364891 
L 65.566343 66.020378 
L 65.901478 72.071128 
L 66.236613 67.152306 
L 66.571748 59.482439 
L 66.906883 68.894916 
L 67.242019 68.252793 
L 67.577154 61.055933 
L 67.912289 64.745561 
L 68.247424 55.717795 
L 68.582559 55.36798 
L 68.917694 67.626903 
L 69.252829 56.540217 
L 69.587965 74.322851 
L 69.9231 64.953971 
L 70.258235 66.302903 
L 71.26364 55.081264 
L 71.598775 60.09273 
L 71.93391 60.459174 
L 72.269046 65.252683 
L 72.604181 77.039993 
L 72.939316 64.903774 
L 73.274451 71.288692 
L 73.944721 57.824862 
L 74.279856 51.471663 
L 74.614992 50.488344 
L 75.285262 54.154477 
L 75.620397 51.67975 
L 75.955532 60.984113 
L 76.290667 54.585582 
L 76.625802 55.739123 
L 76.960938 52.181828 
L 77.296073 61.369035 
L 77.631208 55.659817 
L 78.301478 60.906192 
L 78.636613 58.019257 
L 78.971748 47.944426 
L 79.306883 54.717562 
L 79.642019 50.552422 
L 79.977154 59.938766 
L 80.312289 55.384439 
L 80.982559 62.097579 
L 81.317694 46.829863 
L 81.652829 56.02454 
L 81.987965 50.042932 
L 82.3231 56.263716 
L 82.658235 53.658238 
L 82.99337 56.989106 
L 83.328505 56.063253 
L 83.66364 51.412959 
L 83.998775 42.591594 
L 84.33391 54.112361 
L 84.669046 45.662715 
L 85.004181 43.227431 
L 85.339316 62.698749 
L 85.674451 39.699004 
L 86.009586 44.458436 
L 86.344721 52.33759 
L 86.679856 40.836466 
L 87.014992 46.782695 
L 87.350127 45.279799 
L 88.020397 36.679296 
L 88.355532 44.033713 
L 88.690667 40.909093 
L 89.025802 41.79211 
L 89.360938 46.78082 
L 89.696073 41.840474 
L 90.031208 43.691979 
L 90.701478 39.132784 
L 91.036613 47.845717 
L 91.371748 37.256681 
L 91.706883 50.108847 
L 92.042019 38.480881 
L 92.377154 38.654847 
L 92.712289 37.587752 
L 93.047424 32.762412 
L 93.382559 52.174191 
L 93.717694 44.316506 
L 94.052829 51.740028 
L 94.387965 50.022301 
L 94.7231 49.238701 
L 95.058235 45.518572 
L 95.39337 51.913047 
L 95.728505 44.850642 
L 96.06364 43.949371 
L 96.398775 45.317837 
L 96.73391 40.312904 
L 97.069046 41.131752 
L 97.404181 42.392842 
L 97.739316 41.584416 
L 98.074451 41.11829 
L 98.409586 43.396546 
L 98.744721 48.283243 
L 99.079856 48.173362 
L 99.414992 49.51579 
L 100.085262 50.884665 
L 100.420397 35.290644 
L 100.755532 46.042282 
L 101.090667 37.834667 
L 101.425802 38.163442 
L 101.760938 49.064326 
L 102.096073 44.198216 
L 102.431208 48.287913 
L 103.101478 35.779931 
L 103.436613 29.282752 
L 103.771748 27.1669 
L 104.106883 26.591134 
L 104.442019 34.961607 
L 104.777154 32.276221 
L 105.112289 46.315619 
L 105.447424 46.504531 
L 105.782559 45.437238 
L 106.117694 51.508782 
L 106.452829 41.931944 
L 106.787965 40.927082 
L 107.1231 38.383171 
L 107.458235 34.575633 
L 108.128505 40.90814 
L 108.46364 36.27126 
L 108.798775 41.948288 
L 109.13391 37.670699 
L 109.469046 42.595382 
L 109.804181 39.335282 
L 110.139316 37.967636 
L 110.474451 45.25023 
L 110.809586 30.08748 
L 111.144721 35.645728 
L 111.479856 33.001566 
L 111.814992 38.032172 
L 112.150127 31.248936 
L 112.485262 33.13877 
L 112.820397 41.243658 
L 113.155532 32.738412 
L 113.490667 41.254736 
L 113.825802 43.868082 
L 114.160938 36.524874 
L 114.831208 44.602489 
L 115.166343 39.57029 
L 115.501478 50.603852 
L 115.836613 44.502555 
L 116.171748 44.962177 
L 116.506883 43.836001 
L 116.842019 47.022562 
L 117.177154 42.058364 
L 117.512289 47.885214 
L 117.847424 40.248217 
L 118.182559 42.375426 
L 118.517694 36.870495 
L 118.852829 43.76975 
L 119.187965 34.675586 
L 119.5231 44.982741 
L 119.858235 42.578318 
L 120.19337 44.842488 
L 120.528505 38.360895 
L 120.86364 52.498266 
L 121.198775 46.409478 
L 121.53391 45.43067 
L 121.869046 47.456281 
L 122.539316 36.526058 
L 122.874451 40.754262 
L 123.209586 37.998245 
L 123.544721 38.118148 
L 123.879856 47.272734 
L 124.214992 37.813188 
L 124.550127 48.186469 
L 124.885262 39.570018 
L 125.220397 46.065994 
L 125.555532 44.901515 
L 125.890667 48.710793 
L 126.225802 49.416246 
L 126.560938 46.287099 
L 126.896073 50.931957 
L 127.231208 51.332015 
L 127.566343 46.858821 
L 127.901478 44.804405 
L 128.236613 52.46529 
L 128.571748 41.207744 
L 128.906883 53.783497 
L 129.242019 53.38501 
L 129.577154 50.59491 
L 129.912289 58.336956 
L 130.247424 48.496077 
L 130.582559 51.097371 
L 130.917694 46.068912 
L 131.252829 52.048802 
L 131.587965 49.457793 
L 131.9231 54.684893 
L 132.59337 51.750157 
L 132.928505 51.501175 
L 133.26364 54.434305 
L 133.598775 51.069062 
L 133.93391 59.325301 
L 134.269046 54.488853 
L 134.604181 60.194594 
L 134.939316 57.495342 
L 135.274451 56.294262 
L 135.609586 52.039505 
L 135.944721 57.624958 
L 136.614992 50.728557 
L 136.950127 65.834032 
L 137.285262 54.429375 
L 137.620397 64.702427 
L 137.955532 67.81506 
L 138.290667 59.027693 
L 138.625802 67.424517 
L 138.960938 54.011268 
L 139.296073 58.374226 
L 139.631208 66.672156 
L 139.966343 71.015695 
L 140.301478 72.703977 
L 140.636613 82.290334 
L 140.971748 66.354649 
L 141.642019 71.997507 
L 141.977154 60.272553 
L 142.312289 71.539702 
L 142.647424 62.727183 
L 142.982559 68.076835 
L 143.317694 59.590569 
L 143.652829 65.329421 
L 143.987965 60.23067 
L 144.3231 60.819178 
L 144.99337 68.804032 
L 145.328505 74.061053 
L 145.998775 70.2584 
L 146.33391 72.052308 
L 146.669046 67.41228 
L 147.004181 67.184557 
L 147.339316 72.415204 
L 147.674451 64.385745 
L 148.009586 70.858601 
L 148.344721 66.424364 
L 148.679856 72.393962 
L 149.014992 72.0741 
L 149.350127 74.713477 
L 149.685262 68.997474 
L 150.020397 80.144459 
L 150.355532 74.037584 
L 150.690667 79.666318 
L 151.360938 80.579912 
L 151.696073 79.828362 
L 152.031208 81.916015 
L 152.701478 82.934967 
L 153.036613 77.843939 
L 153.371748 77.453013 
L 153.706883 73.712492 
L 154.042019 75.973181 
L 154.377154 83.052151 
L 154.712289 77.553685 
L 155.382559 89.656148 
L 155.717694 85.827875 
L 156.052829 85.80283 
L 156.7231 98.708595 
L 157.058235 96.986456 
L 157.39337 101.541906 
L 157.728505 99.202554 
L 158.06364 103.620293 
L 158.398775 100.262422 
L 158.73391 98.233834 
L 159.069046 100.698288 
L 159.404181 93.022368 
L 159.739316 76.105529 
L 160.074451 92.506536 
L 160.409586 79.110775 
L 160.744721 99.885611 
L 161.079856 109.08075 
L 161.414992 108.627188 
L 161.750127 110.310191 
L 162.085262 106.793851 
L 162.420397 110.040661 
L 163.090667 104.025017 
L 163.425802 105.283251 
L 163.760938 98.996083 
L 164.096073 100.103874 
L 164.431208 99.13829 
L 164.766343 104.853641 
L 165.101478 106.291143 
L 165.436613 104.289096 
L 165.771748 103.723447 
L 166.106883 97.951311 
L 166.442019 98.410016 
L 166.777154 104.156043 
L 167.112289 107.931217 
L 167.447424 106.494991 
L 167.782559 107.581325 
L 168.117694 109.434168 
L 168.452829 110.099756 
L 168.787965 111.756549 
L 169.1231 114.649059 
L 169.458235 113.785554 
L 169.79337 110.038723 
L 170.128505 117.154172 
L 170.798775 118.932045 
L 171.13391 117.954337 
L 171.469046 111.911361 
L 171.804181 112.248127 
L 172.139316 110.089163 
L 172.809586 117.498404 
L 173.144721 117.168667 
L 173.479856 121.224355 
L 173.814992 122.228868 
L 174.150127 120.306781 
L 174.485262 117.119208 
L 174.820397 117.811823 
L 175.155532 127.839105 
L 175.490667 130.893069 
L 175.825802 128.123728 
L 176.160938 126.548011 
L 176.496073 118.031248 
L 176.831208 117.970624 
L 177.166343 120.793624 
L 177.501478 126.249385 
L 177.836613 125.041612 
L 178.171748 123.256297 
L 178.506883 126.352781 
L 178.842019 123.845666 
L 179.177154 125.585137 
L 179.512289 122.016328 
L 179.847424 126.485596 
L 180.182559 123.485636 
L 180.517694 122.674254 
L 180.852829 124.833537 
L 181.187965 125.536891 
L 181.5231 119.9691 
L 182.528505 122.911664 
L 182.86364 131.204565 
L 183.198775 131.911835 
L 183.53391 131.896031 
L 183.869046 134.80176 
L 184.204181 133.832725 
L 184.539316 133.612513 
L 184.874451 135.441196 
L 185.209586 132.941125 
L 185.544721 134.955213 
L 185.879856 126.70305 
L 186.214992 129.466911 
L 186.885262 121.91521 
L 187.220397 126.986237 
L 187.555532 126.780066 
L 187.890667 134.630671 
L 188.225802 132.92274 
L 188.560938 130.114756 
L 188.896073 130.978918 
L 189.231208 124.000667 
L 189.566343 123.819004 
L 189.901478 131.246634 
L 190.236613 135.242978 
L 190.571748 140.970792 
L 190.906883 144.570003 
L 191.242019 144.97848 
L 191.577154 143.626503 
L 191.912289 141.347371 
L 192.247424 140.057988 
L 192.582559 135.339175 
L 192.917694 133.706289 
L 193.252829 129.068981 
L 193.587965 128.614698 
L 193.9231 132.982023 
L 194.258235 134.297539 
L 194.59337 133.790148 
L 194.928505 138.964325 
L 195.26364 135.52469 
L 195.598775 136.204853 
L 196.269046 142.531576 
L 196.604181 139.093301 
L 196.939316 140.676363 
L 197.609586 136.211888 
L 198.279856 138.935209 
L 198.614992 132.509 
L 198.950127 138.453673 
L 199.285262 137.714976 
L 199.620397 135.001962 
L 199.955532 141.896997 
L 200.290667 145.764858 
L 200.625802 141.393019 
L 200.960938 145.804156 
L 201.296073 143.491641 
L 201.631208 135.069041 
L 201.966343 143.874627 
L 202.301478 145.547752 
L 202.636613 143.051294 
L 203.306883 150.803401 
L 203.642019 147.177125 
L 203.977154 146.043783 
L 204.647424 144.448436 
L 204.982559 142.403585 
L 205.317694 141.597632 
L 205.987965 141.865902 
L 206.658235 143.937446 
L 206.99337 141.069975 
L 207.328505 139.223179 
L 207.66364 139.217612 
L 207.998775 130.290433 
L 209.004181 137.946426 
L 209.339316 138.956173 
L 209.674451 142.535217 
L 210.009586 141.762112 
L 210.344721 146.580341 
L 210.679856 143.112608 
L 211.014992 147.826203 
L 211.350127 149.934153 
L 211.685262 148.562936 
L 212.020397 145.738676 
L 212.355532 139.63531 
L 212.690667 144.145485 
L 213.025802 138.032739 
L 213.360938 136.674072 
L 213.696073 137.167243 
L 214.031208 138.103241 
L 214.366343 135.364541 
L 215.036613 139.1019 
L 215.371748 139.487635 
L 215.706883 147.562377 
L 216.042019 146.819911 
L 216.377154 146.88486 
L 216.712289 148.955405 
L 217.047424 145.00534 
L 217.382559 148.337379 
L 217.717694 144.439165 
L 218.052829 145.288866 
L 218.7231 140.161349 
L 219.058235 140.644164 
L 219.39337 142.205604 
L 219.728505 141.620992 
L 220.06364 135.416617 
L 220.398775 140.424192 
L 220.73391 143.053437 
L 221.069046 141.42597 
L 221.404181 146.556584 
L 221.739316 146.71091 
L 222.074451 148.549487 
L 222.409586 145.083725 
L 222.744721 138.997336 
L 223.079856 136.586311 
L 223.414992 128.811627 
L 223.750127 131.540157 
L 224.085262 139.939812 
L 224.420397 144.910582 
L 224.755532 135.086265 
L 225.090667 141.977065 
L 225.425802 144.574987 
L 225.760938 137.730248 
L 226.096073 144.586549 
L 226.766343 137.907208 
L 227.101478 142.341106 
L 227.436613 134.706692 
L 227.771748 137.915372 
L 228.106883 147.069027 
L 228.442019 143.538105 
L 228.777154 142.313223 
L 229.112289 142.211407 
L 230.117694 134.453311 
L 230.452829 140.63609 
L 230.787965 134.864498 
L 231.1231 134.32858 
L 231.458235 138.015895 
L 231.79337 125.803596 
L 232.46364 131.123915 
L 232.798775 129.565169 
L 233.13391 124.77156 
L 233.469046 125.724853 
L 233.804181 128.438618 
L 234.139316 126.74207 
L 234.474451 129.255573 
L 234.809586 129.661526 
L 235.144721 127.819005 
L 235.479856 129.334214 
L 235.814992 134.414727 
L 236.150127 133.757411 
L 236.485262 131.955272 
L 236.820397 132.932334 
L 237.155532 130.495881 
L 237.490667 126.606791 
L 237.825802 129.01505 
L 238.160938 129.795538 
L 238.496073 132.079539 
L 238.831208 124.772779 
L 239.166343 126.400377 
L 239.501478 127.06221 
L 239.836613 127.465991 
L 240.171748 127.365327 
L 240.506883 128.121863 
L 240.842019 128.299978 
L 241.177154 117.646524 
L 241.512289 122.05949 
L 241.847424 122.313933 
L 242.182559 117.36343 
L 242.517694 115.096947 
L 242.852829 116.585274 
L 243.187965 116.449957 
L 243.5231 117.575334 
L 243.858235 130.076882 
L 244.19337 129.604109 
L 244.86364 130.158697 
L 245.198775 118.430089 
L 245.53391 118.168084 
L 245.869046 115.666289 
L 246.204181 114.703403 
L 246.539316 117.871614 
L 246.874451 117.807747 
L 247.209586 116.676251 
L 247.544721 119.136326 
L 247.879856 118.094542 
L 248.550127 123.543175 
L 248.885262 117.534711 
L 249.220397 121.009409 
L 249.555532 110.434512 
L 249.890667 110.592744 
L 250.225802 113.943581 
L 250.896073 111.503527 
L 251.231208 106.562199 
L 251.566343 107.279913 
L 251.901478 102.449345 
L 252.571748 109.717505 
L 252.906883 110.676079 
L 253.242019 111.159329 
L 253.577154 116.382616 
L 253.912289 106.52777 
L 254.582559 104.936722 
L 254.917694 103.229324 
L 255.252829 102.188488 
L 255.587965 101.594859 
L 255.9231 95.84206 
L 256.258235 97.881166 
L 256.59337 92.009192 
L 256.928505 90.07111 
L 257.26364 91.801027 
L 257.598775 82.173776 
L 257.93391 93.325151 
L 258.269046 93.286152 
L 258.604181 98.230181 
L 258.939316 100.809816 
L 259.274451 101.541307 
L 259.609586 98.748605 
L 259.944721 100.503693 
L 260.279856 98.286777 
L 260.950127 88.244944 
L 261.285262 91.270893 
L 261.620397 99.414263 
L 261.955532 95.171804 
L 262.290667 89.424472 
L 262.625802 85.763357 
L 262.960938 73.195129 
L 263.296073 86.668225 
L 263.631208 81.558254 
L 263.966343 87.049774 
L 264.301478 83.227956 
L 264.636613 77.316799 
L 264.971748 83.643048 
L 265.306883 81.864142 
L 265.642019 89.812455 
L 265.977154 101.38911 
L 266.312289 103.52175 
L 266.647424 92.300864 
L 266.982559 95.047849 
L 267.317694 86.66541 
L 267.652829 84.163182 
L 267.987965 88.674095 
L 268.3231 83.402175 
L 268.658235 83.209443 
L 268.99337 79.358303 
L 269.328505 85.54419 
L 269.66364 94.901012 
L 269.998775 86.48251 
L 270.33391 95.200079 
L 270.669046 79.00103 
L 271.004181 75.649644 
L 271.339316 75.635261 
L 271.674451 67.286385 
L 272.009586 77.268889 
L 272.344721 66.679731 
L 272.679856 70.757221 
L 273.014992 66.844749 
L 273.350127 68.068517 
L 273.685262 74.0918 
L 274.020397 72.596742 
L 274.355532 71.832269 
L 274.690667 73.461716 
L 275.360937 67.911632 
L 275.696073 70.822848 
L 276.366343 58.959945 
L 276.701478 61.93743 
L 277.036613 62.221954 
L 277.371748 61.797817 
L 277.706883 62.257778 
L 278.042019 70.933279 
L 278.377154 60.658845 
L 278.712289 68.585541 
L 279.047424 66.560445 
L 279.382559 69.241484 
L 279.717694 65.919183 
L 280.052829 70.057732 
L 280.387965 60.600176 
L 280.7231 66.383287 
L 281.058235 63.978922 
L 281.39337 59.56657 
L 281.728505 61.839265 
L 282.06364 59.456667 
L 282.398775 53.620667 
L 282.73391 51.212294 
L 283.069046 58.38565 
L 283.404181 49.20089 
L 283.739316 67.240087 
L 284.074451 57.499178 
L 284.409586 64.625427 
L 284.744721 51.393463 
L 285.079856 56.920996 
L 285.414992 54.67946 
L 285.750127 50.076271 
L 286.085262 51.720981 
L 286.420397 56.655443 
L 286.755532 55.286965 
L 287.090667 54.641132 
L 287.425802 64.941063 
L 287.760938 49.976036 
L 288.096073 54.202013 
L 288.431208 43.494299 
L 288.766343 49.679342 
L 289.101478 42.398204 
L 289.436613 43.343399 
L 289.771748 45.349588 
L 290.106883 37.068751 
L 290.442019 53.355191 
L 290.777154 45.20714 
L 291.112289 55.059891 
L 291.447424 54.028742 
L 291.782559 48.800705 
L 292.117694 57.994713 
L 292.452829 52.485211 
L 292.787965 53.670983 
L 293.1231 52.832002 
L 293.458235 52.316837 
L 293.79337 49.365364 
L 294.128505 57.991485 
L 294.46364 45.956523 
L 294.798775 51.968158 
L 295.13391 40.857699 
L 295.469046 43.530266 
L 295.804181 39.775021 
L 296.139316 41.825384 
L 296.474451 42.650532 
L 296.809586 50.607476 
L 297.144721 46.036953 
L 297.479856 50.627468 
L 297.814992 48.232591 
L 298.150127 39.515755 
L 298.485262 47.699878 
L 298.820397 46.762857 
L 299.155532 46.81754 
L 299.490667 45.161393 
L 299.825802 46.207725 
L 300.160938 41.340796 
L 300.496073 40.660911 
L 300.831208 39.008936 
L 301.501478 33.767162 
L 301.836613 34.450214 
L 302.171748 34.684089 
L 302.842019 45.142269 
L 303.177154 43.072762 
L 303.512289 42.903465 
L 303.847424 47.490889 
L 304.182559 41.201205 
L 304.517694 49.765287 
L 304.852829 37.36858 
L 305.187965 37.876768 
L 305.858235 30.601932 
L 306.19337 43.181721 
L 306.528505 42.620537 
L 306.86364 47.884916 
L 307.869046 43.939828 
L 308.204181 46.780027 
L 308.539316 40.387622 
L 308.874451 42.248648 
L 309.209586 40.070026 
L 309.544721 39.228847 
L 309.879856 43.858401 
L 310.214992 40.454641 
L 310.550127 39.137915 
L 310.885262 34.850738 
L 311.220397 41.57416 
L 311.555532 35.674079 
L 311.890667 45.012461 
L 312.225802 42.134509 
L 312.560938 32.678019 
L 312.896073 36.817505 
L 313.231208 32.786565 
L 313.566343 25.011104 
L 313.901478 30.646029 
L 314.906883 41.184631 
L 315.242019 39.515572 
L 315.577154 40.084211 
L 316.247424 33.858554 
L 316.582559 42.284673 
L 316.917694 40.014818 
L 317.252829 48.368509 
L 317.587965 48.944038 
L 317.9231 41.728022 
L 318.258235 44.400192 
L 318.59337 38.958236 
L 318.928505 31.630912 
L 319.26364 40.07501 
L 319.598775 35.555513 
L 319.93391 42.461128 
L 320.269046 39.347061 
L 320.604181 33.886572 
L 320.939316 43.233854 
L 321.274451 30.880544 
L 321.944721 42.50254 
L 322.279856 34.73301 
L 322.614992 45.641566 
L 322.950127 39.370533 
L 323.285262 35.780136 
L 323.620397 33.740615 
L 323.955532 35.762599 
L 324.290667 36.250082 
L 324.625802 44.508899 
L 324.960938 36.60919 
L 325.296073 43.858881 
L 325.966343 30.38626 
L 326.301478 39.708678 
L 326.636613 33.735004 
L 326.971748 35.802965 
L 327.306883 40.982971 
L 327.642019 40.009143 
L 327.977154 39.802195 
L 328.312289 42.019267 
L 328.647424 48.751438 
L 328.982559 43.958774 
L 329.317694 54.444088 
L 329.652829 47.596761 
L 329.987965 51.739775 
L 330.3231 44.400397 
L 330.658235 49.248419 
L 330.99337 43.687446 
L 331.328505 45.687253 
L 331.66364 46.117827 
L 331.998775 38.086052 
L 332.33391 39.128529 
L 332.669046 38.700902 
L 333.004181 33.552436 
L 333.339316 42.194797 
L 333.674451 32.638893 
L 334.009586 53.762661 
L 334.344721 50.111691 
L 334.679856 52.025176 
L 335.350127 50.391356 
L 335.685262 39.440396 
L 336.355532 42.638215 
L 336.690667 45.486613 
L 337.025802 42.756289 
L 337.360937 50.392527 
L 337.696073 51.726406 
L 338.031208 47.436181 
L 338.366343 60.479655 
L 338.701478 44.455253 
L 339.036613 54.21749 
L 339.371748 53.736348 
L 339.706883 50.010628 
L 340.042019 54.505213 
L 340.377154 46.225061 
L 340.712289 50.075887 
L 341.047424 42.502291 
L 341.382559 42.917937 
L 341.717694 41.480752 
L 342.052829 39.16157 
L 342.387965 41.16947 
L 342.7231 50.190067 
L 343.058235 51.311083 
L 343.39337 59.167654 
L 343.728505 58.936789 
L 344.06364 51.946097 
L 344.398775 57.543758 
L 344.73391 44.97474 
L 345.069046 61.270473 
L 345.404181 49.892254 
L 345.739316 66.21985 
L 346.074451 55.751955 
L 346.409586 68.448388 
L 346.744721 55.221341 
L 347.079856 59.950212 
L 347.414992 49.650422 
L 347.750127 45.878385 
L 348.085262 50.435699 
L 348.420397 48.440121 
L 348.755532 60.877886 
L 349.090667 55.481184 
L 349.425802 57.106418 
L 349.760938 55.830785 
L 350.431208 63.511165 
L 350.766343 64.404953 
L 351.101478 63.446529 
L 351.436613 59.436343 
L 351.771748 62.081023 
L 352.106883 52.847861 
L 352.442019 72.125558 
L 352.777154 57.35364 
L 353.112289 72.074203 
L 353.447424 66.307992 
L 353.782559 64.400538 
L 354.117694 68.098247 
L 354.452829 67.641437 
L 354.787965 64.940938 
L 355.1231 74.177802 
L 355.458235 74.486777 
L 355.79337 74.265189 
L 356.128505 85.514255 
L 356.46364 82.64815 
L 356.798775 82.797415 
L 357.469046 69.950619 
L 357.804181 74.666238 
L 358.139316 69.206447 
L 358.474451 69.532045 
L 358.809586 75.727731 
L 359.144721 72.475735 
L 359.479856 71.703664 
L 359.814992 64.1107 
L 360.150127 74.877128 
L 360.485262 78.061121 
L 360.820397 77.676375 
L 361.490667 97.817539 
L 361.825802 88.360019 
L 362.160938 88.649866 
L 362.496073 95.649789 
L 362.831208 87.54101 
L 363.166343 87.405764 
L 363.501478 94.087691 
L 363.836613 83.970854 
L 364.171748 83.849314 
L 364.506883 85.607636 
L 364.842019 84.732716 
L 365.177154 73.783414 
L 365.847424 93.62416 
L 366.182559 81.841943 
L 366.517694 79.305399 
L 366.852829 88.347102 
L 367.187965 77.045126 
L 367.5231 79.048859 
L 367.858235 91.748686 
L 368.19337 82.751423 
L 368.528505 86.726085 
L 368.86364 81.009288 
L 369.198775 87.167643 
L 369.53391 81.619352 
L 369.869046 85.33861 
L 370.204181 98.987929 
L 370.539316 93.916256 
L 371.209586 109.103448 
L 371.544721 104.055601 
L 371.879856 104.962216 
L 372.214992 108.733165 
L 372.550127 103.684851 
L 372.885262 104.567877 
L 373.220397 101.377432 
L 373.555532 99.81198 
L 373.890667 86.451328 
L 374.225802 95.498588 
L 374.560938 94.359645 
L 374.896073 94.461004 
L 375.231208 103.339955 
L 375.901478 109.374843 
L 376.236613 105.631665 
L 376.571748 98.183197 
L 376.906883 96.020507 
L 377.242019 80.660626 
L 377.577154 100.78648 
L 377.912289 109.76697 
L 378.247424 111.707154 
L 378.582559 109.760114 
L 378.917694 106.464027 
L 379.252829 111.962829 
L 379.587965 113.329266 
L 380.258235 118.386031 
L 380.59337 114.023156 
L 380.928505 112.475143 
L 381.26364 109.778119 
L 381.598775 108.873712 
L 381.93391 112.14532 
L 382.269046 108.168586 
L 382.604181 114.43674 
L 382.939316 115.479956 
L 383.274451 119.022449 
L 383.609586 124.845579 
L 383.944721 122.675342 
L 384.279856 118.952392 
L 384.950127 113.869726 
L 385.285262 117.061279 
L 385.620397 114.996574 
L 385.955532 117.40656 
L 386.290667 120.783125 
L 386.625802 119.667016 
L 386.960938 120.395381 
L 386.960938 120.395381 
" clip-path="url(#p0ee89aa895)" style="fill: none; stroke-dasharray: 5.55,2.4; stroke-dashoffset: 0; stroke: #bf00bf; stroke-width: 1.5"/>
   </g>
   <g id="patch_3">
    <path d="M 52.160938 175.56346 
L 52.160938 9.24346 
" style="fill: none; stroke: #000000; stroke-width: 0.8; stroke-linejoin: miter; stroke-linecap: square"/>
   </g>
   <g id="patch_4">
    <path d="M 386.960938 175.56346 
L 386.960938 9.24346 
" style="fill: none; stroke: #000000; stroke-width: 0.8; stroke-linejoin: miter; stroke-linecap: square"/>
   </g>
   <g id="patch_5">
    <path d="M 52.160938 175.56346 
L 386.960938 175.56346 
" style="fill: none; stroke: #000000; stroke-width: 0.8; stroke-linejoin: miter; stroke-linecap: square"/>
   </g>
   <g id="patch_6">
    <path d="M 52.160938 9.24346 
L 386.960938 9.24346 
" style="fill: none; stroke: #000000; stroke-width: 0.8; stroke-linejoin: miter; stroke-linecap: square"/>
   </g>
   <g id="legend_1">
    <g id="patch_7">
     <path d="M 59.160938 170.56346 
L 153.885938 170.56346 
Q 155.885938 170.56346 155.885938 168.56346 
L 155.885938 140.20721 
Q 155.885938 138.20721 153.885938 138.20721 
L 59.160938 138.20721 
Q 57.160938 138.20721 57.160938 140.20721 
L 57.160938 168.56346 
Q 57.160938 170.56346 59.160938 170.56346 
z
" style="fill: #ffffff; opacity: 0.8; stroke: #cccccc; stroke-linejoin: miter"/>
    </g>
    <g id="line2d_27">
     <path d="M 61.160938 146.305648 
L 71.160938 146.305648 
L 81.160938 146.305648 
" style="fill: none; stroke: #1f77b4; stroke-width: 1.5; stroke-linecap: square"/>
    </g>
    <g id="text_15">
     <!-- data -->
     <g transform="translate(89.160938 149.805648)scale(0.1 -0.1)">
      <defs>
       <path id="DejaVuSans-64" d="M 2906 2969 
L 2906 4863 
L 3481 4863 
L 3481 0 
L 2906 0 
L 2906 525 
Q 2725 213 2448 61 
Q 2172 -91 1784 -91 
Q 1150 -91 751 415 
Q 353 922 353 1747 
Q 353 2572 751 3078 
Q 1150 3584 1784 3584 
Q 2172 3584 2448 3432 
Q 2725 3281 2906 2969 
z
M 947 1747 
Q 947 1113 1208 752 
Q 1469 391 1925 391 
Q 2381 391 2643 752 
Q 2906 1113 2906 1747 
Q 2906 2381 2643 2742 
Q 2381 3103 1925 3103 
Q 1469 3103 1208 2742 
Q 947 2381 947 1747 
z
" transform="scale(0.015625)"/>
       <path id="DejaVuSans-61" d="M 2194 1759 
Q 1497 1759 1228 1600 
Q 959 1441 959 1056 
Q 959 750 1161 570 
Q 1363 391 1709 391 
Q 2188 391 2477 730 
Q 2766 1069 2766 1631 
L 2766 1759 
L 2194 1759 
z
M 3341 1997 
L 3341 0 
L 2766 0 
L 2766 531 
Q 2569 213 2275 61 
Q 1981 -91 1556 -91 
Q 1019 -91 701 211 
Q 384 513 384 1019 
Q 384 1609 779 1909 
Q 1175 2209 1959 2209 
L 2766 2209 
L 2766 2266 
Q 2766 2663 2505 2880 
Q 2244 3097 1772 3097 
Q 1472 3097 1187 3025 
Q 903 2953 641 2809 
L 641 3341 
Q 956 3463 1253 3523 
Q 1550 3584 1831 3584 
Q 2591 3584 2966 3190 
Q 3341 2797 3341 1997 
z
" transform="scale(0.015625)"/>
      </defs>
      <use xlink:href="#DejaVuSans-64"/>
      <use xlink:href="#DejaVuSans-61" x="63.476562"/>
      <use xlink:href="#DejaVuSans-74" x="124.755859"/>
      <use xlink:href="#DejaVuSans-61" x="163.964844"/>
     </g>
    </g>
    <g id="line2d_28">
     <path d="M 61.160938 160.983773 
L 71.160938 160.983773 
L 81.160938 160.983773 
" style="fill: none; stroke-dasharray: 5.55,2.4; stroke-dashoffset: 0; stroke: #bf00bf; stroke-width: 1.5"/>
    </g>
    <g id="text_16">
     <!-- 1-step preds -->
     <g transform="translate(89.160938 164.483773)scale(0.1 -0.1)">
      <defs>
       <path id="DejaVuSans-2d" d="M 313 2009 
L 1997 2009 
L 1997 1497 
L 313 1497 
L 313 2009 
z
" transform="scale(0.015625)"/>
       <path id="DejaVuSans-73" d="M 2834 3397 
L 2834 2853 
Q 2591 2978 2328 3040 
Q 2066 3103 1784 3103 
Q 1356 3103 1142 2972 
Q 928 2841 928 2578 
Q 928 2378 1081 2264 
Q 1234 2150 1697 2047 
L 1894 2003 
Q 2506 1872 2764 1633 
Q 3022 1394 3022 966 
Q 3022 478 2636 193 
Q 2250 -91 1575 -91 
Q 1294 -91 989 -36 
Q 684 19 347 128 
L 347 722 
Q 666 556 975 473 
Q 1284 391 1588 391 
Q 1994 391 2212 530 
Q 2431 669 2431 922 
Q 2431 1156 2273 1281 
Q 2116 1406 1581 1522 
L 1381 1569 
Q 847 1681 609 1914 
Q 372 2147 372 2553 
Q 372 3047 722 3315 
Q 1072 3584 1716 3584 
Q 2034 3584 2315 3537 
Q 2597 3491 2834 3397 
z
" transform="scale(0.015625)"/>
       <path id="DejaVuSans-70" d="M 1159 525 
L 1159 -1331 
L 581 -1331 
L 581 3500 
L 1159 3500 
L 1159 2969 
Q 1341 3281 1617 3432 
Q 1894 3584 2278 3584 
Q 2916 3584 3314 3078 
Q 3713 2572 3713 1747 
Q 3713 922 3314 415 
Q 2916 -91 2278 -91 
Q 1894 -91 1617 61 
Q 1341 213 1159 525 
z
M 3116 1747 
Q 3116 2381 2855 2742 
Q 2594 3103 2138 3103 
Q 1681 3103 1420 2742 
Q 1159 2381 1159 1747 
Q 1159 1113 1420 752 
Q 1681 391 2138 391 
Q 2594 391 2855 752 
Q 3116 1113 3116 1747 
z
" transform="scale(0.015625)"/>
       <path id="DejaVuSans-20" transform="scale(0.015625)"/>
       <path id="DejaVuSans-72" d="M 2631 2963 
Q 2534 3019 2420 3045 
Q 2306 3072 2169 3072 
Q 1681 3072 1420 2755 
Q 1159 2438 1159 1844 
L 1159 0 
L 581 0 
L 581 3500 
L 1159 3500 
L 1159 2956 
Q 1341 3275 1631 3429 
Q 1922 3584 2338 3584 
Q 2397 3584 2469 3576 
Q 2541 3569 2628 3553 
L 2631 2963 
z
" transform="scale(0.015625)"/>
      </defs>
      <use xlink:href="#DejaVuSans-31"/>
      <use xlink:href="#DejaVuSans-2d" x="63.623047"/>
      <use xlink:href="#DejaVuSans-73" x="99.707031"/>
      <use xlink:href="#DejaVuSans-74" x="151.806641"/>
      <use xlink:href="#DejaVuSans-65" x="191.015625"/>
      <use xlink:href="#DejaVuSans-70" x="252.539062"/>
      <use xlink:href="#DejaVuSans-20" x="316.015625"/>
      <use xlink:href="#DejaVuSans-70" x="347.802734"/>
      <use xlink:href="#DejaVuSans-72" x="411.279297"/>
      <use xlink:href="#DejaVuSans-65" x="450.142578"/>
      <use xlink:href="#DejaVuSans-64" x="511.666016"/>
      <use xlink:href="#DejaVuSans-73" x="575.142578"/>
     </g>
    </g>
   </g>
  </g>
 </g>
 <defs>
  <clipPath id="p0ee89aa895">
   <rect x="52.160938" y="9.24346" width="334.8" height="166.32"/>
  </clipPath>
 </defs>
</svg>
