<?xml version="1.0" encoding="utf-8" standalone="no"?>
<!DOCTYPE svg PUBLIC "-//W3C//DTD SVG 1.1//EN"
  "http://www.w3.org/Graphics/SVG/1.1/DTD/svg11.dtd">
<svg xmlns:xlink="http://www.w3.org/1999/xlink" width="406.885938pt" height="211.07625pt" viewBox="0 0 406.885938 211.07625" xmlns="http://www.w3.org/2000/svg" version="1.1">
 <metadata>
  <rdf:RDF xmlns:dc="http://purl.org/dc/elements/1.1/" xmlns:cc="http://creativecommons.org/ns#" xmlns:rdf="http://www.w3.org/1999/02/22-rdf-syntax-ns#">
   <cc:Work>
    <dc:type rdf:resource="http://purl.org/dc/dcmitype/StillImage"/>
    <dc:date>2023-06-20T23:46:32.659972</dc:date>
    <dc:format>image/svg+xml</dc:format>
    <dc:creator>
     <cc:Agent>
      <dc:title>Matplotlib v3.5.1, https://matplotlib.org/</dc:title>
     </cc:Agent>
    </dc:creator>
   </cc:Work>
  </rdf:RDF>
 </metadata>
 <defs>
  <style type="text/css">*{stroke-linejoin: round; stroke-linecap: butt}</style>
 </defs>
 <g id="figure_1">
  <g id="patch_1">
   <path d="M 0 211.07625 
L 406.885938 211.07625 
L 406.885938 0 
L 0 0 
z
" style="fill: #ffffff"/>
  </g>
  <g id="axes_1">
   <g id="patch_2">
    <path d="M 52.160938 173.52 
L 386.960938 173.52 
L 386.960938 7.2 
L 52.160938 7.2 
z
" style="fill: #ffffff"/>
   </g>
   <g id="matplotlib.axis_1">
    <g id="xtick_1">
     <g id="line2d_1">
      <path d="M 118.852829 173.52 
L 118.852829 7.2 
" clip-path="url(#pa68f8ac605)" style="fill: none; stroke: #b0b0b0; stroke-width: 0.8; stroke-linecap: square"/>
     </g>
     <g id="line2d_2">
      <defs>
       <path id="m81a01748cd" d="M 0 0 
L 0 3.5 
" style="stroke: #000000; stroke-width: 0.8"/>
      </defs>
      <g>
       <use xlink:href="#m81a01748cd" x="118.852829" y="173.52" style="stroke: #000000; stroke-width: 0.8"/>
      </g>
     </g>
     <g id="text_1">
      <!-- 200 -->
      <g transform="translate(109.309079 188.118438)scale(0.1 -0.1)">
       <defs>
        <path id="DejaVuSans-32" d="M 1228 531 
L 3431 531 
L 3431 0 
L 469 0 
L 469 531 
Q 828 903 1448 1529 
Q 2069 2156 2228 2338 
Q 2531 2678 2651 2914 
Q 2772 3150 2772 3378 
Q 2772 3750 2511 3984 
Q 2250 4219 1831 4219 
Q 1534 4219 1204 4116 
Q 875 4013 500 3803 
L 500 4441 
Q 881 4594 1212 4672 
Q 1544 4750 1819 4750 
Q 2544 4750 2975 4387 
Q 3406 4025 3406 3419 
Q 3406 3131 3298 2873 
Q 3191 2616 2906 2266 
Q 2828 2175 2409 1742 
Q 1991 1309 1228 531 
z
" transform="scale(0.015625)"/>
        <path id="DejaVuSans-30" d="M 2034 4250 
Q 1547 4250 1301 3770 
Q 1056 3291 1056 2328 
Q 1056 1369 1301 889 
Q 1547 409 2034 409 
Q 2525 409 2770 889 
Q 3016 1369 3016 2328 
Q 3016 3291 2770 3770 
Q 2525 4250 2034 4250 
z
M 2034 4750 
Q 2819 4750 3233 4129 
Q 3647 3509 3647 2328 
Q 3647 1150 3233 529 
Q 2819 -91 2034 -91 
Q 1250 -91 836 529 
Q 422 1150 422 2328 
Q 422 3509 836 4129 
Q 1250 4750 2034 4750 
z
" transform="scale(0.015625)"/>
       </defs>
       <use xlink:href="#DejaVuSans-32"/>
       <use xlink:href="#DejaVuSans-30" x="63.623047"/>
       <use xlink:href="#DejaVuSans-30" x="127.246094"/>
      </g>
     </g>
    </g>
    <g id="xtick_2">
     <g id="line2d_3">
      <path d="M 185.879856 173.52 
L 185.879856 7.2 
" clip-path="url(#pa68f8ac605)" style="fill: none; stroke: #b0b0b0; stroke-width: 0.8; stroke-linecap: square"/>
     </g>
     <g id="line2d_4">
      <g>
       <use xlink:href="#m81a01748cd" x="185.879856" y="173.52" style="stroke: #000000; stroke-width: 0.8"/>
      </g>
     </g>
     <g id="text_2">
      <!-- 400 -->
      <g transform="translate(176.336106 188.118438)scale(0.1 -0.1)">
       <defs>
        <path id="DejaVuSans-34" d="M 2419 4116 
L 825 1625 
L 2419 1625 
L 2419 4116 
z
M 2253 4666 
L 3047 4666 
L 3047 1625 
L 3713 1625 
L 3713 1100 
L 3047 1100 
L 3047 0 
L 2419 0 
L 2419 1100 
L 313 1100 
L 313 1709 
L 2253 4666 
z
" transform="scale(0.015625)"/>
       </defs>
       <use xlink:href="#DejaVuSans-34"/>
       <use xlink:href="#DejaVuSans-30" x="63.623047"/>
       <use xlink:href="#DejaVuSans-30" x="127.246094"/>
      </g>
     </g>
    </g>
    <g id="xtick_3">
     <g id="line2d_5">
      <path d="M 252.906883 173.52 
L 252.906883 7.2 
" clip-path="url(#pa68f8ac605)" style="fill: none; stroke: #b0b0b0; stroke-width: 0.8; stroke-linecap: square"/>
     </g>
     <g id="line2d_6">
      <g>
       <use xlink:href="#m81a01748cd" x="252.906883" y="173.52" style="stroke: #000000; stroke-width: 0.8"/>
      </g>
     </g>
     <g id="text_3">
      <!-- 600 -->
      <g transform="translate(243.363133 188.118438)scale(0.1 -0.1)">
       <defs>
        <path id="DejaVuSans-36" d="M 2113 2584 
Q 1688 2584 1439 2293 
Q 1191 2003 1191 1497 
Q 1191 994 1439 701 
Q 1688 409 2113 409 
Q 2538 409 2786 701 
Q 3034 994 3034 1497 
Q 3034 2003 2786 2293 
Q 2538 2584 2113 2584 
z
M 3366 4563 
L 3366 3988 
Q 3128 4100 2886 4159 
Q 2644 4219 2406 4219 
Q 1781 4219 1451 3797 
Q 1122 3375 1075 2522 
Q 1259 2794 1537 2939 
Q 1816 3084 2150 3084 
Q 2853 3084 3261 2657 
Q 3669 2231 3669 1497 
Q 3669 778 3244 343 
Q 2819 -91 2113 -91 
Q 1303 -91 875 529 
Q 447 1150 447 2328 
Q 447 3434 972 4092 
Q 1497 4750 2381 4750 
Q 2619 4750 2861 4703 
Q 3103 4656 3366 4563 
z
" transform="scale(0.015625)"/>
       </defs>
       <use xlink:href="#DejaVuSans-36"/>
       <use xlink:href="#DejaVuSans-30" x="63.623047"/>
       <use xlink:href="#DejaVuSans-30" x="127.246094"/>
      </g>
     </g>
    </g>
    <g id="xtick_4">
     <g id="line2d_7">
      <path d="M 319.93391 173.52 
L 319.93391 7.2 
" clip-path="url(#pa68f8ac605)" style="fill: none; stroke: #b0b0b0; stroke-width: 0.8; stroke-linecap: square"/>
     </g>
     <g id="line2d_8">
      <g>
       <use xlink:href="#m81a01748cd" x="319.93391" y="173.52" style="stroke: #000000; stroke-width: 0.8"/>
      </g>
     </g>
     <g id="text_4">
      <!-- 800 -->
      <g transform="translate(310.39016 188.118438)scale(0.1 -0.1)">
       <defs>
        <path id="DejaVuSans-38" d="M 2034 2216 
Q 1584 2216 1326 1975 
Q 1069 1734 1069 1313 
Q 1069 891 1326 650 
Q 1584 409 2034 409 
Q 2484 409 2743 651 
Q 3003 894 3003 1313 
Q 3003 1734 2745 1975 
Q 2488 2216 2034 2216 
z
M 1403 2484 
Q 997 2584 770 2862 
Q 544 3141 544 3541 
Q 544 4100 942 4425 
Q 1341 4750 2034 4750 
Q 2731 4750 3128 4425 
Q 3525 4100 3525 3541 
Q 3525 3141 3298 2862 
Q 3072 2584 2669 2484 
Q 3125 2378 3379 2068 
Q 3634 1759 3634 1313 
Q 3634 634 3220 271 
Q 2806 -91 2034 -91 
Q 1263 -91 848 271 
Q 434 634 434 1313 
Q 434 1759 690 2068 
Q 947 2378 1403 2484 
z
M 1172 3481 
Q 1172 3119 1398 2916 
Q 1625 2713 2034 2713 
Q 2441 2713 2670 2916 
Q 2900 3119 2900 3481 
Q 2900 3844 2670 4047 
Q 2441 4250 2034 4250 
Q 1625 4250 1398 4047 
Q 1172 3844 1172 3481 
z
" transform="scale(0.015625)"/>
       </defs>
       <use xlink:href="#DejaVuSans-38"/>
       <use xlink:href="#DejaVuSans-30" x="63.623047"/>
       <use xlink:href="#DejaVuSans-30" x="127.246094"/>
      </g>
     </g>
    </g>
    <g id="xtick_5">
     <g id="line2d_9">
      <path d="M 386.960938 173.52 
L 386.960938 7.2 
" clip-path="url(#pa68f8ac605)" style="fill: none; stroke: #b0b0b0; stroke-width: 0.8; stroke-linecap: square"/>
     </g>
     <g id="line2d_10">
      <g>
       <use xlink:href="#m81a01748cd" x="386.960938" y="173.52" style="stroke: #000000; stroke-width: 0.8"/>
      </g>
     </g>
     <g id="text_5">
      <!-- 1000 -->
      <g transform="translate(374.235937 188.118438)scale(0.1 -0.1)">
       <defs>
        <path id="DejaVuSans-31" d="M 794 531 
L 1825 531 
L 1825 4091 
L 703 3866 
L 703 4441 
L 1819 4666 
L 2450 4666 
L 2450 531 
L 3481 531 
L 3481 0 
L 794 0 
L 794 531 
z
" transform="scale(0.015625)"/>
       </defs>
       <use xlink:href="#DejaVuSans-31"/>
       <use xlink:href="#DejaVuSans-30" x="63.623047"/>
       <use xlink:href="#DejaVuSans-30" x="127.246094"/>
       <use xlink:href="#DejaVuSans-30" x="190.869141"/>
      </g>
     </g>
    </g>
    <g id="text_6">
     <!-- time -->
     <g transform="translate(208.264844 201.796563)scale(0.1 -0.1)">
      <defs>
       <path id="DejaVuSans-74" d="M 1172 4494 
L 1172 3500 
L 2356 3500 
L 2356 3053 
L 1172 3053 
L 1172 1153 
Q 1172 725 1289 603 
Q 1406 481 1766 481 
L 2356 481 
L 2356 0 
L 1766 0 
Q 1100 0 847 248 
Q 594 497 594 1153 
L 594 3053 
L 172 3053 
L 172 3500 
L 594 3500 
L 594 4494 
L 1172 4494 
z
" transform="scale(0.015625)"/>
       <path id="DejaVuSans-69" d="M 603 3500 
L 1178 3500 
L 1178 0 
L 603 0 
L 603 3500 
z
M 603 4863 
L 1178 4863 
L 1178 4134 
L 603 4134 
L 603 4863 
z
" transform="scale(0.015625)"/>
       <path id="DejaVuSans-6d" d="M 3328 2828 
Q 3544 3216 3844 3400 
Q 4144 3584 4550 3584 
Q 5097 3584 5394 3201 
Q 5691 2819 5691 2113 
L 5691 0 
L 5113 0 
L 5113 2094 
Q 5113 2597 4934 2840 
Q 4756 3084 4391 3084 
Q 3944 3084 3684 2787 
Q 3425 2491 3425 1978 
L 3425 0 
L 2847 0 
L 2847 2094 
Q 2847 2600 2669 2842 
Q 2491 3084 2119 3084 
Q 1678 3084 1418 2786 
Q 1159 2488 1159 1978 
L 1159 0 
L 581 0 
L 581 3500 
L 1159 3500 
L 1159 2956 
Q 1356 3278 1631 3431 
Q 1906 3584 2284 3584 
Q 2666 3584 2933 3390 
Q 3200 3197 3328 2828 
z
" transform="scale(0.015625)"/>
       <path id="DejaVuSans-65" d="M 3597 1894 
L 3597 1613 
L 953 1613 
Q 991 1019 1311 708 
Q 1631 397 2203 397 
Q 2534 397 2845 478 
Q 3156 559 3463 722 
L 3463 178 
Q 3153 47 2828 -22 
Q 2503 -91 2169 -91 
Q 1331 -91 842 396 
Q 353 884 353 1716 
Q 353 2575 817 3079 
Q 1281 3584 2069 3584 
Q 2775 3584 3186 3129 
Q 3597 2675 3597 1894 
z
M 3022 2063 
Q 3016 2534 2758 2815 
Q 2500 3097 2075 3097 
Q 1594 3097 1305 2825 
Q 1016 2553 972 2059 
L 3022 2063 
z
" transform="scale(0.015625)"/>
      </defs>
      <use xlink:href="#DejaVuSans-74"/>
      <use xlink:href="#DejaVuSans-69" x="39.208984"/>
      <use xlink:href="#DejaVuSans-6d" x="66.992188"/>
      <use xlink:href="#DejaVuSans-65" x="164.404297"/>
     </g>
    </g>
   </g>
   <g id="matplotlib.axis_2">
    <g id="ytick_1">
     <g id="line2d_11">
      <path d="M 52.160938 167.248488 
L 386.960938 167.248488 
" clip-path="url(#pa68f8ac605)" style="fill: none; stroke: #b0b0b0; stroke-width: 0.8; stroke-linecap: square"/>
     </g>
     <g id="line2d_12">
      <defs>
       <path id="m4465831db5" d="M 0 0 
L -3.5 0 
" style="stroke: #000000; stroke-width: 0.8"/>
      </defs>
      <g>
       <use xlink:href="#m4465831db5" x="52.160938" y="167.248488" style="stroke: #000000; stroke-width: 0.8"/>
      </g>
     </g>
     <g id="text_7">
      <!-- −1.5 -->
      <g transform="translate(20.878125 171.047706)scale(0.1 -0.1)">
       <defs>
        <path id="DejaVuSans-2212" d="M 678 2272 
L 4684 2272 
L 4684 1741 
L 678 1741 
L 678 2272 
z
" transform="scale(0.015625)"/>
        <path id="DejaVuSans-2e" d="M 684 794 
L 1344 794 
L 1344 0 
L 684 0 
L 684 794 
z
" transform="scale(0.015625)"/>
        <path id="DejaVuSans-35" d="M 691 4666 
L 3169 4666 
L 3169 4134 
L 1269 4134 
L 1269 2991 
Q 1406 3038 1543 3061 
Q 1681 3084 1819 3084 
Q 2600 3084 3056 2656 
Q 3513 2228 3513 1497 
Q 3513 744 3044 326 
Q 2575 -91 1722 -91 
Q 1428 -91 1123 -41 
Q 819 9 494 109 
L 494 744 
Q 775 591 1075 516 
Q 1375 441 1709 441 
Q 2250 441 2565 725 
Q 2881 1009 2881 1497 
Q 2881 1984 2565 2268 
Q 2250 2553 1709 2553 
Q 1456 2553 1204 2497 
Q 953 2441 691 2322 
L 691 4666 
z
" transform="scale(0.015625)"/>
       </defs>
       <use xlink:href="#DejaVuSans-2212"/>
       <use xlink:href="#DejaVuSans-31" x="83.789062"/>
       <use xlink:href="#DejaVuSans-2e" x="147.412109"/>
       <use xlink:href="#DejaVuSans-35" x="179.199219"/>
      </g>
     </g>
    </g>
    <g id="ytick_2">
     <g id="line2d_13">
      <path d="M 52.160938 142.050992 
L 386.960938 142.050992 
" clip-path="url(#pa68f8ac605)" style="fill: none; stroke: #b0b0b0; stroke-width: 0.8; stroke-linecap: square"/>
     </g>
     <g id="line2d_14">
      <g>
       <use xlink:href="#m4465831db5" x="52.160938" y="142.050992" style="stroke: #000000; stroke-width: 0.8"/>
      </g>
     </g>
     <g id="text_8">
      <!-- −1.0 -->
      <g transform="translate(20.878125 145.85021)scale(0.1 -0.1)">
       <use xlink:href="#DejaVuSans-2212"/>
       <use xlink:href="#DejaVuSans-31" x="83.789062"/>
       <use xlink:href="#DejaVuSans-2e" x="147.412109"/>
       <use xlink:href="#DejaVuSans-30" x="179.199219"/>
      </g>
     </g>
    </g>
    <g id="ytick_3">
     <g id="line2d_15">
      <path d="M 52.160938 116.853496 
L 386.960938 116.853496 
" clip-path="url(#pa68f8ac605)" style="fill: none; stroke: #b0b0b0; stroke-width: 0.8; stroke-linecap: square"/>
     </g>
     <g id="line2d_16">
      <g>
       <use xlink:href="#m4465831db5" x="52.160938" y="116.853496" style="stroke: #000000; stroke-width: 0.8"/>
      </g>
     </g>
     <g id="text_9">
      <!-- −0.5 -->
      <g transform="translate(20.878125 120.652715)scale(0.1 -0.1)">
       <use xlink:href="#DejaVuSans-2212"/>
       <use xlink:href="#DejaVuSans-30" x="83.789062"/>
       <use xlink:href="#DejaVuSans-2e" x="147.412109"/>
       <use xlink:href="#DejaVuSans-35" x="179.199219"/>
      </g>
     </g>
    </g>
    <g id="ytick_4">
     <g id="line2d_17">
      <path d="M 52.160938 91.656 
L 386.960938 91.656 
" clip-path="url(#pa68f8ac605)" style="fill: none; stroke: #b0b0b0; stroke-width: 0.8; stroke-linecap: square"/>
     </g>
     <g id="line2d_18">
      <g>
       <use xlink:href="#m4465831db5" x="52.160938" y="91.656" style="stroke: #000000; stroke-width: 0.8"/>
      </g>
     </g>
     <g id="text_10">
      <!-- 0.0 -->
      <g transform="translate(29.257812 95.455219)scale(0.1 -0.1)">
       <use xlink:href="#DejaVuSans-30"/>
       <use xlink:href="#DejaVuSans-2e" x="63.623047"/>
       <use xlink:href="#DejaVuSans-30" x="95.410156"/>
      </g>
     </g>
    </g>
    <g id="ytick_5">
     <g id="line2d_19">
      <path d="M 52.160938 66.458504 
L 386.960938 66.458504 
" clip-path="url(#pa68f8ac605)" style="fill: none; stroke: #b0b0b0; stroke-width: 0.8; stroke-linecap: square"/>
     </g>
     <g id="line2d_20">
      <g>
       <use xlink:href="#m4465831db5" x="52.160938" y="66.458504" style="stroke: #000000; stroke-width: 0.8"/>
      </g>
     </g>
     <g id="text_11">
      <!-- 0.5 -->
      <g transform="translate(29.257812 70.257723)scale(0.1 -0.1)">
       <use xlink:href="#DejaVuSans-30"/>
       <use xlink:href="#DejaVuSans-2e" x="63.623047"/>
       <use xlink:href="#DejaVuSans-35" x="95.410156"/>
      </g>
     </g>
    </g>
    <g id="ytick_6">
     <g id="line2d_21">
      <path d="M 52.160938 41.261008 
L 386.960938 41.261008 
" clip-path="url(#pa68f8ac605)" style="fill: none; stroke: #b0b0b0; stroke-width: 0.8; stroke-linecap: square"/>
     </g>
     <g id="line2d_22">
      <g>
       <use xlink:href="#m4465831db5" x="52.160938" y="41.261008" style="stroke: #000000; stroke-width: 0.8"/>
      </g>
     </g>
     <g id="text_12">
      <!-- 1.0 -->
      <g transform="translate(29.257812 45.060227)scale(0.1 -0.1)">
       <use xlink:href="#DejaVuSans-31"/>
       <use xlink:href="#DejaVuSans-2e" x="63.623047"/>
       <use xlink:href="#DejaVuSans-30" x="95.410156"/>
      </g>
     </g>
    </g>
    <g id="ytick_7">
     <g id="line2d_23">
      <path d="M 52.160938 16.063512 
L 386.960938 16.063512 
" clip-path="url(#pa68f8ac605)" style="fill: none; stroke: #b0b0b0; stroke-width: 0.8; stroke-linecap: square"/>
     </g>
     <g id="line2d_24">
      <g>
       <use xlink:href="#m4465831db5" x="52.160938" y="16.063512" style="stroke: #000000; stroke-width: 0.8"/>
      </g>
     </g>
     <g id="text_13">
      <!-- 1.5 -->
      <g transform="translate(29.257812 19.862731)scale(0.1 -0.1)">
       <use xlink:href="#DejaVuSans-31"/>
       <use xlink:href="#DejaVuSans-2e" x="63.623047"/>
       <use xlink:href="#DejaVuSans-35" x="95.410156"/>
      </g>
     </g>
    </g>
    <g id="text_14">
     <!-- x -->
     <g transform="translate(14.798438 93.319375)rotate(-90)scale(0.1 -0.1)">
      <defs>
       <path id="DejaVuSans-78" d="M 3513 3500 
L 2247 1797 
L 3578 0 
L 2900 0 
L 1881 1375 
L 863 0 
L 184 0 
L 1544 1831 
L 300 3500 
L 978 3500 
L 1906 2253 
L 2834 3500 
L 3513 3500 
z
" transform="scale(0.015625)"/>
      </defs>
      <use xlink:href="#DejaVuSans-78"/>
     </g>
    </g>
   </g>
   <g id="line2d_25">
    <path d="M 52.160938 93.417406 
L 52.496073 96.177457 
L 52.831208 79.740951 
L 53.166343 79.597279 
L 53.501478 94.964272 
L 53.836613 80.047171 
L 54.171748 81.584384 
L 54.506883 86.101118 
L 54.842019 97.62739 
L 55.177154 82.765258 
L 55.512289 88.344505 
L 55.847424 85.918023 
L 56.182559 78.147258 
L 56.517694 65.158855 
L 56.852829 82.120158 
L 57.187965 84.947344 
L 57.5231 99.536691 
L 57.858235 73.650039 
L 58.19337 81.013809 
L 58.528505 74.341598 
L 58.86364 74.607758 
L 59.198775 101.263804 
L 59.53391 60.308313 
L 60.204181 90.953873 
L 60.539316 69.394091 
L 60.874451 79.308979 
L 61.209586 71.476075 
L 61.544721 82.180127 
L 61.879856 66.39146 
L 62.214992 69.385943 
L 62.550127 82.658019 
L 62.885262 75.264237 
L 63.220397 59.557828 
L 63.555532 85.872975 
L 63.890667 80.479144 
L 64.225802 81.051486 
L 64.560938 82.255753 
L 64.896073 71.324998 
L 65.231208 70.903434 
L 65.566343 72.088763 
L 65.901478 69.09642 
L 66.236613 55.532913 
L 66.571748 63.506682 
L 66.906883 59.268312 
L 67.242019 59.048337 
L 67.577154 55.215531 
L 67.912289 63.57755 
L 68.247424 50.770097 
L 68.582559 74.9401 
L 68.917694 49.780287 
L 69.252829 67.054348 
L 69.587965 65.989302 
L 69.9231 58.826532 
L 70.258235 61.67953 
L 70.59337 55.00162 
L 70.928505 65.704893 
L 71.26364 66.256173 
L 71.598775 72.327656 
L 71.93391 65.698621 
L 72.269046 49.022074 
L 72.604181 76.856102 
L 72.939316 59.385343 
L 73.274451 60.651007 
L 73.609586 53.31722 
L 73.944721 78.075857 
L 74.279856 74.080793 
L 74.614992 49.584416 
L 74.950127 58.299207 
L 75.285262 47.476928 
L 75.620397 47.55487 
L 75.955532 58.459888 
L 76.290667 58.4181 
L 76.625802 64.293245 
L 76.960938 23.473202 
L 77.296073 62.211322 
L 77.631208 66.224492 
L 77.966343 45.915725 
L 78.301478 52.366543 
L 78.636613 38.289001 
L 78.971748 63.10742 
L 79.306883 45.943432 
L 79.642019 59.256976 
L 80.312289 37.316811 
L 80.982559 51.06991 
L 81.317694 65.253894 
L 81.652829 56.095394 
L 82.3231 46.1862 
L 82.658235 47.610203 
L 83.328505 67.223528 
L 83.66364 46.068572 
L 83.998775 66.707356 
L 84.33391 54.909534 
L 84.669046 34.747123 
L 85.004181 54.540066 
L 85.339316 51.224559 
L 85.674451 45.577797 
L 86.009586 60.316243 
L 86.344721 41.361719 
L 86.679856 48.632769 
L 87.014992 61.803682 
L 87.350127 35.692098 
L 87.685262 60.30986 
L 88.020397 44.89403 
L 88.355532 46.73869 
L 88.690667 56.844629 
L 89.025802 47.290262 
L 89.360938 62.359918 
L 89.696073 28.998371 
L 90.031208 51.281102 
L 90.366343 45.475555 
L 90.701478 64.742321 
L 91.371748 35.210635 
L 91.706883 49.381686 
L 92.042019 45.987843 
L 92.377154 46.017472 
L 92.712289 50.922556 
L 93.047424 31.876168 
L 93.382559 48.551514 
L 93.717694 49.677789 
L 94.052829 21.011229 
L 94.387965 57.656718 
L 94.7231 39.557339 
L 95.058235 55.389023 
L 95.39337 29.121934 
L 95.728505 43.226421 
L 96.398775 54.033071 
L 96.73391 52.154309 
L 97.069046 27.134011 
L 97.404181 37.422063 
L 97.739316 34.812196 
L 98.074451 40.870505 
L 98.409586 43.300266 
L 98.744721 39.235046 
L 99.079856 39.490967 
L 99.414992 38.207953 
L 99.750127 40.270555 
L 100.085262 47.34399 
L 100.755532 24.560268 
L 101.425802 47.305695 
L 101.760938 39.560295 
L 102.096073 44.950516 
L 102.431208 45.298458 
L 102.766343 36.595574 
L 103.101478 20.638929 
L 103.436613 26.018475 
L 104.106883 60.738165 
L 104.442019 16.649411 
L 104.777154 53.013142 
L 105.112289 47.992046 
L 105.447424 21.2396 
L 105.782559 15.77673 
L 106.117694 51.002862 
L 106.452829 52.86961 
L 106.787965 60.99627 
L 107.1231 51.886864 
L 107.458235 27.132882 
L 107.79337 42.439242 
L 108.128505 41.335556 
L 108.46364 46.760858 
L 108.798775 30.377927 
L 109.13391 44.222968 
L 109.804181 60.73393 
L 110.139316 50.26202 
L 110.474451 57.539604 
L 110.809586 35.45975 
L 111.144721 33.227699 
L 111.479856 56.730783 
L 112.150127 40.838695 
L 112.485262 57.975139 
L 112.820397 33.52452 
L 113.155532 32.116266 
L 113.490667 34.079347 
L 113.825802 43.988229 
L 114.160938 44.548737 
L 114.496073 36.17367 
L 114.831208 50.170231 
L 115.166343 38.716678 
L 115.501478 50.82603 
L 115.836613 37.839305 
L 116.171748 59.302742 
L 116.506883 43.034416 
L 116.842019 48.65968 
L 117.177154 41.411624 
L 117.512289 37.92749 
L 117.847424 35.800721 
L 118.182559 55.136106 
L 118.517694 53.847999 
L 118.852829 31.860765 
L 119.187965 48.822028 
L 119.5231 47.114568 
L 119.858235 75.95829 
L 120.19337 28.877757 
L 120.528505 64.357946 
L 120.86364 49.819951 
L 121.198775 60.210489 
L 121.53391 53.405829 
L 122.204181 46.545806 
L 122.539316 44.857348 
L 122.874451 50.445668 
L 123.209586 46.06619 
L 123.544721 47.016335 
L 123.879856 36.723373 
L 124.214992 36.152547 
L 124.550127 65.004833 
L 124.885262 46.24077 
L 125.220397 50.538641 
L 125.555532 48.239257 
L 125.890667 30.945142 
L 126.225802 67.395388 
L 127.231208 39.188463 
L 127.566343 46.954425 
L 127.901478 43.27662 
L 128.236613 49.062763 
L 128.571748 46.353718 
L 128.906883 25.429657 
L 129.242019 48.863603 
L 129.577154 63.328306 
L 129.912289 48.530596 
L 130.247424 48.067423 
L 130.582559 55.064174 
L 130.917694 33.075287 
L 131.252829 67.076884 
L 131.587965 43.785568 
L 131.9231 59.619412 
L 132.258235 66.305264 
L 132.59337 62.820229 
L 132.928505 65.200078 
L 133.26364 41.690002 
L 133.598775 64.753168 
L 133.93391 54.982574 
L 134.269046 59.541881 
L 134.604181 58.465412 
L 134.939316 61.602937 
L 135.274451 66.305255 
L 135.609586 54.525771 
L 135.944721 75.222946 
L 136.279856 56.769261 
L 136.614992 76.011599 
L 136.950127 59.315697 
L 137.285262 69.313651 
L 137.620397 61.45015 
L 137.955532 75.160953 
L 138.290667 63.245768 
L 138.625802 69.80974 
L 138.960938 64.661147 
L 139.296073 63.960456 
L 139.631208 60.128813 
L 139.966343 68.647336 
L 140.301478 84.262076 
L 140.636613 56.356146 
L 141.306883 77.019941 
L 141.642019 80.443047 
L 141.977154 63.28072 
L 142.312289 59.564013 
L 142.647424 73.214749 
L 142.982559 79.71038 
L 143.317694 53.686919 
L 143.652829 64.460291 
L 143.987965 82.544746 
L 144.3231 58.256437 
L 144.658235 98.633452 
L 144.99337 68.643108 
L 145.66364 102.818773 
L 145.998775 63.471664 
L 146.33391 88.00685 
L 146.669046 59.536895 
L 147.339316 81.771172 
L 147.674451 66.965761 
L 148.009586 102.780136 
L 148.344721 80.105599 
L 148.679856 79.0574 
L 149.014992 87.377025 
L 149.350127 73.647221 
L 149.685262 86.538445 
L 150.020397 82.726893 
L 150.355532 87.220282 
L 150.690667 68.213281 
L 151.025802 77.657975 
L 151.360938 80.501196 
L 151.696073 94.075905 
L 152.031208 77.950084 
L 152.366343 96.793681 
L 152.701478 83.76109 
L 153.036613 95.339111 
L 153.371748 78.075342 
L 153.706883 71.580152 
L 154.042019 91.459403 
L 154.377154 84.66328 
L 155.047424 108.835301 
L 155.382559 89.829218 
L 155.717694 95.406887 
L 156.052829 104.051176 
L 156.387965 100.189064 
L 156.7231 113.412832 
L 157.058235 81.528337 
L 157.39337 68.804189 
L 157.728505 89.695577 
L 158.06364 97.542257 
L 158.398775 88.859262 
L 158.73391 98.490497 
L 159.069046 93.013246 
L 159.404181 103.40199 
L 159.739316 75.490764 
L 160.074451 79.648496 
L 160.409586 110.454653 
L 160.744721 103.365293 
L 161.414992 111.579195 
L 161.750127 92.622086 
L 162.085262 111.199792 
L 162.420397 103.489232 
L 162.755532 106.790616 
L 163.090667 84.399384 
L 163.425802 74.301263 
L 163.760938 104.329339 
L 164.096073 104.37623 
L 164.431208 83.021569 
L 164.766343 105.719317 
L 165.101478 99.53978 
L 165.771748 112.525447 
L 166.106883 86.687922 
L 166.442019 112.087279 
L 166.777154 99.941731 
L 167.112289 103.926079 
L 167.447424 103.118954 
L 167.782559 111.331139 
L 168.117694 110.510846 
L 168.452829 117.199297 
L 168.787965 108.228827 
L 169.1231 105.345656 
L 169.79337 102.426999 
L 170.128505 93.10903 
L 170.46364 114.229932 
L 170.798775 93.37931 
L 171.13391 85.460994 
L 171.469046 109.932378 
L 171.804181 103.016179 
L 172.474451 123.488124 
L 172.809586 110.945021 
L 173.144721 117.051901 
L 173.479856 117.821601 
L 173.814992 106.026807 
L 174.150127 112.609996 
L 174.485262 110.749888 
L 174.820397 117.760795 
L 175.155532 119.766861 
L 175.490667 128.066194 
L 175.825802 105.612768 
L 176.160938 133.193669 
L 176.496073 135.991187 
L 176.831208 121.00651 
L 177.166343 128.912597 
L 177.501478 109.082819 
L 177.836613 122.139967 
L 178.171748 120.886236 
L 178.506883 118.576582 
L 178.842019 126.801262 
L 179.177154 129.279422 
L 179.512289 116.43079 
L 179.847424 114.811229 
L 180.182559 129.744998 
L 180.517694 118.914693 
L 180.852829 120.869538 
L 181.187965 109.894942 
L 181.5231 148.525053 
L 181.858235 128.816218 
L 182.19337 122.319643 
L 182.528505 118.869444 
L 182.86364 127.448774 
L 183.198775 120.761837 
L 183.53391 130.240462 
L 183.869046 126.429514 
L 184.204181 135.669648 
L 184.539316 132.604992 
L 184.874451 131.698389 
L 185.209586 140.057632 
L 185.544721 142.184071 
L 186.550127 131.967939 
L 186.885262 118.822684 
L 187.220397 128.010807 
L 187.555532 129.281752 
L 187.890667 137.972024 
L 188.225802 117.886506 
L 188.560938 138.021099 
L 188.896073 149.355831 
L 189.231208 143.028961 
L 189.566343 151.455849 
L 189.901478 126.374707 
L 190.236613 129.476352 
L 190.571748 144.395529 
L 191.242019 130.330154 
L 191.577154 133.948767 
L 191.912289 141.164917 
L 192.247424 132.620665 
L 192.582559 155.902687 
L 192.917694 138.910616 
L 193.252829 133.81357 
L 193.587965 125.320869 
L 193.9231 130.731474 
L 194.258235 131.970453 
L 194.59337 129.575525 
L 194.928505 148.606047 
L 195.26364 117.135205 
L 195.598775 143.329387 
L 195.93391 153.877163 
L 196.269046 131.994183 
L 196.604181 143.907109 
L 196.939316 118.971314 
L 197.274451 115.270041 
L 197.609586 147.084424 
L 197.944721 128.204866 
L 198.279856 144.669095 
L 198.614992 130.632764 
L 198.950127 147.514841 
L 199.285262 145.804972 
L 199.620397 147.271115 
L 199.955532 136.082165 
L 200.625802 156.224139 
L 200.960938 131.058714 
L 201.296073 120.58451 
L 202.301478 142.666033 
L 202.636613 153.570225 
L 202.971748 135.19974 
L 203.306883 144.39354 
L 203.642019 138.848255 
L 203.977154 154.919298 
L 204.312289 145.455291 
L 204.647424 145.190135 
L 204.982559 133.927151 
L 205.317694 133.353007 
L 205.652829 148.220645 
L 205.987965 150.998921 
L 206.3231 137.599342 
L 206.658235 131.469808 
L 206.99337 136.954846 
L 207.328505 149.235747 
L 207.66364 146.703678 
L 207.998775 133.739677 
L 208.33391 146.833333 
L 208.669046 130.271572 
L 209.004181 165.96 
L 209.339316 158.54548 
L 209.674451 162.540634 
L 210.009586 141.199175 
L 210.344721 137.013155 
L 210.679856 152.574888 
L 211.014992 138.746307 
L 211.350127 144.66072 
L 211.685262 129.018631 
L 212.020397 156.315045 
L 212.355532 147.143653 
L 212.690667 157.319171 
L 213.025802 141.126748 
L 213.360938 137.413802 
L 213.696073 145.231527 
L 214.031208 139.081817 
L 214.366343 127.58002 
L 214.701478 141.066991 
L 215.371748 137.506811 
L 215.706883 136.209973 
L 216.042019 152.884715 
L 216.377154 148.181133 
L 216.712289 119.364304 
L 217.382559 158.003017 
L 217.717694 156.939362 
L 218.052829 148.082777 
L 218.387965 128.033104 
L 218.7231 132.780872 
L 219.058235 139.766341 
L 219.39337 155.845242 
L 219.728505 127.30829 
L 220.06364 137.320988 
L 220.398775 141.744246 
L 220.73391 125.565737 
L 221.069046 143.399032 
L 221.404181 146.371887 
L 221.739316 132.713001 
L 222.074451 130.81299 
L 222.409586 147.607123 
L 222.744721 137.011741 
L 223.079856 139.176123 
L 223.414992 142.856586 
L 223.750127 143.891928 
L 224.085262 127.955538 
L 224.420397 121.867593 
L 224.755532 130.988873 
L 225.090667 126.149367 
L 225.425802 126.162464 
L 225.760938 135.605427 
L 226.096073 140.596705 
L 226.431208 137.651806 
L 226.766343 149.034283 
L 227.101478 144.619352 
L 227.436613 134.977184 
L 227.771748 133.320779 
L 228.106883 133.978366 
L 228.442019 125.233798 
L 228.777154 130.413052 
L 229.112289 129.903624 
L 229.447424 139.250701 
L 229.782559 131.609964 
L 230.117694 141.479127 
L 230.787965 132.289039 
L 231.1231 122.556497 
L 231.458235 134.797234 
L 231.79337 131.616158 
L 232.128505 132.136763 
L 232.798775 115.911232 
L 233.13391 139.391034 
L 233.469046 121.967574 
L 233.804181 147.877379 
L 234.139316 120.644333 
L 234.474451 125.482805 
L 234.809586 134.386041 
L 235.144721 137.851401 
L 235.479856 150.566065 
L 235.814992 109.435031 
L 236.485262 142.489255 
L 236.820397 127.442712 
L 237.155532 131.396609 
L 237.490667 125.314243 
L 237.825802 138.667845 
L 238.160938 118.253084 
L 238.496073 123.213552 
L 238.831208 118.021892 
L 239.166343 127.987128 
L 239.501478 125.966347 
L 239.836613 116.557726 
L 240.171748 117.022488 
L 240.506883 131.942419 
L 240.842019 116.69848 
L 241.177154 108.950025 
L 241.512289 97.22924 
L 241.847424 128.63859 
L 242.182559 120.733314 
L 242.517694 139.082703 
L 242.852829 125.495187 
L 243.187965 116.996944 
L 243.5231 129.775777 
L 243.858235 112.835811 
L 244.19337 121.710039 
L 244.528505 126.140356 
L 244.86364 105.179298 
L 245.198775 108.912802 
L 245.53391 131.859959 
L 245.869046 123.150584 
L 246.204181 101.551123 
L 246.539316 106.909794 
L 246.874451 109.849971 
L 247.209586 104.513872 
L 247.544721 114.065322 
L 247.879856 103.774454 
L 248.214992 108.333566 
L 248.550127 102.175248 
L 248.885262 110.537163 
L 249.220397 112.574032 
L 249.555532 109.748314 
L 249.890667 111.972149 
L 250.225802 109.973869 
L 250.560938 115.466753 
L 250.896073 115.345781 
L 251.231208 118.992638 
L 251.566343 84.337905 
L 251.901478 106.711607 
L 252.236613 120.467729 
L 252.571748 122.734402 
L 252.906883 121.654448 
L 253.242019 105.726099 
L 253.577154 105.217572 
L 253.912289 114.364263 
L 254.247424 93.225095 
L 254.582559 110.762612 
L 254.917694 110.398677 
L 255.252829 95.667249 
L 255.587965 100.858516 
L 255.9231 92.623188 
L 256.258235 101.025217 
L 256.59337 81.425906 
L 256.928505 119.216377 
L 257.26364 91.165188 
L 257.598775 104.811328 
L 257.93391 90.682315 
L 258.269046 103.478219 
L 258.604181 88.164689 
L 258.939316 90.443349 
L 259.274451 93.583856 
L 259.609586 107.434842 
L 259.944721 96.006261 
L 260.279856 105.699959 
L 260.614992 97.013215 
L 260.950127 102.127048 
L 261.620397 81.091401 
L 261.955532 106.314647 
L 262.290667 89.481329 
L 262.625802 86.300218 
L 263.296073 93.668464 
L 263.631208 88.882959 
L 263.966343 92.921981 
L 264.301478 69.800868 
L 264.636613 76.346628 
L 264.971748 89.524231 
L 265.306883 89.841028 
L 265.642019 88.433182 
L 265.977154 82.497948 
L 266.312289 97.465659 
L 266.647424 80.032925 
L 266.982559 87.881844 
L 267.317694 86.225786 
L 267.652829 88.033901 
L 268.3231 74.664107 
L 268.658235 82.050129 
L 268.99337 70.133376 
L 269.328505 91.862952 
L 270.669046 69.079394 
L 271.004181 92.84717 
L 271.339316 88.246639 
L 271.674451 74.550691 
L 272.009586 81.938287 
L 272.344721 103.646881 
L 272.679856 58.844846 
L 273.014992 85.379347 
L 273.350127 79.314034 
L 273.685262 79.055354 
L 274.020397 72.873256 
L 274.355532 82.493107 
L 274.690667 75.029599 
L 275.025802 78.278792 
L 275.360937 65.751226 
L 275.696073 68.831421 
L 276.031208 67.459828 
L 276.366343 56.262939 
L 276.701478 72.759758 
L 277.036613 69.190351 
L 277.371748 70.30893 
L 277.706883 72.372039 
L 278.042019 62.134954 
L 278.377154 84.873071 
L 278.712289 76.705143 
L 279.047424 80.396915 
L 279.382559 64.298934 
L 279.717694 57.829753 
L 280.052829 66.003162 
L 280.387965 58.122069 
L 280.7231 75.982018 
L 281.058235 87.422441 
L 281.39337 55.529831 
L 282.06364 63.055404 
L 282.398775 61.199001 
L 282.73391 63.35303 
L 283.069046 46.645456 
L 283.404181 74.139257 
L 283.739316 58.632242 
L 284.074451 65.753611 
L 284.409586 50.032916 
L 284.744721 64.497237 
L 285.414992 46.064832 
L 285.750127 47.210046 
L 286.085262 42.179037 
L 286.420397 54.184753 
L 286.755532 72.696925 
L 287.090667 50.856996 
L 287.425802 59.053203 
L 287.760938 63.519487 
L 288.096073 52.625183 
L 288.431208 61.018555 
L 288.766343 56.044156 
L 289.101478 36.721637 
L 290.106883 64.204059 
L 290.442019 42.332305 
L 290.777154 47.375043 
L 291.112289 38.756136 
L 291.447424 62.926797 
L 291.782559 68.815418 
L 292.117694 77.510486 
L 292.452829 40.204532 
L 292.787965 39.278793 
L 293.1231 46.645889 
L 293.458235 46.9023 
L 293.79337 69.088048 
L 294.128505 39.35462 
L 294.46364 37.558242 
L 294.798775 57.678501 
L 295.13391 53.655172 
L 295.469046 31.063238 
L 295.804181 22.948827 
L 296.139316 54.713159 
L 296.474451 54.56118 
L 296.809586 37.994396 
L 297.144721 40.354859 
L 297.479856 52.212663 
L 298.150127 61.417484 
L 298.485262 49.488491 
L 298.820397 42.738562 
L 299.155532 63.197566 
L 299.490667 41.916261 
L 300.160938 38.636453 
L 300.496073 36.094568 
L 300.831208 39.045315 
L 301.166343 49.75449 
L 301.501478 42.333389 
L 301.836613 45.827393 
L 302.171748 41.422515 
L 302.506883 27.754862 
L 302.842019 57.651422 
L 303.177154 49.964956 
L 303.512289 56.333624 
L 303.847424 51.512558 
L 304.182559 49.001561 
L 304.852829 28.198754 
L 305.187965 26.512362 
L 305.858235 39.069478 
L 306.19337 52.552276 
L 306.528505 40.572525 
L 306.86364 42.25071 
L 307.198775 52.346202 
L 307.53391 36.413479 
L 307.869046 34.021801 
L 308.204181 38.959954 
L 308.539316 14.76 
L 308.874451 48.071219 
L 309.209586 46.208686 
L 309.544721 42.527496 
L 309.879856 35.204213 
L 310.214992 38.889173 
L 310.550127 30.737172 
L 310.885262 39.003587 
L 311.220397 36.554404 
L 311.555532 38.644642 
L 311.890667 30.520582 
L 312.225802 38.36147 
L 312.560938 51.884708 
L 312.896073 53.417273 
L 313.231208 44.385671 
L 313.566343 44.952757 
L 313.901478 35.493026 
L 314.236613 35.015216 
L 314.571748 26.79676 
L 314.906883 57.003003 
L 315.242019 42.574661 
L 315.577154 61.3426 
L 315.912289 33.111543 
L 316.247424 50.490764 
L 316.582559 38.367694 
L 316.917694 41.385797 
L 317.252829 45.884444 
L 317.587965 37.802107 
L 317.9231 36.117037 
L 318.258235 51.701003 
L 318.59337 31.177568 
L 318.928505 37.142081 
L 319.26364 45.709468 
L 319.598775 29.384981 
L 319.93391 46.998733 
L 320.269046 50.419874 
L 320.604181 48.454189 
L 320.939316 43.197816 
L 321.274451 46.232377 
L 321.609586 47.70195 
L 321.944721 40.603752 
L 322.279856 41.913308 
L 322.614992 35.188888 
L 322.950127 41.626093 
L 323.285262 27.624492 
L 323.955532 44.745094 
L 324.290667 39.86999 
L 324.625802 38.260249 
L 324.960938 39.905561 
L 325.296073 59.248301 
L 325.631208 43.453819 
L 325.966343 51.536822 
L 326.301478 65.497747 
L 326.636613 40.881884 
L 326.971748 48.376382 
L 327.306883 35.571233 
L 327.642019 48.021675 
L 327.977154 39.419009 
L 328.312289 46.034705 
L 328.647424 33.209844 
L 328.982559 65.297148 
L 329.317694 40.068065 
L 329.652829 44.620085 
L 329.987965 47.421911 
L 330.3231 31.528012 
L 330.658235 53.89019 
L 330.99337 54.213718 
L 331.328505 60.415995 
L 331.66364 50.204182 
L 331.998775 47.306999 
L 332.33391 32.815413 
L 332.669046 55.090382 
L 333.004181 57.122151 
L 333.339316 52.507039 
L 333.674451 42.28018 
L 334.009586 40.919942 
L 334.344721 42.703469 
L 334.679856 37.021335 
L 335.014992 55.081257 
L 335.350127 46.226586 
L 335.685262 62.432517 
L 336.020397 48.888057 
L 336.355532 56.36039 
L 337.025802 45.634334 
L 337.360937 54.38557 
L 337.696073 46.206109 
L 338.031208 53.290412 
L 338.366343 53.70487 
L 338.701478 48.517085 
L 339.036613 64.832774 
L 339.371748 53.267817 
L 339.706883 53.171084 
L 340.042019 63.983156 
L 340.377154 44.307287 
L 340.712289 64.567943 
L 341.047424 42.791576 
L 341.382559 60.363714 
L 341.717694 42.061884 
L 342.052829 51.987353 
L 342.387965 58.500151 
L 342.7231 58.377369 
L 343.39337 76.424311 
L 343.728505 47.293097 
L 344.06364 58.084098 
L 344.398775 57.038535 
L 344.73391 78.162812 
L 345.069046 58.170114 
L 345.404181 52.840653 
L 345.739316 61.510135 
L 346.074451 61.411242 
L 346.409586 59.385 
L 346.744721 63.765409 
L 347.079856 65.650702 
L 347.414992 70.445932 
L 347.750127 66.155201 
L 348.085262 73.169221 
L 348.420397 65.428918 
L 348.755532 74.031806 
L 349.090667 62.481202 
L 349.425802 71.536091 
L 349.760938 69.873037 
L 350.766343 43.254055 
L 351.101478 65.792822 
L 351.436613 69.867913 
L 351.771748 57.727928 
L 352.106883 61.561743 
L 352.442019 72.845422 
L 352.777154 65.11111 
L 353.112289 50.810864 
L 353.447424 74.232002 
L 353.782559 69.669009 
L 354.117694 86.475489 
L 354.452829 57.274382 
L 354.787965 82.076231 
L 355.1231 83.308461 
L 355.458235 62.164177 
L 355.79337 80.257275 
L 356.128505 69.841775 
L 356.46364 85.561339 
L 356.798775 72.370738 
L 357.13391 71.237188 
L 357.469046 79.940961 
L 357.804181 68.412358 
L 358.139316 84.506536 
L 358.474451 75.802133 
L 358.809586 77.153241 
L 359.144721 76.19045 
L 360.150127 90.205098 
L 360.485262 83.17588 
L 360.820397 93.022223 
L 361.155532 79.345188 
L 361.490667 94.256901 
L 361.825802 83.563668 
L 362.160938 83.22602 
L 362.831208 96.602983 
L 363.166343 83.508422 
L 363.501478 78.569754 
L 363.836613 106.847676 
L 364.171748 81.07264 
L 364.506883 95.274525 
L 364.842019 104.086373 
L 365.177154 84.831274 
L 365.512289 108.865303 
L 365.847424 88.15974 
L 366.182559 92.472251 
L 366.517694 82.795026 
L 366.852829 105.983269 
L 367.187965 91.726432 
L 367.858235 84.726972 
L 368.19337 84.426165 
L 368.528505 88.593585 
L 368.86364 98.124877 
L 369.198775 84.974544 
L 369.53391 94.319809 
L 369.869046 107.563989 
L 370.204181 93.684925 
L 370.539316 105.222706 
L 370.874451 94.945403 
L 371.209586 100.909339 
L 371.879856 86.248438 
L 372.214992 100.79001 
L 372.550127 92.418388 
L 372.885262 112.45784 
L 373.220397 91.431587 
L 373.555532 95.024995 
L 373.890667 113.137059 
L 374.560938 90.176285 
L 374.896073 114.655576 
L 375.231208 111.959081 
L 375.566343 96.662559 
L 375.901478 97.718109 
L 376.236613 113.334179 
L 376.571748 85.455835 
L 376.906883 110.368908 
L 377.242019 103.403404 
L 377.577154 114.754665 
L 377.912289 95.56164 
L 378.247424 116.230062 
L 378.582559 106.935335 
L 378.917694 123.675329 
L 379.587965 101.364867 
L 379.9231 112.728612 
L 380.258235 87.013249 
L 380.928505 117.907178 
L 381.26364 113.442506 
L 381.598775 115.607684 
L 381.93391 109.669235 
L 382.269046 114.268526 
L 382.604181 115.980103 
L 382.939316 123.522659 
L 383.274451 113.020414 
L 383.609586 110.574487 
L 383.944721 103.876244 
L 384.279856 117.976713 
L 384.614992 118.7268 
L 384.950127 87.638446 
L 385.285262 91.328751 
L 385.620397 102.928546 
L 385.955532 126.023491 
L 386.290667 83.003802 
L 386.625802 108.320214 
L 386.960938 112.595419 
L 386.960938 112.595419 
" clip-path="url(#pa68f8ac605)" style="fill: none; stroke: #1f77b4; stroke-width: 1.5; stroke-linecap: square"/>
   </g>
   <g id="patch_3">
    <path d="M 52.160938 173.52 
L 52.160938 7.2 
" style="fill: none; stroke: #000000; stroke-width: 0.8; stroke-linejoin: miter; stroke-linecap: square"/>
   </g>
   <g id="patch_4">
    <path d="M 386.960938 173.52 
L 386.960938 7.2 
" style="fill: none; stroke: #000000; stroke-width: 0.8; stroke-linejoin: miter; stroke-linecap: square"/>
   </g>
   <g id="patch_5">
    <path d="M 52.160938 173.52 
L 386.960938 173.52 
" style="fill: none; stroke: #000000; stroke-width: 0.8; stroke-linejoin: miter; stroke-linecap: square"/>
   </g>
   <g id="patch_6">
    <path d="M 52.160938 7.2 
L 386.960938 7.2 
" style="fill: none; stroke: #000000; stroke-width: 0.8; stroke-linejoin: miter; stroke-linecap: square"/>
   </g>
  </g>
 </g>
 <defs>
  <clipPath id="pa68f8ac605">
   <rect x="52.160938" y="7.2" width="334.8" height="166.32"/>
  </clipPath>
 </defs>
</svg>
