<?xml version="1.0" encoding="utf-8" standalone="no"?>
<!DOCTYPE svg PUBLIC "-//W3C//DTD SVG 1.1//EN"
  "http://www.w3.org/Graphics/SVG/1.1/DTD/svg11.dtd">
<svg xmlns:xlink="http://www.w3.org/1999/xlink" width="406.885938pt" height="211.07625pt" viewBox="0 0 406.885938 211.07625" xmlns="http://www.w3.org/2000/svg" version="1.1">
 <metadata>
  <rdf:RDF xmlns:dc="http://purl.org/dc/elements/1.1/" xmlns:cc="http://creativecommons.org/ns#" xmlns:rdf="http://www.w3.org/1999/02/22-rdf-syntax-ns#">
   <cc:Work>
    <dc:type rdf:resource="http://purl.org/dc/dcmitype/StillImage"/>
    <dc:date>2023-06-20T23:28:58.280965</dc:date>
    <dc:format>image/svg+xml</dc:format>
    <dc:creator>
     <cc:Agent>
      <dc:title>Matplotlib v3.5.1, https://matplotlib.org/</dc:title>
     </cc:Agent>
    </dc:creator>
   </cc:Work>
  </rdf:RDF>
 </metadata>
 <defs>
  <style type="text/css">*{stroke-linejoin: round; stroke-linecap: butt}</style>
 </defs>
 <g id="figure_1">
  <g id="patch_1">
   <path d="M 0 211.07625 
L 406.885938 211.07625 
L 406.885938 0 
L 0 0 
z
" style="fill: #ffffff"/>
  </g>
  <g id="axes_1">
   <g id="patch_2">
    <path d="M 52.160938 173.52 
L 386.960938 173.52 
L 386.960938 7.2 
L 52.160938 7.2 
z
" style="fill: #ffffff"/>
   </g>
   <g id="matplotlib.axis_1">
    <g id="xtick_1">
     <g id="line2d_1">
      <path d="M 118.852829 173.52 
L 118.852829 7.2 
" clip-path="url(#p72b1581489)" style="fill: none; stroke: #b0b0b0; stroke-width: 0.8; stroke-linecap: square"/>
     </g>
     <g id="line2d_2">
      <defs>
       <path id="mdfe6da4776" d="M 0 0 
L 0 3.5 
" style="stroke: #000000; stroke-width: 0.8"/>
      </defs>
      <g>
       <use xlink:href="#mdfe6da4776" x="118.852829" y="173.52" style="stroke: #000000; stroke-width: 0.8"/>
      </g>
     </g>
     <g id="text_1">
      <!-- 200 -->
      <g transform="translate(109.309079 188.118438)scale(0.1 -0.1)">
       <defs>
        <path id="DejaVuSans-32" d="M 1228 531 
L 3431 531 
L 3431 0 
L 469 0 
L 469 531 
Q 828 903 1448 1529 
Q 2069 2156 2228 2338 
Q 2531 2678 2651 2914 
Q 2772 3150 2772 3378 
Q 2772 3750 2511 3984 
Q 2250 4219 1831 4219 
Q 1534 4219 1204 4116 
Q 875 4013 500 3803 
L 500 4441 
Q 881 4594 1212 4672 
Q 1544 4750 1819 4750 
Q 2544 4750 2975 4387 
Q 3406 4025 3406 3419 
Q 3406 3131 3298 2873 
Q 3191 2616 2906 2266 
Q 2828 2175 2409 1742 
Q 1991 1309 1228 531 
z
" transform="scale(0.015625)"/>
        <path id="DejaVuSans-30" d="M 2034 4250 
Q 1547 4250 1301 3770 
Q 1056 3291 1056 2328 
Q 1056 1369 1301 889 
Q 1547 409 2034 409 
Q 2525 409 2770 889 
Q 3016 1369 3016 2328 
Q 3016 3291 2770 3770 
Q 2525 4250 2034 4250 
z
M 2034 4750 
Q 2819 4750 3233 4129 
Q 3647 3509 3647 2328 
Q 3647 1150 3233 529 
Q 2819 -91 2034 -91 
Q 1250 -91 836 529 
Q 422 1150 422 2328 
Q 422 3509 836 4129 
Q 1250 4750 2034 4750 
z
" transform="scale(0.015625)"/>
       </defs>
       <use xlink:href="#DejaVuSans-32"/>
       <use xlink:href="#DejaVuSans-30" x="63.623047"/>
       <use xlink:href="#DejaVuSans-30" x="127.246094"/>
      </g>
     </g>
    </g>
    <g id="xtick_2">
     <g id="line2d_3">
      <path d="M 185.879856 173.52 
L 185.879856 7.2 
" clip-path="url(#p72b1581489)" style="fill: none; stroke: #b0b0b0; stroke-width: 0.8; stroke-linecap: square"/>
     </g>
     <g id="line2d_4">
      <g>
       <use xlink:href="#mdfe6da4776" x="185.879856" y="173.52" style="stroke: #000000; stroke-width: 0.8"/>
      </g>
     </g>
     <g id="text_2">
      <!-- 400 -->
      <g transform="translate(176.336106 188.118438)scale(0.1 -0.1)">
       <defs>
        <path id="DejaVuSans-34" d="M 2419 4116 
L 825 1625 
L 2419 1625 
L 2419 4116 
z
M 2253 4666 
L 3047 4666 
L 3047 1625 
L 3713 1625 
L 3713 1100 
L 3047 1100 
L 3047 0 
L 2419 0 
L 2419 1100 
L 313 1100 
L 313 1709 
L 2253 4666 
z
" transform="scale(0.015625)"/>
       </defs>
       <use xlink:href="#DejaVuSans-34"/>
       <use xlink:href="#DejaVuSans-30" x="63.623047"/>
       <use xlink:href="#DejaVuSans-30" x="127.246094"/>
      </g>
     </g>
    </g>
    <g id="xtick_3">
     <g id="line2d_5">
      <path d="M 252.906883 173.52 
L 252.906883 7.2 
" clip-path="url(#p72b1581489)" style="fill: none; stroke: #b0b0b0; stroke-width: 0.8; stroke-linecap: square"/>
     </g>
     <g id="line2d_6">
      <g>
       <use xlink:href="#mdfe6da4776" x="252.906883" y="173.52" style="stroke: #000000; stroke-width: 0.8"/>
      </g>
     </g>
     <g id="text_3">
      <!-- 600 -->
      <g transform="translate(243.363133 188.118438)scale(0.1 -0.1)">
       <defs>
        <path id="DejaVuSans-36" d="M 2113 2584 
Q 1688 2584 1439 2293 
Q 1191 2003 1191 1497 
Q 1191 994 1439 701 
Q 1688 409 2113 409 
Q 2538 409 2786 701 
Q 3034 994 3034 1497 
Q 3034 2003 2786 2293 
Q 2538 2584 2113 2584 
z
M 3366 4563 
L 3366 3988 
Q 3128 4100 2886 4159 
Q 2644 4219 2406 4219 
Q 1781 4219 1451 3797 
Q 1122 3375 1075 2522 
Q 1259 2794 1537 2939 
Q 1816 3084 2150 3084 
Q 2853 3084 3261 2657 
Q 3669 2231 3669 1497 
Q 3669 778 3244 343 
Q 2819 -91 2113 -91 
Q 1303 -91 875 529 
Q 447 1150 447 2328 
Q 447 3434 972 4092 
Q 1497 4750 2381 4750 
Q 2619 4750 2861 4703 
Q 3103 4656 3366 4563 
z
" transform="scale(0.015625)"/>
       </defs>
       <use xlink:href="#DejaVuSans-36"/>
       <use xlink:href="#DejaVuSans-30" x="63.623047"/>
       <use xlink:href="#DejaVuSans-30" x="127.246094"/>
      </g>
     </g>
    </g>
    <g id="xtick_4">
     <g id="line2d_7">
      <path d="M 319.93391 173.52 
L 319.93391 7.2 
" clip-path="url(#p72b1581489)" style="fill: none; stroke: #b0b0b0; stroke-width: 0.8; stroke-linecap: square"/>
     </g>
     <g id="line2d_8">
      <g>
       <use xlink:href="#mdfe6da4776" x="319.93391" y="173.52" style="stroke: #000000; stroke-width: 0.8"/>
      </g>
     </g>
     <g id="text_4">
      <!-- 800 -->
      <g transform="translate(310.39016 188.118438)scale(0.1 -0.1)">
       <defs>
        <path id="DejaVuSans-38" d="M 2034 2216 
Q 1584 2216 1326 1975 
Q 1069 1734 1069 1313 
Q 1069 891 1326 650 
Q 1584 409 2034 409 
Q 2484 409 2743 651 
Q 3003 894 3003 1313 
Q 3003 1734 2745 1975 
Q 2488 2216 2034 2216 
z
M 1403 2484 
Q 997 2584 770 2862 
Q 544 3141 544 3541 
Q 544 4100 942 4425 
Q 1341 4750 2034 4750 
Q 2731 4750 3128 4425 
Q 3525 4100 3525 3541 
Q 3525 3141 3298 2862 
Q 3072 2584 2669 2484 
Q 3125 2378 3379 2068 
Q 3634 1759 3634 1313 
Q 3634 634 3220 271 
Q 2806 -91 2034 -91 
Q 1263 -91 848 271 
Q 434 634 434 1313 
Q 434 1759 690 2068 
Q 947 2378 1403 2484 
z
M 1172 3481 
Q 1172 3119 1398 2916 
Q 1625 2713 2034 2713 
Q 2441 2713 2670 2916 
Q 2900 3119 2900 3481 
Q 2900 3844 2670 4047 
Q 2441 4250 2034 4250 
Q 1625 4250 1398 4047 
Q 1172 3844 1172 3481 
z
" transform="scale(0.015625)"/>
       </defs>
       <use xlink:href="#DejaVuSans-38"/>
       <use xlink:href="#DejaVuSans-30" x="63.623047"/>
       <use xlink:href="#DejaVuSans-30" x="127.246094"/>
      </g>
     </g>
    </g>
    <g id="xtick_5">
     <g id="line2d_9">
      <path d="M 386.960938 173.52 
L 386.960938 7.2 
" clip-path="url(#p72b1581489)" style="fill: none; stroke: #b0b0b0; stroke-width: 0.8; stroke-linecap: square"/>
     </g>
     <g id="line2d_10">
      <g>
       <use xlink:href="#mdfe6da4776" x="386.960938" y="173.52" style="stroke: #000000; stroke-width: 0.8"/>
      </g>
     </g>
     <g id="text_5">
      <!-- 1000 -->
      <g transform="translate(374.235937 188.118438)scale(0.1 -0.1)">
       <defs>
        <path id="DejaVuSans-31" d="M 794 531 
L 1825 531 
L 1825 4091 
L 703 3866 
L 703 4441 
L 1819 4666 
L 2450 4666 
L 2450 531 
L 3481 531 
L 3481 0 
L 794 0 
L 794 531 
z
" transform="scale(0.015625)"/>
       </defs>
       <use xlink:href="#DejaVuSans-31"/>
       <use xlink:href="#DejaVuSans-30" x="63.623047"/>
       <use xlink:href="#DejaVuSans-30" x="127.246094"/>
       <use xlink:href="#DejaVuSans-30" x="190.869141"/>
      </g>
     </g>
    </g>
    <g id="text_6">
     <!-- time -->
     <g transform="translate(208.264844 201.796563)scale(0.1 -0.1)">
      <defs>
       <path id="DejaVuSans-74" d="M 1172 4494 
L 1172 3500 
L 2356 3500 
L 2356 3053 
L 1172 3053 
L 1172 1153 
Q 1172 725 1289 603 
Q 1406 481 1766 481 
L 2356 481 
L 2356 0 
L 1766 0 
Q 1100 0 847 248 
Q 594 497 594 1153 
L 594 3053 
L 172 3053 
L 172 3500 
L 594 3500 
L 594 4494 
L 1172 4494 
z
" transform="scale(0.015625)"/>
       <path id="DejaVuSans-69" d="M 603 3500 
L 1178 3500 
L 1178 0 
L 603 0 
L 603 3500 
z
M 603 4863 
L 1178 4863 
L 1178 4134 
L 603 4134 
L 603 4863 
z
" transform="scale(0.015625)"/>
       <path id="DejaVuSans-6d" d="M 3328 2828 
Q 3544 3216 3844 3400 
Q 4144 3584 4550 3584 
Q 5097 3584 5394 3201 
Q 5691 2819 5691 2113 
L 5691 0 
L 5113 0 
L 5113 2094 
Q 5113 2597 4934 2840 
Q 4756 3084 4391 3084 
Q 3944 3084 3684 2787 
Q 3425 2491 3425 1978 
L 3425 0 
L 2847 0 
L 2847 2094 
Q 2847 2600 2669 2842 
Q 2491 3084 2119 3084 
Q 1678 3084 1418 2786 
Q 1159 2488 1159 1978 
L 1159 0 
L 581 0 
L 581 3500 
L 1159 3500 
L 1159 2956 
Q 1356 3278 1631 3431 
Q 1906 3584 2284 3584 
Q 2666 3584 2933 3390 
Q 3200 3197 3328 2828 
z
" transform="scale(0.015625)"/>
       <path id="DejaVuSans-65" d="M 3597 1894 
L 3597 1613 
L 953 1613 
Q 991 1019 1311 708 
Q 1631 397 2203 397 
Q 2534 397 2845 478 
Q 3156 559 3463 722 
L 3463 178 
Q 3153 47 2828 -22 
Q 2503 -91 2169 -91 
Q 1331 -91 842 396 
Q 353 884 353 1716 
Q 353 2575 817 3079 
Q 1281 3584 2069 3584 
Q 2775 3584 3186 3129 
Q 3597 2675 3597 1894 
z
M 3022 2063 
Q 3016 2534 2758 2815 
Q 2500 3097 2075 3097 
Q 1594 3097 1305 2825 
Q 1016 2553 972 2059 
L 3022 2063 
z
" transform="scale(0.015625)"/>
      </defs>
      <use xlink:href="#DejaVuSans-74"/>
      <use xlink:href="#DejaVuSans-69" x="39.208984"/>
      <use xlink:href="#DejaVuSans-6d" x="66.992188"/>
      <use xlink:href="#DejaVuSans-65" x="164.404297"/>
     </g>
    </g>
   </g>
   <g id="matplotlib.axis_2">
    <g id="ytick_1">
     <g id="line2d_11">
      <path d="M 52.160938 168.376348 
L 386.960938 168.376348 
" clip-path="url(#p72b1581489)" style="fill: none; stroke: #b0b0b0; stroke-width: 0.8; stroke-linecap: square"/>
     </g>
     <g id="line2d_12">
      <defs>
       <path id="mbe324006c4" d="M 0 0 
L -3.5 0 
" style="stroke: #000000; stroke-width: 0.8"/>
      </defs>
      <g>
       <use xlink:href="#mbe324006c4" x="52.160938" y="168.376348" style="stroke: #000000; stroke-width: 0.8"/>
      </g>
     </g>
     <g id="text_7">
      <!-- −1.5 -->
      <g transform="translate(20.878125 172.175567)scale(0.1 -0.1)">
       <defs>
        <path id="DejaVuSans-2212" d="M 678 2272 
L 4684 2272 
L 4684 1741 
L 678 1741 
L 678 2272 
z
" transform="scale(0.015625)"/>
        <path id="DejaVuSans-2e" d="M 684 794 
L 1344 794 
L 1344 0 
L 684 0 
L 684 794 
z
" transform="scale(0.015625)"/>
        <path id="DejaVuSans-35" d="M 691 4666 
L 3169 4666 
L 3169 4134 
L 1269 4134 
L 1269 2991 
Q 1406 3038 1543 3061 
Q 1681 3084 1819 3084 
Q 2600 3084 3056 2656 
Q 3513 2228 3513 1497 
Q 3513 744 3044 326 
Q 2575 -91 1722 -91 
Q 1428 -91 1123 -41 
Q 819 9 494 109 
L 494 744 
Q 775 591 1075 516 
Q 1375 441 1709 441 
Q 2250 441 2565 725 
Q 2881 1009 2881 1497 
Q 2881 1984 2565 2268 
Q 2250 2553 1709 2553 
Q 1456 2553 1204 2497 
Q 953 2441 691 2322 
L 691 4666 
z
" transform="scale(0.015625)"/>
       </defs>
       <use xlink:href="#DejaVuSans-2212"/>
       <use xlink:href="#DejaVuSans-31" x="83.789062"/>
       <use xlink:href="#DejaVuSans-2e" x="147.412109"/>
       <use xlink:href="#DejaVuSans-35" x="179.199219"/>
      </g>
     </g>
    </g>
    <g id="ytick_2">
     <g id="line2d_13">
      <path d="M 52.160938 142.903203 
L 386.960938 142.903203 
" clip-path="url(#p72b1581489)" style="fill: none; stroke: #b0b0b0; stroke-width: 0.8; stroke-linecap: square"/>
     </g>
     <g id="line2d_14">
      <g>
       <use xlink:href="#mbe324006c4" x="52.160938" y="142.903203" style="stroke: #000000; stroke-width: 0.8"/>
      </g>
     </g>
     <g id="text_8">
      <!-- −1.0 -->
      <g transform="translate(20.878125 146.702421)scale(0.1 -0.1)">
       <use xlink:href="#DejaVuSans-2212"/>
       <use xlink:href="#DejaVuSans-31" x="83.789062"/>
       <use xlink:href="#DejaVuSans-2e" x="147.412109"/>
       <use xlink:href="#DejaVuSans-30" x="179.199219"/>
      </g>
     </g>
    </g>
    <g id="ytick_3">
     <g id="line2d_15">
      <path d="M 52.160938 117.430057 
L 386.960938 117.430057 
" clip-path="url(#p72b1581489)" style="fill: none; stroke: #b0b0b0; stroke-width: 0.8; stroke-linecap: square"/>
     </g>
     <g id="line2d_16">
      <g>
       <use xlink:href="#mbe324006c4" x="52.160938" y="117.430057" style="stroke: #000000; stroke-width: 0.8"/>
      </g>
     </g>
     <g id="text_9">
      <!-- −0.5 -->
      <g transform="translate(20.878125 121.229276)scale(0.1 -0.1)">
       <use xlink:href="#DejaVuSans-2212"/>
       <use xlink:href="#DejaVuSans-30" x="83.789062"/>
       <use xlink:href="#DejaVuSans-2e" x="147.412109"/>
       <use xlink:href="#DejaVuSans-35" x="179.199219"/>
      </g>
     </g>
    </g>
    <g id="ytick_4">
     <g id="line2d_17">
      <path d="M 52.160938 91.956912 
L 386.960938 91.956912 
" clip-path="url(#p72b1581489)" style="fill: none; stroke: #b0b0b0; stroke-width: 0.8; stroke-linecap: square"/>
     </g>
     <g id="line2d_18">
      <g>
       <use xlink:href="#mbe324006c4" x="52.160938" y="91.956912" style="stroke: #000000; stroke-width: 0.8"/>
      </g>
     </g>
     <g id="text_10">
      <!-- 0.0 -->
      <g transform="translate(29.257812 95.756131)scale(0.1 -0.1)">
       <use xlink:href="#DejaVuSans-30"/>
       <use xlink:href="#DejaVuSans-2e" x="63.623047"/>
       <use xlink:href="#DejaVuSans-30" x="95.410156"/>
      </g>
     </g>
    </g>
    <g id="ytick_5">
     <g id="line2d_19">
      <path d="M 52.160938 66.483767 
L 386.960938 66.483767 
" clip-path="url(#p72b1581489)" style="fill: none; stroke: #b0b0b0; stroke-width: 0.8; stroke-linecap: square"/>
     </g>
     <g id="line2d_20">
      <g>
       <use xlink:href="#mbe324006c4" x="52.160938" y="66.483767" style="stroke: #000000; stroke-width: 0.8"/>
      </g>
     </g>
     <g id="text_11">
      <!-- 0.5 -->
      <g transform="translate(29.257812 70.282985)scale(0.1 -0.1)">
       <use xlink:href="#DejaVuSans-30"/>
       <use xlink:href="#DejaVuSans-2e" x="63.623047"/>
       <use xlink:href="#DejaVuSans-35" x="95.410156"/>
      </g>
     </g>
    </g>
    <g id="ytick_6">
     <g id="line2d_21">
      <path d="M 52.160938 41.010621 
L 386.960938 41.010621 
" clip-path="url(#p72b1581489)" style="fill: none; stroke: #b0b0b0; stroke-width: 0.8; stroke-linecap: square"/>
     </g>
     <g id="line2d_22">
      <g>
       <use xlink:href="#mbe324006c4" x="52.160938" y="41.010621" style="stroke: #000000; stroke-width: 0.8"/>
      </g>
     </g>
     <g id="text_12">
      <!-- 1.0 -->
      <g transform="translate(29.257812 44.80984)scale(0.1 -0.1)">
       <use xlink:href="#DejaVuSans-31"/>
       <use xlink:href="#DejaVuSans-2e" x="63.623047"/>
       <use xlink:href="#DejaVuSans-30" x="95.410156"/>
      </g>
     </g>
    </g>
    <g id="ytick_7">
     <g id="line2d_23">
      <path d="M 52.160938 15.537476 
L 386.960938 15.537476 
" clip-path="url(#p72b1581489)" style="fill: none; stroke: #b0b0b0; stroke-width: 0.8; stroke-linecap: square"/>
     </g>
     <g id="line2d_24">
      <g>
       <use xlink:href="#mbe324006c4" x="52.160938" y="15.537476" style="stroke: #000000; stroke-width: 0.8"/>
      </g>
     </g>
     <g id="text_13">
      <!-- 1.5 -->
      <g transform="translate(29.257812 19.336695)scale(0.1 -0.1)">
       <use xlink:href="#DejaVuSans-31"/>
       <use xlink:href="#DejaVuSans-2e" x="63.623047"/>
       <use xlink:href="#DejaVuSans-35" x="95.410156"/>
      </g>
     </g>
    </g>
    <g id="text_14">
     <!-- x -->
     <g transform="translate(14.798438 93.319375)rotate(-90)scale(0.1 -0.1)">
      <defs>
       <path id="DejaVuSans-78" d="M 3513 3500 
L 2247 1797 
L 3578 0 
L 2900 0 
L 1881 1375 
L 863 0 
L 184 0 
L 1544 1831 
L 300 3500 
L 978 3500 
L 1906 2253 
L 2834 3500 
L 3513 3500 
z
" transform="scale(0.015625)"/>
      </defs>
      <use xlink:href="#DejaVuSans-78"/>
     </g>
    </g>
   </g>
   <g id="line2d_25">
    <path d="M 52.160938 96.28247 
L 52.496073 83.043805 
L 52.831208 89.89255 
L 53.166343 66.836171 
L 53.836613 89.39924 
L 54.171748 92.210427 
L 54.506883 98.878728 
L 54.842019 99.198966 
L 55.177154 79.365415 
L 55.512289 91.107874 
L 55.847424 108.392814 
L 56.182559 80.16352 
L 56.517694 79.469598 
L 56.852829 92.013387 
L 57.187965 90.024163 
L 57.5231 83.121904 
L 57.858235 80.644491 
L 58.19337 68.810757 
L 58.528505 74.430028 
L 58.86364 83.9866 
L 59.198775 77.458751 
L 59.53391 89.40812 
L 59.869046 97.013055 
L 60.204181 92.76525 
L 60.539316 71.642611 
L 60.874451 80.753677 
L 61.209586 80.825641 
L 61.544721 69.017083 
L 61.879856 71.277847 
L 62.214992 68.352802 
L 62.550127 73.201849 
L 62.885262 94.133961 
L 63.555532 58.924202 
L 63.890667 76.611888 
L 64.225802 70.157561 
L 64.560938 79.151843 
L 64.896073 76.221938 
L 65.231208 78.678604 
L 65.566343 78.148803 
L 65.901478 65.25624 
L 66.236613 59.011323 
L 66.571748 70.326289 
L 66.906883 49.45562 
L 67.242019 76.488041 
L 67.577154 60.564665 
L 67.912289 70.244666 
L 68.247424 67.178295 
L 68.582559 69.276137 
L 68.917694 65.00604 
L 69.252829 66.475662 
L 69.587965 69.773828 
L 69.9231 82.572352 
L 70.258235 68.027991 
L 70.59337 83.591895 
L 70.928505 48.389233 
L 71.26364 70.315454 
L 71.598775 64.43435 
L 71.93391 62.516545 
L 72.269046 64.141306 
L 72.604181 56.272238 
L 72.939316 73.551594 
L 73.274451 60.937127 
L 73.609586 73.588516 
L 73.944721 73.09356 
L 74.279856 59.807927 
L 74.614992 66.339019 
L 74.950127 65.482761 
L 75.285262 59.184606 
L 75.620397 65.229906 
L 75.955532 61.32977 
L 76.290667 52.641579 
L 76.625802 63.012015 
L 76.960938 66.370922 
L 77.296073 76.281453 
L 77.631208 59.732964 
L 77.966343 60.710734 
L 78.301478 56.306391 
L 78.636613 70.982668 
L 78.971748 60.625286 
L 79.306883 42.957682 
L 79.977154 56.081522 
L 80.312289 31.994067 
L 80.647424 34.185995 
L 80.982559 46.583661 
L 81.317694 42.031975 
L 81.987965 60.275772 
L 82.3231 50.106751 
L 82.658235 31.881584 
L 83.66364 60.248087 
L 83.998775 48.279607 
L 84.33391 40.319926 
L 84.669046 48.402776 
L 85.004181 46.12332 
L 85.339316 67.758596 
L 85.674451 62.077906 
L 86.009586 40.04768 
L 86.679856 59.125564 
L 87.014992 48.763932 
L 87.350127 49.632711 
L 87.685262 53.645294 
L 88.020397 31.875553 
L 88.355532 63.104462 
L 88.690667 62.444149 
L 89.025802 34.769685 
L 89.360938 43.96221 
L 89.696073 45.63276 
L 90.031208 60.472434 
L 90.366343 40.820036 
L 90.701478 40.839246 
L 91.036613 57.151988 
L 91.371748 55.718292 
L 91.706883 39.183587 
L 92.042019 53.731692 
L 92.377154 34.010369 
L 92.712289 26.738203 
L 93.047424 46.976796 
L 93.382559 43.114247 
L 93.717694 56.028384 
L 94.052829 31.579851 
L 94.387965 40.172741 
L 94.7231 45.062024 
L 95.058235 32.552456 
L 95.39337 43.142992 
L 95.728505 43.856808 
L 96.06364 42.159028 
L 96.398775 53.021368 
L 96.73391 36.629874 
L 97.069046 49.496378 
L 97.404181 25.158837 
L 97.739316 30.28684 
L 98.074451 25.38192 
L 98.409586 48.630718 
L 98.744721 45.745371 
L 99.079856 51.709271 
L 99.414992 42.693042 
L 99.750127 45.310722 
L 100.085262 14.76 
L 100.420397 53.570653 
L 100.755532 61.161692 
L 101.090667 26.746184 
L 101.425802 32.965796 
L 101.760938 31.184864 
L 102.096073 48.338803 
L 102.431208 40.433867 
L 102.766343 22.97232 
L 103.101478 38.860865 
L 103.436613 26.919418 
L 103.771748 23.742599 
L 104.106883 51.811475 
L 104.777154 59.347041 
L 105.112289 30.80636 
L 105.447424 54.065694 
L 105.782559 45.291418 
L 106.117694 42.517925 
L 106.452829 30.355547 
L 106.787965 53.814249 
L 107.1231 40.933861 
L 107.458235 53.126248 
L 107.79337 36.812242 
L 108.128505 37.070751 
L 108.46364 53.963074 
L 108.798775 53.515165 
L 109.13391 50.686681 
L 109.469046 38.825732 
L 110.139316 31.113339 
L 110.474451 39.383149 
L 110.809586 33.057636 
L 111.144721 67.881937 
L 111.479856 33.866414 
L 111.814992 56.727986 
L 112.485262 31.16993 
L 112.820397 37.153803 
L 113.155532 38.172278 
L 113.490667 34.356417 
L 114.160938 49.986388 
L 114.831208 38.377403 
L 115.166343 53.693081 
L 115.501478 37.12425 
L 115.836613 68.156966 
L 116.506883 40.188974 
L 116.842019 37.83546 
L 117.177154 42.488825 
L 117.512289 50.216971 
L 117.847424 50.641961 
L 118.182559 20.011691 
L 118.517694 35.295315 
L 118.852829 39.492279 
L 119.187965 48.898173 
L 119.5231 31.49202 
L 119.858235 35.819383 
L 120.19337 44.190231 
L 120.528505 59.47253 
L 120.86364 49.747171 
L 121.53391 39.941088 
L 121.869046 42.260847 
L 122.204181 77.708684 
L 122.539316 57.606973 
L 122.874451 49.126746 
L 123.209586 34.355713 
L 123.544721 55.107209 
L 123.879856 55.242813 
L 124.214992 43.074972 
L 124.550127 56.165191 
L 124.885262 56.906661 
L 125.220397 63.252003 
L 125.555532 50.722741 
L 125.890667 61.19668 
L 126.225802 48.421287 
L 126.560938 48.046372 
L 126.896073 54.633047 
L 127.231208 52.764523 
L 127.566343 63.79117 
L 127.901478 56.109402 
L 128.236613 44.431519 
L 128.571748 59.438957 
L 128.906883 46.538998 
L 129.242019 71.262569 
L 129.577154 50.254283 
L 129.912289 56.423038 
L 130.247424 56.989036 
L 130.582559 65.073553 
L 130.917694 52.22907 
L 131.252829 54.500699 
L 131.587965 62.359876 
L 131.9231 52.686306 
L 132.258235 64.145415 
L 132.59337 52.746878 
L 132.928505 59.363357 
L 133.26364 70.668556 
L 133.598775 71.055719 
L 133.93391 76.013997 
L 134.269046 50.902097 
L 134.604181 52.663088 
L 134.939316 76.69069 
L 135.274451 91.830943 
L 135.609586 66.905167 
L 135.944721 51.084171 
L 136.279856 69.653076 
L 136.950127 44.882489 
L 137.285262 80.825635 
L 137.620397 58.099206 
L 137.955532 62.566185 
L 138.290667 68.664232 
L 138.625802 64.895773 
L 138.960938 50.319148 
L 139.296073 69.5207 
L 139.631208 58.367359 
L 139.966343 79.564339 
L 140.301478 87.711545 
L 140.636613 66.789985 
L 140.971748 68.163741 
L 141.306883 64.538243 
L 141.642019 69.728134 
L 141.977154 78.148885 
L 142.312289 69.550076 
L 142.647424 74.601609 
L 142.982559 70.854156 
L 143.317694 54.868581 
L 143.652829 96.771731 
L 143.987965 57.559076 
L 144.3231 70.32896 
L 144.658235 65.568543 
L 144.99337 70.36831 
L 145.66364 52.163421 
L 145.998775 73.616377 
L 146.33391 78.141884 
L 146.669046 89.460438 
L 147.004181 84.343524 
L 147.339316 64.906675 
L 147.674451 60.506253 
L 148.009586 96.280935 
L 148.344721 84.466886 
L 148.679856 93.693891 
L 149.350127 79.164585 
L 149.685262 96.372445 
L 150.020397 80.192685 
L 150.355532 74.904021 
L 150.690667 96.369273 
L 151.025802 81.153493 
L 151.360938 75.467401 
L 151.696073 92.750578 
L 152.031208 66.734101 
L 152.366343 96.035457 
L 152.701478 81.574669 
L 153.036613 92.058386 
L 153.371748 85.411536 
L 153.706883 107.07709 
L 154.042019 78.071642 
L 154.377154 90.583024 
L 154.712289 83.533198 
L 155.047424 95.898788 
L 155.382559 85.805534 
L 155.717694 99.769293 
L 156.052829 88.101787 
L 156.387965 66.769174 
L 156.7231 84.110342 
L 157.058235 108.133382 
L 157.39337 94.236919 
L 157.728505 110.417139 
L 158.398775 83.628904 
L 158.73391 76.873767 
L 159.069046 102.278187 
L 159.404181 92.344651 
L 159.739316 99.64376 
L 160.074451 87.645822 
L 160.409586 103.044712 
L 160.744721 112.960913 
L 161.079856 108.747669 
L 161.414992 76.190864 
L 161.750127 76.989387 
L 162.085262 109.271061 
L 162.420397 121.455224 
L 162.755532 100.774807 
L 163.090667 107.836372 
L 163.760938 91.935105 
L 164.096073 119.85837 
L 164.766343 84.152301 
L 165.101478 94.540045 
L 165.436613 119.504529 
L 165.771748 95.351568 
L 166.442019 102.363544 
L 166.777154 133.072979 
L 167.112289 92.527576 
L 167.447424 115.384905 
L 167.782559 102.364943 
L 168.117694 96.036882 
L 168.452829 123.798007 
L 168.787965 115.10382 
L 169.1231 114.589165 
L 169.458235 126.377507 
L 169.79337 100.536666 
L 170.128505 114.868265 
L 170.46364 112.651354 
L 170.798775 116.246574 
L 171.13391 99.163036 
L 171.469046 116.049378 
L 171.804181 102.245988 
L 172.139316 115.140841 
L 172.474451 134.784976 
L 172.809586 126.543447 
L 173.144721 102.480136 
L 173.479856 109.328672 
L 173.814992 101.712322 
L 174.150127 99.536558 
L 174.485262 120.921347 
L 174.820397 106.929434 
L 175.155532 121.573868 
L 175.490667 121.653334 
L 175.825802 118.422894 
L 176.160938 105.275378 
L 176.496073 117.475938 
L 176.831208 120.882545 
L 177.501478 111.834396 
L 177.836613 116.963032 
L 178.171748 130.811077 
L 178.506883 122.671895 
L 178.842019 135.312255 
L 179.177154 130.548602 
L 179.512289 114.810829 
L 179.847424 114.627701 
L 180.517694 126.20373 
L 180.852829 104.534482 
L 181.187965 130.89658 
L 181.5231 117.751042 
L 181.858235 129.94801 
L 182.19337 114.834437 
L 182.528505 133.767567 
L 182.86364 128.381608 
L 183.198775 131.90156 
L 183.53391 120.298682 
L 183.869046 137.448349 
L 184.204181 148.703875 
L 184.539316 129.205963 
L 184.874451 125.202976 
L 185.209586 129.19501 
L 185.544721 136.952108 
L 185.879856 127.305275 
L 186.214992 126.293158 
L 186.550127 124.593122 
L 186.885262 124.704719 
L 187.220397 124.317323 
L 187.555532 144.035406 
L 187.890667 147.307417 
L 188.225802 130.880977 
L 188.560938 135.431883 
L 188.896073 128.455052 
L 189.231208 151.408461 
L 189.566343 142.377813 
L 189.901478 127.041534 
L 190.236613 124.67386 
L 190.571748 125.959256 
L 190.906883 112.070611 
L 191.242019 121.625424 
L 191.577154 136.009551 
L 191.912289 113.253526 
L 192.247424 147.112065 
L 192.582559 139.546579 
L 192.917694 141.660192 
L 193.252829 142.957905 
L 193.587965 137.585334 
L 193.9231 139.719661 
L 194.258235 128.75672 
L 194.59337 131.731326 
L 194.928505 148.63331 
L 195.26364 134.644996 
L 195.598775 134.330938 
L 195.93391 147.75738 
L 196.604181 136.637543 
L 196.939316 144.056268 
L 197.274451 143.468205 
L 197.609586 162.164728 
L 197.944721 138.136781 
L 198.279856 139.316119 
L 198.614992 142.705232 
L 198.950127 141.294694 
L 199.620397 149.814379 
L 199.955532 140.218844 
L 200.290667 135.12187 
L 200.625802 139.420537 
L 200.960938 140.308628 
L 201.296073 144.693658 
L 201.631208 137.394807 
L 201.966343 144.556426 
L 202.301478 147.194843 
L 202.636613 145.72451 
L 202.971748 153.480922 
L 203.306883 121.315348 
L 203.642019 130.775026 
L 203.977154 147.034047 
L 204.312289 129.045012 
L 204.647424 133.449928 
L 204.982559 156.593528 
L 205.652829 144.807313 
L 205.987965 150.744865 
L 206.3231 138.454914 
L 206.658235 133.978834 
L 206.99337 140.021964 
L 207.328505 139.082459 
L 207.66364 135.775748 
L 208.33391 148.139158 
L 208.669046 135.841297 
L 209.004181 130.507644 
L 209.339316 131.150363 
L 209.674451 148.202199 
L 210.009586 128.885103 
L 210.344721 123.412005 
L 211.014992 149.393125 
L 211.350127 153.218162 
L 211.685262 160.015343 
L 212.020397 128.263267 
L 212.355532 130.567979 
L 212.690667 137.818809 
L 213.025802 142.351066 
L 213.360938 135.971186 
L 213.696073 138.591593 
L 214.031208 151.853121 
L 214.366343 136.623094 
L 214.701478 136.959001 
L 215.036613 165.96 
L 215.371748 137.171003 
L 215.706883 138.792348 
L 216.042019 133.561358 
L 216.377154 139.747595 
L 216.712289 141.969443 
L 217.047424 141.856966 
L 217.382559 146.570863 
L 217.717694 147.948816 
L 218.052829 154.096964 
L 218.387965 147.77959 
L 218.7231 130.666861 
L 219.058235 149.555226 
L 219.728505 137.116131 
L 220.06364 155.633459 
L 220.73391 146.007039 
L 221.069046 130.119793 
L 221.404181 124.352384 
L 221.739316 147.671553 
L 222.074451 138.89151 
L 222.409586 135.992765 
L 222.744721 141.608819 
L 223.079856 134.373187 
L 223.414992 120.550462 
L 223.750127 136.444309 
L 224.085262 142.855312 
L 224.420397 140.697142 
L 224.755532 162.125003 
L 225.090667 141.379203 
L 225.425802 129.362523 
L 225.760938 137.177502 
L 226.096073 129.61992 
L 226.431208 154.491119 
L 226.766343 145.288674 
L 227.101478 123.448918 
L 227.436613 128.735306 
L 227.771748 130.492962 
L 228.106883 148.954118 
L 228.442019 115.316585 
L 228.777154 124.490393 
L 229.112289 141.66888 
L 229.447424 125.573418 
L 229.782559 135.730196 
L 230.117694 118.937398 
L 230.452829 129.448253 
L 231.1231 140.090729 
L 231.458235 122.006124 
L 231.79337 139.747546 
L 232.128505 134.159071 
L 232.46364 137.42919 
L 232.798775 132.349233 
L 233.13391 140.535726 
L 233.469046 129.698077 
L 233.804181 126.454091 
L 234.139316 130.451852 
L 234.474451 130.121278 
L 234.809586 129.386582 
L 235.144721 121.725925 
L 235.479856 141.597273 
L 235.814992 117.537202 
L 236.150127 142.420013 
L 236.485262 113.8124 
L 236.820397 127.629907 
L 237.155532 112.872635 
L 237.490667 131.746349 
L 237.825802 118.580763 
L 238.160938 115.745526 
L 238.496073 113.872864 
L 238.831208 113.873516 
L 239.166343 130.633425 
L 239.501478 121.609995 
L 239.836613 137.661848 
L 240.171748 110.470591 
L 240.506883 136.596153 
L 240.842019 114.578476 
L 241.177154 102.416957 
L 241.512289 100.632067 
L 241.847424 112.801718 
L 242.182559 140.669214 
L 242.517694 129.013188 
L 242.852829 108.001125 
L 243.187965 129.51099 
L 243.5231 106.214704 
L 243.858235 124.179508 
L 244.19337 130.559425 
L 244.528505 106.821878 
L 244.86364 123.134344 
L 245.198775 110.250446 
L 245.53391 127.72212 
L 245.869046 131.676597 
L 246.204181 113.324022 
L 246.874451 122.125856 
L 247.209586 138.109867 
L 247.544721 113.59631 
L 247.879856 117.124414 
L 248.214992 90.52244 
L 248.885262 127.87714 
L 249.220397 117.29012 
L 249.555532 125.850708 
L 249.890667 104.376455 
L 250.225802 122.171208 
L 250.560938 100.340262 
L 250.896073 103.942032 
L 251.231208 123.830623 
L 251.566343 102.315904 
L 251.901478 117.888765 
L 252.236613 93.102837 
L 252.571748 77.2869 
L 252.906883 114.926224 
L 253.242019 109.092126 
L 253.577154 82.653546 
L 254.247424 109.55952 
L 254.582559 113.256307 
L 254.917694 92.50122 
L 255.252829 110.799129 
L 255.9231 105.523203 
L 256.258235 105.498362 
L 256.59337 97.833695 
L 256.928505 100.198536 
L 257.26364 91.182648 
L 257.598775 119.964877 
L 257.93391 88.034324 
L 258.269046 116.374263 
L 258.604181 93.798834 
L 258.939316 98.329133 
L 259.274451 111.146624 
L 259.609586 100.551754 
L 259.944721 101.219687 
L 260.279856 99.151859 
L 260.614992 93.101642 
L 260.950127 101.686008 
L 261.285262 98.739649 
L 261.620397 83.391845 
L 261.955532 86.947258 
L 262.290667 107.529236 
L 262.625802 83.040582 
L 262.960938 100.078073 
L 263.296073 87.153405 
L 263.631208 87.23831 
L 263.966343 83.291599 
L 264.301478 93.854755 
L 264.636613 85.458923 
L 264.971748 98.096722 
L 265.306883 77.800733 
L 265.642019 93.249891 
L 265.977154 84.872284 
L 266.312289 90.507874 
L 266.982559 88.311279 
L 267.317694 91.10702 
L 267.652829 91.10275 
L 267.987965 91.284457 
L 268.3231 96.997684 
L 268.658235 90.6791 
L 268.99337 94.860567 
L 269.328505 71.516132 
L 269.66364 93.421348 
L 270.33391 56.941813 
L 270.669046 80.440836 
L 271.004181 76.636326 
L 271.339316 85.752814 
L 271.674451 64.144258 
L 272.009586 78.43056 
L 272.344721 75.992833 
L 272.679856 81.508466 
L 273.014992 58.199217 
L 273.350127 59.614739 
L 273.685262 74.44989 
L 274.020397 69.180515 
L 274.355532 76.558522 
L 274.690667 93.536082 
L 275.025802 81.227114 
L 275.360937 55.633042 
L 275.696073 75.980998 
L 276.031208 78.21135 
L 276.366343 77.678113 
L 276.701478 78.364494 
L 277.036613 64.960162 
L 277.371748 62.639034 
L 277.706883 65.601375 
L 278.042019 51.174474 
L 278.377154 79.216616 
L 278.712289 79.597729 
L 279.047424 90.665666 
L 279.382559 46.250816 
L 279.717694 82.738358 
L 280.052829 74.546216 
L 280.387965 61.72207 
L 280.7231 71.069598 
L 281.058235 63.50671 
L 281.39337 68.899708 
L 281.728505 54.468243 
L 282.06364 76.17869 
L 282.398775 74.703399 
L 282.73391 69.632521 
L 283.069046 46.622148 
L 283.404181 55.500183 
L 283.739316 42.463002 
L 284.074451 54.071695 
L 284.409586 59.020466 
L 284.744721 70.320689 
L 285.414992 62.563418 
L 285.750127 72.654517 
L 286.085262 61.721578 
L 286.420397 65.375003 
L 286.755532 62.855494 
L 287.090667 58.720672 
L 287.425802 46.761013 
L 287.760938 51.672361 
L 288.096073 64.656228 
L 288.431208 54.477866 
L 289.101478 72.744225 
L 289.436613 49.204894 
L 289.771748 58.17378 
L 290.106883 63.165343 
L 290.442019 57.057789 
L 290.777154 53.055342 
L 291.112289 43.518913 
L 291.447424 64.307598 
L 291.782559 53.903462 
L 292.452829 41.991491 
L 292.787965 40.822392 
L 293.1231 35.712433 
L 293.458235 56.197024 
L 293.79337 29.566307 
L 294.128505 52.128069 
L 294.46364 38.908996 
L 294.798775 57.711315 
L 295.13391 47.895379 
L 295.469046 53.258678 
L 295.804181 46.905915 
L 296.139316 57.943931 
L 296.474451 49.19054 
L 297.144721 65.282911 
L 297.479856 55.64302 
L 297.814992 68.629045 
L 298.150127 41.270985 
L 298.485262 71.82804 
L 298.820397 29.710887 
L 299.155532 58.86984 
L 299.490667 56.668671 
L 299.825802 47.972218 
L 300.160938 43.557362 
L 300.496073 27.091996 
L 300.831208 47.076644 
L 301.166343 47.70292 
L 301.501478 47.339447 
L 301.836613 29.902037 
L 302.171748 59.758797 
L 302.506883 57.609108 
L 302.842019 38.427197 
L 303.177154 35.089643 
L 303.512289 54.130062 
L 303.847424 31.130903 
L 304.182559 51.113165 
L 304.517694 39.042225 
L 304.852829 46.108668 
L 305.187965 56.751116 
L 305.5231 49.703607 
L 305.858235 52.953026 
L 306.19337 46.350035 
L 306.528505 52.105874 
L 306.86364 60.254221 
L 307.198775 34.478199 
L 307.53391 48.868957 
L 307.869046 41.990698 
L 308.204181 54.255029 
L 308.539316 30.327622 
L 308.874451 53.726782 
L 309.209586 48.23369 
L 309.544721 51.37798 
L 309.879856 29.72273 
L 310.214992 39.158735 
L 310.550127 22.942834 
L 310.885262 50.487882 
L 311.220397 44.892559 
L 311.555532 26.687024 
L 311.890667 32.461782 
L 312.225802 32.052152 
L 312.560938 16.547886 
L 312.896073 48.352687 
L 313.231208 30.442698 
L 313.566343 57.864003 
L 313.901478 59.647851 
L 314.236613 26.491598 
L 314.571748 60.137684 
L 314.906883 42.997638 
L 315.242019 51.503882 
L 315.577154 46.724303 
L 315.912289 43.703121 
L 316.247424 28.352351 
L 316.582559 57.017256 
L 317.252829 33.12075 
L 317.587965 45.957738 
L 317.9231 43.887299 
L 318.258235 28.21048 
L 318.59337 38.76226 
L 318.928505 26.084738 
L 319.26364 53.535777 
L 319.598775 39.921477 
L 319.93391 33.260854 
L 320.269046 55.895188 
L 320.604181 44.147885 
L 320.939316 25.473335 
L 321.274451 31.433735 
L 321.609586 50.20412 
L 321.944721 46.878755 
L 322.279856 44.890816 
L 322.614992 50.628879 
L 322.950127 34.982426 
L 323.285262 60.432043 
L 323.620397 45.24077 
L 323.955532 69.511241 
L 324.290667 52.664381 
L 324.625802 62.247642 
L 324.960938 26.859742 
L 325.296073 38.609001 
L 325.631208 36.217911 
L 325.966343 38.053618 
L 326.301478 33.02079 
L 326.636613 34.990807 
L 326.971748 43.130351 
L 327.306883 34.988979 
L 327.642019 36.891905 
L 327.977154 40.007469 
L 328.312289 47.972955 
L 328.647424 61.456674 
L 328.982559 43.565999 
L 329.317694 46.752501 
L 329.652829 55.983773 
L 330.3231 28.577008 
L 330.658235 50.936684 
L 330.99337 51.143625 
L 331.328505 46.593275 
L 331.66364 33.459693 
L 331.998775 46.684942 
L 332.33391 53.638337 
L 332.669046 33.028551 
L 333.004181 47.369236 
L 333.339316 43.475877 
L 333.674451 49.583548 
L 334.009586 67.21432 
L 334.344721 39.986425 
L 334.679856 48.471419 
L 335.014992 52.095729 
L 335.350127 45.333105 
L 335.685262 42.715358 
L 336.020397 68.237184 
L 336.355532 52.5252 
L 336.690667 43.516662 
L 337.025802 56.934231 
L 337.360937 51.929956 
L 337.696073 73.397665 
L 338.031208 47.484774 
L 338.366343 55.321577 
L 338.701478 48.034906 
L 339.036613 60.974836 
L 339.371748 43.474274 
L 339.706883 58.371106 
L 340.042019 45.156118 
L 340.712289 48.987808 
L 341.047424 55.628639 
L 341.382559 57.283617 
L 341.717694 32.902956 
L 342.052829 55.874898 
L 342.387965 66.161279 
L 342.7231 40.576795 
L 343.058235 52.293857 
L 343.39337 58.273633 
L 343.728505 61.771655 
L 344.06364 45.982851 
L 344.398775 53.497078 
L 345.069046 80.346322 
L 345.404181 63.613384 
L 345.739316 56.41766 
L 346.409586 81.412162 
L 346.744721 64.282895 
L 347.079856 37.423134 
L 347.414992 44.348518 
L 347.750127 64.704016 
L 348.085262 52.631971 
L 348.755532 67.764238 
L 349.090667 46.23163 
L 349.425802 57.881191 
L 349.760938 54.071862 
L 350.096073 66.979148 
L 350.431208 74.956376 
L 350.766343 63.945971 
L 351.101478 78.398507 
L 351.436613 83.911214 
L 351.771748 76.106118 
L 352.106883 71.661103 
L 352.442019 87.691045 
L 352.777154 64.976654 
L 353.112289 63.814272 
L 353.447424 59.28711 
L 353.782559 72.995119 
L 354.117694 74.886052 
L 354.452829 74.970087 
L 354.787965 81.700372 
L 355.1231 78.926499 
L 355.458235 78.264772 
L 355.79337 91.011452 
L 356.128505 64.788626 
L 356.46364 81.41214 
L 356.798775 78.04647 
L 357.13391 67.109915 
L 357.469046 74.899252 
L 357.804181 74.783318 
L 358.139316 79.400832 
L 358.474451 75.609945 
L 358.809586 76.126747 
L 359.144721 75.352772 
L 359.479856 81.620148 
L 359.814992 63.618756 
L 360.150127 77.961496 
L 360.485262 85.041223 
L 360.820397 86.630063 
L 361.155532 90.538691 
L 361.490667 73.578887 
L 361.825802 71.946814 
L 362.160938 73.355011 
L 362.496073 107.631179 
L 362.831208 76.643034 
L 363.166343 84.601259 
L 363.501478 82.152132 
L 363.836613 71.921163 
L 364.171748 86.208104 
L 364.506883 82.088886 
L 364.842019 100.853864 
L 365.177154 68.819723 
L 365.512289 92.679355 
L 365.847424 93.028253 
L 366.182559 72.070405 
L 366.517694 101.050942 
L 366.852829 87.074998 
L 367.187965 95.978669 
L 367.5231 91.811167 
L 367.858235 93.711106 
L 368.19337 84.313031 
L 368.528505 109.843937 
L 368.86364 92.473923 
L 369.53391 98.314289 
L 369.869046 87.155647 
L 370.204181 103.062096 
L 370.539316 108.756798 
L 370.874451 110.284529 
L 371.209586 94.60942 
L 371.544721 92.781147 
L 371.879856 99.967933 
L 372.214992 79.602187 
L 372.550127 105.401349 
L 372.885262 90.217203 
L 373.220397 92.286469 
L 373.555532 101.857141 
L 373.890667 99.199451 
L 374.225802 82.934449 
L 374.560938 83.811196 
L 374.896073 102.494049 
L 375.231208 103.626862 
L 375.566343 98.142627 
L 375.901478 108.834528 
L 376.236613 115.462708 
L 376.571748 105.756008 
L 377.242019 115.478321 
L 377.577154 109.550056 
L 377.912289 116.204502 
L 378.247424 110.428977 
L 378.582559 110.019719 
L 378.917694 131.194944 
L 379.252829 123.272499 
L 379.587965 101.840445 
L 379.9231 118.351026 
L 380.258235 119.667025 
L 380.59337 127.565138 
L 380.928505 106.685345 
L 381.26364 103.121601 
L 381.598775 102.816184 
L 381.93391 122.838958 
L 382.269046 106.346328 
L 382.604181 126.049632 
L 382.939316 99.649759 
L 383.274451 116.612683 
L 383.609586 126.933041 
L 383.944721 112.150397 
L 384.279856 114.990488 
L 384.614992 99.541763 
L 384.950127 116.466296 
L 385.285262 112.872253 
L 385.955532 127.531848 
L 386.290667 106.256547 
L 386.625802 122.907134 
L 386.960938 114.818766 
L 386.960938 114.818766 
" clip-path="url(#p72b1581489)" style="fill: none; stroke: #1f77b4; stroke-width: 1.5; stroke-linecap: square"/>
   </g>
   <g id="line2d_26">
    <path d="M 53.501478 85.775102 
L 53.836613 73.291084 
L 54.171748 83.192523 
L 54.506883 79.705355 
L 55.177154 97.837013 
L 55.512289 92.697318 
L 55.847424 90.525317 
L 56.182559 100.265452 
L 56.852829 84.312536 
L 57.187965 94.776905 
L 57.5231 85.727487 
L 57.858235 83.134385 
L 58.19337 84.903102 
L 58.86364 72.830661 
L 59.198775 76.171153 
L 59.53391 74.793152 
L 59.869046 76.451014 
L 60.204181 88.33015 
L 60.539316 88.983364 
L 61.209586 83.502742 
L 61.544721 83.45414 
L 61.879856 71.692131 
L 62.214992 71.014122 
L 62.550127 71.282349 
L 62.885262 67.96 
L 63.220397 75.176804 
L 63.555532 78.601432 
L 63.890667 68.653339 
L 64.225802 75.755623 
L 64.560938 73.632667 
L 64.896073 67.076498 
L 65.231208 75.001698 
L 65.566343 72.322509 
L 65.901478 76.058684 
L 66.236613 71.320338 
L 66.571748 64.905503 
L 66.906883 66.637554 
L 67.577154 58.518717 
L 67.912289 69.951896 
L 68.247424 57.969554 
L 68.582559 70.064349 
L 68.917694 64.063942 
L 69.252829 66.690337 
L 69.587965 64.33068 
L 70.59337 71.646905 
L 70.928505 70.014867 
L 71.26364 71.363376 
L 71.598775 57.657652 
L 71.93391 72.051581 
L 72.269046 57.567339 
L 72.604181 63.971765 
L 72.939316 60.878869 
L 73.274451 61.979258 
L 73.609586 66.511748 
L 73.944721 61.269781 
L 74.279856 71.839639 
L 74.614992 63.537349 
L 74.950127 63.650437 
L 75.285262 67.105879 
L 75.620397 60.611202 
L 75.955532 61.720199 
L 76.290667 63.371288 
L 76.625802 56.970507 
L 76.960938 58.494041 
L 77.296073 63.342747 
L 77.631208 64.111155 
L 77.966343 66.042 
L 78.301478 59.677376 
L 78.636613 63.091471 
L 78.971748 60.777774 
L 79.306883 64.411339 
L 79.642019 52.567804 
L 79.977154 52.147103 
L 80.312289 55.271096 
L 80.982559 37.655764 
L 81.317694 46.356287 
L 81.652829 43.075482 
L 81.987965 43.405576 
L 82.3231 53.649785 
L 82.658235 52.230829 
L 82.99337 44.677936 
L 83.328505 43.50052 
L 83.66364 49.463746 
L 83.998775 50.212708 
L 84.33391 51.385527 
L 84.669046 46.833312 
L 85.004181 49.071012 
L 85.339316 49.029583 
L 85.674451 51.361191 
L 86.009586 60.970727 
L 86.344721 49.737162 
L 86.679856 50.482583 
L 87.014992 57.598161 
L 87.350127 50.878846 
L 87.685262 49.160171 
L 88.020397 53.990462 
L 88.355532 46.348556 
L 88.690667 46.406656 
L 89.025802 61.588956 
L 89.360938 44.260796 
L 89.696073 45.074797 
L 90.031208 51.585046 
L 90.366343 47.90024 
L 90.701478 50.69369 
L 91.036613 41.876138 
L 91.371748 52.535094 
L 91.706883 53.18343 
L 92.042019 46.379098 
L 92.377154 48.601408 
L 92.712289 49.900733 
L 93.047424 34.132502 
L 93.382559 42.609571 
L 93.717694 44.785885 
L 94.052829 43.064781 
L 94.387965 47.311701 
L 94.7231 37.633257 
L 95.058235 48.364593 
L 95.39337 39.285909 
L 95.728505 39.04064 
L 96.06364 46.040088 
L 96.398775 41.358362 
L 96.73391 46.719857 
L 97.069046 46.75402 
L 97.404181 42.363251 
L 97.739316 45.107626 
L 98.074451 31.373184 
L 98.409586 37.433677 
L 98.744721 34.998204 
L 99.079856 45.285041 
L 99.414992 42.682778 
L 99.750127 48.991115 
L 100.755532 35.526524 
L 101.090667 56.221712 
L 101.425802 38.022141 
L 101.760938 36.087919 
L 102.096073 43.335336 
L 102.431208 37.286072 
L 102.766343 43.87057 
L 103.101478 34.59217 
L 103.771748 38.989097 
L 104.106883 28.867523 
L 104.777154 48.70173 
L 105.112289 48.00382 
L 105.447424 48.64161 
L 105.782559 44.633337 
L 106.117694 55.061295 
L 106.452829 40.89925 
L 106.787965 43.292003 
L 107.1231 42.8955 
L 107.458235 48.999918 
L 107.79337 41.750622 
L 108.128505 49.767431 
L 108.46364 38.505531 
L 108.798775 48.380836 
L 109.13391 50.467476 
L 109.469046 48.02275 
L 109.804181 48.267546 
L 110.139316 42.437138 
L 110.809586 37.919855 
L 111.144721 38.647177 
L 111.814992 51.533951 
L 112.150127 39.355054 
L 112.485262 57.55761 
L 112.820397 37.297059 
L 113.155532 41.628063 
L 113.490667 41.469836 
L 113.825802 37.14363 
L 114.160938 39.160284 
L 114.496073 45.164122 
L 114.831208 44.757499 
L 115.166343 41.987255 
L 115.501478 47.374268 
L 115.836613 47.313984 
L 116.171748 46.807744 
L 116.506883 61.665048 
L 116.842019 44.028056 
L 117.177154 47.517311 
L 117.512289 45.873972 
L 117.847424 45.755677 
L 118.182559 47.924041 
L 118.852829 34.033878 
L 119.187965 44.30995 
L 119.5231 39.448339 
L 119.858235 41.431599 
L 120.19337 35.965689 
L 120.528505 44.348187 
L 120.86364 46.837764 
L 121.198775 50.692096 
L 121.53391 46.194769 
L 121.869046 47.930655 
L 122.204181 44.539268 
L 122.874451 61.674273 
L 123.209586 47.956333 
L 123.544721 52.676989 
L 123.879856 47.764843 
L 124.214992 55.145413 
L 124.550127 45.662537 
L 124.885262 50.343651 
L 125.220397 56.991806 
L 125.555532 54.507546 
L 125.890667 57.094963 
L 126.225802 54.674185 
L 126.560938 58.15607 
L 126.896073 48.398449 
L 127.231208 54.247431 
L 127.566343 52.80751 
L 127.901478 54.52566 
L 128.236613 58.804932 
L 128.571748 50.812784 
L 128.906883 54.206069 
L 129.242019 55.455219 
L 129.577154 52.703138 
L 129.912289 62.060925 
L 130.247424 49.464912 
L 130.582559 60.990669 
L 130.917694 57.066589 
L 131.252829 58.331366 
L 131.587965 53.215795 
L 131.9231 59.835008 
L 132.258235 56.405735 
L 132.59337 55.719871 
L 132.928505 60.166547 
L 133.26364 53.695362 
L 133.598775 63.852206 
L 133.93391 64.765164 
L 134.269046 67.196328 
L 134.604181 65.128874 
L 134.939316 55.130655 
L 135.274451 67.173727 
L 135.609586 71.054632 
L 135.944721 70.553923 
L 136.279856 62.986555 
L 136.614992 69.101808 
L 136.950127 65.473217 
L 137.285262 50.900758 
L 137.620397 63.125554 
L 137.955532 68.070108 
L 138.290667 53.080637 
L 138.625802 69.091717 
L 139.296073 58.390012 
L 139.631208 60.074361 
L 139.966343 64.889178 
L 140.301478 60.633807 
L 140.636613 76.053605 
L 140.971748 70.202573 
L 141.306883 68.862714 
L 141.642019 71.283861 
L 141.977154 65.068203 
L 142.312289 69.840851 
L 142.647424 69.75177 
L 142.982559 68.429063 
L 143.317694 72.54521 
L 143.652829 63.546508 
L 143.987965 71.564363 
L 144.3231 76.83938 
L 144.658235 56.475675 
L 144.99337 77.125998 
L 145.328505 62.871355 
L 145.66364 66.290278 
L 145.998775 58.236416 
L 146.33391 63.014508 
L 146.669046 69.990059 
L 147.004181 70.62189 
L 147.339316 79.539476 
L 148.009586 70.038971 
L 148.679856 82.012214 
L 149.014992 75.3632 
L 149.350127 92.904179 
L 149.685262 82.752498 
L 150.020397 88.465517 
L 150.355532 87.663527 
L 150.690667 76.799116 
L 151.025802 88.140797 
L 151.360938 85.252986 
L 151.696073 75.540013 
L 152.031208 87.383135 
L 152.701478 75.024301 
L 153.036613 90.512137 
L 153.371748 76.442124 
L 153.706883 91.60925 
L 154.042019 89.154725 
L 154.377154 96.64741 
L 154.712289 83.338828 
L 155.047424 95.782008 
L 155.382559 82.292693 
L 155.717694 91.540756 
L 156.052829 87.398294 
L 156.387965 97.132989 
L 156.7231 80.982511 
L 157.058235 84.271139 
L 157.39337 92.186873 
L 157.728505 91.513627 
L 158.06364 96.917781 
L 158.398775 105.730409 
L 158.73391 95.546677 
L 159.069046 93.733319 
L 159.404181 91.12732 
L 159.739316 94.449963 
L 160.074451 88.632759 
L 160.409586 99.858104 
L 160.744721 94.724959 
L 161.079856 105.078091 
L 161.750127 103.344137 
L 162.085262 94.243128 
L 162.420397 98.984449 
L 162.755532 101.08142 
L 163.090667 103.90295 
L 163.425802 110.65945 
L 163.760938 109.748201 
L 164.096073 100.422416 
L 164.431208 107.446781 
L 164.766343 106.335123 
L 165.101478 98.850992 
L 165.436613 104.301627 
L 165.771748 105.769078 
L 166.442019 99.712346 
L 166.777154 108.035443 
L 167.447424 109.392423 
L 167.782559 108.995415 
L 168.117694 114.810622 
L 168.452829 101.127049 
L 168.787965 111.41328 
L 169.1231 110.497292 
L 169.458235 111.294143 
L 169.79337 119.816246 
L 170.128505 115.096637 
L 170.46364 114.675563 
L 170.798775 115.442994 
L 171.13391 110.00296 
L 171.469046 112.172068 
L 171.804181 111.574941 
L 172.139316 110.392293 
L 172.474451 107.534392 
L 172.809586 117.484987 
L 173.144721 116.924725 
L 173.479856 120.635955 
L 173.814992 120.897582 
L 174.485262 104.402443 
L 174.820397 109.645442 
L 175.155532 108.346949 
L 175.490667 110.799588 
L 175.825802 117.592274 
L 176.160938 115.872789 
L 176.496073 117.942821 
L 176.831208 116.540563 
L 177.166343 115.672254 
L 177.501478 113.915949 
L 177.836613 117.112492 
L 178.171748 117.111444 
L 178.506883 117.880776 
L 178.842019 118.969158 
L 179.512289 128.795525 
L 179.847424 125.521628 
L 180.182559 125.37563 
L 180.852829 117.755372 
L 181.187965 116.664476 
L 181.5231 119.793635 
L 181.858235 120.034555 
L 182.19337 118.354227 
L 182.528505 124.016827 
L 182.86364 122.545619 
L 183.198775 126.006673 
L 183.53391 124.914757 
L 183.869046 128.746948 
L 184.204181 128.235767 
L 184.539316 132.000063 
L 184.874451 131.267177 
L 185.209586 134.981538 
L 185.544721 133.986338 
L 185.879856 128.662393 
L 186.214992 128.267029 
L 186.550127 129.28623 
L 186.885262 129.115104 
L 187.220397 125.354094 
L 187.555532 124.579779 
L 187.890667 127.185115 
L 188.225802 131.66292 
L 188.560938 134.132558 
L 188.896073 138.848408 
L 189.566343 133.825011 
L 189.901478 136.87696 
L 190.236613 135.604443 
L 190.571748 137.601954 
L 191.242019 123.100382 
L 191.577154 121.362212 
L 191.912289 122.822035 
L 192.247424 120.044421 
L 192.917694 132.174572 
L 193.252829 131.373665 
L 193.587965 141.465019 
L 193.9231 138.837749 
L 194.258235 139.101888 
L 194.59337 136.915389 
L 194.928505 133.898136 
L 195.26364 135.402057 
L 195.598775 133.605927 
L 195.93391 135.663742 
L 196.269046 140.119595 
L 196.604181 137.154952 
L 196.939316 138.14386 
L 197.274451 141.363838 
L 197.609586 139.586107 
L 198.279856 144.739487 
L 198.614992 144.24556 
L 198.950127 145.607788 
L 199.285262 138.376196 
L 199.620397 140.011114 
L 199.955532 142.37321 
L 200.290667 142.2071 
L 200.625802 141.863 
L 200.960938 140.614937 
L 201.296073 137.257043 
L 201.631208 137.47078 
L 202.636613 141.438682 
L 202.971748 140.991367 
L 203.306883 144.952215 
L 203.977154 138.154412 
L 204.312289 137.765416 
L 204.647424 129.676393 
L 204.982559 133.693108 
L 205.317694 139.542816 
L 205.652829 138.291692 
L 206.3231 149.060267 
L 206.99337 141.207287 
L 207.328505 140.376767 
L 207.66364 136.326254 
L 207.998775 135.527346 
L 208.33391 137.578939 
L 208.669046 138.738894 
L 209.004181 138.321047 
L 209.339316 138.411427 
L 209.674451 136.747988 
L 210.009586 134.338421 
L 210.344721 133.021878 
L 210.679856 132.418866 
L 211.014992 134.828931 
L 211.350127 131.96457 
L 211.685262 136.503184 
L 212.020397 145.897945 
L 212.355532 146.743362 
L 213.025802 140.011229 
L 213.360938 132.236601 
L 214.366343 139.880642 
L 214.701478 138.579869 
L 215.036613 139.522103 
L 215.371748 145.156532 
L 215.706883 141.362669 
L 216.042019 142.695573 
L 216.377154 145.039628 
L 216.712289 135.827116 
L 217.047424 136.756336 
L 217.382559 136.903373 
L 217.717694 140.221556 
L 218.387965 144.462819 
L 218.7231 146.562294 
L 219.058235 144.382834 
L 219.39337 144.557878 
L 220.06364 137.798312 
L 220.398775 144.37523 
L 220.73391 143.805752 
L 221.069046 144.218855 
L 221.404181 145.649609 
L 221.739316 138.737537 
L 222.409586 132.82825 
L 222.744721 134.124927 
L 223.079856 140.127812 
L 223.750127 133.124684 
L 224.085262 133.086003 
L 224.420397 131.719313 
L 224.755532 131.80716 
L 225.090667 141.640002 
L 225.425802 144.214039 
L 225.760938 142.348953 
L 226.096073 143.433332 
L 226.431208 134.091904 
L 226.766343 134.470277 
L 227.101478 138.828806 
L 227.436613 136.715709 
L 227.771748 139.240747 
L 228.106883 132.434016 
L 228.442019 129.805273 
L 228.777154 130.216252 
L 229.112289 129.802786 
L 229.447424 132.709524 
L 229.782559 124.561371 
L 230.117694 130.022171 
L 230.452829 131.261935 
L 230.787965 126.618804 
L 231.1231 129.159952 
L 231.458235 128.029464 
L 232.128505 133.211455 
L 232.46364 133.204347 
L 232.798775 130.766663 
L 233.13391 135.171382 
L 233.469046 134.392549 
L 233.804181 134.17566 
L 234.139316 131.682406 
L 234.474451 131.853092 
L 234.809586 128.257403 
L 235.144721 127.931445 
L 235.479856 127.778723 
L 235.814992 129.190455 
L 236.150127 127.25023 
L 236.820397 129.87484 
L 237.155532 124.186019 
L 237.490667 126.123541 
L 237.825802 119.969301 
L 238.160938 122.767998 
L 238.496073 119.165063 
L 238.831208 121.456776 
L 239.166343 116.049317 
L 239.836613 118.711739 
L 240.171748 123.430543 
L 240.506883 125.684185 
L 240.842019 125.208919 
L 241.177154 125.859888 
L 241.512289 116.718716 
L 241.847424 117.262028 
L 242.182559 109.59611 
L 243.5231 127.842653 
L 243.858235 119.612232 
L 244.19337 115.897888 
L 244.528505 122.255144 
L 244.86364 117.330608 
L 245.198775 121.458321 
L 245.53391 119.215253 
L 245.869046 115.410318 
L 246.204181 121.987376 
L 246.539316 120.037704 
L 246.874451 123.469452 
L 247.544721 120.604796 
L 247.879856 122.413626 
L 248.214992 122.937467 
L 248.550127 118.863504 
L 248.885262 109.515929 
L 249.220397 114.959782 
L 249.555532 110.480708 
L 249.890667 119.024434 
L 250.225802 120.36902 
L 250.896073 115.267526 
L 251.231208 108.478097 
L 251.566343 114.706068 
L 251.901478 108.53163 
L 252.236613 111.404021 
L 252.571748 112.06491 
L 252.906883 97.229947 
L 253.242019 106.106749 
L 253.577154 104.010614 
L 253.912289 94.994063 
L 254.247424 102.86509 
L 254.582559 105.665752 
L 254.917694 102.672998 
L 255.587965 107.641639 
L 255.9231 109.529268 
L 256.258235 104.316579 
L 256.59337 108.593319 
L 257.26364 103.860408 
L 257.598775 101.930946 
L 257.93391 104.547547 
L 258.269046 104.495113 
L 258.604181 100.053011 
L 258.939316 109.126979 
L 259.274451 95.740125 
L 259.609586 108.917966 
L 259.944721 103.399717 
L 260.279856 103.271828 
L 260.614992 105.622278 
L 260.950127 100.735197 
L 261.285262 101.7915 
L 261.620397 101.818204 
L 261.955532 94.302192 
L 262.290667 92.171745 
L 262.625802 98.903343 
L 262.960938 94.821496 
L 263.296073 88.400043 
L 263.631208 100.771732 
L 263.966343 84.9371 
L 264.301478 90.974804 
L 264.636613 85.780676 
L 264.971748 88.624555 
L 265.306883 86.347827 
L 265.642019 91.699742 
L 265.977154 83.483095 
L 266.312289 93.154676 
L 266.647424 81.886265 
L 266.982559 90.920789 
L 267.317694 86.040185 
L 267.652829 88.939157 
L 267.987965 89.99922 
L 268.3231 89.673316 
L 268.658235 93.425403 
L 268.99337 94.437909 
L 269.66364 89.851055 
L 269.998775 84.004329 
L 270.33391 87.899002 
L 270.669046 66.263738 
L 271.004181 75.971798 
L 271.339316 75.79857 
L 271.674451 70.319059 
L 272.009586 76.12465 
L 272.344721 69.259941 
L 272.679856 77.375032 
L 273.014992 71.22823 
L 273.350127 71.68085 
L 273.685262 60.983351 
L 274.020397 70.160722 
L 274.355532 67.271361 
L 274.690667 66.323985 
L 275.025802 77.134986 
L 275.360937 79.142958 
L 275.696073 70.598364 
L 276.031208 74.015065 
L 276.366343 76.133007 
L 276.701478 69.041903 
L 277.036613 74.530152 
L 277.371748 72.159662 
L 277.706883 65.372692 
L 278.042019 66.664122 
L 278.377154 60.139928 
L 278.712289 61.44884 
L 279.047424 73.511795 
L 279.382559 70.921767 
L 279.717694 72.814467 
L 280.052829 65.535711 
L 280.387965 81.288073 
L 280.7231 59.710396 
L 281.058235 68.623993 
L 281.39337 68.689624 
L 281.728505 62.721071 
L 282.06364 64.068181 
L 282.398775 61.855494 
L 282.73391 72.140524 
L 283.069046 64.959424 
L 283.404181 62.538351 
L 283.739316 55.818067 
L 284.074451 56.303419 
L 284.409586 47.077245 
L 284.744721 56.880334 
L 285.079856 57.414123 
L 285.414992 63.550981 
L 285.750127 61.180562 
L 286.085262 66.308671 
L 286.420397 66.309479 
L 286.755532 61.078188 
L 287.090667 65.663079 
L 287.760938 56.181121 
L 288.096073 52.414545 
L 288.431208 58.051992 
L 289.101478 55.246779 
L 289.436613 65.872021 
L 290.106883 54.18555 
L 290.442019 63.989714 
L 290.777154 56.806346 
L 291.112289 55.260902 
L 291.447424 52.85336 
L 291.782559 53.614302 
L 292.117694 58.767241 
L 292.452829 48.40796 
L 292.787965 51.135001 
L 293.1231 45.765826 
L 293.458235 42.846908 
L 293.79337 44.97248 
L 294.128505 45.731779 
L 294.46364 38.156682 
L 294.798775 51.66306 
L 295.13391 42.179917 
L 295.469046 54.520999 
L 295.804181 46.668347 
L 296.139316 53.198137 
L 296.474451 50.551758 
L 296.809586 54.586244 
L 297.144721 50.486418 
L 297.479856 59.926975 
L 297.814992 57.363672 
L 298.150127 58.631923 
L 298.485262 59.236572 
L 298.820397 53.066565 
L 299.155532 59.442978 
L 299.490667 40.314861 
L 299.825802 63.799153 
L 300.160938 46.112749 
L 300.496073 49.630038 
L 300.831208 43.265967 
L 301.166343 40.297103 
L 301.501478 48.80755 
L 301.836613 42.751114 
L 302.171748 42.925393 
L 302.506883 44.668571 
L 302.842019 57.60718 
L 303.177154 43.503899 
L 303.512289 43.493958 
L 303.847424 48.745445 
L 304.182559 44.725905 
L 304.517694 38.508658 
L 304.852829 50.56661 
L 305.187965 39.53894 
L 305.5231 52.074056 
L 305.858235 50.313682 
L 306.19337 49.429368 
L 306.528505 52.480662 
L 306.86364 49.183726 
L 307.198775 55.370962 
L 307.869046 43.464806 
L 308.204181 51.932084 
L 308.539316 44.111646 
L 308.874451 46.868085 
L 309.209586 40.870602 
L 309.544721 54.378143 
L 309.879856 44.203021 
L 310.214992 46.336488 
L 310.550127 38.452201 
L 310.885262 40.443117 
L 311.220397 34.848948 
L 311.555532 48.513212 
L 311.890667 34.651706 
L 312.560938 38.79825 
L 312.896073 30.102802 
L 313.231208 33.057885 
L 313.566343 42.061561 
L 313.901478 36.863883 
L 314.236613 57.663859 
L 314.571748 41.186713 
L 314.906883 45.15319 
L 315.242019 57.333148 
L 315.577154 40.741211 
L 315.912289 53.560939 
L 316.247424 45.156057 
L 316.582559 42.343707 
L 316.917694 43.303673 
L 317.252829 51.952008 
L 317.587965 37.028347 
L 317.9231 44.846132 
L 318.258235 47.090527 
L 318.59337 37.747325 
L 318.928505 37.758919 
L 319.26364 39.210813 
L 319.598775 36.607639 
L 319.93391 47.921472 
L 320.269046 35.096998 
L 320.604181 47.229721 
L 320.939316 49.773592 
L 321.274451 36.065539 
L 321.609586 37.320162 
L 321.944721 43.506253 
L 322.279856 44.345582 
L 322.614992 42.416495 
L 322.950127 48.856246 
L 323.285262 45.917178 
L 323.620397 45.829917 
L 323.955532 54.78951 
L 324.290667 48.919217 
L 324.625802 62.442597 
L 324.960938 51.908997 
L 325.296073 53.96547 
L 325.631208 37.404823 
L 325.966343 47.36493 
L 326.301478 36.515757 
L 326.636613 38.710339 
L 326.971748 36.399946 
L 327.306883 40.511647 
L 327.642019 39.867036 
L 327.977154 36.940552 
L 328.312289 41.636806 
L 328.647424 42.723682 
L 328.982559 50.085889 
L 329.317694 50.55647 
L 329.652829 45.261292 
L 329.987965 54.623169 
L 330.3231 48.473326 
L 330.658235 38.79907 
L 331.328505 50.268597 
L 331.66364 43.936802 
L 331.998775 44.425837 
L 332.33391 43.383354 
L 332.669046 50.639784 
L 333.004181 42.669684 
L 333.339316 41.513579 
L 333.674451 50.017267 
L 334.009586 43.094658 
L 334.344721 55.037427 
L 334.679856 52.690308 
L 335.014992 44.242127 
L 335.350127 56.146233 
L 335.685262 47.22413 
L 336.020397 45.798767 
L 336.355532 53.716548 
L 336.690667 57.856251 
L 337.025802 45.863708 
L 337.360937 54.691451 
L 338.031208 55.468143 
L 338.366343 60.93611 
L 338.701478 49.354418 
L 339.036613 58.818992 
L 339.371748 51.579619 
L 339.706883 54.648057 
L 340.042019 48.629352 
L 340.377154 56.083141 
L 340.712289 44.933101 
L 341.047424 51.622193 
L 341.382559 50.536192 
L 341.717694 53.974195 
L 342.052829 47.640256 
L 342.387965 46.10472 
L 342.7231 60.585087 
L 343.058235 48.885361 
L 343.39337 47.450499 
L 343.728505 59.121987 
L 344.06364 54.279246 
L 344.398775 53.916341 
L 344.73391 51.057679 
L 345.069046 60.549385 
L 345.404181 63.961164 
L 345.739316 66.016778 
L 346.074451 59.974243 
L 346.409586 66.597981 
L 346.744721 69.585444 
L 347.079856 67.271649 
L 347.414992 55.285933 
L 347.750127 51.431762 
L 348.085262 57.691987 
L 348.755532 51.65869 
L 349.090667 63.797744 
L 349.425802 56.282618 
L 349.760938 52.590819 
L 350.096073 60.117293 
L 350.431208 55.168169 
L 350.766343 65.827495 
L 351.101478 64.14219 
L 351.436613 66.765369 
L 351.771748 76.084047 
L 352.106883 73.023684 
L 352.442019 73.337877 
L 352.777154 77.904371 
L 353.112289 75.386889 
L 353.447424 63.415386 
L 353.782559 67.951108 
L 354.117694 63.762999 
L 354.452829 69.437712 
L 354.787965 68.215563 
L 355.1231 73.399145 
L 355.458235 75.846557 
L 355.79337 74.889244 
L 356.128505 80.008785 
L 356.46364 78.028991 
L 356.798775 71.262836 
L 357.13391 81.616131 
L 357.469046 68.025722 
L 358.139316 73.631049 
L 358.474451 71.28483 
L 358.809586 74.32787 
L 359.144721 72.667228 
L 359.479856 74.515244 
L 359.814992 74.177144 
L 360.150127 72.242123 
L 360.485262 68.268051 
L 360.820397 78.235546 
L 361.155532 75.515686 
L 361.490667 81.99577 
L 361.825802 83.219377 
L 362.160938 76.079001 
L 362.496073 77.387617 
L 362.831208 79.628011 
L 363.166343 87.041239 
L 363.501478 75.823589 
L 363.836613 93.182049 
L 364.171748 75.346676 
L 364.842019 80.816993 
L 365.177154 79.768174 
L 365.512289 86.783721 
L 365.847424 78.71334 
L 366.182559 95.797925 
L 366.517694 77.077024 
L 367.187965 94.688599 
L 367.5231 82.119165 
L 367.858235 98.743587 
L 368.19337 90.58513 
L 368.528505 92.372461 
L 368.86364 95.412327 
L 369.198775 100.820786 
L 369.53391 91.050603 
L 369.869046 103.720466 
L 370.204181 94.838757 
L 370.539316 96.445448 
L 370.874451 103.750298 
L 371.209586 103.33637 
L 371.544721 105.857281 
L 371.879856 103.453537 
L 372.214992 103.739869 
L 372.550127 94.112104 
L 372.885262 91.511564 
L 373.220397 100.199083 
L 373.555532 86.192094 
L 373.890667 102.381307 
L 374.225802 99.702003 
L 374.560938 94.075102 
L 374.896073 91.271314 
L 375.231208 96.037594 
L 375.566343 97.711071 
L 375.901478 98.010829 
L 376.236613 104.860002 
L 376.571748 108.323643 
L 376.906883 107.171407 
L 377.242019 110.618108 
L 377.577154 112.45827 
L 377.912289 110.277857 
L 378.247424 112.93862 
L 378.582559 113.479829 
L 378.917694 111.835794 
L 379.252829 116.199798 
L 379.587965 117.053017 
L 379.9231 117.572643 
L 380.258235 120.285773 
L 380.59337 116.791319 
L 380.928505 114.52201 
L 381.26364 118.492892 
L 381.93391 112.919535 
L 382.269046 109.971534 
L 382.604181 109.264292 
L 382.939316 112.948776 
L 383.274451 115.404002 
L 383.609586 111.971767 
L 383.944721 118.768846 
L 384.279856 113.30683 
L 384.614992 117.850568 
L 384.950127 115.861016 
L 385.285262 111.259577 
L 385.620397 112.466075 
L 385.955532 110.751482 
L 386.290667 118.205939 
L 386.625802 116.905919 
L 386.960938 119.305605 
L 386.960938 119.305605 
" clip-path="url(#p72b1581489)" style="fill: none; stroke-dasharray: 5.55,2.4; stroke-dashoffset: 0; stroke: #bf00bf; stroke-width: 1.5"/>
   </g>
   <g id="patch_3">
    <path d="M 52.160938 173.52 
L 52.160938 7.2 
" style="fill: none; stroke: #000000; stroke-width: 0.8; stroke-linejoin: miter; stroke-linecap: square"/>
   </g>
   <g id="patch_4">
    <path d="M 386.960938 173.52 
L 386.960938 7.2 
" style="fill: none; stroke: #000000; stroke-width: 0.8; stroke-linejoin: miter; stroke-linecap: square"/>
   </g>
   <g id="patch_5">
    <path d="M 52.160938 173.52 
L 386.960938 173.52 
" style="fill: none; stroke: #000000; stroke-width: 0.8; stroke-linejoin: miter; stroke-linecap: square"/>
   </g>
   <g id="patch_6">
    <path d="M 52.160938 7.2 
L 386.960938 7.2 
" style="fill: none; stroke: #000000; stroke-width: 0.8; stroke-linejoin: miter; stroke-linecap: square"/>
   </g>
   <g id="legend_1">
    <g id="patch_7">
     <path d="M 59.160938 168.52 
L 153.885938 168.52 
Q 155.885938 168.52 155.885938 166.52 
L 155.885938 138.16375 
Q 155.885938 136.16375 153.885938 136.16375 
L 59.160938 136.16375 
Q 57.160938 136.16375 57.160938 138.16375 
L 57.160938 166.52 
Q 57.160938 168.52 59.160938 168.52 
z
" style="fill: #ffffff; opacity: 0.8; stroke: #cccccc; stroke-linejoin: miter"/>
    </g>
    <g id="line2d_27">
     <path d="M 61.160938 144.262188 
L 71.160938 144.262188 
L 81.160938 144.262188 
" style="fill: none; stroke: #1f77b4; stroke-width: 1.5; stroke-linecap: square"/>
    </g>
    <g id="text_15">
     <!-- data -->
     <g transform="translate(89.160938 147.762188)scale(0.1 -0.1)">
      <defs>
       <path id="DejaVuSans-64" d="M 2906 2969 
L 2906 4863 
L 3481 4863 
L 3481 0 
L 2906 0 
L 2906 525 
Q 2725 213 2448 61 
Q 2172 -91 1784 -91 
Q 1150 -91 751 415 
Q 353 922 353 1747 
Q 353 2572 751 3078 
Q 1150 3584 1784 3584 
Q 2172 3584 2448 3432 
Q 2725 3281 2906 2969 
z
M 947 1747 
Q 947 1113 1208 752 
Q 1469 391 1925 391 
Q 2381 391 2643 752 
Q 2906 1113 2906 1747 
Q 2906 2381 2643 2742 
Q 2381 3103 1925 3103 
Q 1469 3103 1208 2742 
Q 947 2381 947 1747 
z
" transform="scale(0.015625)"/>
       <path id="DejaVuSans-61" d="M 2194 1759 
Q 1497 1759 1228 1600 
Q 959 1441 959 1056 
Q 959 750 1161 570 
Q 1363 391 1709 391 
Q 2188 391 2477 730 
Q 2766 1069 2766 1631 
L 2766 1759 
L 2194 1759 
z
M 3341 1997 
L 3341 0 
L 2766 0 
L 2766 531 
Q 2569 213 2275 61 
Q 1981 -91 1556 -91 
Q 1019 -91 701 211 
Q 384 513 384 1019 
Q 384 1609 779 1909 
Q 1175 2209 1959 2209 
L 2766 2209 
L 2766 2266 
Q 2766 2663 2505 2880 
Q 2244 3097 1772 3097 
Q 1472 3097 1187 3025 
Q 903 2953 641 2809 
L 641 3341 
Q 956 3463 1253 3523 
Q 1550 3584 1831 3584 
Q 2591 3584 2966 3190 
Q 3341 2797 3341 1997 
z
" transform="scale(0.015625)"/>
      </defs>
      <use xlink:href="#DejaVuSans-64"/>
      <use xlink:href="#DejaVuSans-61" x="63.476562"/>
      <use xlink:href="#DejaVuSans-74" x="124.755859"/>
      <use xlink:href="#DejaVuSans-61" x="163.964844"/>
     </g>
    </g>
    <g id="line2d_28">
     <path d="M 61.160938 158.940313 
L 71.160938 158.940313 
L 81.160938 158.940313 
" style="fill: none; stroke-dasharray: 5.55,2.4; stroke-dashoffset: 0; stroke: #bf00bf; stroke-width: 1.5"/>
    </g>
    <g id="text_16">
     <!-- 1-step preds -->
     <g transform="translate(89.160938 162.440313)scale(0.1 -0.1)">
      <defs>
       <path id="DejaVuSans-2d" d="M 313 2009 
L 1997 2009 
L 1997 1497 
L 313 1497 
L 313 2009 
z
" transform="scale(0.015625)"/>
       <path id="DejaVuSans-73" d="M 2834 3397 
L 2834 2853 
Q 2591 2978 2328 3040 
Q 2066 3103 1784 3103 
Q 1356 3103 1142 2972 
Q 928 2841 928 2578 
Q 928 2378 1081 2264 
Q 1234 2150 1697 2047 
L 1894 2003 
Q 2506 1872 2764 1633 
Q 3022 1394 3022 966 
Q 3022 478 2636 193 
Q 2250 -91 1575 -91 
Q 1294 -91 989 -36 
Q 684 19 347 128 
L 347 722 
Q 666 556 975 473 
Q 1284 391 1588 391 
Q 1994 391 2212 530 
Q 2431 669 2431 922 
Q 2431 1156 2273 1281 
Q 2116 1406 1581 1522 
L 1381 1569 
Q 847 1681 609 1914 
Q 372 2147 372 2553 
Q 372 3047 722 3315 
Q 1072 3584 1716 3584 
Q 2034 3584 2315 3537 
Q 2597 3491 2834 3397 
z
" transform="scale(0.015625)"/>
       <path id="DejaVuSans-70" d="M 1159 525 
L 1159 -1331 
L 581 -1331 
L 581 3500 
L 1159 3500 
L 1159 2969 
Q 1341 3281 1617 3432 
Q 1894 3584 2278 3584 
Q 2916 3584 3314 3078 
Q 3713 2572 3713 1747 
Q 3713 922 3314 415 
Q 2916 -91 2278 -91 
Q 1894 -91 1617 61 
Q 1341 213 1159 525 
z
M 3116 1747 
Q 3116 2381 2855 2742 
Q 2594 3103 2138 3103 
Q 1681 3103 1420 2742 
Q 1159 2381 1159 1747 
Q 1159 1113 1420 752 
Q 1681 391 2138 391 
Q 2594 391 2855 752 
Q 3116 1113 3116 1747 
z
" transform="scale(0.015625)"/>
       <path id="DejaVuSans-20" transform="scale(0.015625)"/>
       <path id="DejaVuSans-72" d="M 2631 2963 
Q 2534 3019 2420 3045 
Q 2306 3072 2169 3072 
Q 1681 3072 1420 2755 
Q 1159 2438 1159 1844 
L 1159 0 
L 581 0 
L 581 3500 
L 1159 3500 
L 1159 2956 
Q 1341 3275 1631 3429 
Q 1922 3584 2338 3584 
Q 2397 3584 2469 3576 
Q 2541 3569 2628 3553 
L 2631 2963 
z
" transform="scale(0.015625)"/>
      </defs>
      <use xlink:href="#DejaVuSans-31"/>
      <use xlink:href="#DejaVuSans-2d" x="63.623047"/>
      <use xlink:href="#DejaVuSans-73" x="99.707031"/>
      <use xlink:href="#DejaVuSans-74" x="151.806641"/>
      <use xlink:href="#DejaVuSans-65" x="191.015625"/>
      <use xlink:href="#DejaVuSans-70" x="252.539062"/>
      <use xlink:href="#DejaVuSans-20" x="316.015625"/>
      <use xlink:href="#DejaVuSans-70" x="347.802734"/>
      <use xlink:href="#DejaVuSans-72" x="411.279297"/>
      <use xlink:href="#DejaVuSans-65" x="450.142578"/>
      <use xlink:href="#DejaVuSans-64" x="511.666016"/>
      <use xlink:href="#DejaVuSans-73" x="575.142578"/>
     </g>
    </g>
   </g>
  </g>
 </g>
 <defs>
  <clipPath id="p72b1581489">
   <rect x="52.160938" y="7.2" width="334.8" height="166.32"/>
  </clipPath>
 </defs>
</svg>
