<?xml version="1.0" encoding="utf-8" standalone="no"?>
<!DOCTYPE svg PUBLIC "-//W3C//DTD SVG 1.1//EN"
  "http://www.w3.org/Graphics/SVG/1.1/DTD/svg11.dtd">
<svg xmlns:xlink="http://www.w3.org/1999/xlink" width="406.885938pt" height="211.07625pt" viewBox="0 0 406.885938 211.07625" xmlns="http://www.w3.org/2000/svg" version="1.1">
 <metadata>
  <rdf:RDF xmlns:dc="http://purl.org/dc/elements/1.1/" xmlns:cc="http://creativecommons.org/ns#" xmlns:rdf="http://www.w3.org/1999/02/22-rdf-syntax-ns#">
   <cc:Work>
    <dc:type rdf:resource="http://purl.org/dc/dcmitype/StillImage"/>
    <dc:date>2023-06-20T23:27:46.112018</dc:date>
    <dc:format>image/svg+xml</dc:format>
    <dc:creator>
     <cc:Agent>
      <dc:title>Matplotlib v3.5.1, https://matplotlib.org/</dc:title>
     </cc:Agent>
    </dc:creator>
   </cc:Work>
  </rdf:RDF>
 </metadata>
 <defs>
  <style type="text/css">*{stroke-linejoin: round; stroke-linecap: butt}</style>
 </defs>
 <g id="figure_1">
  <g id="patch_1">
   <path d="M 0 211.07625 
L 406.885938 211.07625 
L 406.885938 0 
L 0 0 
z
" style="fill: #ffffff"/>
  </g>
  <g id="axes_1">
   <g id="patch_2">
    <path d="M 52.160938 173.52 
L 386.960938 173.52 
L 386.960938 7.2 
L 52.160938 7.2 
z
" style="fill: #ffffff"/>
   </g>
   <g id="matplotlib.axis_1">
    <g id="xtick_1">
     <g id="line2d_1">
      <path d="M 118.852829 173.52 
L 118.852829 7.2 
" clip-path="url(#p7aae2e658d)" style="fill: none; stroke: #b0b0b0; stroke-width: 0.8; stroke-linecap: square"/>
     </g>
     <g id="line2d_2">
      <defs>
       <path id="mbbe4a8fae5" d="M 0 0 
L 0 3.5 
" style="stroke: #000000; stroke-width: 0.8"/>
      </defs>
      <g>
       <use xlink:href="#mbbe4a8fae5" x="118.852829" y="173.52" style="stroke: #000000; stroke-width: 0.8"/>
      </g>
     </g>
     <g id="text_1">
      <!-- 200 -->
      <g transform="translate(109.309079 188.118438)scale(0.1 -0.1)">
       <defs>
        <path id="DejaVuSans-32" d="M 1228 531 
L 3431 531 
L 3431 0 
L 469 0 
L 469 531 
Q 828 903 1448 1529 
Q 2069 2156 2228 2338 
Q 2531 2678 2651 2914 
Q 2772 3150 2772 3378 
Q 2772 3750 2511 3984 
Q 2250 4219 1831 4219 
Q 1534 4219 1204 4116 
Q 875 4013 500 3803 
L 500 4441 
Q 881 4594 1212 4672 
Q 1544 4750 1819 4750 
Q 2544 4750 2975 4387 
Q 3406 4025 3406 3419 
Q 3406 3131 3298 2873 
Q 3191 2616 2906 2266 
Q 2828 2175 2409 1742 
Q 1991 1309 1228 531 
z
" transform="scale(0.015625)"/>
        <path id="DejaVuSans-30" d="M 2034 4250 
Q 1547 4250 1301 3770 
Q 1056 3291 1056 2328 
Q 1056 1369 1301 889 
Q 1547 409 2034 409 
Q 2525 409 2770 889 
Q 3016 1369 3016 2328 
Q 3016 3291 2770 3770 
Q 2525 4250 2034 4250 
z
M 2034 4750 
Q 2819 4750 3233 4129 
Q 3647 3509 3647 2328 
Q 3647 1150 3233 529 
Q 2819 -91 2034 -91 
Q 1250 -91 836 529 
Q 422 1150 422 2328 
Q 422 3509 836 4129 
Q 1250 4750 2034 4750 
z
" transform="scale(0.015625)"/>
       </defs>
       <use xlink:href="#DejaVuSans-32"/>
       <use xlink:href="#DejaVuSans-30" x="63.623047"/>
       <use xlink:href="#DejaVuSans-30" x="127.246094"/>
      </g>
     </g>
    </g>
    <g id="xtick_2">
     <g id="line2d_3">
      <path d="M 185.879856 173.52 
L 185.879856 7.2 
" clip-path="url(#p7aae2e658d)" style="fill: none; stroke: #b0b0b0; stroke-width: 0.8; stroke-linecap: square"/>
     </g>
     <g id="line2d_4">
      <g>
       <use xlink:href="#mbbe4a8fae5" x="185.879856" y="173.52" style="stroke: #000000; stroke-width: 0.8"/>
      </g>
     </g>
     <g id="text_2">
      <!-- 400 -->
      <g transform="translate(176.336106 188.118438)scale(0.1 -0.1)">
       <defs>
        <path id="DejaVuSans-34" d="M 2419 4116 
L 825 1625 
L 2419 1625 
L 2419 4116 
z
M 2253 4666 
L 3047 4666 
L 3047 1625 
L 3713 1625 
L 3713 1100 
L 3047 1100 
L 3047 0 
L 2419 0 
L 2419 1100 
L 313 1100 
L 313 1709 
L 2253 4666 
z
" transform="scale(0.015625)"/>
       </defs>
       <use xlink:href="#DejaVuSans-34"/>
       <use xlink:href="#DejaVuSans-30" x="63.623047"/>
       <use xlink:href="#DejaVuSans-30" x="127.246094"/>
      </g>
     </g>
    </g>
    <g id="xtick_3">
     <g id="line2d_5">
      <path d="M 252.906883 173.52 
L 252.906883 7.2 
" clip-path="url(#p7aae2e658d)" style="fill: none; stroke: #b0b0b0; stroke-width: 0.8; stroke-linecap: square"/>
     </g>
     <g id="line2d_6">
      <g>
       <use xlink:href="#mbbe4a8fae5" x="252.906883" y="173.52" style="stroke: #000000; stroke-width: 0.8"/>
      </g>
     </g>
     <g id="text_3">
      <!-- 600 -->
      <g transform="translate(243.363133 188.118438)scale(0.1 -0.1)">
       <defs>
        <path id="DejaVuSans-36" d="M 2113 2584 
Q 1688 2584 1439 2293 
Q 1191 2003 1191 1497 
Q 1191 994 1439 701 
Q 1688 409 2113 409 
Q 2538 409 2786 701 
Q 3034 994 3034 1497 
Q 3034 2003 2786 2293 
Q 2538 2584 2113 2584 
z
M 3366 4563 
L 3366 3988 
Q 3128 4100 2886 4159 
Q 2644 4219 2406 4219 
Q 1781 4219 1451 3797 
Q 1122 3375 1075 2522 
Q 1259 2794 1537 2939 
Q 1816 3084 2150 3084 
Q 2853 3084 3261 2657 
Q 3669 2231 3669 1497 
Q 3669 778 3244 343 
Q 2819 -91 2113 -91 
Q 1303 -91 875 529 
Q 447 1150 447 2328 
Q 447 3434 972 4092 
Q 1497 4750 2381 4750 
Q 2619 4750 2861 4703 
Q 3103 4656 3366 4563 
z
" transform="scale(0.015625)"/>
       </defs>
       <use xlink:href="#DejaVuSans-36"/>
       <use xlink:href="#DejaVuSans-30" x="63.623047"/>
       <use xlink:href="#DejaVuSans-30" x="127.246094"/>
      </g>
     </g>
    </g>
    <g id="xtick_4">
     <g id="line2d_7">
      <path d="M 319.93391 173.52 
L 319.93391 7.2 
" clip-path="url(#p7aae2e658d)" style="fill: none; stroke: #b0b0b0; stroke-width: 0.8; stroke-linecap: square"/>
     </g>
     <g id="line2d_8">
      <g>
       <use xlink:href="#mbbe4a8fae5" x="319.93391" y="173.52" style="stroke: #000000; stroke-width: 0.8"/>
      </g>
     </g>
     <g id="text_4">
      <!-- 800 -->
      <g transform="translate(310.39016 188.118438)scale(0.1 -0.1)">
       <defs>
        <path id="DejaVuSans-38" d="M 2034 2216 
Q 1584 2216 1326 1975 
Q 1069 1734 1069 1313 
Q 1069 891 1326 650 
Q 1584 409 2034 409 
Q 2484 409 2743 651 
Q 3003 894 3003 1313 
Q 3003 1734 2745 1975 
Q 2488 2216 2034 2216 
z
M 1403 2484 
Q 997 2584 770 2862 
Q 544 3141 544 3541 
Q 544 4100 942 4425 
Q 1341 4750 2034 4750 
Q 2731 4750 3128 4425 
Q 3525 4100 3525 3541 
Q 3525 3141 3298 2862 
Q 3072 2584 2669 2484 
Q 3125 2378 3379 2068 
Q 3634 1759 3634 1313 
Q 3634 634 3220 271 
Q 2806 -91 2034 -91 
Q 1263 -91 848 271 
Q 434 634 434 1313 
Q 434 1759 690 2068 
Q 947 2378 1403 2484 
z
M 1172 3481 
Q 1172 3119 1398 2916 
Q 1625 2713 2034 2713 
Q 2441 2713 2670 2916 
Q 2900 3119 2900 3481 
Q 2900 3844 2670 4047 
Q 2441 4250 2034 4250 
Q 1625 4250 1398 4047 
Q 1172 3844 1172 3481 
z
" transform="scale(0.015625)"/>
       </defs>
       <use xlink:href="#DejaVuSans-38"/>
       <use xlink:href="#DejaVuSans-30" x="63.623047"/>
       <use xlink:href="#DejaVuSans-30" x="127.246094"/>
      </g>
     </g>
    </g>
    <g id="xtick_5">
     <g id="line2d_9">
      <path d="M 386.960938 173.52 
L 386.960938 7.2 
" clip-path="url(#p7aae2e658d)" style="fill: none; stroke: #b0b0b0; stroke-width: 0.8; stroke-linecap: square"/>
     </g>
     <g id="line2d_10">
      <g>
       <use xlink:href="#mbbe4a8fae5" x="386.960938" y="173.52" style="stroke: #000000; stroke-width: 0.8"/>
      </g>
     </g>
     <g id="text_5">
      <!-- 1000 -->
      <g transform="translate(374.235937 188.118438)scale(0.1 -0.1)">
       <defs>
        <path id="DejaVuSans-31" d="M 794 531 
L 1825 531 
L 1825 4091 
L 703 3866 
L 703 4441 
L 1819 4666 
L 2450 4666 
L 2450 531 
L 3481 531 
L 3481 0 
L 794 0 
L 794 531 
z
" transform="scale(0.015625)"/>
       </defs>
       <use xlink:href="#DejaVuSans-31"/>
       <use xlink:href="#DejaVuSans-30" x="63.623047"/>
       <use xlink:href="#DejaVuSans-30" x="127.246094"/>
       <use xlink:href="#DejaVuSans-30" x="190.869141"/>
      </g>
     </g>
    </g>
    <g id="text_6">
     <!-- time -->
     <g transform="translate(208.264844 201.796563)scale(0.1 -0.1)">
      <defs>
       <path id="DejaVuSans-74" d="M 1172 4494 
L 1172 3500 
L 2356 3500 
L 2356 3053 
L 1172 3053 
L 1172 1153 
Q 1172 725 1289 603 
Q 1406 481 1766 481 
L 2356 481 
L 2356 0 
L 1766 0 
Q 1100 0 847 248 
Q 594 497 594 1153 
L 594 3053 
L 172 3053 
L 172 3500 
L 594 3500 
L 594 4494 
L 1172 4494 
z
" transform="scale(0.015625)"/>
       <path id="DejaVuSans-69" d="M 603 3500 
L 1178 3500 
L 1178 0 
L 603 0 
L 603 3500 
z
M 603 4863 
L 1178 4863 
L 1178 4134 
L 603 4134 
L 603 4863 
z
" transform="scale(0.015625)"/>
       <path id="DejaVuSans-6d" d="M 3328 2828 
Q 3544 3216 3844 3400 
Q 4144 3584 4550 3584 
Q 5097 3584 5394 3201 
Q 5691 2819 5691 2113 
L 5691 0 
L 5113 0 
L 5113 2094 
Q 5113 2597 4934 2840 
Q 4756 3084 4391 3084 
Q 3944 3084 3684 2787 
Q 3425 2491 3425 1978 
L 3425 0 
L 2847 0 
L 2847 2094 
Q 2847 2600 2669 2842 
Q 2491 3084 2119 3084 
Q 1678 3084 1418 2786 
Q 1159 2488 1159 1978 
L 1159 0 
L 581 0 
L 581 3500 
L 1159 3500 
L 1159 2956 
Q 1356 3278 1631 3431 
Q 1906 3584 2284 3584 
Q 2666 3584 2933 3390 
Q 3200 3197 3328 2828 
z
" transform="scale(0.015625)"/>
       <path id="DejaVuSans-65" d="M 3597 1894 
L 3597 1613 
L 953 1613 
Q 991 1019 1311 708 
Q 1631 397 2203 397 
Q 2534 397 2845 478 
Q 3156 559 3463 722 
L 3463 178 
Q 3153 47 2828 -22 
Q 2503 -91 2169 -91 
Q 1331 -91 842 396 
Q 353 884 353 1716 
Q 353 2575 817 3079 
Q 1281 3584 2069 3584 
Q 2775 3584 3186 3129 
Q 3597 2675 3597 1894 
z
M 3022 2063 
Q 3016 2534 2758 2815 
Q 2500 3097 2075 3097 
Q 1594 3097 1305 2825 
Q 1016 2553 972 2059 
L 3022 2063 
z
" transform="scale(0.015625)"/>
      </defs>
      <use xlink:href="#DejaVuSans-74"/>
      <use xlink:href="#DejaVuSans-69" x="39.208984"/>
      <use xlink:href="#DejaVuSans-6d" x="66.992188"/>
      <use xlink:href="#DejaVuSans-65" x="164.404297"/>
     </g>
    </g>
   </g>
   <g id="matplotlib.axis_2">
    <g id="ytick_1">
     <g id="line2d_11">
      <path d="M 52.160938 168.376348 
L 386.960938 168.376348 
" clip-path="url(#p7aae2e658d)" style="fill: none; stroke: #b0b0b0; stroke-width: 0.8; stroke-linecap: square"/>
     </g>
     <g id="line2d_12">
      <defs>
       <path id="md5f2f47c8b" d="M 0 0 
L -3.5 0 
" style="stroke: #000000; stroke-width: 0.8"/>
      </defs>
      <g>
       <use xlink:href="#md5f2f47c8b" x="52.160938" y="168.376348" style="stroke: #000000; stroke-width: 0.8"/>
      </g>
     </g>
     <g id="text_7">
      <!-- −1.5 -->
      <g transform="translate(20.878125 172.175567)scale(0.1 -0.1)">
       <defs>
        <path id="DejaVuSans-2212" d="M 678 2272 
L 4684 2272 
L 4684 1741 
L 678 1741 
L 678 2272 
z
" transform="scale(0.015625)"/>
        <path id="DejaVuSans-2e" d="M 684 794 
L 1344 794 
L 1344 0 
L 684 0 
L 684 794 
z
" transform="scale(0.015625)"/>
        <path id="DejaVuSans-35" d="M 691 4666 
L 3169 4666 
L 3169 4134 
L 1269 4134 
L 1269 2991 
Q 1406 3038 1543 3061 
Q 1681 3084 1819 3084 
Q 2600 3084 3056 2656 
Q 3513 2228 3513 1497 
Q 3513 744 3044 326 
Q 2575 -91 1722 -91 
Q 1428 -91 1123 -41 
Q 819 9 494 109 
L 494 744 
Q 775 591 1075 516 
Q 1375 441 1709 441 
Q 2250 441 2565 725 
Q 2881 1009 2881 1497 
Q 2881 1984 2565 2268 
Q 2250 2553 1709 2553 
Q 1456 2553 1204 2497 
Q 953 2441 691 2322 
L 691 4666 
z
" transform="scale(0.015625)"/>
       </defs>
       <use xlink:href="#DejaVuSans-2212"/>
       <use xlink:href="#DejaVuSans-31" x="83.789062"/>
       <use xlink:href="#DejaVuSans-2e" x="147.412109"/>
       <use xlink:href="#DejaVuSans-35" x="179.199219"/>
      </g>
     </g>
    </g>
    <g id="ytick_2">
     <g id="line2d_13">
      <path d="M 52.160938 142.903203 
L 386.960938 142.903203 
" clip-path="url(#p7aae2e658d)" style="fill: none; stroke: #b0b0b0; stroke-width: 0.8; stroke-linecap: square"/>
     </g>
     <g id="line2d_14">
      <g>
       <use xlink:href="#md5f2f47c8b" x="52.160938" y="142.903203" style="stroke: #000000; stroke-width: 0.8"/>
      </g>
     </g>
     <g id="text_8">
      <!-- −1.0 -->
      <g transform="translate(20.878125 146.702421)scale(0.1 -0.1)">
       <use xlink:href="#DejaVuSans-2212"/>
       <use xlink:href="#DejaVuSans-31" x="83.789062"/>
       <use xlink:href="#DejaVuSans-2e" x="147.412109"/>
       <use xlink:href="#DejaVuSans-30" x="179.199219"/>
      </g>
     </g>
    </g>
    <g id="ytick_3">
     <g id="line2d_15">
      <path d="M 52.160938 117.430057 
L 386.960938 117.430057 
" clip-path="url(#p7aae2e658d)" style="fill: none; stroke: #b0b0b0; stroke-width: 0.8; stroke-linecap: square"/>
     </g>
     <g id="line2d_16">
      <g>
       <use xlink:href="#md5f2f47c8b" x="52.160938" y="117.430057" style="stroke: #000000; stroke-width: 0.8"/>
      </g>
     </g>
     <g id="text_9">
      <!-- −0.5 -->
      <g transform="translate(20.878125 121.229276)scale(0.1 -0.1)">
       <use xlink:href="#DejaVuSans-2212"/>
       <use xlink:href="#DejaVuSans-30" x="83.789062"/>
       <use xlink:href="#DejaVuSans-2e" x="147.412109"/>
       <use xlink:href="#DejaVuSans-35" x="179.199219"/>
      </g>
     </g>
    </g>
    <g id="ytick_4">
     <g id="line2d_17">
      <path d="M 52.160938 91.956912 
L 386.960938 91.956912 
" clip-path="url(#p7aae2e658d)" style="fill: none; stroke: #b0b0b0; stroke-width: 0.8; stroke-linecap: square"/>
     </g>
     <g id="line2d_18">
      <g>
       <use xlink:href="#md5f2f47c8b" x="52.160938" y="91.956912" style="stroke: #000000; stroke-width: 0.8"/>
      </g>
     </g>
     <g id="text_10">
      <!-- 0.0 -->
      <g transform="translate(29.257812 95.756131)scale(0.1 -0.1)">
       <use xlink:href="#DejaVuSans-30"/>
       <use xlink:href="#DejaVuSans-2e" x="63.623047"/>
       <use xlink:href="#DejaVuSans-30" x="95.410156"/>
      </g>
     </g>
    </g>
    <g id="ytick_5">
     <g id="line2d_19">
      <path d="M 52.160938 66.483767 
L 386.960938 66.483767 
" clip-path="url(#p7aae2e658d)" style="fill: none; stroke: #b0b0b0; stroke-width: 0.8; stroke-linecap: square"/>
     </g>
     <g id="line2d_20">
      <g>
       <use xlink:href="#md5f2f47c8b" x="52.160938" y="66.483767" style="stroke: #000000; stroke-width: 0.8"/>
      </g>
     </g>
     <g id="text_11">
      <!-- 0.5 -->
      <g transform="translate(29.257812 70.282985)scale(0.1 -0.1)">
       <use xlink:href="#DejaVuSans-30"/>
       <use xlink:href="#DejaVuSans-2e" x="63.623047"/>
       <use xlink:href="#DejaVuSans-35" x="95.410156"/>
      </g>
     </g>
    </g>
    <g id="ytick_6">
     <g id="line2d_21">
      <path d="M 52.160938 41.010621 
L 386.960938 41.010621 
" clip-path="url(#p7aae2e658d)" style="fill: none; stroke: #b0b0b0; stroke-width: 0.8; stroke-linecap: square"/>
     </g>
     <g id="line2d_22">
      <g>
       <use xlink:href="#md5f2f47c8b" x="52.160938" y="41.010621" style="stroke: #000000; stroke-width: 0.8"/>
      </g>
     </g>
     <g id="text_12">
      <!-- 1.0 -->
      <g transform="translate(29.257812 44.80984)scale(0.1 -0.1)">
       <use xlink:href="#DejaVuSans-31"/>
       <use xlink:href="#DejaVuSans-2e" x="63.623047"/>
       <use xlink:href="#DejaVuSans-30" x="95.410156"/>
      </g>
     </g>
    </g>
    <g id="ytick_7">
     <g id="line2d_23">
      <path d="M 52.160938 15.537476 
L 386.960938 15.537476 
" clip-path="url(#p7aae2e658d)" style="fill: none; stroke: #b0b0b0; stroke-width: 0.8; stroke-linecap: square"/>
     </g>
     <g id="line2d_24">
      <g>
       <use xlink:href="#md5f2f47c8b" x="52.160938" y="15.537476" style="stroke: #000000; stroke-width: 0.8"/>
      </g>
     </g>
     <g id="text_13">
      <!-- 1.5 -->
      <g transform="translate(29.257812 19.336695)scale(0.1 -0.1)">
       <use xlink:href="#DejaVuSans-31"/>
       <use xlink:href="#DejaVuSans-2e" x="63.623047"/>
       <use xlink:href="#DejaVuSans-35" x="95.410156"/>
      </g>
     </g>
    </g>
    <g id="text_14">
     <!-- x -->
     <g transform="translate(14.798438 93.319375)rotate(-90)scale(0.1 -0.1)">
      <defs>
       <path id="DejaVuSans-78" d="M 3513 3500 
L 2247 1797 
L 3578 0 
L 2900 0 
L 1881 1375 
L 863 0 
L 184 0 
L 1544 1831 
L 300 3500 
L 978 3500 
L 1906 2253 
L 2834 3500 
L 3513 3500 
z
" transform="scale(0.015625)"/>
      </defs>
      <use xlink:href="#DejaVuSans-78"/>
     </g>
    </g>
   </g>
   <g id="line2d_25">
    <path d="M 52.160938 96.28247 
L 52.496073 83.043805 
L 52.831208 89.89255 
L 53.166343 66.836171 
L 53.836613 89.39924 
L 54.171748 92.210427 
L 54.506883 98.878728 
L 54.842019 99.198966 
L 55.177154 79.365415 
L 55.512289 91.107874 
L 55.847424 108.392814 
L 56.182559 80.16352 
L 56.517694 79.469598 
L 56.852829 92.013387 
L 57.187965 90.024163 
L 57.5231 83.121904 
L 57.858235 80.644491 
L 58.19337 68.810757 
L 58.528505 74.430028 
L 58.86364 83.9866 
L 59.198775 77.458751 
L 59.53391 89.40812 
L 59.869046 97.013055 
L 60.204181 92.76525 
L 60.539316 71.642611 
L 60.874451 80.753677 
L 61.209586 80.825641 
L 61.544721 69.017083 
L 61.879856 71.277847 
L 62.214992 68.352802 
L 62.550127 73.201849 
L 62.885262 94.133961 
L 63.555532 58.924202 
L 63.890667 76.611888 
L 64.225802 70.157561 
L 64.560938 79.151843 
L 64.896073 76.221938 
L 65.231208 78.678604 
L 65.566343 78.148803 
L 65.901478 65.25624 
L 66.236613 59.011323 
L 66.571748 70.326289 
L 66.906883 49.45562 
L 67.242019 76.488041 
L 67.577154 60.564665 
L 67.912289 70.244666 
L 68.247424 67.178295 
L 68.582559 69.276137 
L 68.917694 65.00604 
L 69.252829 66.475662 
L 69.587965 69.773828 
L 69.9231 82.572352 
L 70.258235 68.027991 
L 70.59337 83.591895 
L 70.928505 48.389233 
L 71.26364 70.315454 
L 71.598775 64.43435 
L 71.93391 62.516545 
L 72.269046 64.141306 
L 72.604181 56.272238 
L 72.939316 73.551594 
L 73.274451 60.937127 
L 73.609586 73.588516 
L 73.944721 73.09356 
L 74.279856 59.807927 
L 74.614992 66.339019 
L 74.950127 65.482761 
L 75.285262 59.184606 
L 75.620397 65.229906 
L 75.955532 61.32977 
L 76.290667 52.641579 
L 76.625802 63.012015 
L 76.960938 66.370922 
L 77.296073 76.281453 
L 77.631208 59.732964 
L 77.966343 60.710734 
L 78.301478 56.306391 
L 78.636613 70.982668 
L 78.971748 60.625286 
L 79.306883 42.957682 
L 79.977154 56.081522 
L 80.312289 31.994067 
L 80.647424 34.185995 
L 80.982559 46.583661 
L 81.317694 42.031975 
L 81.987965 60.275772 
L 82.3231 50.106751 
L 82.658235 31.881584 
L 83.66364 60.248087 
L 83.998775 48.279607 
L 84.33391 40.319926 
L 84.669046 48.402776 
L 85.004181 46.12332 
L 85.339316 67.758596 
L 85.674451 62.077906 
L 86.009586 40.04768 
L 86.679856 59.125564 
L 87.014992 48.763932 
L 87.350127 49.632711 
L 87.685262 53.645294 
L 88.020397 31.875553 
L 88.355532 63.104462 
L 88.690667 62.444149 
L 89.025802 34.769685 
L 89.360938 43.96221 
L 89.696073 45.63276 
L 90.031208 60.472434 
L 90.366343 40.820036 
L 90.701478 40.839246 
L 91.036613 57.151988 
L 91.371748 55.718292 
L 91.706883 39.183587 
L 92.042019 53.731692 
L 92.377154 34.010369 
L 92.712289 26.738203 
L 93.047424 46.976796 
L 93.382559 43.114247 
L 93.717694 56.028384 
L 94.052829 31.579851 
L 94.387965 40.172741 
L 94.7231 45.062024 
L 95.058235 32.552456 
L 95.39337 43.142992 
L 95.728505 43.856808 
L 96.06364 42.159028 
L 96.398775 53.021368 
L 96.73391 36.629874 
L 97.069046 49.496378 
L 97.404181 25.158837 
L 97.739316 30.28684 
L 98.074451 25.38192 
L 98.409586 48.630718 
L 98.744721 45.745371 
L 99.079856 51.709271 
L 99.414992 42.693042 
L 99.750127 45.310722 
L 100.085262 14.76 
L 100.420397 53.570653 
L 100.755532 61.161692 
L 101.090667 26.746184 
L 101.425802 32.965796 
L 101.760938 31.184864 
L 102.096073 48.338803 
L 102.431208 40.433867 
L 102.766343 22.97232 
L 103.101478 38.860865 
L 103.436613 26.919418 
L 103.771748 23.742599 
L 104.106883 51.811475 
L 104.777154 59.347041 
L 105.112289 30.80636 
L 105.447424 54.065694 
L 105.782559 45.291418 
L 106.117694 42.517925 
L 106.452829 30.355547 
L 106.787965 53.814249 
L 107.1231 40.933861 
L 107.458235 53.126248 
L 107.79337 36.812242 
L 108.128505 37.070751 
L 108.46364 53.963074 
L 108.798775 53.515165 
L 109.13391 50.686681 
L 109.469046 38.825732 
L 110.139316 31.113339 
L 110.474451 39.383149 
L 110.809586 33.057636 
L 111.144721 67.881937 
L 111.479856 33.866414 
L 111.814992 56.727986 
L 112.485262 31.16993 
L 112.820397 37.153803 
L 113.155532 38.172278 
L 113.490667 34.356417 
L 114.160938 49.986388 
L 114.831208 38.377403 
L 115.166343 53.693081 
L 115.501478 37.12425 
L 115.836613 68.156966 
L 116.506883 40.188974 
L 116.842019 37.83546 
L 117.177154 42.488825 
L 117.512289 50.216971 
L 117.847424 50.641961 
L 118.182559 20.011691 
L 118.517694 35.295315 
L 118.852829 39.492279 
L 119.187965 48.898173 
L 119.5231 31.49202 
L 119.858235 35.819383 
L 120.19337 44.190231 
L 120.528505 59.47253 
L 120.86364 49.747171 
L 121.53391 39.941088 
L 121.869046 42.260847 
L 122.204181 77.708684 
L 122.539316 57.606973 
L 122.874451 49.126746 
L 123.209586 34.355713 
L 123.544721 55.107209 
L 123.879856 55.242813 
L 124.214992 43.074972 
L 124.550127 56.165191 
L 124.885262 56.906661 
L 125.220397 63.252003 
L 125.555532 50.722741 
L 125.890667 61.19668 
L 126.225802 48.421287 
L 126.560938 48.046372 
L 126.896073 54.633047 
L 127.231208 52.764523 
L 127.566343 63.79117 
L 127.901478 56.109402 
L 128.236613 44.431519 
L 128.571748 59.438957 
L 128.906883 46.538998 
L 129.242019 71.262569 
L 129.577154 50.254283 
L 129.912289 56.423038 
L 130.247424 56.989036 
L 130.582559 65.073553 
L 130.917694 52.22907 
L 131.252829 54.500699 
L 131.587965 62.359876 
L 131.9231 52.686306 
L 132.258235 64.145415 
L 132.59337 52.746878 
L 132.928505 59.363357 
L 133.26364 70.668556 
L 133.598775 71.055719 
L 133.93391 76.013997 
L 134.269046 50.902097 
L 134.604181 52.663088 
L 134.939316 76.69069 
L 135.274451 91.830943 
L 135.609586 66.905167 
L 135.944721 51.084171 
L 136.279856 69.653076 
L 136.950127 44.882489 
L 137.285262 80.825635 
L 137.620397 58.099206 
L 137.955532 62.566185 
L 138.290667 68.664232 
L 138.625802 64.895773 
L 138.960938 50.319148 
L 139.296073 69.5207 
L 139.631208 58.367359 
L 139.966343 79.564339 
L 140.301478 87.711545 
L 140.636613 66.789985 
L 140.971748 68.163741 
L 141.306883 64.538243 
L 141.642019 69.728134 
L 141.977154 78.148885 
L 142.312289 69.550076 
L 142.647424 74.601609 
L 142.982559 70.854156 
L 143.317694 54.868581 
L 143.652829 96.771731 
L 143.987965 57.559076 
L 144.3231 70.32896 
L 144.658235 65.568543 
L 144.99337 70.36831 
L 145.66364 52.163421 
L 145.998775 73.616377 
L 146.33391 78.141884 
L 146.669046 89.460438 
L 147.004181 84.343524 
L 147.339316 64.906675 
L 147.674451 60.506253 
L 148.009586 96.280935 
L 148.344721 84.466886 
L 148.679856 93.693891 
L 149.350127 79.164585 
L 149.685262 96.372445 
L 150.020397 80.192685 
L 150.355532 74.904021 
L 150.690667 96.369273 
L 151.025802 81.153493 
L 151.360938 75.467401 
L 151.696073 92.750578 
L 152.031208 66.734101 
L 152.366343 96.035457 
L 152.701478 81.574669 
L 153.036613 92.058386 
L 153.371748 85.411536 
L 153.706883 107.07709 
L 154.042019 78.071642 
L 154.377154 90.583024 
L 154.712289 83.533198 
L 155.047424 95.898788 
L 155.382559 85.805534 
L 155.717694 99.769293 
L 156.052829 88.101787 
L 156.387965 66.769174 
L 156.7231 84.110342 
L 157.058235 108.133382 
L 157.39337 94.236919 
L 157.728505 110.417139 
L 158.398775 83.628904 
L 158.73391 76.873767 
L 159.069046 102.278187 
L 159.404181 92.344651 
L 159.739316 99.64376 
L 160.074451 87.645822 
L 160.409586 103.044712 
L 160.744721 112.960913 
L 161.079856 108.747669 
L 161.414992 76.190864 
L 161.750127 76.989387 
L 162.085262 109.271061 
L 162.420397 121.455224 
L 162.755532 100.774807 
L 163.090667 107.836372 
L 163.760938 91.935105 
L 164.096073 119.85837 
L 164.766343 84.152301 
L 165.101478 94.540045 
L 165.436613 119.504529 
L 165.771748 95.351568 
L 166.442019 102.363544 
L 166.777154 133.072979 
L 167.112289 92.527576 
L 167.447424 115.384905 
L 167.782559 102.364943 
L 168.117694 96.036882 
L 168.452829 123.798007 
L 168.787965 115.10382 
L 169.1231 114.589165 
L 169.458235 126.377507 
L 169.79337 100.536666 
L 170.128505 114.868265 
L 170.46364 112.651354 
L 170.798775 116.246574 
L 171.13391 99.163036 
L 171.469046 116.049378 
L 171.804181 102.245988 
L 172.139316 115.140841 
L 172.474451 134.784976 
L 172.809586 126.543447 
L 173.144721 102.480136 
L 173.479856 109.328672 
L 173.814992 101.712322 
L 174.150127 99.536558 
L 174.485262 120.921347 
L 174.820397 106.929434 
L 175.155532 121.573868 
L 175.490667 121.653334 
L 175.825802 118.422894 
L 176.160938 105.275378 
L 176.496073 117.475938 
L 176.831208 120.882545 
L 177.501478 111.834396 
L 177.836613 116.963032 
L 178.171748 130.811077 
L 178.506883 122.671895 
L 178.842019 135.312255 
L 179.177154 130.548602 
L 179.512289 114.810829 
L 179.847424 114.627701 
L 180.517694 126.20373 
L 180.852829 104.534482 
L 181.187965 130.89658 
L 181.5231 117.751042 
L 181.858235 129.94801 
L 182.19337 114.834437 
L 182.528505 133.767567 
L 182.86364 128.381608 
L 183.198775 131.90156 
L 183.53391 120.298682 
L 183.869046 137.448349 
L 184.204181 148.703875 
L 184.539316 129.205963 
L 184.874451 125.202976 
L 185.209586 129.19501 
L 185.544721 136.952108 
L 185.879856 127.305275 
L 186.214992 126.293158 
L 186.550127 124.593122 
L 186.885262 124.704719 
L 187.220397 124.317323 
L 187.555532 144.035406 
L 187.890667 147.307417 
L 188.225802 130.880977 
L 188.560938 135.431883 
L 188.896073 128.455052 
L 189.231208 151.408461 
L 189.566343 142.377813 
L 189.901478 127.041534 
L 190.236613 124.67386 
L 190.571748 125.959256 
L 190.906883 112.070611 
L 191.242019 121.625424 
L 191.577154 136.009551 
L 191.912289 113.253526 
L 192.247424 147.112065 
L 192.582559 139.546579 
L 192.917694 141.660192 
L 193.252829 142.957905 
L 193.587965 137.585334 
L 193.9231 139.719661 
L 194.258235 128.75672 
L 194.59337 131.731326 
L 194.928505 148.63331 
L 195.26364 134.644996 
L 195.598775 134.330938 
L 195.93391 147.75738 
L 196.604181 136.637543 
L 196.939316 144.056268 
L 197.274451 143.468205 
L 197.609586 162.164728 
L 197.944721 138.136781 
L 198.279856 139.316119 
L 198.614992 142.705232 
L 198.950127 141.294694 
L 199.620397 149.814379 
L 199.955532 140.218844 
L 200.290667 135.12187 
L 200.625802 139.420537 
L 200.960938 140.308628 
L 201.296073 144.693658 
L 201.631208 137.394807 
L 201.966343 144.556426 
L 202.301478 147.194843 
L 202.636613 145.72451 
L 202.971748 153.480922 
L 203.306883 121.315348 
L 203.642019 130.775026 
L 203.977154 147.034047 
L 204.312289 129.045012 
L 204.647424 133.449928 
L 204.982559 156.593528 
L 205.652829 144.807313 
L 205.987965 150.744865 
L 206.3231 138.454914 
L 206.658235 133.978834 
L 206.99337 140.021964 
L 207.328505 139.082459 
L 207.66364 135.775748 
L 208.33391 148.139158 
L 208.669046 135.841297 
L 209.004181 130.507644 
L 209.339316 131.150363 
L 209.674451 148.202199 
L 210.009586 128.885103 
L 210.344721 123.412005 
L 211.014992 149.393125 
L 211.350127 153.218162 
L 211.685262 160.015343 
L 212.020397 128.263267 
L 212.355532 130.567979 
L 212.690667 137.818809 
L 213.025802 142.351066 
L 213.360938 135.971186 
L 213.696073 138.591593 
L 214.031208 151.853121 
L 214.366343 136.623094 
L 214.701478 136.959001 
L 215.036613 165.96 
L 215.371748 137.171003 
L 215.706883 138.792348 
L 216.042019 133.561358 
L 216.377154 139.747595 
L 216.712289 141.969443 
L 217.047424 141.856966 
L 217.382559 146.570863 
L 217.717694 147.948816 
L 218.052829 154.096964 
L 218.387965 147.77959 
L 218.7231 130.666861 
L 219.058235 149.555226 
L 219.728505 137.116131 
L 220.06364 155.633459 
L 220.73391 146.007039 
L 221.069046 130.119793 
L 221.404181 124.352384 
L 221.739316 147.671553 
L 222.074451 138.89151 
L 222.409586 135.992765 
L 222.744721 141.608819 
L 223.079856 134.373187 
L 223.414992 120.550462 
L 223.750127 136.444309 
L 224.085262 142.855312 
L 224.420397 140.697142 
L 224.755532 162.125003 
L 225.090667 141.379203 
L 225.425802 129.362523 
L 225.760938 137.177502 
L 226.096073 129.61992 
L 226.431208 154.491119 
L 226.766343 145.288674 
L 227.101478 123.448918 
L 227.436613 128.735306 
L 227.771748 130.492962 
L 228.106883 148.954118 
L 228.442019 115.316585 
L 228.777154 124.490393 
L 229.112289 141.66888 
L 229.447424 125.573418 
L 229.782559 135.730196 
L 230.117694 118.937398 
L 230.452829 129.448253 
L 231.1231 140.090729 
L 231.458235 122.006124 
L 231.79337 139.747546 
L 232.128505 134.159071 
L 232.46364 137.42919 
L 232.798775 132.349233 
L 233.13391 140.535726 
L 233.469046 129.698077 
L 233.804181 126.454091 
L 234.139316 130.451852 
L 234.474451 130.121278 
L 234.809586 129.386582 
L 235.144721 121.725925 
L 235.479856 141.597273 
L 235.814992 117.537202 
L 236.150127 142.420013 
L 236.485262 113.8124 
L 236.820397 127.629907 
L 237.155532 112.872635 
L 237.490667 131.746349 
L 237.825802 118.580763 
L 238.160938 115.745526 
L 238.496073 113.872864 
L 238.831208 113.873516 
L 239.166343 130.633425 
L 239.501478 121.609995 
L 239.836613 137.661848 
L 240.171748 110.470591 
L 240.506883 136.596153 
L 240.842019 114.578476 
L 241.177154 102.416957 
L 241.512289 100.632067 
L 241.847424 112.801718 
L 242.182559 140.669214 
L 242.517694 129.013188 
L 242.852829 108.001125 
L 243.187965 129.51099 
L 243.5231 106.214704 
L 243.858235 124.179508 
L 244.19337 130.559425 
L 244.528505 106.821878 
L 244.86364 123.134344 
L 245.198775 110.250446 
L 245.53391 127.72212 
L 245.869046 131.676597 
L 246.204181 113.324022 
L 246.874451 122.125856 
L 247.209586 138.109867 
L 247.544721 113.59631 
L 247.879856 117.124414 
L 248.214992 90.52244 
L 248.885262 127.87714 
L 249.220397 117.29012 
L 249.555532 125.850708 
L 249.890667 104.376455 
L 250.225802 122.171208 
L 250.560938 100.340262 
L 250.896073 103.942032 
L 251.231208 123.830623 
L 251.566343 102.315904 
L 251.901478 117.888765 
L 252.236613 93.102837 
L 252.571748 77.2869 
L 252.906883 114.926224 
L 253.242019 109.092126 
L 253.577154 82.653546 
L 254.247424 109.55952 
L 254.582559 113.256307 
L 254.917694 92.50122 
L 255.252829 110.799129 
L 255.9231 105.523203 
L 256.258235 105.498362 
L 256.59337 97.833695 
L 256.928505 100.198536 
L 257.26364 91.182648 
L 257.598775 119.964877 
L 257.93391 88.034324 
L 258.269046 116.374263 
L 258.604181 93.798834 
L 258.939316 98.329133 
L 259.274451 111.146624 
L 259.609586 100.551754 
L 259.944721 101.219687 
L 260.279856 99.151859 
L 260.614992 93.101642 
L 260.950127 101.686008 
L 261.285262 98.739649 
L 261.620397 83.391845 
L 261.955532 86.947258 
L 262.290667 107.529236 
L 262.625802 83.040582 
L 262.960938 100.078073 
L 263.296073 87.153405 
L 263.631208 87.23831 
L 263.966343 83.291599 
L 264.301478 93.854755 
L 264.636613 85.458923 
L 264.971748 98.096722 
L 265.306883 77.800733 
L 265.642019 93.249891 
L 265.977154 84.872284 
L 266.312289 90.507874 
L 266.982559 88.311279 
L 267.317694 91.10702 
L 267.652829 91.10275 
L 267.987965 91.284457 
L 268.3231 96.997684 
L 268.658235 90.6791 
L 268.99337 94.860567 
L 269.328505 71.516132 
L 269.66364 93.421348 
L 270.33391 56.941813 
L 270.669046 80.440836 
L 271.004181 76.636326 
L 271.339316 85.752814 
L 271.674451 64.144258 
L 272.009586 78.43056 
L 272.344721 75.992833 
L 272.679856 81.508466 
L 273.014992 58.199217 
L 273.350127 59.614739 
L 273.685262 74.44989 
L 274.020397 69.180515 
L 274.355532 76.558522 
L 274.690667 93.536082 
L 275.025802 81.227114 
L 275.360937 55.633042 
L 275.696073 75.980998 
L 276.031208 78.21135 
L 276.366343 77.678113 
L 276.701478 78.364494 
L 277.036613 64.960162 
L 277.371748 62.639034 
L 277.706883 65.601375 
L 278.042019 51.174474 
L 278.377154 79.216616 
L 278.712289 79.597729 
L 279.047424 90.665666 
L 279.382559 46.250816 
L 279.717694 82.738358 
L 280.052829 74.546216 
L 280.387965 61.72207 
L 280.7231 71.069598 
L 281.058235 63.50671 
L 281.39337 68.899708 
L 281.728505 54.468243 
L 282.06364 76.17869 
L 282.398775 74.703399 
L 282.73391 69.632521 
L 283.069046 46.622148 
L 283.404181 55.500183 
L 283.739316 42.463002 
L 284.074451 54.071695 
L 284.409586 59.020466 
L 284.744721 70.320689 
L 285.414992 62.563418 
L 285.750127 72.654517 
L 286.085262 61.721578 
L 286.420397 65.375003 
L 286.755532 62.855494 
L 287.090667 58.720672 
L 287.425802 46.761013 
L 287.760938 51.672361 
L 288.096073 64.656228 
L 288.431208 54.477866 
L 289.101478 72.744225 
L 289.436613 49.204894 
L 289.771748 58.17378 
L 290.106883 63.165343 
L 290.442019 57.057789 
L 290.777154 53.055342 
L 291.112289 43.518913 
L 291.447424 64.307598 
L 291.782559 53.903462 
L 292.452829 41.991491 
L 292.787965 40.822392 
L 293.1231 35.712433 
L 293.458235 56.197024 
L 293.79337 29.566307 
L 294.128505 52.128069 
L 294.46364 38.908996 
L 294.798775 57.711315 
L 295.13391 47.895379 
L 295.469046 53.258678 
L 295.804181 46.905915 
L 296.139316 57.943931 
L 296.474451 49.19054 
L 297.144721 65.282911 
L 297.479856 55.64302 
L 297.814992 68.629045 
L 298.150127 41.270985 
L 298.485262 71.82804 
L 298.820397 29.710887 
L 299.155532 58.86984 
L 299.490667 56.668671 
L 299.825802 47.972218 
L 300.160938 43.557362 
L 300.496073 27.091996 
L 300.831208 47.076644 
L 301.166343 47.70292 
L 301.501478 47.339447 
L 301.836613 29.902037 
L 302.171748 59.758797 
L 302.506883 57.609108 
L 302.842019 38.427197 
L 303.177154 35.089643 
L 303.512289 54.130062 
L 303.847424 31.130903 
L 304.182559 51.113165 
L 304.517694 39.042225 
L 304.852829 46.108668 
L 305.187965 56.751116 
L 305.5231 49.703607 
L 305.858235 52.953026 
L 306.19337 46.350035 
L 306.528505 52.105874 
L 306.86364 60.254221 
L 307.198775 34.478199 
L 307.53391 48.868957 
L 307.869046 41.990698 
L 308.204181 54.255029 
L 308.539316 30.327622 
L 308.874451 53.726782 
L 309.209586 48.23369 
L 309.544721 51.37798 
L 309.879856 29.72273 
L 310.214992 39.158735 
L 310.550127 22.942834 
L 310.885262 50.487882 
L 311.220397 44.892559 
L 311.555532 26.687024 
L 311.890667 32.461782 
L 312.225802 32.052152 
L 312.560938 16.547886 
L 312.896073 48.352687 
L 313.231208 30.442698 
L 313.566343 57.864003 
L 313.901478 59.647851 
L 314.236613 26.491598 
L 314.571748 60.137684 
L 314.906883 42.997638 
L 315.242019 51.503882 
L 315.577154 46.724303 
L 315.912289 43.703121 
L 316.247424 28.352351 
L 316.582559 57.017256 
L 317.252829 33.12075 
L 317.587965 45.957738 
L 317.9231 43.887299 
L 318.258235 28.21048 
L 318.59337 38.76226 
L 318.928505 26.084738 
L 319.26364 53.535777 
L 319.598775 39.921477 
L 319.93391 33.260854 
L 320.269046 55.895188 
L 320.604181 44.147885 
L 320.939316 25.473335 
L 321.274451 31.433735 
L 321.609586 50.20412 
L 321.944721 46.878755 
L 322.279856 44.890816 
L 322.614992 50.628879 
L 322.950127 34.982426 
L 323.285262 60.432043 
L 323.620397 45.24077 
L 323.955532 69.511241 
L 324.290667 52.664381 
L 324.625802 62.247642 
L 324.960938 26.859742 
L 325.296073 38.609001 
L 325.631208 36.217911 
L 325.966343 38.053618 
L 326.301478 33.02079 
L 326.636613 34.990807 
L 326.971748 43.130351 
L 327.306883 34.988979 
L 327.642019 36.891905 
L 327.977154 40.007469 
L 328.312289 47.972955 
L 328.647424 61.456674 
L 328.982559 43.565999 
L 329.317694 46.752501 
L 329.652829 55.983773 
L 330.3231 28.577008 
L 330.658235 50.936684 
L 330.99337 51.143625 
L 331.328505 46.593275 
L 331.66364 33.459693 
L 331.998775 46.684942 
L 332.33391 53.638337 
L 332.669046 33.028551 
L 333.004181 47.369236 
L 333.339316 43.475877 
L 333.674451 49.583548 
L 334.009586 67.21432 
L 334.344721 39.986425 
L 334.679856 48.471419 
L 335.014992 52.095729 
L 335.350127 45.333105 
L 335.685262 42.715358 
L 336.020397 68.237184 
L 336.355532 52.5252 
L 336.690667 43.516662 
L 337.025802 56.934231 
L 337.360937 51.929956 
L 337.696073 73.397665 
L 338.031208 47.484774 
L 338.366343 55.321577 
L 338.701478 48.034906 
L 339.036613 60.974836 
L 339.371748 43.474274 
L 339.706883 58.371106 
L 340.042019 45.156118 
L 340.712289 48.987808 
L 341.047424 55.628639 
L 341.382559 57.283617 
L 341.717694 32.902956 
L 342.052829 55.874898 
L 342.387965 66.161279 
L 342.7231 40.576795 
L 343.058235 52.293857 
L 343.39337 58.273633 
L 343.728505 61.771655 
L 344.06364 45.982851 
L 344.398775 53.497078 
L 345.069046 80.346322 
L 345.404181 63.613384 
L 345.739316 56.41766 
L 346.409586 81.412162 
L 346.744721 64.282895 
L 347.079856 37.423134 
L 347.414992 44.348518 
L 347.750127 64.704016 
L 348.085262 52.631971 
L 348.755532 67.764238 
L 349.090667 46.23163 
L 349.425802 57.881191 
L 349.760938 54.071862 
L 350.096073 66.979148 
L 350.431208 74.956376 
L 350.766343 63.945971 
L 351.101478 78.398507 
L 351.436613 83.911214 
L 351.771748 76.106118 
L 352.106883 71.661103 
L 352.442019 87.691045 
L 352.777154 64.976654 
L 353.112289 63.814272 
L 353.447424 59.28711 
L 353.782559 72.995119 
L 354.117694 74.886052 
L 354.452829 74.970087 
L 354.787965 81.700372 
L 355.1231 78.926499 
L 355.458235 78.264772 
L 355.79337 91.011452 
L 356.128505 64.788626 
L 356.46364 81.41214 
L 356.798775 78.04647 
L 357.13391 67.109915 
L 357.469046 74.899252 
L 357.804181 74.783318 
L 358.139316 79.400832 
L 358.474451 75.609945 
L 358.809586 76.126747 
L 359.144721 75.352772 
L 359.479856 81.620148 
L 359.814992 63.618756 
L 360.150127 77.961496 
L 360.485262 85.041223 
L 360.820397 86.630063 
L 361.155532 90.538691 
L 361.490667 73.578887 
L 361.825802 71.946814 
L 362.160938 73.355011 
L 362.496073 107.631179 
L 362.831208 76.643034 
L 363.166343 84.601259 
L 363.501478 82.152132 
L 363.836613 71.921163 
L 364.171748 86.208104 
L 364.506883 82.088886 
L 364.842019 100.853864 
L 365.177154 68.819723 
L 365.512289 92.679355 
L 365.847424 93.028253 
L 366.182559 72.070405 
L 366.517694 101.050942 
L 366.852829 87.074998 
L 367.187965 95.978669 
L 367.5231 91.811167 
L 367.858235 93.711106 
L 368.19337 84.313031 
L 368.528505 109.843937 
L 368.86364 92.473923 
L 369.53391 98.314289 
L 369.869046 87.155647 
L 370.204181 103.062096 
L 370.539316 108.756798 
L 370.874451 110.284529 
L 371.209586 94.60942 
L 371.544721 92.781147 
L 371.879856 99.967933 
L 372.214992 79.602187 
L 372.550127 105.401349 
L 372.885262 90.217203 
L 373.220397 92.286469 
L 373.555532 101.857141 
L 373.890667 99.199451 
L 374.225802 82.934449 
L 374.560938 83.811196 
L 374.896073 102.494049 
L 375.231208 103.626862 
L 375.566343 98.142627 
L 375.901478 108.834528 
L 376.236613 115.462708 
L 376.571748 105.756008 
L 377.242019 115.478321 
L 377.577154 109.550056 
L 377.912289 116.204502 
L 378.247424 110.428977 
L 378.582559 110.019719 
L 378.917694 131.194944 
L 379.252829 123.272499 
L 379.587965 101.840445 
L 379.9231 118.351026 
L 380.258235 119.667025 
L 380.59337 127.565138 
L 380.928505 106.685345 
L 381.26364 103.121601 
L 381.598775 102.816184 
L 381.93391 122.838958 
L 382.269046 106.346328 
L 382.604181 126.049632 
L 382.939316 99.649759 
L 383.274451 116.612683 
L 383.609586 126.933041 
L 383.944721 112.150397 
L 384.279856 114.990488 
L 384.614992 99.541763 
L 384.950127 116.466296 
L 385.285262 112.872253 
L 385.955532 127.531848 
L 386.290667 106.256547 
L 386.625802 122.907134 
L 386.960938 114.818766 
L 386.960938 114.818766 
" clip-path="url(#p7aae2e658d)" style="fill: none; stroke: #1f77b4; stroke-width: 1.5; stroke-linecap: square"/>
   </g>
   <g id="patch_3">
    <path d="M 52.160938 173.52 
L 52.160938 7.2 
" style="fill: none; stroke: #000000; stroke-width: 0.8; stroke-linejoin: miter; stroke-linecap: square"/>
   </g>
   <g id="patch_4">
    <path d="M 386.960938 173.52 
L 386.960938 7.2 
" style="fill: none; stroke: #000000; stroke-width: 0.8; stroke-linejoin: miter; stroke-linecap: square"/>
   </g>
   <g id="patch_5">
    <path d="M 52.160938 173.52 
L 386.960938 173.52 
" style="fill: none; stroke: #000000; stroke-width: 0.8; stroke-linejoin: miter; stroke-linecap: square"/>
   </g>
   <g id="patch_6">
    <path d="M 52.160938 7.2 
L 386.960938 7.2 
" style="fill: none; stroke: #000000; stroke-width: 0.8; stroke-linejoin: miter; stroke-linecap: square"/>
   </g>
  </g>
 </g>
 <defs>
  <clipPath id="p7aae2e658d">
   <rect x="52.160938" y="7.2" width="334.8" height="166.32"/>
  </clipPath>
 </defs>
</svg>
