<?xml version="1.0" encoding="utf-8" standalone="no"?>
<!DOCTYPE svg PUBLIC "-//W3C//DTD SVG 1.1//EN"
  "http://www.w3.org/Graphics/SVG/1.1/DTD/svg11.dtd">
<svg xmlns:xlink="http://www.w3.org/1999/xlink" width="406.885938pt" height="213.11971pt" viewBox="0 0 406.885938 213.11971" xmlns="http://www.w3.org/2000/svg" version="1.1">
 <metadata>
  <rdf:RDF xmlns:dc="http://purl.org/dc/elements/1.1/" xmlns:cc="http://creativecommons.org/ns#" xmlns:rdf="http://www.w3.org/1999/02/22-rdf-syntax-ns#">
   <cc:Work>
    <dc:type rdf:resource="http://purl.org/dc/dcmitype/StillImage"/>
    <dc:date>2023-06-20T23:40:29.170098</dc:date>
    <dc:format>image/svg+xml</dc:format>
    <dc:creator>
     <cc:Agent>
      <dc:title>Matplotlib v3.5.1, https://matplotlib.org/</dc:title>
     </cc:Agent>
    </dc:creator>
   </cc:Work>
  </rdf:RDF>
 </metadata>
 <defs>
  <style type="text/css">*{stroke-linejoin: round; stroke-linecap: butt}</style>
 </defs>
 <g id="figure_1">
  <g id="patch_1">
   <path d="M 0 213.11971 
L 406.885938 213.11971 
L 406.885938 0 
L 0 0 
z
" style="fill: #ffffff"/>
  </g>
  <g id="axes_1">
   <g id="patch_2">
    <path d="M 52.160938 175.56346 
L 386.960938 175.56346 
L 386.960938 9.24346 
L 52.160938 9.24346 
z
" style="fill: #ffffff"/>
   </g>
   <g id="matplotlib.axis_1">
    <g id="xtick_1">
     <g id="line2d_1">
      <path d="M 118.852829 175.56346 
L 118.852829 9.24346 
" clip-path="url(#p52ec5cf554)" style="fill: none; stroke: #b0b0b0; stroke-width: 0.8; stroke-linecap: square"/>
     </g>
     <g id="line2d_2">
      <defs>
       <path id="m2bb5eb2cbd" d="M 0 0 
L 0 3.5 
" style="stroke: #000000; stroke-width: 0.8"/>
      </defs>
      <g>
       <use xlink:href="#m2bb5eb2cbd" x="118.852829" y="175.56346" style="stroke: #000000; stroke-width: 0.8"/>
      </g>
     </g>
     <g id="text_1">
      <!-- 200 -->
      <g transform="translate(109.309079 190.161898)scale(0.1 -0.1)">
       <defs>
        <path id="DejaVuSans-32" d="M 1228 531 
L 3431 531 
L 3431 0 
L 469 0 
L 469 531 
Q 828 903 1448 1529 
Q 2069 2156 2228 2338 
Q 2531 2678 2651 2914 
Q 2772 3150 2772 3378 
Q 2772 3750 2511 3984 
Q 2250 4219 1831 4219 
Q 1534 4219 1204 4116 
Q 875 4013 500 3803 
L 500 4441 
Q 881 4594 1212 4672 
Q 1544 4750 1819 4750 
Q 2544 4750 2975 4387 
Q 3406 4025 3406 3419 
Q 3406 3131 3298 2873 
Q 3191 2616 2906 2266 
Q 2828 2175 2409 1742 
Q 1991 1309 1228 531 
z
" transform="scale(0.015625)"/>
        <path id="DejaVuSans-30" d="M 2034 4250 
Q 1547 4250 1301 3770 
Q 1056 3291 1056 2328 
Q 1056 1369 1301 889 
Q 1547 409 2034 409 
Q 2525 409 2770 889 
Q 3016 1369 3016 2328 
Q 3016 3291 2770 3770 
Q 2525 4250 2034 4250 
z
M 2034 4750 
Q 2819 4750 3233 4129 
Q 3647 3509 3647 2328 
Q 3647 1150 3233 529 
Q 2819 -91 2034 -91 
Q 1250 -91 836 529 
Q 422 1150 422 2328 
Q 422 3509 836 4129 
Q 1250 4750 2034 4750 
z
" transform="scale(0.015625)"/>
       </defs>
       <use xlink:href="#DejaVuSans-32"/>
       <use xlink:href="#DejaVuSans-30" x="63.623047"/>
       <use xlink:href="#DejaVuSans-30" x="127.246094"/>
      </g>
     </g>
    </g>
    <g id="xtick_2">
     <g id="line2d_3">
      <path d="M 185.879856 175.56346 
L 185.879856 9.24346 
" clip-path="url(#p52ec5cf554)" style="fill: none; stroke: #b0b0b0; stroke-width: 0.8; stroke-linecap: square"/>
     </g>
     <g id="line2d_4">
      <g>
       <use xlink:href="#m2bb5eb2cbd" x="185.879856" y="175.56346" style="stroke: #000000; stroke-width: 0.8"/>
      </g>
     </g>
     <g id="text_2">
      <!-- 400 -->
      <g transform="translate(176.336106 190.161898)scale(0.1 -0.1)">
       <defs>
        <path id="DejaVuSans-34" d="M 2419 4116 
L 825 1625 
L 2419 1625 
L 2419 4116 
z
M 2253 4666 
L 3047 4666 
L 3047 1625 
L 3713 1625 
L 3713 1100 
L 3047 1100 
L 3047 0 
L 2419 0 
L 2419 1100 
L 313 1100 
L 313 1709 
L 2253 4666 
z
" transform="scale(0.015625)"/>
       </defs>
       <use xlink:href="#DejaVuSans-34"/>
       <use xlink:href="#DejaVuSans-30" x="63.623047"/>
       <use xlink:href="#DejaVuSans-30" x="127.246094"/>
      </g>
     </g>
    </g>
    <g id="xtick_3">
     <g id="line2d_5">
      <path d="M 252.906883 175.56346 
L 252.906883 9.24346 
" clip-path="url(#p52ec5cf554)" style="fill: none; stroke: #b0b0b0; stroke-width: 0.8; stroke-linecap: square"/>
     </g>
     <g id="line2d_6">
      <g>
       <use xlink:href="#m2bb5eb2cbd" x="252.906883" y="175.56346" style="stroke: #000000; stroke-width: 0.8"/>
      </g>
     </g>
     <g id="text_3">
      <!-- 600 -->
      <g transform="translate(243.363133 190.161898)scale(0.1 -0.1)">
       <defs>
        <path id="DejaVuSans-36" d="M 2113 2584 
Q 1688 2584 1439 2293 
Q 1191 2003 1191 1497 
Q 1191 994 1439 701 
Q 1688 409 2113 409 
Q 2538 409 2786 701 
Q 3034 994 3034 1497 
Q 3034 2003 2786 2293 
Q 2538 2584 2113 2584 
z
M 3366 4563 
L 3366 3988 
Q 3128 4100 2886 4159 
Q 2644 4219 2406 4219 
Q 1781 4219 1451 3797 
Q 1122 3375 1075 2522 
Q 1259 2794 1537 2939 
Q 1816 3084 2150 3084 
Q 2853 3084 3261 2657 
Q 3669 2231 3669 1497 
Q 3669 778 3244 343 
Q 2819 -91 2113 -91 
Q 1303 -91 875 529 
Q 447 1150 447 2328 
Q 447 3434 972 4092 
Q 1497 4750 2381 4750 
Q 2619 4750 2861 4703 
Q 3103 4656 3366 4563 
z
" transform="scale(0.015625)"/>
       </defs>
       <use xlink:href="#DejaVuSans-36"/>
       <use xlink:href="#DejaVuSans-30" x="63.623047"/>
       <use xlink:href="#DejaVuSans-30" x="127.246094"/>
      </g>
     </g>
    </g>
    <g id="xtick_4">
     <g id="line2d_7">
      <path d="M 319.93391 175.56346 
L 319.93391 9.24346 
" clip-path="url(#p52ec5cf554)" style="fill: none; stroke: #b0b0b0; stroke-width: 0.8; stroke-linecap: square"/>
     </g>
     <g id="line2d_8">
      <g>
       <use xlink:href="#m2bb5eb2cbd" x="319.93391" y="175.56346" style="stroke: #000000; stroke-width: 0.8"/>
      </g>
     </g>
     <g id="text_4">
      <!-- 800 -->
      <g transform="translate(310.39016 190.161898)scale(0.1 -0.1)">
       <defs>
        <path id="DejaVuSans-38" d="M 2034 2216 
Q 1584 2216 1326 1975 
Q 1069 1734 1069 1313 
Q 1069 891 1326 650 
Q 1584 409 2034 409 
Q 2484 409 2743 651 
Q 3003 894 3003 1313 
Q 3003 1734 2745 1975 
Q 2488 2216 2034 2216 
z
M 1403 2484 
Q 997 2584 770 2862 
Q 544 3141 544 3541 
Q 544 4100 942 4425 
Q 1341 4750 2034 4750 
Q 2731 4750 3128 4425 
Q 3525 4100 3525 3541 
Q 3525 3141 3298 2862 
Q 3072 2584 2669 2484 
Q 3125 2378 3379 2068 
Q 3634 1759 3634 1313 
Q 3634 634 3220 271 
Q 2806 -91 2034 -91 
Q 1263 -91 848 271 
Q 434 634 434 1313 
Q 434 1759 690 2068 
Q 947 2378 1403 2484 
z
M 1172 3481 
Q 1172 3119 1398 2916 
Q 1625 2713 2034 2713 
Q 2441 2713 2670 2916 
Q 2900 3119 2900 3481 
Q 2900 3844 2670 4047 
Q 2441 4250 2034 4250 
Q 1625 4250 1398 4047 
Q 1172 3844 1172 3481 
z
" transform="scale(0.015625)"/>
       </defs>
       <use xlink:href="#DejaVuSans-38"/>
       <use xlink:href="#DejaVuSans-30" x="63.623047"/>
       <use xlink:href="#DejaVuSans-30" x="127.246094"/>
      </g>
     </g>
    </g>
    <g id="xtick_5">
     <g id="line2d_9">
      <path d="M 386.960938 175.56346 
L 386.960938 9.24346 
" clip-path="url(#p52ec5cf554)" style="fill: none; stroke: #b0b0b0; stroke-width: 0.8; stroke-linecap: square"/>
     </g>
     <g id="line2d_10">
      <g>
       <use xlink:href="#m2bb5eb2cbd" x="386.960938" y="175.56346" style="stroke: #000000; stroke-width: 0.8"/>
      </g>
     </g>
     <g id="text_5">
      <!-- 1000 -->
      <g transform="translate(374.235937 190.161898)scale(0.1 -0.1)">
       <defs>
        <path id="DejaVuSans-31" d="M 794 531 
L 1825 531 
L 1825 4091 
L 703 3866 
L 703 4441 
L 1819 4666 
L 2450 4666 
L 2450 531 
L 3481 531 
L 3481 0 
L 794 0 
L 794 531 
z
" transform="scale(0.015625)"/>
       </defs>
       <use xlink:href="#DejaVuSans-31"/>
       <use xlink:href="#DejaVuSans-30" x="63.623047"/>
       <use xlink:href="#DejaVuSans-30" x="127.246094"/>
       <use xlink:href="#DejaVuSans-30" x="190.869141"/>
      </g>
     </g>
    </g>
    <g id="text_6">
     <!-- time -->
     <g transform="translate(208.264844 203.840023)scale(0.1 -0.1)">
      <defs>
       <path id="DejaVuSans-74" d="M 1172 4494 
L 1172 3500 
L 2356 3500 
L 2356 3053 
L 1172 3053 
L 1172 1153 
Q 1172 725 1289 603 
Q 1406 481 1766 481 
L 2356 481 
L 2356 0 
L 1766 0 
Q 1100 0 847 248 
Q 594 497 594 1153 
L 594 3053 
L 172 3053 
L 172 3500 
L 594 3500 
L 594 4494 
L 1172 4494 
z
" transform="scale(0.015625)"/>
       <path id="DejaVuSans-69" d="M 603 3500 
L 1178 3500 
L 1178 0 
L 603 0 
L 603 3500 
z
M 603 4863 
L 1178 4863 
L 1178 4134 
L 603 4134 
L 603 4863 
z
" transform="scale(0.015625)"/>
       <path id="DejaVuSans-6d" d="M 3328 2828 
Q 3544 3216 3844 3400 
Q 4144 3584 4550 3584 
Q 5097 3584 5394 3201 
Q 5691 2819 5691 2113 
L 5691 0 
L 5113 0 
L 5113 2094 
Q 5113 2597 4934 2840 
Q 4756 3084 4391 3084 
Q 3944 3084 3684 2787 
Q 3425 2491 3425 1978 
L 3425 0 
L 2847 0 
L 2847 2094 
Q 2847 2600 2669 2842 
Q 2491 3084 2119 3084 
Q 1678 3084 1418 2786 
Q 1159 2488 1159 1978 
L 1159 0 
L 581 0 
L 581 3500 
L 1159 3500 
L 1159 2956 
Q 1356 3278 1631 3431 
Q 1906 3584 2284 3584 
Q 2666 3584 2933 3390 
Q 3200 3197 3328 2828 
z
" transform="scale(0.015625)"/>
       <path id="DejaVuSans-65" d="M 3597 1894 
L 3597 1613 
L 953 1613 
Q 991 1019 1311 708 
Q 1631 397 2203 397 
Q 2534 397 2845 478 
Q 3156 559 3463 722 
L 3463 178 
Q 3153 47 2828 -22 
Q 2503 -91 2169 -91 
Q 1331 -91 842 396 
Q 353 884 353 1716 
Q 353 2575 817 3079 
Q 1281 3584 2069 3584 
Q 2775 3584 3186 3129 
Q 3597 2675 3597 1894 
z
M 3022 2063 
Q 3016 2534 2758 2815 
Q 2500 3097 2075 3097 
Q 1594 3097 1305 2825 
Q 1016 2553 972 2059 
L 3022 2063 
z
" transform="scale(0.015625)"/>
      </defs>
      <use xlink:href="#DejaVuSans-74"/>
      <use xlink:href="#DejaVuSans-69" x="39.208984"/>
      <use xlink:href="#DejaVuSans-6d" x="66.992188"/>
      <use xlink:href="#DejaVuSans-65" x="164.404297"/>
     </g>
    </g>
   </g>
   <g id="matplotlib.axis_2">
    <g id="ytick_1">
     <g id="line2d_11">
      <path d="M 52.160938 172.016593 
L 386.960938 172.016593 
" clip-path="url(#p52ec5cf554)" style="fill: none; stroke: #b0b0b0; stroke-width: 0.8; stroke-linecap: square"/>
     </g>
     <g id="line2d_12">
      <defs>
       <path id="mb92e85de3c" d="M 0 0 
L -3.5 0 
" style="stroke: #000000; stroke-width: 0.8"/>
      </defs>
      <g>
       <use xlink:href="#mb92e85de3c" x="52.160938" y="172.016593" style="stroke: #000000; stroke-width: 0.8"/>
      </g>
     </g>
     <g id="text_7">
      <!-- −1.5 -->
      <g transform="translate(20.878125 175.815812)scale(0.1 -0.1)">
       <defs>
        <path id="DejaVuSans-2212" d="M 678 2272 
L 4684 2272 
L 4684 1741 
L 678 1741 
L 678 2272 
z
" transform="scale(0.015625)"/>
        <path id="DejaVuSans-2e" d="M 684 794 
L 1344 794 
L 1344 0 
L 684 0 
L 684 794 
z
" transform="scale(0.015625)"/>
        <path id="DejaVuSans-35" d="M 691 4666 
L 3169 4666 
L 3169 4134 
L 1269 4134 
L 1269 2991 
Q 1406 3038 1543 3061 
Q 1681 3084 1819 3084 
Q 2600 3084 3056 2656 
Q 3513 2228 3513 1497 
Q 3513 744 3044 326 
Q 2575 -91 1722 -91 
Q 1428 -91 1123 -41 
Q 819 9 494 109 
L 494 744 
Q 775 591 1075 516 
Q 1375 441 1709 441 
Q 2250 441 2565 725 
Q 2881 1009 2881 1497 
Q 2881 1984 2565 2268 
Q 2250 2553 1709 2553 
Q 1456 2553 1204 2497 
Q 953 2441 691 2322 
L 691 4666 
z
" transform="scale(0.015625)"/>
       </defs>
       <use xlink:href="#DejaVuSans-2212"/>
       <use xlink:href="#DejaVuSans-31" x="83.789062"/>
       <use xlink:href="#DejaVuSans-2e" x="147.412109"/>
       <use xlink:href="#DejaVuSans-35" x="179.199219"/>
      </g>
     </g>
    </g>
    <g id="ytick_2">
     <g id="line2d_13">
      <path d="M 52.160938 145.180364 
L 386.960938 145.180364 
" clip-path="url(#p52ec5cf554)" style="fill: none; stroke: #b0b0b0; stroke-width: 0.8; stroke-linecap: square"/>
     </g>
     <g id="line2d_14">
      <g>
       <use xlink:href="#mb92e85de3c" x="52.160938" y="145.180364" style="stroke: #000000; stroke-width: 0.8"/>
      </g>
     </g>
     <g id="text_8">
      <!-- −1.0 -->
      <g transform="translate(20.878125 148.979583)scale(0.1 -0.1)">
       <use xlink:href="#DejaVuSans-2212"/>
       <use xlink:href="#DejaVuSans-31" x="83.789062"/>
       <use xlink:href="#DejaVuSans-2e" x="147.412109"/>
       <use xlink:href="#DejaVuSans-30" x="179.199219"/>
      </g>
     </g>
    </g>
    <g id="ytick_3">
     <g id="line2d_15">
      <path d="M 52.160938 118.344135 
L 386.960938 118.344135 
" clip-path="url(#p52ec5cf554)" style="fill: none; stroke: #b0b0b0; stroke-width: 0.8; stroke-linecap: square"/>
     </g>
     <g id="line2d_16">
      <g>
       <use xlink:href="#mb92e85de3c" x="52.160938" y="118.344135" style="stroke: #000000; stroke-width: 0.8"/>
      </g>
     </g>
     <g id="text_9">
      <!-- −0.5 -->
      <g transform="translate(20.878125 122.143354)scale(0.1 -0.1)">
       <use xlink:href="#DejaVuSans-2212"/>
       <use xlink:href="#DejaVuSans-30" x="83.789062"/>
       <use xlink:href="#DejaVuSans-2e" x="147.412109"/>
       <use xlink:href="#DejaVuSans-35" x="179.199219"/>
      </g>
     </g>
    </g>
    <g id="ytick_4">
     <g id="line2d_17">
      <path d="M 52.160938 91.507906 
L 386.960938 91.507906 
" clip-path="url(#p52ec5cf554)" style="fill: none; stroke: #b0b0b0; stroke-width: 0.8; stroke-linecap: square"/>
     </g>
     <g id="line2d_18">
      <g>
       <use xlink:href="#mb92e85de3c" x="52.160938" y="91.507906" style="stroke: #000000; stroke-width: 0.8"/>
      </g>
     </g>
     <g id="text_10">
      <!-- 0.0 -->
      <g transform="translate(29.257812 95.307125)scale(0.1 -0.1)">
       <use xlink:href="#DejaVuSans-30"/>
       <use xlink:href="#DejaVuSans-2e" x="63.623047"/>
       <use xlink:href="#DejaVuSans-30" x="95.410156"/>
      </g>
     </g>
    </g>
    <g id="ytick_5">
     <g id="line2d_19">
      <path d="M 52.160938 64.671677 
L 386.960938 64.671677 
" clip-path="url(#p52ec5cf554)" style="fill: none; stroke: #b0b0b0; stroke-width: 0.8; stroke-linecap: square"/>
     </g>
     <g id="line2d_20">
      <g>
       <use xlink:href="#mb92e85de3c" x="52.160938" y="64.671677" style="stroke: #000000; stroke-width: 0.8"/>
      </g>
     </g>
     <g id="text_11">
      <!-- 0.5 -->
      <g transform="translate(29.257812 68.470896)scale(0.1 -0.1)">
       <use xlink:href="#DejaVuSans-30"/>
       <use xlink:href="#DejaVuSans-2e" x="63.623047"/>
       <use xlink:href="#DejaVuSans-35" x="95.410156"/>
      </g>
     </g>
    </g>
    <g id="ytick_6">
     <g id="line2d_21">
      <path d="M 52.160938 37.835448 
L 386.960938 37.835448 
" clip-path="url(#p52ec5cf554)" style="fill: none; stroke: #b0b0b0; stroke-width: 0.8; stroke-linecap: square"/>
     </g>
     <g id="line2d_22">
      <g>
       <use xlink:href="#mb92e85de3c" x="52.160938" y="37.835448" style="stroke: #000000; stroke-width: 0.8"/>
      </g>
     </g>
     <g id="text_12">
      <!-- 1.0 -->
      <g transform="translate(29.257812 41.634667)scale(0.1 -0.1)">
       <use xlink:href="#DejaVuSans-31"/>
       <use xlink:href="#DejaVuSans-2e" x="63.623047"/>
       <use xlink:href="#DejaVuSans-30" x="95.410156"/>
      </g>
     </g>
    </g>
    <g id="ytick_7">
     <g id="line2d_23">
      <path d="M 52.160938 10.999219 
L 386.960938 10.999219 
" clip-path="url(#p52ec5cf554)" style="fill: none; stroke: #b0b0b0; stroke-width: 0.8; stroke-linecap: square"/>
     </g>
     <g id="line2d_24">
      <g>
       <use xlink:href="#mb92e85de3c" x="52.160938" y="10.999219" style="stroke: #000000; stroke-width: 0.8"/>
      </g>
     </g>
     <g id="text_13">
      <!-- 1.5 -->
      <g transform="translate(29.257812 14.798437)scale(0.1 -0.1)">
       <use xlink:href="#DejaVuSans-31"/>
       <use xlink:href="#DejaVuSans-2e" x="63.623047"/>
       <use xlink:href="#DejaVuSans-35" x="95.410156"/>
      </g>
     </g>
    </g>
    <g id="text_14">
     <!-- x -->
     <g transform="translate(14.798438 95.362835)rotate(-90)scale(0.1 -0.1)">
      <defs>
       <path id="DejaVuSans-78" d="M 3513 3500 
L 2247 1797 
L 3578 0 
L 2900 0 
L 1881 1375 
L 863 0 
L 184 0 
L 1544 1831 
L 300 3500 
L 978 3500 
L 1906 2253 
L 2834 3500 
L 3513 3500 
z
" transform="scale(0.015625)"/>
      </defs>
      <use xlink:href="#DejaVuSans-78"/>
     </g>
    </g>
   </g>
   <g id="line2d_25">
    <path d="M 52.160938 93.299354 
L 52.496073 102.952191 
L 52.831208 86.456144 
L 53.166343 82.965121 
L 53.501478 92.221155 
L 53.836613 91.307028 
L 54.171748 84.518908 
L 54.506883 104.348596 
L 54.842019 86.781193 
L 55.177154 63.382764 
L 55.512289 67.316255 
L 55.847424 73.503304 
L 56.182559 70.605744 
L 56.517694 74.109334 
L 56.852829 82.980583 
L 57.187965 82.576858 
L 57.5231 70.947646 
L 57.858235 77.450281 
L 58.528505 69.609553 
L 58.86364 90.262108 
L 59.198775 60.559867 
L 59.53391 71.655738 
L 59.869046 89.04146 
L 60.204181 81.539811 
L 60.539316 82.49317 
L 61.209586 69.90858 
L 61.544721 60.626054 
L 61.879856 66.921542 
L 62.214992 96.81413 
L 62.550127 75.355463 
L 62.885262 85.080086 
L 63.220397 57.914351 
L 63.890667 76.817268 
L 64.225802 83.438625 
L 64.560938 74.072711 
L 64.896073 92.523333 
L 65.231208 56.033763 
L 65.566343 55.964406 
L 65.901478 73.463763 
L 66.236613 68.280541 
L 66.571748 76.382751 
L 66.906883 72.969279 
L 67.242019 46.050712 
L 67.577154 56.390651 
L 67.912289 61.053172 
L 68.247424 60.409713 
L 68.582559 86.621349 
L 68.917694 52.41475 
L 69.252829 75.356821 
L 69.587965 73.196201 
L 69.9231 67.702695 
L 70.258235 53.023662 
L 70.59337 52.979799 
L 70.928505 55.29987 
L 71.26364 75.597324 
L 71.598775 72.551881 
L 71.93391 63.609886 
L 72.269046 92.247295 
L 72.604181 68.066959 
L 72.939316 60.362141 
L 73.274451 55.273967 
L 73.609586 55.573559 
L 73.944721 46.524161 
L 74.279856 45.806747 
L 74.614992 60.615452 
L 74.950127 68.34921 
L 75.285262 44.84521 
L 75.620397 60.081786 
L 75.955532 61.181707 
L 76.290667 57.825915 
L 76.625802 41.775551 
L 76.960938 71.035947 
L 77.296073 71.57019 
L 77.631208 53.659767 
L 77.966343 49.804437 
L 78.301478 60.913294 
L 78.636613 44.152785 
L 78.971748 53.91547 
L 79.306883 54.547727 
L 79.642019 77.184654 
L 80.312289 42.354193 
L 80.647424 64.869405 
L 80.982559 47.011193 
L 81.317694 55.440696 
L 81.652829 48.616409 
L 81.987965 64.733073 
L 82.3231 60.713409 
L 82.658235 55.157257 
L 82.99337 51.945665 
L 83.328505 46.621932 
L 83.66364 23.150108 
L 83.998775 66.731311 
L 84.33391 67.414692 
L 84.669046 21.571517 
L 85.004181 61.204577 
L 85.339316 43.32271 
L 85.674451 33.612676 
L 86.009586 60.50496 
L 86.344721 44.93295 
L 86.679856 36.986124 
L 87.014992 38.940123 
L 87.350127 42.597919 
L 87.685262 30.935006 
L 88.020397 47.947456 
L 88.355532 49.049251 
L 88.690667 36.993514 
L 89.025802 45.44371 
L 89.360938 43.289657 
L 89.696073 43.653916 
L 90.366343 30.399536 
L 90.701478 63.584479 
L 91.036613 40.389929 
L 91.371748 44.462214 
L 91.706883 20.032391 
L 92.042019 27.64405 
L 92.377154 50.522079 
L 92.712289 36.81785 
L 93.047424 65.036106 
L 93.382559 48.62608 
L 93.717694 44.759224 
L 94.052829 47.225934 
L 94.387965 55.904 
L 94.7231 43.342759 
L 95.058235 52.305717 
L 95.728505 34.622941 
L 96.06364 46.638321 
L 96.398775 43.735766 
L 96.73391 35.829576 
L 97.069046 39.239705 
L 97.404181 45.990924 
L 97.739316 43.244207 
L 98.074451 41.515104 
L 98.409586 56.068416 
L 98.744721 57.516866 
L 99.079856 45.946868 
L 99.414992 42.224293 
L 99.750127 55.614767 
L 100.085262 18.093585 
L 100.420397 35.889649 
L 100.755532 45.767829 
L 101.090667 44.170914 
L 101.425802 58.774869 
L 101.760938 42.357114 
L 102.096073 39.730877 
L 102.431208 28.620559 
L 103.101478 18.975604 
L 103.771748 29.302523 
L 104.106883 48.561663 
L 104.442019 32.444124 
L 104.777154 51.061663 
L 105.112289 60.429422 
L 105.447424 42.4733 
L 105.782559 44.90514 
L 106.117694 31.814715 
L 106.452829 35.231351 
L 106.787965 41.074833 
L 107.1231 30.780821 
L 107.458235 34.855575 
L 107.79337 50.537137 
L 108.128505 35.504346 
L 108.46364 34.538663 
L 108.798775 33.038727 
L 109.13391 53.362677 
L 109.469046 44.708835 
L 109.804181 16.80346 
L 110.139316 41.877751 
L 110.474451 32.866575 
L 110.809586 32.063524 
L 111.144721 25.431386 
L 111.479856 44.57068 
L 112.150127 16.921214 
L 112.485262 49.692804 
L 113.155532 38.420424 
L 113.490667 41.388457 
L 113.825802 28.78587 
L 114.160938 42.005853 
L 114.496073 62.281954 
L 114.831208 36.706629 
L 115.166343 43.553115 
L 115.501478 44.852434 
L 115.836613 49.256155 
L 116.171748 42.110074 
L 116.506883 46.544238 
L 116.842019 38.437553 
L 117.177154 53.046107 
L 117.512289 37.648165 
L 118.182559 24.507402 
L 118.517694 60.934571 
L 118.852829 41.53848 
L 119.187965 34.609313 
L 119.5231 33.568426 
L 119.858235 57.460369 
L 120.19337 41.004776 
L 120.528505 56.808467 
L 120.86364 47.861646 
L 121.198775 34.570508 
L 121.53391 45.005004 
L 121.869046 44.846343 
L 122.204181 24.334732 
L 122.539316 32.287808 
L 122.874451 47.291615 
L 123.209586 45.839483 
L 123.544721 53.054067 
L 123.879856 20.584445 
L 124.214992 45.850895 
L 124.885262 54.484502 
L 125.220397 37.35595 
L 125.555532 43.941697 
L 125.890667 61.095593 
L 126.225802 50.98727 
L 126.560938 44.28567 
L 126.896073 50.373738 
L 127.231208 48.747615 
L 127.566343 38.668977 
L 127.901478 60.637884 
L 128.236613 38.762581 
L 128.906883 67.34446 
L 129.242019 49.575607 
L 129.577154 54.881568 
L 129.912289 40.84893 
L 130.247424 50.575043 
L 130.582559 48.435902 
L 130.917694 60.061638 
L 131.252829 50.971172 
L 131.587965 54.598647 
L 131.9231 55.630107 
L 132.258235 51.021574 
L 132.59337 48.440349 
L 132.928505 61.137837 
L 133.26364 55.290587 
L 133.598775 66.187037 
L 133.93391 53.887392 
L 134.269046 61.112027 
L 134.604181 61.501799 
L 134.939316 55.380108 
L 135.274451 39.892391 
L 135.609586 63.135334 
L 135.944721 70.152184 
L 136.279856 41.14356 
L 136.614992 70.597457 
L 136.950127 63.149967 
L 137.285262 72.503036 
L 137.620397 78.258531 
L 137.955532 46.377701 
L 138.290667 61.269872 
L 138.625802 53.574738 
L 138.960938 64.154925 
L 139.296073 88.75006 
L 139.631208 90.905459 
L 139.966343 66.034693 
L 140.301478 82.842835 
L 140.636613 61.998409 
L 140.971748 64.200666 
L 141.306883 85.203084 
L 141.642019 58.680357 
L 141.977154 69.331429 
L 142.312289 62.101149 
L 142.647424 78.218898 
L 142.982559 57.111418 
L 143.317694 60.14318 
L 143.652829 60.300977 
L 144.3231 76.42312 
L 144.99337 82.893877 
L 145.66364 61.623916 
L 145.998775 76.979627 
L 146.33391 78.296543 
L 146.669046 65.075727 
L 147.004181 73.480958 
L 147.339316 63.566481 
L 147.674451 79.267621 
L 148.009586 72.464429 
L 148.344721 77.211513 
L 148.679856 76.704419 
L 149.014992 82.264729 
L 149.350127 64.800253 
L 149.685262 90.828469 
L 150.355532 83.548898 
L 150.690667 78.479944 
L 151.025802 85.302969 
L 151.360938 89.711254 
L 151.696073 90.730696 
L 152.031208 82.882572 
L 152.366343 82.685231 
L 152.701478 76.928329 
L 153.036613 79.776389 
L 153.371748 75.169397 
L 153.706883 81.294019 
L 154.042019 103.618316 
L 154.377154 83.260567 
L 154.712289 78.250441 
L 155.047424 92.20637 
L 155.382559 101.275972 
L 155.717694 87.379842 
L 156.052829 87.254518 
L 156.387965 102.641298 
L 156.7231 104.668965 
L 157.058235 99.166314 
L 157.39337 80.535541 
L 157.728505 119.45119 
L 158.06364 99.584723 
L 158.398775 86.618913 
L 158.73391 86.613988 
L 159.069046 94.82061 
L 159.404181 69.750817 
L 159.739316 107.130226 
L 160.074451 80.189713 
L 160.409586 109.003874 
L 160.744721 114.968379 
L 161.079856 113.812113 
L 161.414992 98.810905 
L 161.750127 96.2319 
L 162.085262 119.408143 
L 162.420397 98.265096 
L 162.755532 101.137356 
L 163.090667 89.552854 
L 163.425802 96.005819 
L 163.760938 99.457179 
L 164.096073 99.9065 
L 164.431208 111.006091 
L 164.766343 100.841976 
L 165.101478 99.223524 
L 165.436613 92.315817 
L 165.771748 88.016058 
L 166.106883 98.838364 
L 166.442019 117.550761 
L 166.777154 111.46194 
L 167.112289 94.554512 
L 167.447424 102.751009 
L 167.782559 113.727103 
L 168.117694 116.797264 
L 168.452829 107.79333 
L 168.787965 118.051338 
L 169.1231 103.678837 
L 169.458235 109.05906 
L 169.79337 128.055775 
L 170.128505 121.324062 
L 170.46364 120.063801 
L 170.798775 102.148302 
L 171.13391 104.70798 
L 171.469046 111.689781 
L 171.804181 111.024483 
L 172.139316 122.119826 
L 172.474451 117.757834 
L 172.809586 117.457363 
L 173.144721 125.530285 
L 173.479856 124.774305 
L 174.150127 105.705734 
L 174.485262 123.591421 
L 174.820397 155.560222 
L 175.490667 117.19179 
L 175.825802 107.0304 
L 176.160938 112.429492 
L 176.496073 127.024674 
L 176.831208 129.506775 
L 177.166343 137.838699 
L 177.501478 108.577843 
L 177.836613 128.6265 
L 178.171748 122.564565 
L 178.506883 134.223435 
L 178.842019 116.184105 
L 179.512289 129.742122 
L 180.182559 117.864525 
L 180.517694 129.828179 
L 180.852829 126.949399 
L 181.187965 108.816785 
L 181.5231 123.17406 
L 181.858235 120.091233 
L 182.19337 137.114192 
L 182.528505 142.018052 
L 182.86364 135.353709 
L 183.198775 124.605929 
L 183.53391 146.643377 
L 183.869046 128.507915 
L 184.204181 141.544939 
L 184.539316 128.479657 
L 184.874451 143.257519 
L 185.544721 117.861769 
L 185.879856 133.762252 
L 186.214992 116.459791 
L 186.550127 127.006714 
L 186.885262 127.648562 
L 187.555532 147.940719 
L 187.890667 125.104714 
L 188.225802 125.420711 
L 188.560938 128.678598 
L 188.896073 118.188261 
L 189.231208 127.680284 
L 189.566343 148.387266 
L 189.901478 147.38519 
L 190.236613 149.820091 
L 190.571748 146.966284 
L 190.906883 151.81986 
L 191.242019 139.66598 
L 191.577154 144.861552 
L 191.912289 134.062391 
L 192.247424 136.506352 
L 192.582559 126.540617 
L 192.917694 128.205175 
L 193.252829 126.205573 
L 193.587965 154.821166 
L 193.9231 127.314573 
L 194.258235 136.232615 
L 194.59337 141.537521 
L 194.928505 144.096257 
L 195.26364 133.315084 
L 195.598775 152.331515 
L 195.93391 145.644001 
L 196.604181 137.215297 
L 196.939316 141.903891 
L 197.274451 132.360419 
L 197.609586 151.768021 
L 197.944721 134.104024 
L 198.279856 129.071882 
L 198.614992 147.694764 
L 198.950127 142.509524 
L 199.285262 134.520397 
L 199.620397 156.020436 
L 199.955532 155.669101 
L 200.290667 137.099236 
L 200.625802 155.729117 
L 200.960938 133.145261 
L 201.296073 134.458241 
L 201.631208 160.311433 
L 201.966343 158.880354 
L 202.301478 138.53584 
L 202.636613 153.423774 
L 202.971748 161.902001 
L 203.642019 141.086066 
L 204.312289 151.368629 
L 204.647424 144.038852 
L 204.982559 142.34611 
L 205.317694 142.245139 
L 205.652829 150.709378 
L 205.987965 147.884779 
L 206.3231 151.074181 
L 206.658235 128.869486 
L 206.99337 147.841802 
L 207.328505 132.379579 
L 207.66364 126.907733 
L 207.998775 132.698244 
L 208.33391 156.809245 
L 208.669046 138.525494 
L 209.004181 142.024604 
L 209.339316 143.075767 
L 209.674451 154.731508 
L 210.009586 157.424226 
L 210.344721 134.495757 
L 210.679856 164.524383 
L 211.014992 148.842655 
L 211.350127 156.056305 
L 211.685262 128.707563 
L 212.020397 146.760778 
L 212.355532 149.001953 
L 212.690667 140.257684 
L 213.025802 126.493267 
L 213.360938 145.495318 
L 213.696073 141.766441 
L 214.031208 140.191609 
L 214.366343 134.362856 
L 214.701478 151.401964 
L 215.036613 137.584275 
L 215.371748 168.00346 
L 215.706883 136.697525 
L 216.042019 154.72843 
L 216.377154 144.95298 
L 216.712289 155.858573 
L 217.382559 145.550318 
L 217.717694 146.359416 
L 218.052829 140.772152 
L 218.7231 144.039661 
L 219.058235 153.174473 
L 219.728505 124.50865 
L 220.06364 157.846018 
L 220.73391 142.534043 
L 221.069046 152.945812 
L 221.404181 151.952387 
L 221.739316 162.418583 
L 222.074451 128.609455 
L 222.409586 138.715496 
L 222.744721 121.272978 
L 223.079856 137.407687 
L 223.414992 127.763903 
L 223.750127 162.458271 
L 224.085262 152.523988 
L 224.420397 118.768819 
L 224.755532 156.007838 
L 225.090667 147.713504 
L 225.425802 136.30702 
L 225.760938 154.918106 
L 226.096073 134.588145 
L 226.431208 142.28714 
L 226.766343 145.394808 
L 227.101478 127.003115 
L 227.436613 152.271385 
L 227.771748 165.537745 
L 228.106883 143.372838 
L 228.442019 133.959424 
L 229.112289 148.141586 
L 229.447424 135.390956 
L 229.782559 129.183532 
L 230.117694 159.392573 
L 230.452829 116.395462 
L 230.787965 139.292673 
L 231.1231 134.087632 
L 231.458235 122.062894 
L 231.79337 128.74123 
L 232.128505 139.954355 
L 232.46364 129.658906 
L 232.798775 110.831943 
L 233.13391 129.516868 
L 233.469046 136.932597 
L 234.139316 126.999359 
L 234.474451 129.221051 
L 234.809586 125.962813 
L 235.144721 139.63881 
L 235.479856 144.089782 
L 236.150127 123.231695 
L 236.485262 139.194534 
L 236.820397 125.270055 
L 237.155532 128.832252 
L 237.490667 125.084541 
L 237.825802 144.317956 
L 238.496073 112.14344 
L 238.831208 126.485228 
L 239.166343 133.880882 
L 239.501478 138.343028 
L 239.836613 116.207716 
L 240.171748 135.45332 
L 240.842019 107.411941 
L 241.177154 127.003761 
L 241.512289 126.185492 
L 241.847424 110.173128 
L 242.182559 100.708502 
L 242.517694 124.620955 
L 242.852829 116.307601 
L 243.187965 124.746825 
L 243.5231 151.570181 
L 243.858235 123.795577 
L 244.19337 130.558421 
L 244.528505 116.602464 
L 244.86364 108.295694 
L 245.198775 115.865571 
L 245.53391 113.795094 
L 246.204181 119.91254 
L 246.539316 117.055471 
L 246.874451 111.411539 
L 247.209586 126.247001 
L 247.544721 110.250238 
L 247.879856 135.287535 
L 248.214992 113.946849 
L 248.550127 116.723255 
L 248.885262 114.491488 
L 249.220397 93.124259 
L 249.555532 116.193243 
L 249.890667 114.600266 
L 250.225802 119.60875 
L 250.560938 90.419419 
L 250.896073 102.763996 
L 251.231208 98.650262 
L 251.566343 106.60387 
L 251.901478 103.551493 
L 252.236613 121.272079 
L 252.571748 98.807581 
L 252.906883 118.85756 
L 253.242019 112.749446 
L 253.577154 92.728951 
L 253.912289 95.540236 
L 254.247424 102.944543 
L 254.582559 105.670818 
L 254.917694 92.649966 
L 255.252829 96.787314 
L 255.587965 84.139287 
L 255.9231 104.707031 
L 256.258235 89.184819 
L 256.59337 83.847762 
L 256.928505 86.967891 
L 257.26364 86.515316 
L 257.598775 108.679834 
L 257.93391 96.010099 
L 258.604181 90.869313 
L 258.939316 110.067579 
L 259.274451 95.741092 
L 259.609586 98.5589 
L 259.944721 81.212224 
L 260.279856 87.78431 
L 260.614992 91.658259 
L 260.950127 103.956688 
L 261.285262 104.107794 
L 261.620397 80.856911 
L 261.955532 67.73766 
L 262.290667 91.810589 
L 262.625802 83.027147 
L 262.960938 99.350225 
L 263.296073 78.022504 
L 263.631208 89.498315 
L 263.966343 84.109591 
L 264.301478 74.449961 
L 264.636613 92.486957 
L 265.306883 99.857734 
L 265.977154 102.958462 
L 266.312289 71.341131 
L 266.647424 97.057579 
L 266.982559 90.044541 
L 267.317694 87.228142 
L 267.652829 85.424305 
L 267.987965 85.456019 
L 268.3231 89.281686 
L 268.658235 80.559724 
L 269.328505 109.714203 
L 269.66364 80.99274 
L 269.998775 91.116469 
L 270.33391 63.495997 
L 270.669046 67.1182 
L 271.004181 89.704913 
L 271.339316 74.495002 
L 271.674451 78.37453 
L 272.009586 54.867451 
L 272.344721 70.447624 
L 272.679856 79.927294 
L 273.014992 76.670268 
L 273.350127 78.754175 
L 273.685262 73.63615 
L 274.020397 71.172762 
L 274.355532 79.852814 
L 274.690667 75.273866 
L 275.025802 61.241419 
L 275.360937 71.005888 
L 275.696073 68.845085 
L 276.031208 49.221662 
L 276.366343 57.064797 
L 276.701478 77.507122 
L 277.036613 75.453357 
L 277.371748 52.256834 
L 277.706883 72.440537 
L 278.042019 67.001253 
L 278.377154 77.904479 
L 278.712289 69.982199 
L 279.047424 68.89459 
L 279.382559 63.321216 
L 279.717694 79.440964 
L 280.052829 58.804947 
L 280.387965 61.266077 
L 280.7231 68.225009 
L 281.058235 62.333556 
L 281.39337 60.933554 
L 281.728505 57.81586 
L 282.06364 45.644161 
L 282.398775 42.296049 
L 282.73391 75.991327 
L 283.069046 57.11043 
L 283.404181 70.85474 
L 283.739316 53.703784 
L 284.074451 68.018912 
L 284.409586 42.781946 
L 284.744721 51.103575 
L 285.079856 63.747807 
L 285.750127 40.85927 
L 286.085262 62.649963 
L 286.420397 74.335377 
L 286.755532 52.07364 
L 287.090667 63.515371 
L 287.425802 38.235953 
L 287.760938 49.002013 
L 288.096073 39.990371 
L 288.431208 56.617626 
L 289.101478 27.126463 
L 289.436613 46.161405 
L 289.771748 42.960422 
L 290.106883 71.067392 
L 290.442019 45.348612 
L 290.777154 45.803915 
L 291.112289 58.297002 
L 291.447424 53.778759 
L 291.782559 66.472098 
L 292.117694 50.737543 
L 292.452829 41.949741 
L 292.787965 52.222482 
L 293.1231 66.131047 
L 293.458235 48.820127 
L 293.79337 56.347969 
L 294.128505 34.103819 
L 294.46364 52.21458 
L 294.798775 40.004664 
L 295.13391 37.047381 
L 295.469046 33.032796 
L 295.804181 47.060059 
L 296.474451 61.831075 
L 296.809586 36.558938 
L 297.144721 37.196576 
L 297.479856 55.416325 
L 297.814992 39.890388 
L 298.150127 44.396034 
L 298.485262 51.112612 
L 298.820397 52.043808 
L 299.155532 38.560121 
L 299.490667 38.529339 
L 299.825802 39.4438 
L 300.160938 42.367534 
L 300.496073 36.508379 
L 300.831208 25.886731 
L 301.166343 21.518764 
L 301.501478 39.986068 
L 301.836613 47.68666 
L 302.171748 43.33639 
L 302.506883 44.368505 
L 302.842019 40.666996 
L 303.177154 40.800543 
L 303.512289 57.137302 
L 303.847424 39.295946 
L 304.182559 47.277805 
L 304.517694 23.115685 
L 304.852829 21.147031 
L 305.187965 35.544015 
L 305.5231 37.900521 
L 305.858235 58.445282 
L 306.528505 40.717904 
L 306.86364 41.637918 
L 307.198775 48.960984 
L 307.53391 46.81746 
L 307.869046 46.796474 
L 308.204181 27.186933 
L 308.539316 33.847665 
L 308.874451 49.256309 
L 309.209586 46.215234 
L 309.544721 40.736043 
L 309.879856 27.814385 
L 310.550127 36.976482 
L 310.885262 55.109257 
L 311.220397 30.601772 
L 311.555532 37.026951 
L 311.890667 47.68696 
L 312.225802 23.283895 
L 312.560938 17.87632 
L 312.896073 33.152673 
L 313.231208 25.782395 
L 313.566343 27.653398 
L 313.901478 39.266165 
L 314.236613 46.247746 
L 314.571748 45.977103 
L 314.906883 30.015589 
L 315.242019 27.782419 
L 315.577154 37.482686 
L 315.912289 37.605085 
L 316.247424 51.722446 
L 316.582559 40.881469 
L 317.252829 57.634824 
L 317.587965 30.604306 
L 317.9231 22.455059 
L 318.258235 37.315289 
L 318.59337 36.734641 
L 318.928505 47.419142 
L 319.26364 29.632475 
L 319.598775 39.278482 
L 319.93391 44.585262 
L 320.269046 24.832446 
L 320.604181 43.907652 
L 320.939316 26.963871 
L 321.274451 29.35058 
L 321.609586 57.474545 
L 321.944721 37.745252 
L 322.279856 39.014394 
L 322.614992 31.017857 
L 322.950127 28.492421 
L 323.285262 31.378175 
L 323.620397 42.215534 
L 323.955532 40.656157 
L 324.290667 51.475998 
L 324.625802 26.454992 
L 324.960938 36.149508 
L 325.296073 37.92733 
L 325.631208 19.904183 
L 325.966343 42.367476 
L 326.301478 42.438423 
L 326.636613 30.173869 
L 327.306883 47.967818 
L 327.977154 35.826703 
L 328.312289 58.162706 
L 328.647424 51.987442 
L 328.982559 59.894567 
L 329.317694 39.457844 
L 329.652829 45.875617 
L 329.987965 43.037898 
L 330.3231 58.142679 
L 330.658235 42.161564 
L 330.99337 31.649653 
L 331.328505 46.286235 
L 331.66364 40.676174 
L 331.998775 31.750476 
L 332.33391 31.252986 
L 332.669046 29.350401 
L 333.004181 57.176936 
L 333.339316 30.485164 
L 333.674451 60.029743 
L 334.009586 67.793515 
L 334.344721 51.37002 
L 334.679856 27.025557 
L 335.014992 40.617448 
L 335.350127 45.426969 
L 335.685262 44.465538 
L 336.020397 39.440006 
L 336.355532 47.311399 
L 336.690667 44.759397 
L 337.025802 59.679582 
L 337.360937 62.447205 
L 337.696073 34.69361 
L 338.031208 65.159344 
L 338.366343 46.013362 
L 339.036613 59.453816 
L 339.371748 49.590752 
L 339.706883 53.567588 
L 340.042019 38.309437 
L 340.377154 49.299282 
L 340.712289 41.843677 
L 341.047424 36.98622 
L 341.382559 37.676784 
L 341.717694 38.768841 
L 342.052829 45.255754 
L 342.387965 68.668514 
L 343.058235 57.948524 
L 343.39337 56.003199 
L 343.728505 44.192179 
L 344.06364 63.87019 
L 344.398775 40.845274 
L 344.73391 71.239856 
L 345.069046 54.085322 
L 345.404181 73.73229 
L 345.739316 53.874925 
L 346.074451 76.656723 
L 346.409586 51.398729 
L 346.744721 48.694814 
L 347.079856 34.088732 
L 347.414992 42.042083 
L 347.750127 69.644903 
L 348.085262 59.445447 
L 348.420397 63.023672 
L 348.755532 49.072071 
L 349.090667 54.901425 
L 349.760938 72.612494 
L 350.096073 72.304274 
L 350.431208 61.977308 
L 350.766343 56.937165 
L 351.101478 56.398745 
L 351.436613 73.066404 
L 351.771748 48.788145 
L 352.106883 85.635472 
L 352.442019 62.093487 
L 352.777154 71.117324 
L 353.112289 68.305645 
L 353.447424 64.266978 
L 353.782559 74.123564 
L 354.117694 77.61829 
L 354.452829 61.046988 
L 355.1231 94.834594 
L 355.458235 80.154813 
L 355.79337 90.793557 
L 356.128505 84.278919 
L 356.46364 87.261005 
L 356.798775 71.799287 
L 357.13391 50.842554 
L 357.469046 81.464865 
L 357.804181 92.85745 
L 358.139316 69.027066 
L 358.474451 65.071939 
L 359.144721 87.554617 
L 359.479856 56.397837 
L 359.814992 72.286833 
L 360.150127 104.44644 
L 360.485262 96.55109 
L 360.820397 85.857736 
L 361.155532 91.361128 
L 361.490667 87.402167 
L 361.825802 93.691536 
L 362.160938 102.593117 
L 362.496073 80.820465 
L 362.831208 76.829849 
L 363.166343 104.095737 
L 363.501478 95.711944 
L 363.836613 75.303354 
L 364.171748 72.627046 
L 364.506883 100.319952 
L 364.842019 81.871671 
L 365.177154 81.424525 
L 365.512289 102.149206 
L 365.847424 87.359226 
L 366.182559 64.989174 
L 366.517694 93.309312 
L 366.852829 93.202492 
L 367.187965 78.574612 
L 367.5231 95.325265 
L 367.858235 85.260163 
L 368.19337 93.623935 
L 368.528505 74.53235 
L 368.86364 94.629762 
L 369.198775 87.100617 
L 369.53391 92.426369 
L 369.869046 106.926669 
L 370.204181 92.208608 
L 370.539316 105.798474 
L 370.874451 114.211192 
L 371.209586 92.612956 
L 371.544721 104.350534 
L 371.879856 107.233859 
L 372.214992 99.196356 
L 372.550127 99.523582 
L 372.885262 86.681583 
L 373.220397 102.347639 
L 373.555532 75.307622 
L 373.890667 105.719369 
L 374.225802 96.818711 
L 374.560938 94.17815 
L 375.231208 113.251168 
L 375.566343 114.58341 
L 375.901478 85.165622 
L 376.236613 69.739514 
L 376.571748 97.41762 
L 376.906883 96.003844 
L 377.242019 112.70135 
L 377.577154 116.623308 
L 377.912289 114.635674 
L 378.247424 91.440528 
L 378.582559 101.308971 
L 378.917694 123.442879 
L 379.252829 122.526793 
L 379.9231 111.496093 
L 380.258235 102.926062 
L 380.59337 113.923414 
L 380.928505 99.051056 
L 381.26364 115.86453 
L 381.598775 105.769359 
L 381.93391 108.295696 
L 382.269046 119.076831 
L 382.604181 119.726779 
L 383.274451 132.017009 
L 383.609586 113.645848 
L 384.279856 107.372622 
L 384.614992 118.005402 
L 384.950127 123.273822 
L 385.285262 107.525897 
L 385.620397 122.874046 
L 385.955532 120.678951 
L 386.290667 127.361299 
L 386.625802 109.044501 
L 386.960938 114.360402 
L 386.960938 114.360402 
" clip-path="url(#p52ec5cf554)" style="fill: none; stroke: #1f77b4; stroke-width: 1.5; stroke-linecap: square"/>
   </g>
   <g id="patch_3">
    <path d="M 52.160938 175.56346 
L 52.160938 9.24346 
" style="fill: none; stroke: #000000; stroke-width: 0.8; stroke-linejoin: miter; stroke-linecap: square"/>
   </g>
   <g id="patch_4">
    <path d="M 386.960938 175.56346 
L 386.960938 9.24346 
" style="fill: none; stroke: #000000; stroke-width: 0.8; stroke-linejoin: miter; stroke-linecap: square"/>
   </g>
   <g id="patch_5">
    <path d="M 52.160938 175.56346 
L 386.960938 175.56346 
" style="fill: none; stroke: #000000; stroke-width: 0.8; stroke-linejoin: miter; stroke-linecap: square"/>
   </g>
   <g id="patch_6">
    <path d="M 52.160938 9.24346 
L 386.960938 9.24346 
" style="fill: none; stroke: #000000; stroke-width: 0.8; stroke-linejoin: miter; stroke-linecap: square"/>
   </g>
  </g>
 </g>
 <defs>
  <clipPath id="p52ec5cf554">
   <rect x="52.160938" y="9.24346" width="334.8" height="166.32"/>
  </clipPath>
 </defs>
</svg>
