<?xml version="1.0" encoding="utf-8" standalone="no"?>
<!DOCTYPE svg PUBLIC "-//W3C//DTD SVG 1.1//EN"
  "http://www.w3.org/Graphics/SVG/1.1/DTD/svg11.dtd">
<svg xmlns:xlink="http://www.w3.org/1999/xlink" width="406.885938pt" height="211.07625pt" viewBox="0 0 406.885938 211.07625" xmlns="http://www.w3.org/2000/svg" version="1.1">
 <metadata>
  <rdf:RDF xmlns:dc="http://purl.org/dc/elements/1.1/" xmlns:cc="http://creativecommons.org/ns#" xmlns:rdf="http://www.w3.org/1999/02/22-rdf-syntax-ns#">
   <cc:Work>
    <dc:type rdf:resource="http://purl.org/dc/dcmitype/StillImage"/>
    <dc:date>2023-05-06T10:00:22.616050</dc:date>
    <dc:format>image/svg+xml</dc:format>
    <dc:creator>
     <cc:Agent>
      <dc:title>Matplotlib v3.5.1, https://matplotlib.org/</dc:title>
     </cc:Agent>
    </dc:creator>
   </cc:Work>
  </rdf:RDF>
 </metadata>
 <defs>
  <style type="text/css">*{stroke-linejoin: round; stroke-linecap: butt}</style>
 </defs>
 <g id="figure_1">
  <g id="patch_1">
   <path d="M 0 211.07625 
L 406.885938 211.07625 
L 406.885938 0 
L 0 0 
z
" style="fill: #ffffff"/>
  </g>
  <g id="axes_1">
   <g id="patch_2">
    <path d="M 52.160938 173.52 
L 386.960938 173.52 
L 386.960938 7.2 
L 52.160938 7.2 
z
" style="fill: #ffffff"/>
   </g>
   <g id="matplotlib.axis_1">
    <g id="xtick_1">
     <g id="line2d_1">
      <path d="M 118.852829 173.52 
L 118.852829 7.2 
" clip-path="url(#p266b485fa4)" style="fill: none; stroke: #b0b0b0; stroke-width: 0.8; stroke-linecap: square"/>
     </g>
     <g id="line2d_2">
      <defs>
       <path id="mf85a0afc64" d="M 0 0 
L 0 3.5 
" style="stroke: #000000; stroke-width: 0.8"/>
      </defs>
      <g>
       <use xlink:href="#mf85a0afc64" x="118.852829" y="173.52" style="stroke: #000000; stroke-width: 0.8"/>
      </g>
     </g>
     <g id="text_1">
      <!-- 200 -->
      <g transform="translate(109.309079 188.118438)scale(0.1 -0.1)">
       <defs>
        <path id="DejaVuSans-32" d="M 1228 531 
L 3431 531 
L 3431 0 
L 469 0 
L 469 531 
Q 828 903 1448 1529 
Q 2069 2156 2228 2338 
Q 2531 2678 2651 2914 
Q 2772 3150 2772 3378 
Q 2772 3750 2511 3984 
Q 2250 4219 1831 4219 
Q 1534 4219 1204 4116 
Q 875 4013 500 3803 
L 500 4441 
Q 881 4594 1212 4672 
Q 1544 4750 1819 4750 
Q 2544 4750 2975 4387 
Q 3406 4025 3406 3419 
Q 3406 3131 3298 2873 
Q 3191 2616 2906 2266 
Q 2828 2175 2409 1742 
Q 1991 1309 1228 531 
z
" transform="scale(0.015625)"/>
        <path id="DejaVuSans-30" d="M 2034 4250 
Q 1547 4250 1301 3770 
Q 1056 3291 1056 2328 
Q 1056 1369 1301 889 
Q 1547 409 2034 409 
Q 2525 409 2770 889 
Q 3016 1369 3016 2328 
Q 3016 3291 2770 3770 
Q 2525 4250 2034 4250 
z
M 2034 4750 
Q 2819 4750 3233 4129 
Q 3647 3509 3647 2328 
Q 3647 1150 3233 529 
Q 2819 -91 2034 -91 
Q 1250 -91 836 529 
Q 422 1150 422 2328 
Q 422 3509 836 4129 
Q 1250 4750 2034 4750 
z
" transform="scale(0.015625)"/>
       </defs>
       <use xlink:href="#DejaVuSans-32"/>
       <use xlink:href="#DejaVuSans-30" x="63.623047"/>
       <use xlink:href="#DejaVuSans-30" x="127.246094"/>
      </g>
     </g>
    </g>
    <g id="xtick_2">
     <g id="line2d_3">
      <path d="M 185.879856 173.52 
L 185.879856 7.2 
" clip-path="url(#p266b485fa4)" style="fill: none; stroke: #b0b0b0; stroke-width: 0.8; stroke-linecap: square"/>
     </g>
     <g id="line2d_4">
      <g>
       <use xlink:href="#mf85a0afc64" x="185.879856" y="173.52" style="stroke: #000000; stroke-width: 0.8"/>
      </g>
     </g>
     <g id="text_2">
      <!-- 400 -->
      <g transform="translate(176.336106 188.118438)scale(0.1 -0.1)">
       <defs>
        <path id="DejaVuSans-34" d="M 2419 4116 
L 825 1625 
L 2419 1625 
L 2419 4116 
z
M 2253 4666 
L 3047 4666 
L 3047 1625 
L 3713 1625 
L 3713 1100 
L 3047 1100 
L 3047 0 
L 2419 0 
L 2419 1100 
L 313 1100 
L 313 1709 
L 2253 4666 
z
" transform="scale(0.015625)"/>
       </defs>
       <use xlink:href="#DejaVuSans-34"/>
       <use xlink:href="#DejaVuSans-30" x="63.623047"/>
       <use xlink:href="#DejaVuSans-30" x="127.246094"/>
      </g>
     </g>
    </g>
    <g id="xtick_3">
     <g id="line2d_5">
      <path d="M 252.906883 173.52 
L 252.906883 7.2 
" clip-path="url(#p266b485fa4)" style="fill: none; stroke: #b0b0b0; stroke-width: 0.8; stroke-linecap: square"/>
     </g>
     <g id="line2d_6">
      <g>
       <use xlink:href="#mf85a0afc64" x="252.906883" y="173.52" style="stroke: #000000; stroke-width: 0.8"/>
      </g>
     </g>
     <g id="text_3">
      <!-- 600 -->
      <g transform="translate(243.363133 188.118438)scale(0.1 -0.1)">
       <defs>
        <path id="DejaVuSans-36" d="M 2113 2584 
Q 1688 2584 1439 2293 
Q 1191 2003 1191 1497 
Q 1191 994 1439 701 
Q 1688 409 2113 409 
Q 2538 409 2786 701 
Q 3034 994 3034 1497 
Q 3034 2003 2786 2293 
Q 2538 2584 2113 2584 
z
M 3366 4563 
L 3366 3988 
Q 3128 4100 2886 4159 
Q 2644 4219 2406 4219 
Q 1781 4219 1451 3797 
Q 1122 3375 1075 2522 
Q 1259 2794 1537 2939 
Q 1816 3084 2150 3084 
Q 2853 3084 3261 2657 
Q 3669 2231 3669 1497 
Q 3669 778 3244 343 
Q 2819 -91 2113 -91 
Q 1303 -91 875 529 
Q 447 1150 447 2328 
Q 447 3434 972 4092 
Q 1497 4750 2381 4750 
Q 2619 4750 2861 4703 
Q 3103 4656 3366 4563 
z
" transform="scale(0.015625)"/>
       </defs>
       <use xlink:href="#DejaVuSans-36"/>
       <use xlink:href="#DejaVuSans-30" x="63.623047"/>
       <use xlink:href="#DejaVuSans-30" x="127.246094"/>
      </g>
     </g>
    </g>
    <g id="xtick_4">
     <g id="line2d_7">
      <path d="M 319.93391 173.52 
L 319.93391 7.2 
" clip-path="url(#p266b485fa4)" style="fill: none; stroke: #b0b0b0; stroke-width: 0.8; stroke-linecap: square"/>
     </g>
     <g id="line2d_8">
      <g>
       <use xlink:href="#mf85a0afc64" x="319.93391" y="173.52" style="stroke: #000000; stroke-width: 0.8"/>
      </g>
     </g>
     <g id="text_4">
      <!-- 800 -->
      <g transform="translate(310.39016 188.118438)scale(0.1 -0.1)">
       <defs>
        <path id="DejaVuSans-38" d="M 2034 2216 
Q 1584 2216 1326 1975 
Q 1069 1734 1069 1313 
Q 1069 891 1326 650 
Q 1584 409 2034 409 
Q 2484 409 2743 651 
Q 3003 894 3003 1313 
Q 3003 1734 2745 1975 
Q 2488 2216 2034 2216 
z
M 1403 2484 
Q 997 2584 770 2862 
Q 544 3141 544 3541 
Q 544 4100 942 4425 
Q 1341 4750 2034 4750 
Q 2731 4750 3128 4425 
Q 3525 4100 3525 3541 
Q 3525 3141 3298 2862 
Q 3072 2584 2669 2484 
Q 3125 2378 3379 2068 
Q 3634 1759 3634 1313 
Q 3634 634 3220 271 
Q 2806 -91 2034 -91 
Q 1263 -91 848 271 
Q 434 634 434 1313 
Q 434 1759 690 2068 
Q 947 2378 1403 2484 
z
M 1172 3481 
Q 1172 3119 1398 2916 
Q 1625 2713 2034 2713 
Q 2441 2713 2670 2916 
Q 2900 3119 2900 3481 
Q 2900 3844 2670 4047 
Q 2441 4250 2034 4250 
Q 1625 4250 1398 4047 
Q 1172 3844 1172 3481 
z
" transform="scale(0.015625)"/>
       </defs>
       <use xlink:href="#DejaVuSans-38"/>
       <use xlink:href="#DejaVuSans-30" x="63.623047"/>
       <use xlink:href="#DejaVuSans-30" x="127.246094"/>
      </g>
     </g>
    </g>
    <g id="xtick_5">
     <g id="line2d_9">
      <path d="M 386.960938 173.52 
L 386.960938 7.2 
" clip-path="url(#p266b485fa4)" style="fill: none; stroke: #b0b0b0; stroke-width: 0.8; stroke-linecap: square"/>
     </g>
     <g id="line2d_10">
      <g>
       <use xlink:href="#mf85a0afc64" x="386.960938" y="173.52" style="stroke: #000000; stroke-width: 0.8"/>
      </g>
     </g>
     <g id="text_5">
      <!-- 1000 -->
      <g transform="translate(374.235937 188.118438)scale(0.1 -0.1)">
       <defs>
        <path id="DejaVuSans-31" d="M 794 531 
L 1825 531 
L 1825 4091 
L 703 3866 
L 703 4441 
L 1819 4666 
L 2450 4666 
L 2450 531 
L 3481 531 
L 3481 0 
L 794 0 
L 794 531 
z
" transform="scale(0.015625)"/>
       </defs>
       <use xlink:href="#DejaVuSans-31"/>
       <use xlink:href="#DejaVuSans-30" x="63.623047"/>
       <use xlink:href="#DejaVuSans-30" x="127.246094"/>
       <use xlink:href="#DejaVuSans-30" x="190.869141"/>
      </g>
     </g>
    </g>
    <g id="text_6">
     <!-- time -->
     <g transform="translate(208.264844 201.796563)scale(0.1 -0.1)">
      <defs>
       <path id="DejaVuSans-74" d="M 1172 4494 
L 1172 3500 
L 2356 3500 
L 2356 3053 
L 1172 3053 
L 1172 1153 
Q 1172 725 1289 603 
Q 1406 481 1766 481 
L 2356 481 
L 2356 0 
L 1766 0 
Q 1100 0 847 248 
Q 594 497 594 1153 
L 594 3053 
L 172 3053 
L 172 3500 
L 594 3500 
L 594 4494 
L 1172 4494 
z
" transform="scale(0.015625)"/>
       <path id="DejaVuSans-69" d="M 603 3500 
L 1178 3500 
L 1178 0 
L 603 0 
L 603 3500 
z
M 603 4863 
L 1178 4863 
L 1178 4134 
L 603 4134 
L 603 4863 
z
" transform="scale(0.015625)"/>
       <path id="DejaVuSans-6d" d="M 3328 2828 
Q 3544 3216 3844 3400 
Q 4144 3584 4550 3584 
Q 5097 3584 5394 3201 
Q 5691 2819 5691 2113 
L 5691 0 
L 5113 0 
L 5113 2094 
Q 5113 2597 4934 2840 
Q 4756 3084 4391 3084 
Q 3944 3084 3684 2787 
Q 3425 2491 3425 1978 
L 3425 0 
L 2847 0 
L 2847 2094 
Q 2847 2600 2669 2842 
Q 2491 3084 2119 3084 
Q 1678 3084 1418 2786 
Q 1159 2488 1159 1978 
L 1159 0 
L 581 0 
L 581 3500 
L 1159 3500 
L 1159 2956 
Q 1356 3278 1631 3431 
Q 1906 3584 2284 3584 
Q 2666 3584 2933 3390 
Q 3200 3197 3328 2828 
z
" transform="scale(0.015625)"/>
       <path id="DejaVuSans-65" d="M 3597 1894 
L 3597 1613 
L 953 1613 
Q 991 1019 1311 708 
Q 1631 397 2203 397 
Q 2534 397 2845 478 
Q 3156 559 3463 722 
L 3463 178 
Q 3153 47 2828 -22 
Q 2503 -91 2169 -91 
Q 1331 -91 842 396 
Q 353 884 353 1716 
Q 353 2575 817 3079 
Q 1281 3584 2069 3584 
Q 2775 3584 3186 3129 
Q 3597 2675 3597 1894 
z
M 3022 2063 
Q 3016 2534 2758 2815 
Q 2500 3097 2075 3097 
Q 1594 3097 1305 2825 
Q 1016 2553 972 2059 
L 3022 2063 
z
" transform="scale(0.015625)"/>
      </defs>
      <use xlink:href="#DejaVuSans-74"/>
      <use xlink:href="#DejaVuSans-69" x="39.208984"/>
      <use xlink:href="#DejaVuSans-6d" x="66.992188"/>
      <use xlink:href="#DejaVuSans-65" x="164.404297"/>
     </g>
    </g>
   </g>
   <g id="matplotlib.axis_2">
    <g id="ytick_1">
     <g id="line2d_11">
      <path d="M 52.160938 148.873245 
L 386.960938 148.873245 
" clip-path="url(#p266b485fa4)" style="fill: none; stroke: #b0b0b0; stroke-width: 0.8; stroke-linecap: square"/>
     </g>
     <g id="line2d_12">
      <defs>
       <path id="m91c8093118" d="M 0 0 
L -3.5 0 
" style="stroke: #000000; stroke-width: 0.8"/>
      </defs>
      <g>
       <use xlink:href="#m91c8093118" x="52.160938" y="148.873245" style="stroke: #000000; stroke-width: 0.8"/>
      </g>
     </g>
     <g id="text_7">
      <!-- −1.0 -->
      <g transform="translate(20.878125 152.672464)scale(0.1 -0.1)">
       <defs>
        <path id="DejaVuSans-2212" d="M 678 2272 
L 4684 2272 
L 4684 1741 
L 678 1741 
L 678 2272 
z
" transform="scale(0.015625)"/>
        <path id="DejaVuSans-2e" d="M 684 794 
L 1344 794 
L 1344 0 
L 684 0 
L 684 794 
z
" transform="scale(0.015625)"/>
       </defs>
       <use xlink:href="#DejaVuSans-2212"/>
       <use xlink:href="#DejaVuSans-31" x="83.789062"/>
       <use xlink:href="#DejaVuSans-2e" x="147.412109"/>
       <use xlink:href="#DejaVuSans-30" x="179.199219"/>
      </g>
     </g>
    </g>
    <g id="ytick_2">
     <g id="line2d_13">
      <path d="M 52.160938 122.067496 
L 386.960938 122.067496 
" clip-path="url(#p266b485fa4)" style="fill: none; stroke: #b0b0b0; stroke-width: 0.8; stroke-linecap: square"/>
     </g>
     <g id="line2d_14">
      <g>
       <use xlink:href="#m91c8093118" x="52.160938" y="122.067496" style="stroke: #000000; stroke-width: 0.8"/>
      </g>
     </g>
     <g id="text_8">
      <!-- −0.5 -->
      <g transform="translate(20.878125 125.866715)scale(0.1 -0.1)">
       <defs>
        <path id="DejaVuSans-35" d="M 691 4666 
L 3169 4666 
L 3169 4134 
L 1269 4134 
L 1269 2991 
Q 1406 3038 1543 3061 
Q 1681 3084 1819 3084 
Q 2600 3084 3056 2656 
Q 3513 2228 3513 1497 
Q 3513 744 3044 326 
Q 2575 -91 1722 -91 
Q 1428 -91 1123 -41 
Q 819 9 494 109 
L 494 744 
Q 775 591 1075 516 
Q 1375 441 1709 441 
Q 2250 441 2565 725 
Q 2881 1009 2881 1497 
Q 2881 1984 2565 2268 
Q 2250 2553 1709 2553 
Q 1456 2553 1204 2497 
Q 953 2441 691 2322 
L 691 4666 
z
" transform="scale(0.015625)"/>
       </defs>
       <use xlink:href="#DejaVuSans-2212"/>
       <use xlink:href="#DejaVuSans-30" x="83.789062"/>
       <use xlink:href="#DejaVuSans-2e" x="147.412109"/>
       <use xlink:href="#DejaVuSans-35" x="179.199219"/>
      </g>
     </g>
    </g>
    <g id="ytick_3">
     <g id="line2d_15">
      <path d="M 52.160938 95.261748 
L 386.960938 95.261748 
" clip-path="url(#p266b485fa4)" style="fill: none; stroke: #b0b0b0; stroke-width: 0.8; stroke-linecap: square"/>
     </g>
     <g id="line2d_16">
      <g>
       <use xlink:href="#m91c8093118" x="52.160938" y="95.261748" style="stroke: #000000; stroke-width: 0.8"/>
      </g>
     </g>
     <g id="text_9">
      <!-- 0.0 -->
      <g transform="translate(29.257812 99.060966)scale(0.1 -0.1)">
       <use xlink:href="#DejaVuSans-30"/>
       <use xlink:href="#DejaVuSans-2e" x="63.623047"/>
       <use xlink:href="#DejaVuSans-30" x="95.410156"/>
      </g>
     </g>
    </g>
    <g id="ytick_4">
     <g id="line2d_17">
      <path d="M 52.160938 68.455999 
L 386.960938 68.455999 
" clip-path="url(#p266b485fa4)" style="fill: none; stroke: #b0b0b0; stroke-width: 0.8; stroke-linecap: square"/>
     </g>
     <g id="line2d_18">
      <g>
       <use xlink:href="#m91c8093118" x="52.160938" y="68.455999" style="stroke: #000000; stroke-width: 0.8"/>
      </g>
     </g>
     <g id="text_10">
      <!-- 0.5 -->
      <g transform="translate(29.257812 72.255218)scale(0.1 -0.1)">
       <use xlink:href="#DejaVuSans-30"/>
       <use xlink:href="#DejaVuSans-2e" x="63.623047"/>
       <use xlink:href="#DejaVuSans-35" x="95.410156"/>
      </g>
     </g>
    </g>
    <g id="ytick_5">
     <g id="line2d_19">
      <path d="M 52.160938 41.65025 
L 386.960938 41.65025 
" clip-path="url(#p266b485fa4)" style="fill: none; stroke: #b0b0b0; stroke-width: 0.8; stroke-linecap: square"/>
     </g>
     <g id="line2d_20">
      <g>
       <use xlink:href="#m91c8093118" x="52.160938" y="41.65025" style="stroke: #000000; stroke-width: 0.8"/>
      </g>
     </g>
     <g id="text_11">
      <!-- 1.0 -->
      <g transform="translate(29.257812 45.449469)scale(0.1 -0.1)">
       <use xlink:href="#DejaVuSans-31"/>
       <use xlink:href="#DejaVuSans-2e" x="63.623047"/>
       <use xlink:href="#DejaVuSans-30" x="95.410156"/>
      </g>
     </g>
    </g>
    <g id="ytick_6">
     <g id="line2d_21">
      <path d="M 52.160938 14.844502 
L 386.960938 14.844502 
" clip-path="url(#p266b485fa4)" style="fill: none; stroke: #b0b0b0; stroke-width: 0.8; stroke-linecap: square"/>
     </g>
     <g id="line2d_22">
      <g>
       <use xlink:href="#m91c8093118" x="52.160938" y="14.844502" style="stroke: #000000; stroke-width: 0.8"/>
      </g>
     </g>
     <g id="text_12">
      <!-- 1.5 -->
      <g transform="translate(29.257812 18.64372)scale(0.1 -0.1)">
       <use xlink:href="#DejaVuSans-31"/>
       <use xlink:href="#DejaVuSans-2e" x="63.623047"/>
       <use xlink:href="#DejaVuSans-35" x="95.410156"/>
      </g>
     </g>
    </g>
    <g id="text_13">
     <!-- x -->
     <g transform="translate(14.798438 93.319375)rotate(-90)scale(0.1 -0.1)">
      <defs>
       <path id="DejaVuSans-78" d="M 3513 3500 
L 2247 1797 
L 3578 0 
L 2900 0 
L 1881 1375 
L 863 0 
L 184 0 
L 1544 1831 
L 300 3500 
L 978 3500 
L 1906 2253 
L 2834 3500 
L 3513 3500 
z
" transform="scale(0.015625)"/>
      </defs>
      <use xlink:href="#DejaVuSans-78"/>
     </g>
    </g>
   </g>
   <g id="line2d_23">
    <path d="M 52.160938 108.722472 
L 52.496073 98.53995 
L 52.831208 96.162426 
L 53.166343 100.2812 
L 53.501478 93.504526 
L 53.836613 91.126045 
L 54.171748 97.58315 
L 54.506883 92.151607 
L 54.842019 62.529447 
L 55.177154 93.685337 
L 55.512289 98.353642 
L 55.847424 101.209965 
L 56.182559 98.542522 
L 56.517694 82.617241 
L 56.852829 82.925248 
L 57.187965 92.250726 
L 57.5231 87.937057 
L 57.858235 99.280159 
L 58.19337 94.614303 
L 58.528505 108.081372 
L 58.86364 103.203884 
L 59.53391 65.951013 
L 60.204181 95.719597 
L 60.539316 105.216682 
L 60.874451 75.146373 
L 61.209586 87.826786 
L 61.544721 66.675479 
L 61.879856 73.636477 
L 62.214992 61.728602 
L 62.550127 69.75606 
L 62.885262 68.519406 
L 63.220397 78.840476 
L 63.555532 72.826697 
L 64.225802 75.556317 
L 64.560938 88.062397 
L 64.896073 68.796249 
L 65.231208 86.779107 
L 65.566343 62.11556 
L 65.901478 83.100666 
L 66.236613 81.734185 
L 66.571748 56.261865 
L 66.906883 69.348874 
L 67.242019 58.29534 
L 67.577154 81.26608 
L 67.912289 94.299939 
L 68.247424 64.196322 
L 68.582559 66.8675 
L 68.917694 80.761346 
L 69.252829 83.07492 
L 69.587965 74.656873 
L 69.9231 55.206182 
L 70.258235 69.242762 
L 70.59337 77.25632 
L 70.928505 72.22955 
L 71.26364 63.329893 
L 71.598775 66.656178 
L 71.93391 61.708176 
L 72.269046 51.93228 
L 72.604181 67.961429 
L 73.274451 41.487382 
L 73.609586 79.021583 
L 73.944721 69.179714 
L 74.279856 36.017789 
L 74.614992 58.372662 
L 75.285262 49.774315 
L 75.620397 62.758826 
L 75.955532 70.376916 
L 76.625802 47.491106 
L 76.960938 55.214264 
L 77.296073 49.634864 
L 77.631208 62.372142 
L 77.966343 62.839298 
L 78.301478 42.684491 
L 78.636613 68.336788 
L 79.306883 71.808368 
L 79.642019 45.521774 
L 79.977154 52.787871 
L 80.312289 54.374178 
L 80.647424 73.078099 
L 80.982559 50.028734 
L 81.317694 65.601368 
L 81.652829 44.081392 
L 81.987965 35.718697 
L 82.3231 42.197904 
L 82.658235 60.251267 
L 82.99337 53.531318 
L 83.328505 29.276894 
L 83.66364 37.117135 
L 83.998775 82.101335 
L 84.33391 68.532071 
L 84.669046 34.338308 
L 85.004181 44.817487 
L 85.339316 60.318535 
L 85.674451 60.6457 
L 86.344721 26.927177 
L 87.350127 51.952032 
L 87.685262 36.126813 
L 88.020397 30.458703 
L 88.355532 29.769658 
L 88.690667 63.43088 
L 89.025802 46.858999 
L 89.360938 45.48862 
L 89.696073 65.32561 
L 90.031208 46.215819 
L 90.366343 46.491907 
L 90.701478 56.609854 
L 91.036613 38.178691 
L 91.371748 39.302559 
L 91.706883 37.912966 
L 92.042019 42.843886 
L 92.377154 57.992209 
L 92.712289 40.410718 
L 93.047424 37.702837 
L 93.382559 48.295421 
L 93.717694 39.322633 
L 94.052829 65.427162 
L 94.7231 48.217435 
L 95.058235 46.675584 
L 95.39337 42.413328 
L 95.728505 45.775515 
L 96.06364 40.440679 
L 96.73391 47.073071 
L 97.069046 41.016462 
L 97.404181 48.290216 
L 97.739316 19.342863 
L 98.409586 51.766079 
L 98.744721 40.717172 
L 99.079856 38.540734 
L 99.414992 55.506111 
L 99.750127 52.077758 
L 100.085262 34.239957 
L 100.420397 54.330128 
L 100.755532 43.517132 
L 101.090667 52.920468 
L 101.425802 54.41377 
L 101.760938 32.869607 
L 102.096073 51.792525 
L 102.431208 39.453073 
L 102.766343 61.188876 
L 103.101478 37.82208 
L 103.436613 55.660051 
L 103.771748 49.634976 
L 104.106883 14.800877 
L 104.442019 50.24156 
L 104.777154 37.442692 
L 105.112289 38.303315 
L 105.447424 46.884553 
L 105.782559 33.221617 
L 106.117694 36.924741 
L 106.452829 37.871642 
L 106.787965 42.598587 
L 107.1231 63.589137 
L 107.458235 32.634023 
L 107.79337 39.812643 
L 108.128505 40.719952 
L 108.46364 38.808734 
L 108.798775 39.978566 
L 109.13391 61.171905 
L 109.469046 27.815358 
L 109.804181 21.257967 
L 110.139316 53.316578 
L 110.474451 42.880659 
L 110.809586 27.365292 
L 111.144721 56.453544 
L 111.479856 31.400127 
L 111.814992 55.580515 
L 112.150127 42.518897 
L 112.485262 51.004024 
L 112.820397 23.080728 
L 113.490667 37.893985 
L 113.825802 39.824096 
L 114.160938 43.437219 
L 114.496073 43.054986 
L 114.831208 33.23252 
L 115.166343 45.395312 
L 115.501478 48.561341 
L 115.836613 43.677696 
L 116.171748 55.705881 
L 116.506883 39.774534 
L 116.842019 62.695743 
L 117.512289 43.302477 
L 117.847424 46.696747 
L 118.182559 19.252187 
L 118.517694 58.298437 
L 118.852829 40.017928 
L 119.187965 32.921528 
L 119.5231 43.176431 
L 119.858235 28.737737 
L 120.19337 56.79093 
L 120.528505 46.595236 
L 120.86364 44.359595 
L 121.198775 48.583658 
L 121.53391 50.285958 
L 121.869046 49.3161 
L 122.204181 51.361338 
L 122.874451 39.24366 
L 123.209586 55.868608 
L 123.879856 56.261175 
L 124.214992 73.626774 
L 124.885262 24.468052 
L 125.220397 37.919293 
L 125.555532 68.909067 
L 125.890667 51.546373 
L 126.225802 44.211282 
L 126.896073 70.457222 
L 127.231208 51.511756 
L 127.566343 58.707115 
L 127.901478 54.060345 
L 128.236613 35.957912 
L 128.571748 55.165919 
L 128.906883 41.312193 
L 129.242019 52.838612 
L 129.577154 51.657902 
L 129.912289 69.514395 
L 130.247424 38.050948 
L 130.917694 66.995185 
L 131.252829 62.76529 
L 131.587965 49.607434 
L 131.9231 63.344927 
L 132.258235 67.597561 
L 132.59337 64.936002 
L 132.928505 55.484945 
L 133.26364 54.396137 
L 133.598775 49.974826 
L 133.93391 50.742655 
L 134.269046 66.101952 
L 134.604181 73.750589 
L 134.939316 77.577766 
L 135.274451 53.143347 
L 135.609586 70.36848 
L 135.944721 63.281465 
L 136.279856 77.296033 
L 136.614992 46.054888 
L 136.950127 67.768146 
L 137.285262 73.642743 
L 137.620397 75.70538 
L 137.955532 51.213259 
L 138.290667 60.062375 
L 138.625802 48.413242 
L 138.960938 49.692178 
L 139.296073 71.504705 
L 139.631208 72.784611 
L 139.966343 82.032584 
L 140.301478 35.314109 
L 140.636613 56.077683 
L 140.971748 56.488854 
L 141.306883 51.644945 
L 141.642019 54.407117 
L 141.977154 80.668932 
L 142.312289 84.240692 
L 142.647424 72.966219 
L 142.982559 71.891635 
L 143.317694 78.696227 
L 143.652829 76.725246 
L 143.987965 71.938492 
L 144.3231 62.759941 
L 144.658235 78.399607 
L 144.99337 80.959172 
L 145.328505 88.801855 
L 145.66364 72.427746 
L 145.998775 73.027291 
L 146.33391 61.835127 
L 146.669046 70.715782 
L 147.339316 78.278737 
L 147.674451 93.476704 
L 148.009586 77.012721 
L 148.344721 76.142543 
L 148.679856 89.963067 
L 149.014992 71.980322 
L 149.350127 71.135926 
L 149.685262 91.697094 
L 150.020397 76.736029 
L 150.355532 84.349783 
L 150.690667 73.546329 
L 151.025802 93.952363 
L 151.360938 80.585073 
L 151.696073 86.334272 
L 152.031208 104.126268 
L 152.366343 74.576566 
L 152.701478 64.941591 
L 153.371748 91.106021 
L 153.706883 102.536207 
L 154.042019 80.661929 
L 154.377154 94.682882 
L 155.047424 95.966013 
L 155.382559 81.471142 
L 155.717694 108.961729 
L 156.052829 95.704153 
L 156.387965 115.302593 
L 156.7231 90.223953 
L 157.058235 95.907482 
L 157.39337 97.467913 
L 157.728505 98.487656 
L 158.06364 107.94549 
L 158.398775 92.696284 
L 158.73391 101.045478 
L 159.069046 86.556855 
L 159.404181 109.38796 
L 159.739316 97.083935 
L 160.074451 98.507639 
L 160.409586 97.067052 
L 160.744721 92.192428 
L 161.079856 99.185326 
L 161.414992 98.317498 
L 161.750127 104.13034 
L 162.085262 94.468814 
L 162.755532 120.730019 
L 163.090667 94.809017 
L 163.425802 102.494548 
L 163.760938 105.794329 
L 164.096073 124.989491 
L 164.431208 101.511564 
L 164.766343 119.195785 
L 165.101478 103.897563 
L 165.436613 120.537271 
L 165.771748 86.803878 
L 166.106883 126.166989 
L 166.442019 100.276756 
L 166.777154 98.987863 
L 167.112289 100.659846 
L 167.447424 115.692263 
L 167.782559 106.217528 
L 168.117694 112.139954 
L 168.452829 106.242494 
L 168.787965 110.684857 
L 169.1231 107.854283 
L 169.458235 111.355559 
L 169.79337 106.040235 
L 170.128505 104.920176 
L 170.46364 119.73784 
L 170.798775 114.254214 
L 171.13391 120.224706 
L 171.469046 114.897015 
L 171.804181 130.001097 
L 172.139316 116.944517 
L 172.474451 109.147876 
L 172.809586 112.058595 
L 173.144721 141.288944 
L 173.479856 126.715771 
L 173.814992 122.612389 
L 174.150127 129.469018 
L 174.485262 139.672848 
L 174.820397 126.772187 
L 175.155532 105.119756 
L 175.825802 134.753468 
L 176.160938 121.937813 
L 176.496073 136.560922 
L 176.831208 124.384383 
L 177.166343 124.793224 
L 177.501478 125.75209 
L 177.836613 130.027073 
L 178.171748 113.24724 
L 178.506883 138.22844 
L 178.842019 139.171354 
L 179.177154 141.121819 
L 179.512289 129.850854 
L 179.847424 150.390057 
L 180.182559 151.178551 
L 180.852829 110.738336 
L 181.187965 143.603076 
L 181.5231 133.679552 
L 181.858235 119.914526 
L 182.19337 137.613138 
L 182.528505 135.008756 
L 182.86364 130.126712 
L 183.198775 137.949 
L 183.53391 137.824328 
L 183.869046 143.464602 
L 184.204181 119.743255 
L 184.539316 129.242889 
L 184.874451 133.285927 
L 185.544721 121.12081 
L 186.214992 152.629344 
L 186.550127 130.530814 
L 186.885262 155.373832 
L 187.220397 131.82011 
L 187.555532 155.519617 
L 187.890667 159.611671 
L 188.560938 132.807639 
L 188.896073 125.036219 
L 189.566343 143.786072 
L 189.901478 161.161307 
L 190.236613 132.562285 
L 190.571748 127.213731 
L 190.906883 143.63444 
L 191.242019 144.005887 
L 191.912289 130.560129 
L 192.247424 124.102266 
L 192.582559 149.366674 
L 192.917694 141.391117 
L 193.252829 125.913357 
L 193.587965 138.579078 
L 193.9231 143.220157 
L 194.258235 141.143367 
L 194.59337 141.483926 
L 194.928505 130.683194 
L 195.26364 143.417462 
L 195.598775 143.53962 
L 195.93391 153.229317 
L 196.269046 143.882758 
L 196.939316 163.451051 
L 197.274451 165.96 
L 197.609586 164.62785 
L 198.279856 148.225697 
L 198.614992 143.139784 
L 198.950127 146.567641 
L 199.285262 145.119971 
L 199.620397 159.085233 
L 199.955532 132.654348 
L 200.290667 141.936801 
L 200.625802 158.686883 
L 200.960938 137.637532 
L 201.296073 159.630659 
L 201.631208 131.896798 
L 201.966343 146.740511 
L 202.301478 141.095396 
L 202.636613 150.050516 
L 202.971748 145.589839 
L 203.306883 143.431964 
L 203.642019 155.770221 
L 203.977154 142.014816 
L 204.312289 140.738012 
L 204.647424 151.888277 
L 204.982559 136.429409 
L 205.317694 138.793125 
L 205.652829 155.19925 
L 205.987965 136.049576 
L 206.3231 141.673822 
L 206.658235 164.337692 
L 206.99337 117.442926 
L 207.328505 134.944395 
L 207.66364 144.718275 
L 207.998775 161.904426 
L 208.33391 158.013176 
L 208.669046 133.782261 
L 209.004181 136.036909 
L 209.339316 164.63626 
L 209.674451 153.372891 
L 210.009586 135.825272 
L 210.344721 146.351923 
L 210.679856 151.779579 
L 211.014992 145.479582 
L 211.350127 136.075837 
L 212.020397 150.66076 
L 212.355532 142.328879 
L 212.690667 161.058546 
L 213.025802 143.698439 
L 213.360938 140.20152 
L 213.696073 163.78707 
L 214.031208 145.870234 
L 214.366343 139.577827 
L 215.036613 152.428296 
L 215.371748 153.315934 
L 215.706883 143.829934 
L 216.042019 150.036699 
L 216.377154 136.384375 
L 216.712289 154.846832 
L 217.382559 129.94639 
L 217.717694 152.348019 
L 218.052829 149.448319 
L 218.387965 149.594033 
L 218.7231 153.922318 
L 219.058235 137.103124 
L 219.39337 138.319758 
L 219.728505 142.006767 
L 220.06364 139.635074 
L 220.398775 135.2938 
L 220.73391 128.184228 
L 221.069046 157.06035 
L 221.404181 155.01138 
L 221.739316 147.209044 
L 222.074451 134.687311 
L 222.409586 144.220781 
L 222.744721 132.404396 
L 223.079856 158.13789 
L 223.414992 141.687904 
L 223.750127 147.4082 
L 224.085262 137.311378 
L 224.420397 105.176456 
L 225.090667 126.06559 
L 225.425802 142.708449 
L 225.760938 136.248825 
L 226.096073 125.768831 
L 226.431208 159.87714 
L 226.766343 129.246404 
L 227.101478 152.096898 
L 227.436613 137.94537 
L 228.106883 155.044211 
L 228.442019 144.26972 
L 229.112289 132.471831 
L 229.447424 135.004845 
L 229.782559 126.852557 
L 230.117694 139.51084 
L 230.452829 136.373695 
L 230.787965 152.355912 
L 231.1231 121.147203 
L 231.458235 136.951594 
L 231.79337 133.468374 
L 232.128505 149.784715 
L 232.46364 139.322862 
L 232.798775 132.972197 
L 233.13391 122.226667 
L 233.469046 143.986059 
L 233.804181 119.78788 
L 234.139316 136.125162 
L 234.474451 113.146176 
L 234.809586 126.631113 
L 235.144721 130.696935 
L 235.479856 131.855263 
L 235.814992 134.089933 
L 236.150127 131.957177 
L 236.485262 121.062774 
L 236.820397 142.570669 
L 237.155532 140.814892 
L 237.490667 145.89298 
L 237.825802 122.539215 
L 238.160938 136.587554 
L 238.496073 106.939772 
L 238.831208 138.121845 
L 239.166343 134.047145 
L 239.836613 135.270978 
L 240.171748 122.293811 
L 240.842019 135.213351 
L 241.177154 127.9016 
L 241.512289 133.586135 
L 241.847424 120.904365 
L 242.182559 131.026202 
L 242.517694 121.74915 
L 242.852829 139.115282 
L 243.187965 128.581582 
L 243.5231 130.62039 
L 243.858235 128.888467 
L 244.19337 135.889779 
L 244.528505 118.666377 
L 244.86364 132.363385 
L 245.198775 123.949738 
L 245.53391 125.461162 
L 245.869046 104.977331 
L 246.204181 109.693753 
L 246.539316 118.553226 
L 246.874451 110.745937 
L 247.209586 118.119698 
L 247.544721 130.932353 
L 247.879856 93.022778 
L 248.550127 123.340182 
L 248.885262 126.865486 
L 249.220397 113.488427 
L 249.555532 112.577613 
L 249.890667 89.511266 
L 250.225802 103.753416 
L 250.560938 112.455566 
L 250.896073 96.028965 
L 251.231208 119.813056 
L 251.566343 120.006591 
L 251.901478 116.989921 
L 252.236613 99.133593 
L 252.571748 105.973905 
L 252.906883 85.156395 
L 253.242019 122.797711 
L 253.577154 113.557326 
L 253.912289 119.182911 
L 254.247424 108.58368 
L 254.582559 113.921641 
L 254.917694 108.403537 
L 255.252829 97.705995 
L 255.587965 112.618878 
L 255.9231 100.382974 
L 256.258235 117.079515 
L 256.59337 108.173581 
L 256.928505 104.65791 
L 257.26364 88.465377 
L 257.598775 104.118904 
L 257.93391 110.069765 
L 258.269046 107.824271 
L 258.604181 94.609589 
L 258.939316 93.600065 
L 259.274451 104.42731 
L 259.609586 110.965135 
L 259.944721 93.504986 
L 260.279856 104.804471 
L 260.614992 84.11503 
L 260.950127 78.478272 
L 261.285262 99.802393 
L 261.620397 97.74348 
L 261.955532 101.514334 
L 262.290667 85.850476 
L 262.625802 108.382203 
L 262.960938 91.173186 
L 263.296073 82.716318 
L 263.631208 104.910812 
L 263.966343 84.525883 
L 264.301478 80.465628 
L 264.636613 90.549673 
L 264.971748 66.301411 
L 265.306883 98.606835 
L 265.977154 90.988378 
L 266.312289 88.135263 
L 266.647424 68.074649 
L 266.982559 62.128968 
L 267.317694 90.349397 
L 267.652829 93.011129 
L 267.987965 91.920295 
L 268.3231 82.19652 
L 268.658235 66.247513 
L 268.99337 75.332493 
L 269.328505 97.473218 
L 269.66364 84.500028 
L 269.998775 63.085686 
L 270.33391 78.480236 
L 270.669046 70.814571 
L 271.004181 88.575939 
L 271.339316 77.630781 
L 271.674451 84.621495 
L 272.009586 59.420234 
L 272.344721 71.887301 
L 272.679856 90.317598 
L 273.014992 79.129859 
L 273.350127 71.780604 
L 273.685262 52.684918 
L 274.020397 66.169127 
L 274.355532 67.235844 
L 274.690667 77.124927 
L 275.025802 68.749836 
L 275.360937 75.443535 
L 275.696073 72.974284 
L 276.031208 88.687071 
L 276.366343 56.443388 
L 276.701478 92.372246 
L 277.036613 88.164697 
L 277.371748 65.31563 
L 277.706883 56.721326 
L 278.042019 55.506936 
L 278.377154 56.8825 
L 278.712289 77.560099 
L 279.382559 59.9247 
L 279.717694 87.897086 
L 280.052829 72.690176 
L 280.387965 66.324266 
L 280.7231 56.384329 
L 281.058235 62.557711 
L 281.39337 55.483292 
L 281.728505 67.982519 
L 282.06364 70.21123 
L 282.398775 70.408347 
L 283.069046 61.379944 
L 283.404181 39.422269 
L 283.739316 60.85588 
L 284.074451 72.111646 
L 284.409586 52.955426 
L 284.744721 64.384019 
L 285.079856 51.600419 
L 285.414992 75.9844 
L 285.750127 57.824893 
L 286.085262 54.773043 
L 286.420397 57.694795 
L 286.755532 56.23254 
L 287.090667 71.194608 
L 287.760938 44.441546 
L 288.096073 40.818463 
L 288.431208 65.703835 
L 288.766343 45.550006 
L 289.101478 43.831629 
L 289.436613 60.846421 
L 289.771748 70.828773 
L 290.442019 70.526348 
L 290.777154 39.422032 
L 291.447424 65.142965 
L 291.782559 55.7012 
L 292.117694 35.681112 
L 292.452829 39.709876 
L 292.787965 60.512512 
L 293.1231 42.752961 
L 293.458235 50.113245 
L 293.79337 51.813814 
L 294.128505 64.290589 
L 294.46364 64.666354 
L 294.798775 58.437185 
L 295.13391 40.00227 
L 295.469046 49.657481 
L 296.139316 60.232593 
L 296.474451 45.903993 
L 296.809586 54.594207 
L 297.144721 41.469436 
L 297.479856 44.789034 
L 297.814992 52.837311 
L 298.485262 35.586857 
L 298.820397 35.368439 
L 299.155532 58.522249 
L 299.490667 50.524393 
L 299.825802 46.751451 
L 300.160938 38.336983 
L 300.496073 42.633523 
L 300.831208 55.163916 
L 301.166343 46.892475 
L 301.836613 43.604097 
L 302.171748 46.19045 
L 302.506883 38.285746 
L 302.842019 43.915929 
L 303.177154 57.215509 
L 303.512289 34.840102 
L 303.847424 29.527791 
L 304.182559 36.54015 
L 304.517694 58.019246 
L 304.852829 56.313453 
L 305.187965 57.158054 
L 305.5231 42.895177 
L 305.858235 39.566954 
L 306.19337 22.196228 
L 306.528505 46.622005 
L 306.86364 42.509947 
L 307.198775 33.412228 
L 307.53391 34.830995 
L 307.869046 44.887692 
L 308.204181 42.709956 
L 308.539316 37.634511 
L 308.874451 40.981625 
L 309.209586 14.76 
L 309.544721 55.118942 
L 309.879856 39.936373 
L 310.214992 39.413756 
L 310.550127 36.647889 
L 311.220397 51.696258 
L 311.555532 49.164749 
L 311.890667 52.356466 
L 312.225802 37.029649 
L 312.896073 64.482951 
L 313.231208 38.891893 
L 313.566343 38.685912 
L 313.901478 36.4546 
L 314.236613 31.912506 
L 314.571748 52.951077 
L 314.906883 34.005689 
L 315.242019 49.918531 
L 315.577154 57.156623 
L 315.912289 27.501113 
L 316.247424 38.367743 
L 316.582559 35.895056 
L 316.917694 47.353338 
L 317.252829 54.265672 
L 317.587965 35.225466 
L 317.9231 33.516823 
L 318.258235 19.595339 
L 318.59337 51.940812 
L 318.928505 51.137337 
L 319.26364 37.17822 
L 319.598775 30.882349 
L 319.93391 50.999653 
L 320.269046 32.366183 
L 320.604181 30.510802 
L 320.939316 40.904013 
L 321.274451 44.504699 
L 321.609586 61.199658 
L 321.944721 42.208522 
L 322.279856 35.99675 
L 322.614992 54.002229 
L 322.950127 46.478936 
L 323.285262 46.950032 
L 323.620397 52.650349 
L 323.955532 54.753509 
L 324.290667 57.855292 
L 324.625802 59.289589 
L 324.960938 44.68775 
L 325.296073 49.391725 
L 325.631208 60.600669 
L 325.966343 42.120672 
L 326.301478 55.473096 
L 326.636613 47.783164 
L 326.971748 60.482237 
L 327.306883 54.858123 
L 327.642019 39.693406 
L 327.977154 51.894925 
L 328.312289 52.166075 
L 328.647424 48.629267 
L 328.982559 33.005793 
L 329.317694 30.783173 
L 329.652829 56.428724 
L 329.987965 26.554576 
L 330.3231 51.387161 
L 330.658235 35.134727 
L 330.99337 40.919409 
L 331.328505 23.711155 
L 331.66364 58.060673 
L 331.998775 56.561046 
L 332.33391 55.884762 
L 332.669046 39.608355 
L 333.004181 36.56696 
L 333.339316 45.368019 
L 333.674451 64.920792 
L 334.009586 41.115018 
L 334.344721 39.867765 
L 334.679856 55.16218 
L 335.014992 76.215156 
L 335.350127 55.036262 
L 335.685262 56.35696 
L 336.020397 59.75887 
L 336.355532 39.598781 
L 337.025802 55.086696 
L 337.360937 40.818508 
L 337.696073 59.275858 
L 338.031208 69.328364 
L 338.366343 57.784866 
L 338.701478 52.014443 
L 339.036613 40.028141 
L 339.371748 49.733863 
L 339.706883 64.319333 
L 340.377154 73.442405 
L 340.712289 47.986085 
L 341.047424 42.685437 
L 341.382559 59.208082 
L 341.717694 39.397139 
L 342.052829 42.353246 
L 342.387965 63.241489 
L 342.7231 64.323477 
L 343.058235 57.114848 
L 343.39337 60.27725 
L 343.728505 61.985759 
L 344.06364 70.495144 
L 344.398775 58.828962 
L 344.73391 77.70058 
L 345.069046 81.411622 
L 345.404181 57.609923 
L 345.739316 70.653718 
L 346.074451 73.173354 
L 346.409586 43.237072 
L 346.744721 80.702777 
L 347.079856 69.834853 
L 347.414992 54.976525 
L 347.750127 48.81173 
L 348.085262 73.019502 
L 348.420397 65.274162 
L 348.755532 60.613128 
L 349.090667 60.444336 
L 349.425802 75.025389 
L 349.760938 44.724853 
L 350.096073 76.56547 
L 350.431208 73.50688 
L 350.766343 82.039397 
L 351.101478 69.466905 
L 351.436613 69.938211 
L 351.771748 72.212659 
L 352.106883 55.476582 
L 352.442019 78.35738 
L 352.777154 80.064114 
L 353.447424 70.347957 
L 353.782559 67.450255 
L 354.452829 85.710445 
L 354.787965 79.441209 
L 355.1231 69.776286 
L 355.458235 69.466568 
L 355.79337 61.055202 
L 356.128505 89.733968 
L 356.46364 79.706594 
L 356.798775 81.906808 
L 357.13391 81.115938 
L 357.469046 90.319564 
L 357.804181 96.040545 
L 358.139316 83.767625 
L 358.474451 84.137329 
L 358.809586 74.574319 
L 359.144721 98.429339 
L 359.479856 67.019765 
L 359.814992 104.164497 
L 360.150127 93.967516 
L 360.485262 97.163529 
L 360.820397 83.237207 
L 361.155532 90.931334 
L 361.490667 81.048515 
L 361.825802 78.411159 
L 362.160938 80.483152 
L 362.496073 79.973912 
L 362.831208 73.312829 
L 363.166343 93.47369 
L 363.501478 87.604887 
L 363.836613 110.541901 
L 364.171748 84.318776 
L 364.506883 78.96659 
L 364.842019 93.770653 
L 365.177154 86.499734 
L 365.512289 101.517748 
L 365.847424 89.794594 
L 366.182559 73.058439 
L 366.517694 103.177015 
L 367.187965 93.555858 
L 367.5231 97.526664 
L 367.858235 99.548233 
L 368.19337 121.43491 
L 368.528505 83.258764 
L 368.86364 107.467414 
L 369.198775 109.851871 
L 369.53391 113.166586 
L 369.869046 91.127925 
L 370.204181 104.884518 
L 370.874451 108.32204 
L 371.209586 96.160573 
L 371.544721 110.631576 
L 371.879856 106.519662 
L 372.214992 106.670119 
L 372.550127 126.452705 
L 372.885262 107.41372 
L 373.220397 123.022393 
L 373.555532 112.024639 
L 373.890667 95.012874 
L 374.225802 123.390594 
L 374.896073 98.499422 
L 375.231208 96.75026 
L 375.566343 104.047746 
L 375.901478 119.097915 
L 376.571748 104.732664 
L 376.906883 104.206809 
L 377.242019 112.499135 
L 377.577154 128.360172 
L 377.912289 119.73306 
L 378.247424 119.251457 
L 378.582559 100.686651 
L 378.917694 118.57636 
L 379.587965 104.588869 
L 379.9231 103.874861 
L 380.258235 93.101662 
L 380.59337 118.34455 
L 380.928505 110.801821 
L 381.26364 122.514817 
L 381.598775 117.736376 
L 381.93391 141.584668 
L 382.269046 112.112902 
L 382.604181 130.841007 
L 382.939316 113.838125 
L 383.274451 109.040212 
L 383.609586 122.744478 
L 383.944721 127.533536 
L 384.279856 129.37942 
L 384.614992 119.549651 
L 384.950127 131.032292 
L 385.285262 118.251683 
L 385.620397 112.613035 
L 385.955532 103.562295 
L 386.290667 133.907263 
L 386.625802 140.805424 
L 386.960938 129.139556 
L 386.960938 129.139556 
" clip-path="url(#p266b485fa4)" style="fill: none; stroke: #1f77b4; stroke-width: 1.5; stroke-linecap: square"/>
   </g>
   <g id="patch_3">
    <path d="M 52.160938 173.52 
L 52.160938 7.2 
" style="fill: none; stroke: #000000; stroke-width: 0.8; stroke-linejoin: miter; stroke-linecap: square"/>
   </g>
   <g id="patch_4">
    <path d="M 386.960938 173.52 
L 386.960938 7.2 
" style="fill: none; stroke: #000000; stroke-width: 0.8; stroke-linejoin: miter; stroke-linecap: square"/>
   </g>
   <g id="patch_5">
    <path d="M 52.160938 173.52 
L 386.960938 173.52 
" style="fill: none; stroke: #000000; stroke-width: 0.8; stroke-linejoin: miter; stroke-linecap: square"/>
   </g>
   <g id="patch_6">
    <path d="M 52.160938 7.2 
L 386.960938 7.2 
" style="fill: none; stroke: #000000; stroke-width: 0.8; stroke-linejoin: miter; stroke-linecap: square"/>
   </g>
  </g>
 </g>
 <defs>
  <clipPath id="p266b485fa4">
   <rect x="52.160938" y="7.2" width="334.8" height="166.32"/>
  </clipPath>
 </defs>
</svg>
