<?xml version="1.0" encoding="utf-8" standalone="no"?>
<!DOCTYPE svg PUBLIC "-//W3C//DTD SVG 1.1//EN"
  "http://www.w3.org/Graphics/SVG/1.1/DTD/svg11.dtd">
<svg xmlns:xlink="http://www.w3.org/1999/xlink" width="406.885938pt" height="211.07625pt" viewBox="0 0 406.885938 211.07625" xmlns="http://www.w3.org/2000/svg" version="1.1">
 <metadata>
  <rdf:RDF xmlns:dc="http://purl.org/dc/elements/1.1/" xmlns:cc="http://creativecommons.org/ns#" xmlns:rdf="http://www.w3.org/1999/02/22-rdf-syntax-ns#">
   <cc:Work>
    <dc:type rdf:resource="http://purl.org/dc/dcmitype/StillImage"/>
    <dc:date>2023-05-06T09:54:52.164050</dc:date>
    <dc:format>image/svg+xml</dc:format>
    <dc:creator>
     <cc:Agent>
      <dc:title>Matplotlib v3.5.1, https://matplotlib.org/</dc:title>
     </cc:Agent>
    </dc:creator>
   </cc:Work>
  </rdf:RDF>
 </metadata>
 <defs>
  <style type="text/css">*{stroke-linejoin: round; stroke-linecap: butt}</style>
 </defs>
 <g id="figure_1">
  <g id="patch_1">
   <path d="M 0 211.07625 
L 406.885938 211.07625 
L 406.885938 0 
L 0 0 
z
" style="fill: #ffffff"/>
  </g>
  <g id="axes_1">
   <g id="patch_2">
    <path d="M 52.160938 173.52 
L 386.960938 173.52 
L 386.960938 7.2 
L 52.160938 7.2 
z
" style="fill: #ffffff"/>
   </g>
   <g id="matplotlib.axis_1">
    <g id="xtick_1">
     <g id="line2d_1">
      <path d="M 118.852829 173.52 
L 118.852829 7.2 
" clip-path="url(#p256eac5f55)" style="fill: none; stroke: #b0b0b0; stroke-width: 0.8; stroke-linecap: square"/>
     </g>
     <g id="line2d_2">
      <defs>
       <path id="mddd602ae81" d="M 0 0 
L 0 3.5 
" style="stroke: #000000; stroke-width: 0.8"/>
      </defs>
      <g>
       <use xlink:href="#mddd602ae81" x="118.852829" y="173.52" style="stroke: #000000; stroke-width: 0.8"/>
      </g>
     </g>
     <g id="text_1">
      <!-- 200 -->
      <g transform="translate(109.309079 188.118438)scale(0.1 -0.1)">
       <defs>
        <path id="DejaVuSans-32" d="M 1228 531 
L 3431 531 
L 3431 0 
L 469 0 
L 469 531 
Q 828 903 1448 1529 
Q 2069 2156 2228 2338 
Q 2531 2678 2651 2914 
Q 2772 3150 2772 3378 
Q 2772 3750 2511 3984 
Q 2250 4219 1831 4219 
Q 1534 4219 1204 4116 
Q 875 4013 500 3803 
L 500 4441 
Q 881 4594 1212 4672 
Q 1544 4750 1819 4750 
Q 2544 4750 2975 4387 
Q 3406 4025 3406 3419 
Q 3406 3131 3298 2873 
Q 3191 2616 2906 2266 
Q 2828 2175 2409 1742 
Q 1991 1309 1228 531 
z
" transform="scale(0.015625)"/>
        <path id="DejaVuSans-30" d="M 2034 4250 
Q 1547 4250 1301 3770 
Q 1056 3291 1056 2328 
Q 1056 1369 1301 889 
Q 1547 409 2034 409 
Q 2525 409 2770 889 
Q 3016 1369 3016 2328 
Q 3016 3291 2770 3770 
Q 2525 4250 2034 4250 
z
M 2034 4750 
Q 2819 4750 3233 4129 
Q 3647 3509 3647 2328 
Q 3647 1150 3233 529 
Q 2819 -91 2034 -91 
Q 1250 -91 836 529 
Q 422 1150 422 2328 
Q 422 3509 836 4129 
Q 1250 4750 2034 4750 
z
" transform="scale(0.015625)"/>
       </defs>
       <use xlink:href="#DejaVuSans-32"/>
       <use xlink:href="#DejaVuSans-30" x="63.623047"/>
       <use xlink:href="#DejaVuSans-30" x="127.246094"/>
      </g>
     </g>
    </g>
    <g id="xtick_2">
     <g id="line2d_3">
      <path d="M 185.879856 173.52 
L 185.879856 7.2 
" clip-path="url(#p256eac5f55)" style="fill: none; stroke: #b0b0b0; stroke-width: 0.8; stroke-linecap: square"/>
     </g>
     <g id="line2d_4">
      <g>
       <use xlink:href="#mddd602ae81" x="185.879856" y="173.52" style="stroke: #000000; stroke-width: 0.8"/>
      </g>
     </g>
     <g id="text_2">
      <!-- 400 -->
      <g transform="translate(176.336106 188.118438)scale(0.1 -0.1)">
       <defs>
        <path id="DejaVuSans-34" d="M 2419 4116 
L 825 1625 
L 2419 1625 
L 2419 4116 
z
M 2253 4666 
L 3047 4666 
L 3047 1625 
L 3713 1625 
L 3713 1100 
L 3047 1100 
L 3047 0 
L 2419 0 
L 2419 1100 
L 313 1100 
L 313 1709 
L 2253 4666 
z
" transform="scale(0.015625)"/>
       </defs>
       <use xlink:href="#DejaVuSans-34"/>
       <use xlink:href="#DejaVuSans-30" x="63.623047"/>
       <use xlink:href="#DejaVuSans-30" x="127.246094"/>
      </g>
     </g>
    </g>
    <g id="xtick_3">
     <g id="line2d_5">
      <path d="M 252.906883 173.52 
L 252.906883 7.2 
" clip-path="url(#p256eac5f55)" style="fill: none; stroke: #b0b0b0; stroke-width: 0.8; stroke-linecap: square"/>
     </g>
     <g id="line2d_6">
      <g>
       <use xlink:href="#mddd602ae81" x="252.906883" y="173.52" style="stroke: #000000; stroke-width: 0.8"/>
      </g>
     </g>
     <g id="text_3">
      <!-- 600 -->
      <g transform="translate(243.363133 188.118438)scale(0.1 -0.1)">
       <defs>
        <path id="DejaVuSans-36" d="M 2113 2584 
Q 1688 2584 1439 2293 
Q 1191 2003 1191 1497 
Q 1191 994 1439 701 
Q 1688 409 2113 409 
Q 2538 409 2786 701 
Q 3034 994 3034 1497 
Q 3034 2003 2786 2293 
Q 2538 2584 2113 2584 
z
M 3366 4563 
L 3366 3988 
Q 3128 4100 2886 4159 
Q 2644 4219 2406 4219 
Q 1781 4219 1451 3797 
Q 1122 3375 1075 2522 
Q 1259 2794 1537 2939 
Q 1816 3084 2150 3084 
Q 2853 3084 3261 2657 
Q 3669 2231 3669 1497 
Q 3669 778 3244 343 
Q 2819 -91 2113 -91 
Q 1303 -91 875 529 
Q 447 1150 447 2328 
Q 447 3434 972 4092 
Q 1497 4750 2381 4750 
Q 2619 4750 2861 4703 
Q 3103 4656 3366 4563 
z
" transform="scale(0.015625)"/>
       </defs>
       <use xlink:href="#DejaVuSans-36"/>
       <use xlink:href="#DejaVuSans-30" x="63.623047"/>
       <use xlink:href="#DejaVuSans-30" x="127.246094"/>
      </g>
     </g>
    </g>
    <g id="xtick_4">
     <g id="line2d_7">
      <path d="M 319.93391 173.52 
L 319.93391 7.2 
" clip-path="url(#p256eac5f55)" style="fill: none; stroke: #b0b0b0; stroke-width: 0.8; stroke-linecap: square"/>
     </g>
     <g id="line2d_8">
      <g>
       <use xlink:href="#mddd602ae81" x="319.93391" y="173.52" style="stroke: #000000; stroke-width: 0.8"/>
      </g>
     </g>
     <g id="text_4">
      <!-- 800 -->
      <g transform="translate(310.39016 188.118438)scale(0.1 -0.1)">
       <defs>
        <path id="DejaVuSans-38" d="M 2034 2216 
Q 1584 2216 1326 1975 
Q 1069 1734 1069 1313 
Q 1069 891 1326 650 
Q 1584 409 2034 409 
Q 2484 409 2743 651 
Q 3003 894 3003 1313 
Q 3003 1734 2745 1975 
Q 2488 2216 2034 2216 
z
M 1403 2484 
Q 997 2584 770 2862 
Q 544 3141 544 3541 
Q 544 4100 942 4425 
Q 1341 4750 2034 4750 
Q 2731 4750 3128 4425 
Q 3525 4100 3525 3541 
Q 3525 3141 3298 2862 
Q 3072 2584 2669 2484 
Q 3125 2378 3379 2068 
Q 3634 1759 3634 1313 
Q 3634 634 3220 271 
Q 2806 -91 2034 -91 
Q 1263 -91 848 271 
Q 434 634 434 1313 
Q 434 1759 690 2068 
Q 947 2378 1403 2484 
z
M 1172 3481 
Q 1172 3119 1398 2916 
Q 1625 2713 2034 2713 
Q 2441 2713 2670 2916 
Q 2900 3119 2900 3481 
Q 2900 3844 2670 4047 
Q 2441 4250 2034 4250 
Q 1625 4250 1398 4047 
Q 1172 3844 1172 3481 
z
" transform="scale(0.015625)"/>
       </defs>
       <use xlink:href="#DejaVuSans-38"/>
       <use xlink:href="#DejaVuSans-30" x="63.623047"/>
       <use xlink:href="#DejaVuSans-30" x="127.246094"/>
      </g>
     </g>
    </g>
    <g id="xtick_5">
     <g id="line2d_9">
      <path d="M 386.960938 173.52 
L 386.960938 7.2 
" clip-path="url(#p256eac5f55)" style="fill: none; stroke: #b0b0b0; stroke-width: 0.8; stroke-linecap: square"/>
     </g>
     <g id="line2d_10">
      <g>
       <use xlink:href="#mddd602ae81" x="386.960938" y="173.52" style="stroke: #000000; stroke-width: 0.8"/>
      </g>
     </g>
     <g id="text_5">
      <!-- 1000 -->
      <g transform="translate(374.235937 188.118438)scale(0.1 -0.1)">
       <defs>
        <path id="DejaVuSans-31" d="M 794 531 
L 1825 531 
L 1825 4091 
L 703 3866 
L 703 4441 
L 1819 4666 
L 2450 4666 
L 2450 531 
L 3481 531 
L 3481 0 
L 794 0 
L 794 531 
z
" transform="scale(0.015625)"/>
       </defs>
       <use xlink:href="#DejaVuSans-31"/>
       <use xlink:href="#DejaVuSans-30" x="63.623047"/>
       <use xlink:href="#DejaVuSans-30" x="127.246094"/>
       <use xlink:href="#DejaVuSans-30" x="190.869141"/>
      </g>
     </g>
    </g>
    <g id="text_6">
     <!-- time -->
     <g transform="translate(208.264844 201.796563)scale(0.1 -0.1)">
      <defs>
       <path id="DejaVuSans-74" d="M 1172 4494 
L 1172 3500 
L 2356 3500 
L 2356 3053 
L 1172 3053 
L 1172 1153 
Q 1172 725 1289 603 
Q 1406 481 1766 481 
L 2356 481 
L 2356 0 
L 1766 0 
Q 1100 0 847 248 
Q 594 497 594 1153 
L 594 3053 
L 172 3053 
L 172 3500 
L 594 3500 
L 594 4494 
L 1172 4494 
z
" transform="scale(0.015625)"/>
       <path id="DejaVuSans-69" d="M 603 3500 
L 1178 3500 
L 1178 0 
L 603 0 
L 603 3500 
z
M 603 4863 
L 1178 4863 
L 1178 4134 
L 603 4134 
L 603 4863 
z
" transform="scale(0.015625)"/>
       <path id="DejaVuSans-6d" d="M 3328 2828 
Q 3544 3216 3844 3400 
Q 4144 3584 4550 3584 
Q 5097 3584 5394 3201 
Q 5691 2819 5691 2113 
L 5691 0 
L 5113 0 
L 5113 2094 
Q 5113 2597 4934 2840 
Q 4756 3084 4391 3084 
Q 3944 3084 3684 2787 
Q 3425 2491 3425 1978 
L 3425 0 
L 2847 0 
L 2847 2094 
Q 2847 2600 2669 2842 
Q 2491 3084 2119 3084 
Q 1678 3084 1418 2786 
Q 1159 2488 1159 1978 
L 1159 0 
L 581 0 
L 581 3500 
L 1159 3500 
L 1159 2956 
Q 1356 3278 1631 3431 
Q 1906 3584 2284 3584 
Q 2666 3584 2933 3390 
Q 3200 3197 3328 2828 
z
" transform="scale(0.015625)"/>
       <path id="DejaVuSans-65" d="M 3597 1894 
L 3597 1613 
L 953 1613 
Q 991 1019 1311 708 
Q 1631 397 2203 397 
Q 2534 397 2845 478 
Q 3156 559 3463 722 
L 3463 178 
Q 3153 47 2828 -22 
Q 2503 -91 2169 -91 
Q 1331 -91 842 396 
Q 353 884 353 1716 
Q 353 2575 817 3079 
Q 1281 3584 2069 3584 
Q 2775 3584 3186 3129 
Q 3597 2675 3597 1894 
z
M 3022 2063 
Q 3016 2534 2758 2815 
Q 2500 3097 2075 3097 
Q 1594 3097 1305 2825 
Q 1016 2553 972 2059 
L 3022 2063 
z
" transform="scale(0.015625)"/>
      </defs>
      <use xlink:href="#DejaVuSans-74"/>
      <use xlink:href="#DejaVuSans-69" x="39.208984"/>
      <use xlink:href="#DejaVuSans-6d" x="66.992188"/>
      <use xlink:href="#DejaVuSans-65" x="164.404297"/>
     </g>
    </g>
   </g>
   <g id="matplotlib.axis_2">
    <g id="ytick_1">
     <g id="line2d_11">
      <path d="M 52.160938 167.315432 
L 386.960938 167.315432 
" clip-path="url(#p256eac5f55)" style="fill: none; stroke: #b0b0b0; stroke-width: 0.8; stroke-linecap: square"/>
     </g>
     <g id="line2d_12">
      <defs>
       <path id="m1f6f4998c0" d="M 0 0 
L -3.5 0 
" style="stroke: #000000; stroke-width: 0.8"/>
      </defs>
      <g>
       <use xlink:href="#m1f6f4998c0" x="52.160938" y="167.315432" style="stroke: #000000; stroke-width: 0.8"/>
      </g>
     </g>
     <g id="text_7">
      <!-- −1.5 -->
      <g transform="translate(20.878125 171.11465)scale(0.1 -0.1)">
       <defs>
        <path id="DejaVuSans-2212" d="M 678 2272 
L 4684 2272 
L 4684 1741 
L 678 1741 
L 678 2272 
z
" transform="scale(0.015625)"/>
        <path id="DejaVuSans-2e" d="M 684 794 
L 1344 794 
L 1344 0 
L 684 0 
L 684 794 
z
" transform="scale(0.015625)"/>
        <path id="DejaVuSans-35" d="M 691 4666 
L 3169 4666 
L 3169 4134 
L 1269 4134 
L 1269 2991 
Q 1406 3038 1543 3061 
Q 1681 3084 1819 3084 
Q 2600 3084 3056 2656 
Q 3513 2228 3513 1497 
Q 3513 744 3044 326 
Q 2575 -91 1722 -91 
Q 1428 -91 1123 -41 
Q 819 9 494 109 
L 494 744 
Q 775 591 1075 516 
Q 1375 441 1709 441 
Q 2250 441 2565 725 
Q 2881 1009 2881 1497 
Q 2881 1984 2565 2268 
Q 2250 2553 1709 2553 
Q 1456 2553 1204 2497 
Q 953 2441 691 2322 
L 691 4666 
z
" transform="scale(0.015625)"/>
       </defs>
       <use xlink:href="#DejaVuSans-2212"/>
       <use xlink:href="#DejaVuSans-31" x="83.789062"/>
       <use xlink:href="#DejaVuSans-2e" x="147.412109"/>
       <use xlink:href="#DejaVuSans-35" x="179.199219"/>
      </g>
     </g>
    </g>
    <g id="ytick_2">
     <g id="line2d_13">
      <path d="M 52.160938 141.638436 
L 386.960938 141.638436 
" clip-path="url(#p256eac5f55)" style="fill: none; stroke: #b0b0b0; stroke-width: 0.8; stroke-linecap: square"/>
     </g>
     <g id="line2d_14">
      <g>
       <use xlink:href="#m1f6f4998c0" x="52.160938" y="141.638436" style="stroke: #000000; stroke-width: 0.8"/>
      </g>
     </g>
     <g id="text_8">
      <!-- −1.0 -->
      <g transform="translate(20.878125 145.437654)scale(0.1 -0.1)">
       <use xlink:href="#DejaVuSans-2212"/>
       <use xlink:href="#DejaVuSans-31" x="83.789062"/>
       <use xlink:href="#DejaVuSans-2e" x="147.412109"/>
       <use xlink:href="#DejaVuSans-30" x="179.199219"/>
      </g>
     </g>
    </g>
    <g id="ytick_3">
     <g id="line2d_15">
      <path d="M 52.160938 115.96144 
L 386.960938 115.96144 
" clip-path="url(#p256eac5f55)" style="fill: none; stroke: #b0b0b0; stroke-width: 0.8; stroke-linecap: square"/>
     </g>
     <g id="line2d_16">
      <g>
       <use xlink:href="#m1f6f4998c0" x="52.160938" y="115.96144" style="stroke: #000000; stroke-width: 0.8"/>
      </g>
     </g>
     <g id="text_9">
      <!-- −0.5 -->
      <g transform="translate(20.878125 119.760659)scale(0.1 -0.1)">
       <use xlink:href="#DejaVuSans-2212"/>
       <use xlink:href="#DejaVuSans-30" x="83.789062"/>
       <use xlink:href="#DejaVuSans-2e" x="147.412109"/>
       <use xlink:href="#DejaVuSans-35" x="179.199219"/>
      </g>
     </g>
    </g>
    <g id="ytick_4">
     <g id="line2d_17">
      <path d="M 52.160938 90.284444 
L 386.960938 90.284444 
" clip-path="url(#p256eac5f55)" style="fill: none; stroke: #b0b0b0; stroke-width: 0.8; stroke-linecap: square"/>
     </g>
     <g id="line2d_18">
      <g>
       <use xlink:href="#m1f6f4998c0" x="52.160938" y="90.284444" style="stroke: #000000; stroke-width: 0.8"/>
      </g>
     </g>
     <g id="text_10">
      <!-- 0.0 -->
      <g transform="translate(29.257812 94.083663)scale(0.1 -0.1)">
       <use xlink:href="#DejaVuSans-30"/>
       <use xlink:href="#DejaVuSans-2e" x="63.623047"/>
       <use xlink:href="#DejaVuSans-30" x="95.410156"/>
      </g>
     </g>
    </g>
    <g id="ytick_5">
     <g id="line2d_19">
      <path d="M 52.160938 64.607448 
L 386.960938 64.607448 
" clip-path="url(#p256eac5f55)" style="fill: none; stroke: #b0b0b0; stroke-width: 0.8; stroke-linecap: square"/>
     </g>
     <g id="line2d_20">
      <g>
       <use xlink:href="#m1f6f4998c0" x="52.160938" y="64.607448" style="stroke: #000000; stroke-width: 0.8"/>
      </g>
     </g>
     <g id="text_11">
      <!-- 0.5 -->
      <g transform="translate(29.257812 68.406667)scale(0.1 -0.1)">
       <use xlink:href="#DejaVuSans-30"/>
       <use xlink:href="#DejaVuSans-2e" x="63.623047"/>
       <use xlink:href="#DejaVuSans-35" x="95.410156"/>
      </g>
     </g>
    </g>
    <g id="ytick_6">
     <g id="line2d_21">
      <path d="M 52.160938 38.930452 
L 386.960938 38.930452 
" clip-path="url(#p256eac5f55)" style="fill: none; stroke: #b0b0b0; stroke-width: 0.8; stroke-linecap: square"/>
     </g>
     <g id="line2d_22">
      <g>
       <use xlink:href="#m1f6f4998c0" x="52.160938" y="38.930452" style="stroke: #000000; stroke-width: 0.8"/>
      </g>
     </g>
     <g id="text_12">
      <!-- 1.0 -->
      <g transform="translate(29.257812 42.729671)scale(0.1 -0.1)">
       <use xlink:href="#DejaVuSans-31"/>
       <use xlink:href="#DejaVuSans-2e" x="63.623047"/>
       <use xlink:href="#DejaVuSans-30" x="95.410156"/>
      </g>
     </g>
    </g>
    <g id="ytick_7">
     <g id="line2d_23">
      <path d="M 52.160938 13.253456 
L 386.960938 13.253456 
" clip-path="url(#p256eac5f55)" style="fill: none; stroke: #b0b0b0; stroke-width: 0.8; stroke-linecap: square"/>
     </g>
     <g id="line2d_24">
      <g>
       <use xlink:href="#m1f6f4998c0" x="52.160938" y="13.253456" style="stroke: #000000; stroke-width: 0.8"/>
      </g>
     </g>
     <g id="text_13">
      <!-- 1.5 -->
      <g transform="translate(29.257812 17.052675)scale(0.1 -0.1)">
       <use xlink:href="#DejaVuSans-31"/>
       <use xlink:href="#DejaVuSans-2e" x="63.623047"/>
       <use xlink:href="#DejaVuSans-35" x="95.410156"/>
      </g>
     </g>
    </g>
    <g id="text_14">
     <!-- x -->
     <g transform="translate(14.798438 93.319375)rotate(-90)scale(0.1 -0.1)">
      <defs>
       <path id="DejaVuSans-78" d="M 3513 3500 
L 2247 1797 
L 3578 0 
L 2900 0 
L 1881 1375 
L 863 0 
L 184 0 
L 1544 1831 
L 300 3500 
L 978 3500 
L 1906 2253 
L 2834 3500 
L 3513 3500 
z
" transform="scale(0.015625)"/>
      </defs>
      <use xlink:href="#DejaVuSans-78"/>
     </g>
    </g>
   </g>
   <g id="line2d_25">
    <path d="M 52.160938 87.793345 
L 52.496073 70.693863 
L 52.831208 72.135226 
L 53.166343 74.168607 
L 53.501478 86.489405 
L 53.836613 108.698389 
L 54.171748 98.06518 
L 54.506883 106.528104 
L 54.842019 76.77784 
L 55.177154 88.445577 
L 55.512289 73.724222 
L 56.182559 70.987945 
L 56.517694 85.943788 
L 56.852829 83.47461 
L 57.187965 93.219084 
L 57.5231 85.756611 
L 57.858235 63.385381 
L 58.19337 88.590894 
L 58.528505 62.15029 
L 58.86364 78.677129 
L 59.198775 87.2708 
L 59.53391 73.5662 
L 59.869046 83.407074 
L 60.204181 68.663623 
L 60.539316 75.099147 
L 60.874451 66.210867 
L 61.209586 81.303172 
L 61.879856 74.155482 
L 62.214992 89.749065 
L 62.550127 83.370874 
L 62.885262 84.003524 
L 63.220397 73.295991 
L 63.555532 58.455425 
L 63.890667 71.732114 
L 64.225802 55.272045 
L 64.560938 79.756776 
L 65.231208 64.059782 
L 65.566343 52.50955 
L 65.901478 65.092557 
L 66.236613 81.898275 
L 66.571748 73.308873 
L 66.906883 68.096718 
L 67.242019 54.55915 
L 67.577154 84.519623 
L 68.247424 51.442348 
L 68.582559 62.423158 
L 68.917694 91.25271 
L 69.252829 43.806643 
L 69.587965 54.491316 
L 69.9231 44.207445 
L 70.258235 71.212419 
L 70.59337 70.888225 
L 70.928505 69.875552 
L 71.598775 55.506182 
L 71.93391 73.085694 
L 72.269046 78.853623 
L 72.604181 46.199056 
L 72.939316 46.959383 
L 73.274451 71.20087 
L 73.609586 71.531653 
L 73.944721 69.040168 
L 74.279856 52.947545 
L 74.614992 78.042441 
L 74.950127 44.57365 
L 75.285262 46.886309 
L 75.955532 65.037858 
L 76.290667 55.872343 
L 76.625802 63.190369 
L 76.960938 41.801017 
L 77.296073 42.652783 
L 77.631208 55.122099 
L 77.966343 58.676033 
L 78.301478 30.431095 
L 78.636613 50.350221 
L 78.971748 63.481966 
L 79.306883 56.146199 
L 79.642019 55.779199 
L 79.977154 44.767578 
L 80.312289 70.868924 
L 80.647424 48.716404 
L 80.982559 47.878426 
L 81.317694 43.272286 
L 81.652829 46.870711 
L 81.987965 56.372562 
L 82.3231 43.060222 
L 82.658235 43.097822 
L 82.99337 55.13538 
L 83.328505 57.120082 
L 83.66364 44.485335 
L 83.998775 49.154873 
L 84.33391 31.118152 
L 84.669046 36.946555 
L 85.004181 38.392162 
L 85.339316 45.337531 
L 85.674451 43.920458 
L 86.009586 39.193148 
L 86.344721 41.583767 
L 86.679856 46.280474 
L 87.014992 70.042522 
L 87.350127 50.711601 
L 87.685262 41.953727 
L 88.020397 49.310146 
L 88.355532 28.676376 
L 88.690667 38.871737 
L 89.360938 36.622506 
L 89.696073 33.873307 
L 90.031208 45.600985 
L 90.366343 37.040048 
L 90.701478 59.522048 
L 91.036613 35.154566 
L 91.371748 39.224375 
L 91.706883 38.475958 
L 92.042019 23.373512 
L 92.377154 52.253833 
L 92.712289 37.508182 
L 93.047424 50.386178 
L 93.382559 25.323481 
L 93.717694 44.740449 
L 94.052829 44.707697 
L 94.387965 43.179583 
L 94.7231 43.989956 
L 95.058235 43.054911 
L 95.728505 37.567454 
L 96.06364 32.110073 
L 96.398775 40.873819 
L 96.73391 42.703307 
L 97.069046 34.639062 
L 97.404181 52.535598 
L 97.739316 36.848862 
L 98.074451 46.132294 
L 98.409586 45.298739 
L 98.744721 47.091634 
L 99.079856 57.924175 
L 99.414992 29.597565 
L 100.085262 52.214806 
L 100.420397 47.469256 
L 100.755532 30.445022 
L 101.090667 55.683551 
L 101.425802 47.474621 
L 101.760938 30.476023 
L 102.096073 37.458858 
L 102.766343 29.481415 
L 103.101478 60.759428 
L 103.436613 34.155134 
L 103.771748 53.230936 
L 104.106883 52.306891 
L 104.442019 32.653977 
L 104.777154 51.326256 
L 105.112289 48.293003 
L 105.447424 36.343263 
L 105.782559 40.703539 
L 106.117694 29.586582 
L 106.452829 50.788535 
L 106.787965 39.441653 
L 107.1231 33.85804 
L 107.458235 44.794909 
L 107.79337 29.455384 
L 108.128505 47.437079 
L 108.46364 54.511225 
L 109.13391 33.81346 
L 109.469046 52.050899 
L 109.804181 52.964619 
L 110.139316 41.73565 
L 110.474451 37.183471 
L 111.144721 19.176429 
L 111.479856 37.221978 
L 111.814992 35.176391 
L 112.150127 35.117272 
L 112.485262 33.790552 
L 112.820397 36.38734 
L 113.155532 28.155405 
L 113.490667 61.654446 
L 113.825802 60.561842 
L 114.160938 35.017822 
L 114.496073 48.751494 
L 114.831208 34.486744 
L 115.166343 44.347229 
L 115.501478 30.85403 
L 115.836613 43.207933 
L 116.171748 44.23664 
L 116.506883 51.321013 
L 116.842019 29.041356 
L 117.177154 32.663711 
L 117.512289 43.192313 
L 117.847424 42.35096 
L 118.182559 17.557641 
L 118.517694 52.452717 
L 118.852829 41.295818 
L 119.187965 51.149946 
L 119.5231 44.10573 
L 119.858235 52.844588 
L 120.19337 54.575697 
L 120.528505 39.563772 
L 120.86364 48.542331 
L 121.198775 26.72566 
L 121.53391 37.114802 
L 121.869046 56.379482 
L 122.204181 48.180305 
L 122.539316 46.754894 
L 122.874451 48.414788 
L 123.544721 31.287881 
L 123.879856 48.429839 
L 124.214992 43.944021 
L 124.550127 61.178584 
L 124.885262 53.045982 
L 125.220397 62.278681 
L 125.890667 33.855823 
L 126.225802 59.703926 
L 126.560938 45.340861 
L 126.896073 59.252343 
L 127.231208 63.602108 
L 127.566343 40.429683 
L 127.901478 60.133035 
L 128.236613 30.644828 
L 128.571748 56.258848 
L 128.906883 49.565697 
L 129.242019 49.708496 
L 129.577154 68.697629 
L 129.912289 56.467741 
L 130.247424 59.808934 
L 130.582559 44.398044 
L 130.917694 59.797477 
L 131.252829 40.399738 
L 131.587965 55.940082 
L 131.9231 53.041063 
L 132.258235 63.942392 
L 132.59337 42.06067 
L 132.928505 52.982703 
L 133.26364 67.572944 
L 133.598775 66.036515 
L 133.93391 51.356388 
L 134.269046 56.503965 
L 134.604181 42.9121 
L 134.939316 45.869687 
L 135.274451 40.513317 
L 135.609586 54.814153 
L 135.944721 60.164024 
L 136.279856 67.377715 
L 136.614992 63.572043 
L 136.950127 63.261472 
L 137.620397 77.721955 
L 137.955532 68.605372 
L 138.290667 65.546967 
L 138.625802 68.473735 
L 138.960938 63.921963 
L 139.296073 61.462434 
L 139.631208 90.426591 
L 140.301478 63.500072 
L 140.636613 63.51792 
L 140.971748 67.553241 
L 141.306883 78.468619 
L 141.642019 60.964539 
L 142.312289 77.877224 
L 142.647424 53.935879 
L 143.317694 73.500855 
L 143.652829 66.060024 
L 143.987965 78.444976 
L 144.3231 77.125619 
L 144.658235 77.004547 
L 144.99337 84.642655 
L 145.328505 68.327609 
L 145.66364 92.504858 
L 145.998775 68.446831 
L 146.33391 66.849082 
L 146.669046 80.433218 
L 147.004181 64.206018 
L 147.339316 68.478398 
L 147.674451 93.623702 
L 148.009586 73.185346 
L 148.679856 81.826857 
L 149.014992 65.296016 
L 149.350127 82.170628 
L 149.685262 88.998855 
L 150.355532 82.049304 
L 150.690667 73.624659 
L 151.025802 101.219067 
L 151.360938 83.817913 
L 151.696073 83.646415 
L 152.031208 77.887476 
L 152.366343 93.426721 
L 152.701478 46.472137 
L 153.036613 86.626945 
L 153.371748 95.128206 
L 153.706883 86.622649 
L 154.042019 73.56251 
L 154.377154 80.680424 
L 154.712289 101.217983 
L 155.047424 66.249841 
L 155.382559 85.057613 
L 155.717694 72.766856 
L 156.052829 96.463629 
L 156.387965 73.826041 
L 156.7231 82.456892 
L 157.058235 85.314357 
L 157.39337 99.3052 
L 157.728505 79.718545 
L 158.06364 100.258931 
L 158.73391 95.904961 
L 159.069046 88.524324 
L 159.404181 89.879236 
L 159.739316 115.165913 
L 160.744721 84.115895 
L 161.079856 91.827643 
L 161.414992 92.483028 
L 161.750127 93.599751 
L 162.085262 100.01892 
L 162.420397 104.168307 
L 162.755532 110.861589 
L 163.090667 96.17986 
L 163.425802 93.481812 
L 163.760938 107.789532 
L 164.096073 104.518926 
L 164.431208 94.912416 
L 164.766343 101.501091 
L 165.101478 95.897369 
L 165.436613 109.627787 
L 165.771748 110.611459 
L 166.106883 95.310201 
L 166.442019 106.747909 
L 166.777154 100.337363 
L 167.112289 106.797036 
L 167.447424 104.581705 
L 167.782559 88.318034 
L 168.117694 117.574067 
L 168.452829 103.154612 
L 168.787965 112.123509 
L 169.1231 113.688033 
L 169.458235 107.416118 
L 169.79337 104.084409 
L 170.128505 109.751669 
L 170.46364 100.622731 
L 170.798775 84.17857 
L 171.13391 122.785804 
L 171.469046 148.030993 
L 171.804181 100.823792 
L 172.139316 102.296691 
L 172.474451 126.421474 
L 172.809586 131.283768 
L 173.144721 126.366101 
L 173.479856 119.42012 
L 173.814992 122.841862 
L 174.150127 123.024566 
L 174.485262 117.561073 
L 174.820397 124.997621 
L 175.155532 120.540983 
L 175.490667 118.581555 
L 175.825802 134.142095 
L 176.160938 116.862742 
L 176.496073 123.795698 
L 176.831208 105.299817 
L 177.166343 104.9734 
L 177.501478 120.884595 
L 177.836613 128.287819 
L 178.506883 108.858277 
L 178.842019 129.395966 
L 179.177154 120.028592 
L 179.512289 122.463747 
L 179.847424 118.211093 
L 180.182559 104.322494 
L 180.517694 125.555382 
L 181.187965 136.73285 
L 181.5231 107.483073 
L 181.858235 142.22013 
L 182.19337 117.350894 
L 182.528505 129.398394 
L 183.198775 119.671377 
L 183.53391 146.653554 
L 184.204181 109.75859 
L 184.539316 130.300954 
L 184.874451 122.385473 
L 185.209586 121.973988 
L 185.544721 122.376275 
L 185.879856 127.530791 
L 186.214992 138.344837 
L 186.885262 109.414446 
L 187.220397 121.895221 
L 187.555532 140.88918 
L 187.890667 121.546317 
L 188.225802 126.371427 
L 188.560938 120.313914 
L 188.896073 127.438513 
L 189.566343 132.491914 
L 189.901478 142.793915 
L 190.236613 129.225598 
L 190.571748 138.822402 
L 190.906883 134.648206 
L 191.242019 132.619393 
L 191.577154 126.231408 
L 191.912289 143.532745 
L 192.247424 122.179937 
L 192.917694 146.134394 
L 193.252829 131.215959 
L 193.587965 134.967039 
L 193.9231 137.134822 
L 194.258235 123.466183 
L 194.59337 128.310145 
L 195.26364 145.076933 
L 195.598775 145.969618 
L 195.93391 134.446141 
L 196.604181 142.373764 
L 196.939316 159.570277 
L 197.274451 126.161983 
L 197.609586 133.703858 
L 197.944721 133.898735 
L 198.279856 142.556496 
L 198.614992 140.514867 
L 198.950127 137.211477 
L 199.285262 148.273236 
L 199.620397 130.867135 
L 199.955532 155.685434 
L 200.290667 143.277151 
L 200.625802 126.742946 
L 200.960938 150.889461 
L 201.296073 134.959586 
L 201.631208 142.908773 
L 201.966343 125.727272 
L 202.301478 165.96 
L 202.636613 138.187058 
L 202.971748 150.546942 
L 203.306883 150.304449 
L 203.642019 140.227384 
L 203.977154 148.593942 
L 204.312289 141.184943 
L 204.647424 151.720291 
L 204.982559 131.825992 
L 205.317694 125.639986 
L 205.652829 143.977781 
L 205.987965 141.059368 
L 206.3231 123.453685 
L 206.658235 138.925442 
L 206.99337 135.410413 
L 207.66364 137.885082 
L 207.998775 141.72124 
L 208.33391 152.324459 
L 208.669046 149.887059 
L 209.004181 152.699521 
L 209.339316 130.478096 
L 209.674451 147.159967 
L 210.009586 135.508418 
L 210.344721 134.253878 
L 210.679856 139.236736 
L 211.014992 151.569858 
L 211.350127 147.148856 
L 211.685262 155.212997 
L 212.020397 153.36953 
L 212.355532 148.479316 
L 212.690667 155.566401 
L 213.025802 131.40177 
L 213.360938 154.109211 
L 213.696073 135.009041 
L 214.031208 145.295257 
L 214.366343 139.003768 
L 214.701478 154.62662 
L 215.036613 135.394367 
L 215.371748 142.22133 
L 215.706883 136.594756 
L 216.042019 145.938758 
L 216.377154 137.042066 
L 216.712289 134.36468 
L 217.047424 137.7615 
L 217.382559 143.615115 
L 217.717694 137.652601 
L 218.052829 135.482446 
L 218.387965 142.436526 
L 218.7231 137.102241 
L 219.058235 119.280119 
L 219.39337 152.856505 
L 219.728505 132.6698 
L 220.06364 142.553472 
L 220.398775 143.72537 
L 220.73391 144.284052 
L 221.069046 122.379434 
L 221.404181 141.405315 
L 221.739316 116.549978 
L 222.074451 125.155017 
L 222.409586 122.849685 
L 222.744721 144.001644 
L 223.079856 131.036757 
L 223.414992 129.91223 
L 223.750127 134.833071 
L 224.085262 132.407992 
L 224.420397 136.864636 
L 224.755532 122.39869 
L 225.090667 137.95687 
L 225.425802 120.993319 
L 225.760938 132.702185 
L 226.096073 120.114035 
L 226.431208 142.82603 
L 226.766343 150.33747 
L 227.101478 121.498796 
L 227.436613 126.410188 
L 227.771748 156.58208 
L 228.106883 125.400327 
L 228.442019 142.91757 
L 228.777154 117.102747 
L 229.112289 138.781364 
L 229.447424 143.329132 
L 229.782559 133.560187 
L 230.117694 131.42226 
L 230.452829 138.806396 
L 230.787965 126.723802 
L 231.1231 139.525465 
L 231.458235 125.801545 
L 231.79337 142.803875 
L 232.128505 119.455756 
L 232.46364 136.0717 
L 232.798775 145.315349 
L 233.13391 139.265313 
L 233.469046 115.580165 
L 233.804181 135.163674 
L 234.139316 129.204128 
L 234.474451 134.480424 
L 234.809586 112.454545 
L 235.144721 137.207302 
L 235.814992 116.159825 
L 236.150127 119.920134 
L 236.485262 127.303541 
L 236.820397 116.308195 
L 237.155532 113.501276 
L 237.825802 140.344951 
L 238.160938 106.507663 
L 238.496073 123.744988 
L 238.831208 122.157274 
L 239.501478 108.334182 
L 239.836613 115.275462 
L 240.171748 112.420438 
L 240.506883 117.60954 
L 240.842019 116.857811 
L 241.177154 109.537391 
L 241.512289 125.050891 
L 241.847424 125.293243 
L 242.182559 107.220195 
L 242.852829 135.327268 
L 243.187965 122.00416 
L 243.5231 130.238979 
L 243.858235 115.729656 
L 244.19337 120.411824 
L 244.528505 109.024501 
L 245.198775 116.671993 
L 245.53391 117.365947 
L 245.869046 112.067912 
L 246.204181 115.829827 
L 246.874451 106.148019 
L 247.209586 117.071464 
L 247.544721 118.176477 
L 247.879856 114.427223 
L 248.214992 131.675663 
L 248.550127 106.627806 
L 248.885262 121.030516 
L 249.220397 95.077468 
L 249.555532 116.370372 
L 249.890667 83.048711 
L 250.560938 114.752955 
L 250.896073 91.035247 
L 251.231208 109.016201 
L 251.566343 93.030416 
L 251.901478 115.54548 
L 252.236613 113.474599 
L 252.571748 108.929955 
L 252.906883 108.582713 
L 253.912289 96.540259 
L 254.247424 100.321426 
L 254.582559 85.370901 
L 254.917694 95.581828 
L 255.252829 85.201271 
L 255.9231 110.533423 
L 256.258235 109.696486 
L 256.59337 98.802846 
L 256.928505 100.759519 
L 257.26364 109.69068 
L 257.598775 96.882265 
L 257.93391 95.843872 
L 258.269046 84.312339 
L 258.604181 85.191276 
L 258.939316 92.847723 
L 259.274451 96.817987 
L 259.609586 88.408355 
L 259.944721 98.170374 
L 260.279856 104.312653 
L 260.614992 93.907933 
L 260.950127 78.473436 
L 261.285262 89.099362 
L 261.620397 70.973884 
L 261.955532 82.430011 
L 262.290667 106.430206 
L 262.625802 94.991103 
L 262.960938 97.041464 
L 263.296073 93.195531 
L 263.631208 80.399462 
L 263.966343 90.204509 
L 264.301478 115.71782 
L 264.636613 108.300961 
L 264.971748 78.771074 
L 265.306883 106.58143 
L 265.642019 92.034255 
L 265.977154 85.887106 
L 266.312289 95.113661 
L 266.982559 68.2183 
L 267.652829 90.68767 
L 267.987965 71.539407 
L 268.3231 97.965832 
L 268.658235 90.380759 
L 268.99337 76.295571 
L 269.328505 74.057165 
L 269.66364 83.885188 
L 269.998775 82.162446 
L 270.33391 71.509165 
L 270.669046 84.912884 
L 271.004181 79.4945 
L 271.339316 91.774289 
L 271.674451 82.135654 
L 272.009586 59.105757 
L 272.344721 79.104813 
L 272.679856 81.779426 
L 273.014992 58.283648 
L 273.350127 63.83435 
L 273.685262 74.642301 
L 274.020397 75.204598 
L 274.355532 64.684034 
L 274.690667 64.787807 
L 275.025802 79.402695 
L 275.360937 70.626565 
L 275.696073 58.367876 
L 276.031208 61.64208 
L 276.701478 80.564845 
L 277.036613 54.158641 
L 277.371748 75.037739 
L 277.706883 76.239205 
L 278.042019 64.559927 
L 278.377154 64.328532 
L 278.712289 82.076723 
L 279.047424 69.215806 
L 279.382559 73.113307 
L 279.717694 78.638092 
L 280.387965 56.281183 
L 280.7231 72.34338 
L 281.058235 56.783348 
L 281.39337 65.174993 
L 281.728505 52.026185 
L 282.06364 47.759895 
L 282.398775 73.354285 
L 282.73391 53.889251 
L 283.069046 60.143764 
L 283.404181 81.798562 
L 284.074451 45.813307 
L 284.409586 38.983223 
L 284.744721 69.251427 
L 285.079856 63.538379 
L 285.414992 47.343121 
L 285.750127 45.204386 
L 286.085262 35.702523 
L 286.420397 60.661093 
L 286.755532 64.715589 
L 287.090667 61.981807 
L 287.425802 43.210498 
L 287.760938 39.510876 
L 288.096073 53.897326 
L 288.431208 50.52093 
L 288.766343 52.745125 
L 289.101478 70.07444 
L 289.436613 56.545165 
L 289.771748 57.70073 
L 290.106883 60.932445 
L 290.442019 29.022335 
L 290.777154 51.565508 
L 291.112289 37.358226 
L 291.447424 41.117516 
L 291.782559 56.555863 
L 292.117694 37.949348 
L 292.452829 61.086471 
L 292.787965 58.373958 
L 293.1231 36.454479 
L 293.458235 61.926977 
L 293.79337 37.424171 
L 294.128505 60.421219 
L 294.46364 31.189338 
L 294.798775 24.793119 
L 295.13391 32.478622 
L 295.469046 36.826058 
L 295.804181 34.513594 
L 296.139316 60.408134 
L 296.474451 50.567315 
L 296.809586 29.387199 
L 297.144721 51.914118 
L 297.479856 23.340717 
L 297.814992 46.603479 
L 298.150127 54.02969 
L 298.485262 37.043177 
L 298.820397 30.669119 
L 299.155532 47.946229 
L 299.490667 38.395853 
L 299.825802 48.260416 
L 300.160938 41.769455 
L 300.831208 47.543294 
L 301.166343 57.499078 
L 301.501478 59.192382 
L 301.836613 64.080355 
L 302.171748 40.563039 
L 302.506883 42.137043 
L 303.177154 48.427078 
L 303.847424 49.162786 
L 304.182559 32.940548 
L 304.852829 40.427121 
L 305.187965 40.617714 
L 305.5231 55.152956 
L 306.19337 34.251376 
L 306.528505 50.200998 
L 306.86364 41.279399 
L 307.198775 14.76 
L 307.53391 28.493295 
L 307.869046 47.877973 
L 308.204181 42.699842 
L 308.539316 26.766976 
L 308.874451 40.848266 
L 309.209586 37.141108 
L 309.544721 30.371731 
L 309.879856 35.991071 
L 310.214992 22.809902 
L 310.550127 42.457046 
L 310.885262 27.501215 
L 311.220397 33.236388 
L 311.555532 34.923313 
L 311.890667 27.036559 
L 312.225802 52.663092 
L 312.560938 41.178248 
L 312.896073 40.87452 
L 313.231208 34.583996 
L 313.566343 37.438815 
L 313.901478 28.294959 
L 314.236613 32.66616 
L 314.571748 47.546899 
L 314.906883 42.096504 
L 315.242019 45.103084 
L 315.577154 35.734112 
L 315.912289 42.158929 
L 316.582559 25.881056 
L 316.917694 42.968231 
L 317.252829 40.826111 
L 317.587965 50.078566 
L 317.9231 26.144492 
L 318.258235 20.64615 
L 318.59337 45.602293 
L 318.928505 25.168776 
L 319.26364 33.980514 
L 319.598775 33.238641 
L 319.93391 37.763966 
L 320.269046 52.934591 
L 320.604181 33.817972 
L 320.939316 45.113029 
L 321.274451 37.402163 
L 321.609586 53.368552 
L 321.944721 34.210861 
L 322.279856 45.593048 
L 322.614992 42.833532 
L 322.950127 41.38685 
L 323.285262 43.342232 
L 323.620397 42.27054 
L 323.955532 47.825484 
L 324.290667 59.659989 
L 324.625802 44.071439 
L 324.960938 46.700241 
L 325.296073 28.64262 
L 325.966343 46.806217 
L 326.301478 38.543158 
L 326.636613 61.304251 
L 327.306883 32.79055 
L 327.642019 33.564202 
L 327.977154 45.592256 
L 328.312289 43.74162 
L 328.647424 41.09477 
L 328.982559 33.487948 
L 329.317694 43.919938 
L 329.652829 68.772071 
L 329.987965 48.860124 
L 330.3231 57.260294 
L 330.658235 52.046785 
L 330.99337 27.973401 
L 331.66364 66.565016 
L 332.669046 27.621957 
L 333.004181 28.470173 
L 333.339316 43.797041 
L 334.009586 32.889669 
L 334.344721 58.699449 
L 334.679856 31.222971 
L 335.014992 61.424484 
L 335.350127 34.881421 
L 335.685262 52.093125 
L 336.020397 45.638311 
L 336.355532 49.433079 
L 336.690667 45.523464 
L 337.025802 46.067732 
L 337.360937 53.38543 
L 337.696073 38.7684 
L 338.031208 43.73959 
L 338.366343 45.916534 
L 338.701478 56.799822 
L 339.036613 45.5815 
L 339.371748 26.434914 
L 339.706883 49.254871 
L 340.042019 62.843684 
L 340.377154 69.669891 
L 340.712289 56.952156 
L 341.047424 48.90919 
L 341.382559 70.049831 
L 341.717694 46.645965 
L 342.052829 60.735158 
L 342.387965 47.902142 
L 342.7231 78.880567 
L 343.058235 57.840146 
L 343.39337 79.507303 
L 343.728505 56.12424 
L 344.06364 50.503023 
L 344.398775 69.084315 
L 344.73391 59.050624 
L 345.069046 71.653076 
L 345.404181 55.300358 
L 345.739316 62.076405 
L 346.074451 35.499773 
L 346.409586 71.622771 
L 346.744721 54.845072 
L 347.079856 57.112041 
L 347.414992 75.858041 
L 347.750127 55.490978 
L 348.085262 86.35753 
L 348.420397 75.762163 
L 348.755532 53.408305 
L 349.090667 74.444826 
L 349.425802 56.726596 
L 349.760938 71.683555 
L 350.096073 81.038699 
L 350.431208 63.681126 
L 350.766343 68.938982 
L 351.101478 67.725087 
L 351.771748 71.902794 
L 352.106883 70.792642 
L 352.442019 71.309195 
L 352.777154 53.787846 
L 353.447424 78.156773 
L 353.782559 64.234203 
L 354.117694 83.378912 
L 354.452829 79.050659 
L 354.787965 78.024898 
L 355.1231 62.033167 
L 355.458235 80.818023 
L 355.79337 87.494711 
L 356.128505 70.8862 
L 356.46364 84.015429 
L 356.798775 70.338323 
L 357.13391 74.713831 
L 357.469046 76.266491 
L 357.804181 69.436637 
L 358.139316 49.676295 
L 358.474451 79.207028 
L 358.809586 72.924202 
L 359.144721 77.183442 
L 359.479856 83.071554 
L 359.814992 72.77953 
L 360.150127 82.902559 
L 360.485262 82.289426 
L 360.820397 86.403545 
L 361.155532 75.88166 
L 361.490667 73.244065 
L 361.825802 80.119707 
L 362.160938 76.584979 
L 362.496073 85.091131 
L 362.831208 99.198163 
L 363.166343 81.150068 
L 363.501478 72.513867 
L 363.836613 74.697249 
L 364.171748 90.148817 
L 364.506883 75.324836 
L 364.842019 78.962415 
L 365.177154 62.984417 
L 365.512289 74.738679 
L 365.847424 96.65779 
L 366.182559 106.298255 
L 366.517694 87.639345 
L 366.852829 89.548392 
L 367.187965 66.425947 
L 367.5231 90.601826 
L 367.858235 86.112506 
L 368.19337 100.512368 
L 368.528505 93.796682 
L 368.86364 101.782484 
L 369.198775 105.344017 
L 369.53391 93.034909 
L 369.869046 112.251618 
L 370.204181 102.615856 
L 370.539316 88.919633 
L 370.874451 96.737427 
L 371.209586 93.049474 
L 371.544721 104.677091 
L 371.879856 89.59974 
L 372.214992 113.048195 
L 372.550127 83.549287 
L 372.885262 96.210723 
L 373.220397 76.682711 
L 373.555532 92.30218 
L 373.890667 98.507342 
L 374.225802 100.813604 
L 374.560938 92.872433 
L 374.896073 96.153028 
L 375.231208 105.701519 
L 375.566343 88.499599 
L 375.901478 110.559759 
L 376.236613 123.784734 
L 376.571748 115.06423 
L 376.906883 111.588006 
L 377.242019 119.077987 
L 377.577154 85.906383 
L 377.912289 114.779496 
L 378.247424 94.954219 
L 378.582559 100.730936 
L 378.917694 98.669119 
L 379.252829 106.586306 
L 379.587965 109.041236 
L 379.9231 105.019353 
L 380.258235 98.86334 
L 380.59337 110.667636 
L 380.928505 110.142604 
L 381.26364 109.357065 
L 381.598775 123.502308 
L 381.93391 111.154593 
L 382.269046 114.49676 
L 382.604181 119.902827 
L 383.274451 106.668066 
L 383.609586 115.425318 
L 383.944721 90.967599 
L 384.279856 123.201216 
L 384.614992 99.82768 
L 385.285262 117.295974 
L 385.620397 124.368843 
L 385.955532 100.651758 
L 386.290667 116.402466 
L 386.625802 119.554936 
L 386.960938 118.47097 
L 386.960938 118.47097 
" clip-path="url(#p256eac5f55)" style="fill: none; stroke: #1f77b4; stroke-width: 1.5; stroke-linecap: square"/>
   </g>
   <g id="patch_3">
    <path d="M 52.160938 173.52 
L 52.160938 7.2 
" style="fill: none; stroke: #000000; stroke-width: 0.8; stroke-linejoin: miter; stroke-linecap: square"/>
   </g>
   <g id="patch_4">
    <path d="M 386.960938 173.52 
L 386.960938 7.2 
" style="fill: none; stroke: #000000; stroke-width: 0.8; stroke-linejoin: miter; stroke-linecap: square"/>
   </g>
   <g id="patch_5">
    <path d="M 52.160938 173.52 
L 386.960938 173.52 
" style="fill: none; stroke: #000000; stroke-width: 0.8; stroke-linejoin: miter; stroke-linecap: square"/>
   </g>
   <g id="patch_6">
    <path d="M 52.160938 7.2 
L 386.960938 7.2 
" style="fill: none; stroke: #000000; stroke-width: 0.8; stroke-linejoin: miter; stroke-linecap: square"/>
   </g>
  </g>
 </g>
 <defs>
  <clipPath id="p256eac5f55">
   <rect x="52.160938" y="7.2" width="334.8" height="166.32"/>
  </clipPath>
 </defs>
</svg>
