<?xml version="1.0" encoding="utf-8" standalone="no"?>
<!DOCTYPE svg PUBLIC "-//W3C//DTD SVG 1.1//EN"
  "http://www.w3.org/Graphics/SVG/1.1/DTD/svg11.dtd">
<svg xmlns:xlink="http://www.w3.org/1999/xlink" width="245.120313pt" height="183.35625pt" viewBox="0 0 245.120313 183.35625" xmlns="http://www.w3.org/2000/svg" version="1.1">
 <metadata>
  <rdf:RDF xmlns:dc="http://purl.org/dc/elements/1.1/" xmlns:cc="http://creativecommons.org/ns#" xmlns:rdf="http://www.w3.org/1999/02/22-rdf-syntax-ns#">
   <cc:Work>
    <dc:type rdf:resource="http://purl.org/dc/dcmitype/StillImage"/>
    <dc:date>2023-09-28T14:03:19.319497</dc:date>
    <dc:format>image/svg+xml</dc:format>
    <dc:creator>
     <cc:Agent>
      <dc:title>Matplotlib v3.7.1, https://matplotlib.org/</dc:title>
     </cc:Agent>
    </dc:creator>
   </cc:Work>
  </rdf:RDF>
 </metadata>
 <defs>
  <style type="text/css">*{stroke-linejoin: round; stroke-linecap: butt}</style>
 </defs>
 <g id="figure_1">
  <g id="patch_1">
   <path d="M 0 183.35625 
L 245.120313 183.35625 
L 245.120313 0 
L 0 0 
z
" style="fill: #ffffff"/>
  </g>
  <g id="axes_1">
   <g id="patch_2">
    <path d="M 42.620312 145.8 
L 237.920313 145.8 
L 237.920313 7.2 
L 42.620312 7.2 
z
" style="fill: #ffffff"/>
   </g>
   <g id="matplotlib.axis_1">
    <g id="xtick_1">
     <g id="line2d_1">
      <defs>
       <path id="m6cf5fd2e80" d="M 0 0 
L 0 3.5 
" style="stroke: #000000; stroke-width: 0.8"/>
      </defs>
      <g>
       <use xlink:href="#m6cf5fd2e80" x="88.39375" y="145.8" style="stroke: #000000; stroke-width: 0.8"/>
      </g>
     </g>
     <g id="text_1">
      <!-- −4 -->
      <g transform="translate(81.022656 160.398438) scale(0.1 -0.1)">
       <defs>
        <path id="DejaVuSans-2212" d="M 678 2272 
L 4684 2272 
L 4684 1741 
L 678 1741 
L 678 2272 
z
" transform="scale(0.015625)"/>
        <path id="DejaVuSans-34" d="M 2419 4116 
L 825 1625 
L 2419 1625 
L 2419 4116 
z
M 2253 4666 
L 3047 4666 
L 3047 1625 
L 3713 1625 
L 3713 1100 
L 3047 1100 
L 3047 0 
L 2419 0 
L 2419 1100 
L 313 1100 
L 313 1709 
L 2253 4666 
z
" transform="scale(0.015625)"/>
       </defs>
       <use xlink:href="#DejaVuSans-2212"/>
       <use xlink:href="#DejaVuSans-34" x="83.789062"/>
      </g>
     </g>
    </g>
    <g id="xtick_2">
     <g id="line2d_2">
      <g>
       <use xlink:href="#m6cf5fd2e80" x="149.425" y="145.8" style="stroke: #000000; stroke-width: 0.8"/>
      </g>
     </g>
     <g id="text_2">
      <!-- −2 -->
      <g transform="translate(142.053907 160.398438) scale(0.1 -0.1)">
       <defs>
        <path id="DejaVuSans-32" d="M 1228 531 
L 3431 531 
L 3431 0 
L 469 0 
L 469 531 
Q 828 903 1448 1529 
Q 2069 2156 2228 2338 
Q 2531 2678 2651 2914 
Q 2772 3150 2772 3378 
Q 2772 3750 2511 3984 
Q 2250 4219 1831 4219 
Q 1534 4219 1204 4116 
Q 875 4013 500 3803 
L 500 4441 
Q 881 4594 1212 4672 
Q 1544 4750 1819 4750 
Q 2544 4750 2975 4387 
Q 3406 4025 3406 3419 
Q 3406 3131 3298 2873 
Q 3191 2616 2906 2266 
Q 2828 2175 2409 1742 
Q 1991 1309 1228 531 
z
" transform="scale(0.015625)"/>
       </defs>
       <use xlink:href="#DejaVuSans-2212"/>
       <use xlink:href="#DejaVuSans-32" x="83.789062"/>
      </g>
     </g>
    </g>
    <g id="xtick_3">
     <g id="line2d_3">
      <g>
       <use xlink:href="#m6cf5fd2e80" x="210.456251" y="145.8" style="stroke: #000000; stroke-width: 0.8"/>
      </g>
     </g>
     <g id="text_3">
      <!-- 0 -->
      <g transform="translate(207.275001 160.398438) scale(0.1 -0.1)">
       <defs>
        <path id="DejaVuSans-30" d="M 2034 4250 
Q 1547 4250 1301 3770 
Q 1056 3291 1056 2328 
Q 1056 1369 1301 889 
Q 1547 409 2034 409 
Q 2525 409 2770 889 
Q 3016 1369 3016 2328 
Q 3016 3291 2770 3770 
Q 2525 4250 2034 4250 
z
M 2034 4750 
Q 2819 4750 3233 4129 
Q 3647 3509 3647 2328 
Q 3647 1150 3233 529 
Q 2819 -91 2034 -91 
Q 1250 -91 836 529 
Q 422 1150 422 2328 
Q 422 3509 836 4129 
Q 1250 4750 2034 4750 
z
" transform="scale(0.015625)"/>
       </defs>
       <use xlink:href="#DejaVuSans-30"/>
      </g>
     </g>
    </g>
    <g id="text_4">
     <!-- x1 -->
     <g transform="translate(134.129687 174.076563) scale(0.1 -0.1)">
      <defs>
       <path id="DejaVuSans-78" d="M 3513 3500 
L 2247 1797 
L 3578 0 
L 2900 0 
L 1881 1375 
L 863 0 
L 184 0 
L 1544 1831 
L 300 3500 
L 978 3500 
L 1906 2253 
L 2834 3500 
L 3513 3500 
z
" transform="scale(0.015625)"/>
       <path id="DejaVuSans-31" d="M 794 531 
L 1825 531 
L 1825 4091 
L 703 3866 
L 703 4441 
L 1819 4666 
L 2450 4666 
L 2450 531 
L 3481 531 
L 3481 0 
L 794 0 
L 794 531 
z
" transform="scale(0.015625)"/>
      </defs>
      <use xlink:href="#DejaVuSans-78"/>
      <use xlink:href="#DejaVuSans-31" x="59.179688"/>
     </g>
    </g>
   </g>
   <g id="matplotlib.axis_2">
    <g id="ytick_1">
     <g id="line2d_4">
      <defs>
       <path id="m63c01ce41a" d="M 0 0 
L -3.5 0 
" style="stroke: #000000; stroke-width: 0.8"/>
      </defs>
      <g>
       <use xlink:href="#m63c01ce41a" x="42.620312" y="145.8" style="stroke: #000000; stroke-width: 0.8"/>
      </g>
     </g>
     <g id="text_5">
      <!-- −3 -->
      <g transform="translate(20.878125 149.599219) scale(0.1 -0.1)">
       <defs>
        <path id="DejaVuSans-33" d="M 2597 2516 
Q 3050 2419 3304 2112 
Q 3559 1806 3559 1356 
Q 3559 666 3084 287 
Q 2609 -91 1734 -91 
Q 1441 -91 1130 -33 
Q 819 25 488 141 
L 488 750 
Q 750 597 1062 519 
Q 1375 441 1716 441 
Q 2309 441 2620 675 
Q 2931 909 2931 1356 
Q 2931 1769 2642 2001 
Q 2353 2234 1838 2234 
L 1294 2234 
L 1294 2753 
L 1863 2753 
Q 2328 2753 2575 2939 
Q 2822 3125 2822 3475 
Q 2822 3834 2567 4026 
Q 2313 4219 1838 4219 
Q 1578 4219 1281 4162 
Q 984 4106 628 3988 
L 628 4550 
Q 988 4650 1302 4700 
Q 1616 4750 1894 4750 
Q 2613 4750 3031 4423 
Q 3450 4097 3450 3541 
Q 3450 3153 3228 2886 
Q 3006 2619 2597 2516 
z
" transform="scale(0.015625)"/>
       </defs>
       <use xlink:href="#DejaVuSans-2212"/>
       <use xlink:href="#DejaVuSans-33" x="83.789062"/>
      </g>
     </g>
    </g>
    <g id="ytick_2">
     <g id="line2d_5">
      <g>
       <use xlink:href="#m63c01ce41a" x="42.620312" y="110.261538" style="stroke: #000000; stroke-width: 0.8"/>
      </g>
     </g>
     <g id="text_6">
      <!-- −2 -->
      <g transform="translate(20.878125 114.060757) scale(0.1 -0.1)">
       <use xlink:href="#DejaVuSans-2212"/>
       <use xlink:href="#DejaVuSans-32" x="83.789062"/>
      </g>
     </g>
    </g>
    <g id="ytick_3">
     <g id="line2d_6">
      <g>
       <use xlink:href="#m63c01ce41a" x="42.620312" y="74.723076" style="stroke: #000000; stroke-width: 0.8"/>
      </g>
     </g>
     <g id="text_7">
      <!-- −1 -->
      <g transform="translate(20.878125 78.522295) scale(0.1 -0.1)">
       <use xlink:href="#DejaVuSans-2212"/>
       <use xlink:href="#DejaVuSans-31" x="83.789062"/>
      </g>
     </g>
    </g>
    <g id="ytick_4">
     <g id="line2d_7">
      <g>
       <use xlink:href="#m63c01ce41a" x="42.620312" y="39.184615" style="stroke: #000000; stroke-width: 0.8"/>
      </g>
     </g>
     <g id="text_8">
      <!-- 0 -->
      <g transform="translate(29.257812 42.983833) scale(0.1 -0.1)">
       <use xlink:href="#DejaVuSans-30"/>
      </g>
     </g>
    </g>
    <g id="text_9">
     <!-- x2 -->
     <g transform="translate(14.798437 82.640625) rotate(-90) scale(0.1 -0.1)">
      <use xlink:href="#DejaVuSans-78"/>
      <use xlink:href="#DejaVuSans-32" x="59.179688"/>
     </g>
    </g>
   </g>
   <g id="line2d_8">
    <path d="M 57.878125 110.261538 
L 70.084369 96.046154 
L 78.348688 87.165873 
L 84.908015 80.537052 
L 90.459611 75.236107 
L 95.325825 70.841109 
L 99.686585 67.116708 
L 103.654327 63.914925 
L 107.304852 61.134891 
L 110.692126 58.703726 
L 113.856191 56.566407 
L 116.827734 54.679956 
L 119.630892 53.009887 
L 122.285063 51.527936 
L 124.806116 50.210531 
L 127.207235 49.037745 
L 129.499519 47.992541 
L 131.692415 47.060222 
L 133.79405 46.228018 
L 135.811476 45.48477 
L 137.750858 44.820679 
" clip-path="url(#p6bb9b408db)" style="fill: none; stroke: #ff7f0e; stroke-width: 1.5; stroke-linecap: square"/>
    <defs>
     <path id="m59459d7162" d="M 0 3 
C 0.795609 3 1.55874 2.683901 2.12132 2.12132 
C 2.683901 1.55874 3 0.795609 3 0 
C 3 -0.795609 2.683901 -1.55874 2.12132 -2.12132 
C 1.55874 -2.683901 0.795609 -3 0 -3 
C -0.795609 -3 -1.55874 -2.683901 -2.12132 -2.12132 
C -2.683901 -1.55874 -3 -0.795609 -3 0 
C -3 0.795609 -2.683901 1.55874 -2.12132 2.12132 
C -1.55874 2.683901 -0.795609 3 0 3 
z
" style="stroke: #ff7f0e"/>
    </defs>
    <g clip-path="url(#p6bb9b408db)">
     <use xlink:href="#m59459d7162" x="57.878125" y="110.261538" style="fill: #ff7f0e; stroke: #ff7f0e"/>
     <use xlink:href="#m59459d7162" x="70.084369" y="96.046154" style="fill: #ff7f0e; stroke: #ff7f0e"/>
     <use xlink:href="#m59459d7162" x="78.348688" y="87.165873" style="fill: #ff7f0e; stroke: #ff7f0e"/>
     <use xlink:href="#m59459d7162" x="84.908015" y="80.537052" style="fill: #ff7f0e; stroke: #ff7f0e"/>
     <use xlink:href="#m59459d7162" x="90.459611" y="75.236107" style="fill: #ff7f0e; stroke: #ff7f0e"/>
     <use xlink:href="#m59459d7162" x="95.325825" y="70.841109" style="fill: #ff7f0e; stroke: #ff7f0e"/>
     <use xlink:href="#m59459d7162" x="99.686585" y="67.116708" style="fill: #ff7f0e; stroke: #ff7f0e"/>
     <use xlink:href="#m59459d7162" x="103.654327" y="63.914925" style="fill: #ff7f0e; stroke: #ff7f0e"/>
     <use xlink:href="#m59459d7162" x="107.304852" y="61.134891" style="fill: #ff7f0e; stroke: #ff7f0e"/>
     <use xlink:href="#m59459d7162" x="110.692126" y="58.703726" style="fill: #ff7f0e; stroke: #ff7f0e"/>
     <use xlink:href="#m59459d7162" x="113.856191" y="56.566407" style="fill: #ff7f0e; stroke: #ff7f0e"/>
     <use xlink:href="#m59459d7162" x="116.827734" y="54.679956" style="fill: #ff7f0e; stroke: #ff7f0e"/>
     <use xlink:href="#m59459d7162" x="119.630892" y="53.009887" style="fill: #ff7f0e; stroke: #ff7f0e"/>
     <use xlink:href="#m59459d7162" x="122.285063" y="51.527936" style="fill: #ff7f0e; stroke: #ff7f0e"/>
     <use xlink:href="#m59459d7162" x="124.806116" y="50.210531" style="fill: #ff7f0e; stroke: #ff7f0e"/>
     <use xlink:href="#m59459d7162" x="127.207235" y="49.037745" style="fill: #ff7f0e; stroke: #ff7f0e"/>
     <use xlink:href="#m59459d7162" x="129.499519" y="47.992541" style="fill: #ff7f0e; stroke: #ff7f0e"/>
     <use xlink:href="#m59459d7162" x="131.692415" y="47.060222" style="fill: #ff7f0e; stroke: #ff7f0e"/>
     <use xlink:href="#m59459d7162" x="133.79405" y="46.228018" style="fill: #ff7f0e; stroke: #ff7f0e"/>
     <use xlink:href="#m59459d7162" x="135.811476" y="45.48477" style="fill: #ff7f0e; stroke: #ff7f0e"/>
     <use xlink:href="#m59459d7162" x="137.750858" y="44.820679" style="fill: #ff7f0e; stroke: #ff7f0e"/>
    </g>
   </g>
   <g id="PathCollection_1"/>
   <g id="PathCollection_2">
    <path d="M 97.100868 7.2 
L 94.496869 7.868961 
L 91.44531 8.673801 
L 88.393757 9.499545 
L 85.342191 10.346198 
L 83.908323 10.753845 
L 82.290631 11.275074 
L 79.239071 12.281998 
L 76.187512 13.312611 
L 73.307377 14.307692 
L 73.135938 14.376037 
L 70.084378 15.61988 
L 67.032818 16.891062 
L 64.752171 17.861537 
L 63.981244 18.249232 
L 60.929685 19.816153 
L 57.878125 21.415384 
L 57.878125 21.415384 
L 54.826565 23.409482 
L 52.48604 24.96923 
L 51.775006 25.578453 
L 48.723432 28.243853 
L 48.409729 28.523076 
L 45.671872 31.93477 
L 45.55989 32.076922 
L 43.880133 35.630769 
L 43.320214 39.184616 
L 43.880133 42.738462 
L 45.55989 46.292308 
L 45.671872 46.43446 
L 48.409729 49.846154 
L 48.723432 50.125377 
L 51.775006 52.790777 
L 52.486042 53.400001 
L 54.826565 54.959745 
L 57.878125 56.953846 
L 57.878125 56.953846 
L 60.929685 58.553076 
L 63.981244 60.119998 
L 64.752171 60.507693 
L 67.032818 61.478167 
L 70.084378 62.749349 
L 73.135938 63.993193 
L 73.307377 64.061538 
L 76.187512 65.056618 
L 79.239071 66.087232 
L 82.290631 67.094156 
L 83.908319 67.615382 
L 85.342191 68.02303 
L 88.393757 68.869685 
L 91.44531 69.695427 
L 94.496869 70.500269 
L 97.100868 71.169229 
L 97.548436 71.272105 
L 100.599996 71.954818 
L 103.651563 72.618826 
L 106.703122 73.264128 
L 109.754682 73.890726 
L 112.806249 74.498621 
L 113.968755 74.723076 
L 115.857816 75.053077 
L 118.909375 75.56923 
L 121.960942 76.068463 
L 125.012502 76.55077 
L 128.064069 77.016155 
L 131.115628 77.464616 
L 134.167188 77.896154 
L 136.969651 78.276924 
L 137.218755 78.307826 
L 140.270314 78.670936 
L 143.321874 79.018595 
L 146.373441 79.350803 
L 149.425 79.667558 
L 152.476564 79.968862 
L 155.528127 80.254716 
L 158.57969 80.525117 
L 161.631253 80.780066 
L 164.682813 81.019566 
L 167.734376 81.243611 
L 170.785939 81.452208 
L 173.837499 81.645351 
L 176.889062 81.823043 
L 177.034329 81.830766 
L 179.940626 81.972923 
L 182.992189 82.107968 
L 186.04375 82.228801 
L 189.095313 82.335415 
L 192.146877 82.427815 
L 195.198438 82.505999 
L 198.250001 82.569969 
L 201.301564 82.619722 
L 204.353126 82.655262 
L 207.404689 82.676585 
L 210.456251 82.683692 
L 213.507813 82.676585 
L 216.559376 82.655262 
L 219.610939 82.619722 
L 222.662501 82.569969 
L 225.714063 82.505999 
L 228.765626 82.427815 
L 231.817188 82.335415 
L 234.868751 82.228801 
L 237.920313 82.107968 
" clip-path="url(#p6bb9b408db)" style="fill: none; stroke: #1f77b4; stroke-width: 1.5"/>
   </g>
   <g id="PathCollection_3">
    <path d="M 42.620312 82.505999 
L 45.671872 83.280739 
L 48.723432 84.041258 
L 51.775006 84.78757 
L 54.263642 85.384613 
L 54.826565 85.509659 
L 57.878125 86.174359 
L 60.929685 86.825897 
L 63.981244 87.464272 
L 67.032818 88.089488 
L 70.084378 88.701539 
L 71.29158 88.93846 
L 73.135938 89.275465 
L 76.187512 89.820797 
L 79.239071 90.353873 
L 82.290631 90.874696 
L 85.342191 91.383263 
L 88.393757 91.879576 
L 91.44531 92.363634 
L 92.277553 92.492307 
L 94.496869 92.813298 
L 97.548436 93.243201 
L 100.599996 93.661637 
L 103.651563 94.06861 
L 106.703122 94.464117 
L 109.754682 94.848161 
L 112.806249 95.220742 
L 115.857816 95.58186 
L 118.909375 95.931512 
L 119.943828 96.046154 
L 121.960942 96.256152 
L 125.012502 96.563076 
L 128.064069 96.859229 
L 131.115628 97.144614 
L 134.167188 97.41923 
L 137.218755 97.683078 
L 140.270314 97.936154 
L 143.321874 98.17846 
L 146.373441 98.41 
L 149.425 98.630769 
L 152.476564 98.840769 
L 155.528127 99.040001 
L 158.57969 99.228461 
L 161.631253 99.406154 
L 164.682813 99.573078 
L 165.20896 99.600001 
L 167.734376 99.721846 
L 170.785939 99.858923 
L 173.837499 99.985846 
L 176.889062 100.102617 
L 179.940626 100.209232 
L 182.992189 100.305693 
L 186.04375 100.392 
L 189.095313 100.468155 
L 192.146877 100.534155 
L 195.198438 100.59 
L 198.250001 100.635694 
L 201.301564 100.671232 
L 204.353126 100.696615 
L 207.404689 100.711847 
L 210.456251 100.716923 
L 213.507813 100.711847 
L 216.559376 100.696615 
L 219.610939 100.671232 
L 222.662501 100.635694 
L 225.714063 100.59 
L 228.765626 100.534155 
L 231.817188 100.468155 
L 234.868751 100.392 
L 237.920313 100.305693 
" clip-path="url(#p6bb9b408db)" style="fill: none; stroke: #1f77b4; stroke-width: 1.5"/>
   </g>
   <g id="PathCollection_4">
    <path d="M 42.620312 100.589999 
L 45.671872 101.143384 
L 48.723432 101.686614 
L 51.775006 102.219694 
L 54.826565 102.742616 
L 57.27387 103.153848 
L 57.878125 103.249896 
L 60.929685 103.725343 
L 63.981244 104.191185 
L 67.032818 104.647423 
L 70.084378 105.094054 
L 73.135938 105.53108 
L 76.187512 105.958505 
L 79.239071 106.376322 
L 81.716227 106.707695 
L 82.290631 106.780594 
L 85.342191 107.158756 
L 88.393757 107.527811 
L 91.44531 107.88775 
L 94.496869 108.23858 
L 97.548436 108.580295 
L 100.599996 108.912898 
L 103.651563 109.236389 
L 106.703122 109.550769 
L 109.754682 109.856036 
L 112.806249 110.152188 
L 113.968764 110.261538 
L 115.857816 110.430561 
L 118.909375 110.694936 
L 121.960942 110.950639 
L 125.012502 111.197671 
L 128.064069 111.43604 
L 131.115628 111.665742 
L 134.167188 111.886772 
L 137.218755 112.099135 
L 140.270314 112.302831 
L 143.321874 112.497859 
L 146.373441 112.68422 
L 149.425 112.861914 
L 152.476564 113.030936 
L 155.528127 113.191291 
L 158.57969 113.342983 
L 161.631253 113.486004 
L 164.682813 113.620353 
L 167.734376 113.746039 
L 169.542874 113.81539 
L 170.785939 113.86084 
L 173.837499 113.964148 
L 176.889062 114.059192 
L 179.940626 114.145972 
L 182.992189 114.224487 
L 186.04375 114.294739 
L 189.095313 114.356726 
L 192.146877 114.410445 
L 195.198438 114.455904 
L 198.250001 114.493094 
L 201.301564 114.522021 
L 204.353126 114.542683 
L 207.404689 114.555078 
L 210.456251 114.559212 
L 213.507813 114.555078 
L 216.559376 114.542683 
L 219.610939 114.522021 
L 222.662501 114.493094 
L 225.714063 114.455904 
L 228.765626 114.410445 
L 231.817188 114.356726 
L 234.868751 114.294739 
L 237.920313 114.224487 
" clip-path="url(#p6bb9b408db)" style="fill: none; stroke: #1f77b4; stroke-width: 1.5"/>
   </g>
   <g id="PathCollection_5">
    <path d="M 42.620312 114.455904 
L 45.671872 114.90633 
L 48.723432 115.348496 
L 51.775006 115.782398 
L 54.826565 116.208033 
L 57.878125 116.625402 
L 60.929685 117.034508 
L 63.477901 117.369232 
L 63.981244 117.432411 
L 67.032818 117.80754 
L 70.084378 118.174768 
L 73.135938 118.534104 
L 76.187512 118.885538 
L 79.239071 119.229076 
L 82.290631 119.564717 
L 85.342191 119.892461 
L 88.393757 120.212309 
L 91.44531 120.524255 
L 94.496869 120.828305 
L 95.47338 120.923075 
L 97.548436 121.115889 
L 100.599996 121.391879 
L 103.651563 121.660309 
L 106.703122 121.921177 
L 109.754682 122.174485 
L 112.806249 122.420228 
L 115.857816 122.658411 
L 118.909375 122.889036 
L 121.960942 123.112097 
L 125.012502 123.327593 
L 128.064069 123.535532 
L 131.115628 123.735911 
L 134.167188 123.928724 
L 137.218755 124.113977 
L 140.270314 124.29167 
L 143.321874 124.461801 
L 143.605786 124.476926 
L 146.373441 124.618353 
L 149.425 124.767036 
L 152.476564 124.908463 
L 155.528127 125.042637 
L 158.57969 125.169563 
L 161.631253 125.289234 
L 164.682813 125.401648 
L 167.734376 125.506814 
L 170.785939 125.604728 
L 173.837499 125.695385 
L 176.889062 125.778791 
L 179.940626 125.854945 
L 182.992189 125.923846 
L 186.04375 125.985495 
L 189.095313 126.039892 
L 192.146877 126.087033 
L 195.198438 126.126925 
L 198.250001 126.159562 
L 201.301564 126.184946 
L 204.353126 126.203079 
L 207.404689 126.213955 
L 210.456251 126.217583 
L 213.507813 126.213955 
L 216.559376 126.203079 
L 219.610939 126.184946 
L 222.662501 126.159562 
L 225.714063 126.126925 
L 228.765626 126.087033 
L 231.817188 126.039892 
L 234.868751 125.985495 
L 237.920313 125.923846 
" clip-path="url(#p6bb9b408db)" style="fill: none; stroke: #1f77b4; stroke-width: 1.5"/>
   </g>
   <g id="PathCollection_6">
    <path d="M 42.620312 126.126925 
L 45.671872 126.522197 
L 48.723432 126.91022 
L 51.775006 127.290991 
L 54.826565 127.664506 
L 57.878125 128.030769 
L 57.878125 128.030769 
L 60.929685 128.375701 
L 63.981244 128.713666 
L 67.032818 129.044662 
L 70.084378 129.368688 
L 73.135938 129.685749 
L 76.187512 129.995838 
L 79.239071 130.29896 
L 82.290631 130.595114 
L 85.342191 130.884301 
L 88.393757 131.166519 
L 91.44531 131.441767 
L 93.070112 131.584612 
L 94.496869 131.705313 
L 97.548436 131.956763 
L 100.599996 132.201509 
L 103.651563 132.43955 
L 106.703122 132.670885 
L 109.754682 132.895516 
L 112.806249 133.113439 
L 115.857816 133.324659 
L 118.909375 133.529174 
L 121.960942 133.726982 
L 125.012502 133.918082 
L 128.064069 134.102481 
L 131.115628 134.280175 
L 134.167188 134.45116 
L 137.218755 134.615441 
L 140.270314 134.773017 
L 143.321874 134.923888 
L 146.373441 135.068054 
L 147.936485 135.138463 
L 149.425 135.203077 
L 152.476564 135.329076 
L 155.528127 135.448613 
L 158.57969 135.561693 
L 161.631253 135.668308 
L 164.682813 135.768459 
L 167.734376 135.862153 
L 170.785939 135.949385 
L 173.837499 136.030153 
L 176.889062 136.10446 
L 179.940626 136.172306 
L 182.992189 136.233691 
L 186.04375 136.288614 
L 189.095313 136.337077 
L 192.146877 136.379075 
L 195.198438 136.414616 
L 198.250001 136.443692 
L 201.301564 136.466308 
L 204.353126 136.482462 
L 207.404689 136.492152 
L 210.456251 136.495384 
L 213.507813 136.492152 
L 216.559376 136.482462 
L 219.610939 136.466308 
L 222.662501 136.443692 
L 225.714063 136.414616 
L 228.765626 136.379075 
L 231.817188 136.337077 
L 234.868751 136.288614 
L 237.920313 136.233691 
" clip-path="url(#p6bb9b408db)" style="fill: none; stroke: #1f77b4; stroke-width: 1.5"/>
   </g>
   <g id="PathCollection_7">
    <path d="M 42.620312 136.414613 
L 45.671872 136.766771 
L 48.723432 137.112458 
L 51.775006 137.451694 
L 54.826565 137.784465 
L 57.878125 138.110766 
L 60.929685 138.430616 
L 63.477871 138.692306 
L 63.981244 138.742187 
L 67.032818 139.038339 
L 70.084378 139.328259 
L 73.135938 139.611942 
L 76.187512 139.889394 
L 79.239071 140.160608 
L 82.290631 140.425588 
L 85.342191 140.684331 
L 88.393757 140.936841 
L 91.44531 141.183116 
L 94.496869 141.423157 
L 97.548436 141.656963 
L 100.599996 141.884534 
L 103.651563 142.105868 
L 105.641791 142.246157 
L 106.703122 142.318434 
L 109.754682 142.520218 
L 112.806249 142.715983 
L 115.857816 142.905721 
L 118.909375 143.089439 
L 121.960942 143.267132 
L 125.012502 143.438798 
L 128.064069 143.604445 
L 131.115628 143.764065 
L 134.167188 143.917665 
L 137.218755 144.06524 
L 140.270314 144.206794 
L 143.321874 144.342322 
L 146.373441 144.471825 
L 149.425 144.595307 
L 152.476564 144.712763 
L 155.528127 144.8242 
L 158.57969 144.92961 
L 161.631253 145.028994 
L 164.682813 145.122358 
L 167.734376 145.209702 
L 170.785939 145.291015 
L 173.837499 145.366313 
L 176.889062 145.435579 
L 179.940626 145.498825 
L 182.992189 145.556051 
L 186.04375 145.607251 
L 189.095313 145.652426 
L 192.146877 145.69158 
L 195.198438 145.724708 
L 198.250001 145.75181 
L 201.301564 145.772892 
L 204.353126 145.787954 
L 207.404689 145.79699 
L 210.456251 145.8 
" clip-path="url(#p6bb9b408db)" style="fill: none; stroke: #1f77b4; stroke-width: 1.5"/>
    <path d="M 210.456251 145.8 
L 213.507813 145.79699 
L 216.559376 145.787954 
L 219.610939 145.772892 
L 222.662501 145.75181 
L 225.714063 145.724708 
L 228.765626 145.69158 
L 231.817188 145.652426 
L 234.868751 145.607251 
L 237.920313 145.556051 
" clip-path="url(#p6bb9b408db)" style="fill: none; stroke: #1f77b4; stroke-width: 1.5"/>
   </g>
   <g id="PathCollection_8">
    <path d="M 42.620312 145.724708 
L 43.320206 145.8 
" clip-path="url(#p6bb9b408db)" style="fill: none; stroke: #1f77b4; stroke-width: 1.5"/>
   </g>
   <g id="PathCollection_9"/>
   <g id="patch_3">
    <path d="M 42.620312 145.8 
L 42.620312 7.2 
" style="fill: none; stroke: #000000; stroke-width: 0.8; stroke-linejoin: miter; stroke-linecap: square"/>
   </g>
   <g id="patch_4">
    <path d="M 237.920313 145.8 
L 237.920313 7.2 
" style="fill: none; stroke: #000000; stroke-width: 0.8; stroke-linejoin: miter; stroke-linecap: square"/>
   </g>
   <g id="patch_5">
    <path d="M 42.620312 145.8 
L 237.920313 145.8 
" style="fill: none; stroke: #000000; stroke-width: 0.8; stroke-linejoin: miter; stroke-linecap: square"/>
   </g>
   <g id="patch_6">
    <path d="M 42.620312 7.2 
L 237.920313 7.2 
" style="fill: none; stroke: #000000; stroke-width: 0.8; stroke-linejoin: miter; stroke-linecap: square"/>
   </g>
  </g>
 </g>
 <defs>
  <clipPath id="p6bb9b408db">
   <rect x="42.620312" y="7.2" width="195.3" height="138.6"/>
  </clipPath>
 </defs>
</svg>
