<?xml version="1.0" encoding="utf-8" standalone="no"?>
<!DOCTYPE svg PUBLIC "-//W3C//DTD SVG 1.1//EN"
  "http://www.w3.org/Graphics/SVG/1.1/DTD/svg11.dtd">
<svg xmlns:xlink="http://www.w3.org/1999/xlink" width="245.120313pt" height="183.35625pt" viewBox="0 0 245.120313 183.35625" xmlns="http://www.w3.org/2000/svg" version="1.1">
 <metadata>
  <rdf:RDF xmlns:dc="http://purl.org/dc/elements/1.1/" xmlns:cc="http://creativecommons.org/ns#" xmlns:rdf="http://www.w3.org/1999/02/22-rdf-syntax-ns#">
   <cc:Work>
    <dc:type rdf:resource="http://purl.org/dc/dcmitype/StillImage"/>
    <dc:date>2023-09-28T14:03:35.113681</dc:date>
    <dc:format>image/svg+xml</dc:format>
    <dc:creator>
     <cc:Agent>
      <dc:title>Matplotlib v3.7.1, https://matplotlib.org/</dc:title>
     </cc:Agent>
    </dc:creator>
   </cc:Work>
  </rdf:RDF>
 </metadata>
 <defs>
  <style type="text/css">*{stroke-linejoin: round; stroke-linecap: butt}</style>
 </defs>
 <g id="figure_1">
  <g id="patch_1">
   <path d="M 0 183.35625 
L 245.120313 183.35625 
L 245.120313 0 
L 0 0 
z
" style="fill: #ffffff"/>
  </g>
  <g id="axes_1">
   <g id="patch_2">
    <path d="M 42.620312 145.8 
L 237.920313 145.8 
L 237.920313 7.2 
L 42.620312 7.2 
z
" style="fill: #ffffff"/>
   </g>
   <g id="matplotlib.axis_1">
    <g id="xtick_1">
     <g id="line2d_1">
      <defs>
       <path id="m6494c1700c" d="M 0 0 
L 0 3.5 
" style="stroke: #000000; stroke-width: 0.8"/>
      </defs>
      <g>
       <use xlink:href="#m6494c1700c" x="88.39375" y="145.8" style="stroke: #000000; stroke-width: 0.8"/>
      </g>
     </g>
     <g id="text_1">
      <!-- −4 -->
      <g transform="translate(81.022656 160.398438) scale(0.1 -0.1)">
       <defs>
        <path id="DejaVuSans-2212" d="M 678 2272 
L 4684 2272 
L 4684 1741 
L 678 1741 
L 678 2272 
z
" transform="scale(0.015625)"/>
        <path id="DejaVuSans-34" d="M 2419 4116 
L 825 1625 
L 2419 1625 
L 2419 4116 
z
M 2253 4666 
L 3047 4666 
L 3047 1625 
L 3713 1625 
L 3713 1100 
L 3047 1100 
L 3047 0 
L 2419 0 
L 2419 1100 
L 313 1100 
L 313 1709 
L 2253 4666 
z
" transform="scale(0.015625)"/>
       </defs>
       <use xlink:href="#DejaVuSans-2212"/>
       <use xlink:href="#DejaVuSans-34" x="83.789062"/>
      </g>
     </g>
    </g>
    <g id="xtick_2">
     <g id="line2d_2">
      <g>
       <use xlink:href="#m6494c1700c" x="149.425" y="145.8" style="stroke: #000000; stroke-width: 0.8"/>
      </g>
     </g>
     <g id="text_2">
      <!-- −2 -->
      <g transform="translate(142.053907 160.398438) scale(0.1 -0.1)">
       <defs>
        <path id="DejaVuSans-32" d="M 1228 531 
L 3431 531 
L 3431 0 
L 469 0 
L 469 531 
Q 828 903 1448 1529 
Q 2069 2156 2228 2338 
Q 2531 2678 2651 2914 
Q 2772 3150 2772 3378 
Q 2772 3750 2511 3984 
Q 2250 4219 1831 4219 
Q 1534 4219 1204 4116 
Q 875 4013 500 3803 
L 500 4441 
Q 881 4594 1212 4672 
Q 1544 4750 1819 4750 
Q 2544 4750 2975 4387 
Q 3406 4025 3406 3419 
Q 3406 3131 3298 2873 
Q 3191 2616 2906 2266 
Q 2828 2175 2409 1742 
Q 1991 1309 1228 531 
z
" transform="scale(0.015625)"/>
       </defs>
       <use xlink:href="#DejaVuSans-2212"/>
       <use xlink:href="#DejaVuSans-32" x="83.789062"/>
      </g>
     </g>
    </g>
    <g id="xtick_3">
     <g id="line2d_3">
      <g>
       <use xlink:href="#m6494c1700c" x="210.456251" y="145.8" style="stroke: #000000; stroke-width: 0.8"/>
      </g>
     </g>
     <g id="text_3">
      <!-- 0 -->
      <g transform="translate(207.275001 160.398438) scale(0.1 -0.1)">
       <defs>
        <path id="DejaVuSans-30" d="M 2034 4250 
Q 1547 4250 1301 3770 
Q 1056 3291 1056 2328 
Q 1056 1369 1301 889 
Q 1547 409 2034 409 
Q 2525 409 2770 889 
Q 3016 1369 3016 2328 
Q 3016 3291 2770 3770 
Q 2525 4250 2034 4250 
z
M 2034 4750 
Q 2819 4750 3233 4129 
Q 3647 3509 3647 2328 
Q 3647 1150 3233 529 
Q 2819 -91 2034 -91 
Q 1250 -91 836 529 
Q 422 1150 422 2328 
Q 422 3509 836 4129 
Q 1250 4750 2034 4750 
z
" transform="scale(0.015625)"/>
       </defs>
       <use xlink:href="#DejaVuSans-30"/>
      </g>
     </g>
    </g>
    <g id="text_4">
     <!-- x1 -->
     <g transform="translate(134.129687 174.076563) scale(0.1 -0.1)">
      <defs>
       <path id="DejaVuSans-78" d="M 3513 3500 
L 2247 1797 
L 3578 0 
L 2900 0 
L 1881 1375 
L 863 0 
L 184 0 
L 1544 1831 
L 300 3500 
L 978 3500 
L 1906 2253 
L 2834 3500 
L 3513 3500 
z
" transform="scale(0.015625)"/>
       <path id="DejaVuSans-31" d="M 794 531 
L 1825 531 
L 1825 4091 
L 703 3866 
L 703 4441 
L 1819 4666 
L 2450 4666 
L 2450 531 
L 3481 531 
L 3481 0 
L 794 0 
L 794 531 
z
" transform="scale(0.015625)"/>
      </defs>
      <use xlink:href="#DejaVuSans-78"/>
      <use xlink:href="#DejaVuSans-31" x="59.179688"/>
     </g>
    </g>
   </g>
   <g id="matplotlib.axis_2">
    <g id="ytick_1">
     <g id="line2d_4">
      <defs>
       <path id="m5d3f354f0d" d="M 0 0 
L -3.5 0 
" style="stroke: #000000; stroke-width: 0.8"/>
      </defs>
      <g>
       <use xlink:href="#m5d3f354f0d" x="42.620312" y="133.723667" style="stroke: #000000; stroke-width: 0.8"/>
      </g>
     </g>
     <g id="text_5">
      <!-- −3 -->
      <g transform="translate(20.878125 137.522886) scale(0.1 -0.1)">
       <defs>
        <path id="DejaVuSans-33" d="M 2597 2516 
Q 3050 2419 3304 2112 
Q 3559 1806 3559 1356 
Q 3559 666 3084 287 
Q 2609 -91 1734 -91 
Q 1441 -91 1130 -33 
Q 819 25 488 141 
L 488 750 
Q 750 597 1062 519 
Q 1375 441 1716 441 
Q 2309 441 2620 675 
Q 2931 909 2931 1356 
Q 2931 1769 2642 2001 
Q 2353 2234 1838 2234 
L 1294 2234 
L 1294 2753 
L 1863 2753 
Q 2328 2753 2575 2939 
Q 2822 3125 2822 3475 
Q 2822 3834 2567 4026 
Q 2313 4219 1838 4219 
Q 1578 4219 1281 4162 
Q 984 4106 628 3988 
L 628 4550 
Q 988 4650 1302 4700 
Q 1616 4750 1894 4750 
Q 2613 4750 3031 4423 
Q 3450 4097 3450 3541 
Q 3450 3153 3228 2886 
Q 3006 2619 2597 2516 
z
" transform="scale(0.015625)"/>
       </defs>
       <use xlink:href="#DejaVuSans-2212"/>
       <use xlink:href="#DejaVuSans-33" x="83.789062"/>
      </g>
     </g>
    </g>
    <g id="ytick_2">
     <g id="line2d_5">
      <g>
       <use xlink:href="#m5d3f354f0d" x="42.620312" y="101.281701" style="stroke: #000000; stroke-width: 0.8"/>
      </g>
     </g>
     <g id="text_6">
      <!-- −2 -->
      <g transform="translate(20.878125 105.08092) scale(0.1 -0.1)">
       <use xlink:href="#DejaVuSans-2212"/>
       <use xlink:href="#DejaVuSans-32" x="83.789062"/>
      </g>
     </g>
    </g>
    <g id="ytick_3">
     <g id="line2d_6">
      <g>
       <use xlink:href="#m5d3f354f0d" x="42.620312" y="68.839735" style="stroke: #000000; stroke-width: 0.8"/>
      </g>
     </g>
     <g id="text_7">
      <!-- −1 -->
      <g transform="translate(20.878125 72.638954) scale(0.1 -0.1)">
       <use xlink:href="#DejaVuSans-2212"/>
       <use xlink:href="#DejaVuSans-31" x="83.789062"/>
      </g>
     </g>
    </g>
    <g id="ytick_4">
     <g id="line2d_7">
      <g>
       <use xlink:href="#m5d3f354f0d" x="42.620312" y="36.397769" style="stroke: #000000; stroke-width: 0.8"/>
      </g>
     </g>
     <g id="text_8">
      <!-- 0 -->
      <g transform="translate(29.257812 40.196987) scale(0.1 -0.1)">
       <use xlink:href="#DejaVuSans-30"/>
      </g>
     </g>
    </g>
    <g id="text_9">
     <!-- x2 -->
     <g transform="translate(14.798437 82.640625) rotate(-90) scale(0.1 -0.1)">
      <use xlink:href="#DejaVuSans-78"/>
      <use xlink:href="#DejaVuSans-32" x="59.179688"/>
     </g>
    </g>
   </g>
   <g id="line2d_8">
    <path d="M 57.878125 101.281701 
L 70.084375 114.258487 
L 77.477522 121.686706 
L 82.880173 126.780828 
L 87.128399 130.484252 
L 90.60572 133.231621 
L 93.528018 135.271267 
L 96.032318 136.764627 
L 98.212592 137.825843 
L 100.136751 138.540251 
L 101.855667 138.974049 
L 103.408428 139.179827 
L 104.825601 139.2 
L 106.131403 139.069092 
L 107.345189 138.815352 
L 108.482541 138.461965 
L 109.556059 138.02798 
L 110.575978 137.52906 
L 111.550637 136.97808 
L 112.486844 136.385621 
L 113.390177 135.760373 
" clip-path="url(#pa5e2135fdc)" style="fill: none; stroke: #ff7f0e; stroke-width: 1.5; stroke-linecap: square"/>
    <defs>
     <path id="mb13483abc4" d="M 0 3 
C 0.795609 3 1.55874 2.683901 2.12132 2.12132 
C 2.683901 1.55874 3 0.795609 3 0 
C 3 -0.795609 2.683901 -1.55874 2.12132 -2.12132 
C 1.55874 -2.683901 0.795609 -3 0 -3 
C -0.795609 -3 -1.55874 -2.683901 -2.12132 -2.12132 
C -2.683901 -1.55874 -3 -0.795609 -3 0 
C -3 0.795609 -2.683901 1.55874 -2.12132 2.12132 
C -1.55874 2.683901 -0.795609 3 0 3 
z
" style="stroke: #ff7f0e"/>
    </defs>
    <g clip-path="url(#pa5e2135fdc)">
     <use xlink:href="#mb13483abc4" x="57.878125" y="101.281701" style="fill: #ff7f0e; stroke: #ff7f0e"/>
     <use xlink:href="#mb13483abc4" x="70.084375" y="114.258487" style="fill: #ff7f0e; stroke: #ff7f0e"/>
     <use xlink:href="#mb13483abc4" x="77.477522" y="121.686706" style="fill: #ff7f0e; stroke: #ff7f0e"/>
     <use xlink:href="#mb13483abc4" x="82.880173" y="126.780828" style="fill: #ff7f0e; stroke: #ff7f0e"/>
     <use xlink:href="#mb13483abc4" x="87.128399" y="130.484252" style="fill: #ff7f0e; stroke: #ff7f0e"/>
     <use xlink:href="#mb13483abc4" x="90.60572" y="133.231621" style="fill: #ff7f0e; stroke: #ff7f0e"/>
     <use xlink:href="#mb13483abc4" x="93.528018" y="135.271267" style="fill: #ff7f0e; stroke: #ff7f0e"/>
     <use xlink:href="#mb13483abc4" x="96.032318" y="136.764627" style="fill: #ff7f0e; stroke: #ff7f0e"/>
     <use xlink:href="#mb13483abc4" x="98.212592" y="137.825843" style="fill: #ff7f0e; stroke: #ff7f0e"/>
     <use xlink:href="#mb13483abc4" x="100.136751" y="138.540251" style="fill: #ff7f0e; stroke: #ff7f0e"/>
     <use xlink:href="#mb13483abc4" x="101.855667" y="138.974049" style="fill: #ff7f0e; stroke: #ff7f0e"/>
     <use xlink:href="#mb13483abc4" x="103.408428" y="139.179827" style="fill: #ff7f0e; stroke: #ff7f0e"/>
     <use xlink:href="#mb13483abc4" x="104.825601" y="139.2" style="fill: #ff7f0e; stroke: #ff7f0e"/>
     <use xlink:href="#mb13483abc4" x="106.131403" y="139.069092" style="fill: #ff7f0e; stroke: #ff7f0e"/>
     <use xlink:href="#mb13483abc4" x="107.345189" y="138.815352" style="fill: #ff7f0e; stroke: #ff7f0e"/>
     <use xlink:href="#mb13483abc4" x="108.482541" y="138.461965" style="fill: #ff7f0e; stroke: #ff7f0e"/>
     <use xlink:href="#mb13483abc4" x="109.556059" y="138.02798" style="fill: #ff7f0e; stroke: #ff7f0e"/>
     <use xlink:href="#mb13483abc4" x="110.575978" y="137.52906" style="fill: #ff7f0e; stroke: #ff7f0e"/>
     <use xlink:href="#mb13483abc4" x="111.550637" y="136.97808" style="fill: #ff7f0e; stroke: #ff7f0e"/>
     <use xlink:href="#mb13483abc4" x="112.486844" y="136.385621" style="fill: #ff7f0e; stroke: #ff7f0e"/>
     <use xlink:href="#mb13483abc4" x="113.390177" y="135.760373" style="fill: #ff7f0e; stroke: #ff7f0e"/>
    </g>
   </g>
   <g id="PathCollection_1"/>
   <g id="PathCollection_2">
    <path d="M 97.100868 7.2 
L 94.496869 7.810673 
L 91.44531 8.545388 
L 88.393757 9.299184 
L 85.342191 10.072067 
L 83.908323 10.444195 
L 82.290631 10.92001 
L 79.239071 11.839199 
L 76.187512 12.780014 
L 73.307377 13.688393 
L 73.135938 13.750783 
L 70.084378 14.886249 
L 67.032818 16.046672 
L 64.752171 16.932588 
L 63.981244 17.286503 
L 60.929685 18.716897 
L 57.878125 20.176786 
L 57.878125 20.176786 
L 54.826565 21.997137 
L 52.48604 23.420982 
L 51.775006 23.977123 
L 48.723432 26.410285 
L 48.409729 26.665178 
L 45.671872 29.779609 
L 45.55989 29.909375 
L 43.880133 33.153573 
L 43.320214 36.397769 
L 43.880133 39.641966 
L 45.55989 42.886163 
L 45.671872 43.015929 
L 48.409729 46.130359 
L 48.723432 46.385253 
L 51.775006 48.818415 
L 52.486042 49.374556 
L 54.826565 50.798399 
L 57.878125 52.618752 
L 57.878125 52.618752 
L 60.929685 54.07864 
L 63.981244 55.509034 
L 64.752171 55.862949 
L 67.032818 56.748865 
L 70.084378 57.909288 
L 73.135938 59.044755 
L 73.307377 59.107145 
L 76.187512 60.015523 
L 79.239071 60.956339 
L 82.290631 61.875528 
L 83.908319 62.35134 
L 85.342191 62.723469 
L 88.393757 63.496354 
L 91.44531 64.250149 
L 94.496869 64.984864 
L 97.100868 65.595537 
L 97.548436 65.68945 
L 100.599996 66.312677 
L 103.651563 66.91883 
L 106.703122 67.507906 
L 109.754682 68.079908 
L 112.806249 68.634837 
L 113.968755 68.839735 
L 115.857816 69.140982 
L 118.909375 69.612162 
L 121.960942 70.067896 
L 125.012502 70.508179 
L 128.064069 70.933015 
L 131.115628 71.342402 
L 134.167188 71.736339 
L 136.969651 72.083932 
L 137.218755 72.112142 
L 140.270314 72.443614 
L 143.321874 72.760982 
L 146.373441 73.064243 
L 149.425 73.353399 
L 152.476564 73.628451 
L 155.528127 73.889398 
L 158.57969 74.136238 
L 161.631253 74.368974 
L 164.682813 74.587606 
L 167.734376 74.79213 
L 170.785939 74.982551 
L 173.837499 75.158865 
L 176.889062 75.321075 
L 177.034329 75.328126 
L 179.940626 75.457897 
L 182.992189 75.581175 
L 186.04375 75.691479 
L 189.095313 75.788804 
L 192.146877 75.873153 
L 195.198438 75.944525 
L 198.250001 76.002921 
L 201.301564 76.048339 
L 204.353126 76.080782 
L 207.404689 76.100247 
L 210.456251 76.106735 
L 213.507813 76.100247 
L 216.559376 76.080782 
L 219.610939 76.048339 
L 222.662501 76.002921 
L 225.714063 75.944525 
L 228.765626 75.873153 
L 231.817188 75.788804 
L 234.868751 75.691479 
L 237.920313 75.581175 
" clip-path="url(#pa5e2135fdc)" style="fill: none; stroke: #1f77b4; stroke-width: 1.5"/>
   </g>
   <g id="PathCollection_3">
    <path d="M 42.620312 75.944525 
L 45.671872 76.651761 
L 48.723432 77.346016 
L 51.775006 78.0273 
L 54.263642 78.572323 
L 54.826565 78.686474 
L 57.878125 79.293257 
L 60.929685 79.888026 
L 63.981244 80.470779 
L 67.032818 81.041519 
L 70.084378 81.600242 
L 71.29158 81.81652 
L 73.135938 82.124161 
L 76.187512 82.621979 
L 79.239071 83.108607 
L 82.290631 83.58405 
L 85.342191 84.048306 
L 88.393757 84.501374 
L 91.44531 84.943256 
L 92.277553 85.060718 
L 94.496869 85.353741 
L 97.548436 85.746185 
L 100.599996 86.128163 
L 103.651563 86.499676 
L 106.703122 86.860722 
L 109.754682 87.211304 
L 112.806249 87.551422 
L 115.857816 87.881075 
L 118.909375 88.200261 
L 119.943828 88.304915 
L 121.960942 88.496616 
L 125.012502 88.776797 
L 128.064069 89.047146 
L 131.115628 89.307665 
L 134.167188 89.558354 
L 137.218755 89.799212 
L 140.270314 90.030238 
L 143.321874 90.251431 
L 146.373441 90.462797 
L 149.425 90.66433 
L 152.476564 90.856033 
L 155.528127 91.037905 
L 158.57969 91.209945 
L 161.631253 91.372155 
L 164.682813 91.524535 
L 165.20896 91.549113 
L 167.734376 91.660341 
L 170.785939 91.785474 
L 173.837499 91.901338 
L 176.889062 92.007935 
L 179.940626 92.10526 
L 182.992189 92.193317 
L 186.04375 92.272103 
L 189.095313 92.341623 
L 192.146877 92.401873 
L 195.198438 92.452852 
L 198.250001 92.494564 
L 201.301564 92.527006 
L 204.353126 92.550177 
L 207.404689 92.564082 
L 210.456251 92.568716 
L 213.507813 92.564082 
L 216.559376 92.550177 
L 219.610939 92.527006 
L 222.662501 92.494564 
L 225.714063 92.452852 
L 228.765626 92.401873 
L 231.817188 92.341623 
L 234.868751 92.272103 
L 237.920313 92.193317 
" clip-path="url(#pa5e2135fdc)" style="fill: none; stroke: #1f77b4; stroke-width: 1.5"/>
   </g>
   <g id="PathCollection_4">
    <path d="M 42.620312 92.452851 
L 45.671872 92.958019 
L 48.723432 93.453917 
L 51.775006 93.940549 
L 54.826565 94.417908 
L 57.27387 94.79331 
L 57.878125 94.880989 
L 60.929685 95.31501 
L 63.981244 95.740262 
L 67.032818 96.156748 
L 70.084378 96.564464 
L 73.135938 96.963411 
L 76.187512 97.353595 
L 79.239071 97.735007 
L 81.716227 98.037507 
L 82.290631 98.104054 
L 85.342191 98.449267 
L 88.393757 98.786166 
L 91.44531 99.114743 
L 94.496869 99.435004 
L 97.548436 99.746945 
L 100.599996 100.050569 
L 103.651563 100.345874 
L 106.703122 100.632861 
L 109.754682 100.911531 
L 112.806249 101.181879 
L 113.968764 101.281701 
L 115.857816 101.435996 
L 118.909375 101.677336 
L 121.960942 101.91076 
L 125.012502 102.136268 
L 128.064069 102.353867 
L 131.115628 102.563555 
L 134.167188 102.765327 
L 137.218755 102.959186 
L 140.270314 103.145134 
L 143.321874 103.323169 
L 146.373441 103.493292 
L 149.425 103.655504 
L 152.476564 103.809799 
L 155.528127 103.956182 
L 158.57969 104.094657 
L 161.631253 104.225216 
L 164.682813 104.347859 
L 167.734376 104.462594 
L 169.542874 104.525902 
L 170.785939 104.567393 
L 173.837499 104.6617 
L 176.889062 104.748462 
L 179.940626 104.827681 
L 182.992189 104.899355 
L 186.04375 104.963485 
L 189.095313 105.020071 
L 192.146877 105.06911 
L 195.198438 105.110608 
L 198.250001 105.144558 
L 201.301564 105.170964 
L 204.353126 105.189826 
L 207.404689 105.201141 
L 210.456251 105.204914 
L 213.507813 105.201141 
L 216.559376 105.189826 
L 219.610939 105.170964 
L 222.662501 105.144558 
L 225.714063 105.110608 
L 228.765626 105.06911 
L 231.817188 105.020071 
L 234.868751 104.963485 
L 237.920313 104.899355 
" clip-path="url(#pa5e2135fdc)" style="fill: none; stroke: #1f77b4; stroke-width: 1.5"/>
   </g>
   <g id="PathCollection_5">
    <path d="M 42.620312 105.110608 
L 45.671872 105.521788 
L 48.723432 105.925428 
L 51.775006 106.321524 
L 54.826565 106.710072 
L 57.878125 107.091076 
L 60.929685 107.464536 
L 63.477901 107.770096 
L 63.981244 107.827769 
L 67.032818 108.170213 
L 70.084378 108.505445 
L 73.135938 108.833471 
L 76.187512 109.154285 
L 79.239071 109.46789 
L 82.290631 109.774286 
L 85.342191 110.073474 
L 88.393757 110.365453 
L 91.44531 110.650219 
L 94.496869 110.927777 
L 95.47338 111.014289 
L 97.548436 111.190303 
L 100.599996 111.442246 
L 103.651563 111.687287 
L 106.703122 111.925426 
L 109.754682 112.156663 
L 112.806249 112.380994 
L 115.857816 112.598424 
L 118.909375 112.808954 
L 121.960942 113.01258 
L 125.012502 113.2093 
L 128.064069 113.399121 
L 131.115628 113.58204 
L 134.167188 113.758054 
L 137.218755 113.927166 
L 140.270314 114.089375 
L 143.321874 114.244683 
L 143.605786 114.25849 
L 146.373441 114.387595 
L 149.425 114.523322 
L 152.476564 114.652427 
L 155.528127 114.774911 
L 158.57969 114.890777 
L 161.631253 115.000021 
L 164.682813 115.10264 
L 167.734376 115.198643 
L 170.785939 115.288025 
L 173.837499 115.370784 
L 176.889062 115.446923 
L 179.940626 115.516441 
L 182.992189 115.579339 
L 186.04375 115.635616 
L 189.095313 115.685273 
L 192.146877 115.728307 
L 195.198438 115.764724 
L 198.250001 115.794517 
L 201.301564 115.817689 
L 204.353126 115.834242 
L 207.404689 115.844171 
L 210.456251 115.847482 
L 213.507813 115.844171 
L 216.559376 115.834242 
L 219.610939 115.817689 
L 222.662501 115.794517 
L 225.714063 115.764724 
L 228.765626 115.728307 
L 231.817188 115.685273 
L 234.868751 115.635616 
L 237.920313 115.579339 
" clip-path="url(#pa5e2135fdc)" style="fill: none; stroke: #1f77b4; stroke-width: 1.5"/>
   </g>
   <g id="PathCollection_6">
    <path d="M 42.620312 115.764724 
L 45.671872 116.125555 
L 48.723432 116.479769 
L 51.775006 116.827363 
L 54.826565 117.168334 
L 57.878125 117.502684 
L 57.878125 117.502684 
L 60.929685 117.817562 
L 63.981244 118.126079 
L 67.032818 118.428236 
L 70.084378 118.724029 
L 73.135938 119.013464 
L 76.187512 119.296535 
L 79.239071 119.573246 
L 82.290631 119.843596 
L 85.342191 120.107585 
L 88.393757 120.365213 
L 91.44531 120.616478 
L 93.070112 120.746877 
L 94.496869 120.857061 
L 97.548436 121.086603 
L 100.599996 121.310024 
L 103.651563 121.527324 
L 106.703122 121.738503 
L 109.754682 121.943562 
L 112.806249 122.142497 
L 115.857816 122.335313 
L 118.909375 122.522008 
L 121.960942 122.702581 
L 125.012502 122.877031 
L 128.064069 123.045363 
L 131.115628 123.207574 
L 134.167188 123.363661 
L 137.218755 123.513628 
L 140.270314 123.657474 
L 143.321874 123.795199 
L 146.373441 123.926804 
L 147.936485 123.991079 
L 149.425 124.050063 
L 152.476564 124.165083 
L 155.528127 124.274205 
L 158.57969 124.377432 
L 161.631253 124.474758 
L 164.682813 124.566183 
L 167.734376 124.651712 
L 170.785939 124.731344 
L 173.837499 124.805075 
L 176.889062 124.872907 
L 179.940626 124.934842 
L 182.992189 124.990878 
L 186.04375 125.041016 
L 189.095313 125.085256 
L 192.146877 125.123595 
L 195.198438 125.156039 
L 198.250001 125.182582 
L 201.301564 125.203227 
L 204.353126 125.217974 
L 207.404689 125.226819 
L 210.456251 125.22977 
L 213.507813 125.226819 
L 216.559376 125.217974 
L 219.610939 125.203227 
L 222.662501 125.182582 
L 225.714063 125.156039 
L 228.765626 125.123595 
L 231.817188 125.085256 
L 234.868751 125.041016 
L 237.920313 124.990878 
" clip-path="url(#pa5e2135fdc)" style="fill: none; stroke: #1f77b4; stroke-width: 1.5"/>
   </g>
   <g id="PathCollection_7">
    <path d="M 42.620312 125.156036 
L 45.671872 125.47751 
L 48.723432 125.793078 
L 51.775006 126.102755 
L 54.826565 126.406532 
L 57.878125 126.704403 
L 60.929685 126.996383 
L 63.477871 127.235272 
L 63.981244 127.280807 
L 67.032818 127.551155 
L 70.084378 127.815814 
L 73.135938 128.07478 
L 76.187512 128.328057 
L 79.239071 128.57564 
L 82.290631 128.817532 
L 85.342191 129.05373 
L 88.393757 129.284239 
L 91.44531 129.509056 
L 94.496869 129.728182 
L 97.548436 129.941617 
L 100.599996 130.149359 
L 103.651563 130.351408 
L 105.641791 130.479473 
L 106.703122 130.545452 
L 109.754682 130.729655 
L 112.806249 130.908363 
L 115.857816 131.081569 
L 118.909375 131.24928 
L 121.960942 131.41149 
L 125.012502 131.568199 
L 128.064069 131.719412 
L 131.115628 131.865125 
L 134.167188 132.005342 
L 137.218755 132.140058 
L 140.270314 132.269278 
L 143.321874 132.392998 
L 146.373441 132.511217 
L 149.425 132.62394 
L 152.476564 132.731162 
L 155.528127 132.832889 
L 158.57969 132.929115 
L 161.631253 133.01984 
L 164.682813 133.105069 
L 167.734376 133.184803 
L 170.785939 133.25903 
L 173.837499 133.327767 
L 176.889062 133.390998 
L 179.940626 133.448734 
L 182.992189 133.500974 
L 186.04375 133.547713 
L 189.095313 133.588951 
L 192.146877 133.624693 
L 195.198438 133.654935 
L 198.250001 133.679676 
L 201.301564 133.698921 
L 204.353126 133.71267 
L 207.404689 133.720919 
L 210.456251 133.723667 
" clip-path="url(#pa5e2135fdc)" style="fill: none; stroke: #1f77b4; stroke-width: 1.5"/>
    <path d="M 210.456251 133.723667 
L 213.507813 133.720919 
L 216.559376 133.71267 
L 219.610939 133.698921 
L 222.662501 133.679676 
L 225.714063 133.654935 
L 228.765626 133.624693 
L 231.817188 133.588951 
L 234.868751 133.547713 
L 237.920313 133.500974 
" clip-path="url(#pa5e2135fdc)" style="fill: none; stroke: #1f77b4; stroke-width: 1.5"/>
   </g>
   <g id="PathCollection_8">
    <path d="M 42.620312 133.654935 
L 43.320206 133.723667 
" clip-path="url(#pa5e2135fdc)" style="fill: none; stroke: #1f77b4; stroke-width: 1.5"/>
   </g>
   <g id="PathCollection_9"/>
   <g id="patch_3">
    <path d="M 42.620312 145.8 
L 42.620312 7.2 
" style="fill: none; stroke: #000000; stroke-width: 0.8; stroke-linejoin: miter; stroke-linecap: square"/>
   </g>
   <g id="patch_4">
    <path d="M 237.920313 145.8 
L 237.920313 7.2 
" style="fill: none; stroke: #000000; stroke-width: 0.8; stroke-linejoin: miter; stroke-linecap: square"/>
   </g>
   <g id="patch_5">
    <path d="M 42.620312 145.8 
L 237.920313 145.8 
" style="fill: none; stroke: #000000; stroke-width: 0.8; stroke-linejoin: miter; stroke-linecap: square"/>
   </g>
   <g id="patch_6">
    <path d="M 42.620312 7.2 
L 237.920313 7.2 
" style="fill: none; stroke: #000000; stroke-width: 0.8; stroke-linejoin: miter; stroke-linecap: square"/>
   </g>
  </g>
 </g>
 <defs>
  <clipPath id="pa5e2135fdc">
   <rect x="42.620312" y="7.2" width="195.3" height="138.6"/>
  </clipPath>
 </defs>
</svg>
