<?xml version="1.0" encoding="utf-8" standalone="no"?>
<!DOCTYPE svg PUBLIC "-//W3C//DTD SVG 1.1//EN"
  "http://www.w3.org/Graphics/SVG/1.1/DTD/svg11.dtd">
<svg xmlns:xlink="http://www.w3.org/1999/xlink" width="245.120313pt" height="183.35625pt" viewBox="0 0 245.120313 183.35625" xmlns="http://www.w3.org/2000/svg" version="1.1">
 <metadata>
  <rdf:RDF xmlns:dc="http://purl.org/dc/elements/1.1/" xmlns:cc="http://creativecommons.org/ns#" xmlns:rdf="http://www.w3.org/1999/02/22-rdf-syntax-ns#">
   <cc:Work>
    <dc:type rdf:resource="http://purl.org/dc/dcmitype/StillImage"/>
    <dc:date>2023-09-28T13:57:06.102531</dc:date>
    <dc:format>image/svg+xml</dc:format>
    <dc:creator>
     <cc:Agent>
      <dc:title>Matplotlib v3.7.1, https://matplotlib.org/</dc:title>
     </cc:Agent>
    </dc:creator>
   </cc:Work>
  </rdf:RDF>
 </metadata>
 <defs>
  <style type="text/css">*{stroke-linejoin: round; stroke-linecap: butt}</style>
 </defs>
 <g id="figure_1">
  <g id="patch_1">
   <path d="M 0 183.35625 
L 245.120313 183.35625 
L 245.120313 0 
L 0 0 
z
" style="fill: #ffffff"/>
  </g>
  <g id="axes_1">
   <g id="patch_2">
    <path d="M 42.620312 145.8 
L 237.920313 145.8 
L 237.920313 7.2 
L 42.620312 7.2 
z
" style="fill: #ffffff"/>
   </g>
   <g id="matplotlib.axis_1">
    <g id="xtick_1">
     <g id="line2d_1">
      <defs>
       <path id="m312247aa4c" d="M 0 0 
L 0 3.5 
" style="stroke: #000000; stroke-width: 0.8"/>
      </defs>
      <g>
       <use xlink:href="#m312247aa4c" x="88.39375" y="145.8" style="stroke: #000000; stroke-width: 0.8"/>
      </g>
     </g>
     <g id="text_1">
      <!-- −4 -->
      <g transform="translate(81.022656 160.398438) scale(0.1 -0.1)">
       <defs>
        <path id="DejaVuSans-2212" d="M 678 2272 
L 4684 2272 
L 4684 1741 
L 678 1741 
L 678 2272 
z
" transform="scale(0.015625)"/>
        <path id="DejaVuSans-34" d="M 2419 4116 
L 825 1625 
L 2419 1625 
L 2419 4116 
z
M 2253 4666 
L 3047 4666 
L 3047 1625 
L 3713 1625 
L 3713 1100 
L 3047 1100 
L 3047 0 
L 2419 0 
L 2419 1100 
L 313 1100 
L 313 1709 
L 2253 4666 
z
" transform="scale(0.015625)"/>
       </defs>
       <use xlink:href="#DejaVuSans-2212"/>
       <use xlink:href="#DejaVuSans-34" x="83.789062"/>
      </g>
     </g>
    </g>
    <g id="xtick_2">
     <g id="line2d_2">
      <g>
       <use xlink:href="#m312247aa4c" x="149.425" y="145.8" style="stroke: #000000; stroke-width: 0.8"/>
      </g>
     </g>
     <g id="text_2">
      <!-- −2 -->
      <g transform="translate(142.053907 160.398438) scale(0.1 -0.1)">
       <defs>
        <path id="DejaVuSans-32" d="M 1228 531 
L 3431 531 
L 3431 0 
L 469 0 
L 469 531 
Q 828 903 1448 1529 
Q 2069 2156 2228 2338 
Q 2531 2678 2651 2914 
Q 2772 3150 2772 3378 
Q 2772 3750 2511 3984 
Q 2250 4219 1831 4219 
Q 1534 4219 1204 4116 
Q 875 4013 500 3803 
L 500 4441 
Q 881 4594 1212 4672 
Q 1544 4750 1819 4750 
Q 2544 4750 2975 4387 
Q 3406 4025 3406 3419 
Q 3406 3131 3298 2873 
Q 3191 2616 2906 2266 
Q 2828 2175 2409 1742 
Q 1991 1309 1228 531 
z
" transform="scale(0.015625)"/>
       </defs>
       <use xlink:href="#DejaVuSans-2212"/>
       <use xlink:href="#DejaVuSans-32" x="83.789062"/>
      </g>
     </g>
    </g>
    <g id="xtick_3">
     <g id="line2d_3">
      <g>
       <use xlink:href="#m312247aa4c" x="210.456251" y="145.8" style="stroke: #000000; stroke-width: 0.8"/>
      </g>
     </g>
     <g id="text_3">
      <!-- 0 -->
      <g transform="translate(207.275001 160.398438) scale(0.1 -0.1)">
       <defs>
        <path id="DejaVuSans-30" d="M 2034 4250 
Q 1547 4250 1301 3770 
Q 1056 3291 1056 2328 
Q 1056 1369 1301 889 
Q 1547 409 2034 409 
Q 2525 409 2770 889 
Q 3016 1369 3016 2328 
Q 3016 3291 2770 3770 
Q 2525 4250 2034 4250 
z
M 2034 4750 
Q 2819 4750 3233 4129 
Q 3647 3509 3647 2328 
Q 3647 1150 3233 529 
Q 2819 -91 2034 -91 
Q 1250 -91 836 529 
Q 422 1150 422 2328 
Q 422 3509 836 4129 
Q 1250 4750 2034 4750 
z
" transform="scale(0.015625)"/>
       </defs>
       <use xlink:href="#DejaVuSans-30"/>
      </g>
     </g>
    </g>
    <g id="text_4">
     <!-- x1 -->
     <g transform="translate(134.129687 174.076563) scale(0.1 -0.1)">
      <defs>
       <path id="DejaVuSans-78" d="M 3513 3500 
L 2247 1797 
L 3578 0 
L 2900 0 
L 1881 1375 
L 863 0 
L 184 0 
L 1544 1831 
L 300 3500 
L 978 3500 
L 1906 2253 
L 2834 3500 
L 3513 3500 
z
" transform="scale(0.015625)"/>
       <path id="DejaVuSans-31" d="M 794 531 
L 1825 531 
L 1825 4091 
L 703 3866 
L 703 4441 
L 1819 4666 
L 2450 4666 
L 2450 531 
L 3481 531 
L 3481 0 
L 794 0 
L 794 531 
z
" transform="scale(0.015625)"/>
      </defs>
      <use xlink:href="#DejaVuSans-78"/>
      <use xlink:href="#DejaVuSans-31" x="59.179688"/>
     </g>
    </g>
   </g>
   <g id="matplotlib.axis_2">
    <g id="ytick_1">
     <g id="line2d_4">
      <defs>
       <path id="m0cceff6ba2" d="M 0 0 
L -3.5 0 
" style="stroke: #000000; stroke-width: 0.8"/>
      </defs>
      <g>
       <use xlink:href="#m0cceff6ba2" x="42.620312" y="129.037245" style="stroke: #000000; stroke-width: 0.8"/>
      </g>
     </g>
     <g id="text_5">
      <!-- −3 -->
      <g transform="translate(20.878125 132.836464) scale(0.1 -0.1)">
       <defs>
        <path id="DejaVuSans-33" d="M 2597 2516 
Q 3050 2419 3304 2112 
Q 3559 1806 3559 1356 
Q 3559 666 3084 287 
Q 2609 -91 1734 -91 
Q 1441 -91 1130 -33 
Q 819 25 488 141 
L 488 750 
Q 750 597 1062 519 
Q 1375 441 1716 441 
Q 2309 441 2620 675 
Q 2931 909 2931 1356 
Q 2931 1769 2642 2001 
Q 2353 2234 1838 2234 
L 1294 2234 
L 1294 2753 
L 1863 2753 
Q 2328 2753 2575 2939 
Q 2822 3125 2822 3475 
Q 2822 3834 2567 4026 
Q 2313 4219 1838 4219 
Q 1578 4219 1281 4162 
Q 984 4106 628 3988 
L 628 4550 
Q 988 4650 1302 4700 
Q 1616 4750 1894 4750 
Q 2613 4750 3031 4423 
Q 3450 4097 3450 3541 
Q 3450 3153 3228 2886 
Q 3006 2619 2597 2516 
z
" transform="scale(0.015625)"/>
       </defs>
       <use xlink:href="#DejaVuSans-2212"/>
       <use xlink:href="#DejaVuSans-33" x="83.789062"/>
      </g>
     </g>
    </g>
    <g id="ytick_2">
     <g id="line2d_5">
      <g>
       <use xlink:href="#m0cceff6ba2" x="42.620312" y="97.796926" style="stroke: #000000; stroke-width: 0.8"/>
      </g>
     </g>
     <g id="text_6">
      <!-- −2 -->
      <g transform="translate(20.878125 101.596144) scale(0.1 -0.1)">
       <use xlink:href="#DejaVuSans-2212"/>
       <use xlink:href="#DejaVuSans-32" x="83.789062"/>
      </g>
     </g>
    </g>
    <g id="ytick_3">
     <g id="line2d_6">
      <g>
       <use xlink:href="#m0cceff6ba2" x="42.620312" y="66.556606" style="stroke: #000000; stroke-width: 0.8"/>
      </g>
     </g>
     <g id="text_7">
      <!-- −1 -->
      <g transform="translate(20.878125 70.355825) scale(0.1 -0.1)">
       <use xlink:href="#DejaVuSans-2212"/>
       <use xlink:href="#DejaVuSans-31" x="83.789062"/>
      </g>
     </g>
    </g>
    <g id="ytick_4">
     <g id="line2d_7">
      <g>
       <use xlink:href="#m0cceff6ba2" x="42.620312" y="35.316287" style="stroke: #000000; stroke-width: 0.8"/>
      </g>
     </g>
     <g id="text_8">
      <!-- 0 -->
      <g transform="translate(29.257812 39.115505) scale(0.1 -0.1)">
       <use xlink:href="#DejaVuSans-30"/>
      </g>
     </g>
    </g>
    <g id="text_9">
     <!-- x2 -->
     <g transform="translate(14.798437 82.640625) rotate(-90) scale(0.1 -0.1)">
      <use xlink:href="#DejaVuSans-78"/>
      <use xlink:href="#DejaVuSans-32" x="59.179688"/>
     </g>
    </g>
   </g>
   <g id="line2d_8">
    <path d="M 57.878125 97.796926 
L 96.477676 137.313149 
L 106.123141 139.2 
L 111.414461 135.190627 
L 116.176856 130.478112 
L 120.88308 125.729319 
L 125.560873 121.00667 
L 130.200756 116.322461 
L 134.791904 111.687558 
L 139.323395 107.112989 
L 143.784229 102.609854 
L 148.16339 98.189266 
L 152.449902 93.8623 
L 156.632899 89.639916 
L 160.701699 85.532888 
L 164.645883 81.551724 
L 168.455389 77.70657 
L 172.120613 74.007112 
L 175.632511 70.462467 
L 178.982725 67.081063 
L 182.163704 63.870513 
" clip-path="url(#p608c7495d3)" style="fill: none; stroke: #ff7f0e; stroke-width: 1.5; stroke-linecap: square"/>
    <defs>
     <path id="m352cb48ce1" d="M 0 3 
C 0.795609 3 1.55874 2.683901 2.12132 2.12132 
C 2.683901 1.55874 3 0.795609 3 0 
C 3 -0.795609 2.683901 -1.55874 2.12132 -2.12132 
C 1.55874 -2.683901 0.795609 -3 0 -3 
C -0.795609 -3 -1.55874 -2.683901 -2.12132 -2.12132 
C -2.683901 -1.55874 -3 -0.795609 -3 0 
C -3 0.795609 -2.683901 1.55874 -2.12132 2.12132 
C -1.55874 2.683901 -0.795609 3 0 3 
z
" style="stroke: #ff7f0e"/>
    </defs>
    <g clip-path="url(#p608c7495d3)">
     <use xlink:href="#m352cb48ce1" x="57.878125" y="97.796926" style="fill: #ff7f0e; stroke: #ff7f0e"/>
     <use xlink:href="#m352cb48ce1" x="96.477676" y="137.313149" style="fill: #ff7f0e; stroke: #ff7f0e"/>
     <use xlink:href="#m352cb48ce1" x="106.123141" y="139.2" style="fill: #ff7f0e; stroke: #ff7f0e"/>
     <use xlink:href="#m352cb48ce1" x="111.414461" y="135.190627" style="fill: #ff7f0e; stroke: #ff7f0e"/>
     <use xlink:href="#m352cb48ce1" x="116.176856" y="130.478112" style="fill: #ff7f0e; stroke: #ff7f0e"/>
     <use xlink:href="#m352cb48ce1" x="120.88308" y="125.729319" style="fill: #ff7f0e; stroke: #ff7f0e"/>
     <use xlink:href="#m352cb48ce1" x="125.560873" y="121.00667" style="fill: #ff7f0e; stroke: #ff7f0e"/>
     <use xlink:href="#m352cb48ce1" x="130.200756" y="116.322461" style="fill: #ff7f0e; stroke: #ff7f0e"/>
     <use xlink:href="#m352cb48ce1" x="134.791904" y="111.687558" style="fill: #ff7f0e; stroke: #ff7f0e"/>
     <use xlink:href="#m352cb48ce1" x="139.323395" y="107.112989" style="fill: #ff7f0e; stroke: #ff7f0e"/>
     <use xlink:href="#m352cb48ce1" x="143.784229" y="102.609854" style="fill: #ff7f0e; stroke: #ff7f0e"/>
     <use xlink:href="#m352cb48ce1" x="148.16339" y="98.189266" style="fill: #ff7f0e; stroke: #ff7f0e"/>
     <use xlink:href="#m352cb48ce1" x="152.449902" y="93.8623" style="fill: #ff7f0e; stroke: #ff7f0e"/>
     <use xlink:href="#m352cb48ce1" x="156.632899" y="89.639916" style="fill: #ff7f0e; stroke: #ff7f0e"/>
     <use xlink:href="#m352cb48ce1" x="160.701699" y="85.532888" style="fill: #ff7f0e; stroke: #ff7f0e"/>
     <use xlink:href="#m352cb48ce1" x="164.645883" y="81.551724" style="fill: #ff7f0e; stroke: #ff7f0e"/>
     <use xlink:href="#m352cb48ce1" x="168.455389" y="77.70657" style="fill: #ff7f0e; stroke: #ff7f0e"/>
     <use xlink:href="#m352cb48ce1" x="172.120613" y="74.007112" style="fill: #ff7f0e; stroke: #ff7f0e"/>
     <use xlink:href="#m352cb48ce1" x="175.632511" y="70.462467" style="fill: #ff7f0e; stroke: #ff7f0e"/>
     <use xlink:href="#m352cb48ce1" x="178.982725" y="67.081063" style="fill: #ff7f0e; stroke: #ff7f0e"/>
     <use xlink:href="#m352cb48ce1" x="182.163704" y="63.870513" style="fill: #ff7f0e; stroke: #ff7f0e"/>
    </g>
   </g>
   <g id="PathCollection_1"/>
   <g id="PathCollection_2">
    <path d="M 154.603655 7.2 
L 152.476564 9.458338 
L 151.664083 10.324031 
L 149.425 12.718639 
L 148.745373 13.448064 
L 146.373441 16.003289 
L 145.847306 16.572094 
L 143.321874 19.312578 
L 142.969668 19.696127 
L 140.270314 22.646767 
L 140.112246 22.820159 
L 137.276953 25.944191 
L 137.218755 26.008692 
L 134.468205 29.068223 
L 134.167188 29.404375 
L 131.679708 32.192255 
L 131.115628 32.826964 
L 128.911262 35.316287 
L 128.064069 36.276805 
L 126.162639 38.440319 
L 125.012502 39.754216 
L 123.433635 41.564351 
L 121.960942 43.259534 
L 120.724039 44.688383 
L 118.909375 46.793092 
L 118.033636 47.812416 
L 115.857816 50.355226 
L 115.362235 50.936446 
L 112.806249 53.946298 
L 112.709626 54.060479 
L 110.087887 57.18451 
L 109.754682 57.583754 
L 107.488842 60.308541 
L 106.703122 61.257448 
L 104.908571 63.432573 
L 103.651563 64.962709 
L 102.346889 66.556606 
L 100.599996 68.699958 
L 99.80358 69.680639 
L 97.548436 72.469587 
L 97.27846 72.804668 
L 94.781993 75.9287 
L 94.496869 76.288493 
L 92.314372 79.052733 
L 91.44531 80.158492 
L 89.864889 82.176766 
L 88.393757 84.064116 
L 87.43333 85.300799 
L 85.342191 88.005882 
L 85.019506 88.424831 
L 82.636408 91.548864 
L 82.290631 92.006586 
L 80.283998 94.672897 
L 79.239071 96.068156 
L 77.949227 97.796926 
L 76.187512 100.169787 
L 75.63189 100.920962 
L 73.33977 104.044991 
L 73.135938 104.326767 
L 71.087832 107.16902 
L 70.084378 108.568879 
L 68.853194 110.293056 
L 67.032818 112.855825 
L 66.635673 113.417085 
L 64.453985 116.541114 
L 63.981244 117.226565 
L 62.30606 119.665151 
L 60.929685 121.680089 
L 60.175067 122.78918 
L 58.068649 125.913216 
L 57.878125 126.20151 
L 56.011726 129.037245 
" clip-path="url(#p608c7495d3)" style="fill: none; stroke: #1f77b4; stroke-width: 1.5"/>
    <path d="M 199.245679 129.037245 
L 201.301564 127.179486 
L 202.697259 125.913216 
L 204.353126 124.405542 
L 206.121266 122.78918 
L 207.404689 121.611723 
L 209.518006 119.665151 
L 210.456251 118.79783 
L 212.887829 116.541114 
L 213.507813 115.963639 
L 216.231021 113.417085 
L 216.559376 113.10892 
L 219.547924 110.293056 
L 219.610939 110.233467 
L 222.662501 107.330842 
L 222.83187 107.16902 
L 225.714063 104.405561 
L 226.088714 104.044991 
L 228.765626 101.45958 
L 229.321224 100.920962 
L 231.817188 98.492693 
L 232.529692 97.796926 
L 234.868751 95.504671 
L 235.71436 94.672897 
L 237.920313 92.495282 
" clip-path="url(#p608c7495d3)" style="fill: none; stroke: #1f77b4; stroke-width: 1.5"/>
   </g>
   <g id="PathCollection_3">
    <path d="M 120.571231 7.2 
L 118.909375 8.996787 
L 117.684897 10.324031 
L 115.857816 12.309766 
L 114.813101 13.448064 
L 112.806249 15.640556 
L 111.955724 16.572094 
L 109.754682 18.989282 
L 109.112656 19.696127 
L 106.703122 22.356094 
L 106.2838 22.820159 
L 103.651563 25.741138 
L 103.469038 25.944191 
L 100.670108 29.068223 
L 100.599996 29.146821 
L 97.890302 32.192255 
L 97.548436 32.577558 
L 95.124625 35.316287 
L 94.496869 36.0276 
L 92.37296 38.440319 
L 91.44531 39.49708 
L 89.635193 41.564351 
L 88.393757 42.986163 
L 86.911234 44.688383 
L 85.342191 46.495048 
L 84.200965 47.812416 
L 82.290631 50.023875 
L 81.504297 50.936446 
L 79.239071 53.572827 
L 78.821121 54.060479 
L 76.187512 57.142067 
L 76.151329 57.18451 
L 73.504467 60.308541 
L 73.135938 60.744937 
L 70.87206 63.432573 
L 70.084378 64.370471 
L 68.25305 66.556606 
L 67.032818 68.017581 
L 65.647326 69.680639 
L 63.981244 71.686461 
L 63.054786 72.804668 
L 60.929685 75.377269 
L 60.475323 75.9287 
L 57.909684 79.052733 
L 57.878125 79.091448 
L 55.369585 82.176766 
L 54.826565 82.846716 
L 52.84256 85.300799 
L 51.775006 86.625402 
L 50.32849 88.424831 
L 48.723432 90.427731 
L 47.827292 91.548864 
L 45.671872 94.253909 
L 45.338869 94.672897 
L 42.869786 97.796926 
L 42.620312 98.114667 
" clip-path="url(#p608c7495d3)" style="fill: none; stroke: #1f77b4; stroke-width: 1.5"/>
    <path d="M 236.165206 129.037245 
L 237.920313 127.335919 
" clip-path="url(#p608c7495d3)" style="fill: none; stroke: #1f77b4; stroke-width: 1.5"/>
   </g>
   <g id="PathCollection_4">
    <path d="M 94.530304 7.2 
L 94.496869 7.236433 
L 91.669297 10.324031 
L 91.44531 10.569159 
L 88.820178 13.448064 
L 88.393757 13.916751 
L 85.98287 16.572094 
L 85.342191 17.279317 
L 83.157314 19.696127 
L 82.290631 20.656959 
L 80.343427 22.820159 
L 79.239071 24.04977 
L 77.541136 25.944191 
L 76.187512 27.457847 
L 74.750356 29.068223 
L 73.135938 30.881322 
L 71.971052 32.192255 
L 70.084378 34.32027 
L 69.203128 35.316287 
L 67.032818 37.774803 
L 66.446519 38.440319 
L 63.981244 41.245042 
L 63.701153 41.564351 
L 60.967767 44.688383 
L 60.929685 44.732098 
L 58.251851 47.812416 
L 57.878125 48.243317 
L 55.547184 50.936446 
L 54.826565 51.770988 
L 52.853695 54.060479 
L 51.775006 55.315225 
L 50.17132 57.18451 
L 48.723432 58.876163 
L 47.499987 60.308541 
L 45.671872 62.453902 
L 44.839631 63.432573 
L 42.620312 66.048556 
" clip-path="url(#p608c7495d3)" style="fill: none; stroke: #1f77b4; stroke-width: 1.5"/>
   </g>
   <g id="PathCollection_5">
    <path d="M 72.615837 7.2 
L 70.084378 9.973788 
L 69.765301 10.324031 
L 67.032818 13.329096 
L 66.924834 13.448064 
L 64.096558 16.572094 
L 63.981244 16.699797 
L 61.280476 19.696127 
L 60.929685 20.086067 
L 58.474492 22.820159 
L 57.878125 23.485568 
L 55.67855 25.944191 
L 54.826565 26.898375 
L 52.892584 29.068223 
L 51.775006 30.324564 
L 50.116567 32.192255 
L 48.723432 33.764256 
L 47.35044 35.316287 
L 45.671872 37.217478 
L 44.594141 38.440319 
L 42.620312 40.684328 
" clip-path="url(#p608c7495d3)" style="fill: none; stroke: #1f77b4; stroke-width: 1.5"/>
   </g>
   <g id="PathCollection_6">
    <path d="M 53.320884 7.2 
L 51.775006 8.899265 
L 50.480916 10.324031 
L 48.723432 12.262301 
L 47.649979 13.448064 
L 45.671872 15.636901 
L 44.828056 16.572094 
L 42.620312 19.023134 
" clip-path="url(#p608c7495d3)" style="fill: none; stroke: #1f77b4; stroke-width: 1.5"/>
   </g>
   <g id="PathCollection_7"/>
   <g id="patch_3">
    <path d="M 42.620312 145.8 
L 42.620312 7.2 
" style="fill: none; stroke: #000000; stroke-width: 0.8; stroke-linejoin: miter; stroke-linecap: square"/>
   </g>
   <g id="patch_4">
    <path d="M 237.920313 145.8 
L 237.920313 7.2 
" style="fill: none; stroke: #000000; stroke-width: 0.8; stroke-linejoin: miter; stroke-linecap: square"/>
   </g>
   <g id="patch_5">
    <path d="M 42.620312 145.8 
L 237.920313 145.8 
" style="fill: none; stroke: #000000; stroke-width: 0.8; stroke-linejoin: miter; stroke-linecap: square"/>
   </g>
   <g id="patch_6">
    <path d="M 42.620312 7.2 
L 237.920313 7.2 
" style="fill: none; stroke: #000000; stroke-width: 0.8; stroke-linejoin: miter; stroke-linecap: square"/>
   </g>
  </g>
 </g>
 <defs>
  <clipPath id="p608c7495d3">
   <rect x="42.620312" y="7.2" width="195.3" height="138.6"/>
  </clipPath>
 </defs>
</svg>
