<?xml version="1.0" encoding="utf-8" standalone="no"?>
<!DOCTYPE svg PUBLIC "-//W3C//DTD SVG 1.1//EN"
  "http://www.w3.org/Graphics/SVG/1.1/DTD/svg11.dtd">
<svg xmlns:xlink="http://www.w3.org/1999/xlink" width="223.948476pt" height="166.978125pt" viewBox="0 0 223.948476 166.978125" xmlns="http://www.w3.org/2000/svg" version="1.1">
 <metadata>
  <rdf:RDF xmlns:dc="http://purl.org/dc/elements/1.1/" xmlns:cc="http://creativecommons.org/ns#" xmlns:rdf="http://www.w3.org/1999/02/22-rdf-syntax-ns#">
   <cc:Work>
    <dc:type rdf:resource="http://purl.org/dc/dcmitype/StillImage"/>
    <dc:date>2023-06-05T21:27:58.764749</dc:date>
    <dc:format>image/svg+xml</dc:format>
    <dc:creator>
     <cc:Agent>
      <dc:title>Matplotlib v3.5.1, https://matplotlib.org/</dc:title>
     </cc:Agent>
    </dc:creator>
   </cc:Work>
  </rdf:RDF>
 </metadata>
 <defs>
  <style type="text/css">*{stroke-linejoin: round; stroke-linecap: butt}</style>
 </defs>
 <g id="figure_1">
  <g id="patch_1">
   <path d="M 0 166.978125 
L 223.948476 166.978125 
L 223.948476 0 
L 0 0 
L 0 166.978125 
z
" style="fill: none"/>
  </g>
  <g id="axes_1">
   <g id="patch_2">
    <path d="M 20.5625 143.1 
L 215.8625 143.1 
L 215.8625 7.2 
L 20.5625 7.2 
z
" style="fill: #ffffff"/>
   </g>
   <g id="matplotlib.axis_1">
    <g id="xtick_1">
     <g id="line2d_1">
      <defs>
       <path id="m7c3c527119" d="M 0 0 
L 0 3.5 
" style="stroke: #000000; stroke-width: 0.8"/>
      </defs>
      <g>
       <use xlink:href="#m7c3c527119" x="27.628084" y="143.1" style="stroke: #000000; stroke-width: 0.8"/>
      </g>
     </g>
     <g id="text_1">
      <!-- 0.0 -->
      <g transform="translate(19.676522 157.698438)scale(0.1 -0.1)">
       <defs>
        <path id="DejaVuSans-30" d="M 2034 4250 
Q 1547 4250 1301 3770 
Q 1056 3291 1056 2328 
Q 1056 1369 1301 889 
Q 1547 409 2034 409 
Q 2525 409 2770 889 
Q 3016 1369 3016 2328 
Q 3016 3291 2770 3770 
Q 2525 4250 2034 4250 
z
M 2034 4750 
Q 2819 4750 3233 4129 
Q 3647 3509 3647 2328 
Q 3647 1150 3233 529 
Q 2819 -91 2034 -91 
Q 1250 -91 836 529 
Q 422 1150 422 2328 
Q 422 3509 836 4129 
Q 1250 4750 2034 4750 
z
" transform="scale(0.015625)"/>
        <path id="DejaVuSans-2e" d="M 684 794 
L 1344 794 
L 1344 0 
L 684 0 
L 684 794 
z
" transform="scale(0.015625)"/>
       </defs>
       <use xlink:href="#DejaVuSans-30"/>
       <use xlink:href="#DejaVuSans-2e" x="63.623047"/>
       <use xlink:href="#DejaVuSans-30" x="95.410156"/>
      </g>
     </g>
    </g>
    <g id="xtick_2">
     <g id="line2d_2">
      <g>
       <use xlink:href="#m7c3c527119" x="63.86185" y="143.1" style="stroke: #000000; stroke-width: 0.8"/>
      </g>
     </g>
     <g id="text_2">
      <!-- 0.2 -->
      <g transform="translate(55.910288 157.698438)scale(0.1 -0.1)">
       <defs>
        <path id="DejaVuSans-32" d="M 1228 531 
L 3431 531 
L 3431 0 
L 469 0 
L 469 531 
Q 828 903 1448 1529 
Q 2069 2156 2228 2338 
Q 2531 2678 2651 2914 
Q 2772 3150 2772 3378 
Q 2772 3750 2511 3984 
Q 2250 4219 1831 4219 
Q 1534 4219 1204 4116 
Q 875 4013 500 3803 
L 500 4441 
Q 881 4594 1212 4672 
Q 1544 4750 1819 4750 
Q 2544 4750 2975 4387 
Q 3406 4025 3406 3419 
Q 3406 3131 3298 2873 
Q 3191 2616 2906 2266 
Q 2828 2175 2409 1742 
Q 1991 1309 1228 531 
z
" transform="scale(0.015625)"/>
       </defs>
       <use xlink:href="#DejaVuSans-30"/>
       <use xlink:href="#DejaVuSans-2e" x="63.623047"/>
       <use xlink:href="#DejaVuSans-32" x="95.410156"/>
      </g>
     </g>
    </g>
    <g id="xtick_3">
     <g id="line2d_3">
      <g>
       <use xlink:href="#m7c3c527119" x="100.095616" y="143.1" style="stroke: #000000; stroke-width: 0.8"/>
      </g>
     </g>
     <g id="text_3">
      <!-- 0.4 -->
      <g transform="translate(92.144054 157.698438)scale(0.1 -0.1)">
       <defs>
        <path id="DejaVuSans-34" d="M 2419 4116 
L 825 1625 
L 2419 1625 
L 2419 4116 
z
M 2253 4666 
L 3047 4666 
L 3047 1625 
L 3713 1625 
L 3713 1100 
L 3047 1100 
L 3047 0 
L 2419 0 
L 2419 1100 
L 313 1100 
L 313 1709 
L 2253 4666 
z
" transform="scale(0.015625)"/>
       </defs>
       <use xlink:href="#DejaVuSans-30"/>
       <use xlink:href="#DejaVuSans-2e" x="63.623047"/>
       <use xlink:href="#DejaVuSans-34" x="95.410156"/>
      </g>
     </g>
    </g>
    <g id="xtick_4">
     <g id="line2d_4">
      <g>
       <use xlink:href="#m7c3c527119" x="136.329382" y="143.1" style="stroke: #000000; stroke-width: 0.8"/>
      </g>
     </g>
     <g id="text_4">
      <!-- 0.6 -->
      <g transform="translate(128.37782 157.698438)scale(0.1 -0.1)">
       <defs>
        <path id="DejaVuSans-36" d="M 2113 2584 
Q 1688 2584 1439 2293 
Q 1191 2003 1191 1497 
Q 1191 994 1439 701 
Q 1688 409 2113 409 
Q 2538 409 2786 701 
Q 3034 994 3034 1497 
Q 3034 2003 2786 2293 
Q 2538 2584 2113 2584 
z
M 3366 4563 
L 3366 3988 
Q 3128 4100 2886 4159 
Q 2644 4219 2406 4219 
Q 1781 4219 1451 3797 
Q 1122 3375 1075 2522 
Q 1259 2794 1537 2939 
Q 1816 3084 2150 3084 
Q 2853 3084 3261 2657 
Q 3669 2231 3669 1497 
Q 3669 778 3244 343 
Q 2819 -91 2113 -91 
Q 1303 -91 875 529 
Q 447 1150 447 2328 
Q 447 3434 972 4092 
Q 1497 4750 2381 4750 
Q 2619 4750 2861 4703 
Q 3103 4656 3366 4563 
z
" transform="scale(0.015625)"/>
       </defs>
       <use xlink:href="#DejaVuSans-30"/>
       <use xlink:href="#DejaVuSans-2e" x="63.623047"/>
       <use xlink:href="#DejaVuSans-36" x="95.410156"/>
      </g>
     </g>
    </g>
    <g id="xtick_5">
     <g id="line2d_5">
      <g>
       <use xlink:href="#m7c3c527119" x="172.563148" y="143.1" style="stroke: #000000; stroke-width: 0.8"/>
      </g>
     </g>
     <g id="text_5">
      <!-- 0.8 -->
      <g transform="translate(164.611585 157.698438)scale(0.1 -0.1)">
       <defs>
        <path id="DejaVuSans-38" d="M 2034 2216 
Q 1584 2216 1326 1975 
Q 1069 1734 1069 1313 
Q 1069 891 1326 650 
Q 1584 409 2034 409 
Q 2484 409 2743 651 
Q 3003 894 3003 1313 
Q 3003 1734 2745 1975 
Q 2488 2216 2034 2216 
z
M 1403 2484 
Q 997 2584 770 2862 
Q 544 3141 544 3541 
Q 544 4100 942 4425 
Q 1341 4750 2034 4750 
Q 2731 4750 3128 4425 
Q 3525 4100 3525 3541 
Q 3525 3141 3298 2862 
Q 3072 2584 2669 2484 
Q 3125 2378 3379 2068 
Q 3634 1759 3634 1313 
Q 3634 634 3220 271 
Q 2806 -91 2034 -91 
Q 1263 -91 848 271 
Q 434 634 434 1313 
Q 434 1759 690 2068 
Q 947 2378 1403 2484 
z
M 1172 3481 
Q 1172 3119 1398 2916 
Q 1625 2713 2034 2713 
Q 2441 2713 2670 2916 
Q 2900 3119 2900 3481 
Q 2900 3844 2670 4047 
Q 2441 4250 2034 4250 
Q 1625 4250 1398 4047 
Q 1172 3844 1172 3481 
z
" transform="scale(0.015625)"/>
       </defs>
       <use xlink:href="#DejaVuSans-30"/>
       <use xlink:href="#DejaVuSans-2e" x="63.623047"/>
       <use xlink:href="#DejaVuSans-38" x="95.410156"/>
      </g>
     </g>
    </g>
    <g id="xtick_6">
     <g id="line2d_6">
      <g>
       <use xlink:href="#m7c3c527119" x="208.796914" y="143.1" style="stroke: #000000; stroke-width: 0.8"/>
      </g>
     </g>
     <g id="text_6">
      <!-- 1.0 -->
      <g transform="translate(200.845351 157.698438)scale(0.1 -0.1)">
       <defs>
        <path id="DejaVuSans-31" d="M 794 531 
L 1825 531 
L 1825 4091 
L 703 3866 
L 703 4441 
L 1819 4666 
L 2450 4666 
L 2450 531 
L 3481 531 
L 3481 0 
L 794 0 
L 794 531 
z
" transform="scale(0.015625)"/>
       </defs>
       <use xlink:href="#DejaVuSans-31"/>
       <use xlink:href="#DejaVuSans-2e" x="63.623047"/>
       <use xlink:href="#DejaVuSans-30" x="95.410156"/>
      </g>
     </g>
    </g>
   </g>
   <g id="matplotlib.axis_2">
    <g id="ytick_1">
     <g id="line2d_7">
      <defs>
       <path id="m0594f2bd21" d="M 0 0 
L -3.5 0 
" style="stroke: #000000; stroke-width: 0.8"/>
      </defs>
      <g>
       <use xlink:href="#m0594f2bd21" x="20.5625" y="136.922727" style="stroke: #000000; stroke-width: 0.8"/>
      </g>
     </g>
     <g id="text_7">
      <!-- 0 -->
      <g transform="translate(7.2 140.721946)scale(0.1 -0.1)">
       <use xlink:href="#DejaVuSans-30"/>
      </g>
     </g>
    </g>
    <g id="ytick_2">
     <g id="line2d_8">
      <g>
       <use xlink:href="#m0594f2bd21" x="20.5625" y="110.095173" style="stroke: #000000; stroke-width: 0.8"/>
      </g>
     </g>
     <g id="text_8">
      <!-- 1 -->
      <g transform="translate(7.2 113.894392)scale(0.1 -0.1)">
       <use xlink:href="#DejaVuSans-31"/>
      </g>
     </g>
    </g>
    <g id="ytick_3">
     <g id="line2d_9">
      <g>
       <use xlink:href="#m0594f2bd21" x="20.5625" y="83.267619" style="stroke: #000000; stroke-width: 0.8"/>
      </g>
     </g>
     <g id="text_9">
      <!-- 2 -->
      <g transform="translate(7.2 87.066838)scale(0.1 -0.1)">
       <use xlink:href="#DejaVuSans-32"/>
      </g>
     </g>
    </g>
    <g id="ytick_4">
     <g id="line2d_10">
      <g>
       <use xlink:href="#m0594f2bd21" x="20.5625" y="56.440065" style="stroke: #000000; stroke-width: 0.8"/>
      </g>
     </g>
     <g id="text_10">
      <!-- 3 -->
      <g transform="translate(7.2 60.239283)scale(0.1 -0.1)">
       <defs>
        <path id="DejaVuSans-33" d="M 2597 2516 
Q 3050 2419 3304 2112 
Q 3559 1806 3559 1356 
Q 3559 666 3084 287 
Q 2609 -91 1734 -91 
Q 1441 -91 1130 -33 
Q 819 25 488 141 
L 488 750 
Q 750 597 1062 519 
Q 1375 441 1716 441 
Q 2309 441 2620 675 
Q 2931 909 2931 1356 
Q 2931 1769 2642 2001 
Q 2353 2234 1838 2234 
L 1294 2234 
L 1294 2753 
L 1863 2753 
Q 2328 2753 2575 2939 
Q 2822 3125 2822 3475 
Q 2822 3834 2567 4026 
Q 2313 4219 1838 4219 
Q 1578 4219 1281 4162 
Q 984 4106 628 3988 
L 628 4550 
Q 988 4650 1302 4700 
Q 1616 4750 1894 4750 
Q 2613 4750 3031 4423 
Q 3450 4097 3450 3541 
Q 3450 3153 3228 2886 
Q 3006 2619 2597 2516 
z
" transform="scale(0.015625)"/>
       </defs>
       <use xlink:href="#DejaVuSans-33"/>
      </g>
     </g>
    </g>
    <g id="ytick_5">
     <g id="line2d_11">
      <g>
       <use xlink:href="#m0594f2bd21" x="20.5625" y="29.61251" style="stroke: #000000; stroke-width: 0.8"/>
      </g>
     </g>
     <g id="text_11">
      <!-- 4 -->
      <g transform="translate(7.2 33.411729)scale(0.1 -0.1)">
       <use xlink:href="#DejaVuSans-34"/>
      </g>
     </g>
    </g>
   </g>
   <g id="line2d_12">
    <path d="M 29.439773 13.377273 
L 31.251461 31.972716 
L 33.063149 42.850354 
L 34.874837 50.56816 
L 36.686526 56.554556 
L 38.498214 61.445798 
L 40.309903 65.581285 
L 42.12159 69.163604 
L 43.93328 72.323435 
L 45.744968 75.15 
L 47.556657 77.70694 
L 49.368345 80.041241 
L 51.180034 82.188595 
L 52.991721 84.176728 
L 54.80341 86.027638 
L 56.615097 87.759047 
L 58.426786 89.38546 
L 60.238475 90.918879 
L 62.050162 92.369371 
L 63.861851 93.745444 
L 65.67354 95.054366 
L 67.485227 96.302383 
L 69.296916 97.494917 
L 71.108603 98.636685 
L 72.920292 99.73184 
L 74.731978 100.784035 
L 76.54367 101.796517 
L 78.355357 102.772172 
L 80.167043 103.713585 
L 81.978735 104.623081 
L 83.790422 105.502752 
L 85.602109 106.354491 
L 87.413801 107.180021 
L 89.225487 107.980904 
L 91.037179 108.758568 
L 92.848866 109.514322 
L 94.660552 110.249371 
L 96.472244 110.964816 
L 98.283931 111.661674 
L 100.095617 112.340889 
L 101.907304 113.003331 
L 103.71899 113.649808 
L 105.530682 114.281075 
L 107.342369 114.897827 
L 109.154056 115.500717 
L 110.965747 116.090359 
L 112.777434 116.667318 
L 114.589121 117.232128 
L 116.400813 117.785295 
L 118.212499 118.327284 
L 120.024186 118.85854 
L 121.835872 119.379479 
L 123.64757 119.890497 
L 125.459256 120.391962 
L 127.270943 120.884224 
L 129.082629 121.367615 
L 130.894316 121.842451 
L 132.706002 122.309029 
L 134.517689 122.76763 
L 136.329376 123.218523 
L 138.141073 123.661966 
L 139.95276 124.098196 
L 141.764446 124.527445 
L 143.576133 124.949935 
L 145.387819 125.365874 
L 147.199506 125.775463 
L 149.011192 126.178892 
L 150.822879 126.576344 
L 152.634576 126.967996 
L 154.446263 127.35401 
L 156.257949 127.734549 
L 158.069636 128.109765 
L 159.881333 128.479809 
L 161.69302 128.844814 
L 163.504706 129.204921 
L 165.316393 129.560257 
L 167.12809 129.910952 
L 168.939777 130.257118 
L 170.751464 130.598874 
L 172.56315 130.936332 
L 174.374837 131.269597 
L 176.186523 131.598774 
L 177.99821 131.92396 
L 179.809896 132.245251 
L 181.621594 132.562743 
L 183.43328 132.876518 
L 185.244967 133.186667 
L 187.056653 133.49327 
L 188.86834 133.79641 
L 190.680027 134.096162 
L 192.491713 134.392601 
L 194.3034 134.685801 
L 196.115097 134.975833 
L 197.926784 135.262761 
L 199.73847 135.546653 
L 201.550157 135.827572 
L 203.361854 136.105582 
L 205.173541 136.380739 
L 206.985227 136.653102 
" clip-path="url(#p73ccfdfe5b)" style="fill: none; stroke: #1f77b4; stroke-width: 1.5; stroke-linecap: square"/>
   </g>
   <g id="line2d_13">
    <path d="M 29.439773 14.612722 
L 31.251461 34.071715 
L 33.063149 45.672525 
L 34.874837 54.022344 
L 36.686526 60.572967 
L 38.498214 65.974413 
L 40.309903 70.575185 
L 42.12159 74.584334 
L 43.93328 78.137371 
L 45.744968 81.327271 
L 47.556657 84.220676 
L 49.368345 86.867019 
L 51.180034 89.30403 
L 52.991721 91.561168 
L 54.80341 93.6619 
L 56.615097 95.625235 
L 58.426786 97.466797 
L 60.238475 99.199572 
L 62.050162 100.834508 
L 63.861851 102.380901 
L 65.67354 103.846725 
L 67.485227 105.238861 
L 69.296916 106.563314 
L 71.108603 107.825336 
L 72.920292 109.029562 
L 74.731978 110.180095 
L 76.54367 111.280593 
L 78.355357 112.334326 
L 80.167043 113.344235 
L 81.978735 114.312976 
L 83.790422 115.242945 
L 85.602109 116.136326 
L 87.413801 116.995116 
L 89.225487 117.821125 
L 91.037179 118.616025 
L 92.848866 119.381348 
L 94.660552 120.118514 
L 96.472244 120.828823 
L 98.283931 121.513485 
L 100.095617 122.173623 
L 101.907304 122.810282 
L 103.71899 123.424433 
L 105.530682 124.016986 
L 107.342369 124.588783 
L 109.154056 125.140622 
L 110.965747 125.67325 
L 112.777434 126.187361 
L 114.589121 126.683616 
L 116.400813 127.162637 
L 118.212499 127.625005 
L 120.024186 128.071275 
L 121.835872 128.501968 
L 123.64757 128.91758 
L 125.459256 129.318575 
L 127.270943 129.705401 
L 129.082629 130.078478 
L 130.894316 130.438208 
L 132.706002 130.784973 
L 134.517689 131.119137 
L 136.329376 131.441045 
L 138.141073 131.751031 
L 139.95276 132.049405 
L 141.764446 132.336473 
L 143.576133 132.612522 
L 145.387819 132.877828 
L 147.199506 133.132657 
L 149.011192 133.377261 
L 150.822879 133.611884 
L 152.634576 133.836761 
L 154.446263 134.052112 
L 156.257949 134.258155 
L 158.069636 134.455098 
L 159.881333 134.643139 
L 161.69302 134.82247 
L 163.504706 134.993276 
L 165.316393 135.155735 
L 167.12809 135.310019 
L 168.939777 135.456293 
L 170.751464 135.594718 
L 172.56315 135.725448 
L 174.374837 135.848633 
L 176.186523 135.964416 
L 177.99821 136.072937 
L 179.809896 136.174331 
L 181.621594 136.26873 
L 183.43328 136.356258 
L 185.244967 136.437039 
L 187.056653 136.511192 
L 188.86834 136.578832 
L 190.680027 136.640071 
L 192.491713 136.695016 
L 194.3034 136.743773 
L 196.115097 136.786445 
L 197.926784 136.823129 
L 199.73847 136.853924 
L 201.550157 136.878921 
L 203.361854 136.898213 
L 205.173541 136.911888 
L 206.985227 136.920031 
" clip-path="url(#p73ccfdfe5b)" style="fill: none; stroke-dasharray: 5.55,2.4; stroke-dashoffset: 0; stroke: #ff7f0e; stroke-width: 1.5"/>
   </g>
   <g id="line2d_14">
    <path d="M 29.439773 19.432223 
L 31.251461 42.056223 
L 33.063149 56.139572 
L 34.874837 66.511578 
L 36.686526 74.735374 
L 38.498214 81.529909 
L 40.309903 87.291316 
L 42.12159 92.263936 
L 43.93328 96.610702 
L 45.744968 100.446553 
L 47.556657 103.856284 
L 49.368345 106.904553 
L 51.180034 109.64209 
L 52.991721 112.109582 
L 54.80341 114.340302 
L 56.615097 116.361886 
L 58.426786 118.197606 
L 60.238475 119.86727 
L 62.050162 121.387933 
L 63.861851 122.774394 
L 65.67354 124.0396 
L 67.485227 125.194928 
L 69.296916 126.250472 
L 71.108603 127.215204 
L 72.920292 128.097155 
L 74.731978 128.903527 
L 76.54367 129.640811 
L 78.355357 130.314875 
L 80.167043 130.931035 
L 81.978735 131.494126 
L 83.790422 132.008545 
L 85.602109 132.478309 
L 87.413801 132.907091 
L 89.225487 133.298249 
L 91.037179 133.654867 
L 92.848866 133.979773 
L 94.660552 134.275566 
L 96.472244 134.544638 
L 98.283931 134.789188 
L 100.095617 135.011243 
L 101.907304 135.212671 
L 103.71899 135.395193 
L 105.530682 135.560397 
L 107.342369 135.709746 
L 109.154056 135.844591 
L 110.965747 135.966178 
L 112.777434 136.075655 
L 114.589121 136.174083 
L 116.400813 136.262438 
L 118.212499 136.34162 
L 120.024186 136.412459 
L 121.835872 136.475718 
L 123.64757 136.532102 
L 125.459256 136.582255 
L 127.270943 136.626772 
L 129.082629 136.666198 
L 130.894316 136.701034 
L 132.706002 136.731739 
L 134.517689 136.758732 
L 136.329376 136.782396 
L 138.141073 136.803083 
L 139.95276 136.821112 
L 141.764446 136.836773 
L 143.576133 136.850332 
L 145.387819 136.862028 
L 147.199506 136.872079 
L 149.011192 136.880681 
L 150.822879 136.888011 
L 152.634576 136.894228 
L 154.446263 136.899475 
L 156.257949 136.903881 
L 158.069636 136.90756 
L 159.881333 136.910613 
L 161.69302 136.91313 
L 163.504706 136.91519 
L 165.316393 136.916865 
L 167.12809 136.918214 
L 168.939777 136.919292 
L 170.751464 136.920145 
L 172.56315 136.920812 
L 174.374837 136.921328 
L 176.186523 136.921721 
L 177.99821 136.922018 
L 179.809896 136.922237 
L 181.621594 136.922396 
L 183.43328 136.92251 
L 185.244967 136.922589 
L 187.056653 136.922642 
L 188.86834 136.922677 
L 190.680027 136.922699 
L 192.491713 136.922712 
L 194.3034 136.92272 
L 196.115097 136.922724 
L 197.926784 136.922726 
L 199.73847 136.922727 
L 201.550157 136.922727 
L 203.361854 136.922727 
L 205.173541 136.922727 
L 206.985227 136.922727 
" clip-path="url(#p73ccfdfe5b)" style="fill: none; stroke-dasharray: 9.6,2.4,1.5,2.4; stroke-dashoffset: 0; stroke: #2ca02c; stroke-width: 1.5"/>
   </g>
   <g id="patch_3">
    <path d="M 20.5625 143.1 
L 20.5625 7.2 
" style="fill: none; stroke: #000000; stroke-width: 0.8; stroke-linejoin: miter; stroke-linecap: square"/>
   </g>
   <g id="patch_4">
    <path d="M 215.8625 143.1 
L 215.8625 7.2 
" style="fill: none; stroke: #000000; stroke-width: 0.8; stroke-linejoin: miter; stroke-linecap: square"/>
   </g>
   <g id="patch_5">
    <path d="M 20.5625 143.1 
L 215.8625 143.1 
" style="fill: none; stroke: #000000; stroke-width: 0.8; stroke-linejoin: miter; stroke-linecap: square"/>
   </g>
   <g id="patch_6">
    <path d="M 20.5625 7.2 
L 215.8625 7.2 
" style="fill: none; stroke: #000000; stroke-width: 0.8; stroke-linejoin: miter; stroke-linecap: square"/>
   </g>
   <g id="legend_1">
    <g id="patch_7">
     <path d="M 114.49375 59.234375 
L 208.8625 59.234375 
Q 210.8625 59.234375 210.8625 57.234375 
L 210.8625 14.2 
Q 210.8625 12.2 208.8625 12.2 
L 114.49375 12.2 
Q 112.49375 12.2 112.49375 14.2 
L 112.49375 57.234375 
Q 112.49375 59.234375 114.49375 59.234375 
z
" style="fill: #ffffff; opacity: 0.8; stroke: #cccccc; stroke-linejoin: miter"/>
    </g>
    <g id="line2d_15">
     <path d="M 116.49375 20.298438 
L 126.49375 20.298438 
L 136.49375 20.298438 
" style="fill: none; stroke: #1f77b4; stroke-width: 1.5; stroke-linecap: square"/>
    </g>
    <g id="text_12">
     <!-- gamma=0.0 -->
     <g transform="translate(144.49375 23.798438)scale(0.1 -0.1)">
      <defs>
       <path id="DejaVuSans-67" d="M 2906 1791 
Q 2906 2416 2648 2759 
Q 2391 3103 1925 3103 
Q 1463 3103 1205 2759 
Q 947 2416 947 1791 
Q 947 1169 1205 825 
Q 1463 481 1925 481 
Q 2391 481 2648 825 
Q 2906 1169 2906 1791 
z
M 3481 434 
Q 3481 -459 3084 -895 
Q 2688 -1331 1869 -1331 
Q 1566 -1331 1297 -1286 
Q 1028 -1241 775 -1147 
L 775 -588 
Q 1028 -725 1275 -790 
Q 1522 -856 1778 -856 
Q 2344 -856 2625 -561 
Q 2906 -266 2906 331 
L 2906 616 
Q 2728 306 2450 153 
Q 2172 0 1784 0 
Q 1141 0 747 490 
Q 353 981 353 1791 
Q 353 2603 747 3093 
Q 1141 3584 1784 3584 
Q 2172 3584 2450 3431 
Q 2728 3278 2906 2969 
L 2906 3500 
L 3481 3500 
L 3481 434 
z
" transform="scale(0.015625)"/>
       <path id="DejaVuSans-61" d="M 2194 1759 
Q 1497 1759 1228 1600 
Q 959 1441 959 1056 
Q 959 750 1161 570 
Q 1363 391 1709 391 
Q 2188 391 2477 730 
Q 2766 1069 2766 1631 
L 2766 1759 
L 2194 1759 
z
M 3341 1997 
L 3341 0 
L 2766 0 
L 2766 531 
Q 2569 213 2275 61 
Q 1981 -91 1556 -91 
Q 1019 -91 701 211 
Q 384 513 384 1019 
Q 384 1609 779 1909 
Q 1175 2209 1959 2209 
L 2766 2209 
L 2766 2266 
Q 2766 2663 2505 2880 
Q 2244 3097 1772 3097 
Q 1472 3097 1187 3025 
Q 903 2953 641 2809 
L 641 3341 
Q 956 3463 1253 3523 
Q 1550 3584 1831 3584 
Q 2591 3584 2966 3190 
Q 3341 2797 3341 1997 
z
" transform="scale(0.015625)"/>
       <path id="DejaVuSans-6d" d="M 3328 2828 
Q 3544 3216 3844 3400 
Q 4144 3584 4550 3584 
Q 5097 3584 5394 3201 
Q 5691 2819 5691 2113 
L 5691 0 
L 5113 0 
L 5113 2094 
Q 5113 2597 4934 2840 
Q 4756 3084 4391 3084 
Q 3944 3084 3684 2787 
Q 3425 2491 3425 1978 
L 3425 0 
L 2847 0 
L 2847 2094 
Q 2847 2600 2669 2842 
Q 2491 3084 2119 3084 
Q 1678 3084 1418 2786 
Q 1159 2488 1159 1978 
L 1159 0 
L 581 0 
L 581 3500 
L 1159 3500 
L 1159 2956 
Q 1356 3278 1631 3431 
Q 1906 3584 2284 3584 
Q 2666 3584 2933 3390 
Q 3200 3197 3328 2828 
z
" transform="scale(0.015625)"/>
       <path id="DejaVuSans-3d" d="M 678 2906 
L 4684 2906 
L 4684 2381 
L 678 2381 
L 678 2906 
z
M 678 1631 
L 4684 1631 
L 4684 1100 
L 678 1100 
L 678 1631 
z
" transform="scale(0.015625)"/>
      </defs>
      <use xlink:href="#DejaVuSans-67"/>
      <use xlink:href="#DejaVuSans-61" x="63.476562"/>
      <use xlink:href="#DejaVuSans-6d" x="124.755859"/>
      <use xlink:href="#DejaVuSans-6d" x="222.167969"/>
      <use xlink:href="#DejaVuSans-61" x="319.580078"/>
      <use xlink:href="#DejaVuSans-3d" x="380.859375"/>
      <use xlink:href="#DejaVuSans-30" x="464.648438"/>
      <use xlink:href="#DejaVuSans-2e" x="528.271484"/>
      <use xlink:href="#DejaVuSans-30" x="560.058594"/>
     </g>
    </g>
    <g id="line2d_16">
     <path d="M 116.49375 34.976562 
L 126.49375 34.976562 
L 136.49375 34.976562 
" style="fill: none; stroke-dasharray: 5.55,2.4; stroke-dashoffset: 0; stroke: #ff7f0e; stroke-width: 1.5"/>
    </g>
    <g id="text_13">
     <!-- gamma=1.0 -->
     <g transform="translate(144.49375 38.476562)scale(0.1 -0.1)">
      <use xlink:href="#DejaVuSans-67"/>
      <use xlink:href="#DejaVuSans-61" x="63.476562"/>
      <use xlink:href="#DejaVuSans-6d" x="124.755859"/>
      <use xlink:href="#DejaVuSans-6d" x="222.167969"/>
      <use xlink:href="#DejaVuSans-61" x="319.580078"/>
      <use xlink:href="#DejaVuSans-3d" x="380.859375"/>
      <use xlink:href="#DejaVuSans-31" x="464.648438"/>
      <use xlink:href="#DejaVuSans-2e" x="528.271484"/>
      <use xlink:href="#DejaVuSans-30" x="560.058594"/>
     </g>
    </g>
    <g id="line2d_17">
     <path d="M 116.49375 49.654688 
L 126.49375 49.654688 
L 136.49375 49.654688 
" style="fill: none; stroke-dasharray: 9.6,2.4,1.5,2.4; stroke-dashoffset: 0; stroke: #2ca02c; stroke-width: 1.5"/>
    </g>
    <g id="text_14">
     <!-- gamma=5.0 -->
     <g transform="translate(144.49375 53.154688)scale(0.1 -0.1)">
      <defs>
       <path id="DejaVuSans-35" d="M 691 4666 
L 3169 4666 
L 3169 4134 
L 1269 4134 
L 1269 2991 
Q 1406 3038 1543 3061 
Q 1681 3084 1819 3084 
Q 2600 3084 3056 2656 
Q 3513 2228 3513 1497 
Q 3513 744 3044 326 
Q 2575 -91 1722 -91 
Q 1428 -91 1123 -41 
Q 819 9 494 109 
L 494 744 
Q 775 591 1075 516 
Q 1375 441 1709 441 
Q 2250 441 2565 725 
Q 2881 1009 2881 1497 
Q 2881 1984 2565 2268 
Q 2250 2553 1709 2553 
Q 1456 2553 1204 2497 
Q 953 2441 691 2322 
L 691 4666 
z
" transform="scale(0.015625)"/>
      </defs>
      <use xlink:href="#DejaVuSans-67"/>
      <use xlink:href="#DejaVuSans-61" x="63.476562"/>
      <use xlink:href="#DejaVuSans-6d" x="124.755859"/>
      <use xlink:href="#DejaVuSans-6d" x="222.167969"/>
      <use xlink:href="#DejaVuSans-61" x="319.580078"/>
      <use xlink:href="#DejaVuSans-3d" x="380.859375"/>
      <use xlink:href="#DejaVuSans-35" x="464.648438"/>
      <use xlink:href="#DejaVuSans-2e" x="528.271484"/>
      <use xlink:href="#DejaVuSans-30" x="560.058594"/>
     </g>
    </g>
   </g>
  </g>
 </g>
 <defs>
  <clipPath id="p73ccfdfe5b">
   <rect x="20.5625" y="7.2" width="195.3" height="135.9"/>
  </clipPath>
 </defs>
</svg>
