<?xml version="1.0" encoding="utf-8" standalone="no"?>
<!DOCTYPE svg PUBLIC "-//W3C//DTD SVG 1.1//EN"
  "http://www.w3.org/Graphics/SVG/1.1/DTD/svg11.dtd">
<svg xmlns:xlink="http://www.w3.org/1999/xlink" width="238.965625pt" height="183.35625pt" viewBox="0 0 238.965625 183.35625" xmlns="http://www.w3.org/2000/svg" version="1.1">
 <metadata>
  <rdf:RDF xmlns:dc="http://purl.org/dc/elements/1.1/" xmlns:cc="http://creativecommons.org/ns#" xmlns:rdf="http://www.w3.org/1999/02/22-rdf-syntax-ns#">
   <cc:Work>
    <dc:type rdf:resource="http://purl.org/dc/dcmitype/StillImage"/>
    <dc:date>2024-03-01T02:15:15.780465</dc:date>
    <dc:format>image/svg+xml</dc:format>
    <dc:creator>
     <cc:Agent>
      <dc:title>Matplotlib v3.7.2, https://matplotlib.org/</dc:title>
     </cc:Agent>
    </dc:creator>
   </cc:Work>
  </rdf:RDF>
 </metadata>
 <defs>
  <style type="text/css">*{stroke-linejoin: round; stroke-linecap: butt}</style>
 </defs>
 <g id="figure_1">
  <g id="patch_1">
   <path d="M 0 183.35625 
L 238.965625 183.35625 
L 238.965625 0 
L 0 0 
z
" style="fill: #ffffff"/>
  </g>
  <g id="axes_1">
   <g id="patch_2">
    <path d="M 30.103125 145.8 
L 225.403125 145.8 
L 225.403125 7.2 
L 30.103125 7.2 
z
" style="fill: #ffffff"/>
   </g>
   <g id="matplotlib.axis_1">
    <g id="xtick_1">
     <g id="line2d_1">
      <path d="M 65.974554 145.8 
L 65.974554 7.2 
" clip-path="url(#pd24423e157)" style="fill: none; stroke: #b0b0b0; stroke-width: 0.8; stroke-linecap: square"/>
     </g>
     <g id="line2d_2">
      <defs>
       <path id="m0e5d0bd945" d="M 0 0 
L 0 3.5 
" style="stroke: #000000; stroke-width: 0.8"/>
      </defs>
      <g>
       <use xlink:href="#m0e5d0bd945" x="65.974554" y="145.8" style="stroke: #000000; stroke-width: 0.8"/>
      </g>
     </g>
     <g id="text_1">
      <!-- 10 -->
      <g transform="translate(59.612054 160.398438) scale(0.1 -0.1)">
       <defs>
        <path id="DejaVuSans-31" d="M 794 531 
L 1825 531 
L 1825 4091 
L 703 3866 
L 703 4441 
L 1819 4666 
L 2450 4666 
L 2450 531 
L 3481 531 
L 3481 0 
L 794 0 
L 794 531 
z
" transform="scale(0.015625)"/>
        <path id="DejaVuSans-30" d="M 2034 4250 
Q 1547 4250 1301 3770 
Q 1056 3291 1056 2328 
Q 1056 1369 1301 889 
Q 1547 409 2034 409 
Q 2525 409 2770 889 
Q 3016 1369 3016 2328 
Q 3016 3291 2770 3770 
Q 2525 4250 2034 4250 
z
M 2034 4750 
Q 2819 4750 3233 4129 
Q 3647 3509 3647 2328 
Q 3647 1150 3233 529 
Q 2819 -91 2034 -91 
Q 1250 -91 836 529 
Q 422 1150 422 2328 
Q 422 3509 836 4129 
Q 1250 4750 2034 4750 
z
" transform="scale(0.015625)"/>
       </defs>
       <use xlink:href="#DejaVuSans-31"/>
       <use xlink:href="#DejaVuSans-30" x="63.623047"/>
      </g>
     </g>
    </g>
    <g id="xtick_2">
     <g id="line2d_3">
      <path d="M 105.831696 145.8 
L 105.831696 7.2 
" clip-path="url(#pd24423e157)" style="fill: none; stroke: #b0b0b0; stroke-width: 0.8; stroke-linecap: square"/>
     </g>
     <g id="line2d_4">
      <g>
       <use xlink:href="#m0e5d0bd945" x="105.831696" y="145.8" style="stroke: #000000; stroke-width: 0.8"/>
      </g>
     </g>
     <g id="text_2">
      <!-- 20 -->
      <g transform="translate(99.469196 160.398438) scale(0.1 -0.1)">
       <defs>
        <path id="DejaVuSans-32" d="M 1228 531 
L 3431 531 
L 3431 0 
L 469 0 
L 469 531 
Q 828 903 1448 1529 
Q 2069 2156 2228 2338 
Q 2531 2678 2651 2914 
Q 2772 3150 2772 3378 
Q 2772 3750 2511 3984 
Q 2250 4219 1831 4219 
Q 1534 4219 1204 4116 
Q 875 4013 500 3803 
L 500 4441 
Q 881 4594 1212 4672 
Q 1544 4750 1819 4750 
Q 2544 4750 2975 4387 
Q 3406 4025 3406 3419 
Q 3406 3131 3298 2873 
Q 3191 2616 2906 2266 
Q 2828 2175 2409 1742 
Q 1991 1309 1228 531 
z
" transform="scale(0.015625)"/>
       </defs>
       <use xlink:href="#DejaVuSans-32"/>
       <use xlink:href="#DejaVuSans-30" x="63.623047"/>
      </g>
     </g>
    </g>
    <g id="xtick_3">
     <g id="line2d_5">
      <path d="M 145.688839 145.8 
L 145.688839 7.2 
" clip-path="url(#pd24423e157)" style="fill: none; stroke: #b0b0b0; stroke-width: 0.8; stroke-linecap: square"/>
     </g>
     <g id="line2d_6">
      <g>
       <use xlink:href="#m0e5d0bd945" x="145.688839" y="145.8" style="stroke: #000000; stroke-width: 0.8"/>
      </g>
     </g>
     <g id="text_3">
      <!-- 30 -->
      <g transform="translate(139.326339 160.398438) scale(0.1 -0.1)">
       <defs>
        <path id="DejaVuSans-33" d="M 2597 2516 
Q 3050 2419 3304 2112 
Q 3559 1806 3559 1356 
Q 3559 666 3084 287 
Q 2609 -91 1734 -91 
Q 1441 -91 1130 -33 
Q 819 25 488 141 
L 488 750 
Q 750 597 1062 519 
Q 1375 441 1716 441 
Q 2309 441 2620 675 
Q 2931 909 2931 1356 
Q 2931 1769 2642 2001 
Q 2353 2234 1838 2234 
L 1294 2234 
L 1294 2753 
L 1863 2753 
Q 2328 2753 2575 2939 
Q 2822 3125 2822 3475 
Q 2822 3834 2567 4026 
Q 2313 4219 1838 4219 
Q 1578 4219 1281 4162 
Q 984 4106 628 3988 
L 628 4550 
Q 988 4650 1302 4700 
Q 1616 4750 1894 4750 
Q 2613 4750 3031 4423 
Q 3450 4097 3450 3541 
Q 3450 3153 3228 2886 
Q 3006 2619 2597 2516 
z
" transform="scale(0.015625)"/>
       </defs>
       <use xlink:href="#DejaVuSans-33"/>
       <use xlink:href="#DejaVuSans-30" x="63.623047"/>
      </g>
     </g>
    </g>
    <g id="xtick_4">
     <g id="line2d_7">
      <path d="M 185.545982 145.8 
L 185.545982 7.2 
" clip-path="url(#pd24423e157)" style="fill: none; stroke: #b0b0b0; stroke-width: 0.8; stroke-linecap: square"/>
     </g>
     <g id="line2d_8">
      <g>
       <use xlink:href="#m0e5d0bd945" x="185.545982" y="145.8" style="stroke: #000000; stroke-width: 0.8"/>
      </g>
     </g>
     <g id="text_4">
      <!-- 40 -->
      <g transform="translate(179.183482 160.398438) scale(0.1 -0.1)">
       <defs>
        <path id="DejaVuSans-34" d="M 2419 4116 
L 825 1625 
L 2419 1625 
L 2419 4116 
z
M 2253 4666 
L 3047 4666 
L 3047 1625 
L 3713 1625 
L 3713 1100 
L 3047 1100 
L 3047 0 
L 2419 0 
L 2419 1100 
L 313 1100 
L 313 1709 
L 2253 4666 
z
" transform="scale(0.015625)"/>
       </defs>
       <use xlink:href="#DejaVuSans-34"/>
       <use xlink:href="#DejaVuSans-30" x="63.623047"/>
      </g>
     </g>
    </g>
    <g id="xtick_5">
     <g id="line2d_9">
      <path d="M 225.403125 145.8 
L 225.403125 7.2 
" clip-path="url(#pd24423e157)" style="fill: none; stroke: #b0b0b0; stroke-width: 0.8; stroke-linecap: square"/>
     </g>
     <g id="line2d_10">
      <g>
       <use xlink:href="#m0e5d0bd945" x="225.403125" y="145.8" style="stroke: #000000; stroke-width: 0.8"/>
      </g>
     </g>
     <g id="text_5">
      <!-- 50 -->
      <g transform="translate(219.040625 160.398438) scale(0.1 -0.1)">
       <defs>
        <path id="DejaVuSans-35" d="M 691 4666 
L 3169 4666 
L 3169 4134 
L 1269 4134 
L 1269 2991 
Q 1406 3038 1543 3061 
Q 1681 3084 1819 3084 
Q 2600 3084 3056 2656 
Q 3513 2228 3513 1497 
Q 3513 744 3044 326 
Q 2575 -91 1722 -91 
Q 1428 -91 1123 -41 
Q 819 9 494 109 
L 494 744 
Q 775 591 1075 516 
Q 1375 441 1709 441 
Q 2250 441 2565 725 
Q 2881 1009 2881 1497 
Q 2881 1984 2565 2268 
Q 2250 2553 1709 2553 
Q 1456 2553 1204 2497 
Q 953 2441 691 2322 
L 691 4666 
z
" transform="scale(0.015625)"/>
       </defs>
       <use xlink:href="#DejaVuSans-35"/>
       <use xlink:href="#DejaVuSans-30" x="63.623047"/>
      </g>
     </g>
    </g>
    <g id="text_6">
     <!-- epoch -->
     <g transform="translate(112.525 174.076563) scale(0.1 -0.1)">
      <defs>
       <path id="DejaVuSans-65" d="M 3597 1894 
L 3597 1613 
L 953 1613 
Q 991 1019 1311 708 
Q 1631 397 2203 397 
Q 2534 397 2845 478 
Q 3156 559 3463 722 
L 3463 178 
Q 3153 47 2828 -22 
Q 2503 -91 2169 -91 
Q 1331 -91 842 396 
Q 353 884 353 1716 
Q 353 2575 817 3079 
Q 1281 3584 2069 3584 
Q 2775 3584 3186 3129 
Q 3597 2675 3597 1894 
z
M 3022 2063 
Q 3016 2534 2758 2815 
Q 2500 3097 2075 3097 
Q 1594 3097 1305 2825 
Q 1016 2553 972 2059 
L 3022 2063 
z
" transform="scale(0.015625)"/>
       <path id="DejaVuSans-70" d="M 1159 525 
L 1159 -1331 
L 581 -1331 
L 581 3500 
L 1159 3500 
L 1159 2969 
Q 1341 3281 1617 3432 
Q 1894 3584 2278 3584 
Q 2916 3584 3314 3078 
Q 3713 2572 3713 1747 
Q 3713 922 3314 415 
Q 2916 -91 2278 -91 
Q 1894 -91 1617 61 
Q 1341 213 1159 525 
z
M 3116 1747 
Q 3116 2381 2855 2742 
Q 2594 3103 2138 3103 
Q 1681 3103 1420 2742 
Q 1159 2381 1159 1747 
Q 1159 1113 1420 752 
Q 1681 391 2138 391 
Q 2594 391 2855 752 
Q 3116 1113 3116 1747 
z
" transform="scale(0.015625)"/>
       <path id="DejaVuSans-6f" d="M 1959 3097 
Q 1497 3097 1228 2736 
Q 959 2375 959 1747 
Q 959 1119 1226 758 
Q 1494 397 1959 397 
Q 2419 397 2687 759 
Q 2956 1122 2956 1747 
Q 2956 2369 2687 2733 
Q 2419 3097 1959 3097 
z
M 1959 3584 
Q 2709 3584 3137 3096 
Q 3566 2609 3566 1747 
Q 3566 888 3137 398 
Q 2709 -91 1959 -91 
Q 1206 -91 779 398 
Q 353 888 353 1747 
Q 353 2609 779 3096 
Q 1206 3584 1959 3584 
z
" transform="scale(0.015625)"/>
       <path id="DejaVuSans-63" d="M 3122 3366 
L 3122 2828 
Q 2878 2963 2633 3030 
Q 2388 3097 2138 3097 
Q 1578 3097 1268 2742 
Q 959 2388 959 1747 
Q 959 1106 1268 751 
Q 1578 397 2138 397 
Q 2388 397 2633 464 
Q 2878 531 3122 666 
L 3122 134 
Q 2881 22 2623 -34 
Q 2366 -91 2075 -91 
Q 1284 -91 818 406 
Q 353 903 353 1747 
Q 353 2603 823 3093 
Q 1294 3584 2113 3584 
Q 2378 3584 2631 3529 
Q 2884 3475 3122 3366 
z
" transform="scale(0.015625)"/>
       <path id="DejaVuSans-68" d="M 3513 2113 
L 3513 0 
L 2938 0 
L 2938 2094 
Q 2938 2591 2744 2837 
Q 2550 3084 2163 3084 
Q 1697 3084 1428 2787 
Q 1159 2491 1159 1978 
L 1159 0 
L 581 0 
L 581 4863 
L 1159 4863 
L 1159 2956 
Q 1366 3272 1645 3428 
Q 1925 3584 2291 3584 
Q 2894 3584 3203 3211 
Q 3513 2838 3513 2113 
z
" transform="scale(0.015625)"/>
      </defs>
      <use xlink:href="#DejaVuSans-65"/>
      <use xlink:href="#DejaVuSans-70" x="61.523438"/>
      <use xlink:href="#DejaVuSans-6f" x="125"/>
      <use xlink:href="#DejaVuSans-63" x="186.181641"/>
      <use xlink:href="#DejaVuSans-68" x="241.162109"/>
     </g>
    </g>
   </g>
   <g id="matplotlib.axis_2">
    <g id="ytick_1">
     <g id="line2d_11">
      <path d="M 30.103125 145.151704 
L 225.403125 145.151704 
" clip-path="url(#pd24423e157)" style="fill: none; stroke: #b0b0b0; stroke-width: 0.8; stroke-linecap: square"/>
     </g>
     <g id="line2d_12">
      <defs>
       <path id="m2e81c414a3" d="M 0 0 
L -3.5 0 
" style="stroke: #000000; stroke-width: 0.8"/>
      </defs>
      <g>
       <use xlink:href="#m2e81c414a3" x="30.103125" y="145.151704" style="stroke: #000000; stroke-width: 0.8"/>
      </g>
     </g>
     <g id="text_7">
      <!-- 0.0 -->
      <g transform="translate(7.2 148.950923) scale(0.1 -0.1)">
       <defs>
        <path id="DejaVuSans-2e" d="M 684 794 
L 1344 794 
L 1344 0 
L 684 0 
L 684 794 
z
" transform="scale(0.015625)"/>
       </defs>
       <use xlink:href="#DejaVuSans-30"/>
       <use xlink:href="#DejaVuSans-2e" x="63.623047"/>
       <use xlink:href="#DejaVuSans-30" x="95.410156"/>
      </g>
     </g>
    </g>
    <g id="ytick_2">
     <g id="line2d_13">
      <path d="M 30.103125 116.711174 
L 225.403125 116.711174 
" clip-path="url(#pd24423e157)" style="fill: none; stroke: #b0b0b0; stroke-width: 0.8; stroke-linecap: square"/>
     </g>
     <g id="line2d_14">
      <g>
       <use xlink:href="#m2e81c414a3" x="30.103125" y="116.711174" style="stroke: #000000; stroke-width: 0.8"/>
      </g>
     </g>
     <g id="text_8">
      <!-- 0.5 -->
      <g transform="translate(7.2 120.510393) scale(0.1 -0.1)">
       <use xlink:href="#DejaVuSans-30"/>
       <use xlink:href="#DejaVuSans-2e" x="63.623047"/>
       <use xlink:href="#DejaVuSans-35" x="95.410156"/>
      </g>
     </g>
    </g>
    <g id="ytick_3">
     <g id="line2d_15">
      <path d="M 30.103125 88.270644 
L 225.403125 88.270644 
" clip-path="url(#pd24423e157)" style="fill: none; stroke: #b0b0b0; stroke-width: 0.8; stroke-linecap: square"/>
     </g>
     <g id="line2d_16">
      <g>
       <use xlink:href="#m2e81c414a3" x="30.103125" y="88.270644" style="stroke: #000000; stroke-width: 0.8"/>
      </g>
     </g>
     <g id="text_9">
      <!-- 1.0 -->
      <g transform="translate(7.2 92.069862) scale(0.1 -0.1)">
       <use xlink:href="#DejaVuSans-31"/>
       <use xlink:href="#DejaVuSans-2e" x="63.623047"/>
       <use xlink:href="#DejaVuSans-30" x="95.410156"/>
      </g>
     </g>
    </g>
    <g id="ytick_4">
     <g id="line2d_17">
      <path d="M 30.103125 59.830113 
L 225.403125 59.830113 
" clip-path="url(#pd24423e157)" style="fill: none; stroke: #b0b0b0; stroke-width: 0.8; stroke-linecap: square"/>
     </g>
     <g id="line2d_18">
      <g>
       <use xlink:href="#m2e81c414a3" x="30.103125" y="59.830113" style="stroke: #000000; stroke-width: 0.8"/>
      </g>
     </g>
     <g id="text_10">
      <!-- 1.5 -->
      <g transform="translate(7.2 63.629332) scale(0.1 -0.1)">
       <use xlink:href="#DejaVuSans-31"/>
       <use xlink:href="#DejaVuSans-2e" x="63.623047"/>
       <use xlink:href="#DejaVuSans-35" x="95.410156"/>
      </g>
     </g>
    </g>
    <g id="ytick_5">
     <g id="line2d_19">
      <path d="M 30.103125 31.389583 
L 225.403125 31.389583 
" clip-path="url(#pd24423e157)" style="fill: none; stroke: #b0b0b0; stroke-width: 0.8; stroke-linecap: square"/>
     </g>
     <g id="line2d_20">
      <g>
       <use xlink:href="#m2e81c414a3" x="30.103125" y="31.389583" style="stroke: #000000; stroke-width: 0.8"/>
      </g>
     </g>
     <g id="text_11">
      <!-- 2.0 -->
      <g transform="translate(7.2 35.188801) scale(0.1 -0.1)">
       <use xlink:href="#DejaVuSans-32"/>
       <use xlink:href="#DejaVuSans-2e" x="63.623047"/>
       <use xlink:href="#DejaVuSans-30" x="95.410156"/>
      </g>
     </g>
    </g>
   </g>
   <g id="line2d_21">
    <path d="M 26.914554 13.5 
L 27.711696 13.815472 
L 29.305982 13.983929 
L 38.074554 14.433951 
L 38.871696 15.562597 
L 39.668839 17.089701 
L 40.465982 20.490355 
L 42.060268 28.268751 
L 42.857411 47.542809 
L 44.451696 51.003286 
L 46.045982 53.743674 
L 46.843125 61.315704 
L 48.437411 64.458883 
L 50.031696 66.9231 
L 50.828839 73.964808 
L 51.625982 75.348181 
L 52.423125 75.798441 
L 54.017411 77.576779 
L 54.814554 82.606928 
L 55.611696 82.951681 
L 58.003125 84.825451 
L 58.800268 88.940736 
L 60.394554 89.848295 
L 61.191696 90.049766 
L 61.988839 90.828937 
L 62.785982 94.78931 
L 63.583125 94.556526 
L 65.974554 96.522246 
L 66.771696 99.099743 
L 67.568839 99.5907 
L 69.163125 100.269985 
L 69.960268 100.623103 
L 70.757411 102.339341 
L 72.351696 103.519398 
L 73.945982 104.20607 
L 74.743125 106.073507 
L 75.540268 106.377567 
L 76.337411 106.52237 
L 77.931696 107.172902 
L 78.728839 108.937402 
L 79.525982 109.056136 
L 81.120268 109.6385 
L 81.917411 109.913535 
L 82.714554 111.105499 
L 83.511696 111.033778 
L 85.105982 111.578859 
L 85.903125 111.804 
L 87.497411 113.309178 
L 88.294554 113.360267 
L 90.685982 113.994134 
L 91.483125 114.543021 
L 92.280268 114.672193 
L 93.874554 115.261879 
L 94.671696 116.426121 
L 95.468839 116.267353 
L 96.265982 116.30082 
L 97.063125 116.583474 
L 97.860268 116.535104 
L 98.657411 117.263977 
L 99.454554 117.616362 
L 100.251696 117.58088 
L 101.845982 118.020743 
L 102.643125 118.615233 
L 103.440268 118.671503 
L 105.831696 119.154719 
L 106.628839 119.896376 
L 107.425982 120.424041 
L 108.223125 120.491639 
L 109.817411 120.266724 
L 110.614554 121.406504 
L 111.411696 121.367099 
L 113.005982 121.118995 
L 113.803125 121.095568 
L 114.600268 122.082901 
L 115.397411 122.030302 
L 116.194554 122.130678 
L 117.788839 122.016406 
L 118.585982 121.717172 
L 119.383125 122.497151 
L 120.977411 122.736503 
L 121.774554 122.886368 
L 122.571696 123.765147 
L 123.368839 123.542477 
L 125.760268 123.591733 
L 126.557411 124.011169 
L 127.354554 123.886541 
L 129.745982 124.051116 
L 130.543125 124.767487 
L 132.934554 124.785096 
L 133.731696 124.906994 
L 134.528839 124.831194 
L 137.717411 125.358465 
L 138.514554 125.878535 
L 140.905982 125.708477 
L 141.703125 125.942566 
L 142.500268 125.469124 
L 144.094554 126.17337 
L 145.688839 126.271876 
L 146.485982 126.623066 
L 147.283125 126.229514 
L 148.080268 126.547412 
L 149.674554 126.679923 
L 150.471696 127.186383 
L 151.268839 127.031508 
L 152.065982 127.266275 
L 152.863125 127.085518 
L 153.660268 127.073918 
L 154.457411 127.970127 
L 156.051696 127.55114 
L 156.848839 127.594373 
L 157.645982 127.498886 
L 158.443125 127.057372 
L 159.240268 127.494625 
L 160.037411 127.497091 
L 160.834554 127.806796 
L 161.631696 127.733457 
L 162.428839 127.962666 
L 166.414554 127.999458 
L 167.211696 128.194384 
L 168.008839 128.577627 
L 169.603125 128.349521 
L 170.400268 128.885716 
L 173.588839 128.701825 
L 174.385982 129.11008 
L 175.980268 128.79219 
L 176.777411 129.001985 
L 178.371696 129.062021 
L 179.965982 129.259864 
L 181.560268 129.157553 
L 183.154554 129.335387 
L 184.748839 129.463653 
L 185.545982 129.520455 
L 186.343125 129.864613 
L 187.937411 129.778022 
L 189.531696 129.608202 
L 190.328839 130.070187 
L 191.125982 129.924419 
L 191.923125 129.632239 
L 192.720268 129.776565 
L 193.517411 129.792159 
L 194.314554 129.389681 
L 195.908839 130.150008 
L 197.503125 130.094406 
L 198.300268 130.845318 
L 199.097411 130.547381 
L 200.691696 130.433829 
L 201.488839 130.341843 
L 202.285982 130.576759 
L 203.083125 130.437955 
L 204.677411 130.512248 
L 205.474554 130.553539 
L 206.271696 131.119608 
L 207.068839 131.266917 
L 209.460268 130.763459 
L 210.257411 130.848023 
L 211.054554 131.317296 
L 212.648839 131.214302 
L 213.445982 131.012546 
L 214.243125 131.292311 
L 215.040268 130.996024 
L 216.634554 130.997756 
L 219.025982 131.013242 
L 219.823125 131.28175 
L 220.620268 131.374884 
L 221.417411 131.347647 
L 223.011696 131.593269 
L 223.808839 131.449328 
L 224.605982 131.479215 
L 225.403125 131.391474 
L 225.403125 131.391474 
" clip-path="url(#pd24423e157)" style="fill: none; stroke: #1f77b4; stroke-width: 1.5; stroke-linecap: square"/>
   </g>
   <g id="line2d_22">
    <path d="M 26.914554 139.407814 
L 27.711696 139.5 
L 29.305982 139.434997 
L 33.291696 139.33572 
L 34.088839 139.202894 
L 34.885982 139.351084 
L 35.683125 139.299082 
L 37.277411 138.91852 
L 38.074554 138.444479 
L 38.871696 133.531554 
L 39.668839 132.725519 
L 41.263125 131.860389 
L 42.060268 131.014865 
L 42.857411 124.260962 
L 43.654554 123.469109 
L 44.451696 123.537658 
L 45.248839 122.755259 
L 46.045982 122.317751 
L 46.843125 119.145827 
L 48.437411 117.67558 
L 49.234554 117.373021 
L 50.031696 116.917842 
L 50.828839 114.683084 
L 51.625982 114.132333 
L 52.423125 114.238701 
L 54.017411 113.909782 
L 54.814554 111.761501 
L 55.611696 111.742591 
L 56.408839 111.578705 
L 58.003125 110.819244 
L 58.800268 108.485356 
L 59.597411 108.686274 
L 60.394554 108.64609 
L 61.191696 108.727639 
L 61.988839 108.484277 
L 62.785982 106.641638 
L 63.583125 107.182934 
L 65.177411 106.925287 
L 65.974554 106.763624 
L 66.771696 106.324897 
L 67.568839 106.071976 
L 68.365982 105.967184 
L 69.163125 105.737507 
L 69.960268 105.676248 
L 70.757411 104.939744 
L 72.351696 104.588335 
L 73.945982 104.541471 
L 74.743125 103.772056 
L 77.134554 103.626686 
L 77.931696 103.430394 
L 78.728839 102.755648 
L 81.120268 102.39045 
L 81.917411 102.220724 
L 82.714554 101.635235 
L 83.511696 101.715602 
L 85.903125 101.381728 
L 87.497411 100.699193 
L 89.091696 100.553823 
L 89.888839 100.432762 
L 90.685982 100.585734 
L 91.483125 99.997162 
L 93.874554 99.479057 
L 94.671696 98.90275 
L 96.265982 98.863354 
L 97.063125 98.730197 
L 97.860268 98.752875 
L 98.657411 98.013984 
L 99.454554 97.933616 
L 100.251696 98.084896 
L 105.831696 97.529932 
L 107.425982 96.978665 
L 109.020268 97.042486 
L 109.817411 97.077728 
L 110.614554 96.794293 
L 111.411696 96.702107 
L 113.803125 96.8521 
L 114.600268 96.38773 
L 115.397411 96.451551 
L 116.194554 96.384578 
L 117.788839 96.461516 
L 118.585982 96.817931 
L 119.383125 96.477552 
L 120.977411 96.300271 
L 121.774554 96.204604 
L 122.571696 95.919709 
L 124.165982 95.894496 
L 125.760268 95.90977 
L 127.354554 95.7117 
L 129.745982 95.726803 
L 145.688839 94.958908 
L 149.674554 94.855574 
L 150.471696 94.577104 
L 151.268839 94.655108 
L 152.065982 94.54086 
L 152.863125 94.677563 
L 153.660268 94.693463 
L 154.457411 94.369095 
L 156.051696 94.573953 
L 157.645982 94.549365 
L 158.443125 94.657471 
L 160.037411 94.542436 
L 160.834554 94.464827 
L 161.631696 94.5086 
L 162.428839 94.411642 
L 164.820268 94.423461 
L 166.414554 94.388005 
L 168.008839 94.079143 
L 169.603125 94.241259 
L 170.400268 93.919984 
L 171.994554 94.183147 
L 175.183125 94.014534 
L 175.980268 94.088598 
L 179.168839 93.841981 
L 183.154554 94.080719 
L 187.140268 93.782887 
L 189.531696 93.860156 
L 190.328839 93.494511 
L 191.923125 93.793918 
L 193.517411 93.74355 
L 194.314554 93.948349 
L 197.503125 93.715109 
L 198.300268 93.262864 
L 199.894554 93.437781 
L 201.488839 93.527402 
L 202.285982 93.428326 
L 203.083125 93.577242 
L 205.474554 93.529298 
L 207.068839 93.241591 
L 209.460268 93.448716 
L 211.851696 93.191952 
L 213.445982 93.33211 
L 214.243125 93.272319 
L 215.040268 93.381051 
L 222.214554 93.116312 
L 223.011696 93.076129 
L 223.808839 93.187225 
L 225.403125 93.256269 
L 225.403125 93.256269 
" clip-path="url(#pd24423e157)" style="fill: none; stroke-dasharray: 5.55,2.4; stroke-dashoffset: 0; stroke: #bf00bf; stroke-width: 1.5"/>
   </g>
   <g id="line2d_23">
    <path d="M 30.103125 139.435158 
L 34.088839 139.463598 
L 38.074554 135.430731 
L 42.060268 122.70075 
L 46.045982 121.506247 
L 50.031696 115.573553 
L 54.017411 111.995734 
L 58.003125 110.829672 
L 61.988839 107.695526 
L 65.974554 107.433873 
L 69.960268 105.090373 
L 73.945982 103.907247 
L 77.931696 102.991462 
L 81.917411 102.604671 
L 85.903125 102.854948 
L 89.888839 100.403374 
L 93.874554 100.579705 
L 97.860268 98.58318 
L 101.845982 99.157679 
L 105.831696 99.66392 
L 109.817411 98.298775 
L 113.803125 98.600244 
L 117.788839 97.968864 
L 121.774554 96.54115 
L 125.760268 97.769781 
L 129.745982 96.723169 
L 133.731696 97.542256 
L 137.717411 96.819867 
L 141.703125 95.869953 
L 145.688839 96.529774 
L 149.674554 96.535462 
L 153.660268 95.642429 
L 157.645982 95.522979 
L 161.631696 96.097478 
L 165.617411 96.364819 
L 169.603125 96.381883 
L 173.588839 95.915458 
L 177.574554 96.433076 
L 181.560268 95.164628 
L 185.545982 95.352336 
L 189.531696 95.136188 
L 193.517411 96.165735 
L 197.503125 95.011049 
L 201.488839 96.182799 
L 205.474554 95.107747 
L 209.460268 96.279497 
L 213.445982 95.176004 
L 217.431696 94.846094 
L 221.417411 94.971233 
L 225.403125 94.914351 
" clip-path="url(#pd24423e157)" style="fill: none; stroke-dasharray: 9.6,2.4,1.5,2.4; stroke-dashoffset: 0; stroke: #008000; stroke-width: 1.5"/>
   </g>
   <g id="patch_3">
    <path d="M 30.103125 145.8 
L 30.103125 7.2 
" style="fill: none; stroke: #000000; stroke-width: 0.8; stroke-linejoin: miter; stroke-linecap: square"/>
   </g>
   <g id="patch_4">
    <path d="M 225.403125 145.8 
L 225.403125 7.2 
" style="fill: none; stroke: #000000; stroke-width: 0.8; stroke-linejoin: miter; stroke-linecap: square"/>
   </g>
   <g id="patch_5">
    <path d="M 30.103125 145.8 
L 225.403125 145.8 
" style="fill: none; stroke: #000000; stroke-width: 0.8; stroke-linejoin: miter; stroke-linecap: square"/>
   </g>
   <g id="patch_6">
    <path d="M 30.103125 7.2 
L 225.403125 7.2 
" style="fill: none; stroke: #000000; stroke-width: 0.8; stroke-linejoin: miter; stroke-linecap: square"/>
   </g>
   <g id="legend_1">
    <g id="patch_7">
     <path d="M 140.634375 59.234375 
L 218.403125 59.234375 
Q 220.403125 59.234375 220.403125 57.234375 
L 220.403125 14.2 
Q 220.403125 12.2 218.403125 12.2 
L 140.634375 12.2 
Q 138.634375 12.2 138.634375 14.2 
L 138.634375 57.234375 
Q 138.634375 59.234375 140.634375 59.234375 
z
" style="fill: #ffffff; opacity: 0.8; stroke: #cccccc; stroke-linejoin: miter"/>
    </g>
    <g id="line2d_24">
     <path d="M 142.634375 20.298438 
L 152.634375 20.298438 
L 162.634375 20.298438 
" style="fill: none; stroke: #1f77b4; stroke-width: 1.5; stroke-linecap: square"/>
    </g>
    <g id="text_12">
     <!-- train loss -->
     <g transform="translate(170.634375 23.798438) scale(0.1 -0.1)">
      <defs>
       <path id="DejaVuSans-74" d="M 1172 4494 
L 1172 3500 
L 2356 3500 
L 2356 3053 
L 1172 3053 
L 1172 1153 
Q 1172 725 1289 603 
Q 1406 481 1766 481 
L 2356 481 
L 2356 0 
L 1766 0 
Q 1100 0 847 248 
Q 594 497 594 1153 
L 594 3053 
L 172 3053 
L 172 3500 
L 594 3500 
L 594 4494 
L 1172 4494 
z
" transform="scale(0.015625)"/>
       <path id="DejaVuSans-72" d="M 2631 2963 
Q 2534 3019 2420 3045 
Q 2306 3072 2169 3072 
Q 1681 3072 1420 2755 
Q 1159 2438 1159 1844 
L 1159 0 
L 581 0 
L 581 3500 
L 1159 3500 
L 1159 2956 
Q 1341 3275 1631 3429 
Q 1922 3584 2338 3584 
Q 2397 3584 2469 3576 
Q 2541 3569 2628 3553 
L 2631 2963 
z
" transform="scale(0.015625)"/>
       <path id="DejaVuSans-61" d="M 2194 1759 
Q 1497 1759 1228 1600 
Q 959 1441 959 1056 
Q 959 750 1161 570 
Q 1363 391 1709 391 
Q 2188 391 2477 730 
Q 2766 1069 2766 1631 
L 2766 1759 
L 2194 1759 
z
M 3341 1997 
L 3341 0 
L 2766 0 
L 2766 531 
Q 2569 213 2275 61 
Q 1981 -91 1556 -91 
Q 1019 -91 701 211 
Q 384 513 384 1019 
Q 384 1609 779 1909 
Q 1175 2209 1959 2209 
L 2766 2209 
L 2766 2266 
Q 2766 2663 2505 2880 
Q 2244 3097 1772 3097 
Q 1472 3097 1187 3025 
Q 903 2953 641 2809 
L 641 3341 
Q 956 3463 1253 3523 
Q 1550 3584 1831 3584 
Q 2591 3584 2966 3190 
Q 3341 2797 3341 1997 
z
" transform="scale(0.015625)"/>
       <path id="DejaVuSans-69" d="M 603 3500 
L 1178 3500 
L 1178 0 
L 603 0 
L 603 3500 
z
M 603 4863 
L 1178 4863 
L 1178 4134 
L 603 4134 
L 603 4863 
z
" transform="scale(0.015625)"/>
       <path id="DejaVuSans-6e" d="M 3513 2113 
L 3513 0 
L 2938 0 
L 2938 2094 
Q 2938 2591 2744 2837 
Q 2550 3084 2163 3084 
Q 1697 3084 1428 2787 
Q 1159 2491 1159 1978 
L 1159 0 
L 581 0 
L 581 3500 
L 1159 3500 
L 1159 2956 
Q 1366 3272 1645 3428 
Q 1925 3584 2291 3584 
Q 2894 3584 3203 3211 
Q 3513 2838 3513 2113 
z
" transform="scale(0.015625)"/>
       <path id="DejaVuSans-20" transform="scale(0.015625)"/>
       <path id="DejaVuSans-6c" d="M 603 4863 
L 1178 4863 
L 1178 0 
L 603 0 
L 603 4863 
z
" transform="scale(0.015625)"/>
       <path id="DejaVuSans-73" d="M 2834 3397 
L 2834 2853 
Q 2591 2978 2328 3040 
Q 2066 3103 1784 3103 
Q 1356 3103 1142 2972 
Q 928 2841 928 2578 
Q 928 2378 1081 2264 
Q 1234 2150 1697 2047 
L 1894 2003 
Q 2506 1872 2764 1633 
Q 3022 1394 3022 966 
Q 3022 478 2636 193 
Q 2250 -91 1575 -91 
Q 1294 -91 989 -36 
Q 684 19 347 128 
L 347 722 
Q 666 556 975 473 
Q 1284 391 1588 391 
Q 1994 391 2212 530 
Q 2431 669 2431 922 
Q 2431 1156 2273 1281 
Q 2116 1406 1581 1522 
L 1381 1569 
Q 847 1681 609 1914 
Q 372 2147 372 2553 
Q 372 3047 722 3315 
Q 1072 3584 1716 3584 
Q 2034 3584 2315 3537 
Q 2597 3491 2834 3397 
z
" transform="scale(0.015625)"/>
      </defs>
      <use xlink:href="#DejaVuSans-74"/>
      <use xlink:href="#DejaVuSans-72" x="39.208984"/>
      <use xlink:href="#DejaVuSans-61" x="80.322266"/>
      <use xlink:href="#DejaVuSans-69" x="141.601562"/>
      <use xlink:href="#DejaVuSans-6e" x="169.384766"/>
      <use xlink:href="#DejaVuSans-20" x="232.763672"/>
      <use xlink:href="#DejaVuSans-6c" x="264.550781"/>
      <use xlink:href="#DejaVuSans-6f" x="292.333984"/>
      <use xlink:href="#DejaVuSans-73" x="353.515625"/>
      <use xlink:href="#DejaVuSans-73" x="405.615234"/>
     </g>
    </g>
    <g id="line2d_25">
     <path d="M 142.634375 34.976563 
L 152.634375 34.976563 
L 162.634375 34.976563 
" style="fill: none; stroke-dasharray: 5.55,2.4; stroke-dashoffset: 0; stroke: #bf00bf; stroke-width: 1.5"/>
    </g>
    <g id="text_13">
     <!-- train acc -->
     <g transform="translate(170.634375 38.476563) scale(0.1 -0.1)">
      <use xlink:href="#DejaVuSans-74"/>
      <use xlink:href="#DejaVuSans-72" x="39.208984"/>
      <use xlink:href="#DejaVuSans-61" x="80.322266"/>
      <use xlink:href="#DejaVuSans-69" x="141.601562"/>
      <use xlink:href="#DejaVuSans-6e" x="169.384766"/>
      <use xlink:href="#DejaVuSans-20" x="232.763672"/>
      <use xlink:href="#DejaVuSans-61" x="264.550781"/>
      <use xlink:href="#DejaVuSans-63" x="325.830078"/>
      <use xlink:href="#DejaVuSans-63" x="380.810547"/>
     </g>
    </g>
    <g id="line2d_26">
     <path d="M 142.634375 49.654688 
L 152.634375 49.654688 
L 162.634375 49.654688 
" style="fill: none; stroke-dasharray: 9.6,2.4,1.5,2.4; stroke-dashoffset: 0; stroke: #008000; stroke-width: 1.5"/>
    </g>
    <g id="text_14">
     <!-- test acc -->
     <g transform="translate(170.634375 53.154688) scale(0.1 -0.1)">
      <use xlink:href="#DejaVuSans-74"/>
      <use xlink:href="#DejaVuSans-65" x="39.208984"/>
      <use xlink:href="#DejaVuSans-73" x="100.732422"/>
      <use xlink:href="#DejaVuSans-74" x="152.832031"/>
      <use xlink:href="#DejaVuSans-20" x="192.041016"/>
      <use xlink:href="#DejaVuSans-61" x="223.828125"/>
      <use xlink:href="#DejaVuSans-63" x="285.107422"/>
      <use xlink:href="#DejaVuSans-63" x="340.087891"/>
     </g>
    </g>
   </g>
  </g>
 </g>
 <defs>
  <clipPath id="pd24423e157">
   <rect x="30.103125" y="7.2" width="195.3" height="138.6"/>
  </clipPath>
 </defs>
</svg>
