<?xml version="1.0" encoding="utf-8" standalone="no"?>
<!DOCTYPE svg PUBLIC "-//W3C//DTD SVG 1.1//EN"
  "http://www.w3.org/Graphics/SVG/1.1/DTD/svg11.dtd">
<svg xmlns:xlink="http://www.w3.org/1999/xlink" width="238.965625pt" height="183.35625pt" viewBox="0 0 238.965625 183.35625" xmlns="http://www.w3.org/2000/svg" version="1.1">
 <metadata>
  <rdf:RDF xmlns:dc="http://purl.org/dc/elements/1.1/" xmlns:cc="http://creativecommons.org/ns#" xmlns:rdf="http://www.w3.org/1999/02/22-rdf-syntax-ns#">
   <cc:Work>
    <dc:type rdf:resource="http://purl.org/dc/dcmitype/StillImage"/>
    <dc:date>2024-01-08T08:20:59.838998</dc:date>
    <dc:format>image/svg+xml</dc:format>
    <dc:creator>
     <cc:Agent>
      <dc:title>Matplotlib v3.7.2, https://matplotlib.org/</dc:title>
     </cc:Agent>
    </dc:creator>
   </cc:Work>
  </rdf:RDF>
 </metadata>
 <defs>
  <style type="text/css">*{stroke-linejoin: round; stroke-linecap: butt}</style>
 </defs>
 <g id="figure_1">
  <g id="patch_1">
   <path d="M 0 183.35625 
L 238.965625 183.35625 
L 238.965625 0 
L 0 0 
z
" style="fill: #ffffff"/>
  </g>
  <g id="axes_1">
   <g id="patch_2">
    <path d="M 30.103125 145.8 
L 225.403125 145.8 
L 225.403125 7.2 
L 30.103125 7.2 
z
" style="fill: #ffffff"/>
   </g>
   <g id="matplotlib.axis_1">
    <g id="xtick_1">
     <g id="line2d_1">
      <path d="M 65.974554 145.8 
L 65.974554 7.2 
" clip-path="url(#p8d7da2fe03)" style="fill: none; stroke: #b0b0b0; stroke-width: 0.8; stroke-linecap: square"/>
     </g>
     <g id="line2d_2">
      <defs>
       <path id="m3ef3c8dee3" d="M 0 0 
L 0 3.5 
" style="stroke: #000000; stroke-width: 0.8"/>
      </defs>
      <g>
       <use xlink:href="#m3ef3c8dee3" x="65.974554" y="145.8" style="stroke: #000000; stroke-width: 0.8"/>
      </g>
     </g>
     <g id="text_1">
      <!-- 10 -->
      <g transform="translate(59.612054 160.398438) scale(0.1 -0.1)">
       <defs>
        <path id="DejaVuSans-31" d="M 794 531 
L 1825 531 
L 1825 4091 
L 703 3866 
L 703 4441 
L 1819 4666 
L 2450 4666 
L 2450 531 
L 3481 531 
L 3481 0 
L 794 0 
L 794 531 
z
" transform="scale(0.015625)"/>
        <path id="DejaVuSans-30" d="M 2034 4250 
Q 1547 4250 1301 3770 
Q 1056 3291 1056 2328 
Q 1056 1369 1301 889 
Q 1547 409 2034 409 
Q 2525 409 2770 889 
Q 3016 1369 3016 2328 
Q 3016 3291 2770 3770 
Q 2525 4250 2034 4250 
z
M 2034 4750 
Q 2819 4750 3233 4129 
Q 3647 3509 3647 2328 
Q 3647 1150 3233 529 
Q 2819 -91 2034 -91 
Q 1250 -91 836 529 
Q 422 1150 422 2328 
Q 422 3509 836 4129 
Q 1250 4750 2034 4750 
z
" transform="scale(0.015625)"/>
       </defs>
       <use xlink:href="#DejaVuSans-31"/>
       <use xlink:href="#DejaVuSans-30" x="63.623047"/>
      </g>
     </g>
    </g>
    <g id="xtick_2">
     <g id="line2d_3">
      <path d="M 105.831696 145.8 
L 105.831696 7.2 
" clip-path="url(#p8d7da2fe03)" style="fill: none; stroke: #b0b0b0; stroke-width: 0.8; stroke-linecap: square"/>
     </g>
     <g id="line2d_4">
      <g>
       <use xlink:href="#m3ef3c8dee3" x="105.831696" y="145.8" style="stroke: #000000; stroke-width: 0.8"/>
      </g>
     </g>
     <g id="text_2">
      <!-- 20 -->
      <g transform="translate(99.469196 160.398438) scale(0.1 -0.1)">
       <defs>
        <path id="DejaVuSans-32" d="M 1228 531 
L 3431 531 
L 3431 0 
L 469 0 
L 469 531 
Q 828 903 1448 1529 
Q 2069 2156 2228 2338 
Q 2531 2678 2651 2914 
Q 2772 3150 2772 3378 
Q 2772 3750 2511 3984 
Q 2250 4219 1831 4219 
Q 1534 4219 1204 4116 
Q 875 4013 500 3803 
L 500 4441 
Q 881 4594 1212 4672 
Q 1544 4750 1819 4750 
Q 2544 4750 2975 4387 
Q 3406 4025 3406 3419 
Q 3406 3131 3298 2873 
Q 3191 2616 2906 2266 
Q 2828 2175 2409 1742 
Q 1991 1309 1228 531 
z
" transform="scale(0.015625)"/>
       </defs>
       <use xlink:href="#DejaVuSans-32"/>
       <use xlink:href="#DejaVuSans-30" x="63.623047"/>
      </g>
     </g>
    </g>
    <g id="xtick_3">
     <g id="line2d_5">
      <path d="M 145.688839 145.8 
L 145.688839 7.2 
" clip-path="url(#p8d7da2fe03)" style="fill: none; stroke: #b0b0b0; stroke-width: 0.8; stroke-linecap: square"/>
     </g>
     <g id="line2d_6">
      <g>
       <use xlink:href="#m3ef3c8dee3" x="145.688839" y="145.8" style="stroke: #000000; stroke-width: 0.8"/>
      </g>
     </g>
     <g id="text_3">
      <!-- 30 -->
      <g transform="translate(139.326339 160.398438) scale(0.1 -0.1)">
       <defs>
        <path id="DejaVuSans-33" d="M 2597 2516 
Q 3050 2419 3304 2112 
Q 3559 1806 3559 1356 
Q 3559 666 3084 287 
Q 2609 -91 1734 -91 
Q 1441 -91 1130 -33 
Q 819 25 488 141 
L 488 750 
Q 750 597 1062 519 
Q 1375 441 1716 441 
Q 2309 441 2620 675 
Q 2931 909 2931 1356 
Q 2931 1769 2642 2001 
Q 2353 2234 1838 2234 
L 1294 2234 
L 1294 2753 
L 1863 2753 
Q 2328 2753 2575 2939 
Q 2822 3125 2822 3475 
Q 2822 3834 2567 4026 
Q 2313 4219 1838 4219 
Q 1578 4219 1281 4162 
Q 984 4106 628 3988 
L 628 4550 
Q 988 4650 1302 4700 
Q 1616 4750 1894 4750 
Q 2613 4750 3031 4423 
Q 3450 4097 3450 3541 
Q 3450 3153 3228 2886 
Q 3006 2619 2597 2516 
z
" transform="scale(0.015625)"/>
       </defs>
       <use xlink:href="#DejaVuSans-33"/>
       <use xlink:href="#DejaVuSans-30" x="63.623047"/>
      </g>
     </g>
    </g>
    <g id="xtick_4">
     <g id="line2d_7">
      <path d="M 185.545982 145.8 
L 185.545982 7.2 
" clip-path="url(#p8d7da2fe03)" style="fill: none; stroke: #b0b0b0; stroke-width: 0.8; stroke-linecap: square"/>
     </g>
     <g id="line2d_8">
      <g>
       <use xlink:href="#m3ef3c8dee3" x="185.545982" y="145.8" style="stroke: #000000; stroke-width: 0.8"/>
      </g>
     </g>
     <g id="text_4">
      <!-- 40 -->
      <g transform="translate(179.183482 160.398438) scale(0.1 -0.1)">
       <defs>
        <path id="DejaVuSans-34" d="M 2419 4116 
L 825 1625 
L 2419 1625 
L 2419 4116 
z
M 2253 4666 
L 3047 4666 
L 3047 1625 
L 3713 1625 
L 3713 1100 
L 3047 1100 
L 3047 0 
L 2419 0 
L 2419 1100 
L 313 1100 
L 313 1709 
L 2253 4666 
z
" transform="scale(0.015625)"/>
       </defs>
       <use xlink:href="#DejaVuSans-34"/>
       <use xlink:href="#DejaVuSans-30" x="63.623047"/>
      </g>
     </g>
    </g>
    <g id="xtick_5">
     <g id="line2d_9">
      <path d="M 225.403125 145.8 
L 225.403125 7.2 
" clip-path="url(#p8d7da2fe03)" style="fill: none; stroke: #b0b0b0; stroke-width: 0.8; stroke-linecap: square"/>
     </g>
     <g id="line2d_10">
      <g>
       <use xlink:href="#m3ef3c8dee3" x="225.403125" y="145.8" style="stroke: #000000; stroke-width: 0.8"/>
      </g>
     </g>
     <g id="text_5">
      <!-- 50 -->
      <g transform="translate(219.040625 160.398438) scale(0.1 -0.1)">
       <defs>
        <path id="DejaVuSans-35" d="M 691 4666 
L 3169 4666 
L 3169 4134 
L 1269 4134 
L 1269 2991 
Q 1406 3038 1543 3061 
Q 1681 3084 1819 3084 
Q 2600 3084 3056 2656 
Q 3513 2228 3513 1497 
Q 3513 744 3044 326 
Q 2575 -91 1722 -91 
Q 1428 -91 1123 -41 
Q 819 9 494 109 
L 494 744 
Q 775 591 1075 516 
Q 1375 441 1709 441 
Q 2250 441 2565 725 
Q 2881 1009 2881 1497 
Q 2881 1984 2565 2268 
Q 2250 2553 1709 2553 
Q 1456 2553 1204 2497 
Q 953 2441 691 2322 
L 691 4666 
z
" transform="scale(0.015625)"/>
       </defs>
       <use xlink:href="#DejaVuSans-35"/>
       <use xlink:href="#DejaVuSans-30" x="63.623047"/>
      </g>
     </g>
    </g>
    <g id="text_6">
     <!-- epoch -->
     <g transform="translate(112.525 174.076563) scale(0.1 -0.1)">
      <defs>
       <path id="DejaVuSans-65" d="M 3597 1894 
L 3597 1613 
L 953 1613 
Q 991 1019 1311 708 
Q 1631 397 2203 397 
Q 2534 397 2845 478 
Q 3156 559 3463 722 
L 3463 178 
Q 3153 47 2828 -22 
Q 2503 -91 2169 -91 
Q 1331 -91 842 396 
Q 353 884 353 1716 
Q 353 2575 817 3079 
Q 1281 3584 2069 3584 
Q 2775 3584 3186 3129 
Q 3597 2675 3597 1894 
z
M 3022 2063 
Q 3016 2534 2758 2815 
Q 2500 3097 2075 3097 
Q 1594 3097 1305 2825 
Q 1016 2553 972 2059 
L 3022 2063 
z
" transform="scale(0.015625)"/>
       <path id="DejaVuSans-70" d="M 1159 525 
L 1159 -1331 
L 581 -1331 
L 581 3500 
L 1159 3500 
L 1159 2969 
Q 1341 3281 1617 3432 
Q 1894 3584 2278 3584 
Q 2916 3584 3314 3078 
Q 3713 2572 3713 1747 
Q 3713 922 3314 415 
Q 2916 -91 2278 -91 
Q 1894 -91 1617 61 
Q 1341 213 1159 525 
z
M 3116 1747 
Q 3116 2381 2855 2742 
Q 2594 3103 2138 3103 
Q 1681 3103 1420 2742 
Q 1159 2381 1159 1747 
Q 1159 1113 1420 752 
Q 1681 391 2138 391 
Q 2594 391 2855 752 
Q 3116 1113 3116 1747 
z
" transform="scale(0.015625)"/>
       <path id="DejaVuSans-6f" d="M 1959 3097 
Q 1497 3097 1228 2736 
Q 959 2375 959 1747 
Q 959 1119 1226 758 
Q 1494 397 1959 397 
Q 2419 397 2687 759 
Q 2956 1122 2956 1747 
Q 2956 2369 2687 2733 
Q 2419 3097 1959 3097 
z
M 1959 3584 
Q 2709 3584 3137 3096 
Q 3566 2609 3566 1747 
Q 3566 888 3137 398 
Q 2709 -91 1959 -91 
Q 1206 -91 779 398 
Q 353 888 353 1747 
Q 353 2609 779 3096 
Q 1206 3584 1959 3584 
z
" transform="scale(0.015625)"/>
       <path id="DejaVuSans-63" d="M 3122 3366 
L 3122 2828 
Q 2878 2963 2633 3030 
Q 2388 3097 2138 3097 
Q 1578 3097 1268 2742 
Q 959 2388 959 1747 
Q 959 1106 1268 751 
Q 1578 397 2138 397 
Q 2388 397 2633 464 
Q 2878 531 3122 666 
L 3122 134 
Q 2881 22 2623 -34 
Q 2366 -91 2075 -91 
Q 1284 -91 818 406 
Q 353 903 353 1747 
Q 353 2603 823 3093 
Q 1294 3584 2113 3584 
Q 2378 3584 2631 3529 
Q 2884 3475 3122 3366 
z
" transform="scale(0.015625)"/>
       <path id="DejaVuSans-68" d="M 3513 2113 
L 3513 0 
L 2938 0 
L 2938 2094 
Q 2938 2591 2744 2837 
Q 2550 3084 2163 3084 
Q 1697 3084 1428 2787 
Q 1159 2491 1159 1978 
L 1159 0 
L 581 0 
L 581 4863 
L 1159 4863 
L 1159 2956 
Q 1366 3272 1645 3428 
Q 1925 3584 2291 3584 
Q 2894 3584 3203 3211 
Q 3513 2838 3513 2113 
z
" transform="scale(0.015625)"/>
      </defs>
      <use xlink:href="#DejaVuSans-65"/>
      <use xlink:href="#DejaVuSans-70" x="61.523438"/>
      <use xlink:href="#DejaVuSans-6f" x="125"/>
      <use xlink:href="#DejaVuSans-63" x="186.181641"/>
      <use xlink:href="#DejaVuSans-68" x="241.162109"/>
     </g>
    </g>
   </g>
   <g id="matplotlib.axis_2">
    <g id="ytick_1">
     <g id="line2d_11">
      <path d="M 30.103125 144.890817 
L 225.403125 144.890817 
" clip-path="url(#p8d7da2fe03)" style="fill: none; stroke: #b0b0b0; stroke-width: 0.8; stroke-linecap: square"/>
     </g>
     <g id="line2d_12">
      <defs>
       <path id="m44c41c6fe4" d="M 0 0 
L -3.5 0 
" style="stroke: #000000; stroke-width: 0.8"/>
      </defs>
      <g>
       <use xlink:href="#m44c41c6fe4" x="30.103125" y="144.890817" style="stroke: #000000; stroke-width: 0.8"/>
      </g>
     </g>
     <g id="text_7">
      <!-- 0.0 -->
      <g transform="translate(7.2 148.690035) scale(0.1 -0.1)">
       <defs>
        <path id="DejaVuSans-2e" d="M 684 794 
L 1344 794 
L 1344 0 
L 684 0 
L 684 794 
z
" transform="scale(0.015625)"/>
       </defs>
       <use xlink:href="#DejaVuSans-30"/>
       <use xlink:href="#DejaVuSans-2e" x="63.623047"/>
       <use xlink:href="#DejaVuSans-30" x="95.410156"/>
      </g>
     </g>
    </g>
    <g id="ytick_2">
     <g id="line2d_13">
      <path d="M 30.103125 116.836186 
L 225.403125 116.836186 
" clip-path="url(#p8d7da2fe03)" style="fill: none; stroke: #b0b0b0; stroke-width: 0.8; stroke-linecap: square"/>
     </g>
     <g id="line2d_14">
      <g>
       <use xlink:href="#m44c41c6fe4" x="30.103125" y="116.836186" style="stroke: #000000; stroke-width: 0.8"/>
      </g>
     </g>
     <g id="text_8">
      <!-- 0.5 -->
      <g transform="translate(7.2 120.635405) scale(0.1 -0.1)">
       <use xlink:href="#DejaVuSans-30"/>
       <use xlink:href="#DejaVuSans-2e" x="63.623047"/>
       <use xlink:href="#DejaVuSans-35" x="95.410156"/>
      </g>
     </g>
    </g>
    <g id="ytick_3">
     <g id="line2d_15">
      <path d="M 30.103125 88.781556 
L 225.403125 88.781556 
" clip-path="url(#p8d7da2fe03)" style="fill: none; stroke: #b0b0b0; stroke-width: 0.8; stroke-linecap: square"/>
     </g>
     <g id="line2d_16">
      <g>
       <use xlink:href="#m44c41c6fe4" x="30.103125" y="88.781556" style="stroke: #000000; stroke-width: 0.8"/>
      </g>
     </g>
     <g id="text_9">
      <!-- 1.0 -->
      <g transform="translate(7.2 92.580774) scale(0.1 -0.1)">
       <use xlink:href="#DejaVuSans-31"/>
       <use xlink:href="#DejaVuSans-2e" x="63.623047"/>
       <use xlink:href="#DejaVuSans-30" x="95.410156"/>
      </g>
     </g>
    </g>
    <g id="ytick_4">
     <g id="line2d_17">
      <path d="M 30.103125 60.726925 
L 225.403125 60.726925 
" clip-path="url(#p8d7da2fe03)" style="fill: none; stroke: #b0b0b0; stroke-width: 0.8; stroke-linecap: square"/>
     </g>
     <g id="line2d_18">
      <g>
       <use xlink:href="#m44c41c6fe4" x="30.103125" y="60.726925" style="stroke: #000000; stroke-width: 0.8"/>
      </g>
     </g>
     <g id="text_10">
      <!-- 1.5 -->
      <g transform="translate(7.2 64.526144) scale(0.1 -0.1)">
       <use xlink:href="#DejaVuSans-31"/>
       <use xlink:href="#DejaVuSans-2e" x="63.623047"/>
       <use xlink:href="#DejaVuSans-35" x="95.410156"/>
      </g>
     </g>
    </g>
    <g id="ytick_5">
     <g id="line2d_19">
      <path d="M 30.103125 32.672295 
L 225.403125 32.672295 
" clip-path="url(#p8d7da2fe03)" style="fill: none; stroke: #b0b0b0; stroke-width: 0.8; stroke-linecap: square"/>
     </g>
     <g id="line2d_20">
      <g>
       <use xlink:href="#m44c41c6fe4" x="30.103125" y="32.672295" style="stroke: #000000; stroke-width: 0.8"/>
      </g>
     </g>
     <g id="text_11">
      <!-- 2.0 -->
      <g transform="translate(7.2 36.471513) scale(0.1 -0.1)">
       <use xlink:href="#DejaVuSans-32"/>
       <use xlink:href="#DejaVuSans-2e" x="63.623047"/>
       <use xlink:href="#DejaVuSans-30" x="95.410156"/>
      </g>
     </g>
    </g>
   </g>
   <g id="line2d_21">
    <path d="M 26.914554 13.5 
L 27.711696 14.567617 
L 28.508839 14.934783 
L 30.103125 15.230671 
L 30.900268 15.666031 
L 38.074554 15.789441 
L 39.668839 16.288936 
L 40.465982 16.830321 
L 41.263125 18.432031 
L 42.060268 21.466853 
L 42.857411 42.736195 
L 43.654554 45.559555 
L 45.248839 49.426423 
L 46.045982 51.016033 
L 46.843125 59.90563 
L 49.234554 64.23342 
L 50.031696 65.550161 
L 50.828839 72.752846 
L 51.625982 73.568715 
L 52.423125 74.176331 
L 54.017411 75.728692 
L 54.814554 79.861666 
L 55.611696 80.549307 
L 56.408839 80.975326 
L 58.003125 82.348152 
L 58.800268 86.443502 
L 59.597411 86.720433 
L 61.988839 88.486742 
L 62.785982 91.296841 
L 63.583125 92.516623 
L 64.380268 92.89249 
L 65.974554 93.956922 
L 66.771696 89.144103 
L 67.568839 93.431051 
L 69.163125 95.9436 
L 69.960268 96.708346 
L 70.757411 100.595391 
L 71.554554 101.04375 
L 72.351696 101.185785 
L 73.148839 101.676695 
L 73.945982 101.892313 
L 74.743125 104.45922 
L 75.540268 104.254047 
L 77.931696 104.988224 
L 78.728839 106.236163 
L 79.525982 107.168902 
L 81.917411 107.85483 
L 82.714554 110.086559 
L 83.511696 110.11773 
L 84.308839 110.419771 
L 85.105982 110.256241 
L 85.903125 110.441433 
L 86.700268 111.79708 
L 87.497411 111.824373 
L 88.294554 112.168545 
L 89.888839 112.521245 
L 90.685982 113.652227 
L 91.483125 113.652342 
L 92.280268 113.910717 
L 93.874554 114.134875 
L 94.671696 114.666014 
L 95.468839 114.879797 
L 96.265982 115.465138 
L 97.860268 115.732006 
L 98.657411 116.963965 
L 101.845982 117.153035 
L 102.643125 118.242554 
L 103.440268 118.342296 
L 105.034554 118.189905 
L 105.831696 118.444385 
L 106.628839 118.929723 
L 108.223125 119.022273 
L 109.817411 119.514357 
L 110.614554 120.090456 
L 111.411696 120.432403 
L 112.208839 120.240327 
L 113.803125 120.438086 
L 114.600268 120.954387 
L 116.194554 121.040802 
L 116.991696 121.205235 
L 117.788839 121.193096 
L 118.585982 121.863187 
L 119.383125 121.75441 
L 120.180268 122.002735 
L 121.774554 122.08744 
L 122.571696 123.068748 
L 123.368839 122.632626 
L 124.165982 122.910347 
L 124.963125 122.936012 
L 125.760268 122.810921 
L 126.557411 123.665393 
L 128.151696 123.522076 
L 129.745982 123.362259 
L 130.543125 123.457074 
L 131.340268 123.822627 
L 132.137411 124.048968 
L 133.731696 124.06278 
L 134.528839 124.212896 
L 135.325982 124.485836 
L 137.717411 124.49464 
L 138.514554 125.238195 
L 139.311696 125.282838 
L 141.703125 125.041572 
L 143.297411 125.152169 
L 144.094554 125.426842 
L 144.891696 125.340313 
L 146.485982 125.511115 
L 147.283125 126.385228 
L 148.080268 126.108227 
L 149.674554 125.986812 
L 151.268839 126.314944 
L 152.065982 126.164736 
L 153.660268 126.323337 
L 154.457411 127.887105 
L 155.254554 127.297485 
L 156.051696 126.933485 
L 156.848839 126.712179 
L 157.645982 126.742115 
L 158.443125 127.447206 
L 159.240268 127.082429 
L 160.037411 127.354728 
L 161.631696 127.081852 
L 162.428839 127.056624 
L 163.225982 127.388963 
L 165.617411 127.478745 
L 166.414554 127.869729 
L 170.400268 127.548854 
L 171.197411 127.734844 
L 171.994554 128.09193 
L 173.588839 128.051351 
L 174.385982 128.521656 
L 175.183125 128.374599 
L 177.574554 128.376154 
L 178.371696 128.202213 
L 179.168839 128.478835 
L 179.965982 128.469847 
L 180.763125 128.667451 
L 181.560268 128.617801 
L 182.357411 129.651648 
L 183.154554 129.053989 
L 183.951696 128.945665 
L 184.748839 129.104049 
L 185.545982 128.901709 
L 186.343125 128.862537 
L 187.140268 129.11605 
L 189.531696 129.24778 
L 190.328839 128.874087 
L 191.125982 129.216321 
L 191.923125 129.406262 
L 193.517411 129.406401 
L 194.314554 129.637001 
L 195.111696 129.539144 
L 195.908839 129.585176 
L 196.705982 129.830963 
L 197.503125 129.57504 
L 198.300268 129.778892 
L 201.488839 129.788692 
L 202.285982 130.32839 
L 203.880268 130.207453 
L 205.474554 130.190382 
L 206.271696 130.417375 
L 207.068839 130.487039 
L 208.663125 130.444505 
L 209.460268 130.463613 
L 210.257411 131.343605 
L 211.054554 130.648211 
L 211.851696 130.493914 
L 213.445982 130.533099 
L 214.243125 130.942202 
L 215.040268 130.649477 
L 215.837411 130.827152 
L 217.431696 130.862007 
L 218.228839 130.667413 
L 219.025982 130.671537 
L 220.620268 130.995442 
L 222.214554 130.912253 
L 223.011696 131.19459 
L 225.403125 131.196149 
L 225.403125 131.196149 
" clip-path="url(#p8d7da2fe03)" style="fill: none; stroke: #1f77b4; stroke-width: 1.5; stroke-linecap: square"/>
   </g>
   <g id="line2d_22">
    <path d="M 26.914554 139.140923 
L 27.711696 139.27616 
L 29.305982 139.142089 
L 30.103125 139.175153 
L 30.900268 139.336783 
L 32.494554 139.301031 
L 33.291696 139.139757 
L 34.088839 139.131201 
L 34.885982 139.5 
L 36.480268 138.974597 
L 38.074554 138.712252 
L 38.871696 137.802546 
L 39.668839 136.093433 
L 41.263125 134.257244 
L 42.060268 133.607244 
L 42.857411 129.595074 
L 44.451696 125.965444 
L 45.248839 124.762692 
L 46.045982 124.024718 
L 46.843125 120.063215 
L 47.640268 118.992979 
L 48.437411 118.584937 
L 50.031696 118.16317 
L 50.828839 116.519079 
L 51.625982 115.845227 
L 52.423125 115.636154 
L 53.220268 115.54211 
L 54.017411 115.272608 
L 54.814554 114.303995 
L 55.611696 113.669781 
L 56.408839 113.43506 
L 57.205982 113.022743 
L 58.003125 112.792579 
L 58.800268 110.545346 
L 59.597411 110.391456 
L 61.988839 109.360562 
L 62.785982 107.682057 
L 63.583125 107.222719 
L 65.974554 106.639263 
L 66.771696 108.362904 
L 67.568839 106.672445 
L 68.365982 106.146265 
L 69.960268 105.526429 
L 70.757411 104.552959 
L 71.554554 104.368757 
L 72.351696 104.299584 
L 73.148839 104.039992 
L 73.945982 103.974073 
L 74.743125 103.121314 
L 75.540268 103.191264 
L 77.931696 103.107185 
L 78.728839 102.505754 
L 79.525982 102.17932 
L 81.120268 102.259763 
L 81.917411 102.201021 
L 82.714554 101.190693 
L 83.511696 101.309608 
L 84.308839 101.179812 
L 85.105982 101.350412 
L 85.903125 101.3173 
L 86.700268 101.013486 
L 87.497411 101.055456 
L 89.888839 100.808576 
L 90.685982 100.416579 
L 91.483125 100.460881 
L 92.280268 100.279788 
L 93.874554 100.212882 
L 94.671696 99.651792 
L 95.468839 99.672777 
L 96.265982 99.43417 
L 97.860268 99.3834 
L 98.657411 98.695808 
L 99.454554 98.728452 
L 101.048839 98.616532 
L 101.845982 98.595065 
L 102.643125 98.028951 
L 105.831696 97.965706 
L 106.628839 98.159525 
L 108.223125 97.826873 
L 109.817411 97.631856 
L 110.614554 97.320124 
L 113.005982 97.414557 
L 113.803125 97.352245 
L 114.600268 97.068304 
L 116.194554 97.152244 
L 116.991696 97.014676 
L 117.788839 97.073569 
L 118.585982 96.62995 
L 119.383125 96.758192 
L 120.180268 96.696792 
L 121.774554 96.787412 
L 122.571696 96.331497 
L 123.368839 96.622955 
L 124.963125 96.530855 
L 125.760268 96.551753 
L 126.557411 96.242894 
L 129.745982 96.400258 
L 132.934554 96.144963 
L 135.325982 96.086672 
L 136.920268 95.98641 
L 137.717411 96.012169 
L 138.514554 95.81853 
L 140.108839 95.782778 
L 141.703125 95.870026 
L 142.500268 95.77656 
L 143.297411 95.806872 
L 144.891696 95.703112 
L 146.485982 95.683293 
L 147.283125 95.317221 
L 148.877411 95.447795 
L 152.065982 95.470334 
L 153.660268 95.371588 
L 154.457411 94.843893 
L 156.051696 95.18898 
L 157.645982 95.23225 
L 158.443125 94.937159 
L 159.240268 95.112034 
L 160.037411 94.943377 
L 162.428839 95.142346 
L 163.225982 94.941823 
L 164.820268 94.94532 
L 165.617411 94.924585 
L 166.414554 94.792596 
L 168.008839 94.895189 
L 173.588839 94.77683 
L 174.385982 94.470826 
L 175.183125 94.608394 
L 177.574554 94.615984 
L 178.371696 94.820576 
L 179.168839 94.617721 
L 179.965982 94.648033 
L 181.560268 94.578577 
L 182.357411 94.181699 
L 183.154554 94.384554 
L 185.545982 94.452332 
L 187.937411 94.400876 
L 190.328839 94.526786 
L 191.125982 94.321599 
L 192.720268 94.279629 
L 201.488839 94.226024 
L 202.285982 94.060452 
L 205.474554 94.056761 
L 206.271696 93.761999 
L 207.865982 93.877028 
L 209.460268 93.922099 
L 210.257411 93.664069 
L 211.054554 93.906562 
L 212.648839 93.96602 
L 213.445982 93.937997 
L 214.243125 93.626762 
L 215.040268 93.803969 
L 217.431696 93.763123 
L 218.228839 93.925215 
L 220.620268 93.710702 
L 221.417411 93.728522 
L 222.214554 93.873919 
L 223.808839 93.718474 
L 225.403125 93.749096 
L 225.403125 93.749096 
" clip-path="url(#p8d7da2fe03)" style="fill: none; stroke-dasharray: 5.55,2.4; stroke-dashoffset: 0; stroke: #bf00bf; stroke-width: 1.5"/>
   </g>
   <g id="line2d_23">
    <path d="M 30.103125 139.279891 
L 34.088839 139.279891 
L 38.074554 139.279891 
L 42.060268 131.890301 
L 46.045982 119.602373 
L 50.031696 116.196541 
L 54.017411 115.568117 
L 58.003125 111.3487 
L 61.988839 108.599347 
L 65.974554 105.883658 
L 69.960268 104.183548 
L 73.945982 104.127439 
L 77.931696 103.571957 
L 81.917411 103.437295 
L 85.903125 101.742795 
L 89.888839 101.355641 
L 93.874554 100.833825 
L 97.860268 102.146782 
L 101.845982 101.299532 
L 105.831696 100.171736 
L 109.817411 98.993441 
L 113.803125 97.860034 
L 117.788839 97.383105 
L 121.774554 97.865645 
L 125.760268 97.439215 
L 129.745982 97.220388 
L 133.731696 97.439215 
L 137.717411 97.383105 
L 141.703125 97.500935 
L 145.688839 97.085726 
L 149.674554 96.519023 
L 153.660268 95.952319 
L 157.645982 96.305808 
L 161.631696 97.203556 
L 165.617411 96.277753 
L 169.603125 95.997207 
L 173.588839 96.429248 
L 177.574554 95.985985 
L 181.560268 96.103814 
L 185.545982 96.030872 
L 189.531696 95.615664 
L 193.517411 95.548332 
L 197.503125 95.682995 
L 201.488839 95.671773 
L 205.474554 95.222899 
L 209.460268 95.346339 
L 213.445982 95.026516 
L 217.431696 95.447336 
L 221.417411 96.014039 
L 225.403125 95.222899 
" clip-path="url(#p8d7da2fe03)" style="fill: none; stroke-dasharray: 9.6,2.4,1.5,2.4; stroke-dashoffset: 0; stroke: #008000; stroke-width: 1.5"/>
   </g>
   <g id="patch_3">
    <path d="M 30.103125 145.8 
L 30.103125 7.2 
" style="fill: none; stroke: #000000; stroke-width: 0.8; stroke-linejoin: miter; stroke-linecap: square"/>
   </g>
   <g id="patch_4">
    <path d="M 225.403125 145.8 
L 225.403125 7.2 
" style="fill: none; stroke: #000000; stroke-width: 0.8; stroke-linejoin: miter; stroke-linecap: square"/>
   </g>
   <g id="patch_5">
    <path d="M 30.103125 145.8 
L 225.403125 145.8 
" style="fill: none; stroke: #000000; stroke-width: 0.8; stroke-linejoin: miter; stroke-linecap: square"/>
   </g>
   <g id="patch_6">
    <path d="M 30.103125 7.2 
L 225.403125 7.2 
" style="fill: none; stroke: #000000; stroke-width: 0.8; stroke-linejoin: miter; stroke-linecap: square"/>
   </g>
   <g id="legend_1">
    <g id="patch_7">
     <path d="M 140.634375 59.234375 
L 218.403125 59.234375 
Q 220.403125 59.234375 220.403125 57.234375 
L 220.403125 14.2 
Q 220.403125 12.2 218.403125 12.2 
L 140.634375 12.2 
Q 138.634375 12.2 138.634375 14.2 
L 138.634375 57.234375 
Q 138.634375 59.234375 140.634375 59.234375 
z
" style="fill: #ffffff; opacity: 0.8; stroke: #cccccc; stroke-linejoin: miter"/>
    </g>
    <g id="line2d_24">
     <path d="M 142.634375 20.298438 
L 152.634375 20.298438 
L 162.634375 20.298438 
" style="fill: none; stroke: #1f77b4; stroke-width: 1.5; stroke-linecap: square"/>
    </g>
    <g id="text_12">
     <!-- train loss -->
     <g transform="translate(170.634375 23.798438) scale(0.1 -0.1)">
      <defs>
       <path id="DejaVuSans-74" d="M 1172 4494 
L 1172 3500 
L 2356 3500 
L 2356 3053 
L 1172 3053 
L 1172 1153 
Q 1172 725 1289 603 
Q 1406 481 1766 481 
L 2356 481 
L 2356 0 
L 1766 0 
Q 1100 0 847 248 
Q 594 497 594 1153 
L 594 3053 
L 172 3053 
L 172 3500 
L 594 3500 
L 594 4494 
L 1172 4494 
z
" transform="scale(0.015625)"/>
       <path id="DejaVuSans-72" d="M 2631 2963 
Q 2534 3019 2420 3045 
Q 2306 3072 2169 3072 
Q 1681 3072 1420 2755 
Q 1159 2438 1159 1844 
L 1159 0 
L 581 0 
L 581 3500 
L 1159 3500 
L 1159 2956 
Q 1341 3275 1631 3429 
Q 1922 3584 2338 3584 
Q 2397 3584 2469 3576 
Q 2541 3569 2628 3553 
L 2631 2963 
z
" transform="scale(0.015625)"/>
       <path id="DejaVuSans-61" d="M 2194 1759 
Q 1497 1759 1228 1600 
Q 959 1441 959 1056 
Q 959 750 1161 570 
Q 1363 391 1709 391 
Q 2188 391 2477 730 
Q 2766 1069 2766 1631 
L 2766 1759 
L 2194 1759 
z
M 3341 1997 
L 3341 0 
L 2766 0 
L 2766 531 
Q 2569 213 2275 61 
Q 1981 -91 1556 -91 
Q 1019 -91 701 211 
Q 384 513 384 1019 
Q 384 1609 779 1909 
Q 1175 2209 1959 2209 
L 2766 2209 
L 2766 2266 
Q 2766 2663 2505 2880 
Q 2244 3097 1772 3097 
Q 1472 3097 1187 3025 
Q 903 2953 641 2809 
L 641 3341 
Q 956 3463 1253 3523 
Q 1550 3584 1831 3584 
Q 2591 3584 2966 3190 
Q 3341 2797 3341 1997 
z
" transform="scale(0.015625)"/>
       <path id="DejaVuSans-69" d="M 603 3500 
L 1178 3500 
L 1178 0 
L 603 0 
L 603 3500 
z
M 603 4863 
L 1178 4863 
L 1178 4134 
L 603 4134 
L 603 4863 
z
" transform="scale(0.015625)"/>
       <path id="DejaVuSans-6e" d="M 3513 2113 
L 3513 0 
L 2938 0 
L 2938 2094 
Q 2938 2591 2744 2837 
Q 2550 3084 2163 3084 
Q 1697 3084 1428 2787 
Q 1159 2491 1159 1978 
L 1159 0 
L 581 0 
L 581 3500 
L 1159 3500 
L 1159 2956 
Q 1366 3272 1645 3428 
Q 1925 3584 2291 3584 
Q 2894 3584 3203 3211 
Q 3513 2838 3513 2113 
z
" transform="scale(0.015625)"/>
       <path id="DejaVuSans-20" transform="scale(0.015625)"/>
       <path id="DejaVuSans-6c" d="M 603 4863 
L 1178 4863 
L 1178 0 
L 603 0 
L 603 4863 
z
" transform="scale(0.015625)"/>
       <path id="DejaVuSans-73" d="M 2834 3397 
L 2834 2853 
Q 2591 2978 2328 3040 
Q 2066 3103 1784 3103 
Q 1356 3103 1142 2972 
Q 928 2841 928 2578 
Q 928 2378 1081 2264 
Q 1234 2150 1697 2047 
L 1894 2003 
Q 2506 1872 2764 1633 
Q 3022 1394 3022 966 
Q 3022 478 2636 193 
Q 2250 -91 1575 -91 
Q 1294 -91 989 -36 
Q 684 19 347 128 
L 347 722 
Q 666 556 975 473 
Q 1284 391 1588 391 
Q 1994 391 2212 530 
Q 2431 669 2431 922 
Q 2431 1156 2273 1281 
Q 2116 1406 1581 1522 
L 1381 1569 
Q 847 1681 609 1914 
Q 372 2147 372 2553 
Q 372 3047 722 3315 
Q 1072 3584 1716 3584 
Q 2034 3584 2315 3537 
Q 2597 3491 2834 3397 
z
" transform="scale(0.015625)"/>
      </defs>
      <use xlink:href="#DejaVuSans-74"/>
      <use xlink:href="#DejaVuSans-72" x="39.208984"/>
      <use xlink:href="#DejaVuSans-61" x="80.322266"/>
      <use xlink:href="#DejaVuSans-69" x="141.601562"/>
      <use xlink:href="#DejaVuSans-6e" x="169.384766"/>
      <use xlink:href="#DejaVuSans-20" x="232.763672"/>
      <use xlink:href="#DejaVuSans-6c" x="264.550781"/>
      <use xlink:href="#DejaVuSans-6f" x="292.333984"/>
      <use xlink:href="#DejaVuSans-73" x="353.515625"/>
      <use xlink:href="#DejaVuSans-73" x="405.615234"/>
     </g>
    </g>
    <g id="line2d_25">
     <path d="M 142.634375 34.976563 
L 152.634375 34.976563 
L 162.634375 34.976563 
" style="fill: none; stroke-dasharray: 5.55,2.4; stroke-dashoffset: 0; stroke: #bf00bf; stroke-width: 1.5"/>
    </g>
    <g id="text_13">
     <!-- train acc -->
     <g transform="translate(170.634375 38.476563) scale(0.1 -0.1)">
      <use xlink:href="#DejaVuSans-74"/>
      <use xlink:href="#DejaVuSans-72" x="39.208984"/>
      <use xlink:href="#DejaVuSans-61" x="80.322266"/>
      <use xlink:href="#DejaVuSans-69" x="141.601562"/>
      <use xlink:href="#DejaVuSans-6e" x="169.384766"/>
      <use xlink:href="#DejaVuSans-20" x="232.763672"/>
      <use xlink:href="#DejaVuSans-61" x="264.550781"/>
      <use xlink:href="#DejaVuSans-63" x="325.830078"/>
      <use xlink:href="#DejaVuSans-63" x="380.810547"/>
     </g>
    </g>
    <g id="line2d_26">
     <path d="M 142.634375 49.654688 
L 152.634375 49.654688 
L 162.634375 49.654688 
" style="fill: none; stroke-dasharray: 9.6,2.4,1.5,2.4; stroke-dashoffset: 0; stroke: #008000; stroke-width: 1.5"/>
    </g>
    <g id="text_14">
     <!-- test acc -->
     <g transform="translate(170.634375 53.154688) scale(0.1 -0.1)">
      <use xlink:href="#DejaVuSans-74"/>
      <use xlink:href="#DejaVuSans-65" x="39.208984"/>
      <use xlink:href="#DejaVuSans-73" x="100.732422"/>
      <use xlink:href="#DejaVuSans-74" x="152.832031"/>
      <use xlink:href="#DejaVuSans-20" x="192.041016"/>
      <use xlink:href="#DejaVuSans-61" x="223.828125"/>
      <use xlink:href="#DejaVuSans-63" x="285.107422"/>
      <use xlink:href="#DejaVuSans-63" x="340.087891"/>
     </g>
    </g>
   </g>
  </g>
 </g>
 <defs>
  <clipPath id="p8d7da2fe03">
   <rect x="30.103125" y="7.2" width="195.3" height="138.6"/>
  </clipPath>
 </defs>
</svg>
