<?xml version="1.0" encoding="utf-8" standalone="no"?>
<!DOCTYPE svg PUBLIC "-//W3C//DTD SVG 1.1//EN"
  "http://www.w3.org/Graphics/SVG/1.1/DTD/svg11.dtd">
<svg xmlns:xlink="http://www.w3.org/1999/xlink" width="238.965625pt" height="183.35625pt" viewBox="0 0 238.965625 183.35625" xmlns="http://www.w3.org/2000/svg" version="1.1">
 <metadata>
  <rdf:RDF xmlns:dc="http://purl.org/dc/elements/1.1/" xmlns:cc="http://creativecommons.org/ns#" xmlns:rdf="http://www.w3.org/1999/02/22-rdf-syntax-ns#">
   <cc:Work>
    <dc:type rdf:resource="http://purl.org/dc/dcmitype/StillImage"/>
    <dc:date>2024-01-08T08:12:30.019406</dc:date>
    <dc:format>image/svg+xml</dc:format>
    <dc:creator>
     <cc:Agent>
      <dc:title>Matplotlib v3.7.2, https://matplotlib.org/</dc:title>
     </cc:Agent>
    </dc:creator>
   </cc:Work>
  </rdf:RDF>
 </metadata>
 <defs>
  <style type="text/css">*{stroke-linejoin: round; stroke-linecap: butt}</style>
 </defs>
 <g id="figure_1">
  <g id="patch_1">
   <path d="M 0 183.35625 
L 238.965625 183.35625 
L 238.965625 0 
L 0 0 
z
" style="fill: #ffffff"/>
  </g>
  <g id="axes_1">
   <g id="patch_2">
    <path d="M 30.103125 145.8 
L 225.403125 145.8 
L 225.403125 7.2 
L 30.103125 7.2 
z
" style="fill: #ffffff"/>
   </g>
   <g id="matplotlib.axis_1">
    <g id="xtick_1">
     <g id="line2d_1">
      <path d="M 65.974554 145.8 
L 65.974554 7.2 
" clip-path="url(#p187317abff)" style="fill: none; stroke: #b0b0b0; stroke-width: 0.8; stroke-linecap: square"/>
     </g>
     <g id="line2d_2">
      <defs>
       <path id="m9788758cea" d="M 0 0 
L 0 3.5 
" style="stroke: #000000; stroke-width: 0.8"/>
      </defs>
      <g>
       <use xlink:href="#m9788758cea" x="65.974554" y="145.8" style="stroke: #000000; stroke-width: 0.8"/>
      </g>
     </g>
     <g id="text_1">
      <!-- 10 -->
      <g transform="translate(59.612054 160.398438) scale(0.1 -0.1)">
       <defs>
        <path id="DejaVuSans-31" d="M 794 531 
L 1825 531 
L 1825 4091 
L 703 3866 
L 703 4441 
L 1819 4666 
L 2450 4666 
L 2450 531 
L 3481 531 
L 3481 0 
L 794 0 
L 794 531 
z
" transform="scale(0.015625)"/>
        <path id="DejaVuSans-30" d="M 2034 4250 
Q 1547 4250 1301 3770 
Q 1056 3291 1056 2328 
Q 1056 1369 1301 889 
Q 1547 409 2034 409 
Q 2525 409 2770 889 
Q 3016 1369 3016 2328 
Q 3016 3291 2770 3770 
Q 2525 4250 2034 4250 
z
M 2034 4750 
Q 2819 4750 3233 4129 
Q 3647 3509 3647 2328 
Q 3647 1150 3233 529 
Q 2819 -91 2034 -91 
Q 1250 -91 836 529 
Q 422 1150 422 2328 
Q 422 3509 836 4129 
Q 1250 4750 2034 4750 
z
" transform="scale(0.015625)"/>
       </defs>
       <use xlink:href="#DejaVuSans-31"/>
       <use xlink:href="#DejaVuSans-30" x="63.623047"/>
      </g>
     </g>
    </g>
    <g id="xtick_2">
     <g id="line2d_3">
      <path d="M 105.831696 145.8 
L 105.831696 7.2 
" clip-path="url(#p187317abff)" style="fill: none; stroke: #b0b0b0; stroke-width: 0.8; stroke-linecap: square"/>
     </g>
     <g id="line2d_4">
      <g>
       <use xlink:href="#m9788758cea" x="105.831696" y="145.8" style="stroke: #000000; stroke-width: 0.8"/>
      </g>
     </g>
     <g id="text_2">
      <!-- 20 -->
      <g transform="translate(99.469196 160.398438) scale(0.1 -0.1)">
       <defs>
        <path id="DejaVuSans-32" d="M 1228 531 
L 3431 531 
L 3431 0 
L 469 0 
L 469 531 
Q 828 903 1448 1529 
Q 2069 2156 2228 2338 
Q 2531 2678 2651 2914 
Q 2772 3150 2772 3378 
Q 2772 3750 2511 3984 
Q 2250 4219 1831 4219 
Q 1534 4219 1204 4116 
Q 875 4013 500 3803 
L 500 4441 
Q 881 4594 1212 4672 
Q 1544 4750 1819 4750 
Q 2544 4750 2975 4387 
Q 3406 4025 3406 3419 
Q 3406 3131 3298 2873 
Q 3191 2616 2906 2266 
Q 2828 2175 2409 1742 
Q 1991 1309 1228 531 
z
" transform="scale(0.015625)"/>
       </defs>
       <use xlink:href="#DejaVuSans-32"/>
       <use xlink:href="#DejaVuSans-30" x="63.623047"/>
      </g>
     </g>
    </g>
    <g id="xtick_3">
     <g id="line2d_5">
      <path d="M 145.688839 145.8 
L 145.688839 7.2 
" clip-path="url(#p187317abff)" style="fill: none; stroke: #b0b0b0; stroke-width: 0.8; stroke-linecap: square"/>
     </g>
     <g id="line2d_6">
      <g>
       <use xlink:href="#m9788758cea" x="145.688839" y="145.8" style="stroke: #000000; stroke-width: 0.8"/>
      </g>
     </g>
     <g id="text_3">
      <!-- 30 -->
      <g transform="translate(139.326339 160.398438) scale(0.1 -0.1)">
       <defs>
        <path id="DejaVuSans-33" d="M 2597 2516 
Q 3050 2419 3304 2112 
Q 3559 1806 3559 1356 
Q 3559 666 3084 287 
Q 2609 -91 1734 -91 
Q 1441 -91 1130 -33 
Q 819 25 488 141 
L 488 750 
Q 750 597 1062 519 
Q 1375 441 1716 441 
Q 2309 441 2620 675 
Q 2931 909 2931 1356 
Q 2931 1769 2642 2001 
Q 2353 2234 1838 2234 
L 1294 2234 
L 1294 2753 
L 1863 2753 
Q 2328 2753 2575 2939 
Q 2822 3125 2822 3475 
Q 2822 3834 2567 4026 
Q 2313 4219 1838 4219 
Q 1578 4219 1281 4162 
Q 984 4106 628 3988 
L 628 4550 
Q 988 4650 1302 4700 
Q 1616 4750 1894 4750 
Q 2613 4750 3031 4423 
Q 3450 4097 3450 3541 
Q 3450 3153 3228 2886 
Q 3006 2619 2597 2516 
z
" transform="scale(0.015625)"/>
       </defs>
       <use xlink:href="#DejaVuSans-33"/>
       <use xlink:href="#DejaVuSans-30" x="63.623047"/>
      </g>
     </g>
    </g>
    <g id="xtick_4">
     <g id="line2d_7">
      <path d="M 185.545982 145.8 
L 185.545982 7.2 
" clip-path="url(#p187317abff)" style="fill: none; stroke: #b0b0b0; stroke-width: 0.8; stroke-linecap: square"/>
     </g>
     <g id="line2d_8">
      <g>
       <use xlink:href="#m9788758cea" x="185.545982" y="145.8" style="stroke: #000000; stroke-width: 0.8"/>
      </g>
     </g>
     <g id="text_4">
      <!-- 40 -->
      <g transform="translate(179.183482 160.398438) scale(0.1 -0.1)">
       <defs>
        <path id="DejaVuSans-34" d="M 2419 4116 
L 825 1625 
L 2419 1625 
L 2419 4116 
z
M 2253 4666 
L 3047 4666 
L 3047 1625 
L 3713 1625 
L 3713 1100 
L 3047 1100 
L 3047 0 
L 2419 0 
L 2419 1100 
L 313 1100 
L 313 1709 
L 2253 4666 
z
" transform="scale(0.015625)"/>
       </defs>
       <use xlink:href="#DejaVuSans-34"/>
       <use xlink:href="#DejaVuSans-30" x="63.623047"/>
      </g>
     </g>
    </g>
    <g id="xtick_5">
     <g id="line2d_9">
      <path d="M 225.403125 145.8 
L 225.403125 7.2 
" clip-path="url(#p187317abff)" style="fill: none; stroke: #b0b0b0; stroke-width: 0.8; stroke-linecap: square"/>
     </g>
     <g id="line2d_10">
      <g>
       <use xlink:href="#m9788758cea" x="225.403125" y="145.8" style="stroke: #000000; stroke-width: 0.8"/>
      </g>
     </g>
     <g id="text_5">
      <!-- 50 -->
      <g transform="translate(219.040625 160.398438) scale(0.1 -0.1)">
       <defs>
        <path id="DejaVuSans-35" d="M 691 4666 
L 3169 4666 
L 3169 4134 
L 1269 4134 
L 1269 2991 
Q 1406 3038 1543 3061 
Q 1681 3084 1819 3084 
Q 2600 3084 3056 2656 
Q 3513 2228 3513 1497 
Q 3513 744 3044 326 
Q 2575 -91 1722 -91 
Q 1428 -91 1123 -41 
Q 819 9 494 109 
L 494 744 
Q 775 591 1075 516 
Q 1375 441 1709 441 
Q 2250 441 2565 725 
Q 2881 1009 2881 1497 
Q 2881 1984 2565 2268 
Q 2250 2553 1709 2553 
Q 1456 2553 1204 2497 
Q 953 2441 691 2322 
L 691 4666 
z
" transform="scale(0.015625)"/>
       </defs>
       <use xlink:href="#DejaVuSans-35"/>
       <use xlink:href="#DejaVuSans-30" x="63.623047"/>
      </g>
     </g>
    </g>
    <g id="text_6">
     <!-- epoch -->
     <g transform="translate(112.525 174.076563) scale(0.1 -0.1)">
      <defs>
       <path id="DejaVuSans-65" d="M 3597 1894 
L 3597 1613 
L 953 1613 
Q 991 1019 1311 708 
Q 1631 397 2203 397 
Q 2534 397 2845 478 
Q 3156 559 3463 722 
L 3463 178 
Q 3153 47 2828 -22 
Q 2503 -91 2169 -91 
Q 1331 -91 842 396 
Q 353 884 353 1716 
Q 353 2575 817 3079 
Q 1281 3584 2069 3584 
Q 2775 3584 3186 3129 
Q 3597 2675 3597 1894 
z
M 3022 2063 
Q 3016 2534 2758 2815 
Q 2500 3097 2075 3097 
Q 1594 3097 1305 2825 
Q 1016 2553 972 2059 
L 3022 2063 
z
" transform="scale(0.015625)"/>
       <path id="DejaVuSans-70" d="M 1159 525 
L 1159 -1331 
L 581 -1331 
L 581 3500 
L 1159 3500 
L 1159 2969 
Q 1341 3281 1617 3432 
Q 1894 3584 2278 3584 
Q 2916 3584 3314 3078 
Q 3713 2572 3713 1747 
Q 3713 922 3314 415 
Q 2916 -91 2278 -91 
Q 1894 -91 1617 61 
Q 1341 213 1159 525 
z
M 3116 1747 
Q 3116 2381 2855 2742 
Q 2594 3103 2138 3103 
Q 1681 3103 1420 2742 
Q 1159 2381 1159 1747 
Q 1159 1113 1420 752 
Q 1681 391 2138 391 
Q 2594 391 2855 752 
Q 3116 1113 3116 1747 
z
" transform="scale(0.015625)"/>
       <path id="DejaVuSans-6f" d="M 1959 3097 
Q 1497 3097 1228 2736 
Q 959 2375 959 1747 
Q 959 1119 1226 758 
Q 1494 397 1959 397 
Q 2419 397 2687 759 
Q 2956 1122 2956 1747 
Q 2956 2369 2687 2733 
Q 2419 3097 1959 3097 
z
M 1959 3584 
Q 2709 3584 3137 3096 
Q 3566 2609 3566 1747 
Q 3566 888 3137 398 
Q 2709 -91 1959 -91 
Q 1206 -91 779 398 
Q 353 888 353 1747 
Q 353 2609 779 3096 
Q 1206 3584 1959 3584 
z
" transform="scale(0.015625)"/>
       <path id="DejaVuSans-63" d="M 3122 3366 
L 3122 2828 
Q 2878 2963 2633 3030 
Q 2388 3097 2138 3097 
Q 1578 3097 1268 2742 
Q 959 2388 959 1747 
Q 959 1106 1268 751 
Q 1578 397 2138 397 
Q 2388 397 2633 464 
Q 2878 531 3122 666 
L 3122 134 
Q 2881 22 2623 -34 
Q 2366 -91 2075 -91 
Q 1284 -91 818 406 
Q 353 903 353 1747 
Q 353 2603 823 3093 
Q 1294 3584 2113 3584 
Q 2378 3584 2631 3529 
Q 2884 3475 3122 3366 
z
" transform="scale(0.015625)"/>
       <path id="DejaVuSans-68" d="M 3513 2113 
L 3513 0 
L 2938 0 
L 2938 2094 
Q 2938 2591 2744 2837 
Q 2550 3084 2163 3084 
Q 1697 3084 1428 2787 
Q 1159 2491 1159 1978 
L 1159 0 
L 581 0 
L 581 4863 
L 1159 4863 
L 1159 2956 
Q 1366 3272 1645 3428 
Q 1925 3584 2291 3584 
Q 2894 3584 3203 3211 
Q 3513 2838 3513 2113 
z
" transform="scale(0.015625)"/>
      </defs>
      <use xlink:href="#DejaVuSans-65"/>
      <use xlink:href="#DejaVuSans-70" x="61.523438"/>
      <use xlink:href="#DejaVuSans-6f" x="125"/>
      <use xlink:href="#DejaVuSans-63" x="186.181641"/>
      <use xlink:href="#DejaVuSans-68" x="241.162109"/>
     </g>
    </g>
   </g>
   <g id="matplotlib.axis_2">
    <g id="ytick_1">
     <g id="line2d_11">
      <path d="M 30.103125 145.144056 
L 225.403125 145.144056 
" clip-path="url(#p187317abff)" style="fill: none; stroke: #b0b0b0; stroke-width: 0.8; stroke-linecap: square"/>
     </g>
     <g id="line2d_12">
      <defs>
       <path id="m64de852ef9" d="M 0 0 
L -3.5 0 
" style="stroke: #000000; stroke-width: 0.8"/>
      </defs>
      <g>
       <use xlink:href="#m64de852ef9" x="30.103125" y="145.144056" style="stroke: #000000; stroke-width: 0.8"/>
      </g>
     </g>
     <g id="text_7">
      <!-- 0.0 -->
      <g transform="translate(7.2 148.943275) scale(0.1 -0.1)">
       <defs>
        <path id="DejaVuSans-2e" d="M 684 794 
L 1344 794 
L 1344 0 
L 684 0 
L 684 794 
z
" transform="scale(0.015625)"/>
       </defs>
       <use xlink:href="#DejaVuSans-30"/>
       <use xlink:href="#DejaVuSans-2e" x="63.623047"/>
       <use xlink:href="#DejaVuSans-30" x="95.410156"/>
      </g>
     </g>
    </g>
    <g id="ytick_2">
     <g id="line2d_13">
      <path d="M 30.103125 116.923777 
L 225.403125 116.923777 
" clip-path="url(#p187317abff)" style="fill: none; stroke: #b0b0b0; stroke-width: 0.8; stroke-linecap: square"/>
     </g>
     <g id="line2d_14">
      <g>
       <use xlink:href="#m64de852ef9" x="30.103125" y="116.923777" style="stroke: #000000; stroke-width: 0.8"/>
      </g>
     </g>
     <g id="text_8">
      <!-- 0.5 -->
      <g transform="translate(7.2 120.722995) scale(0.1 -0.1)">
       <use xlink:href="#DejaVuSans-30"/>
       <use xlink:href="#DejaVuSans-2e" x="63.623047"/>
       <use xlink:href="#DejaVuSans-35" x="95.410156"/>
      </g>
     </g>
    </g>
    <g id="ytick_3">
     <g id="line2d_15">
      <path d="M 30.103125 88.703497 
L 225.403125 88.703497 
" clip-path="url(#p187317abff)" style="fill: none; stroke: #b0b0b0; stroke-width: 0.8; stroke-linecap: square"/>
     </g>
     <g id="line2d_16">
      <g>
       <use xlink:href="#m64de852ef9" x="30.103125" y="88.703497" style="stroke: #000000; stroke-width: 0.8"/>
      </g>
     </g>
     <g id="text_9">
      <!-- 1.0 -->
      <g transform="translate(7.2 92.502716) scale(0.1 -0.1)">
       <use xlink:href="#DejaVuSans-31"/>
       <use xlink:href="#DejaVuSans-2e" x="63.623047"/>
       <use xlink:href="#DejaVuSans-30" x="95.410156"/>
      </g>
     </g>
    </g>
    <g id="ytick_4">
     <g id="line2d_17">
      <path d="M 30.103125 60.483218 
L 225.403125 60.483218 
" clip-path="url(#p187317abff)" style="fill: none; stroke: #b0b0b0; stroke-width: 0.8; stroke-linecap: square"/>
     </g>
     <g id="line2d_18">
      <g>
       <use xlink:href="#m64de852ef9" x="30.103125" y="60.483218" style="stroke: #000000; stroke-width: 0.8"/>
      </g>
     </g>
     <g id="text_10">
      <!-- 1.5 -->
      <g transform="translate(7.2 64.282437) scale(0.1 -0.1)">
       <use xlink:href="#DejaVuSans-31"/>
       <use xlink:href="#DejaVuSans-2e" x="63.623047"/>
       <use xlink:href="#DejaVuSans-35" x="95.410156"/>
      </g>
     </g>
    </g>
    <g id="ytick_5">
     <g id="line2d_19">
      <path d="M 30.103125 32.262939 
L 225.403125 32.262939 
" clip-path="url(#p187317abff)" style="fill: none; stroke: #b0b0b0; stroke-width: 0.8; stroke-linecap: square"/>
     </g>
     <g id="line2d_20">
      <g>
       <use xlink:href="#m64de852ef9" x="30.103125" y="32.262939" style="stroke: #000000; stroke-width: 0.8"/>
      </g>
     </g>
     <g id="text_11">
      <!-- 2.0 -->
      <g transform="translate(7.2 36.062158) scale(0.1 -0.1)">
       <use xlink:href="#DejaVuSans-32"/>
       <use xlink:href="#DejaVuSans-2e" x="63.623047"/>
       <use xlink:href="#DejaVuSans-30" x="95.410156"/>
      </g>
     </g>
    </g>
   </g>
   <g id="line2d_21">
    <path d="M 26.914554 13.5 
L 27.711696 14.327955 
L 28.508839 14.598535 
L 30.103125 14.821066 
L 30.900268 15.158349 
L 42.060268 15.235104 
L 46.045982 15.580407 
L 46.843125 17.549361 
L 47.640268 20.435364 
L 49.234554 29.803002 
L 50.031696 33.639717 
L 50.828839 52.310618 
L 52.423125 54.889285 
L 54.017411 57.380294 
L 54.814554 64.473042 
L 57.205982 68.276935 
L 58.003125 69.287927 
L 58.800268 75.263975 
L 59.597411 75.928626 
L 60.394554 76.868496 
L 61.191696 77.25411 
L 61.988839 77.813811 
L 62.785982 81.988932 
L 63.583125 82.494703 
L 64.380268 81.934 
L 65.177411 82.15891 
L 65.974554 83.077623 
L 66.771696 87.464854 
L 67.568839 88.492673 
L 68.365982 88.778859 
L 69.960268 89.842423 
L 70.757411 93.310352 
L 73.148839 94.414017 
L 73.945982 95.021964 
L 74.743125 97.244699 
L 75.540268 98.214493 
L 77.931696 99.361956 
L 78.728839 101.901426 
L 79.525982 102.740052 
L 80.323125 102.726169 
L 81.120268 103.274713 
L 81.917411 103.449757 
L 82.714554 105.827886 
L 84.308839 106.374678 
L 85.903125 106.892651 
L 86.700268 108.456218 
L 89.091696 109.083998 
L 89.888839 109.458215 
L 90.685982 110.632217 
L 92.280268 111.403188 
L 93.077411 111.467975 
L 93.874554 111.679511 
L 95.468839 112.679862 
L 97.860268 113.376703 
L 98.657411 114.549271 
L 100.251696 114.649164 
L 101.048839 114.981556 
L 101.845982 115.062744 
L 102.643125 115.574512 
L 103.440268 115.907268 
L 104.237411 115.855921 
L 105.034554 116.105408 
L 105.831696 116.079351 
L 106.628839 117.034448 
L 107.425982 116.865003 
L 108.223125 117.19578 
L 109.817411 117.387401 
L 110.614554 118.305039 
L 111.411696 118.334595 
L 112.208839 117.873032 
L 113.005982 117.968699 
L 113.803125 118.31999 
L 114.600268 119.093968 
L 115.397411 118.945826 
L 116.194554 119.052622 
L 116.991696 119.381675 
L 117.788839 119.335107 
L 118.585982 119.872596 
L 120.180268 120.174853 
L 120.977411 120.08182 
L 121.774554 120.201591 
L 122.571696 120.917501 
L 123.368839 120.85497 
L 124.165982 120.955692 
L 124.963125 120.885251 
L 125.760268 120.945645 
L 126.557411 121.537307 
L 127.354554 121.354292 
L 128.948839 121.659106 
L 129.745982 121.643167 
L 130.543125 122.369021 
L 132.137411 122.111947 
L 133.731696 122.232208 
L 134.528839 122.860892 
L 135.325982 122.592295 
L 136.123125 122.689556 
L 137.717411 122.685389 
L 138.514554 122.993156 
L 139.311696 122.911248 
L 140.108839 123.228013 
L 140.905982 123.336191 
L 141.703125 123.330875 
L 142.500268 122.940148 
L 143.297411 123.857044 
L 144.094554 123.724656 
L 145.688839 123.800462 
L 146.485982 124.041729 
L 148.877411 124.264975 
L 149.674554 124.358368 
L 150.471696 124.605361 
L 151.268839 124.709664 
L 152.065982 124.683807 
L 152.863125 124.86471 
L 153.660268 124.806751 
L 154.457411 126.164144 
L 156.051696 125.526561 
L 156.848839 125.403882 
L 157.645982 125.427662 
L 158.443125 126.25143 
L 160.037411 125.789233 
L 160.834554 125.921187 
L 161.631696 125.789618 
L 162.428839 126.046125 
L 163.225982 126.179399 
L 165.617411 125.996899 
L 166.414554 126.789884 
L 167.211696 126.830781 
L 168.008839 126.652444 
L 169.603125 126.596948 
L 170.400268 127.125506 
L 171.197411 127.074785 
L 172.791696 126.805597 
L 175.980268 127.105734 
L 176.777411 127.157815 
L 177.574554 127.082647 
L 178.371696 128.087565 
L 179.168839 127.685498 
L 179.965982 127.524053 
L 180.763125 127.634181 
L 181.560268 127.55646 
L 182.357411 127.875989 
L 183.951696 128.169371 
L 184.748839 127.957126 
L 185.545982 127.876641 
L 187.140268 128.278678 
L 187.937411 128.177068 
L 189.531696 128.231152 
L 190.328839 127.994288 
L 191.125982 128.528841 
L 191.923125 128.772258 
L 193.517411 128.66605 
L 195.111696 129.155224 
L 198.300268 128.726097 
L 200.691696 128.780112 
L 201.488839 128.964325 
L 202.285982 129.885765 
L 203.083125 129.553384 
L 204.677411 129.523618 
L 205.474554 129.358532 
L 206.271696 129.911689 
L 207.068839 129.808601 
L 207.865982 129.824776 
L 208.663125 129.688125 
L 209.460268 129.690342 
L 210.257411 129.934354 
L 212.648839 130.031271 
L 213.445982 129.913734 
L 214.243125 130.439513 
L 215.040268 130.118272 
L 215.837411 130.272625 
L 217.431696 130.127614 
L 218.228839 130.607301 
L 219.025982 130.480285 
L 220.620268 130.457841 
L 221.417411 130.329868 
L 222.214554 129.92313 
L 223.011696 130.343144 
L 224.605982 130.588586 
L 225.403125 130.500211 
L 225.403125 130.500211 
" clip-path="url(#p187317abff)" style="fill: none; stroke: #1f77b4; stroke-width: 1.5; stroke-linecap: square"/>
   </g>
   <g id="line2d_22">
    <path d="M 26.914554 139.35083 
L 30.103125 139.296814 
L 30.900268 139.411812 
L 34.885982 139.219486 
L 35.683125 139.390703 
L 40.465982 139.200722 
L 42.060268 138.946883 
L 42.857411 138.867671 
L 44.451696 138.253167 
L 45.248839 137.718407 
L 46.045982 137.042014 
L 46.843125 133.355897 
L 49.234554 130.563656 
L 50.031696 129.311539 
L 50.828839 124.42917 
L 51.625982 124.447934 
L 53.220268 122.432032 
L 54.017411 121.949808 
L 54.814554 118.260675 
L 55.611696 118.192657 
L 56.408839 117.836933 
L 58.003125 117.524869 
L 58.800268 115.258517 
L 60.394554 114.711249 
L 61.191696 114.692095 
L 61.988839 114.501536 
L 62.785982 112.537812 
L 63.583125 112.441649 
L 65.177411 112.812228 
L 65.974554 112.51671 
L 66.771696 110.192377 
L 67.568839 109.906234 
L 68.365982 109.788962 
L 69.960268 109.081361 
L 70.757411 107.19491 
L 71.554554 107.281692 
L 73.945982 106.615849 
L 75.540268 105.712595 
L 77.931696 105.335589 
L 78.728839 104.310025 
L 79.525982 104.094245 
L 80.323125 104.141153 
L 81.120268 103.869083 
L 81.917411 103.870016 
L 82.714554 103.296797 
L 83.511696 103.045835 
L 85.903125 102.819281 
L 86.700268 102.532185 
L 90.685982 102.053716 
L 93.077411 101.514266 
L 94.671696 101.340704 
L 95.468839 101.009997 
L 97.063125 100.876307 
L 97.860268 100.769548 
L 98.657411 100.252422 
L 100.251696 100.253985 
L 103.440268 99.5441 
L 104.237411 99.658245 
L 107.425982 99.349429 
L 109.817411 98.956866 
L 110.614554 98.469891 
L 111.411696 98.437054 
L 112.208839 98.576217 
L 113.803125 98.388697 
L 114.600268 98.099312 
L 116.194554 98.052403 
L 120.180268 97.470735 
L 121.774554 97.425445 
L 122.571696 96.978194 
L 123.368839 97.172865 
L 125.760268 97.123488 
L 126.557411 96.804631 
L 127.354554 96.964121 
L 128.948839 96.837468 
L 129.745982 96.850692 
L 130.543125 96.654524 
L 132.137411 96.690487 
L 133.731696 96.675726 
L 134.528839 96.537252 
L 135.325982 96.66156 
L 136.123125 96.530997 
L 139.311696 96.565397 
L 140.108839 96.390271 
L 141.703125 96.365303 
L 142.500268 96.401217 
L 143.297411 96.09631 
L 144.891696 96.186609 
L 150.471696 95.866457 
L 153.660268 95.750101 
L 154.457411 95.167517 
L 156.848839 95.545133 
L 157.645982 95.547856 
L 158.443125 95.280098 
L 160.037411 95.48806 
L 160.834554 95.41027 
L 162.428839 95.486497 
L 164.023125 95.469297 
L 165.617411 95.45661 
L 166.414554 95.078391 
L 167.211696 95.040864 
L 169.603125 95.156535 
L 170.400268 94.993955 
L 173.588839 95.098213 
L 174.385982 95.23319 
L 176.777411 95.058455 
L 177.574554 95.072814 
L 178.371696 94.740648 
L 179.965982 94.997083 
L 183.951696 94.617122 
L 185.545982 94.750163 
L 187.937411 94.631195 
L 189.531696 94.627875 
L 190.328839 94.80632 
L 191.125982 94.510796 
L 191.923125 94.416978 
L 193.517411 94.499943 
L 194.314554 94.163671 
L 196.705982 94.401733 
L 200.691696 94.458023 
L 201.488839 94.395528 
L 202.285982 93.9948 
L 203.880268 94.226216 
L 205.474554 94.320274 
L 206.271696 94.187125 
L 209.460268 94.174469 
L 211.851696 94.080799 
L 217.431696 94.02302 
L 218.228839 93.769638 
L 219.025982 93.938509 
L 220.620268 93.889255 
L 221.417411 93.943063 
L 222.214554 94.177744 
L 223.011696 94.004182 
L 225.403125 93.960935 
L 225.403125 93.960935 
" clip-path="url(#p187317abff)" style="fill: none; stroke-dasharray: 5.55,2.4; stroke-dashoffset: 0; stroke: #bf00bf; stroke-width: 1.5"/>
   </g>
   <g id="line2d_23">
    <path d="M 30.103125 139.5 
L 34.088839 139.5 
L 38.074554 139.5 
L 42.060268 139.5 
L 46.045982 133.912385 
L 50.031696 121.06087 
L 54.017411 118.797603 
L 58.003125 116.020728 
L 61.988839 113.757461 
L 65.974554 109.840487 
L 69.960268 107.904575 
L 73.945982 108.045677 
L 77.931696 104.55765 
L 81.917411 103.790059 
L 85.903125 104.444769 
L 89.888839 102.683824 
L 93.874554 104.422193 
L 97.860268 101.188149 
L 101.845982 101.346182 
L 105.831696 100.160931 
L 109.817411 100.759201 
L 113.803125 100.46571 
L 117.788839 98.383053 
L 121.774554 98.230664 
L 125.760268 100.04805 
L 129.745982 97.987969 
L 133.731696 97.564665 
L 137.717411 97.643682 
L 141.703125 97.423564 
L 145.688839 96.983327 
L 149.674554 97.559021 
L 153.660268 96.351193 
L 157.645982 97.192157 
L 161.631696 96.672904 
L 165.617411 95.984329 
L 169.603125 100.2851 
L 173.588839 97.039768 
L 177.574554 96.153651 
L 181.560268 95.482008 
L 185.545982 95.80372 
L 189.531696 97.282462 
L 193.517411 95.707771 
L 197.503125 95.532805 
L 201.488839 97.350191 
L 205.474554 94.985332 
L 209.460268 96.260888 
L 213.445982 95.290111 
L 217.431696 95.23367 
L 221.417411 95.23367 
L 225.403125 95.820652 
" clip-path="url(#p187317abff)" style="fill: none; stroke-dasharray: 9.6,2.4,1.5,2.4; stroke-dashoffset: 0; stroke: #008000; stroke-width: 1.5"/>
   </g>
   <g id="patch_3">
    <path d="M 30.103125 145.8 
L 30.103125 7.2 
" style="fill: none; stroke: #000000; stroke-width: 0.8; stroke-linejoin: miter; stroke-linecap: square"/>
   </g>
   <g id="patch_4">
    <path d="M 225.403125 145.8 
L 225.403125 7.2 
" style="fill: none; stroke: #000000; stroke-width: 0.8; stroke-linejoin: miter; stroke-linecap: square"/>
   </g>
   <g id="patch_5">
    <path d="M 30.103125 145.8 
L 225.403125 145.8 
" style="fill: none; stroke: #000000; stroke-width: 0.8; stroke-linejoin: miter; stroke-linecap: square"/>
   </g>
   <g id="patch_6">
    <path d="M 30.103125 7.2 
L 225.403125 7.2 
" style="fill: none; stroke: #000000; stroke-width: 0.8; stroke-linejoin: miter; stroke-linecap: square"/>
   </g>
   <g id="legend_1">
    <g id="patch_7">
     <path d="M 140.634375 59.234375 
L 218.403125 59.234375 
Q 220.403125 59.234375 220.403125 57.234375 
L 220.403125 14.2 
Q 220.403125 12.2 218.403125 12.2 
L 140.634375 12.2 
Q 138.634375 12.2 138.634375 14.2 
L 138.634375 57.234375 
Q 138.634375 59.234375 140.634375 59.234375 
z
" style="fill: #ffffff; opacity: 0.8; stroke: #cccccc; stroke-linejoin: miter"/>
    </g>
    <g id="line2d_24">
     <path d="M 142.634375 20.298438 
L 152.634375 20.298438 
L 162.634375 20.298438 
" style="fill: none; stroke: #1f77b4; stroke-width: 1.5; stroke-linecap: square"/>
    </g>
    <g id="text_12">
     <!-- train loss -->
     <g transform="translate(170.634375 23.798438) scale(0.1 -0.1)">
      <defs>
       <path id="DejaVuSans-74" d="M 1172 4494 
L 1172 3500 
L 2356 3500 
L 2356 3053 
L 1172 3053 
L 1172 1153 
Q 1172 725 1289 603 
Q 1406 481 1766 481 
L 2356 481 
L 2356 0 
L 1766 0 
Q 1100 0 847 248 
Q 594 497 594 1153 
L 594 3053 
L 172 3053 
L 172 3500 
L 594 3500 
L 594 4494 
L 1172 4494 
z
" transform="scale(0.015625)"/>
       <path id="DejaVuSans-72" d="M 2631 2963 
Q 2534 3019 2420 3045 
Q 2306 3072 2169 3072 
Q 1681 3072 1420 2755 
Q 1159 2438 1159 1844 
L 1159 0 
L 581 0 
L 581 3500 
L 1159 3500 
L 1159 2956 
Q 1341 3275 1631 3429 
Q 1922 3584 2338 3584 
Q 2397 3584 2469 3576 
Q 2541 3569 2628 3553 
L 2631 2963 
z
" transform="scale(0.015625)"/>
       <path id="DejaVuSans-61" d="M 2194 1759 
Q 1497 1759 1228 1600 
Q 959 1441 959 1056 
Q 959 750 1161 570 
Q 1363 391 1709 391 
Q 2188 391 2477 730 
Q 2766 1069 2766 1631 
L 2766 1759 
L 2194 1759 
z
M 3341 1997 
L 3341 0 
L 2766 0 
L 2766 531 
Q 2569 213 2275 61 
Q 1981 -91 1556 -91 
Q 1019 -91 701 211 
Q 384 513 384 1019 
Q 384 1609 779 1909 
Q 1175 2209 1959 2209 
L 2766 2209 
L 2766 2266 
Q 2766 2663 2505 2880 
Q 2244 3097 1772 3097 
Q 1472 3097 1187 3025 
Q 903 2953 641 2809 
L 641 3341 
Q 956 3463 1253 3523 
Q 1550 3584 1831 3584 
Q 2591 3584 2966 3190 
Q 3341 2797 3341 1997 
z
" transform="scale(0.015625)"/>
       <path id="DejaVuSans-69" d="M 603 3500 
L 1178 3500 
L 1178 0 
L 603 0 
L 603 3500 
z
M 603 4863 
L 1178 4863 
L 1178 4134 
L 603 4134 
L 603 4863 
z
" transform="scale(0.015625)"/>
       <path id="DejaVuSans-6e" d="M 3513 2113 
L 3513 0 
L 2938 0 
L 2938 2094 
Q 2938 2591 2744 2837 
Q 2550 3084 2163 3084 
Q 1697 3084 1428 2787 
Q 1159 2491 1159 1978 
L 1159 0 
L 581 0 
L 581 3500 
L 1159 3500 
L 1159 2956 
Q 1366 3272 1645 3428 
Q 1925 3584 2291 3584 
Q 2894 3584 3203 3211 
Q 3513 2838 3513 2113 
z
" transform="scale(0.015625)"/>
       <path id="DejaVuSans-20" transform="scale(0.015625)"/>
       <path id="DejaVuSans-6c" d="M 603 4863 
L 1178 4863 
L 1178 0 
L 603 0 
L 603 4863 
z
" transform="scale(0.015625)"/>
       <path id="DejaVuSans-73" d="M 2834 3397 
L 2834 2853 
Q 2591 2978 2328 3040 
Q 2066 3103 1784 3103 
Q 1356 3103 1142 2972 
Q 928 2841 928 2578 
Q 928 2378 1081 2264 
Q 1234 2150 1697 2047 
L 1894 2003 
Q 2506 1872 2764 1633 
Q 3022 1394 3022 966 
Q 3022 478 2636 193 
Q 2250 -91 1575 -91 
Q 1294 -91 989 -36 
Q 684 19 347 128 
L 347 722 
Q 666 556 975 473 
Q 1284 391 1588 391 
Q 1994 391 2212 530 
Q 2431 669 2431 922 
Q 2431 1156 2273 1281 
Q 2116 1406 1581 1522 
L 1381 1569 
Q 847 1681 609 1914 
Q 372 2147 372 2553 
Q 372 3047 722 3315 
Q 1072 3584 1716 3584 
Q 2034 3584 2315 3537 
Q 2597 3491 2834 3397 
z
" transform="scale(0.015625)"/>
      </defs>
      <use xlink:href="#DejaVuSans-74"/>
      <use xlink:href="#DejaVuSans-72" x="39.208984"/>
      <use xlink:href="#DejaVuSans-61" x="80.322266"/>
      <use xlink:href="#DejaVuSans-69" x="141.601562"/>
      <use xlink:href="#DejaVuSans-6e" x="169.384766"/>
      <use xlink:href="#DejaVuSans-20" x="232.763672"/>
      <use xlink:href="#DejaVuSans-6c" x="264.550781"/>
      <use xlink:href="#DejaVuSans-6f" x="292.333984"/>
      <use xlink:href="#DejaVuSans-73" x="353.515625"/>
      <use xlink:href="#DejaVuSans-73" x="405.615234"/>
     </g>
    </g>
    <g id="line2d_25">
     <path d="M 142.634375 34.976563 
L 152.634375 34.976563 
L 162.634375 34.976563 
" style="fill: none; stroke-dasharray: 5.55,2.4; stroke-dashoffset: 0; stroke: #bf00bf; stroke-width: 1.5"/>
    </g>
    <g id="text_13">
     <!-- train acc -->
     <g transform="translate(170.634375 38.476563) scale(0.1 -0.1)">
      <use xlink:href="#DejaVuSans-74"/>
      <use xlink:href="#DejaVuSans-72" x="39.208984"/>
      <use xlink:href="#DejaVuSans-61" x="80.322266"/>
      <use xlink:href="#DejaVuSans-69" x="141.601562"/>
      <use xlink:href="#DejaVuSans-6e" x="169.384766"/>
      <use xlink:href="#DejaVuSans-20" x="232.763672"/>
      <use xlink:href="#DejaVuSans-61" x="264.550781"/>
      <use xlink:href="#DejaVuSans-63" x="325.830078"/>
      <use xlink:href="#DejaVuSans-63" x="380.810547"/>
     </g>
    </g>
    <g id="line2d_26">
     <path d="M 142.634375 49.654688 
L 152.634375 49.654688 
L 162.634375 49.654688 
" style="fill: none; stroke-dasharray: 9.6,2.4,1.5,2.4; stroke-dashoffset: 0; stroke: #008000; stroke-width: 1.5"/>
    </g>
    <g id="text_14">
     <!-- test acc -->
     <g transform="translate(170.634375 53.154688) scale(0.1 -0.1)">
      <use xlink:href="#DejaVuSans-74"/>
      <use xlink:href="#DejaVuSans-65" x="39.208984"/>
      <use xlink:href="#DejaVuSans-73" x="100.732422"/>
      <use xlink:href="#DejaVuSans-74" x="152.832031"/>
      <use xlink:href="#DejaVuSans-20" x="192.041016"/>
      <use xlink:href="#DejaVuSans-61" x="223.828125"/>
      <use xlink:href="#DejaVuSans-63" x="285.107422"/>
      <use xlink:href="#DejaVuSans-63" x="340.087891"/>
     </g>
    </g>
   </g>
  </g>
 </g>
 <defs>
  <clipPath id="p187317abff">
   <rect x="30.103125" y="7.2" width="195.3" height="138.6"/>
  </clipPath>
 </defs>
</svg>
