<?xml version="1.0" encoding="utf-8" standalone="no"?>
<!DOCTYPE svg PUBLIC "-//W3C//DTD SVG 1.1//EN"
  "http://www.w3.org/Graphics/SVG/1.1/DTD/svg11.dtd">
<svg xmlns:xlink="http://www.w3.org/1999/xlink" width="238.965625pt" height="183.35625pt" viewBox="0 0 238.965625 183.35625" xmlns="http://www.w3.org/2000/svg" version="1.1">
 <metadata>
  <rdf:RDF xmlns:dc="http://purl.org/dc/elements/1.1/" xmlns:cc="http://creativecommons.org/ns#" xmlns:rdf="http://www.w3.org/1999/02/22-rdf-syntax-ns#">
   <cc:Work>
    <dc:type rdf:resource="http://purl.org/dc/dcmitype/StillImage"/>
    <dc:date>2024-03-01T02:12:49.588210</dc:date>
    <dc:format>image/svg+xml</dc:format>
    <dc:creator>
     <cc:Agent>
      <dc:title>Matplotlib v3.7.2, https://matplotlib.org/</dc:title>
     </cc:Agent>
    </dc:creator>
   </cc:Work>
  </rdf:RDF>
 </metadata>
 <defs>
  <style type="text/css">*{stroke-linejoin: round; stroke-linecap: butt}</style>
 </defs>
 <g id="figure_1">
  <g id="patch_1">
   <path d="M 0 183.35625 
L 238.965625 183.35625 
L 238.965625 0 
L 0 0 
z
" style="fill: #ffffff"/>
  </g>
  <g id="axes_1">
   <g id="patch_2">
    <path d="M 30.103125 145.8 
L 225.403125 145.8 
L 225.403125 7.2 
L 30.103125 7.2 
z
" style="fill: #ffffff"/>
   </g>
   <g id="matplotlib.axis_1">
    <g id="xtick_1">
     <g id="line2d_1">
      <path d="M 65.974554 145.8 
L 65.974554 7.2 
" clip-path="url(#pe82b82794c)" style="fill: none; stroke: #b0b0b0; stroke-width: 0.8; stroke-linecap: square"/>
     </g>
     <g id="line2d_2">
      <defs>
       <path id="m393e405532" d="M 0 0 
L 0 3.5 
" style="stroke: #000000; stroke-width: 0.8"/>
      </defs>
      <g>
       <use xlink:href="#m393e405532" x="65.974554" y="145.8" style="stroke: #000000; stroke-width: 0.8"/>
      </g>
     </g>
     <g id="text_1">
      <!-- 10 -->
      <g transform="translate(59.612054 160.398438) scale(0.1 -0.1)">
       <defs>
        <path id="DejaVuSans-31" d="M 794 531 
L 1825 531 
L 1825 4091 
L 703 3866 
L 703 4441 
L 1819 4666 
L 2450 4666 
L 2450 531 
L 3481 531 
L 3481 0 
L 794 0 
L 794 531 
z
" transform="scale(0.015625)"/>
        <path id="DejaVuSans-30" d="M 2034 4250 
Q 1547 4250 1301 3770 
Q 1056 3291 1056 2328 
Q 1056 1369 1301 889 
Q 1547 409 2034 409 
Q 2525 409 2770 889 
Q 3016 1369 3016 2328 
Q 3016 3291 2770 3770 
Q 2525 4250 2034 4250 
z
M 2034 4750 
Q 2819 4750 3233 4129 
Q 3647 3509 3647 2328 
Q 3647 1150 3233 529 
Q 2819 -91 2034 -91 
Q 1250 -91 836 529 
Q 422 1150 422 2328 
Q 422 3509 836 4129 
Q 1250 4750 2034 4750 
z
" transform="scale(0.015625)"/>
       </defs>
       <use xlink:href="#DejaVuSans-31"/>
       <use xlink:href="#DejaVuSans-30" x="63.623047"/>
      </g>
     </g>
    </g>
    <g id="xtick_2">
     <g id="line2d_3">
      <path d="M 105.831696 145.8 
L 105.831696 7.2 
" clip-path="url(#pe82b82794c)" style="fill: none; stroke: #b0b0b0; stroke-width: 0.8; stroke-linecap: square"/>
     </g>
     <g id="line2d_4">
      <g>
       <use xlink:href="#m393e405532" x="105.831696" y="145.8" style="stroke: #000000; stroke-width: 0.8"/>
      </g>
     </g>
     <g id="text_2">
      <!-- 20 -->
      <g transform="translate(99.469196 160.398438) scale(0.1 -0.1)">
       <defs>
        <path id="DejaVuSans-32" d="M 1228 531 
L 3431 531 
L 3431 0 
L 469 0 
L 469 531 
Q 828 903 1448 1529 
Q 2069 2156 2228 2338 
Q 2531 2678 2651 2914 
Q 2772 3150 2772 3378 
Q 2772 3750 2511 3984 
Q 2250 4219 1831 4219 
Q 1534 4219 1204 4116 
Q 875 4013 500 3803 
L 500 4441 
Q 881 4594 1212 4672 
Q 1544 4750 1819 4750 
Q 2544 4750 2975 4387 
Q 3406 4025 3406 3419 
Q 3406 3131 3298 2873 
Q 3191 2616 2906 2266 
Q 2828 2175 2409 1742 
Q 1991 1309 1228 531 
z
" transform="scale(0.015625)"/>
       </defs>
       <use xlink:href="#DejaVuSans-32"/>
       <use xlink:href="#DejaVuSans-30" x="63.623047"/>
      </g>
     </g>
    </g>
    <g id="xtick_3">
     <g id="line2d_5">
      <path d="M 145.688839 145.8 
L 145.688839 7.2 
" clip-path="url(#pe82b82794c)" style="fill: none; stroke: #b0b0b0; stroke-width: 0.8; stroke-linecap: square"/>
     </g>
     <g id="line2d_6">
      <g>
       <use xlink:href="#m393e405532" x="145.688839" y="145.8" style="stroke: #000000; stroke-width: 0.8"/>
      </g>
     </g>
     <g id="text_3">
      <!-- 30 -->
      <g transform="translate(139.326339 160.398438) scale(0.1 -0.1)">
       <defs>
        <path id="DejaVuSans-33" d="M 2597 2516 
Q 3050 2419 3304 2112 
Q 3559 1806 3559 1356 
Q 3559 666 3084 287 
Q 2609 -91 1734 -91 
Q 1441 -91 1130 -33 
Q 819 25 488 141 
L 488 750 
Q 750 597 1062 519 
Q 1375 441 1716 441 
Q 2309 441 2620 675 
Q 2931 909 2931 1356 
Q 2931 1769 2642 2001 
Q 2353 2234 1838 2234 
L 1294 2234 
L 1294 2753 
L 1863 2753 
Q 2328 2753 2575 2939 
Q 2822 3125 2822 3475 
Q 2822 3834 2567 4026 
Q 2313 4219 1838 4219 
Q 1578 4219 1281 4162 
Q 984 4106 628 3988 
L 628 4550 
Q 988 4650 1302 4700 
Q 1616 4750 1894 4750 
Q 2613 4750 3031 4423 
Q 3450 4097 3450 3541 
Q 3450 3153 3228 2886 
Q 3006 2619 2597 2516 
z
" transform="scale(0.015625)"/>
       </defs>
       <use xlink:href="#DejaVuSans-33"/>
       <use xlink:href="#DejaVuSans-30" x="63.623047"/>
      </g>
     </g>
    </g>
    <g id="xtick_4">
     <g id="line2d_7">
      <path d="M 185.545982 145.8 
L 185.545982 7.2 
" clip-path="url(#pe82b82794c)" style="fill: none; stroke: #b0b0b0; stroke-width: 0.8; stroke-linecap: square"/>
     </g>
     <g id="line2d_8">
      <g>
       <use xlink:href="#m393e405532" x="185.545982" y="145.8" style="stroke: #000000; stroke-width: 0.8"/>
      </g>
     </g>
     <g id="text_4">
      <!-- 40 -->
      <g transform="translate(179.183482 160.398438) scale(0.1 -0.1)">
       <defs>
        <path id="DejaVuSans-34" d="M 2419 4116 
L 825 1625 
L 2419 1625 
L 2419 4116 
z
M 2253 4666 
L 3047 4666 
L 3047 1625 
L 3713 1625 
L 3713 1100 
L 3047 1100 
L 3047 0 
L 2419 0 
L 2419 1100 
L 313 1100 
L 313 1709 
L 2253 4666 
z
" transform="scale(0.015625)"/>
       </defs>
       <use xlink:href="#DejaVuSans-34"/>
       <use xlink:href="#DejaVuSans-30" x="63.623047"/>
      </g>
     </g>
    </g>
    <g id="xtick_5">
     <g id="line2d_9">
      <path d="M 225.403125 145.8 
L 225.403125 7.2 
" clip-path="url(#pe82b82794c)" style="fill: none; stroke: #b0b0b0; stroke-width: 0.8; stroke-linecap: square"/>
     </g>
     <g id="line2d_10">
      <g>
       <use xlink:href="#m393e405532" x="225.403125" y="145.8" style="stroke: #000000; stroke-width: 0.8"/>
      </g>
     </g>
     <g id="text_5">
      <!-- 50 -->
      <g transform="translate(219.040625 160.398438) scale(0.1 -0.1)">
       <defs>
        <path id="DejaVuSans-35" d="M 691 4666 
L 3169 4666 
L 3169 4134 
L 1269 4134 
L 1269 2991 
Q 1406 3038 1543 3061 
Q 1681 3084 1819 3084 
Q 2600 3084 3056 2656 
Q 3513 2228 3513 1497 
Q 3513 744 3044 326 
Q 2575 -91 1722 -91 
Q 1428 -91 1123 -41 
Q 819 9 494 109 
L 494 744 
Q 775 591 1075 516 
Q 1375 441 1709 441 
Q 2250 441 2565 725 
Q 2881 1009 2881 1497 
Q 2881 1984 2565 2268 
Q 2250 2553 1709 2553 
Q 1456 2553 1204 2497 
Q 953 2441 691 2322 
L 691 4666 
z
" transform="scale(0.015625)"/>
       </defs>
       <use xlink:href="#DejaVuSans-35"/>
       <use xlink:href="#DejaVuSans-30" x="63.623047"/>
      </g>
     </g>
    </g>
    <g id="text_6">
     <!-- epoch -->
     <g transform="translate(112.525 174.076563) scale(0.1 -0.1)">
      <defs>
       <path id="DejaVuSans-65" d="M 3597 1894 
L 3597 1613 
L 953 1613 
Q 991 1019 1311 708 
Q 1631 397 2203 397 
Q 2534 397 2845 478 
Q 3156 559 3463 722 
L 3463 178 
Q 3153 47 2828 -22 
Q 2503 -91 2169 -91 
Q 1331 -91 842 396 
Q 353 884 353 1716 
Q 353 2575 817 3079 
Q 1281 3584 2069 3584 
Q 2775 3584 3186 3129 
Q 3597 2675 3597 1894 
z
M 3022 2063 
Q 3016 2534 2758 2815 
Q 2500 3097 2075 3097 
Q 1594 3097 1305 2825 
Q 1016 2553 972 2059 
L 3022 2063 
z
" transform="scale(0.015625)"/>
       <path id="DejaVuSans-70" d="M 1159 525 
L 1159 -1331 
L 581 -1331 
L 581 3500 
L 1159 3500 
L 1159 2969 
Q 1341 3281 1617 3432 
Q 1894 3584 2278 3584 
Q 2916 3584 3314 3078 
Q 3713 2572 3713 1747 
Q 3713 922 3314 415 
Q 2916 -91 2278 -91 
Q 1894 -91 1617 61 
Q 1341 213 1159 525 
z
M 3116 1747 
Q 3116 2381 2855 2742 
Q 2594 3103 2138 3103 
Q 1681 3103 1420 2742 
Q 1159 2381 1159 1747 
Q 1159 1113 1420 752 
Q 1681 391 2138 391 
Q 2594 391 2855 752 
Q 3116 1113 3116 1747 
z
" transform="scale(0.015625)"/>
       <path id="DejaVuSans-6f" d="M 1959 3097 
Q 1497 3097 1228 2736 
Q 959 2375 959 1747 
Q 959 1119 1226 758 
Q 1494 397 1959 397 
Q 2419 397 2687 759 
Q 2956 1122 2956 1747 
Q 2956 2369 2687 2733 
Q 2419 3097 1959 3097 
z
M 1959 3584 
Q 2709 3584 3137 3096 
Q 3566 2609 3566 1747 
Q 3566 888 3137 398 
Q 2709 -91 1959 -91 
Q 1206 -91 779 398 
Q 353 888 353 1747 
Q 353 2609 779 3096 
Q 1206 3584 1959 3584 
z
" transform="scale(0.015625)"/>
       <path id="DejaVuSans-63" d="M 3122 3366 
L 3122 2828 
Q 2878 2963 2633 3030 
Q 2388 3097 2138 3097 
Q 1578 3097 1268 2742 
Q 959 2388 959 1747 
Q 959 1106 1268 751 
Q 1578 397 2138 397 
Q 2388 397 2633 464 
Q 2878 531 3122 666 
L 3122 134 
Q 2881 22 2623 -34 
Q 2366 -91 2075 -91 
Q 1284 -91 818 406 
Q 353 903 353 1747 
Q 353 2603 823 3093 
Q 1294 3584 2113 3584 
Q 2378 3584 2631 3529 
Q 2884 3475 3122 3366 
z
" transform="scale(0.015625)"/>
       <path id="DejaVuSans-68" d="M 3513 2113 
L 3513 0 
L 2938 0 
L 2938 2094 
Q 2938 2591 2744 2837 
Q 2550 3084 2163 3084 
Q 1697 3084 1428 2787 
Q 1159 2491 1159 1978 
L 1159 0 
L 581 0 
L 581 4863 
L 1159 4863 
L 1159 2956 
Q 1366 3272 1645 3428 
Q 1925 3584 2291 3584 
Q 2894 3584 3203 3211 
Q 3513 2838 3513 2113 
z
" transform="scale(0.015625)"/>
      </defs>
      <use xlink:href="#DejaVuSans-65"/>
      <use xlink:href="#DejaVuSans-70" x="61.523438"/>
      <use xlink:href="#DejaVuSans-6f" x="125"/>
      <use xlink:href="#DejaVuSans-63" x="186.181641"/>
      <use xlink:href="#DejaVuSans-68" x="241.162109"/>
     </g>
    </g>
   </g>
   <g id="matplotlib.axis_2">
    <g id="ytick_1">
     <g id="line2d_11">
      <path d="M 30.103125 145.064869 
L 225.403125 145.064869 
" clip-path="url(#pe82b82794c)" style="fill: none; stroke: #b0b0b0; stroke-width: 0.8; stroke-linecap: square"/>
     </g>
     <g id="line2d_12">
      <defs>
       <path id="m65cdfa7f6f" d="M 0 0 
L -3.5 0 
" style="stroke: #000000; stroke-width: 0.8"/>
      </defs>
      <g>
       <use xlink:href="#m65cdfa7f6f" x="30.103125" y="145.064869" style="stroke: #000000; stroke-width: 0.8"/>
      </g>
     </g>
     <g id="text_7">
      <!-- 0.0 -->
      <g transform="translate(7.2 148.864088) scale(0.1 -0.1)">
       <defs>
        <path id="DejaVuSans-2e" d="M 684 794 
L 1344 794 
L 1344 0 
L 684 0 
L 684 794 
z
" transform="scale(0.015625)"/>
       </defs>
       <use xlink:href="#DejaVuSans-30"/>
       <use xlink:href="#DejaVuSans-2e" x="63.623047"/>
       <use xlink:href="#DejaVuSans-30" x="95.410156"/>
      </g>
     </g>
    </g>
    <g id="ytick_2">
     <g id="line2d_13">
      <path d="M 30.103125 116.765416 
L 225.403125 116.765416 
" clip-path="url(#pe82b82794c)" style="fill: none; stroke: #b0b0b0; stroke-width: 0.8; stroke-linecap: square"/>
     </g>
     <g id="line2d_14">
      <g>
       <use xlink:href="#m65cdfa7f6f" x="30.103125" y="116.765416" style="stroke: #000000; stroke-width: 0.8"/>
      </g>
     </g>
     <g id="text_8">
      <!-- 0.5 -->
      <g transform="translate(7.2 120.564634) scale(0.1 -0.1)">
       <use xlink:href="#DejaVuSans-30"/>
       <use xlink:href="#DejaVuSans-2e" x="63.623047"/>
       <use xlink:href="#DejaVuSans-35" x="95.410156"/>
      </g>
     </g>
    </g>
    <g id="ytick_3">
     <g id="line2d_15">
      <path d="M 30.103125 88.465962 
L 225.403125 88.465962 
" clip-path="url(#pe82b82794c)" style="fill: none; stroke: #b0b0b0; stroke-width: 0.8; stroke-linecap: square"/>
     </g>
     <g id="line2d_16">
      <g>
       <use xlink:href="#m65cdfa7f6f" x="30.103125" y="88.465962" style="stroke: #000000; stroke-width: 0.8"/>
      </g>
     </g>
     <g id="text_9">
      <!-- 1.0 -->
      <g transform="translate(7.2 92.265181) scale(0.1 -0.1)">
       <use xlink:href="#DejaVuSans-31"/>
       <use xlink:href="#DejaVuSans-2e" x="63.623047"/>
       <use xlink:href="#DejaVuSans-30" x="95.410156"/>
      </g>
     </g>
    </g>
    <g id="ytick_4">
     <g id="line2d_17">
      <path d="M 30.103125 60.166508 
L 225.403125 60.166508 
" clip-path="url(#pe82b82794c)" style="fill: none; stroke: #b0b0b0; stroke-width: 0.8; stroke-linecap: square"/>
     </g>
     <g id="line2d_18">
      <g>
       <use xlink:href="#m65cdfa7f6f" x="30.103125" y="60.166508" style="stroke: #000000; stroke-width: 0.8"/>
      </g>
     </g>
     <g id="text_10">
      <!-- 1.5 -->
      <g transform="translate(7.2 63.965727) scale(0.1 -0.1)">
       <use xlink:href="#DejaVuSans-31"/>
       <use xlink:href="#DejaVuSans-2e" x="63.623047"/>
       <use xlink:href="#DejaVuSans-35" x="95.410156"/>
      </g>
     </g>
    </g>
    <g id="ytick_5">
     <g id="line2d_19">
      <path d="M 30.103125 31.867055 
L 225.403125 31.867055 
" clip-path="url(#pe82b82794c)" style="fill: none; stroke: #b0b0b0; stroke-width: 0.8; stroke-linecap: square"/>
     </g>
     <g id="line2d_20">
      <g>
       <use xlink:href="#m65cdfa7f6f" x="30.103125" y="31.867055" style="stroke: #000000; stroke-width: 0.8"/>
      </g>
     </g>
     <g id="text_11">
      <!-- 2.0 -->
      <g transform="translate(7.2 35.666273) scale(0.1 -0.1)">
       <use xlink:href="#DejaVuSans-32"/>
       <use xlink:href="#DejaVuSans-2e" x="63.623047"/>
       <use xlink:href="#DejaVuSans-30" x="95.410156"/>
      </g>
     </g>
    </g>
   </g>
   <g id="line2d_21">
    <path d="M 26.914554 13.5 
L 27.711696 14.083417 
L 29.305982 14.406799 
L 30.103125 14.474572 
L 30.900268 14.742672 
L 35.683125 14.852339 
L 38.074554 15.027974 
L 38.871696 15.961898 
L 39.668839 16.715046 
L 40.465982 18.475442 
L 41.263125 21.603684 
L 42.060268 25.36455 
L 42.857411 46.996778 
L 43.654554 49.265504 
L 46.045982 54.786563 
L 46.843125 64.885851 
L 47.640268 66.654088 
L 48.437411 68.028943 
L 50.031696 69.914025 
L 50.828839 76.309581 
L 53.220268 78.04172 
L 54.017411 78.782914 
L 54.814554 83.021275 
L 55.611696 83.705941 
L 56.408839 84.188294 
L 57.205982 84.471719 
L 58.003125 84.959817 
L 58.800268 89.189243 
L 61.191696 90.464933 
L 61.988839 91.049704 
L 62.785982 94.297825 
L 63.583125 95.005206 
L 64.380268 95.461245 
L 65.177411 95.650713 
L 65.974554 96.16257 
L 66.771696 98.515096 
L 67.568839 98.292578 
L 68.365982 99.35678 
L 69.163125 99.630647 
L 69.960268 100.251158 
L 70.757411 102.708918 
L 71.554554 102.948585 
L 72.351696 103.742436 
L 73.148839 104.065233 
L 73.945982 104.144893 
L 74.743125 106.613293 
L 75.540268 107.165199 
L 76.337411 107.169338 
L 77.931696 108.024844 
L 78.728839 109.481807 
L 79.525982 110.341047 
L 81.917411 110.505002 
L 82.714554 111.676728 
L 83.511696 112.293913 
L 85.105982 112.678045 
L 85.903125 112.689963 
L 87.497411 113.823408 
L 89.888839 114.524831 
L 90.685982 115.248447 
L 91.483125 115.131825 
L 93.077411 115.907154 
L 93.874554 116.182652 
L 94.671696 117.366443 
L 95.468839 117.302799 
L 97.860268 117.617927 
L 99.454554 118.636564 
L 101.845982 119.013347 
L 102.643125 119.885382 
L 103.440268 119.475282 
L 104.237411 119.787047 
L 105.831696 120.013612 
L 107.425982 120.537176 
L 108.223125 120.762502 
L 109.020268 120.726737 
L 109.817411 120.864944 
L 110.614554 121.517688 
L 111.411696 121.657408 
L 113.005982 121.696792 
L 113.803125 121.749073 
L 114.600268 123.132496 
L 115.397411 122.476828 
L 116.991696 122.68921 
L 118.585982 122.493322 
L 119.383125 122.609464 
L 120.180268 123.018218 
L 120.977411 123.219242 
L 121.774554 123.288378 
L 122.571696 123.536476 
L 123.368839 123.915036 
L 124.165982 124.064026 
L 126.557411 124.069558 
L 128.151696 124.490842 
L 128.948839 124.682555 
L 129.745982 124.681924 
L 130.543125 125.142137 
L 132.137411 125.433979 
L 133.731696 125.376958 
L 135.325982 125.701185 
L 136.123125 125.700638 
L 137.717411 125.920927 
L 138.514554 127.025549 
L 139.311696 126.15947 
L 140.108839 126.489364 
L 140.905982 126.346792 
L 141.703125 126.398438 
L 142.500268 126.641613 
L 143.297411 127.021738 
L 144.094554 127.062028 
L 144.891696 126.896615 
L 145.688839 126.906047 
L 146.485982 127.128999 
L 149.674554 127.199187 
L 150.471696 126.753905 
L 151.268839 127.348677 
L 152.065982 127.481605 
L 152.863125 127.458747 
L 153.660268 127.620671 
L 154.457411 127.368691 
L 155.254554 127.774837 
L 157.645982 127.942804 
L 158.443125 128.324762 
L 161.631696 128.31673 
L 162.428839 128.913955 
L 163.225982 128.997408 
L 164.023125 128.754794 
L 164.820268 128.676628 
L 165.617411 128.721441 
L 166.414554 128.980039 
L 168.008839 128.836053 
L 170.400268 129.098915 
L 171.197411 129.274083 
L 173.588839 129.250109 
L 174.385982 129.598686 
L 178.371696 129.422657 
L 179.168839 129.32787 
L 180.763125 129.731475 
L 181.560268 129.668664 
L 182.357411 130.21679 
L 183.951696 130.220655 
L 184.748839 130.059845 
L 185.545982 130.037494 
L 186.343125 130.217978 
L 187.140268 130.189372 
L 187.937411 130.304382 
L 190.328839 130.307996 
L 191.125982 130.462809 
L 192.720268 130.55697 
L 193.517411 130.393257 
L 194.314554 130.387765 
L 195.908839 130.716737 
L 196.705982 130.845289 
L 199.097411 130.970107 
L 199.894554 131.168969 
L 200.691696 131.016377 
L 201.488839 130.980955 
L 202.285982 131.285259 
L 204.677411 131.110735 
L 205.474554 131.178604 
L 206.271696 131.443813 
L 207.068839 131.380583 
L 207.865982 131.497859 
L 209.460268 131.312149 
L 210.257411 131.576583 
L 211.054554 131.365792 
L 211.851696 131.598236 
L 214.243125 131.566811 
L 218.228839 131.887511 
L 219.025982 131.816381 
L 219.823125 132.051009 
L 221.417411 131.912492 
L 222.214554 132.266049 
L 223.011696 132.255208 
L 223.808839 132.044713 
L 225.403125 132.135666 
L 225.403125 132.135666 
" clip-path="url(#pe82b82794c)" style="fill: none; stroke: #1f77b4; stroke-width: 1.5; stroke-linecap: square"/>
   </g>
   <g id="line2d_22">
    <path d="M 26.914554 139.260094 
L 27.711696 139.5 
L 29.305982 139.302431 
L 34.088839 139.087081 
L 34.885982 139.462368 
L 35.683125 138.728539 
L 38.074554 137.76078 
L 38.871696 132.387504 
L 39.668839 130.964535 
L 40.465982 130.534116 
L 41.263125 129.866143 
L 42.060268 128.840793 
L 42.857411 122.029227 
L 43.654554 121.921034 
L 45.248839 120.768546 
L 46.045982 120.589615 
L 46.843125 118.524723 
L 47.640268 118.400067 
L 50.031696 117.537047 
L 50.828839 115.184861 
L 51.625982 115.050796 
L 52.423125 114.731706 
L 54.017411 114.44486 
L 54.814554 112.536491 
L 55.611696 112.327162 
L 56.408839 111.823047 
L 58.003125 111.369653 
L 58.800268 109.173109 
L 59.597411 109.363622 
L 61.988839 108.586874 
L 62.785982 107.489065 
L 63.583125 107.136263 
L 65.974554 106.697413 
L 66.771696 105.663901 
L 67.568839 105.781502 
L 68.365982 105.339323 
L 69.960268 104.968317 
L 70.757411 104.191539 
L 72.351696 103.627056 
L 73.945982 103.498632 
L 74.743125 102.860298 
L 75.540268 102.669785 
L 76.337411 102.651753 
L 77.134554 102.367551 
L 77.931696 102.253456 
L 79.525982 101.343248 
L 81.917411 101.406359 
L 83.511696 100.73878 
L 86.700268 100.555323 
L 87.497411 100.256617 
L 89.888839 100.005536 
L 90.685982 99.86383 
L 91.483125 99.887351 
L 93.077411 99.480452 
L 93.874554 99.338612 
L 94.671696 98.885392 
L 96.265982 98.669006 
L 97.063125 98.480845 
L 97.860268 98.42737 
L 100.251696 97.836393 
L 101.845982 97.717997 
L 102.643125 97.257797 
L 103.440268 97.46007 
L 106.628839 97.215461 
L 109.817411 96.965231 
L 110.614554 96.726241 
L 113.803125 96.630354 
L 114.600268 96.091197 
L 115.397411 96.443999 
L 125.760268 95.870042 
L 126.557411 96.15235 
L 127.354554 95.877164 
L 129.745982 95.678549 
L 130.543125 95.700762 
L 131.340268 95.498489 
L 133.731696 95.427628 
L 134.528839 95.296216 
L 137.717411 95.248398 
L 138.514554 94.976342 
L 139.311696 95.237415 
L 140.108839 95.035926 
L 141.703125 95.054075 
L 143.297411 94.915189 
L 144.891696 94.902253 
L 145.688839 94.918237 
L 146.485982 94.774068 
L 149.674554 94.778627 
L 150.471696 94.966934 
L 151.268839 94.727028 
L 152.065982 94.643923 
L 154.457411 94.78818 
L 155.254554 94.623539 
L 157.645982 94.561664 
L 159.240268 94.346001 
L 160.037411 94.455762 
L 163.225982 94.230753 
L 164.820268 94.348353 
L 169.603125 94.147549 
L 170.400268 93.974383 
L 172.791696 94.090808 
L 181.560268 94.004165 
L 182.357411 93.762702 
L 185.545982 93.828708 
L 186.343125 93.687437 
L 187.140268 93.760349 
L 188.734554 93.722717 
L 191.125982 93.755645 
L 194.314554 93.701549 
L 197.503125 93.520244 
L 198.300268 93.649805 
L 205.474554 93.433459 
L 206.271696 93.339339 
L 209.460268 93.421196 
L 210.257411 93.348747 
L 211.851696 93.337771 
L 215.040268 93.245258 
L 216.634554 93.231146 
L 219.025982 93.254666 
L 219.823125 93.130793 
L 224.605982 93.226442 
L 225.403125 93.197631 
L 225.403125 93.197631 
" clip-path="url(#pe82b82794c)" style="fill: none; stroke-dasharray: 5.55,2.4; stroke-dashoffset: 0; stroke: #bf00bf; stroke-width: 1.5"/>
   </g>
   <g id="line2d_23">
    <path d="M 30.103125 139.404979 
L 34.088839 139.404979 
L 38.074554 132.188618 
L 42.060268 122.097033 
L 46.045982 118.486022 
L 50.031696 115.605138 
L 54.017411 113.709075 
L 58.003125 109.458497 
L 61.988839 108.994386 
L 65.974554 107.545454 
L 69.960268 104.823046 
L 73.945982 103.855205 
L 77.931696 102.372314 
L 81.917411 101.930842 
L 85.903125 101.093178 
L 89.888839 100.48191 
L 93.874554 100.204575 
L 97.860268 99.106557 
L 101.845982 98.455669 
L 105.831696 97.997218 
L 109.817411 97.108615 
L 113.803125 97.719883 
L 117.788839 96.85392 
L 121.774554 96.955798 
L 125.760268 96.650164 
L 129.745982 97.629325 
L 133.731696 95.931358 
L 137.717411 95.727602 
L 141.703125 96.135114 
L 145.688839 96.633184 
L 149.674554 95.455927 
L 153.660268 96.027576 
L 157.645982 96.163413 
L 161.631696 95.574785 
L 165.617411 95.144633 
L 169.603125 95.28047 
L 173.588839 95.580445 
L 177.574554 95.246511 
L 181.560268 94.980496 
L 185.545982 95.478567 
L 189.531696 95.693642 
L 193.517411 94.816359 
L 197.503125 95.382348 
L 201.488839 94.980496 
L 205.474554 94.952197 
L 209.460268 94.844659 
L 213.445982 95.580445 
L 217.431696 94.80504 
L 221.417411 95.014456 
L 225.403125 94.663542 
" clip-path="url(#pe82b82794c)" style="fill: none; stroke-dasharray: 9.6,2.4,1.5,2.4; stroke-dashoffset: 0; stroke: #008000; stroke-width: 1.5"/>
   </g>
   <g id="patch_3">
    <path d="M 30.103125 145.8 
L 30.103125 7.2 
" style="fill: none; stroke: #000000; stroke-width: 0.8; stroke-linejoin: miter; stroke-linecap: square"/>
   </g>
   <g id="patch_4">
    <path d="M 225.403125 145.8 
L 225.403125 7.2 
" style="fill: none; stroke: #000000; stroke-width: 0.8; stroke-linejoin: miter; stroke-linecap: square"/>
   </g>
   <g id="patch_5">
    <path d="M 30.103125 145.8 
L 225.403125 145.8 
" style="fill: none; stroke: #000000; stroke-width: 0.8; stroke-linejoin: miter; stroke-linecap: square"/>
   </g>
   <g id="patch_6">
    <path d="M 30.103125 7.2 
L 225.403125 7.2 
" style="fill: none; stroke: #000000; stroke-width: 0.8; stroke-linejoin: miter; stroke-linecap: square"/>
   </g>
   <g id="legend_1">
    <g id="patch_7">
     <path d="M 140.634375 59.234375 
L 218.403125 59.234375 
Q 220.403125 59.234375 220.403125 57.234375 
L 220.403125 14.2 
Q 220.403125 12.2 218.403125 12.2 
L 140.634375 12.2 
Q 138.634375 12.2 138.634375 14.2 
L 138.634375 57.234375 
Q 138.634375 59.234375 140.634375 59.234375 
z
" style="fill: #ffffff; opacity: 0.8; stroke: #cccccc; stroke-linejoin: miter"/>
    </g>
    <g id="line2d_24">
     <path d="M 142.634375 20.298438 
L 152.634375 20.298438 
L 162.634375 20.298438 
" style="fill: none; stroke: #1f77b4; stroke-width: 1.5; stroke-linecap: square"/>
    </g>
    <g id="text_12">
     <!-- train loss -->
     <g transform="translate(170.634375 23.798438) scale(0.1 -0.1)">
      <defs>
       <path id="DejaVuSans-74" d="M 1172 4494 
L 1172 3500 
L 2356 3500 
L 2356 3053 
L 1172 3053 
L 1172 1153 
Q 1172 725 1289 603 
Q 1406 481 1766 481 
L 2356 481 
L 2356 0 
L 1766 0 
Q 1100 0 847 248 
Q 594 497 594 1153 
L 594 3053 
L 172 3053 
L 172 3500 
L 594 3500 
L 594 4494 
L 1172 4494 
z
" transform="scale(0.015625)"/>
       <path id="DejaVuSans-72" d="M 2631 2963 
Q 2534 3019 2420 3045 
Q 2306 3072 2169 3072 
Q 1681 3072 1420 2755 
Q 1159 2438 1159 1844 
L 1159 0 
L 581 0 
L 581 3500 
L 1159 3500 
L 1159 2956 
Q 1341 3275 1631 3429 
Q 1922 3584 2338 3584 
Q 2397 3584 2469 3576 
Q 2541 3569 2628 3553 
L 2631 2963 
z
" transform="scale(0.015625)"/>
       <path id="DejaVuSans-61" d="M 2194 1759 
Q 1497 1759 1228 1600 
Q 959 1441 959 1056 
Q 959 750 1161 570 
Q 1363 391 1709 391 
Q 2188 391 2477 730 
Q 2766 1069 2766 1631 
L 2766 1759 
L 2194 1759 
z
M 3341 1997 
L 3341 0 
L 2766 0 
L 2766 531 
Q 2569 213 2275 61 
Q 1981 -91 1556 -91 
Q 1019 -91 701 211 
Q 384 513 384 1019 
Q 384 1609 779 1909 
Q 1175 2209 1959 2209 
L 2766 2209 
L 2766 2266 
Q 2766 2663 2505 2880 
Q 2244 3097 1772 3097 
Q 1472 3097 1187 3025 
Q 903 2953 641 2809 
L 641 3341 
Q 956 3463 1253 3523 
Q 1550 3584 1831 3584 
Q 2591 3584 2966 3190 
Q 3341 2797 3341 1997 
z
" transform="scale(0.015625)"/>
       <path id="DejaVuSans-69" d="M 603 3500 
L 1178 3500 
L 1178 0 
L 603 0 
L 603 3500 
z
M 603 4863 
L 1178 4863 
L 1178 4134 
L 603 4134 
L 603 4863 
z
" transform="scale(0.015625)"/>
       <path id="DejaVuSans-6e" d="M 3513 2113 
L 3513 0 
L 2938 0 
L 2938 2094 
Q 2938 2591 2744 2837 
Q 2550 3084 2163 3084 
Q 1697 3084 1428 2787 
Q 1159 2491 1159 1978 
L 1159 0 
L 581 0 
L 581 3500 
L 1159 3500 
L 1159 2956 
Q 1366 3272 1645 3428 
Q 1925 3584 2291 3584 
Q 2894 3584 3203 3211 
Q 3513 2838 3513 2113 
z
" transform="scale(0.015625)"/>
       <path id="DejaVuSans-20" transform="scale(0.015625)"/>
       <path id="DejaVuSans-6c" d="M 603 4863 
L 1178 4863 
L 1178 0 
L 603 0 
L 603 4863 
z
" transform="scale(0.015625)"/>
       <path id="DejaVuSans-73" d="M 2834 3397 
L 2834 2853 
Q 2591 2978 2328 3040 
Q 2066 3103 1784 3103 
Q 1356 3103 1142 2972 
Q 928 2841 928 2578 
Q 928 2378 1081 2264 
Q 1234 2150 1697 2047 
L 1894 2003 
Q 2506 1872 2764 1633 
Q 3022 1394 3022 966 
Q 3022 478 2636 193 
Q 2250 -91 1575 -91 
Q 1294 -91 989 -36 
Q 684 19 347 128 
L 347 722 
Q 666 556 975 473 
Q 1284 391 1588 391 
Q 1994 391 2212 530 
Q 2431 669 2431 922 
Q 2431 1156 2273 1281 
Q 2116 1406 1581 1522 
L 1381 1569 
Q 847 1681 609 1914 
Q 372 2147 372 2553 
Q 372 3047 722 3315 
Q 1072 3584 1716 3584 
Q 2034 3584 2315 3537 
Q 2597 3491 2834 3397 
z
" transform="scale(0.015625)"/>
      </defs>
      <use xlink:href="#DejaVuSans-74"/>
      <use xlink:href="#DejaVuSans-72" x="39.208984"/>
      <use xlink:href="#DejaVuSans-61" x="80.322266"/>
      <use xlink:href="#DejaVuSans-69" x="141.601562"/>
      <use xlink:href="#DejaVuSans-6e" x="169.384766"/>
      <use xlink:href="#DejaVuSans-20" x="232.763672"/>
      <use xlink:href="#DejaVuSans-6c" x="264.550781"/>
      <use xlink:href="#DejaVuSans-6f" x="292.333984"/>
      <use xlink:href="#DejaVuSans-73" x="353.515625"/>
      <use xlink:href="#DejaVuSans-73" x="405.615234"/>
     </g>
    </g>
    <g id="line2d_25">
     <path d="M 142.634375 34.976563 
L 152.634375 34.976563 
L 162.634375 34.976563 
" style="fill: none; stroke-dasharray: 5.55,2.4; stroke-dashoffset: 0; stroke: #bf00bf; stroke-width: 1.5"/>
    </g>
    <g id="text_13">
     <!-- train acc -->
     <g transform="translate(170.634375 38.476563) scale(0.1 -0.1)">
      <use xlink:href="#DejaVuSans-74"/>
      <use xlink:href="#DejaVuSans-72" x="39.208984"/>
      <use xlink:href="#DejaVuSans-61" x="80.322266"/>
      <use xlink:href="#DejaVuSans-69" x="141.601562"/>
      <use xlink:href="#DejaVuSans-6e" x="169.384766"/>
      <use xlink:href="#DejaVuSans-20" x="232.763672"/>
      <use xlink:href="#DejaVuSans-61" x="264.550781"/>
      <use xlink:href="#DejaVuSans-63" x="325.830078"/>
      <use xlink:href="#DejaVuSans-63" x="380.810547"/>
     </g>
    </g>
    <g id="line2d_26">
     <path d="M 142.634375 49.654688 
L 152.634375 49.654688 
L 162.634375 49.654688 
" style="fill: none; stroke-dasharray: 9.6,2.4,1.5,2.4; stroke-dashoffset: 0; stroke: #008000; stroke-width: 1.5"/>
    </g>
    <g id="text_14">
     <!-- test acc -->
     <g transform="translate(170.634375 53.154688) scale(0.1 -0.1)">
      <use xlink:href="#DejaVuSans-74"/>
      <use xlink:href="#DejaVuSans-65" x="39.208984"/>
      <use xlink:href="#DejaVuSans-73" x="100.732422"/>
      <use xlink:href="#DejaVuSans-74" x="152.832031"/>
      <use xlink:href="#DejaVuSans-20" x="192.041016"/>
      <use xlink:href="#DejaVuSans-61" x="223.828125"/>
      <use xlink:href="#DejaVuSans-63" x="285.107422"/>
      <use xlink:href="#DejaVuSans-63" x="340.087891"/>
     </g>
    </g>
   </g>
  </g>
 </g>
 <defs>
  <clipPath id="pe82b82794c">
   <rect x="30.103125" y="7.2" width="195.3" height="138.6"/>
  </clipPath>
 </defs>
</svg>
