<?xml version="1.0" encoding="utf-8" standalone="no"?>
<!DOCTYPE svg PUBLIC "-//W3C//DTD SVG 1.1//EN"
  "http://www.w3.org/Graphics/SVG/1.1/DTD/svg11.dtd">
<svg xmlns:xlink="http://www.w3.org/1999/xlink" width="238.965625pt" height="183.35625pt" viewBox="0 0 238.965625 183.35625" xmlns="http://www.w3.org/2000/svg" version="1.1">
 <metadata>
  <rdf:RDF xmlns:dc="http://purl.org/dc/elements/1.1/" xmlns:cc="http://creativecommons.org/ns#" xmlns:rdf="http://www.w3.org/1999/02/22-rdf-syntax-ns#">
   <cc:Work>
    <dc:type rdf:resource="http://purl.org/dc/dcmitype/StillImage"/>
    <dc:date>2024-01-08T08:09:53.596833</dc:date>
    <dc:format>image/svg+xml</dc:format>
    <dc:creator>
     <cc:Agent>
      <dc:title>Matplotlib v3.7.2, https://matplotlib.org/</dc:title>
     </cc:Agent>
    </dc:creator>
   </cc:Work>
  </rdf:RDF>
 </metadata>
 <defs>
  <style type="text/css">*{stroke-linejoin: round; stroke-linecap: butt}</style>
 </defs>
 <g id="figure_1">
  <g id="patch_1">
   <path d="M 0 183.35625 
L 238.965625 183.35625 
L 238.965625 0 
L 0 0 
z
" style="fill: #ffffff"/>
  </g>
  <g id="axes_1">
   <g id="patch_2">
    <path d="M 30.103125 145.8 
L 225.403125 145.8 
L 225.403125 7.2 
L 30.103125 7.2 
z
" style="fill: #ffffff"/>
   </g>
   <g id="matplotlib.axis_1">
    <g id="xtick_1">
     <g id="line2d_1">
      <path d="M 65.974554 145.8 
L 65.974554 7.2 
" clip-path="url(#p7dd939d939)" style="fill: none; stroke: #b0b0b0; stroke-width: 0.8; stroke-linecap: square"/>
     </g>
     <g id="line2d_2">
      <defs>
       <path id="mffab607082" d="M 0 0 
L 0 3.5 
" style="stroke: #000000; stroke-width: 0.8"/>
      </defs>
      <g>
       <use xlink:href="#mffab607082" x="65.974554" y="145.8" style="stroke: #000000; stroke-width: 0.8"/>
      </g>
     </g>
     <g id="text_1">
      <!-- 10 -->
      <g transform="translate(59.612054 160.398438) scale(0.1 -0.1)">
       <defs>
        <path id="DejaVuSans-31" d="M 794 531 
L 1825 531 
L 1825 4091 
L 703 3866 
L 703 4441 
L 1819 4666 
L 2450 4666 
L 2450 531 
L 3481 531 
L 3481 0 
L 794 0 
L 794 531 
z
" transform="scale(0.015625)"/>
        <path id="DejaVuSans-30" d="M 2034 4250 
Q 1547 4250 1301 3770 
Q 1056 3291 1056 2328 
Q 1056 1369 1301 889 
Q 1547 409 2034 409 
Q 2525 409 2770 889 
Q 3016 1369 3016 2328 
Q 3016 3291 2770 3770 
Q 2525 4250 2034 4250 
z
M 2034 4750 
Q 2819 4750 3233 4129 
Q 3647 3509 3647 2328 
Q 3647 1150 3233 529 
Q 2819 -91 2034 -91 
Q 1250 -91 836 529 
Q 422 1150 422 2328 
Q 422 3509 836 4129 
Q 1250 4750 2034 4750 
z
" transform="scale(0.015625)"/>
       </defs>
       <use xlink:href="#DejaVuSans-31"/>
       <use xlink:href="#DejaVuSans-30" x="63.623047"/>
      </g>
     </g>
    </g>
    <g id="xtick_2">
     <g id="line2d_3">
      <path d="M 105.831696 145.8 
L 105.831696 7.2 
" clip-path="url(#p7dd939d939)" style="fill: none; stroke: #b0b0b0; stroke-width: 0.8; stroke-linecap: square"/>
     </g>
     <g id="line2d_4">
      <g>
       <use xlink:href="#mffab607082" x="105.831696" y="145.8" style="stroke: #000000; stroke-width: 0.8"/>
      </g>
     </g>
     <g id="text_2">
      <!-- 20 -->
      <g transform="translate(99.469196 160.398438) scale(0.1 -0.1)">
       <defs>
        <path id="DejaVuSans-32" d="M 1228 531 
L 3431 531 
L 3431 0 
L 469 0 
L 469 531 
Q 828 903 1448 1529 
Q 2069 2156 2228 2338 
Q 2531 2678 2651 2914 
Q 2772 3150 2772 3378 
Q 2772 3750 2511 3984 
Q 2250 4219 1831 4219 
Q 1534 4219 1204 4116 
Q 875 4013 500 3803 
L 500 4441 
Q 881 4594 1212 4672 
Q 1544 4750 1819 4750 
Q 2544 4750 2975 4387 
Q 3406 4025 3406 3419 
Q 3406 3131 3298 2873 
Q 3191 2616 2906 2266 
Q 2828 2175 2409 1742 
Q 1991 1309 1228 531 
z
" transform="scale(0.015625)"/>
       </defs>
       <use xlink:href="#DejaVuSans-32"/>
       <use xlink:href="#DejaVuSans-30" x="63.623047"/>
      </g>
     </g>
    </g>
    <g id="xtick_3">
     <g id="line2d_5">
      <path d="M 145.688839 145.8 
L 145.688839 7.2 
" clip-path="url(#p7dd939d939)" style="fill: none; stroke: #b0b0b0; stroke-width: 0.8; stroke-linecap: square"/>
     </g>
     <g id="line2d_6">
      <g>
       <use xlink:href="#mffab607082" x="145.688839" y="145.8" style="stroke: #000000; stroke-width: 0.8"/>
      </g>
     </g>
     <g id="text_3">
      <!-- 30 -->
      <g transform="translate(139.326339 160.398438) scale(0.1 -0.1)">
       <defs>
        <path id="DejaVuSans-33" d="M 2597 2516 
Q 3050 2419 3304 2112 
Q 3559 1806 3559 1356 
Q 3559 666 3084 287 
Q 2609 -91 1734 -91 
Q 1441 -91 1130 -33 
Q 819 25 488 141 
L 488 750 
Q 750 597 1062 519 
Q 1375 441 1716 441 
Q 2309 441 2620 675 
Q 2931 909 2931 1356 
Q 2931 1769 2642 2001 
Q 2353 2234 1838 2234 
L 1294 2234 
L 1294 2753 
L 1863 2753 
Q 2328 2753 2575 2939 
Q 2822 3125 2822 3475 
Q 2822 3834 2567 4026 
Q 2313 4219 1838 4219 
Q 1578 4219 1281 4162 
Q 984 4106 628 3988 
L 628 4550 
Q 988 4650 1302 4700 
Q 1616 4750 1894 4750 
Q 2613 4750 3031 4423 
Q 3450 4097 3450 3541 
Q 3450 3153 3228 2886 
Q 3006 2619 2597 2516 
z
" transform="scale(0.015625)"/>
       </defs>
       <use xlink:href="#DejaVuSans-33"/>
       <use xlink:href="#DejaVuSans-30" x="63.623047"/>
      </g>
     </g>
    </g>
    <g id="xtick_4">
     <g id="line2d_7">
      <path d="M 185.545982 145.8 
L 185.545982 7.2 
" clip-path="url(#p7dd939d939)" style="fill: none; stroke: #b0b0b0; stroke-width: 0.8; stroke-linecap: square"/>
     </g>
     <g id="line2d_8">
      <g>
       <use xlink:href="#mffab607082" x="185.545982" y="145.8" style="stroke: #000000; stroke-width: 0.8"/>
      </g>
     </g>
     <g id="text_4">
      <!-- 40 -->
      <g transform="translate(179.183482 160.398438) scale(0.1 -0.1)">
       <defs>
        <path id="DejaVuSans-34" d="M 2419 4116 
L 825 1625 
L 2419 1625 
L 2419 4116 
z
M 2253 4666 
L 3047 4666 
L 3047 1625 
L 3713 1625 
L 3713 1100 
L 3047 1100 
L 3047 0 
L 2419 0 
L 2419 1100 
L 313 1100 
L 313 1709 
L 2253 4666 
z
" transform="scale(0.015625)"/>
       </defs>
       <use xlink:href="#DejaVuSans-34"/>
       <use xlink:href="#DejaVuSans-30" x="63.623047"/>
      </g>
     </g>
    </g>
    <g id="xtick_5">
     <g id="line2d_9">
      <path d="M 225.403125 145.8 
L 225.403125 7.2 
" clip-path="url(#p7dd939d939)" style="fill: none; stroke: #b0b0b0; stroke-width: 0.8; stroke-linecap: square"/>
     </g>
     <g id="line2d_10">
      <g>
       <use xlink:href="#mffab607082" x="225.403125" y="145.8" style="stroke: #000000; stroke-width: 0.8"/>
      </g>
     </g>
     <g id="text_5">
      <!-- 50 -->
      <g transform="translate(219.040625 160.398438) scale(0.1 -0.1)">
       <defs>
        <path id="DejaVuSans-35" d="M 691 4666 
L 3169 4666 
L 3169 4134 
L 1269 4134 
L 1269 2991 
Q 1406 3038 1543 3061 
Q 1681 3084 1819 3084 
Q 2600 3084 3056 2656 
Q 3513 2228 3513 1497 
Q 3513 744 3044 326 
Q 2575 -91 1722 -91 
Q 1428 -91 1123 -41 
Q 819 9 494 109 
L 494 744 
Q 775 591 1075 516 
Q 1375 441 1709 441 
Q 2250 441 2565 725 
Q 2881 1009 2881 1497 
Q 2881 1984 2565 2268 
Q 2250 2553 1709 2553 
Q 1456 2553 1204 2497 
Q 953 2441 691 2322 
L 691 4666 
z
" transform="scale(0.015625)"/>
       </defs>
       <use xlink:href="#DejaVuSans-35"/>
       <use xlink:href="#DejaVuSans-30" x="63.623047"/>
      </g>
     </g>
    </g>
    <g id="text_6">
     <!-- epoch -->
     <g transform="translate(112.525 174.076563) scale(0.1 -0.1)">
      <defs>
       <path id="DejaVuSans-65" d="M 3597 1894 
L 3597 1613 
L 953 1613 
Q 991 1019 1311 708 
Q 1631 397 2203 397 
Q 2534 397 2845 478 
Q 3156 559 3463 722 
L 3463 178 
Q 3153 47 2828 -22 
Q 2503 -91 2169 -91 
Q 1331 -91 842 396 
Q 353 884 353 1716 
Q 353 2575 817 3079 
Q 1281 3584 2069 3584 
Q 2775 3584 3186 3129 
Q 3597 2675 3597 1894 
z
M 3022 2063 
Q 3016 2534 2758 2815 
Q 2500 3097 2075 3097 
Q 1594 3097 1305 2825 
Q 1016 2553 972 2059 
L 3022 2063 
z
" transform="scale(0.015625)"/>
       <path id="DejaVuSans-70" d="M 1159 525 
L 1159 -1331 
L 581 -1331 
L 581 3500 
L 1159 3500 
L 1159 2969 
Q 1341 3281 1617 3432 
Q 1894 3584 2278 3584 
Q 2916 3584 3314 3078 
Q 3713 2572 3713 1747 
Q 3713 922 3314 415 
Q 2916 -91 2278 -91 
Q 1894 -91 1617 61 
Q 1341 213 1159 525 
z
M 3116 1747 
Q 3116 2381 2855 2742 
Q 2594 3103 2138 3103 
Q 1681 3103 1420 2742 
Q 1159 2381 1159 1747 
Q 1159 1113 1420 752 
Q 1681 391 2138 391 
Q 2594 391 2855 752 
Q 3116 1113 3116 1747 
z
" transform="scale(0.015625)"/>
       <path id="DejaVuSans-6f" d="M 1959 3097 
Q 1497 3097 1228 2736 
Q 959 2375 959 1747 
Q 959 1119 1226 758 
Q 1494 397 1959 397 
Q 2419 397 2687 759 
Q 2956 1122 2956 1747 
Q 2956 2369 2687 2733 
Q 2419 3097 1959 3097 
z
M 1959 3584 
Q 2709 3584 3137 3096 
Q 3566 2609 3566 1747 
Q 3566 888 3137 398 
Q 2709 -91 1959 -91 
Q 1206 -91 779 398 
Q 353 888 353 1747 
Q 353 2609 779 3096 
Q 1206 3584 1959 3584 
z
" transform="scale(0.015625)"/>
       <path id="DejaVuSans-63" d="M 3122 3366 
L 3122 2828 
Q 2878 2963 2633 3030 
Q 2388 3097 2138 3097 
Q 1578 3097 1268 2742 
Q 959 2388 959 1747 
Q 959 1106 1268 751 
Q 1578 397 2138 397 
Q 2388 397 2633 464 
Q 2878 531 3122 666 
L 3122 134 
Q 2881 22 2623 -34 
Q 2366 -91 2075 -91 
Q 1284 -91 818 406 
Q 353 903 353 1747 
Q 353 2603 823 3093 
Q 1294 3584 2113 3584 
Q 2378 3584 2631 3529 
Q 2884 3475 3122 3366 
z
" transform="scale(0.015625)"/>
       <path id="DejaVuSans-68" d="M 3513 2113 
L 3513 0 
L 2938 0 
L 2938 2094 
Q 2938 2591 2744 2837 
Q 2550 3084 2163 3084 
Q 1697 3084 1428 2787 
Q 1159 2491 1159 1978 
L 1159 0 
L 581 0 
L 581 4863 
L 1159 4863 
L 1159 2956 
Q 1366 3272 1645 3428 
Q 1925 3584 2291 3584 
Q 2894 3584 3203 3211 
Q 3513 2838 3513 2113 
z
" transform="scale(0.015625)"/>
      </defs>
      <use xlink:href="#DejaVuSans-65"/>
      <use xlink:href="#DejaVuSans-70" x="61.523438"/>
      <use xlink:href="#DejaVuSans-6f" x="125"/>
      <use xlink:href="#DejaVuSans-63" x="186.181641"/>
      <use xlink:href="#DejaVuSans-68" x="241.162109"/>
     </g>
    </g>
   </g>
   <g id="matplotlib.axis_2">
    <g id="ytick_1">
     <g id="line2d_11">
      <path d="M 30.103125 145.074173 
L 225.403125 145.074173 
" clip-path="url(#p7dd939d939)" style="fill: none; stroke: #b0b0b0; stroke-width: 0.8; stroke-linecap: square"/>
     </g>
     <g id="line2d_12">
      <defs>
       <path id="m9bd3ef4796" d="M 0 0 
L -3.5 0 
" style="stroke: #000000; stroke-width: 0.8"/>
      </defs>
      <g>
       <use xlink:href="#m9bd3ef4796" x="30.103125" y="145.074173" style="stroke: #000000; stroke-width: 0.8"/>
      </g>
     </g>
     <g id="text_7">
      <!-- 0.0 -->
      <g transform="translate(7.2 148.873391) scale(0.1 -0.1)">
       <defs>
        <path id="DejaVuSans-2e" d="M 684 794 
L 1344 794 
L 1344 0 
L 684 0 
L 684 794 
z
" transform="scale(0.015625)"/>
       </defs>
       <use xlink:href="#DejaVuSans-30"/>
       <use xlink:href="#DejaVuSans-2e" x="63.623047"/>
       <use xlink:href="#DejaVuSans-30" x="95.410156"/>
      </g>
     </g>
    </g>
    <g id="ytick_2">
     <g id="line2d_13">
      <path d="M 30.103125 116.631236 
L 225.403125 116.631236 
" clip-path="url(#p7dd939d939)" style="fill: none; stroke: #b0b0b0; stroke-width: 0.8; stroke-linecap: square"/>
     </g>
     <g id="line2d_14">
      <g>
       <use xlink:href="#m9bd3ef4796" x="30.103125" y="116.631236" style="stroke: #000000; stroke-width: 0.8"/>
      </g>
     </g>
     <g id="text_8">
      <!-- 0.5 -->
      <g transform="translate(7.2 120.430455) scale(0.1 -0.1)">
       <use xlink:href="#DejaVuSans-30"/>
       <use xlink:href="#DejaVuSans-2e" x="63.623047"/>
       <use xlink:href="#DejaVuSans-35" x="95.410156"/>
      </g>
     </g>
    </g>
    <g id="ytick_3">
     <g id="line2d_15">
      <path d="M 30.103125 88.1883 
L 225.403125 88.1883 
" clip-path="url(#p7dd939d939)" style="fill: none; stroke: #b0b0b0; stroke-width: 0.8; stroke-linecap: square"/>
     </g>
     <g id="line2d_16">
      <g>
       <use xlink:href="#m9bd3ef4796" x="30.103125" y="88.1883" style="stroke: #000000; stroke-width: 0.8"/>
      </g>
     </g>
     <g id="text_9">
      <!-- 1.0 -->
      <g transform="translate(7.2 91.987519) scale(0.1 -0.1)">
       <use xlink:href="#DejaVuSans-31"/>
       <use xlink:href="#DejaVuSans-2e" x="63.623047"/>
       <use xlink:href="#DejaVuSans-30" x="95.410156"/>
      </g>
     </g>
    </g>
    <g id="ytick_4">
     <g id="line2d_17">
      <path d="M 30.103125 59.745364 
L 225.403125 59.745364 
" clip-path="url(#p7dd939d939)" style="fill: none; stroke: #b0b0b0; stroke-width: 0.8; stroke-linecap: square"/>
     </g>
     <g id="line2d_18">
      <g>
       <use xlink:href="#m9bd3ef4796" x="30.103125" y="59.745364" style="stroke: #000000; stroke-width: 0.8"/>
      </g>
     </g>
     <g id="text_10">
      <!-- 1.5 -->
      <g transform="translate(7.2 63.544582) scale(0.1 -0.1)">
       <use xlink:href="#DejaVuSans-31"/>
       <use xlink:href="#DejaVuSans-2e" x="63.623047"/>
       <use xlink:href="#DejaVuSans-35" x="95.410156"/>
      </g>
     </g>
    </g>
    <g id="ytick_5">
     <g id="line2d_19">
      <path d="M 30.103125 31.302427 
L 225.403125 31.302427 
" clip-path="url(#p7dd939d939)" style="fill: none; stroke: #b0b0b0; stroke-width: 0.8; stroke-linecap: square"/>
     </g>
     <g id="line2d_20">
      <g>
       <use xlink:href="#m9bd3ef4796" x="30.103125" y="31.302427" style="stroke: #000000; stroke-width: 0.8"/>
      </g>
     </g>
     <g id="text_11">
      <!-- 2.0 -->
      <g transform="translate(7.2 35.101646) scale(0.1 -0.1)">
       <use xlink:href="#DejaVuSans-32"/>
       <use xlink:href="#DejaVuSans-2e" x="63.623047"/>
       <use xlink:href="#DejaVuSans-30" x="95.410156"/>
      </g>
     </g>
    </g>
   </g>
   <g id="line2d_21">
    <path d="M 26.914554 13.5 
L 27.711696 13.778977 
L 30.900268 14.051017 
L 43.654554 14.251251 
L 46.045982 14.498276 
L 47.640268 17.869885 
L 48.437411 20.741577 
L 50.031696 28.229933 
L 50.828839 50.335574 
L 51.625982 52.417813 
L 53.220268 55.742241 
L 54.017411 57.079468 
L 54.814554 64.600856 
L 55.611696 65.905154 
L 58.003125 68.799071 
L 58.800268 74.873753 
L 60.394554 76.149104 
L 61.988839 77.868605 
L 62.785982 82.888234 
L 64.380268 83.803703 
L 65.177411 84.541968 
L 65.974554 85.071553 
L 66.771696 88.53609 
L 68.365982 90.420364 
L 69.960268 91.31439 
L 70.757411 95.156766 
L 71.554554 95.746737 
L 72.351696 96.593284 
L 73.945982 97.329109 
L 74.743125 100.473845 
L 75.540268 100.965102 
L 76.337411 101.012386 
L 77.931696 102.255971 
L 78.728839 104.400239 
L 80.323125 105.434002 
L 81.917411 105.985277 
L 82.714554 108.672651 
L 83.511696 108.629658 
L 84.308839 108.931461 
L 85.105982 108.967253 
L 85.903125 109.127762 
L 86.700268 110.570997 
L 87.497411 110.76059 
L 88.294554 110.811152 
L 89.091696 111.100844 
L 89.888839 111.257171 
L 90.685982 113.008216 
L 91.483125 113.230239 
L 92.280268 113.108711 
L 93.874554 113.356735 
L 94.671696 114.97353 
L 96.265982 114.873668 
L 97.063125 114.829879 
L 98.657411 115.142099 
L 99.454554 115.74001 
L 101.048839 116.183474 
L 102.643125 116.570111 
L 103.440268 117.289223 
L 104.237411 117.218122 
L 105.034554 117.504489 
L 105.831696 117.665086 
L 106.628839 118.388402 
L 107.425982 118.663932 
L 108.223125 118.467291 
L 109.020268 118.557642 
L 109.817411 118.874925 
L 110.614554 119.479449 
L 111.411696 119.528969 
L 113.803125 120.026135 
L 114.600268 120.189493 
L 115.397411 120.46765 
L 117.788839 120.781522 
L 118.585982 121.373497 
L 120.180268 121.320571 
L 120.977411 121.357938 
L 121.774554 121.526844 
L 122.571696 122.083191 
L 123.368839 122.190308 
L 124.165982 122.118563 
L 128.151696 123.048448 
L 129.745982 122.961771 
L 130.543125 123.285859 
L 131.340268 123.427433 
L 133.731696 123.475205 
L 134.528839 124.670847 
L 135.325982 124.389338 
L 136.123125 124.451404 
L 137.717411 124.283232 
L 138.514554 124.275367 
L 139.311696 124.501426 
L 140.905982 124.419623 
L 141.703125 124.574747 
L 142.500268 124.931984 
L 143.297411 125.43064 
L 144.891696 125.207174 
L 145.688839 125.19585 
L 146.485982 125.40489 
L 148.080268 125.128968 
L 148.877411 125.463876 
L 151.268839 125.970645 
L 152.863125 125.812733 
L 153.660268 125.964525 
L 154.457411 126.503259 
L 156.051696 126.503876 
L 157.645982 126.325232 
L 158.443125 127.077423 
L 159.240268 127.101955 
L 160.037411 126.842905 
L 161.631696 126.849899 
L 162.428839 126.542579 
L 163.225982 126.964102 
L 164.820268 126.942388 
L 165.617411 126.8985 
L 167.211696 127.17179 
L 168.008839 126.995597 
L 169.603125 127.170253 
L 170.400268 127.722428 
L 171.197411 127.64788 
L 171.994554 127.825638 
L 173.588839 127.708588 
L 174.385982 127.490765 
L 175.980268 127.76076 
L 176.777411 127.700044 
L 179.965982 128.173502 
L 181.560268 128.125758 
L 182.357411 128.677695 
L 183.154554 128.447679 
L 183.951696 128.608858 
L 187.140268 128.260105 
L 188.734554 128.33778 
L 191.125982 128.927667 
L 194.314554 128.87113 
L 195.111696 129.099967 
L 196.705982 129.24103 
L 198.300268 128.934119 
L 201.488839 129.309004 
L 203.083125 129.337347 
L 204.677411 129.526241 
L 205.474554 129.465054 
L 206.271696 130.373829 
L 207.068839 130.189552 
L 207.865982 129.728709 
L 208.663125 129.674524 
L 209.460268 129.804167 
L 210.257411 129.575758 
L 211.054554 129.926045 
L 212.648839 129.884542 
L 213.445982 130.002156 
L 214.243125 130.361101 
L 215.040268 130.010129 
L 217.431696 130.159112 
L 218.228839 129.883653 
L 219.823125 130.241775 
L 221.417411 130.340381 
L 222.214554 130.584192 
L 223.011696 130.476649 
L 224.605982 130.486092 
L 225.403125 130.46601 
L 225.403125 130.46601 
" clip-path="url(#p7dd939d939)" style="fill: none; stroke: #1f77b4; stroke-width: 1.5; stroke-linecap: square"/>
   </g>
   <g id="line2d_22">
    <path d="M 26.914554 139.16432 
L 31.697411 139.469269 
L 34.885982 139.400714 
L 35.683125 139.27779 
L 37.277411 139.319159 
L 41.263125 139.013028 
L 42.060268 138.740879 
L 42.857411 138.932654 
L 43.654554 138.405495 
L 44.451696 138.136794 
L 45.248839 138.215198 
L 46.045982 137.7084 
L 46.843125 132.810047 
L 47.640268 131.235663 
L 50.031696 129.706454 
L 50.828839 124.210031 
L 51.625982 123.233723 
L 54.017411 121.390688 
L 54.814554 117.676098 
L 55.611696 117.056746 
L 56.408839 116.799864 
L 57.205982 116.364111 
L 58.003125 116.059533 
L 58.800268 113.936344 
L 59.597411 113.600664 
L 60.394554 113.509258 
L 61.191696 113.189338 
L 61.988839 113.022776 
L 62.785982 111.66696 
L 64.380268 111.159501 
L 65.974554 110.436365 
L 66.771696 108.111593 
L 67.568839 107.825557 
L 68.365982 107.221176 
L 69.960268 106.967275 
L 70.757411 105.572721 
L 71.554554 105.37415 
L 72.351696 104.942337 
L 73.945982 104.768636 
L 74.743125 104.282009 
L 75.540268 103.927418 
L 76.337411 103.900627 
L 77.931696 103.424233 
L 78.728839 102.636706 
L 81.917411 102.313062 
L 82.714554 101.336539 
L 83.511696 101.516198 
L 85.903125 101.365912 
L 86.700268 100.684091 
L 88.294554 100.781801 
L 89.888839 100.633033 
L 90.685982 100.045827 
L 91.483125 99.967817 
L 93.077411 100.012732 
L 93.874554 99.976001 
L 94.671696 99.36974 
L 95.468839 99.324825 
L 97.063125 99.44775 
L 98.657411 99.341373 
L 99.454554 99.048244 
L 102.643125 98.665286 
L 103.440268 98.32015 
L 104.237411 98.277599 
L 106.628839 97.714982 
L 107.425982 97.440764 
L 108.223125 97.549506 
L 114.600268 97.019983 
L 115.397411 96.774133 
L 116.991696 96.706761 
L 117.788839 96.669035 
L 118.585982 96.462093 
L 120.977411 96.465639 
L 122.571696 96.291889 
L 124.165982 96.246186 
L 127.354554 95.968029 
L 128.151696 95.85062 
L 132.934554 95.8782 
L 133.731696 95.829021 
L 134.528839 95.28485 
L 135.325982 95.450326 
L 137.717411 95.445041 
L 138.514554 95.587435 
L 139.311696 95.367588 
L 141.703125 95.427027 
L 142.500268 95.351041 
L 143.297411 95.093371 
L 144.094554 95.223388 
L 145.688839 95.213705 
L 146.485982 95.138286 
L 148.080268 95.278547 
L 151.268839 94.842793 
L 153.660268 94.964355 
L 154.457411 94.703321 
L 156.051696 94.744296 
L 157.645982 94.833518 
L 158.443125 94.57094 
L 159.240268 94.526025 
L 160.037411 94.632403 
L 161.631696 94.649587 
L 162.428839 94.840429 
L 164.023125 94.648162 
L 165.617411 94.675186 
L 167.211696 94.596944 
L 168.008839 94.690713 
L 169.603125 94.586064 
L 170.400268 94.32509 
L 173.588839 94.391704 
L 174.385982 94.518934 
L 176.777411 94.429104 
L 179.965982 94.257324 
L 181.560268 94.28931 
L 182.357411 94.140703 
L 183.154554 94.237625 
L 183.951696 94.131247 
L 185.545982 94.205877 
L 186.343125 94.391281 
L 189.531696 94.141406 
L 191.125982 93.880669 
L 195.111696 93.965771 
L 201.488839 93.802936 
L 202.285982 93.956316 
L 203.083125 93.956316 
L 203.880268 93.822359 
L 205.474554 93.838963 
L 206.271696 93.398426 
L 208.663125 93.70101 
L 209.460268 93.637967 
L 210.257411 93.776656 
L 211.054554 93.606452 
L 212.648839 93.631274 
L 214.243125 93.440976 
L 215.837411 93.61906 
L 217.431696 93.588665 
L 218.228839 93.823935 
L 219.823125 93.571781 
L 225.403125 93.428437 
L 225.403125 93.428437 
" clip-path="url(#p7dd939d939)" style="fill: none; stroke-dasharray: 5.55,2.4; stroke-dashoffset: 0; stroke: #bf00bf; stroke-width: 1.5"/>
   </g>
   <g id="line2d_23">
    <path d="M 30.103125 139.385585 
L 34.088839 139.385585 
L 38.074554 139.385585 
L 42.060268 139.385585 
L 46.045982 139.152353 
L 50.031696 122.928502 
L 54.017411 115.203401 
L 58.003125 114.173767 
L 61.988839 112.444436 
L 65.974554 111.795937 
L 69.960268 105.128913 
L 73.945982 104.520234 
L 77.931696 102.961561 
L 81.917411 102.825035 
L 85.903125 101.988813 
L 89.888839 101.966058 
L 93.874554 101.641809 
L 97.860268 99.537032 
L 101.845982 99.758886 
L 105.831696 98.291231 
L 109.817411 97.272974 
L 113.803125 97.955604 
L 117.788839 97.836144 
L 121.774554 96.937347 
L 125.760268 98.729252 
L 129.745982 98.587037 
L 133.731696 96.863395 
L 137.717411 97.335548 
L 141.703125 96.146634 
L 145.688839 96.971479 
L 149.674554 96.186454 
L 153.660268 95.503823 
L 157.645982 96.311603 
L 161.631696 96.112502 
L 165.617411 95.731367 
L 169.603125 97.443631 
L 173.588839 96.624475 
L 177.574554 95.509512 
L 181.560268 94.815504 
L 185.545982 97.392434 
L 189.531696 96.186454 
L 193.517411 95.367297 
L 197.503125 95.401429 
L 201.488839 95.327477 
L 205.474554 96.5619 
L 209.460268 95.208017 
L 213.445982 95.270591 
L 217.431696 95.902024 
L 221.417411 95.452626 
L 225.403125 95.39574 
" clip-path="url(#p7dd939d939)" style="fill: none; stroke-dasharray: 9.6,2.4,1.5,2.4; stroke-dashoffset: 0; stroke: #008000; stroke-width: 1.5"/>
   </g>
   <g id="patch_3">
    <path d="M 30.103125 145.8 
L 30.103125 7.2 
" style="fill: none; stroke: #000000; stroke-width: 0.8; stroke-linejoin: miter; stroke-linecap: square"/>
   </g>
   <g id="patch_4">
    <path d="M 225.403125 145.8 
L 225.403125 7.2 
" style="fill: none; stroke: #000000; stroke-width: 0.8; stroke-linejoin: miter; stroke-linecap: square"/>
   </g>
   <g id="patch_5">
    <path d="M 30.103125 145.8 
L 225.403125 145.8 
" style="fill: none; stroke: #000000; stroke-width: 0.8; stroke-linejoin: miter; stroke-linecap: square"/>
   </g>
   <g id="patch_6">
    <path d="M 30.103125 7.2 
L 225.403125 7.2 
" style="fill: none; stroke: #000000; stroke-width: 0.8; stroke-linejoin: miter; stroke-linecap: square"/>
   </g>
   <g id="legend_1">
    <g id="patch_7">
     <path d="M 140.634375 59.234375 
L 218.403125 59.234375 
Q 220.403125 59.234375 220.403125 57.234375 
L 220.403125 14.2 
Q 220.403125 12.2 218.403125 12.2 
L 140.634375 12.2 
Q 138.634375 12.2 138.634375 14.2 
L 138.634375 57.234375 
Q 138.634375 59.234375 140.634375 59.234375 
z
" style="fill: #ffffff; opacity: 0.8; stroke: #cccccc; stroke-linejoin: miter"/>
    </g>
    <g id="line2d_24">
     <path d="M 142.634375 20.298438 
L 152.634375 20.298438 
L 162.634375 20.298438 
" style="fill: none; stroke: #1f77b4; stroke-width: 1.5; stroke-linecap: square"/>
    </g>
    <g id="text_12">
     <!-- train loss -->
     <g transform="translate(170.634375 23.798438) scale(0.1 -0.1)">
      <defs>
       <path id="DejaVuSans-74" d="M 1172 4494 
L 1172 3500 
L 2356 3500 
L 2356 3053 
L 1172 3053 
L 1172 1153 
Q 1172 725 1289 603 
Q 1406 481 1766 481 
L 2356 481 
L 2356 0 
L 1766 0 
Q 1100 0 847 248 
Q 594 497 594 1153 
L 594 3053 
L 172 3053 
L 172 3500 
L 594 3500 
L 594 4494 
L 1172 4494 
z
" transform="scale(0.015625)"/>
       <path id="DejaVuSans-72" d="M 2631 2963 
Q 2534 3019 2420 3045 
Q 2306 3072 2169 3072 
Q 1681 3072 1420 2755 
Q 1159 2438 1159 1844 
L 1159 0 
L 581 0 
L 581 3500 
L 1159 3500 
L 1159 2956 
Q 1341 3275 1631 3429 
Q 1922 3584 2338 3584 
Q 2397 3584 2469 3576 
Q 2541 3569 2628 3553 
L 2631 2963 
z
" transform="scale(0.015625)"/>
       <path id="DejaVuSans-61" d="M 2194 1759 
Q 1497 1759 1228 1600 
Q 959 1441 959 1056 
Q 959 750 1161 570 
Q 1363 391 1709 391 
Q 2188 391 2477 730 
Q 2766 1069 2766 1631 
L 2766 1759 
L 2194 1759 
z
M 3341 1997 
L 3341 0 
L 2766 0 
L 2766 531 
Q 2569 213 2275 61 
Q 1981 -91 1556 -91 
Q 1019 -91 701 211 
Q 384 513 384 1019 
Q 384 1609 779 1909 
Q 1175 2209 1959 2209 
L 2766 2209 
L 2766 2266 
Q 2766 2663 2505 2880 
Q 2244 3097 1772 3097 
Q 1472 3097 1187 3025 
Q 903 2953 641 2809 
L 641 3341 
Q 956 3463 1253 3523 
Q 1550 3584 1831 3584 
Q 2591 3584 2966 3190 
Q 3341 2797 3341 1997 
z
" transform="scale(0.015625)"/>
       <path id="DejaVuSans-69" d="M 603 3500 
L 1178 3500 
L 1178 0 
L 603 0 
L 603 3500 
z
M 603 4863 
L 1178 4863 
L 1178 4134 
L 603 4134 
L 603 4863 
z
" transform="scale(0.015625)"/>
       <path id="DejaVuSans-6e" d="M 3513 2113 
L 3513 0 
L 2938 0 
L 2938 2094 
Q 2938 2591 2744 2837 
Q 2550 3084 2163 3084 
Q 1697 3084 1428 2787 
Q 1159 2491 1159 1978 
L 1159 0 
L 581 0 
L 581 3500 
L 1159 3500 
L 1159 2956 
Q 1366 3272 1645 3428 
Q 1925 3584 2291 3584 
Q 2894 3584 3203 3211 
Q 3513 2838 3513 2113 
z
" transform="scale(0.015625)"/>
       <path id="DejaVuSans-20" transform="scale(0.015625)"/>
       <path id="DejaVuSans-6c" d="M 603 4863 
L 1178 4863 
L 1178 0 
L 603 0 
L 603 4863 
z
" transform="scale(0.015625)"/>
       <path id="DejaVuSans-73" d="M 2834 3397 
L 2834 2853 
Q 2591 2978 2328 3040 
Q 2066 3103 1784 3103 
Q 1356 3103 1142 2972 
Q 928 2841 928 2578 
Q 928 2378 1081 2264 
Q 1234 2150 1697 2047 
L 1894 2003 
Q 2506 1872 2764 1633 
Q 3022 1394 3022 966 
Q 3022 478 2636 193 
Q 2250 -91 1575 -91 
Q 1294 -91 989 -36 
Q 684 19 347 128 
L 347 722 
Q 666 556 975 473 
Q 1284 391 1588 391 
Q 1994 391 2212 530 
Q 2431 669 2431 922 
Q 2431 1156 2273 1281 
Q 2116 1406 1581 1522 
L 1381 1569 
Q 847 1681 609 1914 
Q 372 2147 372 2553 
Q 372 3047 722 3315 
Q 1072 3584 1716 3584 
Q 2034 3584 2315 3537 
Q 2597 3491 2834 3397 
z
" transform="scale(0.015625)"/>
      </defs>
      <use xlink:href="#DejaVuSans-74"/>
      <use xlink:href="#DejaVuSans-72" x="39.208984"/>
      <use xlink:href="#DejaVuSans-61" x="80.322266"/>
      <use xlink:href="#DejaVuSans-69" x="141.601562"/>
      <use xlink:href="#DejaVuSans-6e" x="169.384766"/>
      <use xlink:href="#DejaVuSans-20" x="232.763672"/>
      <use xlink:href="#DejaVuSans-6c" x="264.550781"/>
      <use xlink:href="#DejaVuSans-6f" x="292.333984"/>
      <use xlink:href="#DejaVuSans-73" x="353.515625"/>
      <use xlink:href="#DejaVuSans-73" x="405.615234"/>
     </g>
    </g>
    <g id="line2d_25">
     <path d="M 142.634375 34.976563 
L 152.634375 34.976563 
L 162.634375 34.976563 
" style="fill: none; stroke-dasharray: 5.55,2.4; stroke-dashoffset: 0; stroke: #bf00bf; stroke-width: 1.5"/>
    </g>
    <g id="text_13">
     <!-- train acc -->
     <g transform="translate(170.634375 38.476563) scale(0.1 -0.1)">
      <use xlink:href="#DejaVuSans-74"/>
      <use xlink:href="#DejaVuSans-72" x="39.208984"/>
      <use xlink:href="#DejaVuSans-61" x="80.322266"/>
      <use xlink:href="#DejaVuSans-69" x="141.601562"/>
      <use xlink:href="#DejaVuSans-6e" x="169.384766"/>
      <use xlink:href="#DejaVuSans-20" x="232.763672"/>
      <use xlink:href="#DejaVuSans-61" x="264.550781"/>
      <use xlink:href="#DejaVuSans-63" x="325.830078"/>
      <use xlink:href="#DejaVuSans-63" x="380.810547"/>
     </g>
    </g>
    <g id="line2d_26">
     <path d="M 142.634375 49.654688 
L 152.634375 49.654688 
L 162.634375 49.654688 
" style="fill: none; stroke-dasharray: 9.6,2.4,1.5,2.4; stroke-dashoffset: 0; stroke: #008000; stroke-width: 1.5"/>
    </g>
    <g id="text_14">
     <!-- test acc -->
     <g transform="translate(170.634375 53.154688) scale(0.1 -0.1)">
      <use xlink:href="#DejaVuSans-74"/>
      <use xlink:href="#DejaVuSans-65" x="39.208984"/>
      <use xlink:href="#DejaVuSans-73" x="100.732422"/>
      <use xlink:href="#DejaVuSans-74" x="152.832031"/>
      <use xlink:href="#DejaVuSans-20" x="192.041016"/>
      <use xlink:href="#DejaVuSans-61" x="223.828125"/>
      <use xlink:href="#DejaVuSans-63" x="285.107422"/>
      <use xlink:href="#DejaVuSans-63" x="340.087891"/>
     </g>
    </g>
   </g>
  </g>
 </g>
 <defs>
  <clipPath id="p7dd939d939">
   <rect x="30.103125" y="7.2" width="195.3" height="138.6"/>
  </clipPath>
 </defs>
</svg>
