<?xml version="1.0" encoding="utf-8" standalone="no"?>
<!DOCTYPE svg PUBLIC "-//W3C//DTD SVG 1.1//EN"
  "http://www.w3.org/Graphics/SVG/1.1/DTD/svg11.dtd">
<svg xmlns:xlink="http://www.w3.org/1999/xlink" width="242.146875pt" height="180.65625pt" viewBox="0 0 242.146875 180.65625" xmlns="http://www.w3.org/2000/svg" version="1.1">
 <metadata>
  <rdf:RDF xmlns:dc="http://purl.org/dc/elements/1.1/" xmlns:cc="http://creativecommons.org/ns#" xmlns:rdf="http://www.w3.org/1999/02/22-rdf-syntax-ns#">
   <cc:Work>
    <dc:type rdf:resource="http://purl.org/dc/dcmitype/StillImage"/>
    <dc:date>2023-04-15T20:45:23.937876</dc:date>
    <dc:format>image/svg+xml</dc:format>
    <dc:creator>
     <cc:Agent>
      <dc:title>Matplotlib v3.5.2, https://matplotlib.org/</dc:title>
     </cc:Agent>
    </dc:creator>
   </cc:Work>
  </rdf:RDF>
 </metadata>
 <defs>
  <style type="text/css">*{stroke-linejoin: round; stroke-linecap: butt}</style>
 </defs>
 <g id="figure_1">
  <g id="patch_1">
   <path d="M 0 180.65625 
L 242.146875 180.65625 
L 242.146875 0 
L 0 0 
L 0 180.65625 
z
" style="fill: none"/>
  </g>
  <g id="axes_1">
   <g id="patch_2">
    <path d="M 30.103125 143.1 
L 225.403125 143.1 
L 225.403125 7.2 
L 30.103125 7.2 
z
" style="fill: #ffffff"/>
   </g>
   <g id="matplotlib.axis_1">
    <g id="xtick_1">
     <g id="line2d_1">
      <path d="M 67.584943 143.1 
L 67.584943 7.2 
" clip-path="url(#pc436a17ba8)" style="fill: none; stroke: #b0b0b0; stroke-width: 0.8; stroke-linecap: square"/>
     </g>
     <g id="line2d_2">
      <defs>
       <path id="mfd69c9025a" d="M 0 0 
L 0 3.5 
" style="stroke: #000000; stroke-width: 0.8"/>
      </defs>
      <g>
       <use xlink:href="#mfd69c9025a" x="67.584943" y="143.1" style="stroke: #000000; stroke-width: 0.8"/>
      </g>
     </g>
     <g id="text_1">
      <!-- 20 -->
      <g transform="translate(61.222443 157.698438)scale(0.1 -0.1)">
       <defs>
        <path id="DejaVuSans-32" d="M 1228 531 
L 3431 531 
L 3431 0 
L 469 0 
L 469 531 
Q 828 903 1448 1529 
Q 2069 2156 2228 2338 
Q 2531 2678 2651 2914 
Q 2772 3150 2772 3378 
Q 2772 3750 2511 3984 
Q 2250 4219 1831 4219 
Q 1534 4219 1204 4116 
Q 875 4013 500 3803 
L 500 4441 
Q 881 4594 1212 4672 
Q 1544 4750 1819 4750 
Q 2544 4750 2975 4387 
Q 3406 4025 3406 3419 
Q 3406 3131 3298 2873 
Q 3191 2616 2906 2266 
Q 2828 2175 2409 1742 
Q 1991 1309 1228 531 
z
" transform="scale(0.015625)"/>
        <path id="DejaVuSans-30" d="M 2034 4250 
Q 1547 4250 1301 3770 
Q 1056 3291 1056 2328 
Q 1056 1369 1301 889 
Q 1547 409 2034 409 
Q 2525 409 2770 889 
Q 3016 1369 3016 2328 
Q 3016 3291 2770 3770 
Q 2525 4250 2034 4250 
z
M 2034 4750 
Q 2819 4750 3233 4129 
Q 3647 3509 3647 2328 
Q 3647 1150 3233 529 
Q 2819 -91 2034 -91 
Q 1250 -91 836 529 
Q 422 1150 422 2328 
Q 422 3509 836 4129 
Q 1250 4750 2034 4750 
z
" transform="scale(0.015625)"/>
       </defs>
       <use xlink:href="#DejaVuSans-32"/>
       <use xlink:href="#DejaVuSans-30" x="63.623047"/>
      </g>
     </g>
    </g>
    <g id="xtick_2">
     <g id="line2d_3">
      <path d="M 107.039489 143.1 
L 107.039489 7.2 
" clip-path="url(#pc436a17ba8)" style="fill: none; stroke: #b0b0b0; stroke-width: 0.8; stroke-linecap: square"/>
     </g>
     <g id="line2d_4">
      <g>
       <use xlink:href="#mfd69c9025a" x="107.039489" y="143.1" style="stroke: #000000; stroke-width: 0.8"/>
      </g>
     </g>
     <g id="text_2">
      <!-- 40 -->
      <g transform="translate(100.676989 157.698438)scale(0.1 -0.1)">
       <defs>
        <path id="DejaVuSans-34" d="M 2419 4116 
L 825 1625 
L 2419 1625 
L 2419 4116 
z
M 2253 4666 
L 3047 4666 
L 3047 1625 
L 3713 1625 
L 3713 1100 
L 3047 1100 
L 3047 0 
L 2419 0 
L 2419 1100 
L 313 1100 
L 313 1709 
L 2253 4666 
z
" transform="scale(0.015625)"/>
       </defs>
       <use xlink:href="#DejaVuSans-34"/>
       <use xlink:href="#DejaVuSans-30" x="63.623047"/>
      </g>
     </g>
    </g>
    <g id="xtick_3">
     <g id="line2d_5">
      <path d="M 146.494034 143.1 
L 146.494034 7.2 
" clip-path="url(#pc436a17ba8)" style="fill: none; stroke: #b0b0b0; stroke-width: 0.8; stroke-linecap: square"/>
     </g>
     <g id="line2d_6">
      <g>
       <use xlink:href="#mfd69c9025a" x="146.494034" y="143.1" style="stroke: #000000; stroke-width: 0.8"/>
      </g>
     </g>
     <g id="text_3">
      <!-- 60 -->
      <g transform="translate(140.131534 157.698438)scale(0.1 -0.1)">
       <defs>
        <path id="DejaVuSans-36" d="M 2113 2584 
Q 1688 2584 1439 2293 
Q 1191 2003 1191 1497 
Q 1191 994 1439 701 
Q 1688 409 2113 409 
Q 2538 409 2786 701 
Q 3034 994 3034 1497 
Q 3034 2003 2786 2293 
Q 2538 2584 2113 2584 
z
M 3366 4563 
L 3366 3988 
Q 3128 4100 2886 4159 
Q 2644 4219 2406 4219 
Q 1781 4219 1451 3797 
Q 1122 3375 1075 2522 
Q 1259 2794 1537 2939 
Q 1816 3084 2150 3084 
Q 2853 3084 3261 2657 
Q 3669 2231 3669 1497 
Q 3669 778 3244 343 
Q 2819 -91 2113 -91 
Q 1303 -91 875 529 
Q 447 1150 447 2328 
Q 447 3434 972 4092 
Q 1497 4750 2381 4750 
Q 2619 4750 2861 4703 
Q 3103 4656 3366 4563 
z
" transform="scale(0.015625)"/>
       </defs>
       <use xlink:href="#DejaVuSans-36"/>
       <use xlink:href="#DejaVuSans-30" x="63.623047"/>
      </g>
     </g>
    </g>
    <g id="xtick_4">
     <g id="line2d_7">
      <path d="M 185.94858 143.1 
L 185.94858 7.2 
" clip-path="url(#pc436a17ba8)" style="fill: none; stroke: #b0b0b0; stroke-width: 0.8; stroke-linecap: square"/>
     </g>
     <g id="line2d_8">
      <g>
       <use xlink:href="#mfd69c9025a" x="185.94858" y="143.1" style="stroke: #000000; stroke-width: 0.8"/>
      </g>
     </g>
     <g id="text_4">
      <!-- 80 -->
      <g transform="translate(179.58608 157.698438)scale(0.1 -0.1)">
       <defs>
        <path id="DejaVuSans-38" d="M 2034 2216 
Q 1584 2216 1326 1975 
Q 1069 1734 1069 1313 
Q 1069 891 1326 650 
Q 1584 409 2034 409 
Q 2484 409 2743 651 
Q 3003 894 3003 1313 
Q 3003 1734 2745 1975 
Q 2488 2216 2034 2216 
z
M 1403 2484 
Q 997 2584 770 2862 
Q 544 3141 544 3541 
Q 544 4100 942 4425 
Q 1341 4750 2034 4750 
Q 2731 4750 3128 4425 
Q 3525 4100 3525 3541 
Q 3525 3141 3298 2862 
Q 3072 2584 2669 2484 
Q 3125 2378 3379 2068 
Q 3634 1759 3634 1313 
Q 3634 634 3220 271 
Q 2806 -91 2034 -91 
Q 1263 -91 848 271 
Q 434 634 434 1313 
Q 434 1759 690 2068 
Q 947 2378 1403 2484 
z
M 1172 3481 
Q 1172 3119 1398 2916 
Q 1625 2713 2034 2713 
Q 2441 2713 2670 2916 
Q 2900 3119 2900 3481 
Q 2900 3844 2670 4047 
Q 2441 4250 2034 4250 
Q 1625 4250 1398 4047 
Q 1172 3844 1172 3481 
z
" transform="scale(0.015625)"/>
       </defs>
       <use xlink:href="#DejaVuSans-38"/>
       <use xlink:href="#DejaVuSans-30" x="63.623047"/>
      </g>
     </g>
    </g>
    <g id="xtick_5">
     <g id="line2d_9">
      <path d="M 225.403125 143.1 
L 225.403125 7.2 
" clip-path="url(#pc436a17ba8)" style="fill: none; stroke: #b0b0b0; stroke-width: 0.8; stroke-linecap: square"/>
     </g>
     <g id="line2d_10">
      <g>
       <use xlink:href="#mfd69c9025a" x="225.403125" y="143.1" style="stroke: #000000; stroke-width: 0.8"/>
      </g>
     </g>
     <g id="text_5">
      <!-- 100 -->
      <g transform="translate(215.859375 157.698438)scale(0.1 -0.1)">
       <defs>
        <path id="DejaVuSans-31" d="M 794 531 
L 1825 531 
L 1825 4091 
L 703 3866 
L 703 4441 
L 1819 4666 
L 2450 4666 
L 2450 531 
L 3481 531 
L 3481 0 
L 794 0 
L 794 531 
z
" transform="scale(0.015625)"/>
       </defs>
       <use xlink:href="#DejaVuSans-31"/>
       <use xlink:href="#DejaVuSans-30" x="63.623047"/>
       <use xlink:href="#DejaVuSans-30" x="127.246094"/>
      </g>
     </g>
    </g>
    <g id="text_6">
     <!-- epoch -->
     <g transform="translate(112.525 171.376563)scale(0.1 -0.1)">
      <defs>
       <path id="DejaVuSans-65" d="M 3597 1894 
L 3597 1613 
L 953 1613 
Q 991 1019 1311 708 
Q 1631 397 2203 397 
Q 2534 397 2845 478 
Q 3156 559 3463 722 
L 3463 178 
Q 3153 47 2828 -22 
Q 2503 -91 2169 -91 
Q 1331 -91 842 396 
Q 353 884 353 1716 
Q 353 2575 817 3079 
Q 1281 3584 2069 3584 
Q 2775 3584 3186 3129 
Q 3597 2675 3597 1894 
z
M 3022 2063 
Q 3016 2534 2758 2815 
Q 2500 3097 2075 3097 
Q 1594 3097 1305 2825 
Q 1016 2553 972 2059 
L 3022 2063 
z
" transform="scale(0.015625)"/>
       <path id="DejaVuSans-70" d="M 1159 525 
L 1159 -1331 
L 581 -1331 
L 581 3500 
L 1159 3500 
L 1159 2969 
Q 1341 3281 1617 3432 
Q 1894 3584 2278 3584 
Q 2916 3584 3314 3078 
Q 3713 2572 3713 1747 
Q 3713 922 3314 415 
Q 2916 -91 2278 -91 
Q 1894 -91 1617 61 
Q 1341 213 1159 525 
z
M 3116 1747 
Q 3116 2381 2855 2742 
Q 2594 3103 2138 3103 
Q 1681 3103 1420 2742 
Q 1159 2381 1159 1747 
Q 1159 1113 1420 752 
Q 1681 391 2138 391 
Q 2594 391 2855 752 
Q 3116 1113 3116 1747 
z
" transform="scale(0.015625)"/>
       <path id="DejaVuSans-6f" d="M 1959 3097 
Q 1497 3097 1228 2736 
Q 959 2375 959 1747 
Q 959 1119 1226 758 
Q 1494 397 1959 397 
Q 2419 397 2687 759 
Q 2956 1122 2956 1747 
Q 2956 2369 2687 2733 
Q 2419 3097 1959 3097 
z
M 1959 3584 
Q 2709 3584 3137 3096 
Q 3566 2609 3566 1747 
Q 3566 888 3137 398 
Q 2709 -91 1959 -91 
Q 1206 -91 779 398 
Q 353 888 353 1747 
Q 353 2609 779 3096 
Q 1206 3584 1959 3584 
z
" transform="scale(0.015625)"/>
       <path id="DejaVuSans-63" d="M 3122 3366 
L 3122 2828 
Q 2878 2963 2633 3030 
Q 2388 3097 2138 3097 
Q 1578 3097 1268 2742 
Q 959 2388 959 1747 
Q 959 1106 1268 751 
Q 1578 397 2138 397 
Q 2388 397 2633 464 
Q 2878 531 3122 666 
L 3122 134 
Q 2881 22 2623 -34 
Q 2366 -91 2075 -91 
Q 1284 -91 818 406 
Q 353 903 353 1747 
Q 353 2603 823 3093 
Q 1294 3584 2113 3584 
Q 2378 3584 2631 3529 
Q 2884 3475 3122 3366 
z
" transform="scale(0.015625)"/>
       <path id="DejaVuSans-68" d="M 3513 2113 
L 3513 0 
L 2938 0 
L 2938 2094 
Q 2938 2591 2744 2837 
Q 2550 3084 2163 3084 
Q 1697 3084 1428 2787 
Q 1159 2491 1159 1978 
L 1159 0 
L 581 0 
L 581 4863 
L 1159 4863 
L 1159 2956 
Q 1366 3272 1645 3428 
Q 1925 3584 2291 3584 
Q 2894 3584 3203 3211 
Q 3513 2838 3513 2113 
z
" transform="scale(0.015625)"/>
      </defs>
      <use xlink:href="#DejaVuSans-65"/>
      <use xlink:href="#DejaVuSans-70" x="61.523438"/>
      <use xlink:href="#DejaVuSans-6f" x="125"/>
      <use xlink:href="#DejaVuSans-63" x="186.181641"/>
      <use xlink:href="#DejaVuSans-68" x="241.162109"/>
     </g>
    </g>
   </g>
   <g id="matplotlib.axis_2">
    <g id="ytick_1">
     <g id="line2d_11">
      <path d="M 30.103125 120.45 
L 225.403125 120.45 
" clip-path="url(#pc436a17ba8)" style="fill: none; stroke: #b0b0b0; stroke-width: 0.8; stroke-linecap: square"/>
     </g>
     <g id="line2d_12">
      <defs>
       <path id="m36250bfa09" d="M 0 0 
L -3.5 0 
" style="stroke: #000000; stroke-width: 0.8"/>
      </defs>
      <g>
       <use xlink:href="#m36250bfa09" x="30.103125" y="120.45" style="stroke: #000000; stroke-width: 0.8"/>
      </g>
     </g>
     <g id="text_7">
      <!-- 0.4 -->
      <g transform="translate(7.2 124.249219)scale(0.1 -0.1)">
       <defs>
        <path id="DejaVuSans-2e" d="M 684 794 
L 1344 794 
L 1344 0 
L 684 0 
L 684 794 
z
" transform="scale(0.015625)"/>
       </defs>
       <use xlink:href="#DejaVuSans-30"/>
       <use xlink:href="#DejaVuSans-2e" x="63.623047"/>
       <use xlink:href="#DejaVuSans-34" x="95.410156"/>
      </g>
     </g>
    </g>
    <g id="ytick_2">
     <g id="line2d_13">
      <path d="M 30.103125 75.15 
L 225.403125 75.15 
" clip-path="url(#pc436a17ba8)" style="fill: none; stroke: #b0b0b0; stroke-width: 0.8; stroke-linecap: square"/>
     </g>
     <g id="line2d_14">
      <g>
       <use xlink:href="#m36250bfa09" x="30.103125" y="75.15" style="stroke: #000000; stroke-width: 0.8"/>
      </g>
     </g>
     <g id="text_8">
      <!-- 0.6 -->
      <g transform="translate(7.2 78.949219)scale(0.1 -0.1)">
       <use xlink:href="#DejaVuSans-30"/>
       <use xlink:href="#DejaVuSans-2e" x="63.623047"/>
       <use xlink:href="#DejaVuSans-36" x="95.410156"/>
      </g>
     </g>
    </g>
    <g id="ytick_3">
     <g id="line2d_15">
      <path d="M 30.103125 29.85 
L 225.403125 29.85 
" clip-path="url(#pc436a17ba8)" style="fill: none; stroke: #b0b0b0; stroke-width: 0.8; stroke-linecap: square"/>
     </g>
     <g id="line2d_16">
      <g>
       <use xlink:href="#m36250bfa09" x="30.103125" y="29.85" style="stroke: #000000; stroke-width: 0.8"/>
      </g>
     </g>
     <g id="text_9">
      <!-- 0.8 -->
      <g transform="translate(7.2 33.649219)scale(0.1 -0.1)">
       <use xlink:href="#DejaVuSans-30"/>
       <use xlink:href="#DejaVuSans-2e" x="63.623047"/>
       <use xlink:href="#DejaVuSans-38" x="95.410156"/>
      </g>
     </g>
    </g>
   </g>
   <g id="line2d_17">
    <path d="M 57.892732 -1 
L 59.694034 2.222009 
L 61.666761 5.423249 
L 63.639489 8.352528 
L 65.612216 11.041087 
L 67.584943 13.528193 
L 69.55767 15.827076 
L 71.530398 17.974718 
L 73.503125 19.980896 
L 75.475852 21.862251 
L 77.44858 23.629207 
L 79.421307 25.299334 
L 81.394034 26.879097 
L 83.366761 28.37484 
L 85.339489 29.799732 
L 87.312216 31.147489 
L 89.284943 32.444941 
L 91.25767 33.680817 
L 93.230398 34.861432 
L 95.203125 35.993723 
L 97.175852 37.082085 
L 99.14858 38.129291 
L 101.121307 39.135573 
L 103.094034 40.106027 
L 105.066761 41.04224 
L 107.039489 41.945631 
L 109.012216 42.821297 
L 110.984943 43.66392 
L 112.95767 44.482934 
L 114.930398 45.274806 
L 116.903125 46.046476 
L 118.875852 46.79308 
L 120.84858 47.516416 
L 122.821307 48.221934 
L 124.794034 48.909286 
L 126.766761 49.57349 
L 128.739489 50.223435 
L 130.712216 50.855841 
L 132.684943 51.47245 
L 134.65767 52.077726 
L 136.630398 52.660748 
L 138.603125 53.23448 
L 140.575852 53.79536 
L 142.54858 54.338758 
L 144.521307 54.877451 
L 146.494034 55.397831 
L 148.466761 55.909375 
L 150.439489 56.410525 
L 152.412216 56.899531 
L 154.384943 57.379193 
L 156.35767 57.8511 
L 158.330398 58.308746 
L 160.303125 58.761795 
L 162.275852 59.200172 
L 164.24858 59.635105 
L 166.221307 60.060841 
L 168.194034 60.479625 
L 170.166761 60.891157 
L 172.139489 61.293794 
L 174.112216 61.6865 
L 176.084943 62.074417 
L 178.05767 62.454852 
L 180.030398 62.829599 
L 182.003125 63.198425 
L 183.975852 63.559092 
L 185.94858 63.913494 
L 187.921307 64.266055 
L 189.894034 64.610793 
L 191.866761 64.949628 
L 193.839489 65.280451 
L 195.812216 65.610999 
L 197.784943 65.93474 
L 199.75767 66.25291 
L 201.730398 66.565386 
L 203.703125 66.873265 
L 205.675852 67.178355 
L 207.64858 67.478216 
L 209.621307 67.77331 
L 211.594034 68.062275 
L 213.566761 68.349448 
L 215.539489 68.632951 
L 217.512216 68.911907 
L 219.484943 69.188077 
L 221.45767 69.460133 
L 223.430398 69.722271 
L 225.403125 69.987535 
" clip-path="url(#pc436a17ba8)" style="fill: none; stroke: #1f77b4; stroke-width: 1.5; stroke-linecap: square"/>
   </g>
   <g id="line2d_18">
    <path d="M 30.103125 155.8444 
L 32.075852 103.353025 
L 34.04858 85.686025 
L 36.021307 76.769475 
L 37.994034 70.62755 
L 39.966761 66.71665 
L 41.939489 63.31915 
L 43.912216 60.5785 
L 45.884943 58.60795 
L 47.85767 56.943175 
L 49.830398 55.372775 
L 51.803125 53.976025 
L 53.775852 52.888825 
L 55.74858 51.75255 
L 57.721307 51.0051 
L 59.694034 50.13685 
L 61.666761 49.559275 
L 63.639489 48.85335 
L 65.612216 48.20405 
L 67.584943 47.686875 
L 69.55767 47.1999 
L 71.530398 46.607225 
L 73.503125 46.139125 
L 75.475852 45.671025 
L 77.44858 45.22935 
L 79.421307 44.8745 
L 81.394034 44.4215 
L 83.366761 44.044 
L 85.339489 43.76465 
L 87.312216 43.34185 
L 89.284943 42.983225 
L 91.25767 42.6095 
L 93.230398 42.31505 
L 95.203125 42.001725 
L 97.175852 41.745025 
L 99.14858 41.510975 
L 101.121307 41.246725 
L 103.094034 40.9485 
L 105.066761 40.627625 
L 107.039489 40.3898 
L 109.012216 40.151975 
L 110.984943 40.000975 
L 112.95767 39.714075 
L 114.930398 39.540425 
L 116.903125 39.359225 
L 118.875852 39.1516 
L 120.84858 38.9553 
L 122.821307 38.808075 
L 124.794034 38.608 
L 126.766761 38.43435 
L 128.739489 38.2154 
L 130.712216 38.04175 
L 132.684943 37.909625 
L 134.65767 37.705775 
L 136.630398 37.464175 
L 138.603125 37.305625 
L 140.575852 37.215025 
L 142.54858 36.980975 
L 144.521307 36.90925 
L 146.494034 36.68275 
L 148.466761 36.54685 
L 150.439489 36.38075 
L 152.412216 36.225975 
L 154.384943 36.105175 
L 156.35767 36.022125 
L 158.330398 35.856025 
L 160.303125 35.780525 
L 162.275852 35.674825 
L 164.24858 35.523825 
L 166.221307 35.387925 
L 168.194034 35.335075 
L 170.166761 35.14255 
L 172.139489 35.025525 
L 174.112216 34.93115 
L 176.084943 34.738625 
L 178.05767 34.6367 
L 180.030398 34.512125 
L 182.003125 34.4404 
L 183.975852 34.346025 
L 185.94858 34.217675 
L 187.921307 34.142175 
L 189.894034 34.036475 
L 191.866761 33.9119 
L 193.839489 33.776 
L 195.812216 33.69295 
L 197.784943 33.583475 
L 199.75767 33.500425 
L 201.730398 33.36075 
L 203.703125 33.25505 
L 205.675852 33.296575 
L 207.64858 33.16445 
L 209.621307 33.047425 
L 211.594034 32.9455 
L 213.566761 32.866225 
L 215.539489 32.78695 
L 217.512216 32.7039 
L 219.484943 32.63595 
L 221.45767 32.564225 
L 223.430398 32.51515 
L 225.403125 32.4321 
" clip-path="url(#pc436a17ba8)" style="fill: none; stroke-dasharray: 5.55,2.4; stroke-dashoffset: 0; stroke: #bf00bf; stroke-width: 1.5"/>
   </g>
   <g id="line2d_19">
    <path d="M 30.103125 118.1397 
L 32.075852 94.33455 
L 34.04858 81.4467 
L 36.021307 73.9269 
L 37.994034 68.78535 
L 39.966761 65.79555 
L 41.939489 63.21345 
L 43.912216 61.3788 
L 45.884943 59.86125 
L 47.85767 58.389 
L 49.830398 56.87145 
L 51.803125 55.87485 
L 53.775852 54.92355 
L 55.74858 53.8137 
L 57.721307 53.0889 
L 59.694034 52.06965 
L 61.666761 51.3675 
L 63.639489 50.5521 
L 65.612216 49.9179 
L 67.584943 49.26105 
L 69.55767 48.6042 
L 71.530398 48.0606 
L 73.503125 47.72085 
L 75.475852 47.49435 
L 77.44858 46.6563 
L 79.421307 46.3845 
L 81.394034 46.0221 
L 83.366761 45.81825 
L 85.339489 45.5238 
L 87.312216 44.95755 
L 89.284943 44.77635 
L 91.25767 44.45925 
L 93.230398 44.1195 
L 95.203125 43.9383 
L 97.175852 43.7571 
L 99.14858 43.3494 
L 101.121307 43.14555 
L 103.094034 42.8058 
L 105.066761 42.69255 
L 107.039489 42.23955 
L 109.012216 42.05835 
L 110.984943 41.74125 
L 112.95767 41.4468 
L 114.930398 41.15235 
L 116.903125 40.97115 
L 118.875852 40.8126 
L 120.84858 40.7673 
L 122.821307 40.5861 
L 124.794034 40.2237 
L 126.766761 40.0425 
L 128.739489 39.816 
L 130.712216 39.8613 
L 132.684943 39.7254 
L 134.65767 39.5895 
L 136.630398 39.38565 
L 138.603125 39.15915 
L 140.575852 39.11385 
L 142.54858 38.84205 
L 144.521307 38.7741 
L 146.494034 38.5023 
L 148.466761 38.3211 
L 150.439489 38.29845 
L 152.412216 38.11725 
L 154.384943 37.9134 
L 156.35767 37.84545 
L 158.330398 37.7322 
L 160.303125 37.57365 
L 162.275852 37.6416 
L 164.24858 37.2792 
L 166.221307 37.1886 
L 168.194034 36.9621 
L 170.166761 37.0074 
L 172.139489 36.7809 
L 174.112216 36.6903 
L 176.084943 36.57705 
L 178.05767 36.35055 
L 180.030398 36.16935 
L 182.003125 36.3279 
L 183.975852 36.1014 
L 185.94858 36.21465 
L 187.921307 36.07875 
L 189.894034 36.0561 
L 191.866761 35.85225 
L 193.839489 35.76165 
L 195.812216 35.62575 
L 197.784943 35.5578 
L 199.75767 35.4672 
L 201.730398 35.44455 
L 203.703125 35.39925 
L 205.675852 35.286 
L 207.64858 35.1048 
L 209.621307 34.9236 
L 211.594034 34.8783 
L 213.566761 34.90095 
L 215.539489 34.7877 
L 217.512216 34.6971 
L 219.484943 34.7424 
L 221.45767 34.7877 
L 223.430398 34.5612 
L 225.403125 34.6065 
" clip-path="url(#pc436a17ba8)" style="fill: none; stroke-dasharray: 9.6,2.4,1.5,2.4; stroke-dashoffset: 0; stroke: #008000; stroke-width: 1.5"/>
   </g>
   <g id="patch_3">
    <path d="M 30.103125 143.1 
L 30.103125 7.2 
" style="fill: none; stroke: #000000; stroke-width: 0.8; stroke-linejoin: miter; stroke-linecap: square"/>
   </g>
   <g id="patch_4">
    <path d="M 225.403125 143.1 
L 225.403125 7.2 
" style="fill: none; stroke: #000000; stroke-width: 0.8; stroke-linejoin: miter; stroke-linecap: square"/>
   </g>
   <g id="patch_5">
    <path d="M 30.103125 143.1 
L 225.403125 143.1 
" style="fill: none; stroke: #000000; stroke-width: 0.8; stroke-linejoin: miter; stroke-linecap: square"/>
   </g>
   <g id="patch_6">
    <path d="M 30.103125 7.2 
L 225.403125 7.2 
" style="fill: none; stroke: #000000; stroke-width: 0.8; stroke-linejoin: miter; stroke-linecap: square"/>
   </g>
   <g id="legend_1">
    <g id="patch_7">
     <path d="M 37.103125 138.1 
L 114.871875 138.1 
Q 116.871875 138.1 116.871875 136.1 
L 116.871875 93.065625 
Q 116.871875 91.065625 114.871875 91.065625 
L 37.103125 91.065625 
Q 35.103125 91.065625 35.103125 93.065625 
L 35.103125 136.1 
Q 35.103125 138.1 37.103125 138.1 
z
" style="fill: #ffffff; opacity: 0.8; stroke: #cccccc; stroke-linejoin: miter"/>
    </g>
    <g id="line2d_20">
     <path d="M 39.103125 99.164062 
L 49.103125 99.164062 
L 59.103125 99.164062 
" style="fill: none; stroke: #1f77b4; stroke-width: 1.5; stroke-linecap: square"/>
    </g>
    <g id="text_10">
     <!-- train loss -->
     <g transform="translate(67.103125 102.664062)scale(0.1 -0.1)">
      <defs>
       <path id="DejaVuSans-74" d="M 1172 4494 
L 1172 3500 
L 2356 3500 
L 2356 3053 
L 1172 3053 
L 1172 1153 
Q 1172 725 1289 603 
Q 1406 481 1766 481 
L 2356 481 
L 2356 0 
L 1766 0 
Q 1100 0 847 248 
Q 594 497 594 1153 
L 594 3053 
L 172 3053 
L 172 3500 
L 594 3500 
L 594 4494 
L 1172 4494 
z
" transform="scale(0.015625)"/>
       <path id="DejaVuSans-72" d="M 2631 2963 
Q 2534 3019 2420 3045 
Q 2306 3072 2169 3072 
Q 1681 3072 1420 2755 
Q 1159 2438 1159 1844 
L 1159 0 
L 581 0 
L 581 3500 
L 1159 3500 
L 1159 2956 
Q 1341 3275 1631 3429 
Q 1922 3584 2338 3584 
Q 2397 3584 2469 3576 
Q 2541 3569 2628 3553 
L 2631 2963 
z
" transform="scale(0.015625)"/>
       <path id="DejaVuSans-61" d="M 2194 1759 
Q 1497 1759 1228 1600 
Q 959 1441 959 1056 
Q 959 750 1161 570 
Q 1363 391 1709 391 
Q 2188 391 2477 730 
Q 2766 1069 2766 1631 
L 2766 1759 
L 2194 1759 
z
M 3341 1997 
L 3341 0 
L 2766 0 
L 2766 531 
Q 2569 213 2275 61 
Q 1981 -91 1556 -91 
Q 1019 -91 701 211 
Q 384 513 384 1019 
Q 384 1609 779 1909 
Q 1175 2209 1959 2209 
L 2766 2209 
L 2766 2266 
Q 2766 2663 2505 2880 
Q 2244 3097 1772 3097 
Q 1472 3097 1187 3025 
Q 903 2953 641 2809 
L 641 3341 
Q 956 3463 1253 3523 
Q 1550 3584 1831 3584 
Q 2591 3584 2966 3190 
Q 3341 2797 3341 1997 
z
" transform="scale(0.015625)"/>
       <path id="DejaVuSans-69" d="M 603 3500 
L 1178 3500 
L 1178 0 
L 603 0 
L 603 3500 
z
M 603 4863 
L 1178 4863 
L 1178 4134 
L 603 4134 
L 603 4863 
z
" transform="scale(0.015625)"/>
       <path id="DejaVuSans-6e" d="M 3513 2113 
L 3513 0 
L 2938 0 
L 2938 2094 
Q 2938 2591 2744 2837 
Q 2550 3084 2163 3084 
Q 1697 3084 1428 2787 
Q 1159 2491 1159 1978 
L 1159 0 
L 581 0 
L 581 3500 
L 1159 3500 
L 1159 2956 
Q 1366 3272 1645 3428 
Q 1925 3584 2291 3584 
Q 2894 3584 3203 3211 
Q 3513 2838 3513 2113 
z
" transform="scale(0.015625)"/>
       <path id="DejaVuSans-20" transform="scale(0.015625)"/>
       <path id="DejaVuSans-6c" d="M 603 4863 
L 1178 4863 
L 1178 0 
L 603 0 
L 603 4863 
z
" transform="scale(0.015625)"/>
       <path id="DejaVuSans-73" d="M 2834 3397 
L 2834 2853 
Q 2591 2978 2328 3040 
Q 2066 3103 1784 3103 
Q 1356 3103 1142 2972 
Q 928 2841 928 2578 
Q 928 2378 1081 2264 
Q 1234 2150 1697 2047 
L 1894 2003 
Q 2506 1872 2764 1633 
Q 3022 1394 3022 966 
Q 3022 478 2636 193 
Q 2250 -91 1575 -91 
Q 1294 -91 989 -36 
Q 684 19 347 128 
L 347 722 
Q 666 556 975 473 
Q 1284 391 1588 391 
Q 1994 391 2212 530 
Q 2431 669 2431 922 
Q 2431 1156 2273 1281 
Q 2116 1406 1581 1522 
L 1381 1569 
Q 847 1681 609 1914 
Q 372 2147 372 2553 
Q 372 3047 722 3315 
Q 1072 3584 1716 3584 
Q 2034 3584 2315 3537 
Q 2597 3491 2834 3397 
z
" transform="scale(0.015625)"/>
      </defs>
      <use xlink:href="#DejaVuSans-74"/>
      <use xlink:href="#DejaVuSans-72" x="39.208984"/>
      <use xlink:href="#DejaVuSans-61" x="80.322266"/>
      <use xlink:href="#DejaVuSans-69" x="141.601562"/>
      <use xlink:href="#DejaVuSans-6e" x="169.384766"/>
      <use xlink:href="#DejaVuSans-20" x="232.763672"/>
      <use xlink:href="#DejaVuSans-6c" x="264.550781"/>
      <use xlink:href="#DejaVuSans-6f" x="292.333984"/>
      <use xlink:href="#DejaVuSans-73" x="353.515625"/>
      <use xlink:href="#DejaVuSans-73" x="405.615234"/>
     </g>
    </g>
    <g id="line2d_21">
     <path d="M 39.103125 113.842187 
L 49.103125 113.842187 
L 59.103125 113.842187 
" style="fill: none; stroke-dasharray: 5.55,2.4; stroke-dashoffset: 0; stroke: #bf00bf; stroke-width: 1.5"/>
    </g>
    <g id="text_11">
     <!-- train acc -->
     <g transform="translate(67.103125 117.342187)scale(0.1 -0.1)">
      <use xlink:href="#DejaVuSans-74"/>
      <use xlink:href="#DejaVuSans-72" x="39.208984"/>
      <use xlink:href="#DejaVuSans-61" x="80.322266"/>
      <use xlink:href="#DejaVuSans-69" x="141.601562"/>
      <use xlink:href="#DejaVuSans-6e" x="169.384766"/>
      <use xlink:href="#DejaVuSans-20" x="232.763672"/>
      <use xlink:href="#DejaVuSans-61" x="264.550781"/>
      <use xlink:href="#DejaVuSans-63" x="325.830078"/>
      <use xlink:href="#DejaVuSans-63" x="380.810547"/>
     </g>
    </g>
    <g id="line2d_22">
     <path d="M 39.103125 128.520312 
L 49.103125 128.520312 
L 59.103125 128.520312 
" style="fill: none; stroke-dasharray: 9.6,2.4,1.5,2.4; stroke-dashoffset: 0; stroke: #008000; stroke-width: 1.5"/>
    </g>
    <g id="text_12">
     <!-- test acc -->
     <g transform="translate(67.103125 132.020312)scale(0.1 -0.1)">
      <use xlink:href="#DejaVuSans-74"/>
      <use xlink:href="#DejaVuSans-65" x="39.208984"/>
      <use xlink:href="#DejaVuSans-73" x="100.732422"/>
      <use xlink:href="#DejaVuSans-74" x="152.832031"/>
      <use xlink:href="#DejaVuSans-20" x="192.041016"/>
      <use xlink:href="#DejaVuSans-61" x="223.828125"/>
      <use xlink:href="#DejaVuSans-63" x="285.107422"/>
      <use xlink:href="#DejaVuSans-63" x="340.087891"/>
     </g>
    </g>
   </g>
  </g>
 </g>
 <defs>
  <clipPath id="pc436a17ba8">
   <rect x="30.103125" y="7.2" width="195.3" height="135.9"/>
  </clipPath>
 </defs>
</svg>
