<?xml version="1.0" encoding="utf-8" standalone="no"?>
<!DOCTYPE svg PUBLIC "-//W3C//DTD SVG 1.1//EN"
  "http://www.w3.org/Graphics/SVG/1.1/DTD/svg11.dtd">
<svg xmlns:xlink="http://www.w3.org/1999/xlink" width="242.146875pt" height="180.65625pt" viewBox="0 0 242.146875 180.65625" xmlns="http://www.w3.org/2000/svg" version="1.1">
 <metadata>
  <rdf:RDF xmlns:dc="http://purl.org/dc/elements/1.1/" xmlns:cc="http://creativecommons.org/ns#" xmlns:rdf="http://www.w3.org/1999/02/22-rdf-syntax-ns#">
   <cc:Work>
    <dc:type rdf:resource="http://purl.org/dc/dcmitype/StillImage"/>
    <dc:date>2023-04-15T20:31:13.166065</dc:date>
    <dc:format>image/svg+xml</dc:format>
    <dc:creator>
     <cc:Agent>
      <dc:title>Matplotlib v3.5.2, https://matplotlib.org/</dc:title>
     </cc:Agent>
    </dc:creator>
   </cc:Work>
  </rdf:RDF>
 </metadata>
 <defs>
  <style type="text/css">*{stroke-linejoin: round; stroke-linecap: butt}</style>
 </defs>
 <g id="figure_1">
  <g id="patch_1">
   <path d="M 0 180.65625 
L 242.146875 180.65625 
L 242.146875 0 
L 0 0 
L 0 180.65625 
z
" style="fill: none"/>
  </g>
  <g id="axes_1">
   <g id="patch_2">
    <path d="M 30.103125 143.1 
L 225.403125 143.1 
L 225.403125 7.2 
L 30.103125 7.2 
z
" style="fill: #ffffff"/>
   </g>
   <g id="matplotlib.axis_1">
    <g id="xtick_1">
     <g id="line2d_1">
      <path d="M 67.584943 143.1 
L 67.584943 7.2 
" clip-path="url(#p7d9c87423e)" style="fill: none; stroke: #b0b0b0; stroke-width: 0.8; stroke-linecap: square"/>
     </g>
     <g id="line2d_2">
      <defs>
       <path id="m27d4adfa0d" d="M 0 0 
L 0 3.5 
" style="stroke: #000000; stroke-width: 0.8"/>
      </defs>
      <g>
       <use xlink:href="#m27d4adfa0d" x="67.584943" y="143.1" style="stroke: #000000; stroke-width: 0.8"/>
      </g>
     </g>
     <g id="text_1">
      <!-- 20 -->
      <g transform="translate(61.222443 157.698438)scale(0.1 -0.1)">
       <defs>
        <path id="DejaVuSans-32" d="M 1228 531 
L 3431 531 
L 3431 0 
L 469 0 
L 469 531 
Q 828 903 1448 1529 
Q 2069 2156 2228 2338 
Q 2531 2678 2651 2914 
Q 2772 3150 2772 3378 
Q 2772 3750 2511 3984 
Q 2250 4219 1831 4219 
Q 1534 4219 1204 4116 
Q 875 4013 500 3803 
L 500 4441 
Q 881 4594 1212 4672 
Q 1544 4750 1819 4750 
Q 2544 4750 2975 4387 
Q 3406 4025 3406 3419 
Q 3406 3131 3298 2873 
Q 3191 2616 2906 2266 
Q 2828 2175 2409 1742 
Q 1991 1309 1228 531 
z
" transform="scale(0.015625)"/>
        <path id="DejaVuSans-30" d="M 2034 4250 
Q 1547 4250 1301 3770 
Q 1056 3291 1056 2328 
Q 1056 1369 1301 889 
Q 1547 409 2034 409 
Q 2525 409 2770 889 
Q 3016 1369 3016 2328 
Q 3016 3291 2770 3770 
Q 2525 4250 2034 4250 
z
M 2034 4750 
Q 2819 4750 3233 4129 
Q 3647 3509 3647 2328 
Q 3647 1150 3233 529 
Q 2819 -91 2034 -91 
Q 1250 -91 836 529 
Q 422 1150 422 2328 
Q 422 3509 836 4129 
Q 1250 4750 2034 4750 
z
" transform="scale(0.015625)"/>
       </defs>
       <use xlink:href="#DejaVuSans-32"/>
       <use xlink:href="#DejaVuSans-30" x="63.623047"/>
      </g>
     </g>
    </g>
    <g id="xtick_2">
     <g id="line2d_3">
      <path d="M 107.039489 143.1 
L 107.039489 7.2 
" clip-path="url(#p7d9c87423e)" style="fill: none; stroke: #b0b0b0; stroke-width: 0.8; stroke-linecap: square"/>
     </g>
     <g id="line2d_4">
      <g>
       <use xlink:href="#m27d4adfa0d" x="107.039489" y="143.1" style="stroke: #000000; stroke-width: 0.8"/>
      </g>
     </g>
     <g id="text_2">
      <!-- 40 -->
      <g transform="translate(100.676989 157.698438)scale(0.1 -0.1)">
       <defs>
        <path id="DejaVuSans-34" d="M 2419 4116 
L 825 1625 
L 2419 1625 
L 2419 4116 
z
M 2253 4666 
L 3047 4666 
L 3047 1625 
L 3713 1625 
L 3713 1100 
L 3047 1100 
L 3047 0 
L 2419 0 
L 2419 1100 
L 313 1100 
L 313 1709 
L 2253 4666 
z
" transform="scale(0.015625)"/>
       </defs>
       <use xlink:href="#DejaVuSans-34"/>
       <use xlink:href="#DejaVuSans-30" x="63.623047"/>
      </g>
     </g>
    </g>
    <g id="xtick_3">
     <g id="line2d_5">
      <path d="M 146.494034 143.1 
L 146.494034 7.2 
" clip-path="url(#p7d9c87423e)" style="fill: none; stroke: #b0b0b0; stroke-width: 0.8; stroke-linecap: square"/>
     </g>
     <g id="line2d_6">
      <g>
       <use xlink:href="#m27d4adfa0d" x="146.494034" y="143.1" style="stroke: #000000; stroke-width: 0.8"/>
      </g>
     </g>
     <g id="text_3">
      <!-- 60 -->
      <g transform="translate(140.131534 157.698438)scale(0.1 -0.1)">
       <defs>
        <path id="DejaVuSans-36" d="M 2113 2584 
Q 1688 2584 1439 2293 
Q 1191 2003 1191 1497 
Q 1191 994 1439 701 
Q 1688 409 2113 409 
Q 2538 409 2786 701 
Q 3034 994 3034 1497 
Q 3034 2003 2786 2293 
Q 2538 2584 2113 2584 
z
M 3366 4563 
L 3366 3988 
Q 3128 4100 2886 4159 
Q 2644 4219 2406 4219 
Q 1781 4219 1451 3797 
Q 1122 3375 1075 2522 
Q 1259 2794 1537 2939 
Q 1816 3084 2150 3084 
Q 2853 3084 3261 2657 
Q 3669 2231 3669 1497 
Q 3669 778 3244 343 
Q 2819 -91 2113 -91 
Q 1303 -91 875 529 
Q 447 1150 447 2328 
Q 447 3434 972 4092 
Q 1497 4750 2381 4750 
Q 2619 4750 2861 4703 
Q 3103 4656 3366 4563 
z
" transform="scale(0.015625)"/>
       </defs>
       <use xlink:href="#DejaVuSans-36"/>
       <use xlink:href="#DejaVuSans-30" x="63.623047"/>
      </g>
     </g>
    </g>
    <g id="xtick_4">
     <g id="line2d_7">
      <path d="M 185.94858 143.1 
L 185.94858 7.2 
" clip-path="url(#p7d9c87423e)" style="fill: none; stroke: #b0b0b0; stroke-width: 0.8; stroke-linecap: square"/>
     </g>
     <g id="line2d_8">
      <g>
       <use xlink:href="#m27d4adfa0d" x="185.94858" y="143.1" style="stroke: #000000; stroke-width: 0.8"/>
      </g>
     </g>
     <g id="text_4">
      <!-- 80 -->
      <g transform="translate(179.58608 157.698438)scale(0.1 -0.1)">
       <defs>
        <path id="DejaVuSans-38" d="M 2034 2216 
Q 1584 2216 1326 1975 
Q 1069 1734 1069 1313 
Q 1069 891 1326 650 
Q 1584 409 2034 409 
Q 2484 409 2743 651 
Q 3003 894 3003 1313 
Q 3003 1734 2745 1975 
Q 2488 2216 2034 2216 
z
M 1403 2484 
Q 997 2584 770 2862 
Q 544 3141 544 3541 
Q 544 4100 942 4425 
Q 1341 4750 2034 4750 
Q 2731 4750 3128 4425 
Q 3525 4100 3525 3541 
Q 3525 3141 3298 2862 
Q 3072 2584 2669 2484 
Q 3125 2378 3379 2068 
Q 3634 1759 3634 1313 
Q 3634 634 3220 271 
Q 2806 -91 2034 -91 
Q 1263 -91 848 271 
Q 434 634 434 1313 
Q 434 1759 690 2068 
Q 947 2378 1403 2484 
z
M 1172 3481 
Q 1172 3119 1398 2916 
Q 1625 2713 2034 2713 
Q 2441 2713 2670 2916 
Q 2900 3119 2900 3481 
Q 2900 3844 2670 4047 
Q 2441 4250 2034 4250 
Q 1625 4250 1398 4047 
Q 1172 3844 1172 3481 
z
" transform="scale(0.015625)"/>
       </defs>
       <use xlink:href="#DejaVuSans-38"/>
       <use xlink:href="#DejaVuSans-30" x="63.623047"/>
      </g>
     </g>
    </g>
    <g id="xtick_5">
     <g id="line2d_9">
      <path d="M 225.403125 143.1 
L 225.403125 7.2 
" clip-path="url(#p7d9c87423e)" style="fill: none; stroke: #b0b0b0; stroke-width: 0.8; stroke-linecap: square"/>
     </g>
     <g id="line2d_10">
      <g>
       <use xlink:href="#m27d4adfa0d" x="225.403125" y="143.1" style="stroke: #000000; stroke-width: 0.8"/>
      </g>
     </g>
     <g id="text_5">
      <!-- 100 -->
      <g transform="translate(215.859375 157.698438)scale(0.1 -0.1)">
       <defs>
        <path id="DejaVuSans-31" d="M 794 531 
L 1825 531 
L 1825 4091 
L 703 3866 
L 703 4441 
L 1819 4666 
L 2450 4666 
L 2450 531 
L 3481 531 
L 3481 0 
L 794 0 
L 794 531 
z
" transform="scale(0.015625)"/>
       </defs>
       <use xlink:href="#DejaVuSans-31"/>
       <use xlink:href="#DejaVuSans-30" x="63.623047"/>
       <use xlink:href="#DejaVuSans-30" x="127.246094"/>
      </g>
     </g>
    </g>
    <g id="text_6">
     <!-- epoch -->
     <g transform="translate(112.525 171.376563)scale(0.1 -0.1)">
      <defs>
       <path id="DejaVuSans-65" d="M 3597 1894 
L 3597 1613 
L 953 1613 
Q 991 1019 1311 708 
Q 1631 397 2203 397 
Q 2534 397 2845 478 
Q 3156 559 3463 722 
L 3463 178 
Q 3153 47 2828 -22 
Q 2503 -91 2169 -91 
Q 1331 -91 842 396 
Q 353 884 353 1716 
Q 353 2575 817 3079 
Q 1281 3584 2069 3584 
Q 2775 3584 3186 3129 
Q 3597 2675 3597 1894 
z
M 3022 2063 
Q 3016 2534 2758 2815 
Q 2500 3097 2075 3097 
Q 1594 3097 1305 2825 
Q 1016 2553 972 2059 
L 3022 2063 
z
" transform="scale(0.015625)"/>
       <path id="DejaVuSans-70" d="M 1159 525 
L 1159 -1331 
L 581 -1331 
L 581 3500 
L 1159 3500 
L 1159 2969 
Q 1341 3281 1617 3432 
Q 1894 3584 2278 3584 
Q 2916 3584 3314 3078 
Q 3713 2572 3713 1747 
Q 3713 922 3314 415 
Q 2916 -91 2278 -91 
Q 1894 -91 1617 61 
Q 1341 213 1159 525 
z
M 3116 1747 
Q 3116 2381 2855 2742 
Q 2594 3103 2138 3103 
Q 1681 3103 1420 2742 
Q 1159 2381 1159 1747 
Q 1159 1113 1420 752 
Q 1681 391 2138 391 
Q 2594 391 2855 752 
Q 3116 1113 3116 1747 
z
" transform="scale(0.015625)"/>
       <path id="DejaVuSans-6f" d="M 1959 3097 
Q 1497 3097 1228 2736 
Q 959 2375 959 1747 
Q 959 1119 1226 758 
Q 1494 397 1959 397 
Q 2419 397 2687 759 
Q 2956 1122 2956 1747 
Q 2956 2369 2687 2733 
Q 2419 3097 1959 3097 
z
M 1959 3584 
Q 2709 3584 3137 3096 
Q 3566 2609 3566 1747 
Q 3566 888 3137 398 
Q 2709 -91 1959 -91 
Q 1206 -91 779 398 
Q 353 888 353 1747 
Q 353 2609 779 3096 
Q 1206 3584 1959 3584 
z
" transform="scale(0.015625)"/>
       <path id="DejaVuSans-63" d="M 3122 3366 
L 3122 2828 
Q 2878 2963 2633 3030 
Q 2388 3097 2138 3097 
Q 1578 3097 1268 2742 
Q 959 2388 959 1747 
Q 959 1106 1268 751 
Q 1578 397 2138 397 
Q 2388 397 2633 464 
Q 2878 531 3122 666 
L 3122 134 
Q 2881 22 2623 -34 
Q 2366 -91 2075 -91 
Q 1284 -91 818 406 
Q 353 903 353 1747 
Q 353 2603 823 3093 
Q 1294 3584 2113 3584 
Q 2378 3584 2631 3529 
Q 2884 3475 3122 3366 
z
" transform="scale(0.015625)"/>
       <path id="DejaVuSans-68" d="M 3513 2113 
L 3513 0 
L 2938 0 
L 2938 2094 
Q 2938 2591 2744 2837 
Q 2550 3084 2163 3084 
Q 1697 3084 1428 2787 
Q 1159 2491 1159 1978 
L 1159 0 
L 581 0 
L 581 4863 
L 1159 4863 
L 1159 2956 
Q 1366 3272 1645 3428 
Q 1925 3584 2291 3584 
Q 2894 3584 3203 3211 
Q 3513 2838 3513 2113 
z
" transform="scale(0.015625)"/>
      </defs>
      <use xlink:href="#DejaVuSans-65"/>
      <use xlink:href="#DejaVuSans-70" x="61.523438"/>
      <use xlink:href="#DejaVuSans-6f" x="125"/>
      <use xlink:href="#DejaVuSans-63" x="186.181641"/>
      <use xlink:href="#DejaVuSans-68" x="241.162109"/>
     </g>
    </g>
   </g>
   <g id="matplotlib.axis_2">
    <g id="ytick_1">
     <g id="line2d_11">
      <path d="M 30.103125 120.45 
L 225.403125 120.45 
" clip-path="url(#p7d9c87423e)" style="fill: none; stroke: #b0b0b0; stroke-width: 0.8; stroke-linecap: square"/>
     </g>
     <g id="line2d_12">
      <defs>
       <path id="m0f33dbb3b4" d="M 0 0 
L -3.5 0 
" style="stroke: #000000; stroke-width: 0.8"/>
      </defs>
      <g>
       <use xlink:href="#m0f33dbb3b4" x="30.103125" y="120.45" style="stroke: #000000; stroke-width: 0.8"/>
      </g>
     </g>
     <g id="text_7">
      <!-- 0.4 -->
      <g transform="translate(7.2 124.249219)scale(0.1 -0.1)">
       <defs>
        <path id="DejaVuSans-2e" d="M 684 794 
L 1344 794 
L 1344 0 
L 684 0 
L 684 794 
z
" transform="scale(0.015625)"/>
       </defs>
       <use xlink:href="#DejaVuSans-30"/>
       <use xlink:href="#DejaVuSans-2e" x="63.623047"/>
       <use xlink:href="#DejaVuSans-34" x="95.410156"/>
      </g>
     </g>
    </g>
    <g id="ytick_2">
     <g id="line2d_13">
      <path d="M 30.103125 75.15 
L 225.403125 75.15 
" clip-path="url(#p7d9c87423e)" style="fill: none; stroke: #b0b0b0; stroke-width: 0.8; stroke-linecap: square"/>
     </g>
     <g id="line2d_14">
      <g>
       <use xlink:href="#m0f33dbb3b4" x="30.103125" y="75.15" style="stroke: #000000; stroke-width: 0.8"/>
      </g>
     </g>
     <g id="text_8">
      <!-- 0.6 -->
      <g transform="translate(7.2 78.949219)scale(0.1 -0.1)">
       <use xlink:href="#DejaVuSans-30"/>
       <use xlink:href="#DejaVuSans-2e" x="63.623047"/>
       <use xlink:href="#DejaVuSans-36" x="95.410156"/>
      </g>
     </g>
    </g>
    <g id="ytick_3">
     <g id="line2d_15">
      <path d="M 30.103125 29.85 
L 225.403125 29.85 
" clip-path="url(#p7d9c87423e)" style="fill: none; stroke: #b0b0b0; stroke-width: 0.8; stroke-linecap: square"/>
     </g>
     <g id="line2d_16">
      <g>
       <use xlink:href="#m0f33dbb3b4" x="30.103125" y="29.85" style="stroke: #000000; stroke-width: 0.8"/>
      </g>
     </g>
     <g id="text_9">
      <!-- 0.8 -->
      <g transform="translate(7.2 33.649219)scale(0.1 -0.1)">
       <use xlink:href="#DejaVuSans-30"/>
       <use xlink:href="#DejaVuSans-2e" x="63.623047"/>
       <use xlink:href="#DejaVuSans-38" x="95.410156"/>
      </g>
     </g>
    </g>
   </g>
   <g id="line2d_17">
    <path d="M 30.103125 41.112984 
L 32.075852 85.713559 
L 34.04858 94.72896 
L 36.021307 99.434127 
L 37.994034 102.782087 
L 39.966761 104.724954 
L 41.939489 106.838753 
L 43.912216 108.241745 
L 45.884943 109.523517 
L 47.85767 110.38708 
L 49.830398 111.359893 
L 51.803125 112.001564 
L 53.775852 112.858613 
L 55.74858 113.735228 
L 57.721307 113.961771 
L 59.694034 114.259823 
L 61.666761 114.855667 
L 63.639489 115.437486 
L 65.612216 115.711411 
L 67.584943 116.105025 
L 69.55767 116.35467 
L 71.530398 116.623399 
L 73.503125 117.213339 
L 75.475852 117.359028 
L 77.44858 117.661978 
L 79.421307 117.93939 
L 81.394034 117.958826 
L 83.366761 118.396565 
L 85.339489 118.516258 
L 87.312216 118.762628 
L 89.284943 119.066592 
L 91.25767 119.169652 
L 93.230398 119.346855 
L 95.203125 119.568847 
L 97.175852 119.730026 
L 99.14858 119.810151 
L 101.121307 120.065606 
L 103.094034 120.278459 
L 105.066761 120.42426 
L 107.039489 120.578608 
L 109.012216 120.800481 
L 110.984943 120.92799 
L 112.95767 120.867665 
L 114.930398 120.967837 
L 116.903125 120.850249 
L 118.875852 121.232139 
L 120.84858 121.441333 
L 122.821307 121.38188 
L 124.794034 121.699708 
L 126.766761 121.778507 
L 128.739489 121.827351 
L 130.712216 121.849095 
L 132.684943 122.068043 
L 134.65767 122.245831 
L 136.630398 122.238718 
L 138.603125 122.41728 
L 140.575852 122.547127 
L 142.54858 122.384979 
L 144.521307 122.580463 
L 146.494034 122.657192 
L 148.466761 122.661897 
L 150.439489 122.832284 
L 152.412216 122.898586 
L 154.384943 123.042866 
L 156.35767 123.100911 
L 158.330398 123.16238 
L 160.303125 123.342375 
L 162.275852 123.275261 
L 164.24858 123.431948 
L 166.221307 123.400501 
L 168.194034 123.49816 
L 170.166761 123.762581 
L 172.139489 123.6328 
L 174.112216 123.691398 
L 176.084943 123.951488 
L 178.05767 123.758102 
L 180.030398 123.945763 
L 182.003125 124.009057 
L 183.975852 124.035002 
L 185.94858 124.066491 
L 187.921307 124.148281 
L 189.894034 124.198929 
L 191.866761 124.220238 
L 193.839489 124.44616 
L 195.812216 124.393967 
L 197.784943 124.467604 
L 199.75767 124.414031 
L 201.730398 124.451284 
L 203.703125 124.604592 
L 205.675852 124.607615 
L 207.64858 124.574493 
L 209.621307 124.675299 
L 211.594034 124.706562 
L 213.566761 125.000683 
L 215.539489 124.807201 
L 217.512216 124.784592 
L 219.484943 124.940632 
L 221.45767 124.933054 
L 223.430398 125.034348 
L 225.403125 125.096327 
" clip-path="url(#p7d9c87423e)" style="fill: none; stroke: #1f77b4; stroke-width: 1.5; stroke-linecap: square"/>
   </g>
   <g id="line2d_18">
    <path d="M 30.103125 37.80015 
L 32.075852 26.033475 
L 34.04858 23.42495 
L 36.021307 22.3302 
L 37.994034 21.28075 
L 39.966761 20.9108 
L 41.939489 20.001025 
L 43.912216 19.431 
L 45.884943 19.0384 
L 47.85767 18.966675 
L 49.830398 18.3287 
L 51.803125 18.56275 
L 53.775852 18.121075 
L 55.74858 17.954975 
L 57.721307 17.758675 
L 59.694034 17.660525 
L 61.666761 17.43025 
L 63.639489 17.3321 
L 65.612216 17.14335 
L 67.584943 17.199975 
L 69.55767 17.215075 
L 71.530398 16.90175 
L 73.503125 16.6979 
L 75.475852 16.799825 
L 77.44858 16.701675 
L 79.421307 16.293975 
L 81.394034 16.490275 
L 83.366761 16.25245 
L 85.339489 16.392125 
L 87.312216 16.04105 
L 89.284943 16.1241 
L 91.25767 16.044825 
L 93.230398 16.097675 
L 95.203125 16.04105 
L 97.175852 15.8825 
L 99.14858 15.93535 
L 101.121307 15.991975 
L 103.094034 15.893825 
L 105.066761 15.81455 
L 107.039489 15.49745 
L 109.012216 15.3842 
L 110.984943 15.7466 
L 112.95767 15.64845 
L 114.930398 15.652225 
L 116.903125 15.637125 
L 118.875852 15.342675 
L 120.84858 15.274725 
L 122.821307 15.478575 
L 124.794034 15.203 
L 126.766761 15.2936 
L 128.739489 15.3389 
L 130.712216 15.15015 
L 132.684943 15.199225 
L 134.65767 15.244525 
L 136.630398 15.1275 
L 138.603125 15.085975 
L 140.575852 14.867025 
L 142.54858 15.2181 
L 144.521307 15.131275 
L 146.494034 14.9916 
L 148.466761 15.116175 
L 150.439489 15.1124 
L 152.412216 14.98405 
L 154.384943 14.783975 
L 156.35767 14.829275 
L 158.330398 14.731125 
L 160.303125 14.829275 
L 162.275852 15.0067 
L 164.24858 14.87835 
L 166.221307 14.9312 
L 168.194034 14.746225 
L 170.166761 14.54615 
L 172.139489 14.84815 
L 174.112216 14.8255 
L 176.084943 14.56125 
L 178.05767 14.71225 
L 180.030398 14.81795 
L 182.003125 14.7047 
L 183.975852 14.6745 
L 185.94858 14.693375 
L 187.921307 14.602775 
L 189.894034 14.542375 
L 191.866761 14.6443 
L 193.839489 14.6745 
L 195.812216 14.580125 
L 197.784943 14.42535 
L 199.75767 14.3423 
L 201.730398 14.65185 
L 203.703125 14.48575 
L 205.675852 14.398925 
L 207.64858 14.527275 
L 209.621307 14.512175 
L 211.594034 14.383825 
L 213.566761 14.361175 
L 215.539489 14.5688 
L 217.512216 14.368725 
L 219.484943 14.285675 
L 221.45767 14.3725 
L 223.430398 14.3121 
L 225.403125 14.2517 
" clip-path="url(#p7d9c87423e)" style="fill: none; stroke-dasharray: 5.55,2.4; stroke-dashoffset: 0; stroke: #bf00bf; stroke-width: 1.5"/>
   </g>
   <g id="line2d_19">
    <path d="M 30.103125 29.23845 
L 32.075852 28.96665 
L 34.04858 26.88285 
L 36.021307 24.48195 
L 37.994034 26.56575 
L 39.966761 31.662 
L 41.939489 22.98705 
L 43.912216 23.2362 
L 45.884943 24.9123 
L 47.85767 21.76395 
L 49.830398 22.17165 
L 51.803125 22.44345 
L 53.775852 22.35285 
L 55.74858 21.08445 
L 57.721307 21.80925 
L 59.694034 21.89985 
L 61.666761 21.7413 
L 63.639489 21.31095 
L 65.612216 21.1524 
L 67.584943 21.53745 
L 69.55767 29.05725 
L 71.530398 23.1003 
L 73.503125 20.63145 
L 75.475852 22.149 
L 77.44858 21.22035 
L 79.421307 20.9259 
L 81.394034 20.0199 
L 83.366761 32.7039 
L 85.339489 20.58615 
L 87.312216 20.94855 
L 89.284943 21.26565 
L 91.25767 21.80925 
L 93.230398 20.79 
L 95.203125 20.3823 
L 97.175852 21.40155 
L 99.14858 21.6054 
L 101.121307 19.99725 
L 103.094034 20.72205 
L 105.066761 20.13315 
L 107.039489 21.4695 
L 109.012216 20.08785 
L 110.984943 20.22375 
L 112.95767 20.337 
L 114.930398 20.0652 
L 116.903125 21.2883 
L 118.875852 20.1105 
L 120.84858 19.9746 
L 122.821307 20.26905 
L 124.794034 19.99725 
L 126.766761 19.86135 
L 128.739489 19.86135 
L 130.712216 21.243 
L 132.684943 20.6088 
L 134.65767 19.7934 
L 136.630398 20.0652 
L 138.603125 20.6088 
L 140.575852 20.2464 
L 142.54858 20.9259 
L 144.521307 20.72205 
L 146.494034 19.72545 
L 148.466761 20.04255 
L 150.439489 20.0199 
L 152.412216 19.81605 
L 154.384943 20.26905 
L 156.35767 19.9746 
L 158.330398 19.884 
L 160.303125 20.72205 
L 162.275852 20.04255 
L 164.24858 20.1558 
L 166.221307 21.03915 
L 168.194034 19.95195 
L 170.166761 20.04255 
L 172.139489 20.6541 
L 174.112216 19.9293 
L 176.084943 20.76735 
L 178.05767 20.81265 
L 180.030398 21.1524 
L 182.003125 19.81605 
L 183.975852 19.7934 
L 185.94858 20.4729 
L 187.921307 19.86135 
L 189.894034 19.9746 
L 191.866761 20.3823 
L 193.839489 19.86135 
L 195.812216 19.99725 
L 197.784943 20.79 
L 199.75767 20.7447 
L 201.730398 19.99725 
L 203.703125 23.8251 
L 205.675852 20.4276 
L 207.64858 19.8387 
L 209.621307 22.2396 
L 211.594034 19.95195 
L 213.566761 19.86135 
L 215.539489 21.17505 
L 217.512216 20.81265 
L 219.484943 20.26905 
L 221.45767 20.04255 
L 223.430398 20.63145 
L 225.403125 19.8387 
" clip-path="url(#p7d9c87423e)" style="fill: none; stroke-dasharray: 9.6,2.4,1.5,2.4; stroke-dashoffset: 0; stroke: #008000; stroke-width: 1.5"/>
   </g>
   <g id="patch_3">
    <path d="M 30.103125 143.1 
L 30.103125 7.2 
" style="fill: none; stroke: #000000; stroke-width: 0.8; stroke-linejoin: miter; stroke-linecap: square"/>
   </g>
   <g id="patch_4">
    <path d="M 225.403125 143.1 
L 225.403125 7.2 
" style="fill: none; stroke: #000000; stroke-width: 0.8; stroke-linejoin: miter; stroke-linecap: square"/>
   </g>
   <g id="patch_5">
    <path d="M 30.103125 143.1 
L 225.403125 143.1 
" style="fill: none; stroke: #000000; stroke-width: 0.8; stroke-linejoin: miter; stroke-linecap: square"/>
   </g>
   <g id="patch_6">
    <path d="M 30.103125 7.2 
L 225.403125 7.2 
" style="fill: none; stroke: #000000; stroke-width: 0.8; stroke-linejoin: miter; stroke-linecap: square"/>
   </g>
   <g id="legend_1">
    <g id="patch_7">
     <path d="M 140.634375 98.667187 
L 218.403125 98.667187 
Q 220.403125 98.667187 220.403125 96.667187 
L 220.403125 53.632812 
Q 220.403125 51.632812 218.403125 51.632812 
L 140.634375 51.632812 
Q 138.634375 51.632812 138.634375 53.632812 
L 138.634375 96.667187 
Q 138.634375 98.667187 140.634375 98.667187 
z
" style="fill: #ffffff; opacity: 0.8; stroke: #cccccc; stroke-linejoin: miter"/>
    </g>
    <g id="line2d_20">
     <path d="M 142.634375 59.73125 
L 152.634375 59.73125 
L 162.634375 59.73125 
" style="fill: none; stroke: #1f77b4; stroke-width: 1.5; stroke-linecap: square"/>
    </g>
    <g id="text_10">
     <!-- train loss -->
     <g transform="translate(170.634375 63.23125)scale(0.1 -0.1)">
      <defs>
       <path id="DejaVuSans-74" d="M 1172 4494 
L 1172 3500 
L 2356 3500 
L 2356 3053 
L 1172 3053 
L 1172 1153 
Q 1172 725 1289 603 
Q 1406 481 1766 481 
L 2356 481 
L 2356 0 
L 1766 0 
Q 1100 0 847 248 
Q 594 497 594 1153 
L 594 3053 
L 172 3053 
L 172 3500 
L 594 3500 
L 594 4494 
L 1172 4494 
z
" transform="scale(0.015625)"/>
       <path id="DejaVuSans-72" d="M 2631 2963 
Q 2534 3019 2420 3045 
Q 2306 3072 2169 3072 
Q 1681 3072 1420 2755 
Q 1159 2438 1159 1844 
L 1159 0 
L 581 0 
L 581 3500 
L 1159 3500 
L 1159 2956 
Q 1341 3275 1631 3429 
Q 1922 3584 2338 3584 
Q 2397 3584 2469 3576 
Q 2541 3569 2628 3553 
L 2631 2963 
z
" transform="scale(0.015625)"/>
       <path id="DejaVuSans-61" d="M 2194 1759 
Q 1497 1759 1228 1600 
Q 959 1441 959 1056 
Q 959 750 1161 570 
Q 1363 391 1709 391 
Q 2188 391 2477 730 
Q 2766 1069 2766 1631 
L 2766 1759 
L 2194 1759 
z
M 3341 1997 
L 3341 0 
L 2766 0 
L 2766 531 
Q 2569 213 2275 61 
Q 1981 -91 1556 -91 
Q 1019 -91 701 211 
Q 384 513 384 1019 
Q 384 1609 779 1909 
Q 1175 2209 1959 2209 
L 2766 2209 
L 2766 2266 
Q 2766 2663 2505 2880 
Q 2244 3097 1772 3097 
Q 1472 3097 1187 3025 
Q 903 2953 641 2809 
L 641 3341 
Q 956 3463 1253 3523 
Q 1550 3584 1831 3584 
Q 2591 3584 2966 3190 
Q 3341 2797 3341 1997 
z
" transform="scale(0.015625)"/>
       <path id="DejaVuSans-69" d="M 603 3500 
L 1178 3500 
L 1178 0 
L 603 0 
L 603 3500 
z
M 603 4863 
L 1178 4863 
L 1178 4134 
L 603 4134 
L 603 4863 
z
" transform="scale(0.015625)"/>
       <path id="DejaVuSans-6e" d="M 3513 2113 
L 3513 0 
L 2938 0 
L 2938 2094 
Q 2938 2591 2744 2837 
Q 2550 3084 2163 3084 
Q 1697 3084 1428 2787 
Q 1159 2491 1159 1978 
L 1159 0 
L 581 0 
L 581 3500 
L 1159 3500 
L 1159 2956 
Q 1366 3272 1645 3428 
Q 1925 3584 2291 3584 
Q 2894 3584 3203 3211 
Q 3513 2838 3513 2113 
z
" transform="scale(0.015625)"/>
       <path id="DejaVuSans-20" transform="scale(0.015625)"/>
       <path id="DejaVuSans-6c" d="M 603 4863 
L 1178 4863 
L 1178 0 
L 603 0 
L 603 4863 
z
" transform="scale(0.015625)"/>
       <path id="DejaVuSans-73" d="M 2834 3397 
L 2834 2853 
Q 2591 2978 2328 3040 
Q 2066 3103 1784 3103 
Q 1356 3103 1142 2972 
Q 928 2841 928 2578 
Q 928 2378 1081 2264 
Q 1234 2150 1697 2047 
L 1894 2003 
Q 2506 1872 2764 1633 
Q 3022 1394 3022 966 
Q 3022 478 2636 193 
Q 2250 -91 1575 -91 
Q 1294 -91 989 -36 
Q 684 19 347 128 
L 347 722 
Q 666 556 975 473 
Q 1284 391 1588 391 
Q 1994 391 2212 530 
Q 2431 669 2431 922 
Q 2431 1156 2273 1281 
Q 2116 1406 1581 1522 
L 1381 1569 
Q 847 1681 609 1914 
Q 372 2147 372 2553 
Q 372 3047 722 3315 
Q 1072 3584 1716 3584 
Q 2034 3584 2315 3537 
Q 2597 3491 2834 3397 
z
" transform="scale(0.015625)"/>
      </defs>
      <use xlink:href="#DejaVuSans-74"/>
      <use xlink:href="#DejaVuSans-72" x="39.208984"/>
      <use xlink:href="#DejaVuSans-61" x="80.322266"/>
      <use xlink:href="#DejaVuSans-69" x="141.601562"/>
      <use xlink:href="#DejaVuSans-6e" x="169.384766"/>
      <use xlink:href="#DejaVuSans-20" x="232.763672"/>
      <use xlink:href="#DejaVuSans-6c" x="264.550781"/>
      <use xlink:href="#DejaVuSans-6f" x="292.333984"/>
      <use xlink:href="#DejaVuSans-73" x="353.515625"/>
      <use xlink:href="#DejaVuSans-73" x="405.615234"/>
     </g>
    </g>
    <g id="line2d_21">
     <path d="M 142.634375 74.409375 
L 152.634375 74.409375 
L 162.634375 74.409375 
" style="fill: none; stroke-dasharray: 5.55,2.4; stroke-dashoffset: 0; stroke: #bf00bf; stroke-width: 1.5"/>
    </g>
    <g id="text_11">
     <!-- train acc -->
     <g transform="translate(170.634375 77.909375)scale(0.1 -0.1)">
      <use xlink:href="#DejaVuSans-74"/>
      <use xlink:href="#DejaVuSans-72" x="39.208984"/>
      <use xlink:href="#DejaVuSans-61" x="80.322266"/>
      <use xlink:href="#DejaVuSans-69" x="141.601562"/>
      <use xlink:href="#DejaVuSans-6e" x="169.384766"/>
      <use xlink:href="#DejaVuSans-20" x="232.763672"/>
      <use xlink:href="#DejaVuSans-61" x="264.550781"/>
      <use xlink:href="#DejaVuSans-63" x="325.830078"/>
      <use xlink:href="#DejaVuSans-63" x="380.810547"/>
     </g>
    </g>
    <g id="line2d_22">
     <path d="M 142.634375 89.0875 
L 152.634375 89.0875 
L 162.634375 89.0875 
" style="fill: none; stroke-dasharray: 9.6,2.4,1.5,2.4; stroke-dashoffset: 0; stroke: #008000; stroke-width: 1.5"/>
    </g>
    <g id="text_12">
     <!-- test acc -->
     <g transform="translate(170.634375 92.5875)scale(0.1 -0.1)">
      <use xlink:href="#DejaVuSans-74"/>
      <use xlink:href="#DejaVuSans-65" x="39.208984"/>
      <use xlink:href="#DejaVuSans-73" x="100.732422"/>
      <use xlink:href="#DejaVuSans-74" x="152.832031"/>
      <use xlink:href="#DejaVuSans-20" x="192.041016"/>
      <use xlink:href="#DejaVuSans-61" x="223.828125"/>
      <use xlink:href="#DejaVuSans-63" x="285.107422"/>
      <use xlink:href="#DejaVuSans-63" x="340.087891"/>
     </g>
    </g>
   </g>
  </g>
 </g>
 <defs>
  <clipPath id="p7d9c87423e">
   <rect x="30.103125" y="7.2" width="195.3" height="135.9"/>
  </clipPath>
 </defs>
</svg>
