<?xml version="1.0" encoding="utf-8" standalone="no"?>
<!DOCTYPE svg PUBLIC "-//W3C//DTD SVG 1.1//EN"
  "http://www.w3.org/Graphics/SVG/1.1/DTD/svg11.dtd">
<svg xmlns:xlink="http://www.w3.org/1999/xlink" width="894.34375pt" height="614.274375pt" viewBox="0 0 894.34375 614.274375" xmlns="http://www.w3.org/2000/svg" version="1.1">
 <metadata>
  <rdf:RDF xmlns:dc="http://purl.org/dc/elements/1.1/" xmlns:cc="http://creativecommons.org/ns#" xmlns:rdf="http://www.w3.org/1999/02/22-rdf-syntax-ns#">
   <cc:Work>
    <dc:type rdf:resource="http://purl.org/dc/dcmitype/StillImage"/>
    <dc:date>2023-07-04T03:11:39.641223</dc:date>
    <dc:format>image/svg+xml</dc:format>
    <dc:creator>
     <cc:Agent>
      <dc:title>Matplotlib v3.5.1, https://matplotlib.org/</dc:title>
     </cc:Agent>
    </dc:creator>
   </cc:Work>
  </rdf:RDF>
 </metadata>
 <defs>
  <style type="text/css">*{stroke-linejoin: round; stroke-linecap: butt}</style>
 </defs>
 <g id="figure_1">
  <g id="patch_1">
   <path d="M 0 614.274375 
L 894.34375 614.274375 
L 894.34375 0 
L 0 0 
z
" style="fill: #ffffff"/>
  </g>
  <g id="axes_1">
   <g id="patch_2">
    <path d="M 43.78125 274.318125 
L 442.352679 274.318125 
L 442.352679 22.318125 
L 43.78125 22.318125 
z
" style="fill: #ffffff"/>
   </g>
   <g id="matplotlib.axis_1">
    <g id="xtick_1">
     <g id="line2d_1">
      <path d="M 116.988247 274.318125 
L 116.988247 22.318125 
" clip-path="url(#p147e213037)" style="fill: none; stroke: #b0b0b0; stroke-width: 0.8; stroke-linecap: square"/>
     </g>
     <g id="line2d_2">
      <defs>
       <path id="mbbc455a8d0" d="M 0 0 
L 0 3.5 
" style="stroke: #000000; stroke-width: 0.8"/>
      </defs>
      <g>
       <use xlink:href="#mbbc455a8d0" x="116.988247" y="274.318125" style="stroke: #000000; stroke-width: 0.8"/>
      </g>
     </g>
     <g id="text_1">
      <!-- 10 -->
      <g transform="translate(110.625747 288.916562)scale(0.1 -0.1)">
       <defs>
        <path id="DejaVuSans-31" d="M 794 531 
L 1825 531 
L 1825 4091 
L 703 3866 
L 703 4441 
L 1819 4666 
L 2450 4666 
L 2450 531 
L 3481 531 
L 3481 0 
L 794 0 
L 794 531 
z
" transform="scale(0.015625)"/>
        <path id="DejaVuSans-30" d="M 2034 4250 
Q 1547 4250 1301 3770 
Q 1056 3291 1056 2328 
Q 1056 1369 1301 889 
Q 1547 409 2034 409 
Q 2525 409 2770 889 
Q 3016 1369 3016 2328 
Q 3016 3291 2770 3770 
Q 2525 4250 2034 4250 
z
M 2034 4750 
Q 2819 4750 3233 4129 
Q 3647 3509 3647 2328 
Q 3647 1150 3233 529 
Q 2819 -91 2034 -91 
Q 1250 -91 836 529 
Q 422 1150 422 2328 
Q 422 3509 836 4129 
Q 1250 4750 2034 4750 
z
" transform="scale(0.015625)"/>
       </defs>
       <use xlink:href="#DejaVuSans-31"/>
       <use xlink:href="#DejaVuSans-30" x="63.623047"/>
      </g>
     </g>
    </g>
    <g id="xtick_2">
     <g id="line2d_3">
      <path d="M 198.329355 274.318125 
L 198.329355 22.318125 
" clip-path="url(#p147e213037)" style="fill: none; stroke: #b0b0b0; stroke-width: 0.8; stroke-linecap: square"/>
     </g>
     <g id="line2d_4">
      <g>
       <use xlink:href="#mbbc455a8d0" x="198.329355" y="274.318125" style="stroke: #000000; stroke-width: 0.8"/>
      </g>
     </g>
     <g id="text_2">
      <!-- 20 -->
      <g transform="translate(191.966855 288.916562)scale(0.1 -0.1)">
       <defs>
        <path id="DejaVuSans-32" d="M 1228 531 
L 3431 531 
L 3431 0 
L 469 0 
L 469 531 
Q 828 903 1448 1529 
Q 2069 2156 2228 2338 
Q 2531 2678 2651 2914 
Q 2772 3150 2772 3378 
Q 2772 3750 2511 3984 
Q 2250 4219 1831 4219 
Q 1534 4219 1204 4116 
Q 875 4013 500 3803 
L 500 4441 
Q 881 4594 1212 4672 
Q 1544 4750 1819 4750 
Q 2544 4750 2975 4387 
Q 3406 4025 3406 3419 
Q 3406 3131 3298 2873 
Q 3191 2616 2906 2266 
Q 2828 2175 2409 1742 
Q 1991 1309 1228 531 
z
" transform="scale(0.015625)"/>
       </defs>
       <use xlink:href="#DejaVuSans-32"/>
       <use xlink:href="#DejaVuSans-30" x="63.623047"/>
      </g>
     </g>
    </g>
    <g id="xtick_3">
     <g id="line2d_5">
      <path d="M 279.670463 274.318125 
L 279.670463 22.318125 
" clip-path="url(#p147e213037)" style="fill: none; stroke: #b0b0b0; stroke-width: 0.8; stroke-linecap: square"/>
     </g>
     <g id="line2d_6">
      <g>
       <use xlink:href="#mbbc455a8d0" x="279.670463" y="274.318125" style="stroke: #000000; stroke-width: 0.8"/>
      </g>
     </g>
     <g id="text_3">
      <!-- 30 -->
      <g transform="translate(273.307963 288.916562)scale(0.1 -0.1)">
       <defs>
        <path id="DejaVuSans-33" d="M 2597 2516 
Q 3050 2419 3304 2112 
Q 3559 1806 3559 1356 
Q 3559 666 3084 287 
Q 2609 -91 1734 -91 
Q 1441 -91 1130 -33 
Q 819 25 488 141 
L 488 750 
Q 750 597 1062 519 
Q 1375 441 1716 441 
Q 2309 441 2620 675 
Q 2931 909 2931 1356 
Q 2931 1769 2642 2001 
Q 2353 2234 1838 2234 
L 1294 2234 
L 1294 2753 
L 1863 2753 
Q 2328 2753 2575 2939 
Q 2822 3125 2822 3475 
Q 2822 3834 2567 4026 
Q 2313 4219 1838 4219 
Q 1578 4219 1281 4162 
Q 984 4106 628 3988 
L 628 4550 
Q 988 4650 1302 4700 
Q 1616 4750 1894 4750 
Q 2613 4750 3031 4423 
Q 3450 4097 3450 3541 
Q 3450 3153 3228 2886 
Q 3006 2619 2597 2516 
z
" transform="scale(0.015625)"/>
       </defs>
       <use xlink:href="#DejaVuSans-33"/>
       <use xlink:href="#DejaVuSans-30" x="63.623047"/>
      </g>
     </g>
    </g>
    <g id="xtick_4">
     <g id="line2d_7">
      <path d="M 361.011571 274.318125 
L 361.011571 22.318125 
" clip-path="url(#p147e213037)" style="fill: none; stroke: #b0b0b0; stroke-width: 0.8; stroke-linecap: square"/>
     </g>
     <g id="line2d_8">
      <g>
       <use xlink:href="#mbbc455a8d0" x="361.011571" y="274.318125" style="stroke: #000000; stroke-width: 0.8"/>
      </g>
     </g>
     <g id="text_4">
      <!-- 40 -->
      <g transform="translate(354.649071 288.916562)scale(0.1 -0.1)">
       <defs>
        <path id="DejaVuSans-34" d="M 2419 4116 
L 825 1625 
L 2419 1625 
L 2419 4116 
z
M 2253 4666 
L 3047 4666 
L 3047 1625 
L 3713 1625 
L 3713 1100 
L 3047 1100 
L 3047 0 
L 2419 0 
L 2419 1100 
L 313 1100 
L 313 1709 
L 2253 4666 
z
" transform="scale(0.015625)"/>
       </defs>
       <use xlink:href="#DejaVuSans-34"/>
       <use xlink:href="#DejaVuSans-30" x="63.623047"/>
      </g>
     </g>
    </g>
    <g id="xtick_5">
     <g id="line2d_9">
      <path d="M 442.352679 274.318125 
L 442.352679 22.318125 
" clip-path="url(#p147e213037)" style="fill: none; stroke: #b0b0b0; stroke-width: 0.8; stroke-linecap: square"/>
     </g>
     <g id="line2d_10">
      <g>
       <use xlink:href="#mbbc455a8d0" x="442.352679" y="274.318125" style="stroke: #000000; stroke-width: 0.8"/>
      </g>
     </g>
     <g id="text_5">
      <!-- 50 -->
      <g transform="translate(435.990179 288.916562)scale(0.1 -0.1)">
       <defs>
        <path id="DejaVuSans-35" d="M 691 4666 
L 3169 4666 
L 3169 4134 
L 1269 4134 
L 1269 2991 
Q 1406 3038 1543 3061 
Q 1681 3084 1819 3084 
Q 2600 3084 3056 2656 
Q 3513 2228 3513 1497 
Q 3513 744 3044 326 
Q 2575 -91 1722 -91 
Q 1428 -91 1123 -41 
Q 819 9 494 109 
L 494 744 
Q 775 591 1075 516 
Q 1375 441 1709 441 
Q 2250 441 2565 725 
Q 2881 1009 2881 1497 
Q 2881 1984 2565 2268 
Q 2250 2553 1709 2553 
Q 1456 2553 1204 2497 
Q 953 2441 691 2322 
L 691 4666 
z
" transform="scale(0.015625)"/>
       </defs>
       <use xlink:href="#DejaVuSans-35"/>
       <use xlink:href="#DejaVuSans-30" x="63.623047"/>
      </g>
     </g>
    </g>
    <g id="text_6">
     <!-- epoch -->
     <g transform="translate(227.838839 302.594687)scale(0.1 -0.1)">
      <defs>
       <path id="DejaVuSans-65" d="M 3597 1894 
L 3597 1613 
L 953 1613 
Q 991 1019 1311 708 
Q 1631 397 2203 397 
Q 2534 397 2845 478 
Q 3156 559 3463 722 
L 3463 178 
Q 3153 47 2828 -22 
Q 2503 -91 2169 -91 
Q 1331 -91 842 396 
Q 353 884 353 1716 
Q 353 2575 817 3079 
Q 1281 3584 2069 3584 
Q 2775 3584 3186 3129 
Q 3597 2675 3597 1894 
z
M 3022 2063 
Q 3016 2534 2758 2815 
Q 2500 3097 2075 3097 
Q 1594 3097 1305 2825 
Q 1016 2553 972 2059 
L 3022 2063 
z
" transform="scale(0.015625)"/>
       <path id="DejaVuSans-70" d="M 1159 525 
L 1159 -1331 
L 581 -1331 
L 581 3500 
L 1159 3500 
L 1159 2969 
Q 1341 3281 1617 3432 
Q 1894 3584 2278 3584 
Q 2916 3584 3314 3078 
Q 3713 2572 3713 1747 
Q 3713 922 3314 415 
Q 2916 -91 2278 -91 
Q 1894 -91 1617 61 
Q 1341 213 1159 525 
z
M 3116 1747 
Q 3116 2381 2855 2742 
Q 2594 3103 2138 3103 
Q 1681 3103 1420 2742 
Q 1159 2381 1159 1747 
Q 1159 1113 1420 752 
Q 1681 391 2138 391 
Q 2594 391 2855 752 
Q 3116 1113 3116 1747 
z
" transform="scale(0.015625)"/>
       <path id="DejaVuSans-6f" d="M 1959 3097 
Q 1497 3097 1228 2736 
Q 959 2375 959 1747 
Q 959 1119 1226 758 
Q 1494 397 1959 397 
Q 2419 397 2687 759 
Q 2956 1122 2956 1747 
Q 2956 2369 2687 2733 
Q 2419 3097 1959 3097 
z
M 1959 3584 
Q 2709 3584 3137 3096 
Q 3566 2609 3566 1747 
Q 3566 888 3137 398 
Q 2709 -91 1959 -91 
Q 1206 -91 779 398 
Q 353 888 353 1747 
Q 353 2609 779 3096 
Q 1206 3584 1959 3584 
z
" transform="scale(0.015625)"/>
       <path id="DejaVuSans-63" d="M 3122 3366 
L 3122 2828 
Q 2878 2963 2633 3030 
Q 2388 3097 2138 3097 
Q 1578 3097 1268 2742 
Q 959 2388 959 1747 
Q 959 1106 1268 751 
Q 1578 397 2138 397 
Q 2388 397 2633 464 
Q 2878 531 3122 666 
L 3122 134 
Q 2881 22 2623 -34 
Q 2366 -91 2075 -91 
Q 1284 -91 818 406 
Q 353 903 353 1747 
Q 353 2603 823 3093 
Q 1294 3584 2113 3584 
Q 2378 3584 2631 3529 
Q 2884 3475 3122 3366 
z
" transform="scale(0.015625)"/>
       <path id="DejaVuSans-68" d="M 3513 2113 
L 3513 0 
L 2938 0 
L 2938 2094 
Q 2938 2591 2744 2837 
Q 2550 3084 2163 3084 
Q 1697 3084 1428 2787 
Q 1159 2491 1159 1978 
L 1159 0 
L 581 0 
L 581 4863 
L 1159 4863 
L 1159 2956 
Q 1366 3272 1645 3428 
Q 1925 3584 2291 3584 
Q 2894 3584 3203 3211 
Q 3513 2838 3513 2113 
z
" transform="scale(0.015625)"/>
      </defs>
      <use xlink:href="#DejaVuSans-65"/>
      <use xlink:href="#DejaVuSans-70" x="61.523438"/>
      <use xlink:href="#DejaVuSans-6f" x="125"/>
      <use xlink:href="#DejaVuSans-63" x="186.181641"/>
      <use xlink:href="#DejaVuSans-68" x="241.162109"/>
     </g>
    </g>
   </g>
   <g id="matplotlib.axis_2">
    <g id="ytick_1">
     <g id="line2d_11">
      <path d="M 43.78125 274.318125 
L 442.352679 274.318125 
" clip-path="url(#p147e213037)" style="fill: none; stroke: #b0b0b0; stroke-width: 0.8; stroke-linecap: square"/>
     </g>
     <g id="line2d_12">
      <defs>
       <path id="mcfed404acd" d="M 0 0 
L -3.5 0 
" style="stroke: #000000; stroke-width: 0.8"/>
      </defs>
      <g>
       <use xlink:href="#mcfed404acd" x="43.78125" y="274.318125" style="stroke: #000000; stroke-width: 0.8"/>
      </g>
     </g>
     <g id="text_7">
      <!-- 0.0 -->
      <g transform="translate(20.878125 278.117344)scale(0.1 -0.1)">
       <defs>
        <path id="DejaVuSans-2e" d="M 684 794 
L 1344 794 
L 1344 0 
L 684 0 
L 684 794 
z
" transform="scale(0.015625)"/>
       </defs>
       <use xlink:href="#DejaVuSans-30"/>
       <use xlink:href="#DejaVuSans-2e" x="63.623047"/>
       <use xlink:href="#DejaVuSans-30" x="95.410156"/>
      </g>
     </g>
    </g>
    <g id="ytick_2">
     <g id="line2d_13">
      <path d="M 43.78125 223.918125 
L 442.352679 223.918125 
" clip-path="url(#p147e213037)" style="fill: none; stroke: #b0b0b0; stroke-width: 0.8; stroke-linecap: square"/>
     </g>
     <g id="line2d_14">
      <g>
       <use xlink:href="#mcfed404acd" x="43.78125" y="223.918125" style="stroke: #000000; stroke-width: 0.8"/>
      </g>
     </g>
     <g id="text_8">
      <!-- 0.2 -->
      <g transform="translate(20.878125 227.717344)scale(0.1 -0.1)">
       <use xlink:href="#DejaVuSans-30"/>
       <use xlink:href="#DejaVuSans-2e" x="63.623047"/>
       <use xlink:href="#DejaVuSans-32" x="95.410156"/>
      </g>
     </g>
    </g>
    <g id="ytick_3">
     <g id="line2d_15">
      <path d="M 43.78125 173.518125 
L 442.352679 173.518125 
" clip-path="url(#p147e213037)" style="fill: none; stroke: #b0b0b0; stroke-width: 0.8; stroke-linecap: square"/>
     </g>
     <g id="line2d_16">
      <g>
       <use xlink:href="#mcfed404acd" x="43.78125" y="173.518125" style="stroke: #000000; stroke-width: 0.8"/>
      </g>
     </g>
     <g id="text_9">
      <!-- 0.4 -->
      <g transform="translate(20.878125 177.317344)scale(0.1 -0.1)">
       <use xlink:href="#DejaVuSans-30"/>
       <use xlink:href="#DejaVuSans-2e" x="63.623047"/>
       <use xlink:href="#DejaVuSans-34" x="95.410156"/>
      </g>
     </g>
    </g>
    <g id="ytick_4">
     <g id="line2d_17">
      <path d="M 43.78125 123.118125 
L 442.352679 123.118125 
" clip-path="url(#p147e213037)" style="fill: none; stroke: #b0b0b0; stroke-width: 0.8; stroke-linecap: square"/>
     </g>
     <g id="line2d_18">
      <g>
       <use xlink:href="#mcfed404acd" x="43.78125" y="123.118125" style="stroke: #000000; stroke-width: 0.8"/>
      </g>
     </g>
     <g id="text_10">
      <!-- 0.6 -->
      <g transform="translate(20.878125 126.917344)scale(0.1 -0.1)">
       <defs>
        <path id="DejaVuSans-36" d="M 2113 2584 
Q 1688 2584 1439 2293 
Q 1191 2003 1191 1497 
Q 1191 994 1439 701 
Q 1688 409 2113 409 
Q 2538 409 2786 701 
Q 3034 994 3034 1497 
Q 3034 2003 2786 2293 
Q 2538 2584 2113 2584 
z
M 3366 4563 
L 3366 3988 
Q 3128 4100 2886 4159 
Q 2644 4219 2406 4219 
Q 1781 4219 1451 3797 
Q 1122 3375 1075 2522 
Q 1259 2794 1537 2939 
Q 1816 3084 2150 3084 
Q 2853 3084 3261 2657 
Q 3669 2231 3669 1497 
Q 3669 778 3244 343 
Q 2819 -91 2113 -91 
Q 1303 -91 875 529 
Q 447 1150 447 2328 
Q 447 3434 972 4092 
Q 1497 4750 2381 4750 
Q 2619 4750 2861 4703 
Q 3103 4656 3366 4563 
z
" transform="scale(0.015625)"/>
       </defs>
       <use xlink:href="#DejaVuSans-30"/>
       <use xlink:href="#DejaVuSans-2e" x="63.623047"/>
       <use xlink:href="#DejaVuSans-36" x="95.410156"/>
      </g>
     </g>
    </g>
    <g id="ytick_5">
     <g id="line2d_19">
      <path d="M 43.78125 72.718125 
L 442.352679 72.718125 
" clip-path="url(#p147e213037)" style="fill: none; stroke: #b0b0b0; stroke-width: 0.8; stroke-linecap: square"/>
     </g>
     <g id="line2d_20">
      <g>
       <use xlink:href="#mcfed404acd" x="43.78125" y="72.718125" style="stroke: #000000; stroke-width: 0.8"/>
      </g>
     </g>
     <g id="text_11">
      <!-- 0.8 -->
      <g transform="translate(20.878125 76.517344)scale(0.1 -0.1)">
       <defs>
        <path id="DejaVuSans-38" d="M 2034 2216 
Q 1584 2216 1326 1975 
Q 1069 1734 1069 1313 
Q 1069 891 1326 650 
Q 1584 409 2034 409 
Q 2484 409 2743 651 
Q 3003 894 3003 1313 
Q 3003 1734 2745 1975 
Q 2488 2216 2034 2216 
z
M 1403 2484 
Q 997 2584 770 2862 
Q 544 3141 544 3541 
Q 544 4100 942 4425 
Q 1341 4750 2034 4750 
Q 2731 4750 3128 4425 
Q 3525 4100 3525 3541 
Q 3525 3141 3298 2862 
Q 3072 2584 2669 2484 
Q 3125 2378 3379 2068 
Q 3634 1759 3634 1313 
Q 3634 634 3220 271 
Q 2806 -91 2034 -91 
Q 1263 -91 848 271 
Q 434 634 434 1313 
Q 434 1759 690 2068 
Q 947 2378 1403 2484 
z
M 1172 3481 
Q 1172 3119 1398 2916 
Q 1625 2713 2034 2713 
Q 2441 2713 2670 2916 
Q 2900 3119 2900 3481 
Q 2900 3844 2670 4047 
Q 2441 4250 2034 4250 
Q 1625 4250 1398 4047 
Q 1172 3844 1172 3481 
z
" transform="scale(0.015625)"/>
       </defs>
       <use xlink:href="#DejaVuSans-30"/>
       <use xlink:href="#DejaVuSans-2e" x="63.623047"/>
       <use xlink:href="#DejaVuSans-38" x="95.410156"/>
      </g>
     </g>
    </g>
    <g id="ytick_6">
     <g id="line2d_21">
      <path d="M 43.78125 22.318125 
L 442.352679 22.318125 
" clip-path="url(#p147e213037)" style="fill: none; stroke: #b0b0b0; stroke-width: 0.8; stroke-linecap: square"/>
     </g>
     <g id="line2d_22">
      <g>
       <use xlink:href="#mcfed404acd" x="43.78125" y="22.318125" style="stroke: #000000; stroke-width: 0.8"/>
      </g>
     </g>
     <g id="text_12">
      <!-- 1.0 -->
      <g transform="translate(20.878125 26.117344)scale(0.1 -0.1)">
       <use xlink:href="#DejaVuSans-31"/>
       <use xlink:href="#DejaVuSans-2e" x="63.623047"/>
       <use xlink:href="#DejaVuSans-30" x="95.410156"/>
      </g>
     </g>
    </g>
    <g id="text_13">
     <!-- Y -->
     <g transform="translate(14.798438 151.372031)rotate(-90)scale(0.1 -0.1)">
      <defs>
       <path id="DejaVuSans-59" d="M -13 4666 
L 666 4666 
L 1959 2747 
L 3244 4666 
L 3922 4666 
L 2272 2222 
L 2272 0 
L 1638 0 
L 1638 2222 
L -13 4666 
z
" transform="scale(0.015625)"/>
      </defs>
      <use xlink:href="#DejaVuSans-59"/>
     </g>
    </g>
   </g>
   <g id="line2d_23">
    <path d="M 46.089526 -1 
L 51.915361 125.519011 
L 60.049472 154.462373 
L 68.183582 166.186243 
L 76.317693 174.75316 
L 84.451804 180.272109 
L 92.585915 185.04178 
L 100.720026 187.660864 
L 108.854136 191.587789 
L 116.988247 193.564506 
L 125.122358 196.197561 
L 133.256469 198.485784 
L 135.467869 -1 
M 152.836139 -1 
L 157.658801 114.98461 
L 165.792912 149.494145 
L 173.927023 164.103723 
L 182.061133 171.79772 
L 190.195244 176.069311 
L 198.329355 179.000718 
L 206.463466 181.311764 
L 214.597577 184.492894 
L 222.731687 185.418201 
L 230.865798 186.642321 
L 238.999909 188.984514 
L 247.13402 190.711802 
L 255.26813 190.227108 
L 263.402241 193.692393 
L 271.536352 194.065725 
L 279.670463 196.263372 
L 287.804574 197.687137 
L 295.938684 197.93508 
L 304.072795 198.844603 
L 312.206906 200.030382 
L 320.341017 201.040271 
L 328.475128 201.871807 
L 336.609238 202.651664 
L 344.743349 203.838296 
L 352.87746 204.88132 
L 361.011571 204.509534 
L 369.145681 205.413945 
L 377.279792 206.979533 
L 385.413903 207.214846 
L 393.548014 207.101848 
L 401.682125 209.787661 
L 409.816235 209.73422 
L 417.950346 209.460412 
L 426.084457 209.832193 
L 434.218568 211.850296 
L 442.352679 212.192609 
" clip-path="url(#p147e213037)" style="fill: none; stroke: #1f77b4; stroke-width: 1.5; stroke-linecap: square"/>
   </g>
   <g id="line2d_24">
    <path d="M 43.78125 148.448325 
L 51.915361 79.072725 
L 60.049472 66.808725 
L 68.183582 62.251725 
L 76.317693 59.353725 
L 84.451804 57.136125 
L 92.585915 55.846725 
L 100.720026 54.868125 
L 108.854136 53.003325 
L 116.988247 52.553925 
L 125.122358 51.575325 
L 133.256469 50.911725 
L 141.390579 64.150125 
L 149.52469 161.018925 
L 157.658801 82.688925 
L 165.792912 68.429925 
L 173.927023 62.852325 
L 182.061133 59.979525 
L 190.195244 58.593525 
L 198.329355 57.535125 
L 206.463466 56.753925 
L 214.597577 55.594725 
L 222.731687 55.304925 
L 230.865798 55.069725 
L 238.999909 54.259125 
L 247.13402 53.830725 
L 255.26813 53.679525 
L 263.402241 52.255725 
L 271.536352 52.390125 
L 279.670463 51.356925 
L 287.804574 51.033525 
L 295.938684 51.163725 
L 304.072795 50.844525 
L 312.206906 50.046525 
L 320.341017 49.786125 
L 328.475128 49.798725 
L 336.609238 49.055325 
L 344.743349 48.832725 
L 352.87746 48.677325 
L 361.011571 48.878925 
L 369.145681 48.085125 
L 377.279792 47.665125 
L 385.413903 47.845725 
L 393.548014 47.652525 
L 401.682125 46.657125 
L 409.816235 46.480725 
L 417.950346 47.144325 
L 426.084457 46.804125 
L 434.218568 45.749925 
L 442.352679 45.812925 
" clip-path="url(#p147e213037)" style="fill: none; stroke-dasharray: 5.55,2.4; stroke-dashoffset: 0; stroke: #bf00bf; stroke-width: 1.5"/>
   </g>
   <g id="line2d_25">
    <path d="M 43.78125 100.614525 
L 51.915361 78.211725 
L 60.049472 78.060525 
L 68.183582 75.414525 
L 76.317693 62.612925 
L 84.451804 59.840925 
L 92.585915 59.034525 
L 100.720026 65.334525 
L 108.854136 58.807725 
L 116.988247 58.379325 
L 125.122358 60.521325 
L 133.256469 59.210925 
L 141.390579 193.148925 
L 149.52469 113.012925 
L 157.658801 92.827725 
L 165.792912 65.208525 
L 173.927023 69.870525 
L 182.061133 74.456925 
L 190.195244 68.711325 
L 198.329355 60.949725 
L 206.463466 61.705725 
L 214.597577 63.948525 
L 222.731687 71.760525 
L 230.865798 69.416925 
L 238.999909 62.033325 
L 247.13402 59.462925 
L 255.26813 58.933725 
L 263.402241 65.485725 
L 271.536352 58.026525 
L 279.670463 60.445725 
L 287.804574 63.923325 
L 295.938684 60.244125 
L 304.072795 54.926925 
L 312.206906 57.068925 
L 320.341017 59.336925 
L 328.475128 56.388525 
L 336.609238 56.917725 
L 344.743349 56.161725 
L 352.87746 61.025325 
L 361.011571 63.419325 
L 369.145681 57.043725 
L 377.279792 58.454925 
L 385.413903 56.312925 
L 393.548014 55.783725 
L 401.682125 54.775725 
L 409.816235 57.547725 
L 417.950346 62.159325 
L 426.084457 53.364525 
L 434.218568 55.582125 
L 442.352679 60.571725 
" clip-path="url(#p147e213037)" style="fill: none; stroke-dasharray: 9.6,2.4,1.5,2.4; stroke-dashoffset: 0; stroke: #008000; stroke-width: 1.5"/>
   </g>
   <g id="patch_3">
    <path d="M 43.78125 274.318125 
L 43.78125 22.318125 
" style="fill: none; stroke: #000000; stroke-width: 0.8; stroke-linejoin: miter; stroke-linecap: square"/>
   </g>
   <g id="patch_4">
    <path d="M 442.352679 274.318125 
L 442.352679 22.318125 
" style="fill: none; stroke: #000000; stroke-width: 0.8; stroke-linejoin: miter; stroke-linecap: square"/>
   </g>
   <g id="patch_5">
    <path d="M 43.78125 274.318125 
L 442.352679 274.318125 
" style="fill: none; stroke: #000000; stroke-width: 0.8; stroke-linejoin: miter; stroke-linecap: square"/>
   </g>
   <g id="patch_6">
    <path d="M 43.78125 22.318125 
L 442.352679 22.318125 
" style="fill: none; stroke: #000000; stroke-width: 0.8; stroke-linejoin: miter; stroke-linecap: square"/>
   </g>
   <g id="text_14">
    <!-- dropout1:0,dropout2:0 -->
    <g transform="translate(174.953839 16.318125)scale(0.12 -0.12)">
     <defs>
      <path id="DejaVuSans-64" d="M 2906 2969 
L 2906 4863 
L 3481 4863 
L 3481 0 
L 2906 0 
L 2906 525 
Q 2725 213 2448 61 
Q 2172 -91 1784 -91 
Q 1150 -91 751 415 
Q 353 922 353 1747 
Q 353 2572 751 3078 
Q 1150 3584 1784 3584 
Q 2172 3584 2448 3432 
Q 2725 3281 2906 2969 
z
M 947 1747 
Q 947 1113 1208 752 
Q 1469 391 1925 391 
Q 2381 391 2643 752 
Q 2906 1113 2906 1747 
Q 2906 2381 2643 2742 
Q 2381 3103 1925 3103 
Q 1469 3103 1208 2742 
Q 947 2381 947 1747 
z
" transform="scale(0.015625)"/>
      <path id="DejaVuSans-72" d="M 2631 2963 
Q 2534 3019 2420 3045 
Q 2306 3072 2169 3072 
Q 1681 3072 1420 2755 
Q 1159 2438 1159 1844 
L 1159 0 
L 581 0 
L 581 3500 
L 1159 3500 
L 1159 2956 
Q 1341 3275 1631 3429 
Q 1922 3584 2338 3584 
Q 2397 3584 2469 3576 
Q 2541 3569 2628 3553 
L 2631 2963 
z
" transform="scale(0.015625)"/>
      <path id="DejaVuSans-75" d="M 544 1381 
L 544 3500 
L 1119 3500 
L 1119 1403 
Q 1119 906 1312 657 
Q 1506 409 1894 409 
Q 2359 409 2629 706 
Q 2900 1003 2900 1516 
L 2900 3500 
L 3475 3500 
L 3475 0 
L 2900 0 
L 2900 538 
Q 2691 219 2414 64 
Q 2138 -91 1772 -91 
Q 1169 -91 856 284 
Q 544 659 544 1381 
z
M 1991 3584 
L 1991 3584 
z
" transform="scale(0.015625)"/>
      <path id="DejaVuSans-74" d="M 1172 4494 
L 1172 3500 
L 2356 3500 
L 2356 3053 
L 1172 3053 
L 1172 1153 
Q 1172 725 1289 603 
Q 1406 481 1766 481 
L 2356 481 
L 2356 0 
L 1766 0 
Q 1100 0 847 248 
Q 594 497 594 1153 
L 594 3053 
L 172 3053 
L 172 3500 
L 594 3500 
L 594 4494 
L 1172 4494 
z
" transform="scale(0.015625)"/>
      <path id="DejaVuSans-3a" d="M 750 794 
L 1409 794 
L 1409 0 
L 750 0 
L 750 794 
z
M 750 3309 
L 1409 3309 
L 1409 2516 
L 750 2516 
L 750 3309 
z
" transform="scale(0.015625)"/>
      <path id="DejaVuSans-2c" d="M 750 794 
L 1409 794 
L 1409 256 
L 897 -744 
L 494 -744 
L 750 256 
L 750 794 
z
" transform="scale(0.015625)"/>
     </defs>
     <use xlink:href="#DejaVuSans-64"/>
     <use xlink:href="#DejaVuSans-72" x="63.476562"/>
     <use xlink:href="#DejaVuSans-6f" x="102.339844"/>
     <use xlink:href="#DejaVuSans-70" x="163.521484"/>
     <use xlink:href="#DejaVuSans-6f" x="226.998047"/>
     <use xlink:href="#DejaVuSans-75" x="288.179688"/>
     <use xlink:href="#DejaVuSans-74" x="351.558594"/>
     <use xlink:href="#DejaVuSans-31" x="390.767578"/>
     <use xlink:href="#DejaVuSans-3a" x="454.390625"/>
     <use xlink:href="#DejaVuSans-30" x="488.082031"/>
     <use xlink:href="#DejaVuSans-2c" x="551.705078"/>
     <use xlink:href="#DejaVuSans-64" x="583.492188"/>
     <use xlink:href="#DejaVuSans-72" x="646.96875"/>
     <use xlink:href="#DejaVuSans-6f" x="685.832031"/>
     <use xlink:href="#DejaVuSans-70" x="747.013672"/>
     <use xlink:href="#DejaVuSans-6f" x="810.490234"/>
     <use xlink:href="#DejaVuSans-75" x="871.671875"/>
     <use xlink:href="#DejaVuSans-74" x="935.050781"/>
     <use xlink:href="#DejaVuSans-32" x="974.259766"/>
     <use xlink:href="#DejaVuSans-3a" x="1037.882812"/>
     <use xlink:href="#DejaVuSans-30" x="1071.574219"/>
    </g>
   </g>
   <g id="legend_1">
    <g id="patch_7">
     <path d="M 50.78125 269.318125 
L 128.55 269.318125 
Q 130.55 269.318125 130.55 267.318125 
L 130.55 224.28375 
Q 130.55 222.28375 128.55 222.28375 
L 50.78125 222.28375 
Q 48.78125 222.28375 48.78125 224.28375 
L 48.78125 267.318125 
Q 48.78125 269.318125 50.78125 269.318125 
z
" style="fill: #ffffff; opacity: 0.8; stroke: #cccccc; stroke-linejoin: miter"/>
    </g>
    <g id="line2d_26">
     <path d="M 52.78125 230.382187 
L 62.78125 230.382187 
L 72.78125 230.382187 
" style="fill: none; stroke: #1f77b4; stroke-width: 1.5; stroke-linecap: square"/>
    </g>
    <g id="text_15">
     <!-- train loss -->
     <g transform="translate(80.78125 233.882187)scale(0.1 -0.1)">
      <defs>
       <path id="DejaVuSans-61" d="M 2194 1759 
Q 1497 1759 1228 1600 
Q 959 1441 959 1056 
Q 959 750 1161 570 
Q 1363 391 1709 391 
Q 2188 391 2477 730 
Q 2766 1069 2766 1631 
L 2766 1759 
L 2194 1759 
z
M 3341 1997 
L 3341 0 
L 2766 0 
L 2766 531 
Q 2569 213 2275 61 
Q 1981 -91 1556 -91 
Q 1019 -91 701 211 
Q 384 513 384 1019 
Q 384 1609 779 1909 
Q 1175 2209 1959 2209 
L 2766 2209 
L 2766 2266 
Q 2766 2663 2505 2880 
Q 2244 3097 1772 3097 
Q 1472 3097 1187 3025 
Q 903 2953 641 2809 
L 641 3341 
Q 956 3463 1253 3523 
Q 1550 3584 1831 3584 
Q 2591 3584 2966 3190 
Q 3341 2797 3341 1997 
z
" transform="scale(0.015625)"/>
       <path id="DejaVuSans-69" d="M 603 3500 
L 1178 3500 
L 1178 0 
L 603 0 
L 603 3500 
z
M 603 4863 
L 1178 4863 
L 1178 4134 
L 603 4134 
L 603 4863 
z
" transform="scale(0.015625)"/>
       <path id="DejaVuSans-6e" d="M 3513 2113 
L 3513 0 
L 2938 0 
L 2938 2094 
Q 2938 2591 2744 2837 
Q 2550 3084 2163 3084 
Q 1697 3084 1428 2787 
Q 1159 2491 1159 1978 
L 1159 0 
L 581 0 
L 581 3500 
L 1159 3500 
L 1159 2956 
Q 1366 3272 1645 3428 
Q 1925 3584 2291 3584 
Q 2894 3584 3203 3211 
Q 3513 2838 3513 2113 
z
" transform="scale(0.015625)"/>
       <path id="DejaVuSans-20" transform="scale(0.015625)"/>
       <path id="DejaVuSans-6c" d="M 603 4863 
L 1178 4863 
L 1178 0 
L 603 0 
L 603 4863 
z
" transform="scale(0.015625)"/>
       <path id="DejaVuSans-73" d="M 2834 3397 
L 2834 2853 
Q 2591 2978 2328 3040 
Q 2066 3103 1784 3103 
Q 1356 3103 1142 2972 
Q 928 2841 928 2578 
Q 928 2378 1081 2264 
Q 1234 2150 1697 2047 
L 1894 2003 
Q 2506 1872 2764 1633 
Q 3022 1394 3022 966 
Q 3022 478 2636 193 
Q 2250 -91 1575 -91 
Q 1294 -91 989 -36 
Q 684 19 347 128 
L 347 722 
Q 666 556 975 473 
Q 1284 391 1588 391 
Q 1994 391 2212 530 
Q 2431 669 2431 922 
Q 2431 1156 2273 1281 
Q 2116 1406 1581 1522 
L 1381 1569 
Q 847 1681 609 1914 
Q 372 2147 372 2553 
Q 372 3047 722 3315 
Q 1072 3584 1716 3584 
Q 2034 3584 2315 3537 
Q 2597 3491 2834 3397 
z
" transform="scale(0.015625)"/>
      </defs>
      <use xlink:href="#DejaVuSans-74"/>
      <use xlink:href="#DejaVuSans-72" x="39.208984"/>
      <use xlink:href="#DejaVuSans-61" x="80.322266"/>
      <use xlink:href="#DejaVuSans-69" x="141.601562"/>
      <use xlink:href="#DejaVuSans-6e" x="169.384766"/>
      <use xlink:href="#DejaVuSans-20" x="232.763672"/>
      <use xlink:href="#DejaVuSans-6c" x="264.550781"/>
      <use xlink:href="#DejaVuSans-6f" x="292.333984"/>
      <use xlink:href="#DejaVuSans-73" x="353.515625"/>
      <use xlink:href="#DejaVuSans-73" x="405.615234"/>
     </g>
    </g>
    <g id="line2d_27">
     <path d="M 52.78125 245.060312 
L 62.78125 245.060312 
L 72.78125 245.060312 
" style="fill: none; stroke-dasharray: 5.55,2.4; stroke-dashoffset: 0; stroke: #bf00bf; stroke-width: 1.5"/>
    </g>
    <g id="text_16">
     <!-- train acc -->
     <g transform="translate(80.78125 248.560312)scale(0.1 -0.1)">
      <use xlink:href="#DejaVuSans-74"/>
      <use xlink:href="#DejaVuSans-72" x="39.208984"/>
      <use xlink:href="#DejaVuSans-61" x="80.322266"/>
      <use xlink:href="#DejaVuSans-69" x="141.601562"/>
      <use xlink:href="#DejaVuSans-6e" x="169.384766"/>
      <use xlink:href="#DejaVuSans-20" x="232.763672"/>
      <use xlink:href="#DejaVuSans-61" x="264.550781"/>
      <use xlink:href="#DejaVuSans-63" x="325.830078"/>
      <use xlink:href="#DejaVuSans-63" x="380.810547"/>
     </g>
    </g>
    <g id="line2d_28">
     <path d="M 52.78125 259.738437 
L 62.78125 259.738437 
L 72.78125 259.738437 
" style="fill: none; stroke-dasharray: 9.6,2.4,1.5,2.4; stroke-dashoffset: 0; stroke: #008000; stroke-width: 1.5"/>
    </g>
    <g id="text_17">
     <!-- test acc -->
     <g transform="translate(80.78125 263.238437)scale(0.1 -0.1)">
      <use xlink:href="#DejaVuSans-74"/>
      <use xlink:href="#DejaVuSans-65" x="39.208984"/>
      <use xlink:href="#DejaVuSans-73" x="100.732422"/>
      <use xlink:href="#DejaVuSans-74" x="152.832031"/>
      <use xlink:href="#DejaVuSans-20" x="192.041016"/>
      <use xlink:href="#DejaVuSans-61" x="223.828125"/>
      <use xlink:href="#DejaVuSans-63" x="285.107422"/>
      <use xlink:href="#DejaVuSans-63" x="340.087891"/>
     </g>
    </g>
   </g>
  </g>
  <g id="axes_2">
   <g id="patch_8">
    <path d="M 482.209821 274.318125 
L 880.78125 274.318125 
L 880.78125 22.318125 
L 482.209821 22.318125 
z
" style="fill: #ffffff"/>
   </g>
   <g id="matplotlib.axis_3">
    <g id="xtick_6">
     <g id="line2d_29">
      <path d="M 555.416819 274.318125 
L 555.416819 22.318125 
" clip-path="url(#p046dffb2d0)" style="fill: none; stroke: #b0b0b0; stroke-width: 0.8; stroke-linecap: square"/>
     </g>
     <g id="line2d_30">
      <g>
       <use xlink:href="#mbbc455a8d0" x="555.416819" y="274.318125" style="stroke: #000000; stroke-width: 0.8"/>
      </g>
     </g>
     <g id="text_18">
      <!-- 10 -->
      <g transform="translate(549.054319 288.916562)scale(0.1 -0.1)">
       <use xlink:href="#DejaVuSans-31"/>
       <use xlink:href="#DejaVuSans-30" x="63.623047"/>
      </g>
     </g>
    </g>
    <g id="xtick_7">
     <g id="line2d_31">
      <path d="M 636.757926 274.318125 
L 636.757926 22.318125 
" clip-path="url(#p046dffb2d0)" style="fill: none; stroke: #b0b0b0; stroke-width: 0.8; stroke-linecap: square"/>
     </g>
     <g id="line2d_32">
      <g>
       <use xlink:href="#mbbc455a8d0" x="636.757926" y="274.318125" style="stroke: #000000; stroke-width: 0.8"/>
      </g>
     </g>
     <g id="text_19">
      <!-- 20 -->
      <g transform="translate(630.395426 288.916562)scale(0.1 -0.1)">
       <use xlink:href="#DejaVuSans-32"/>
       <use xlink:href="#DejaVuSans-30" x="63.623047"/>
      </g>
     </g>
    </g>
    <g id="xtick_8">
     <g id="line2d_33">
      <path d="M 718.099034 274.318125 
L 718.099034 22.318125 
" clip-path="url(#p046dffb2d0)" style="fill: none; stroke: #b0b0b0; stroke-width: 0.8; stroke-linecap: square"/>
     </g>
     <g id="line2d_34">
      <g>
       <use xlink:href="#mbbc455a8d0" x="718.099034" y="274.318125" style="stroke: #000000; stroke-width: 0.8"/>
      </g>
     </g>
     <g id="text_20">
      <!-- 30 -->
      <g transform="translate(711.736534 288.916562)scale(0.1 -0.1)">
       <use xlink:href="#DejaVuSans-33"/>
       <use xlink:href="#DejaVuSans-30" x="63.623047"/>
      </g>
     </g>
    </g>
    <g id="xtick_9">
     <g id="line2d_35">
      <path d="M 799.440142 274.318125 
L 799.440142 22.318125 
" clip-path="url(#p046dffb2d0)" style="fill: none; stroke: #b0b0b0; stroke-width: 0.8; stroke-linecap: square"/>
     </g>
     <g id="line2d_36">
      <g>
       <use xlink:href="#mbbc455a8d0" x="799.440142" y="274.318125" style="stroke: #000000; stroke-width: 0.8"/>
      </g>
     </g>
     <g id="text_21">
      <!-- 40 -->
      <g transform="translate(793.077642 288.916562)scale(0.1 -0.1)">
       <use xlink:href="#DejaVuSans-34"/>
       <use xlink:href="#DejaVuSans-30" x="63.623047"/>
      </g>
     </g>
    </g>
    <g id="xtick_10">
     <g id="line2d_37">
      <path d="M 880.78125 274.318125 
L 880.78125 22.318125 
" clip-path="url(#p046dffb2d0)" style="fill: none; stroke: #b0b0b0; stroke-width: 0.8; stroke-linecap: square"/>
     </g>
     <g id="line2d_38">
      <g>
       <use xlink:href="#mbbc455a8d0" x="880.78125" y="274.318125" style="stroke: #000000; stroke-width: 0.8"/>
      </g>
     </g>
     <g id="text_22">
      <!-- 50 -->
      <g transform="translate(874.41875 288.916562)scale(0.1 -0.1)">
       <use xlink:href="#DejaVuSans-35"/>
       <use xlink:href="#DejaVuSans-30" x="63.623047"/>
      </g>
     </g>
    </g>
    <g id="text_23">
     <!-- epoch -->
     <g transform="translate(666.267411 302.594687)scale(0.1 -0.1)">
      <use xlink:href="#DejaVuSans-65"/>
      <use xlink:href="#DejaVuSans-70" x="61.523438"/>
      <use xlink:href="#DejaVuSans-6f" x="125"/>
      <use xlink:href="#DejaVuSans-63" x="186.181641"/>
      <use xlink:href="#DejaVuSans-68" x="241.162109"/>
     </g>
    </g>
   </g>
   <g id="matplotlib.axis_4">
    <g id="ytick_7">
     <g id="line2d_39">
      <path d="M 482.209821 274.318125 
L 880.78125 274.318125 
" clip-path="url(#p046dffb2d0)" style="fill: none; stroke: #b0b0b0; stroke-width: 0.8; stroke-linecap: square"/>
     </g>
     <g id="line2d_40">
      <g>
       <use xlink:href="#mcfed404acd" x="482.209821" y="274.318125" style="stroke: #000000; stroke-width: 0.8"/>
      </g>
     </g>
     <g id="text_24">
      <!-- 0.0 -->
      <g transform="translate(459.306696 278.117344)scale(0.1 -0.1)">
       <use xlink:href="#DejaVuSans-30"/>
       <use xlink:href="#DejaVuSans-2e" x="63.623047"/>
       <use xlink:href="#DejaVuSans-30" x="95.410156"/>
      </g>
     </g>
    </g>
    <g id="ytick_8">
     <g id="line2d_41">
      <path d="M 482.209821 223.918125 
L 880.78125 223.918125 
" clip-path="url(#p046dffb2d0)" style="fill: none; stroke: #b0b0b0; stroke-width: 0.8; stroke-linecap: square"/>
     </g>
     <g id="line2d_42">
      <g>
       <use xlink:href="#mcfed404acd" x="482.209821" y="223.918125" style="stroke: #000000; stroke-width: 0.8"/>
      </g>
     </g>
     <g id="text_25">
      <!-- 0.2 -->
      <g transform="translate(459.306696 227.717344)scale(0.1 -0.1)">
       <use xlink:href="#DejaVuSans-30"/>
       <use xlink:href="#DejaVuSans-2e" x="63.623047"/>
       <use xlink:href="#DejaVuSans-32" x="95.410156"/>
      </g>
     </g>
    </g>
    <g id="ytick_9">
     <g id="line2d_43">
      <path d="M 482.209821 173.518125 
L 880.78125 173.518125 
" clip-path="url(#p046dffb2d0)" style="fill: none; stroke: #b0b0b0; stroke-width: 0.8; stroke-linecap: square"/>
     </g>
     <g id="line2d_44">
      <g>
       <use xlink:href="#mcfed404acd" x="482.209821" y="173.518125" style="stroke: #000000; stroke-width: 0.8"/>
      </g>
     </g>
     <g id="text_26">
      <!-- 0.4 -->
      <g transform="translate(459.306696 177.317344)scale(0.1 -0.1)">
       <use xlink:href="#DejaVuSans-30"/>
       <use xlink:href="#DejaVuSans-2e" x="63.623047"/>
       <use xlink:href="#DejaVuSans-34" x="95.410156"/>
      </g>
     </g>
    </g>
    <g id="ytick_10">
     <g id="line2d_45">
      <path d="M 482.209821 123.118125 
L 880.78125 123.118125 
" clip-path="url(#p046dffb2d0)" style="fill: none; stroke: #b0b0b0; stroke-width: 0.8; stroke-linecap: square"/>
     </g>
     <g id="line2d_46">
      <g>
       <use xlink:href="#mcfed404acd" x="482.209821" y="123.118125" style="stroke: #000000; stroke-width: 0.8"/>
      </g>
     </g>
     <g id="text_27">
      <!-- 0.6 -->
      <g transform="translate(459.306696 126.917344)scale(0.1 -0.1)">
       <use xlink:href="#DejaVuSans-30"/>
       <use xlink:href="#DejaVuSans-2e" x="63.623047"/>
       <use xlink:href="#DejaVuSans-36" x="95.410156"/>
      </g>
     </g>
    </g>
    <g id="ytick_11">
     <g id="line2d_47">
      <path d="M 482.209821 72.718125 
L 880.78125 72.718125 
" clip-path="url(#p046dffb2d0)" style="fill: none; stroke: #b0b0b0; stroke-width: 0.8; stroke-linecap: square"/>
     </g>
     <g id="line2d_48">
      <g>
       <use xlink:href="#mcfed404acd" x="482.209821" y="72.718125" style="stroke: #000000; stroke-width: 0.8"/>
      </g>
     </g>
     <g id="text_28">
      <!-- 0.8 -->
      <g transform="translate(459.306696 76.517344)scale(0.1 -0.1)">
       <use xlink:href="#DejaVuSans-30"/>
       <use xlink:href="#DejaVuSans-2e" x="63.623047"/>
       <use xlink:href="#DejaVuSans-38" x="95.410156"/>
      </g>
     </g>
    </g>
    <g id="ytick_12">
     <g id="line2d_49">
      <path d="M 482.209821 22.318125 
L 880.78125 22.318125 
" clip-path="url(#p046dffb2d0)" style="fill: none; stroke: #b0b0b0; stroke-width: 0.8; stroke-linecap: square"/>
     </g>
     <g id="line2d_50">
      <g>
       <use xlink:href="#mcfed404acd" x="482.209821" y="22.318125" style="stroke: #000000; stroke-width: 0.8"/>
      </g>
     </g>
     <g id="text_29">
      <!-- 1.0 -->
      <g transform="translate(459.306696 26.117344)scale(0.1 -0.1)">
       <use xlink:href="#DejaVuSans-31"/>
       <use xlink:href="#DejaVuSans-2e" x="63.623047"/>
       <use xlink:href="#DejaVuSans-30" x="95.410156"/>
      </g>
     </g>
    </g>
    <g id="text_30">
     <!-- Y -->
     <g transform="translate(453.227009 151.372031)rotate(-90)scale(0.1 -0.1)">
      <use xlink:href="#DejaVuSans-59"/>
     </g>
    </g>
   </g>
   <g id="line2d_51">
    <path d="M 482.739624 -1 
L 490.343932 128.679094 
L 498.478043 153.811029 
L 506.612154 165.861848 
L 514.746265 173.004442 
L 522.880375 176.920762 
L 531.014486 182.630217 
L 539.148597 187.101847 
L 547.282708 189.500658 
L 555.416819 192.200702 
L 563.550929 194.683662 
L 571.68504 196.632781 
L 579.819151 199.02558 
L 587.953262 201.02943 
L 596.087372 202.577804 
L 604.221483 204.336278 
L 612.355594 204.959582 
L 620.489705 206.235554 
L 628.623816 208.219166 
L 636.757926 208.937143 
L 644.892037 210.885473 
L 653.026148 211.771875 
L 661.160259 213.10799 
L 669.29437 212.510895 
L 677.42848 215.288647 
L 685.562591 215.90174 
L 693.696702 216.353567 
L 701.830813 218.688477 
L 709.964923 218.367998 
L 718.099034 219.799463 
L 726.233145 220.302906 
L 734.367256 221.560852 
L 742.501367 221.279267 
L 750.635477 222.521044 
L 758.769588 223.023988 
L 766.903699 224.612649 
L 775.03781 225.052474 
L 783.171921 221.010134 
L 791.306031 224.79813 
L 799.440142 225.283872 
L 807.574253 226.478916 
L 815.708364 226.600401 
L 823.842474 228.333826 
L 831.976585 229.108679 
" clip-path="url(#p046dffb2d0)" style="fill: none; stroke: #1f77b4; stroke-width: 1.5; stroke-linecap: square"/>
   </g>
   <g id="line2d_52">
    <path d="M 482.209821 132.425325 
L 490.343932 76.044525 
L 498.478043 66.254325 
L 506.612154 62.083725 
L 514.746265 59.517525 
L 522.880375 57.862725 
L 531.014486 56.056725 
L 539.148597 54.103725 
L 547.282708 53.553525 
L 555.416819 52.671525 
L 563.550929 51.751725 
L 571.68504 51.277125 
L 579.819151 50.105325 
L 587.953262 49.773525 
L 596.087372 49.244325 
L 604.221483 48.458925 
L 612.355594 48.383325 
L 620.489705 47.686125 
L 628.623816 47.387925 
L 636.757926 46.938525 
L 644.892037 46.346325 
L 653.026148 46.132125 
L 661.160259 45.346725 
L 669.29437 45.556725 
L 677.42848 44.548725 
L 685.562591 44.687325 
L 693.696702 44.317725 
L 701.830813 43.284525 
L 709.964923 43.721325 
L 718.099034 43.066125 
L 726.233145 42.730125 
L 734.367256 42.578925 
L 742.501367 42.385725 
L 750.635477 41.990925 
L 758.769588 41.852325 
L 766.903699 41.163525 
L 775.03781 41.285325 
L 783.171921 42.616725 
L 791.306031 41.335725 
L 799.440142 41.356725 
L 807.574253 40.806525 
L 815.708364 40.684725 
L 823.842474 40.159725 
L 831.976585 39.928725 
L 840.110696 171.161925 
L 848.244807 249.118125 
L 856.378918 249.118125 
L 864.513028 249.118125 
L 872.647139 249.118125 
L 880.78125 249.118125 
" clip-path="url(#p046dffb2d0)" style="fill: none; stroke-dasharray: 5.55,2.4; stroke-dashoffset: 0; stroke: #bf00bf; stroke-width: 1.5"/>
   </g>
   <g id="line2d_53">
    <path d="M 482.209821 88.871325 
L 490.343932 69.694125 
L 498.478043 69.089325 
L 506.612154 66.140925 
L 514.746265 66.266925 
L 522.880375 65.939325 
L 531.014486 58.076925 
L 539.148597 56.438925 
L 547.282708 57.648525 
L 555.416819 56.413725 
L 563.550929 55.178925 
L 571.68504 53.314125 
L 579.819151 54.851325 
L 587.953262 59.866125 
L 596.087372 58.303725 
L 604.221483 56.665725 
L 612.355594 59.462925 
L 620.489705 55.078125 
L 628.623816 52.583325 
L 636.757926 61.604925 
L 644.892037 53.666925 
L 653.026148 56.892525 
L 661.160259 57.950925 
L 669.29437 55.279725 
L 677.42848 57.295725 
L 685.562591 54.700125 
L 693.696702 53.641725 
L 701.830813 52.558125 
L 709.964923 52.406925 
L 718.099034 49.584525 
L 726.233145 52.986525 
L 734.367256 52.255725 
L 742.501367 51.323325 
L 750.635477 55.456125 
L 758.769588 52.558125 
L 766.903699 52.558125 
L 775.03781 51.449325 
L 783.171921 56.766525 
L 791.306031 52.633725 
L 799.440142 51.827325 
L 807.574253 55.708125 
L 815.708364 51.676125 
L 823.842474 54.246525 
L 831.976585 50.693325 
L 840.110696 249.118125 
L 848.244807 249.118125 
L 856.378918 249.118125 
L 864.513028 249.118125 
L 872.647139 249.118125 
L 880.78125 249.118125 
" clip-path="url(#p046dffb2d0)" style="fill: none; stroke-dasharray: 9.6,2.4,1.5,2.4; stroke-dashoffset: 0; stroke: #008000; stroke-width: 1.5"/>
   </g>
   <g id="patch_9">
    <path d="M 482.209821 274.318125 
L 482.209821 22.318125 
" style="fill: none; stroke: #000000; stroke-width: 0.8; stroke-linejoin: miter; stroke-linecap: square"/>
   </g>
   <g id="patch_10">
    <path d="M 880.78125 274.318125 
L 880.78125 22.318125 
" style="fill: none; stroke: #000000; stroke-width: 0.8; stroke-linejoin: miter; stroke-linecap: square"/>
   </g>
   <g id="patch_11">
    <path d="M 482.209821 274.318125 
L 880.78125 274.318125 
" style="fill: none; stroke: #000000; stroke-width: 0.8; stroke-linejoin: miter; stroke-linecap: square"/>
   </g>
   <g id="patch_12">
    <path d="M 482.209821 22.318125 
L 880.78125 22.318125 
" style="fill: none; stroke: #000000; stroke-width: 0.8; stroke-linejoin: miter; stroke-linecap: square"/>
   </g>
   <g id="text_31">
    <!-- dropout1:0,dropout2:0.5 -->
    <g transform="translate(607.658036 16.318125)scale(0.12 -0.12)">
     <use xlink:href="#DejaVuSans-64"/>
     <use xlink:href="#DejaVuSans-72" x="63.476562"/>
     <use xlink:href="#DejaVuSans-6f" x="102.339844"/>
     <use xlink:href="#DejaVuSans-70" x="163.521484"/>
     <use xlink:href="#DejaVuSans-6f" x="226.998047"/>
     <use xlink:href="#DejaVuSans-75" x="288.179688"/>
     <use xlink:href="#DejaVuSans-74" x="351.558594"/>
     <use xlink:href="#DejaVuSans-31" x="390.767578"/>
     <use xlink:href="#DejaVuSans-3a" x="454.390625"/>
     <use xlink:href="#DejaVuSans-30" x="488.082031"/>
     <use xlink:href="#DejaVuSans-2c" x="551.705078"/>
     <use xlink:href="#DejaVuSans-64" x="583.492188"/>
     <use xlink:href="#DejaVuSans-72" x="646.96875"/>
     <use xlink:href="#DejaVuSans-6f" x="685.832031"/>
     <use xlink:href="#DejaVuSans-70" x="747.013672"/>
     <use xlink:href="#DejaVuSans-6f" x="810.490234"/>
     <use xlink:href="#DejaVuSans-75" x="871.671875"/>
     <use xlink:href="#DejaVuSans-74" x="935.050781"/>
     <use xlink:href="#DejaVuSans-32" x="974.259766"/>
     <use xlink:href="#DejaVuSans-3a" x="1037.882812"/>
     <use xlink:href="#DejaVuSans-30" x="1071.574219"/>
     <use xlink:href="#DejaVuSans-2e" x="1135.197266"/>
     <use xlink:href="#DejaVuSans-35" x="1166.984375"/>
    </g>
   </g>
   <g id="legend_2">
    <g id="patch_13">
     <path d="M 489.209821 269.318125 
L 566.978571 269.318125 
Q 568.978571 269.318125 568.978571 267.318125 
L 568.978571 224.28375 
Q 568.978571 222.28375 566.978571 222.28375 
L 489.209821 222.28375 
Q 487.209821 222.28375 487.209821 224.28375 
L 487.209821 267.318125 
Q 487.209821 269.318125 489.209821 269.318125 
z
" style="fill: #ffffff; opacity: 0.8; stroke: #cccccc; stroke-linejoin: miter"/>
    </g>
    <g id="line2d_54">
     <path d="M 491.209821 230.382187 
L 501.209821 230.382187 
L 511.209821 230.382187 
" style="fill: none; stroke: #1f77b4; stroke-width: 1.5; stroke-linecap: square"/>
    </g>
    <g id="text_32">
     <!-- train loss -->
     <g transform="translate(519.209821 233.882187)scale(0.1 -0.1)">
      <use xlink:href="#DejaVuSans-74"/>
      <use xlink:href="#DejaVuSans-72" x="39.208984"/>
      <use xlink:href="#DejaVuSans-61" x="80.322266"/>
      <use xlink:href="#DejaVuSans-69" x="141.601562"/>
      <use xlink:href="#DejaVuSans-6e" x="169.384766"/>
      <use xlink:href="#DejaVuSans-20" x="232.763672"/>
      <use xlink:href="#DejaVuSans-6c" x="264.550781"/>
      <use xlink:href="#DejaVuSans-6f" x="292.333984"/>
      <use xlink:href="#DejaVuSans-73" x="353.515625"/>
      <use xlink:href="#DejaVuSans-73" x="405.615234"/>
     </g>
    </g>
    <g id="line2d_55">
     <path d="M 491.209821 245.060312 
L 501.209821 245.060312 
L 511.209821 245.060312 
" style="fill: none; stroke-dasharray: 5.55,2.4; stroke-dashoffset: 0; stroke: #bf00bf; stroke-width: 1.5"/>
    </g>
    <g id="text_33">
     <!-- train acc -->
     <g transform="translate(519.209821 248.560312)scale(0.1 -0.1)">
      <use xlink:href="#DejaVuSans-74"/>
      <use xlink:href="#DejaVuSans-72" x="39.208984"/>
      <use xlink:href="#DejaVuSans-61" x="80.322266"/>
      <use xlink:href="#DejaVuSans-69" x="141.601562"/>
      <use xlink:href="#DejaVuSans-6e" x="169.384766"/>
      <use xlink:href="#DejaVuSans-20" x="232.763672"/>
      <use xlink:href="#DejaVuSans-61" x="264.550781"/>
      <use xlink:href="#DejaVuSans-63" x="325.830078"/>
      <use xlink:href="#DejaVuSans-63" x="380.810547"/>
     </g>
    </g>
    <g id="line2d_56">
     <path d="M 491.209821 259.738437 
L 501.209821 259.738437 
L 511.209821 259.738437 
" style="fill: none; stroke-dasharray: 9.6,2.4,1.5,2.4; stroke-dashoffset: 0; stroke: #008000; stroke-width: 1.5"/>
    </g>
    <g id="text_34">
     <!-- test acc -->
     <g transform="translate(519.209821 263.238437)scale(0.1 -0.1)">
      <use xlink:href="#DejaVuSans-74"/>
      <use xlink:href="#DejaVuSans-65" x="39.208984"/>
      <use xlink:href="#DejaVuSans-73" x="100.732422"/>
      <use xlink:href="#DejaVuSans-74" x="152.832031"/>
      <use xlink:href="#DejaVuSans-20" x="192.041016"/>
      <use xlink:href="#DejaVuSans-61" x="223.828125"/>
      <use xlink:href="#DejaVuSans-63" x="285.107422"/>
      <use xlink:href="#DejaVuSans-63" x="340.087891"/>
     </g>
    </g>
   </g>
  </g>
  <g id="axes_3">
   <g id="patch_14">
    <path d="M 43.78125 576.718125 
L 442.352679 576.718125 
L 442.352679 324.718125 
L 43.78125 324.718125 
z
" style="fill: #ffffff"/>
   </g>
   <g id="matplotlib.axis_5">
    <g id="xtick_11">
     <g id="line2d_57">
      <path d="M 116.988247 576.718125 
L 116.988247 324.718125 
" clip-path="url(#p57b65054d2)" style="fill: none; stroke: #b0b0b0; stroke-width: 0.8; stroke-linecap: square"/>
     </g>
     <g id="line2d_58">
      <g>
       <use xlink:href="#mbbc455a8d0" x="116.988247" y="576.718125" style="stroke: #000000; stroke-width: 0.8"/>
      </g>
     </g>
     <g id="text_35">
      <!-- 10 -->
      <g transform="translate(110.625747 591.316562)scale(0.1 -0.1)">
       <use xlink:href="#DejaVuSans-31"/>
       <use xlink:href="#DejaVuSans-30" x="63.623047"/>
      </g>
     </g>
    </g>
    <g id="xtick_12">
     <g id="line2d_59">
      <path d="M 198.329355 576.718125 
L 198.329355 324.718125 
" clip-path="url(#p57b65054d2)" style="fill: none; stroke: #b0b0b0; stroke-width: 0.8; stroke-linecap: square"/>
     </g>
     <g id="line2d_60">
      <g>
       <use xlink:href="#mbbc455a8d0" x="198.329355" y="576.718125" style="stroke: #000000; stroke-width: 0.8"/>
      </g>
     </g>
     <g id="text_36">
      <!-- 20 -->
      <g transform="translate(191.966855 591.316562)scale(0.1 -0.1)">
       <use xlink:href="#DejaVuSans-32"/>
       <use xlink:href="#DejaVuSans-30" x="63.623047"/>
      </g>
     </g>
    </g>
    <g id="xtick_13">
     <g id="line2d_61">
      <path d="M 279.670463 576.718125 
L 279.670463 324.718125 
" clip-path="url(#p57b65054d2)" style="fill: none; stroke: #b0b0b0; stroke-width: 0.8; stroke-linecap: square"/>
     </g>
     <g id="line2d_62">
      <g>
       <use xlink:href="#mbbc455a8d0" x="279.670463" y="576.718125" style="stroke: #000000; stroke-width: 0.8"/>
      </g>
     </g>
     <g id="text_37">
      <!-- 30 -->
      <g transform="translate(273.307963 591.316562)scale(0.1 -0.1)">
       <use xlink:href="#DejaVuSans-33"/>
       <use xlink:href="#DejaVuSans-30" x="63.623047"/>
      </g>
     </g>
    </g>
    <g id="xtick_14">
     <g id="line2d_63">
      <path d="M 361.011571 576.718125 
L 361.011571 324.718125 
" clip-path="url(#p57b65054d2)" style="fill: none; stroke: #b0b0b0; stroke-width: 0.8; stroke-linecap: square"/>
     </g>
     <g id="line2d_64">
      <g>
       <use xlink:href="#mbbc455a8d0" x="361.011571" y="576.718125" style="stroke: #000000; stroke-width: 0.8"/>
      </g>
     </g>
     <g id="text_38">
      <!-- 40 -->
      <g transform="translate(354.649071 591.316562)scale(0.1 -0.1)">
       <use xlink:href="#DejaVuSans-34"/>
       <use xlink:href="#DejaVuSans-30" x="63.623047"/>
      </g>
     </g>
    </g>
    <g id="xtick_15">
     <g id="line2d_65">
      <path d="M 442.352679 576.718125 
L 442.352679 324.718125 
" clip-path="url(#p57b65054d2)" style="fill: none; stroke: #b0b0b0; stroke-width: 0.8; stroke-linecap: square"/>
     </g>
     <g id="line2d_66">
      <g>
       <use xlink:href="#mbbc455a8d0" x="442.352679" y="576.718125" style="stroke: #000000; stroke-width: 0.8"/>
      </g>
     </g>
     <g id="text_39">
      <!-- 50 -->
      <g transform="translate(435.990179 591.316562)scale(0.1 -0.1)">
       <use xlink:href="#DejaVuSans-35"/>
       <use xlink:href="#DejaVuSans-30" x="63.623047"/>
      </g>
     </g>
    </g>
    <g id="text_40">
     <!-- epoch -->
     <g transform="translate(227.838839 604.994687)scale(0.1 -0.1)">
      <use xlink:href="#DejaVuSans-65"/>
      <use xlink:href="#DejaVuSans-70" x="61.523438"/>
      <use xlink:href="#DejaVuSans-6f" x="125"/>
      <use xlink:href="#DejaVuSans-63" x="186.181641"/>
      <use xlink:href="#DejaVuSans-68" x="241.162109"/>
     </g>
    </g>
   </g>
   <g id="matplotlib.axis_6">
    <g id="ytick_13">
     <g id="line2d_67">
      <path d="M 43.78125 576.718125 
L 442.352679 576.718125 
" clip-path="url(#p57b65054d2)" style="fill: none; stroke: #b0b0b0; stroke-width: 0.8; stroke-linecap: square"/>
     </g>
     <g id="line2d_68">
      <g>
       <use xlink:href="#mcfed404acd" x="43.78125" y="576.718125" style="stroke: #000000; stroke-width: 0.8"/>
      </g>
     </g>
     <g id="text_41">
      <!-- 0.0 -->
      <g transform="translate(20.878125 580.517344)scale(0.1 -0.1)">
       <use xlink:href="#DejaVuSans-30"/>
       <use xlink:href="#DejaVuSans-2e" x="63.623047"/>
       <use xlink:href="#DejaVuSans-30" x="95.410156"/>
      </g>
     </g>
    </g>
    <g id="ytick_14">
     <g id="line2d_69">
      <path d="M 43.78125 526.318125 
L 442.352679 526.318125 
" clip-path="url(#p57b65054d2)" style="fill: none; stroke: #b0b0b0; stroke-width: 0.8; stroke-linecap: square"/>
     </g>
     <g id="line2d_70">
      <g>
       <use xlink:href="#mcfed404acd" x="43.78125" y="526.318125" style="stroke: #000000; stroke-width: 0.8"/>
      </g>
     </g>
     <g id="text_42">
      <!-- 0.2 -->
      <g transform="translate(20.878125 530.117344)scale(0.1 -0.1)">
       <use xlink:href="#DejaVuSans-30"/>
       <use xlink:href="#DejaVuSans-2e" x="63.623047"/>
       <use xlink:href="#DejaVuSans-32" x="95.410156"/>
      </g>
     </g>
    </g>
    <g id="ytick_15">
     <g id="line2d_71">
      <path d="M 43.78125 475.918125 
L 442.352679 475.918125 
" clip-path="url(#p57b65054d2)" style="fill: none; stroke: #b0b0b0; stroke-width: 0.8; stroke-linecap: square"/>
     </g>
     <g id="line2d_72">
      <g>
       <use xlink:href="#mcfed404acd" x="43.78125" y="475.918125" style="stroke: #000000; stroke-width: 0.8"/>
      </g>
     </g>
     <g id="text_43">
      <!-- 0.4 -->
      <g transform="translate(20.878125 479.717344)scale(0.1 -0.1)">
       <use xlink:href="#DejaVuSans-30"/>
       <use xlink:href="#DejaVuSans-2e" x="63.623047"/>
       <use xlink:href="#DejaVuSans-34" x="95.410156"/>
      </g>
     </g>
    </g>
    <g id="ytick_16">
     <g id="line2d_73">
      <path d="M 43.78125 425.518125 
L 442.352679 425.518125 
" clip-path="url(#p57b65054d2)" style="fill: none; stroke: #b0b0b0; stroke-width: 0.8; stroke-linecap: square"/>
     </g>
     <g id="line2d_74">
      <g>
       <use xlink:href="#mcfed404acd" x="43.78125" y="425.518125" style="stroke: #000000; stroke-width: 0.8"/>
      </g>
     </g>
     <g id="text_44">
      <!-- 0.6 -->
      <g transform="translate(20.878125 429.317344)scale(0.1 -0.1)">
       <use xlink:href="#DejaVuSans-30"/>
       <use xlink:href="#DejaVuSans-2e" x="63.623047"/>
       <use xlink:href="#DejaVuSans-36" x="95.410156"/>
      </g>
     </g>
    </g>
    <g id="ytick_17">
     <g id="line2d_75">
      <path d="M 43.78125 375.118125 
L 442.352679 375.118125 
" clip-path="url(#p57b65054d2)" style="fill: none; stroke: #b0b0b0; stroke-width: 0.8; stroke-linecap: square"/>
     </g>
     <g id="line2d_76">
      <g>
       <use xlink:href="#mcfed404acd" x="43.78125" y="375.118125" style="stroke: #000000; stroke-width: 0.8"/>
      </g>
     </g>
     <g id="text_45">
      <!-- 0.8 -->
      <g transform="translate(20.878125 378.917344)scale(0.1 -0.1)">
       <use xlink:href="#DejaVuSans-30"/>
       <use xlink:href="#DejaVuSans-2e" x="63.623047"/>
       <use xlink:href="#DejaVuSans-38" x="95.410156"/>
      </g>
     </g>
    </g>
    <g id="ytick_18">
     <g id="line2d_77">
      <path d="M 43.78125 324.718125 
L 442.352679 324.718125 
" clip-path="url(#p57b65054d2)" style="fill: none; stroke: #b0b0b0; stroke-width: 0.8; stroke-linecap: square"/>
     </g>
     <g id="line2d_78">
      <g>
       <use xlink:href="#mcfed404acd" x="43.78125" y="324.718125" style="stroke: #000000; stroke-width: 0.8"/>
      </g>
     </g>
     <g id="text_46">
      <!-- 1.0 -->
      <g transform="translate(20.878125 328.517344)scale(0.1 -0.1)">
       <use xlink:href="#DejaVuSans-31"/>
       <use xlink:href="#DejaVuSans-2e" x="63.623047"/>
       <use xlink:href="#DejaVuSans-30" x="95.410156"/>
      </g>
     </g>
    </g>
    <g id="text_47">
     <!-- Y -->
     <g transform="translate(14.798438 453.772031)rotate(-90)scale(0.1 -0.1)">
      <use xlink:href="#DejaVuSans-59"/>
     </g>
    </g>
   </g>
   <g id="line2d_79">
    <path d="M 43.78125 285.265919 
L 51.915361 435.254753 
L 60.049472 457.692028 
L 68.183582 470.110792 
L 76.317693 477.315461 
L 84.451804 483.985938 
L 92.585915 486.397318 
L 100.720026 490.301563 
L 108.854136 492.774622 
L 116.988247 496.171968 
L 125.122358 498.277674 
L 133.256469 500.044232 
L 141.390579 502.124533 
L 149.52469 503.364145 
L 157.658801 504.529932 
L 165.792912 503.185973 
L 173.927023 506.66228 
L 182.061133 507.908957 
L 190.195244 509.059194 
L 198.329355 510.206183 
L 206.463466 511.409744 
L 214.597577 512.946038 
L 222.731687 513.826271 
L 230.865798 514.35032 
L 238.999909 515.588709 
L 247.13402 516.181788 
L 255.26813 517.29105 
L 263.402241 517.723671 
L 271.536352 518.780146 
L 279.670463 519.180776 
L 287.804574 520.274298 
L 295.938684 520.864542 
L 304.072795 521.734679 
L 312.206906 521.669395 
L 320.341017 523.142012 
L 328.475128 522.503816 
L 336.609238 523.664397 
L 344.743349 523.845154 
L 352.87746 525.331822 
L 361.011571 525.328416 
L 369.145681 525.464744 
L 377.279792 526.807104 
L 385.413903 527.051199 
L 393.548014 527.066192 
L 401.682125 528.453596 
L 409.816235 528.799504 
L 417.950346 528.595008 
L 426.084457 529.18267 
L 434.218568 529.57957 
L 442.352679 531.074482 
" clip-path="url(#p57b65054d2)" style="fill: none; stroke: #1f77b4; stroke-width: 1.5; stroke-linecap: square"/>
   </g>
   <g id="line2d_80">
    <path d="M 43.78125 437.353725 
L 51.915361 378.192525 
L 60.049472 368.801325 
L 68.183582 364.067925 
L 76.317693 361.921725 
L 84.451804 359.363925 
L 92.585915 358.187925 
L 100.720026 357.087525 
L 108.854136 355.831725 
L 116.988247 354.823725 
L 125.122358 354.323925 
L 133.256469 353.286525 
L 141.390579 352.732125 
L 149.52469 352.442325 
L 157.658801 352.018125 
L 165.792912 352.127325 
L 173.927023 351.241125 
L 182.061133 350.871525 
L 190.195244 350.464125 
L 198.329355 349.691325 
L 206.463466 349.292325 
L 214.597577 349.040325 
L 222.731687 348.448125 
L 230.865798 348.259125 
L 238.999909 347.960925 
L 247.13402 347.755125 
L 255.26813 347.423325 
L 263.402241 347.318325 
L 271.536352 346.545525 
L 279.670463 346.532925 
L 287.804574 346.272525 
L 295.938684 346.020525 
L 304.072795 345.457725 
L 312.206906 345.814725 
L 320.341017 345.184725 
L 328.475128 345.579525 
L 336.609238 344.857125 
L 344.743349 344.785725 
L 352.87746 344.096925 
L 361.011571 344.218725 
L 369.145681 344.386725 
L 377.279792 343.769325 
L 385.413903 343.832325 
L 393.548014 343.819725 
L 401.682125 343.080525 
L 409.816235 343.135125 
L 417.950346 343.290525 
L 426.084457 343.000725 
L 434.218568 342.765525 
L 442.352679 342.362325 
" clip-path="url(#p57b65054d2)" style="fill: none; stroke-dasharray: 5.55,2.4; stroke-dashoffset: 0; stroke: #bf00bf; stroke-width: 1.5"/>
   </g>
   <g id="line2d_81">
    <path d="M 43.78125 386.886525 
L 51.915361 378.041325 
L 60.049472 365.113725 
L 68.183582 369.599325 
L 76.317693 360.779325 
L 84.451804 363.324525 
L 92.585915 359.216925 
L 100.720026 366.726525 
L 108.854136 365.239725 
L 116.988247 357.780525 
L 125.122358 362.140125 
L 133.256469 363.500925 
L 141.390579 360.527325 
L 149.52469 364.962525 
L 157.658801 368.414925 
L 165.792912 359.065725 
L 173.927023 358.990125 
L 182.061133 360.250125 
L 190.195244 355.462125 
L 198.329355 358.007325 
L 206.463466 355.084125 
L 214.597577 358.788525 
L 222.731687 355.462125 
L 230.865798 357.175725 
L 238.999909 359.267325 
L 247.13402 354.832125 
L 255.26813 354.428925 
L 263.402241 356.243325 
L 271.536352 356.444925 
L 279.670463 357.200925 
L 287.804574 352.564125 
L 295.938684 355.537725 
L 304.072795 353.244525 
L 312.206906 352.816125 
L 320.341017 355.084125 
L 328.475128 352.715325 
L 336.609238 355.058925 
L 344.743349 353.798925 
L 352.87746 355.159725 
L 361.011571 353.748525 
L 369.145681 355.991325 
L 377.279792 353.395725 
L 385.413903 356.974125 
L 393.548014 355.512525 
L 401.682125 354.227325 
L 409.816235 353.420925 
L 417.950346 358.939725 
L 426.084457 354.403725 
L 434.218568 354.605325 
L 442.352679 358.990125 
" clip-path="url(#p57b65054d2)" style="fill: none; stroke-dasharray: 9.6,2.4,1.5,2.4; stroke-dashoffset: 0; stroke: #008000; stroke-width: 1.5"/>
   </g>
   <g id="patch_15">
    <path d="M 43.78125 576.718125 
L 43.78125 324.718125 
" style="fill: none; stroke: #000000; stroke-width: 0.8; stroke-linejoin: miter; stroke-linecap: square"/>
   </g>
   <g id="patch_16">
    <path d="M 442.352679 576.718125 
L 442.352679 324.718125 
" style="fill: none; stroke: #000000; stroke-width: 0.8; stroke-linejoin: miter; stroke-linecap: square"/>
   </g>
   <g id="patch_17">
    <path d="M 43.78125 576.718125 
L 442.352679 576.718125 
" style="fill: none; stroke: #000000; stroke-width: 0.8; stroke-linejoin: miter; stroke-linecap: square"/>
   </g>
   <g id="patch_18">
    <path d="M 43.78125 324.718125 
L 442.352679 324.718125 
" style="fill: none; stroke: #000000; stroke-width: 0.8; stroke-linejoin: miter; stroke-linecap: square"/>
   </g>
   <g id="text_48">
    <!-- dropout1:0.2,dropout2:0 -->
    <g transform="translate(169.229464 318.718125)scale(0.12 -0.12)">
     <use xlink:href="#DejaVuSans-64"/>
     <use xlink:href="#DejaVuSans-72" x="63.476562"/>
     <use xlink:href="#DejaVuSans-6f" x="102.339844"/>
     <use xlink:href="#DejaVuSans-70" x="163.521484"/>
     <use xlink:href="#DejaVuSans-6f" x="226.998047"/>
     <use xlink:href="#DejaVuSans-75" x="288.179688"/>
     <use xlink:href="#DejaVuSans-74" x="351.558594"/>
     <use xlink:href="#DejaVuSans-31" x="390.767578"/>
     <use xlink:href="#DejaVuSans-3a" x="454.390625"/>
     <use xlink:href="#DejaVuSans-30" x="488.082031"/>
     <use xlink:href="#DejaVuSans-2e" x="551.705078"/>
     <use xlink:href="#DejaVuSans-32" x="583.492188"/>
     <use xlink:href="#DejaVuSans-2c" x="647.115234"/>
     <use xlink:href="#DejaVuSans-64" x="678.902344"/>
     <use xlink:href="#DejaVuSans-72" x="742.378906"/>
     <use xlink:href="#DejaVuSans-6f" x="781.242188"/>
     <use xlink:href="#DejaVuSans-70" x="842.423828"/>
     <use xlink:href="#DejaVuSans-6f" x="905.900391"/>
     <use xlink:href="#DejaVuSans-75" x="967.082031"/>
     <use xlink:href="#DejaVuSans-74" x="1030.460938"/>
     <use xlink:href="#DejaVuSans-32" x="1069.669922"/>
     <use xlink:href="#DejaVuSans-3a" x="1133.292969"/>
     <use xlink:href="#DejaVuSans-30" x="1166.984375"/>
    </g>
   </g>
  </g>
  <g id="axes_4">
   <g id="patch_19">
    <path d="M 482.209821 576.718125 
L 880.78125 576.718125 
L 880.78125 324.718125 
L 482.209821 324.718125 
z
" style="fill: #ffffff"/>
   </g>
   <g id="matplotlib.axis_7">
    <g id="xtick_16">
     <g id="line2d_82">
      <path d="M 555.416819 576.718125 
L 555.416819 324.718125 
" clip-path="url(#p687e3c7bc9)" style="fill: none; stroke: #b0b0b0; stroke-width: 0.8; stroke-linecap: square"/>
     </g>
     <g id="line2d_83">
      <g>
       <use xlink:href="#mbbc455a8d0" x="555.416819" y="576.718125" style="stroke: #000000; stroke-width: 0.8"/>
      </g>
     </g>
     <g id="text_49">
      <!-- 10 -->
      <g transform="translate(549.054319 591.316562)scale(0.1 -0.1)">
       <use xlink:href="#DejaVuSans-31"/>
       <use xlink:href="#DejaVuSans-30" x="63.623047"/>
      </g>
     </g>
    </g>
    <g id="xtick_17">
     <g id="line2d_84">
      <path d="M 636.757926 576.718125 
L 636.757926 324.718125 
" clip-path="url(#p687e3c7bc9)" style="fill: none; stroke: #b0b0b0; stroke-width: 0.8; stroke-linecap: square"/>
     </g>
     <g id="line2d_85">
      <g>
       <use xlink:href="#mbbc455a8d0" x="636.757926" y="576.718125" style="stroke: #000000; stroke-width: 0.8"/>
      </g>
     </g>
     <g id="text_50">
      <!-- 20 -->
      <g transform="translate(630.395426 591.316562)scale(0.1 -0.1)">
       <use xlink:href="#DejaVuSans-32"/>
       <use xlink:href="#DejaVuSans-30" x="63.623047"/>
      </g>
     </g>
    </g>
    <g id="xtick_18">
     <g id="line2d_86">
      <path d="M 718.099034 576.718125 
L 718.099034 324.718125 
" clip-path="url(#p687e3c7bc9)" style="fill: none; stroke: #b0b0b0; stroke-width: 0.8; stroke-linecap: square"/>
     </g>
     <g id="line2d_87">
      <g>
       <use xlink:href="#mbbc455a8d0" x="718.099034" y="576.718125" style="stroke: #000000; stroke-width: 0.8"/>
      </g>
     </g>
     <g id="text_51">
      <!-- 30 -->
      <g transform="translate(711.736534 591.316562)scale(0.1 -0.1)">
       <use xlink:href="#DejaVuSans-33"/>
       <use xlink:href="#DejaVuSans-30" x="63.623047"/>
      </g>
     </g>
    </g>
    <g id="xtick_19">
     <g id="line2d_88">
      <path d="M 799.440142 576.718125 
L 799.440142 324.718125 
" clip-path="url(#p687e3c7bc9)" style="fill: none; stroke: #b0b0b0; stroke-width: 0.8; stroke-linecap: square"/>
     </g>
     <g id="line2d_89">
      <g>
       <use xlink:href="#mbbc455a8d0" x="799.440142" y="576.718125" style="stroke: #000000; stroke-width: 0.8"/>
      </g>
     </g>
     <g id="text_52">
      <!-- 40 -->
      <g transform="translate(793.077642 591.316562)scale(0.1 -0.1)">
       <use xlink:href="#DejaVuSans-34"/>
       <use xlink:href="#DejaVuSans-30" x="63.623047"/>
      </g>
     </g>
    </g>
    <g id="xtick_20">
     <g id="line2d_90">
      <path d="M 880.78125 576.718125 
L 880.78125 324.718125 
" clip-path="url(#p687e3c7bc9)" style="fill: none; stroke: #b0b0b0; stroke-width: 0.8; stroke-linecap: square"/>
     </g>
     <g id="line2d_91">
      <g>
       <use xlink:href="#mbbc455a8d0" x="880.78125" y="576.718125" style="stroke: #000000; stroke-width: 0.8"/>
      </g>
     </g>
     <g id="text_53">
      <!-- 50 -->
      <g transform="translate(874.41875 591.316562)scale(0.1 -0.1)">
       <use xlink:href="#DejaVuSans-35"/>
       <use xlink:href="#DejaVuSans-30" x="63.623047"/>
      </g>
     </g>
    </g>
    <g id="text_54">
     <!-- epoch -->
     <g transform="translate(666.267411 604.994687)scale(0.1 -0.1)">
      <use xlink:href="#DejaVuSans-65"/>
      <use xlink:href="#DejaVuSans-70" x="61.523438"/>
      <use xlink:href="#DejaVuSans-6f" x="125"/>
      <use xlink:href="#DejaVuSans-63" x="186.181641"/>
      <use xlink:href="#DejaVuSans-68" x="241.162109"/>
     </g>
    </g>
   </g>
   <g id="matplotlib.axis_8">
    <g id="ytick_19">
     <g id="line2d_92">
      <path d="M 482.209821 576.718125 
L 880.78125 576.718125 
" clip-path="url(#p687e3c7bc9)" style="fill: none; stroke: #b0b0b0; stroke-width: 0.8; stroke-linecap: square"/>
     </g>
     <g id="line2d_93">
      <g>
       <use xlink:href="#mcfed404acd" x="482.209821" y="576.718125" style="stroke: #000000; stroke-width: 0.8"/>
      </g>
     </g>
     <g id="text_55">
      <!-- 0.0 -->
      <g transform="translate(459.306696 580.517344)scale(0.1 -0.1)">
       <use xlink:href="#DejaVuSans-30"/>
       <use xlink:href="#DejaVuSans-2e" x="63.623047"/>
       <use xlink:href="#DejaVuSans-30" x="95.410156"/>
      </g>
     </g>
    </g>
    <g id="ytick_20">
     <g id="line2d_94">
      <path d="M 482.209821 526.318125 
L 880.78125 526.318125 
" clip-path="url(#p687e3c7bc9)" style="fill: none; stroke: #b0b0b0; stroke-width: 0.8; stroke-linecap: square"/>
     </g>
     <g id="line2d_95">
      <g>
       <use xlink:href="#mcfed404acd" x="482.209821" y="526.318125" style="stroke: #000000; stroke-width: 0.8"/>
      </g>
     </g>
     <g id="text_56">
      <!-- 0.2 -->
      <g transform="translate(459.306696 530.117344)scale(0.1 -0.1)">
       <use xlink:href="#DejaVuSans-30"/>
       <use xlink:href="#DejaVuSans-2e" x="63.623047"/>
       <use xlink:href="#DejaVuSans-32" x="95.410156"/>
      </g>
     </g>
    </g>
    <g id="ytick_21">
     <g id="line2d_96">
      <path d="M 482.209821 475.918125 
L 880.78125 475.918125 
" clip-path="url(#p687e3c7bc9)" style="fill: none; stroke: #b0b0b0; stroke-width: 0.8; stroke-linecap: square"/>
     </g>
     <g id="line2d_97">
      <g>
       <use xlink:href="#mcfed404acd" x="482.209821" y="475.918125" style="stroke: #000000; stroke-width: 0.8"/>
      </g>
     </g>
     <g id="text_57">
      <!-- 0.4 -->
      <g transform="translate(459.306696 479.717344)scale(0.1 -0.1)">
       <use xlink:href="#DejaVuSans-30"/>
       <use xlink:href="#DejaVuSans-2e" x="63.623047"/>
       <use xlink:href="#DejaVuSans-34" x="95.410156"/>
      </g>
     </g>
    </g>
    <g id="ytick_22">
     <g id="line2d_98">
      <path d="M 482.209821 425.518125 
L 880.78125 425.518125 
" clip-path="url(#p687e3c7bc9)" style="fill: none; stroke: #b0b0b0; stroke-width: 0.8; stroke-linecap: square"/>
     </g>
     <g id="line2d_99">
      <g>
       <use xlink:href="#mcfed404acd" x="482.209821" y="425.518125" style="stroke: #000000; stroke-width: 0.8"/>
      </g>
     </g>
     <g id="text_58">
      <!-- 0.6 -->
      <g transform="translate(459.306696 429.317344)scale(0.1 -0.1)">
       <use xlink:href="#DejaVuSans-30"/>
       <use xlink:href="#DejaVuSans-2e" x="63.623047"/>
       <use xlink:href="#DejaVuSans-36" x="95.410156"/>
      </g>
     </g>
    </g>
    <g id="ytick_23">
     <g id="line2d_100">
      <path d="M 482.209821 375.118125 
L 880.78125 375.118125 
" clip-path="url(#p687e3c7bc9)" style="fill: none; stroke: #b0b0b0; stroke-width: 0.8; stroke-linecap: square"/>
     </g>
     <g id="line2d_101">
      <g>
       <use xlink:href="#mcfed404acd" x="482.209821" y="375.118125" style="stroke: #000000; stroke-width: 0.8"/>
      </g>
     </g>
     <g id="text_59">
      <!-- 0.8 -->
      <g transform="translate(459.306696 378.917344)scale(0.1 -0.1)">
       <use xlink:href="#DejaVuSans-30"/>
       <use xlink:href="#DejaVuSans-2e" x="63.623047"/>
       <use xlink:href="#DejaVuSans-38" x="95.410156"/>
      </g>
     </g>
    </g>
    <g id="ytick_24">
     <g id="line2d_102">
      <path d="M 482.209821 324.718125 
L 880.78125 324.718125 
" clip-path="url(#p687e3c7bc9)" style="fill: none; stroke: #b0b0b0; stroke-width: 0.8; stroke-linecap: square"/>
     </g>
     <g id="line2d_103">
      <g>
       <use xlink:href="#mcfed404acd" x="482.209821" y="324.718125" style="stroke: #000000; stroke-width: 0.8"/>
      </g>
     </g>
     <g id="text_60">
      <!-- 1.0 -->
      <g transform="translate(459.306696 328.517344)scale(0.1 -0.1)">
       <use xlink:href="#DejaVuSans-31"/>
       <use xlink:href="#DejaVuSans-2e" x="63.623047"/>
       <use xlink:href="#DejaVuSans-30" x="95.410156"/>
      </g>
     </g>
    </g>
    <g id="text_61">
     <!-- Y -->
     <g transform="translate(453.227009 453.772031)rotate(-90)scale(0.1 -0.1)">
      <use xlink:href="#DejaVuSans-59"/>
     </g>
    </g>
   </g>
   <g id="line2d_104">
    <path d="M 482.209821 297.544041 
L 490.343932 431.132379 
L 498.478043 454.170037 
L 506.612154 466.121255 
L 514.746265 472.371905 
L 522.880375 478.316714 
L 531.014486 481.809702 
L 539.148597 485.59046 
L 547.282708 488.789978 
L 555.416819 491.246215 
L 563.550929 493.141163 
L 571.68504 495.354277 
L 579.819151 496.954303 
L 587.953262 498.816627 
L 596.087372 499.485903 
L 604.221483 501.466501 
L 612.355594 502.469651 
L 620.489705 503.494492 
L 628.623816 505.199649 
L 636.757926 505.103922 
L 644.892037 507.3215 
L 653.026148 507.765033 
L 661.160259 509.021774 
L 669.29437 510.016992 
L 677.42848 511.105255 
L 685.562591 511.90182 
L 693.696702 512.889326 
L 701.830813 513.159965 
L 709.964923 513.6955 
L 718.099034 513.891106 
L 726.233145 515.053688 
L 734.367256 515.8775 
L 742.501367 515.771204 
L 750.635477 517.301944 
L 758.769588 516.743328 
L 766.903699 518.13742 
L 775.03781 518.381168 
L 783.171921 518.467053 
L 791.306031 519.584934 
L 799.440142 519.315735 
L 807.574253 520.210776 
L 815.708364 521.718217 
L 823.842474 521.089347 
L 831.976585 521.51107 
L 840.110696 521.964929 
L 848.244807 522.987021 
L 856.378918 523.643966 
L 864.513028 523.725339 
L 872.647139 524.203022 
L 880.78125 524.938522 
" clip-path="url(#p687e3c7bc9)" style="fill: none; stroke: #1f77b4; stroke-width: 1.5; stroke-linecap: square"/>
   </g>
   <g id="line2d_105">
    <path d="M 482.209821 433.212525 
L 490.343932 378.133725 
L 498.478043 369.460725 
L 506.612154 364.777725 
L 514.746265 362.849925 
L 522.880375 360.191325 
L 531.014486 359.431125 
L 539.148597 358.124925 
L 547.282708 356.885925 
L 555.416819 355.873725 
L 563.550929 355.655325 
L 571.68504 354.974925 
L 579.819151 354.084525 
L 587.953262 353.677125 
L 596.087372 353.126925 
L 604.221483 352.585125 
L 612.355594 352.379325 
L 620.489705 352.055925 
L 628.623816 351.333525 
L 636.757926 351.598125 
L 644.892037 350.800125 
L 653.026148 350.443125 
L 661.160259 350.039925 
L 669.29437 349.968525 
L 677.42848 349.132725 
L 685.562591 348.842925 
L 693.696702 348.376725 
L 701.830813 348.771525 
L 709.964923 348.456525 
L 718.099034 348.502725 
L 726.233145 348.212925 
L 734.367256 347.725725 
L 742.501367 347.994525 
L 750.635477 347.078925 
L 758.769588 347.448525 
L 766.903699 346.772325 
L 775.03781 346.931925 
L 783.171921 346.889925 
L 791.306031 346.335525 
L 799.440142 346.579125 
L 807.574253 345.970125 
L 815.708364 345.529125 
L 823.842474 345.865125 
L 831.976585 345.739125 
L 840.110696 345.592125 
L 848.244807 345.050325 
L 856.378918 344.962125 
L 864.513028 344.655525 
L 872.647139 344.705925 
L 880.78125 344.151525 
" clip-path="url(#p687e3c7bc9)" style="fill: none; stroke-dasharray: 5.55,2.4; stroke-dashoffset: 0; stroke: #bf00bf; stroke-width: 1.5"/>
   </g>
   <g id="line2d_106">
    <path d="M 482.209821 401.074125 
L 490.343932 377.864925 
L 498.478043 373.328925 
L 506.612154 371.010525 
L 514.746265 364.357725 
L 522.880375 372.547725 
L 531.014486 360.728925 
L 539.148597 363.047325 
L 547.282708 359.065725 
L 555.416819 357.931725 
L 563.550929 361.207725 
L 571.68504 363.727725 
L 579.819151 358.007325 
L 587.953262 359.317725 
L 596.087372 356.243325 
L 604.221483 357.125325 
L 612.355594 358.410525 
L 620.489705 358.435725 
L 628.623816 354.580125 
L 636.757926 356.394525 
L 644.892037 359.141325 
L 653.026148 354.076125 
L 661.160259 359.494125 
L 669.29437 353.471325 
L 677.42848 359.544525 
L 685.562591 359.872125 
L 693.696702 354.076125 
L 701.830813 356.646525 
L 709.964923 357.528525 
L 718.099034 355.008525 
L 726.233145 354.630525 
L 734.367256 354.227325 
L 742.501367 361.787325 
L 750.635477 369.800925 
L 758.769588 352.916925 
L 766.903699 353.849325 
L 775.03781 357.326925 
L 783.171921 353.395725 
L 791.306031 357.906525 
L 799.440142 354.680925 
L 807.574253 351.984525 
L 815.708364 354.277725 
L 823.842474 359.418525 
L 831.976585 356.495325 
L 840.110696 353.950125 
L 848.244807 354.630525 
L 856.378918 356.394525 
L 864.513028 352.740525 
L 872.647139 354.958125 
L 880.78125 353.647725 
" clip-path="url(#p687e3c7bc9)" style="fill: none; stroke-dasharray: 9.6,2.4,1.5,2.4; stroke-dashoffset: 0; stroke: #008000; stroke-width: 1.5"/>
   </g>
   <g id="patch_20">
    <path d="M 482.209821 576.718125 
L 482.209821 324.718125 
" style="fill: none; stroke: #000000; stroke-width: 0.8; stroke-linejoin: miter; stroke-linecap: square"/>
   </g>
   <g id="patch_21">
    <path d="M 880.78125 576.718125 
L 880.78125 324.718125 
" style="fill: none; stroke: #000000; stroke-width: 0.8; stroke-linejoin: miter; stroke-linecap: square"/>
   </g>
   <g id="patch_22">
    <path d="M 482.209821 576.718125 
L 880.78125 576.718125 
" style="fill: none; stroke: #000000; stroke-width: 0.8; stroke-linejoin: miter; stroke-linecap: square"/>
   </g>
   <g id="patch_23">
    <path d="M 482.209821 324.718125 
L 880.78125 324.718125 
" style="fill: none; stroke: #000000; stroke-width: 0.8; stroke-linejoin: miter; stroke-linecap: square"/>
   </g>
   <g id="text_62">
    <!-- dropout1:0.2,dropout2:0.5 -->
    <g transform="translate(601.933661 318.718125)scale(0.12 -0.12)">
     <use xlink:href="#DejaVuSans-64"/>
     <use xlink:href="#DejaVuSans-72" x="63.476562"/>
     <use xlink:href="#DejaVuSans-6f" x="102.339844"/>
     <use xlink:href="#DejaVuSans-70" x="163.521484"/>
     <use xlink:href="#DejaVuSans-6f" x="226.998047"/>
     <use xlink:href="#DejaVuSans-75" x="288.179688"/>
     <use xlink:href="#DejaVuSans-74" x="351.558594"/>
     <use xlink:href="#DejaVuSans-31" x="390.767578"/>
     <use xlink:href="#DejaVuSans-3a" x="454.390625"/>
     <use xlink:href="#DejaVuSans-30" x="488.082031"/>
     <use xlink:href="#DejaVuSans-2e" x="551.705078"/>
     <use xlink:href="#DejaVuSans-32" x="583.492188"/>
     <use xlink:href="#DejaVuSans-2c" x="647.115234"/>
     <use xlink:href="#DejaVuSans-64" x="678.902344"/>
     <use xlink:href="#DejaVuSans-72" x="742.378906"/>
     <use xlink:href="#DejaVuSans-6f" x="781.242188"/>
     <use xlink:href="#DejaVuSans-70" x="842.423828"/>
     <use xlink:href="#DejaVuSans-6f" x="905.900391"/>
     <use xlink:href="#DejaVuSans-75" x="967.082031"/>
     <use xlink:href="#DejaVuSans-74" x="1030.460938"/>
     <use xlink:href="#DejaVuSans-32" x="1069.669922"/>
     <use xlink:href="#DejaVuSans-3a" x="1133.292969"/>
     <use xlink:href="#DejaVuSans-30" x="1166.984375"/>
     <use xlink:href="#DejaVuSans-2e" x="1230.607422"/>
     <use xlink:href="#DejaVuSans-35" x="1262.394531"/>
    </g>
   </g>
  </g>
 </g>
 <defs>
  <clipPath id="p147e213037">
   <rect x="43.78125" y="22.318125" width="398.571429" height="252"/>
  </clipPath>
  <clipPath id="p046dffb2d0">
   <rect x="482.209821" y="22.318125" width="398.571429" height="252"/>
  </clipPath>
  <clipPath id="p57b65054d2">
   <rect x="43.78125" y="324.718125" width="398.571429" height="252"/>
  </clipPath>
  <clipPath id="p687e3c7bc9">
   <rect x="482.209821" y="324.718125" width="398.571429" height="252"/>
  </clipPath>
 </defs>
</svg>
