<?xml version="1.0" encoding="utf-8" standalone="no"?>
<!DOCTYPE svg PUBLIC "-//W3C//DTD SVG 1.1//EN"
  "http://www.w3.org/Graphics/SVG/1.1/DTD/svg11.dtd">
<svg xmlns:xlink="http://www.w3.org/1999/xlink" width="240.6625pt" height="183.35625pt" viewBox="0 0 240.6625 183.35625" xmlns="http://www.w3.org/2000/svg" version="1.1">
 <metadata>
  <rdf:RDF xmlns:dc="http://purl.org/dc/elements/1.1/" xmlns:cc="http://creativecommons.org/ns#" xmlns:rdf="http://www.w3.org/1999/02/22-rdf-syntax-ns#">
   <cc:Work>
    <dc:type rdf:resource="http://purl.org/dc/dcmitype/StillImage"/>
    <dc:date>2023-10-01T03:47:35.892194</dc:date>
    <dc:format>image/svg+xml</dc:format>
    <dc:creator>
     <cc:Agent>
      <dc:title>Matplotlib v3.7.1, https://matplotlib.org/</dc:title>
     </cc:Agent>
    </dc:creator>
   </cc:Work>
  </rdf:RDF>
 </metadata>
 <defs>
  <style type="text/css">*{stroke-linejoin: round; stroke-linecap: butt}</style>
 </defs>
 <g id="figure_1">
  <g id="patch_1">
   <path d="M 0 183.35625 
L 240.6625 183.35625 
L 240.6625 0 
L 0 0 
z
" style="fill: #ffffff"/>
  </g>
  <g id="axes_1">
   <g id="patch_2">
    <path d="M 31.8 145.8 
L 227.1 145.8 
L 227.1 7.2 
L 31.8 7.2 
z
" style="fill: #ffffff"/>
   </g>
   <g id="matplotlib.axis_1">
    <g id="xtick_1">
     <g id="line2d_1">
      <defs>
       <path id="m240834339c" d="M 0 0 
L 0 3.5 
" style="stroke: #000000; stroke-width: 0.8"/>
      </defs>
      <g>
       <use xlink:href="#m240834339c" x="31.8" y="145.8" style="stroke: #000000; stroke-width: 0.8"/>
      </g>
     </g>
     <g id="text_1">
      <!-- 0 -->
      <g transform="translate(28.61875 160.398438) scale(0.1 -0.1)">
       <defs>
        <path id="DejaVuSans-30" d="M 2034 4250 
Q 1547 4250 1301 3770 
Q 1056 3291 1056 2328 
Q 1056 1369 1301 889 
Q 1547 409 2034 409 
Q 2525 409 2770 889 
Q 3016 1369 3016 2328 
Q 3016 3291 2770 3770 
Q 2525 4250 2034 4250 
z
M 2034 4750 
Q 2819 4750 3233 4129 
Q 3647 3509 3647 2328 
Q 3647 1150 3233 529 
Q 2819 -91 2034 -91 
Q 1250 -91 836 529 
Q 422 1150 422 2328 
Q 422 3509 836 4129 
Q 1250 4750 2034 4750 
z
" transform="scale(0.015625)"/>
       </defs>
       <use xlink:href="#DejaVuSans-30"/>
      </g>
     </g>
    </g>
    <g id="xtick_2">
     <g id="line2d_2">
      <g>
       <use xlink:href="#m240834339c" x="70.86" y="145.8" style="stroke: #000000; stroke-width: 0.8"/>
      </g>
     </g>
     <g id="text_2">
      <!-- 2 -->
      <g transform="translate(67.67875 160.398438) scale(0.1 -0.1)">
       <defs>
        <path id="DejaVuSans-32" d="M 1228 531 
L 3431 531 
L 3431 0 
L 469 0 
L 469 531 
Q 828 903 1448 1529 
Q 2069 2156 2228 2338 
Q 2531 2678 2651 2914 
Q 2772 3150 2772 3378 
Q 2772 3750 2511 3984 
Q 2250 4219 1831 4219 
Q 1534 4219 1204 4116 
Q 875 4013 500 3803 
L 500 4441 
Q 881 4594 1212 4672 
Q 1544 4750 1819 4750 
Q 2544 4750 2975 4387 
Q 3406 4025 3406 3419 
Q 3406 3131 3298 2873 
Q 3191 2616 2906 2266 
Q 2828 2175 2409 1742 
Q 1991 1309 1228 531 
z
" transform="scale(0.015625)"/>
       </defs>
       <use xlink:href="#DejaVuSans-32"/>
      </g>
     </g>
    </g>
    <g id="xtick_3">
     <g id="line2d_3">
      <g>
       <use xlink:href="#m240834339c" x="109.92" y="145.8" style="stroke: #000000; stroke-width: 0.8"/>
      </g>
     </g>
     <g id="text_3">
      <!-- 4 -->
      <g transform="translate(106.73875 160.398438) scale(0.1 -0.1)">
       <defs>
        <path id="DejaVuSans-34" d="M 2419 4116 
L 825 1625 
L 2419 1625 
L 2419 4116 
z
M 2253 4666 
L 3047 4666 
L 3047 1625 
L 3713 1625 
L 3713 1100 
L 3047 1100 
L 3047 0 
L 2419 0 
L 2419 1100 
L 313 1100 
L 313 1709 
L 2253 4666 
z
" transform="scale(0.015625)"/>
       </defs>
       <use xlink:href="#DejaVuSans-34"/>
      </g>
     </g>
    </g>
    <g id="xtick_4">
     <g id="line2d_4">
      <g>
       <use xlink:href="#m240834339c" x="148.98" y="145.8" style="stroke: #000000; stroke-width: 0.8"/>
      </g>
     </g>
     <g id="text_4">
      <!-- 6 -->
      <g transform="translate(145.79875 160.398438) scale(0.1 -0.1)">
       <defs>
        <path id="DejaVuSans-36" d="M 2113 2584 
Q 1688 2584 1439 2293 
Q 1191 2003 1191 1497 
Q 1191 994 1439 701 
Q 1688 409 2113 409 
Q 2538 409 2786 701 
Q 3034 994 3034 1497 
Q 3034 2003 2786 2293 
Q 2538 2584 2113 2584 
z
M 3366 4563 
L 3366 3988 
Q 3128 4100 2886 4159 
Q 2644 4219 2406 4219 
Q 1781 4219 1451 3797 
Q 1122 3375 1075 2522 
Q 1259 2794 1537 2939 
Q 1816 3084 2150 3084 
Q 2853 3084 3261 2657 
Q 3669 2231 3669 1497 
Q 3669 778 3244 343 
Q 2819 -91 2113 -91 
Q 1303 -91 875 529 
Q 447 1150 447 2328 
Q 447 3434 972 4092 
Q 1497 4750 2381 4750 
Q 2619 4750 2861 4703 
Q 3103 4656 3366 4563 
z
" transform="scale(0.015625)"/>
       </defs>
       <use xlink:href="#DejaVuSans-36"/>
      </g>
     </g>
    </g>
    <g id="xtick_5">
     <g id="line2d_5">
      <g>
       <use xlink:href="#m240834339c" x="188.04" y="145.8" style="stroke: #000000; stroke-width: 0.8"/>
      </g>
     </g>
     <g id="text_5">
      <!-- 8 -->
      <g transform="translate(184.85875 160.398438) scale(0.1 -0.1)">
       <defs>
        <path id="DejaVuSans-38" d="M 2034 2216 
Q 1584 2216 1326 1975 
Q 1069 1734 1069 1313 
Q 1069 891 1326 650 
Q 1584 409 2034 409 
Q 2484 409 2743 651 
Q 3003 894 3003 1313 
Q 3003 1734 2745 1975 
Q 2488 2216 2034 2216 
z
M 1403 2484 
Q 997 2584 770 2862 
Q 544 3141 544 3541 
Q 544 4100 942 4425 
Q 1341 4750 2034 4750 
Q 2731 4750 3128 4425 
Q 3525 4100 3525 3541 
Q 3525 3141 3298 2862 
Q 3072 2584 2669 2484 
Q 3125 2378 3379 2068 
Q 3634 1759 3634 1313 
Q 3634 634 3220 271 
Q 2806 -91 2034 -91 
Q 1263 -91 848 271 
Q 434 634 434 1313 
Q 434 1759 690 2068 
Q 947 2378 1403 2484 
z
M 1172 3481 
Q 1172 3119 1398 2916 
Q 1625 2713 2034 2713 
Q 2441 2713 2670 2916 
Q 2900 3119 2900 3481 
Q 2900 3844 2670 4047 
Q 2441 4250 2034 4250 
Q 1625 4250 1398 4047 
Q 1172 3844 1172 3481 
z
" transform="scale(0.015625)"/>
       </defs>
       <use xlink:href="#DejaVuSans-38"/>
      </g>
     </g>
    </g>
    <g id="xtick_6">
     <g id="line2d_6">
      <g>
       <use xlink:href="#m240834339c" x="227.1" y="145.8" style="stroke: #000000; stroke-width: 0.8"/>
      </g>
     </g>
     <g id="text_6">
      <!-- 10 -->
      <g transform="translate(220.7375 160.398438) scale(0.1 -0.1)">
       <defs>
        <path id="DejaVuSans-31" d="M 794 531 
L 1825 531 
L 1825 4091 
L 703 3866 
L 703 4441 
L 1819 4666 
L 2450 4666 
L 2450 531 
L 3481 531 
L 3481 0 
L 794 0 
L 794 531 
z
" transform="scale(0.015625)"/>
       </defs>
       <use xlink:href="#DejaVuSans-31"/>
       <use xlink:href="#DejaVuSans-30" x="63.623047"/>
      </g>
     </g>
    </g>
    <g id="text_7">
     <!-- epoch -->
     <g transform="translate(114.221875 174.076563) scale(0.1 -0.1)">
      <defs>
       <path id="DejaVuSans-65" d="M 3597 1894 
L 3597 1613 
L 953 1613 
Q 991 1019 1311 708 
Q 1631 397 2203 397 
Q 2534 397 2845 478 
Q 3156 559 3463 722 
L 3463 178 
Q 3153 47 2828 -22 
Q 2503 -91 2169 -91 
Q 1331 -91 842 396 
Q 353 884 353 1716 
Q 353 2575 817 3079 
Q 1281 3584 2069 3584 
Q 2775 3584 3186 3129 
Q 3597 2675 3597 1894 
z
M 3022 2063 
Q 3016 2534 2758 2815 
Q 2500 3097 2075 3097 
Q 1594 3097 1305 2825 
Q 1016 2553 972 2059 
L 3022 2063 
z
" transform="scale(0.015625)"/>
       <path id="DejaVuSans-70" d="M 1159 525 
L 1159 -1331 
L 581 -1331 
L 581 3500 
L 1159 3500 
L 1159 2969 
Q 1341 3281 1617 3432 
Q 1894 3584 2278 3584 
Q 2916 3584 3314 3078 
Q 3713 2572 3713 1747 
Q 3713 922 3314 415 
Q 2916 -91 2278 -91 
Q 1894 -91 1617 61 
Q 1341 213 1159 525 
z
M 3116 1747 
Q 3116 2381 2855 2742 
Q 2594 3103 2138 3103 
Q 1681 3103 1420 2742 
Q 1159 2381 1159 1747 
Q 1159 1113 1420 752 
Q 1681 391 2138 391 
Q 2594 391 2855 752 
Q 3116 1113 3116 1747 
z
" transform="scale(0.015625)"/>
       <path id="DejaVuSans-6f" d="M 1959 3097 
Q 1497 3097 1228 2736 
Q 959 2375 959 1747 
Q 959 1119 1226 758 
Q 1494 397 1959 397 
Q 2419 397 2687 759 
Q 2956 1122 2956 1747 
Q 2956 2369 2687 2733 
Q 2419 3097 1959 3097 
z
M 1959 3584 
Q 2709 3584 3137 3096 
Q 3566 2609 3566 1747 
Q 3566 888 3137 398 
Q 2709 -91 1959 -91 
Q 1206 -91 779 398 
Q 353 888 353 1747 
Q 353 2609 779 3096 
Q 1206 3584 1959 3584 
z
" transform="scale(0.015625)"/>
       <path id="DejaVuSans-63" d="M 3122 3366 
L 3122 2828 
Q 2878 2963 2633 3030 
Q 2388 3097 2138 3097 
Q 1578 3097 1268 2742 
Q 959 2388 959 1747 
Q 959 1106 1268 751 
Q 1578 397 2138 397 
Q 2388 397 2633 464 
Q 2878 531 3122 666 
L 3122 134 
Q 2881 22 2623 -34 
Q 2366 -91 2075 -91 
Q 1284 -91 818 406 
Q 353 903 353 1747 
Q 353 2603 823 3093 
Q 1294 3584 2113 3584 
Q 2378 3584 2631 3529 
Q 2884 3475 3122 3366 
z
" transform="scale(0.015625)"/>
       <path id="DejaVuSans-68" d="M 3513 2113 
L 3513 0 
L 2938 0 
L 2938 2094 
Q 2938 2591 2744 2837 
Q 2550 3084 2163 3084 
Q 1697 3084 1428 2787 
Q 1159 2491 1159 1978 
L 1159 0 
L 581 0 
L 581 4863 
L 1159 4863 
L 1159 2956 
Q 1366 3272 1645 3428 
Q 1925 3584 2291 3584 
Q 2894 3584 3203 3211 
Q 3513 2838 3513 2113 
z
" transform="scale(0.015625)"/>
      </defs>
      <use xlink:href="#DejaVuSans-65"/>
      <use xlink:href="#DejaVuSans-70" x="61.523438"/>
      <use xlink:href="#DejaVuSans-6f" x="125"/>
      <use xlink:href="#DejaVuSans-63" x="186.181641"/>
      <use xlink:href="#DejaVuSans-68" x="241.162109"/>
     </g>
    </g>
   </g>
   <g id="matplotlib.axis_2">
    <g id="ytick_1">
     <g id="line2d_7">
      <defs>
       <path id="m359bebfabf" d="M 0 0 
L -3.5 0 
" style="stroke: #000000; stroke-width: 0.8"/>
      </defs>
      <g>
       <use xlink:href="#m359bebfabf" x="31.8" y="97.669289" style="stroke: #000000; stroke-width: 0.8"/>
      </g>
     </g>
     <g id="text_8">
      <!-- $\mathdefault{10^{0}}$ -->
      <g transform="translate(7.2 101.468508) scale(0.1 -0.1)">
       <use xlink:href="#DejaVuSans-31" transform="translate(0 0.765625)"/>
       <use xlink:href="#DejaVuSans-30" transform="translate(63.623047 0.765625)"/>
       <use xlink:href="#DejaVuSans-30" transform="translate(128.203125 39.046875) scale(0.7)"/>
      </g>
     </g>
    </g>
    <g id="ytick_2">
     <g id="line2d_8">
      <g>
       <use xlink:href="#m359bebfabf" x="31.8" y="40.827895" style="stroke: #000000; stroke-width: 0.8"/>
      </g>
     </g>
     <g id="text_9">
      <!-- $\mathdefault{10^{1}}$ -->
      <g transform="translate(7.2 44.627114) scale(0.1 -0.1)">
       <use xlink:href="#DejaVuSans-31" transform="translate(0 0.684375)"/>
       <use xlink:href="#DejaVuSans-30" transform="translate(63.623047 0.684375)"/>
       <use xlink:href="#DejaVuSans-31" transform="translate(128.203125 38.965625) scale(0.7)"/>
      </g>
     </g>
    </g>
    <g id="ytick_3">
     <g id="line2d_9">
      <defs>
       <path id="m04ff135340" d="M 0 0 
L -2 0 
" style="stroke: #000000; stroke-width: 0.6"/>
      </defs>
      <g>
       <use xlink:href="#m04ff135340" x="31.8" y="137.399718" style="stroke: #000000; stroke-width: 0.6"/>
      </g>
     </g>
    </g>
    <g id="ytick_4">
     <g id="line2d_10">
      <g>
       <use xlink:href="#m04ff135340" x="31.8" y="127.390445" style="stroke: #000000; stroke-width: 0.6"/>
      </g>
     </g>
    </g>
    <g id="ytick_5">
     <g id="line2d_11">
      <g>
       <use xlink:href="#m04ff135340" x="31.8" y="120.288753" style="stroke: #000000; stroke-width: 0.6"/>
      </g>
     </g>
    </g>
    <g id="ytick_6">
     <g id="line2d_12">
      <g>
       <use xlink:href="#m04ff135340" x="31.8" y="114.780253" style="stroke: #000000; stroke-width: 0.6"/>
      </g>
     </g>
    </g>
    <g id="ytick_7">
     <g id="line2d_13">
      <g>
       <use xlink:href="#m04ff135340" x="31.8" y="110.279481" style="stroke: #000000; stroke-width: 0.6"/>
      </g>
     </g>
    </g>
    <g id="ytick_8">
     <g id="line2d_14">
      <g>
       <use xlink:href="#m04ff135340" x="31.8" y="106.474132" style="stroke: #000000; stroke-width: 0.6"/>
      </g>
     </g>
    </g>
    <g id="ytick_9">
     <g id="line2d_15">
      <g>
       <use xlink:href="#m04ff135340" x="31.8" y="103.177789" style="stroke: #000000; stroke-width: 0.6"/>
      </g>
     </g>
    </g>
    <g id="ytick_10">
     <g id="line2d_16">
      <g>
       <use xlink:href="#m04ff135340" x="31.8" y="100.270208" style="stroke: #000000; stroke-width: 0.6"/>
      </g>
     </g>
    </g>
    <g id="ytick_11">
     <g id="line2d_17">
      <g>
       <use xlink:href="#m04ff135340" x="31.8" y="80.558324" style="stroke: #000000; stroke-width: 0.6"/>
      </g>
     </g>
    </g>
    <g id="ytick_12">
     <g id="line2d_18">
      <g>
       <use xlink:href="#m04ff135340" x="31.8" y="70.549052" style="stroke: #000000; stroke-width: 0.6"/>
      </g>
     </g>
    </g>
    <g id="ytick_13">
     <g id="line2d_19">
      <g>
       <use xlink:href="#m04ff135340" x="31.8" y="63.44736" style="stroke: #000000; stroke-width: 0.6"/>
      </g>
     </g>
    </g>
    <g id="ytick_14">
     <g id="line2d_20">
      <g>
       <use xlink:href="#m04ff135340" x="31.8" y="57.93886" style="stroke: #000000; stroke-width: 0.6"/>
      </g>
     </g>
    </g>
    <g id="ytick_15">
     <g id="line2d_21">
      <g>
       <use xlink:href="#m04ff135340" x="31.8" y="53.438087" style="stroke: #000000; stroke-width: 0.6"/>
      </g>
     </g>
    </g>
    <g id="ytick_16">
     <g id="line2d_22">
      <g>
       <use xlink:href="#m04ff135340" x="31.8" y="49.632739" style="stroke: #000000; stroke-width: 0.6"/>
      </g>
     </g>
    </g>
    <g id="ytick_17">
     <g id="line2d_23">
      <g>
       <use xlink:href="#m04ff135340" x="31.8" y="46.336396" style="stroke: #000000; stroke-width: 0.6"/>
      </g>
     </g>
    </g>
    <g id="ytick_18">
     <g id="line2d_24">
      <g>
       <use xlink:href="#m04ff135340" x="31.8" y="43.428815" style="stroke: #000000; stroke-width: 0.6"/>
      </g>
     </g>
    </g>
    <g id="ytick_19">
     <g id="line2d_25">
      <g>
       <use xlink:href="#m04ff135340" x="31.8" y="23.716931" style="stroke: #000000; stroke-width: 0.6"/>
      </g>
     </g>
    </g>
    <g id="ytick_20">
     <g id="line2d_26">
      <g>
       <use xlink:href="#m04ff135340" x="31.8" y="13.707658" style="stroke: #000000; stroke-width: 0.6"/>
      </g>
     </g>
    </g>
   </g>
   <g id="line2d_27">
    <path d="M 35.911579 13.5 
" clip-path="url(#p01efd3181c)" style="fill: none; stroke: #1f77b4; stroke-width: 1.5; stroke-linecap: square"/>
   </g>
   <g id="line2d_28">
    <path d="M 35.911579 13.5 
L 45.162632 96.017649 
" clip-path="url(#p01efd3181c)" style="fill: none; stroke: #1f77b4; stroke-width: 1.5; stroke-linecap: square"/>
   </g>
   <g id="line2d_29">
    <path d="M 35.911579 13.5 
L 45.162632 96.017649 
" clip-path="url(#p01efd3181c)" style="fill: none; stroke: #1f77b4; stroke-width: 1.5; stroke-linecap: square"/>
   </g>
   <g id="line2d_30">
    <path d="M 51.33 27.255546 
" clip-path="url(#p01efd3181c)" style="fill: none; stroke-dasharray: 5.55,2.4; stroke-dashoffset: 0; stroke: #ff7f0e; stroke-width: 1.5"/>
   </g>
   <g id="line2d_31">
    <path d="M 35.911579 13.5 
L 45.162632 96.017649 
L 54.413684 101.07337 
" clip-path="url(#p01efd3181c)" style="fill: none; stroke: #1f77b4; stroke-width: 1.5; stroke-linecap: square"/>
   </g>
   <g id="line2d_32">
    <path d="M 51.33 27.255546 
" clip-path="url(#p01efd3181c)" style="fill: none; stroke-dasharray: 5.55,2.4; stroke-dashoffset: 0; stroke: #ff7f0e; stroke-width: 1.5"/>
   </g>
   <g id="line2d_33">
    <path d="M 35.911579 13.5 
L 45.162632 96.017649 
L 54.413684 101.07337 
L 63.664737 111.942826 
" clip-path="url(#p01efd3181c)" style="fill: none; stroke: #1f77b4; stroke-width: 1.5; stroke-linecap: square"/>
   </g>
   <g id="line2d_34">
    <path d="M 51.33 27.255546 
" clip-path="url(#p01efd3181c)" style="fill: none; stroke-dasharray: 5.55,2.4; stroke-dashoffset: 0; stroke: #ff7f0e; stroke-width: 1.5"/>
   </g>
   <g id="line2d_35">
    <path d="M 35.911579 13.5 
L 45.162632 96.017649 
L 54.413684 101.07337 
L 63.664737 111.942826 
" clip-path="url(#p01efd3181c)" style="fill: none; stroke: #1f77b4; stroke-width: 1.5; stroke-linecap: square"/>
   </g>
   <g id="line2d_36">
    <path d="M 51.33 27.255546 
L 70.86 67.936067 
" clip-path="url(#p01efd3181c)" style="fill: none; stroke-dasharray: 5.55,2.4; stroke-dashoffset: 0; stroke: #ff7f0e; stroke-width: 1.5"/>
   </g>
   <g id="line2d_37">
    <path d="M 35.911579 13.5 
L 45.162632 96.017649 
L 54.413684 101.07337 
L 63.664737 111.942826 
L 72.915789 112.304911 
" clip-path="url(#p01efd3181c)" style="fill: none; stroke: #1f77b4; stroke-width: 1.5; stroke-linecap: square"/>
   </g>
   <g id="line2d_38">
    <path d="M 51.33 27.255546 
L 70.86 67.936067 
" clip-path="url(#p01efd3181c)" style="fill: none; stroke-dasharray: 5.55,2.4; stroke-dashoffset: 0; stroke: #ff7f0e; stroke-width: 1.5"/>
   </g>
   <g id="line2d_39">
    <path d="M 35.911579 13.5 
L 45.162632 96.017649 
L 54.413684 101.07337 
L 63.664737 111.942826 
L 72.915789 112.304911 
L 82.166842 113.287803 
" clip-path="url(#p01efd3181c)" style="fill: none; stroke: #1f77b4; stroke-width: 1.5; stroke-linecap: square"/>
   </g>
   <g id="line2d_40">
    <path d="M 51.33 27.255546 
L 70.86 67.936067 
" clip-path="url(#p01efd3181c)" style="fill: none; stroke-dasharray: 5.55,2.4; stroke-dashoffset: 0; stroke: #ff7f0e; stroke-width: 1.5"/>
   </g>
   <g id="line2d_41">
    <path d="M 35.911579 13.5 
L 45.162632 96.017649 
L 54.413684 101.07337 
L 63.664737 111.942826 
L 72.915789 112.304911 
L 82.166842 113.287803 
" clip-path="url(#p01efd3181c)" style="fill: none; stroke: #1f77b4; stroke-width: 1.5; stroke-linecap: square"/>
   </g>
   <g id="line2d_42">
    <path d="M 51.33 27.255546 
L 70.86 67.936067 
L 90.39 95.190863 
" clip-path="url(#p01efd3181c)" style="fill: none; stroke-dasharray: 5.55,2.4; stroke-dashoffset: 0; stroke: #ff7f0e; stroke-width: 1.5"/>
   </g>
   <g id="line2d_43">
    <path d="M 35.911579 13.5 
L 45.162632 96.017649 
L 54.413684 101.07337 
L 63.664737 111.942826 
L 72.915789 112.304911 
L 82.166842 113.287803 
L 91.417895 118.842752 
" clip-path="url(#p01efd3181c)" style="fill: none; stroke: #1f77b4; stroke-width: 1.5; stroke-linecap: square"/>
   </g>
   <g id="line2d_44">
    <path d="M 51.33 27.255546 
L 70.86 67.936067 
L 90.39 95.190863 
" clip-path="url(#p01efd3181c)" style="fill: none; stroke-dasharray: 5.55,2.4; stroke-dashoffset: 0; stroke: #ff7f0e; stroke-width: 1.5"/>
   </g>
   <g id="line2d_45">
    <path d="M 35.911579 13.5 
L 45.162632 96.017649 
L 54.413684 101.07337 
L 63.664737 111.942826 
L 72.915789 112.304911 
L 82.166842 113.287803 
L 91.417895 118.842752 
L 100.668947 128.230325 
" clip-path="url(#p01efd3181c)" style="fill: none; stroke: #1f77b4; stroke-width: 1.5; stroke-linecap: square"/>
   </g>
   <g id="line2d_46">
    <path d="M 51.33 27.255546 
L 70.86 67.936067 
L 90.39 95.190863 
" clip-path="url(#p01efd3181c)" style="fill: none; stroke-dasharray: 5.55,2.4; stroke-dashoffset: 0; stroke: #ff7f0e; stroke-width: 1.5"/>
   </g>
   <g id="line2d_47">
    <path d="M 35.911579 13.5 
L 45.162632 96.017649 
L 54.413684 101.07337 
L 63.664737 111.942826 
L 72.915789 112.304911 
L 82.166842 113.287803 
L 91.417895 118.842752 
L 100.668947 128.230325 
" clip-path="url(#p01efd3181c)" style="fill: none; stroke: #1f77b4; stroke-width: 1.5; stroke-linecap: square"/>
   </g>
   <g id="line2d_48">
    <path d="M 51.33 27.255546 
L 70.86 67.936067 
L 90.39 95.190863 
L 109.92 105.796063 
" clip-path="url(#p01efd3181c)" style="fill: none; stroke-dasharray: 5.55,2.4; stroke-dashoffset: 0; stroke: #ff7f0e; stroke-width: 1.5"/>
   </g>
   <g id="line2d_49">
    <path d="M 35.911579 13.5 
L 45.162632 96.017649 
L 54.413684 101.07337 
L 63.664737 111.942826 
L 72.915789 112.304911 
L 82.166842 113.287803 
L 91.417895 118.842752 
L 100.668947 128.230325 
L 109.92 120.996388 
" clip-path="url(#p01efd3181c)" style="fill: none; stroke: #1f77b4; stroke-width: 1.5; stroke-linecap: square"/>
   </g>
   <g id="line2d_50">
    <path d="M 51.33 27.255546 
L 70.86 67.936067 
L 90.39 95.190863 
L 109.92 105.796063 
" clip-path="url(#p01efd3181c)" style="fill: none; stroke-dasharray: 5.55,2.4; stroke-dashoffset: 0; stroke: #ff7f0e; stroke-width: 1.5"/>
   </g>
   <g id="line2d_51">
    <path d="M 35.911579 13.5 
L 45.162632 96.017649 
L 54.413684 101.07337 
L 63.664737 111.942826 
L 72.915789 112.304911 
L 82.166842 113.287803 
L 91.417895 118.842752 
L 100.668947 128.230325 
L 109.92 120.996388 
L 119.171053 129.455062 
" clip-path="url(#p01efd3181c)" style="fill: none; stroke: #1f77b4; stroke-width: 1.5; stroke-linecap: square"/>
   </g>
   <g id="line2d_52">
    <path d="M 51.33 27.255546 
L 70.86 67.936067 
L 90.39 95.190863 
L 109.92 105.796063 
" clip-path="url(#p01efd3181c)" style="fill: none; stroke-dasharray: 5.55,2.4; stroke-dashoffset: 0; stroke: #ff7f0e; stroke-width: 1.5"/>
   </g>
   <g id="line2d_53">
    <path d="M 35.911579 13.5 
L 45.162632 96.017649 
L 54.413684 101.07337 
L 63.664737 111.942826 
L 72.915789 112.304911 
L 82.166842 113.287803 
L 91.417895 118.842752 
L 100.668947 128.230325 
L 109.92 120.996388 
L 119.171053 129.455062 
" clip-path="url(#p01efd3181c)" style="fill: none; stroke: #1f77b4; stroke-width: 1.5; stroke-linecap: square"/>
   </g>
   <g id="line2d_54">
    <path d="M 51.33 27.255546 
L 70.86 67.936067 
L 90.39 95.190863 
L 109.92 105.796063 
L 129.45 109.955739 
" clip-path="url(#p01efd3181c)" style="fill: none; stroke-dasharray: 5.55,2.4; stroke-dashoffset: 0; stroke: #ff7f0e; stroke-width: 1.5"/>
   </g>
   <g id="line2d_55">
    <path d="M 35.911579 13.5 
L 45.162632 96.017649 
L 54.413684 101.07337 
L 63.664737 111.942826 
L 72.915789 112.304911 
L 82.166842 113.287803 
L 91.417895 118.842752 
L 100.668947 128.230325 
L 109.92 120.996388 
L 119.171053 129.455062 
L 128.422105 129.583973 
" clip-path="url(#p01efd3181c)" style="fill: none; stroke: #1f77b4; stroke-width: 1.5; stroke-linecap: square"/>
   </g>
   <g id="line2d_56">
    <path d="M 51.33 27.255546 
L 70.86 67.936067 
L 90.39 95.190863 
L 109.92 105.796063 
L 129.45 109.955739 
" clip-path="url(#p01efd3181c)" style="fill: none; stroke-dasharray: 5.55,2.4; stroke-dashoffset: 0; stroke: #ff7f0e; stroke-width: 1.5"/>
   </g>
   <g id="line2d_57">
    <path d="M 35.911579 13.5 
L 45.162632 96.017649 
L 54.413684 101.07337 
L 63.664737 111.942826 
L 72.915789 112.304911 
L 82.166842 113.287803 
L 91.417895 118.842752 
L 100.668947 128.230325 
L 109.92 120.996388 
L 119.171053 129.455062 
L 128.422105 129.583973 
L 137.673158 126.811917 
" clip-path="url(#p01efd3181c)" style="fill: none; stroke: #1f77b4; stroke-width: 1.5; stroke-linecap: square"/>
   </g>
   <g id="line2d_58">
    <path d="M 51.33 27.255546 
L 70.86 67.936067 
L 90.39 95.190863 
L 109.92 105.796063 
L 129.45 109.955739 
" clip-path="url(#p01efd3181c)" style="fill: none; stroke-dasharray: 5.55,2.4; stroke-dashoffset: 0; stroke: #ff7f0e; stroke-width: 1.5"/>
   </g>
   <g id="line2d_59">
    <path d="M 35.911579 13.5 
L 45.162632 96.017649 
L 54.413684 101.07337 
L 63.664737 111.942826 
L 72.915789 112.304911 
L 82.166842 113.287803 
L 91.417895 118.842752 
L 100.668947 128.230325 
L 109.92 120.996388 
L 119.171053 129.455062 
L 128.422105 129.583973 
L 137.673158 126.811917 
" clip-path="url(#p01efd3181c)" style="fill: none; stroke: #1f77b4; stroke-width: 1.5; stroke-linecap: square"/>
   </g>
   <g id="line2d_60">
    <path d="M 51.33 27.255546 
L 70.86 67.936067 
L 90.39 95.190863 
L 109.92 105.796063 
L 129.45 109.955739 
L 148.98 119.8045 
" clip-path="url(#p01efd3181c)" style="fill: none; stroke-dasharray: 5.55,2.4; stroke-dashoffset: 0; stroke: #ff7f0e; stroke-width: 1.5"/>
   </g>
   <g id="line2d_61">
    <path d="M 35.911579 13.5 
L 45.162632 96.017649 
L 54.413684 101.07337 
L 63.664737 111.942826 
L 72.915789 112.304911 
L 82.166842 113.287803 
L 91.417895 118.842752 
L 100.668947 128.230325 
L 109.92 120.996388 
L 119.171053 129.455062 
L 128.422105 129.583973 
L 137.673158 126.811917 
L 146.924211 131.715998 
" clip-path="url(#p01efd3181c)" style="fill: none; stroke: #1f77b4; stroke-width: 1.5; stroke-linecap: square"/>
   </g>
   <g id="line2d_62">
    <path d="M 51.33 27.255546 
L 70.86 67.936067 
L 90.39 95.190863 
L 109.92 105.796063 
L 129.45 109.955739 
L 148.98 119.8045 
" clip-path="url(#p01efd3181c)" style="fill: none; stroke-dasharray: 5.55,2.4; stroke-dashoffset: 0; stroke: #ff7f0e; stroke-width: 1.5"/>
   </g>
   <g id="line2d_63">
    <path d="M 35.911579 13.5 
L 45.162632 96.017649 
L 54.413684 101.07337 
L 63.664737 111.942826 
L 72.915789 112.304911 
L 82.166842 113.287803 
L 91.417895 118.842752 
L 100.668947 128.230325 
L 109.92 120.996388 
L 119.171053 129.455062 
L 128.422105 129.583973 
L 137.673158 126.811917 
L 146.924211 131.715998 
L 156.175263 133.870154 
" clip-path="url(#p01efd3181c)" style="fill: none; stroke: #1f77b4; stroke-width: 1.5; stroke-linecap: square"/>
   </g>
   <g id="line2d_64">
    <path d="M 51.33 27.255546 
L 70.86 67.936067 
L 90.39 95.190863 
L 109.92 105.796063 
L 129.45 109.955739 
L 148.98 119.8045 
" clip-path="url(#p01efd3181c)" style="fill: none; stroke-dasharray: 5.55,2.4; stroke-dashoffset: 0; stroke: #ff7f0e; stroke-width: 1.5"/>
   </g>
   <g id="line2d_65">
    <path d="M 35.911579 13.5 
L 45.162632 96.017649 
L 54.413684 101.07337 
L 63.664737 111.942826 
L 72.915789 112.304911 
L 82.166842 113.287803 
L 91.417895 118.842752 
L 100.668947 128.230325 
L 109.92 120.996388 
L 119.171053 129.455062 
L 128.422105 129.583973 
L 137.673158 126.811917 
L 146.924211 131.715998 
L 156.175263 133.870154 
" clip-path="url(#p01efd3181c)" style="fill: none; stroke: #1f77b4; stroke-width: 1.5; stroke-linecap: square"/>
   </g>
   <g id="line2d_66">
    <path d="M 51.33 27.255546 
L 70.86 67.936067 
L 90.39 95.190863 
L 109.92 105.796063 
L 129.45 109.955739 
L 148.98 119.8045 
L 168.51 118.339732 
" clip-path="url(#p01efd3181c)" style="fill: none; stroke-dasharray: 5.55,2.4; stroke-dashoffset: 0; stroke: #ff7f0e; stroke-width: 1.5"/>
   </g>
   <g id="line2d_67">
    <path d="M 35.911579 13.5 
L 45.162632 96.017649 
L 54.413684 101.07337 
L 63.664737 111.942826 
L 72.915789 112.304911 
L 82.166842 113.287803 
L 91.417895 118.842752 
L 100.668947 128.230325 
L 109.92 120.996388 
L 119.171053 129.455062 
L 128.422105 129.583973 
L 137.673158 126.811917 
L 146.924211 131.715998 
L 156.175263 133.870154 
L 165.426316 126.301282 
" clip-path="url(#p01efd3181c)" style="fill: none; stroke: #1f77b4; stroke-width: 1.5; stroke-linecap: square"/>
   </g>
   <g id="line2d_68">
    <path d="M 51.33 27.255546 
L 70.86 67.936067 
L 90.39 95.190863 
L 109.92 105.796063 
L 129.45 109.955739 
L 148.98 119.8045 
L 168.51 118.339732 
" clip-path="url(#p01efd3181c)" style="fill: none; stroke-dasharray: 5.55,2.4; stroke-dashoffset: 0; stroke: #ff7f0e; stroke-width: 1.5"/>
   </g>
   <g id="line2d_69">
    <path d="M 35.911579 13.5 
L 45.162632 96.017649 
L 54.413684 101.07337 
L 63.664737 111.942826 
L 72.915789 112.304911 
L 82.166842 113.287803 
L 91.417895 118.842752 
L 100.668947 128.230325 
L 109.92 120.996388 
L 119.171053 129.455062 
L 128.422105 129.583973 
L 137.673158 126.811917 
L 146.924211 131.715998 
L 156.175263 133.870154 
L 165.426316 126.301282 
L 174.677368 138.279135 
" clip-path="url(#p01efd3181c)" style="fill: none; stroke: #1f77b4; stroke-width: 1.5; stroke-linecap: square"/>
   </g>
   <g id="line2d_70">
    <path d="M 51.33 27.255546 
L 70.86 67.936067 
L 90.39 95.190863 
L 109.92 105.796063 
L 129.45 109.955739 
L 148.98 119.8045 
L 168.51 118.339732 
" clip-path="url(#p01efd3181c)" style="fill: none; stroke-dasharray: 5.55,2.4; stroke-dashoffset: 0; stroke: #ff7f0e; stroke-width: 1.5"/>
   </g>
   <g id="line2d_71">
    <path d="M 35.911579 13.5 
L 45.162632 96.017649 
L 54.413684 101.07337 
L 63.664737 111.942826 
L 72.915789 112.304911 
L 82.166842 113.287803 
L 91.417895 118.842752 
L 100.668947 128.230325 
L 109.92 120.996388 
L 119.171053 129.455062 
L 128.422105 129.583973 
L 137.673158 126.811917 
L 146.924211 131.715998 
L 156.175263 133.870154 
L 165.426316 126.301282 
L 174.677368 138.279135 
" clip-path="url(#p01efd3181c)" style="fill: none; stroke: #1f77b4; stroke-width: 1.5; stroke-linecap: square"/>
   </g>
   <g id="line2d_72">
    <path d="M 51.33 27.255546 
L 70.86 67.936067 
L 90.39 95.190863 
L 109.92 105.796063 
L 129.45 109.955739 
L 148.98 119.8045 
L 168.51 118.339732 
L 188.04 130.5662 
" clip-path="url(#p01efd3181c)" style="fill: none; stroke-dasharray: 5.55,2.4; stroke-dashoffset: 0; stroke: #ff7f0e; stroke-width: 1.5"/>
   </g>
   <g id="line2d_73">
    <path d="M 35.911579 13.5 
L 45.162632 96.017649 
L 54.413684 101.07337 
L 63.664737 111.942826 
L 72.915789 112.304911 
L 82.166842 113.287803 
L 91.417895 118.842752 
L 100.668947 128.230325 
L 109.92 120.996388 
L 119.171053 129.455062 
L 128.422105 129.583973 
L 137.673158 126.811917 
L 146.924211 131.715998 
L 156.175263 133.870154 
L 165.426316 126.301282 
L 174.677368 138.279135 
L 183.928421 137.103239 
" clip-path="url(#p01efd3181c)" style="fill: none; stroke: #1f77b4; stroke-width: 1.5; stroke-linecap: square"/>
   </g>
   <g id="line2d_74">
    <path d="M 51.33 27.255546 
L 70.86 67.936067 
L 90.39 95.190863 
L 109.92 105.796063 
L 129.45 109.955739 
L 148.98 119.8045 
L 168.51 118.339732 
L 188.04 130.5662 
" clip-path="url(#p01efd3181c)" style="fill: none; stroke-dasharray: 5.55,2.4; stroke-dashoffset: 0; stroke: #ff7f0e; stroke-width: 1.5"/>
   </g>
   <g id="line2d_75">
    <path d="M 35.911579 13.5 
L 45.162632 96.017649 
L 54.413684 101.07337 
L 63.664737 111.942826 
L 72.915789 112.304911 
L 82.166842 113.287803 
L 91.417895 118.842752 
L 100.668947 128.230325 
L 109.92 120.996388 
L 119.171053 129.455062 
L 128.422105 129.583973 
L 137.673158 126.811917 
L 146.924211 131.715998 
L 156.175263 133.870154 
L 165.426316 126.301282 
L 174.677368 138.279135 
L 183.928421 137.103239 
L 193.179474 134.435431 
" clip-path="url(#p01efd3181c)" style="fill: none; stroke: #1f77b4; stroke-width: 1.5; stroke-linecap: square"/>
   </g>
   <g id="line2d_76">
    <path d="M 51.33 27.255546 
L 70.86 67.936067 
L 90.39 95.190863 
L 109.92 105.796063 
L 129.45 109.955739 
L 148.98 119.8045 
L 168.51 118.339732 
L 188.04 130.5662 
" clip-path="url(#p01efd3181c)" style="fill: none; stroke-dasharray: 5.55,2.4; stroke-dashoffset: 0; stroke: #ff7f0e; stroke-width: 1.5"/>
   </g>
   <g id="line2d_77">
    <path d="M 35.911579 13.5 
L 45.162632 96.017649 
L 54.413684 101.07337 
L 63.664737 111.942826 
L 72.915789 112.304911 
L 82.166842 113.287803 
L 91.417895 118.842752 
L 100.668947 128.230325 
L 109.92 120.996388 
L 119.171053 129.455062 
L 128.422105 129.583973 
L 137.673158 126.811917 
L 146.924211 131.715998 
L 156.175263 133.870154 
L 165.426316 126.301282 
L 174.677368 138.279135 
L 183.928421 137.103239 
L 193.179474 134.435431 
L 202.430526 133.950786 
" clip-path="url(#p01efd3181c)" style="fill: none; stroke: #1f77b4; stroke-width: 1.5; stroke-linecap: square"/>
   </g>
   <g id="line2d_78">
    <path d="M 51.33 27.255546 
L 70.86 67.936067 
L 90.39 95.190863 
L 109.92 105.796063 
L 129.45 109.955739 
L 148.98 119.8045 
L 168.51 118.339732 
L 188.04 130.5662 
" clip-path="url(#p01efd3181c)" style="fill: none; stroke-dasharray: 5.55,2.4; stroke-dashoffset: 0; stroke: #ff7f0e; stroke-width: 1.5"/>
   </g>
   <g id="line2d_79">
    <path d="M 35.911579 13.5 
L 45.162632 96.017649 
L 54.413684 101.07337 
L 63.664737 111.942826 
L 72.915789 112.304911 
L 82.166842 113.287803 
L 91.417895 118.842752 
L 100.668947 128.230325 
L 109.92 120.996388 
L 119.171053 129.455062 
L 128.422105 129.583973 
L 137.673158 126.811917 
L 146.924211 131.715998 
L 156.175263 133.870154 
L 165.426316 126.301282 
L 174.677368 138.279135 
L 183.928421 137.103239 
L 193.179474 134.435431 
L 202.430526 133.950786 
" clip-path="url(#p01efd3181c)" style="fill: none; stroke: #1f77b4; stroke-width: 1.5; stroke-linecap: square"/>
   </g>
   <g id="line2d_80">
    <path d="M 51.33 27.255546 
L 70.86 67.936067 
L 90.39 95.190863 
L 109.92 105.796063 
L 129.45 109.955739 
L 148.98 119.8045 
L 168.51 118.339732 
L 188.04 130.5662 
L 207.57 135.53681 
" clip-path="url(#p01efd3181c)" style="fill: none; stroke-dasharray: 5.55,2.4; stroke-dashoffset: 0; stroke: #ff7f0e; stroke-width: 1.5"/>
   </g>
   <g id="line2d_81">
    <path d="M 35.911579 13.5 
L 45.162632 96.017649 
L 54.413684 101.07337 
L 63.664737 111.942826 
L 72.915789 112.304911 
L 82.166842 113.287803 
L 91.417895 118.842752 
L 100.668947 128.230325 
L 109.92 120.996388 
L 119.171053 129.455062 
L 128.422105 129.583973 
L 137.673158 126.811917 
L 146.924211 131.715998 
L 156.175263 133.870154 
L 165.426316 126.301282 
L 174.677368 138.279135 
L 183.928421 137.103239 
L 193.179474 134.435431 
L 202.430526 133.950786 
L 211.681579 136.310613 
" clip-path="url(#p01efd3181c)" style="fill: none; stroke: #1f77b4; stroke-width: 1.5; stroke-linecap: square"/>
   </g>
   <g id="line2d_82">
    <path d="M 51.33 27.255546 
L 70.86 67.936067 
L 90.39 95.190863 
L 109.92 105.796063 
L 129.45 109.955739 
L 148.98 119.8045 
L 168.51 118.339732 
L 188.04 130.5662 
L 207.57 135.53681 
" clip-path="url(#p01efd3181c)" style="fill: none; stroke-dasharray: 5.55,2.4; stroke-dashoffset: 0; stroke: #ff7f0e; stroke-width: 1.5"/>
   </g>
   <g id="line2d_83">
    <path d="M 35.911579 13.5 
L 45.162632 96.017649 
L 54.413684 101.07337 
L 63.664737 111.942826 
L 72.915789 112.304911 
L 82.166842 113.287803 
L 91.417895 118.842752 
L 100.668947 128.230325 
L 109.92 120.996388 
L 119.171053 129.455062 
L 128.422105 129.583973 
L 137.673158 126.811917 
L 146.924211 131.715998 
L 156.175263 133.870154 
L 165.426316 126.301282 
L 174.677368 138.279135 
L 183.928421 137.103239 
L 193.179474 134.435431 
L 202.430526 133.950786 
L 211.681579 136.310613 
L 220.932632 138.377605 
" clip-path="url(#p01efd3181c)" style="fill: none; stroke: #1f77b4; stroke-width: 1.5; stroke-linecap: square"/>
   </g>
   <g id="line2d_84">
    <path d="M 51.33 27.255546 
L 70.86 67.936067 
L 90.39 95.190863 
L 109.92 105.796063 
L 129.45 109.955739 
L 148.98 119.8045 
L 168.51 118.339732 
L 188.04 130.5662 
L 207.57 135.53681 
" clip-path="url(#p01efd3181c)" style="fill: none; stroke-dasharray: 5.55,2.4; stroke-dashoffset: 0; stroke: #ff7f0e; stroke-width: 1.5"/>
   </g>
   <g id="line2d_85">
    <path d="M 35.911579 13.5 
L 45.162632 96.017649 
L 54.413684 101.07337 
L 63.664737 111.942826 
L 72.915789 112.304911 
L 82.166842 113.287803 
L 91.417895 118.842752 
L 100.668947 128.230325 
L 109.92 120.996388 
L 119.171053 129.455062 
L 128.422105 129.583973 
L 137.673158 126.811917 
L 146.924211 131.715998 
L 156.175263 133.870154 
L 165.426316 126.301282 
L 174.677368 138.279135 
L 183.928421 137.103239 
L 193.179474 134.435431 
L 202.430526 133.950786 
L 211.681579 136.310613 
L 220.932632 138.377605 
" clip-path="url(#p01efd3181c)" style="fill: none; stroke: #1f77b4; stroke-width: 1.5; stroke-linecap: square"/>
   </g>
   <g id="line2d_86">
    <path d="M 51.33 27.255546 
L 70.86 67.936067 
L 90.39 95.190863 
L 109.92 105.796063 
L 129.45 109.955739 
L 148.98 119.8045 
L 168.51 118.339732 
L 188.04 130.5662 
L 207.57 135.53681 
L 227.1 139.5 
" clip-path="url(#p01efd3181c)" style="fill: none; stroke-dasharray: 5.55,2.4; stroke-dashoffset: 0; stroke: #ff7f0e; stroke-width: 1.5"/>
   </g>
   <g id="patch_3">
    <path d="M 31.8 145.8 
L 31.8 7.2 
" style="fill: none; stroke: #000000; stroke-width: 0.8; stroke-linejoin: miter; stroke-linecap: square"/>
   </g>
   <g id="patch_4">
    <path d="M 227.1 145.8 
L 227.1 7.2 
" style="fill: none; stroke: #000000; stroke-width: 0.8; stroke-linejoin: miter; stroke-linecap: square"/>
   </g>
   <g id="patch_5">
    <path d="M 31.8 145.8 
L 227.1 145.8 
" style="fill: none; stroke: #000000; stroke-width: 0.8; stroke-linejoin: miter; stroke-linecap: square"/>
   </g>
   <g id="patch_6">
    <path d="M 31.8 7.2 
L 227.1 7.2 
" style="fill: none; stroke: #000000; stroke-width: 0.8; stroke-linejoin: miter; stroke-linecap: square"/>
   </g>
   <g id="legend_1">
    <g id="patch_7">
     <path d="M 140.509375 45.1125 
L 220.1 45.1125 
Q 222.1 45.1125 222.1 43.1125 
L 222.1 14.2 
Q 222.1 12.2 220.1 12.2 
L 140.509375 12.2 
Q 138.509375 12.2 138.509375 14.2 
L 138.509375 43.1125 
Q 138.509375 45.1125 140.509375 45.1125 
z
" style="fill: #ffffff; opacity: 0.8; stroke: #cccccc; stroke-linejoin: miter"/>
    </g>
    <g id="line2d_87">
     <path d="M 142.509375 20.298438 
L 152.509375 20.298438 
L 162.509375 20.298438 
" style="fill: none; stroke: #1f77b4; stroke-width: 1.5; stroke-linecap: square"/>
    </g>
    <g id="text_10">
     <!-- train_loss -->
     <g transform="translate(170.509375 23.798438) scale(0.1 -0.1)">
      <defs>
       <path id="DejaVuSans-74" d="M 1172 4494 
L 1172 3500 
L 2356 3500 
L 2356 3053 
L 1172 3053 
L 1172 1153 
Q 1172 725 1289 603 
Q 1406 481 1766 481 
L 2356 481 
L 2356 0 
L 1766 0 
Q 1100 0 847 248 
Q 594 497 594 1153 
L 594 3053 
L 172 3053 
L 172 3500 
L 594 3500 
L 594 4494 
L 1172 4494 
z
" transform="scale(0.015625)"/>
       <path id="DejaVuSans-72" d="M 2631 2963 
Q 2534 3019 2420 3045 
Q 2306 3072 2169 3072 
Q 1681 3072 1420 2755 
Q 1159 2438 1159 1844 
L 1159 0 
L 581 0 
L 581 3500 
L 1159 3500 
L 1159 2956 
Q 1341 3275 1631 3429 
Q 1922 3584 2338 3584 
Q 2397 3584 2469 3576 
Q 2541 3569 2628 3553 
L 2631 2963 
z
" transform="scale(0.015625)"/>
       <path id="DejaVuSans-61" d="M 2194 1759 
Q 1497 1759 1228 1600 
Q 959 1441 959 1056 
Q 959 750 1161 570 
Q 1363 391 1709 391 
Q 2188 391 2477 730 
Q 2766 1069 2766 1631 
L 2766 1759 
L 2194 1759 
z
M 3341 1997 
L 3341 0 
L 2766 0 
L 2766 531 
Q 2569 213 2275 61 
Q 1981 -91 1556 -91 
Q 1019 -91 701 211 
Q 384 513 384 1019 
Q 384 1609 779 1909 
Q 1175 2209 1959 2209 
L 2766 2209 
L 2766 2266 
Q 2766 2663 2505 2880 
Q 2244 3097 1772 3097 
Q 1472 3097 1187 3025 
Q 903 2953 641 2809 
L 641 3341 
Q 956 3463 1253 3523 
Q 1550 3584 1831 3584 
Q 2591 3584 2966 3190 
Q 3341 2797 3341 1997 
z
" transform="scale(0.015625)"/>
       <path id="DejaVuSans-69" d="M 603 3500 
L 1178 3500 
L 1178 0 
L 603 0 
L 603 3500 
z
M 603 4863 
L 1178 4863 
L 1178 4134 
L 603 4134 
L 603 4863 
z
" transform="scale(0.015625)"/>
       <path id="DejaVuSans-6e" d="M 3513 2113 
L 3513 0 
L 2938 0 
L 2938 2094 
Q 2938 2591 2744 2837 
Q 2550 3084 2163 3084 
Q 1697 3084 1428 2787 
Q 1159 2491 1159 1978 
L 1159 0 
L 581 0 
L 581 3500 
L 1159 3500 
L 1159 2956 
Q 1366 3272 1645 3428 
Q 1925 3584 2291 3584 
Q 2894 3584 3203 3211 
Q 3513 2838 3513 2113 
z
" transform="scale(0.015625)"/>
       <path id="DejaVuSans-5f" d="M 3263 -1063 
L 3263 -1509 
L -63 -1509 
L -63 -1063 
L 3263 -1063 
z
" transform="scale(0.015625)"/>
       <path id="DejaVuSans-6c" d="M 603 4863 
L 1178 4863 
L 1178 0 
L 603 0 
L 603 4863 
z
" transform="scale(0.015625)"/>
       <path id="DejaVuSans-73" d="M 2834 3397 
L 2834 2853 
Q 2591 2978 2328 3040 
Q 2066 3103 1784 3103 
Q 1356 3103 1142 2972 
Q 928 2841 928 2578 
Q 928 2378 1081 2264 
Q 1234 2150 1697 2047 
L 1894 2003 
Q 2506 1872 2764 1633 
Q 3022 1394 3022 966 
Q 3022 478 2636 193 
Q 2250 -91 1575 -91 
Q 1294 -91 989 -36 
Q 684 19 347 128 
L 347 722 
Q 666 556 975 473 
Q 1284 391 1588 391 
Q 1994 391 2212 530 
Q 2431 669 2431 922 
Q 2431 1156 2273 1281 
Q 2116 1406 1581 1522 
L 1381 1569 
Q 847 1681 609 1914 
Q 372 2147 372 2553 
Q 372 3047 722 3315 
Q 1072 3584 1716 3584 
Q 2034 3584 2315 3537 
Q 2597 3491 2834 3397 
z
" transform="scale(0.015625)"/>
      </defs>
      <use xlink:href="#DejaVuSans-74"/>
      <use xlink:href="#DejaVuSans-72" x="39.208984"/>
      <use xlink:href="#DejaVuSans-61" x="80.322266"/>
      <use xlink:href="#DejaVuSans-69" x="141.601562"/>
      <use xlink:href="#DejaVuSans-6e" x="169.384766"/>
      <use xlink:href="#DejaVuSans-5f" x="232.763672"/>
      <use xlink:href="#DejaVuSans-6c" x="282.763672"/>
      <use xlink:href="#DejaVuSans-6f" x="310.546875"/>
      <use xlink:href="#DejaVuSans-73" x="371.728516"/>
      <use xlink:href="#DejaVuSans-73" x="423.828125"/>
     </g>
    </g>
    <g id="line2d_88">
     <path d="M 142.509375 35.254688 
L 152.509375 35.254688 
L 162.509375 35.254688 
" style="fill: none; stroke-dasharray: 5.55,2.4; stroke-dashoffset: 0; stroke: #ff7f0e; stroke-width: 1.5"/>
    </g>
    <g id="text_11">
     <!-- val_loss -->
     <g transform="translate(170.509375 38.754688) scale(0.1 -0.1)">
      <defs>
       <path id="DejaVuSans-76" d="M 191 3500 
L 800 3500 
L 1894 563 
L 2988 3500 
L 3597 3500 
L 2284 0 
L 1503 0 
L 191 3500 
z
" transform="scale(0.015625)"/>
      </defs>
      <use xlink:href="#DejaVuSans-76"/>
      <use xlink:href="#DejaVuSans-61" x="59.179688"/>
      <use xlink:href="#DejaVuSans-6c" x="120.458984"/>
      <use xlink:href="#DejaVuSans-5f" x="148.242188"/>
      <use xlink:href="#DejaVuSans-6c" x="198.242188"/>
      <use xlink:href="#DejaVuSans-6f" x="226.025391"/>
      <use xlink:href="#DejaVuSans-73" x="287.207031"/>
      <use xlink:href="#DejaVuSans-73" x="339.306641"/>
     </g>
    </g>
   </g>
  </g>
 </g>
 <defs>
  <clipPath id="p01efd3181c">
   <rect x="31.8" y="7.2" width="195.3" height="138.6"/>
  </clipPath>
 </defs>
</svg>
